<?xml version="1.0" encoding="utf-8" standalone="no"?>
<!DOCTYPE svg PUBLIC "-//W3C//DTD SVG 1.1//EN"
  "http://www.w3.org/Graphics/SVG/1.1/DTD/svg11.dtd">
<svg xmlns:xlink="http://www.w3.org/1999/xlink" width="864pt" height="360pt" viewBox="0 0 864 360" xmlns="http://www.w3.org/2000/svg" version="1.1">
 <metadata>
  <rdf:RDF xmlns:dc="http://purl.org/dc/elements/1.1/" xmlns:cc="http://creativecommons.org/ns#" xmlns:rdf="http://www.w3.org/1999/02/22-rdf-syntax-ns#">
   <cc:Work>
    <dc:type rdf:resource="http://purl.org/dc/dcmitype/StillImage"/>
    <dc:date>2026-07-08T14:23:38.320385</dc:date>
    <dc:format>image/svg+xml</dc:format>
    <dc:creator>
     <cc:Agent>
      <dc:title>Matplotlib v3.10.0, https://matplotlib.org/</dc:title>
     </cc:Agent>
    </dc:creator>
   </cc:Work>
  </rdf:RDF>
 </metadata>
 <defs>
  <style type="text/css">*{stroke-linejoin: round; stroke-linecap: butt}</style>
 </defs>
 <g id="figure_1">
  <g id="patch_1">
   <path d="M 0 360 
L 864 360 
L 864 0 
L 0 0 
z
" style="fill: #ffffff"/>
  </g>
  <g id="axes_1">
   <g id="patch_2">
    <path d="M 44.66 318.04 
L 853.2 318.04 
L 853.2 25.44 
L 44.66 25.44 
z
" style="fill: #ffffff"/>
   </g>
   <g id="matplotlib.axis_1">
    <g id="xtick_1">
     <g id="line2d_1">
      <path d="M 90.24253 318.04 
L 90.24253 25.44 
" clip-path="url(#p8fe9a6c799)" style="fill: none; stroke: #b0b0b0; stroke-width: 0.8; stroke-linecap: square"/>
     </g>
     <g id="line2d_2">
      <defs>
       <path id="mef13890566" d="M 0 0 
L 0 3.5 
" style="stroke: #000000; stroke-width: 0.8"/>
      </defs>
      <g>
       <use xlink:href="#mef13890566" x="90.24253" y="318.04" style="stroke: #000000; stroke-width: 0.8"/>
      </g>
     </g>
     <g id="text_1">
      <!-- 1960 -->
      <g transform="translate(77.51753 332.638438) scale(0.1 -0.1)">
       <defs>
        <path id="DejaVuSans-31" d="M 794 531 
L 1825 531 
L 1825 4091 
L 703 3866 
L 703 4441 
L 1819 4666 
L 2450 4666 
L 2450 531 
L 3481 531 
L 3481 0 
L 794 0 
L 794 531 
z
" transform="scale(0.015625)"/>
        <path id="DejaVuSans-39" d="M 703 97 
L 703 672 
Q 941 559 1184 500 
Q 1428 441 1663 441 
Q 2288 441 2617 861 
Q 2947 1281 2994 2138 
Q 2813 1869 2534 1725 
Q 2256 1581 1919 1581 
Q 1219 1581 811 2004 
Q 403 2428 403 3163 
Q 403 3881 828 4315 
Q 1253 4750 1959 4750 
Q 2769 4750 3195 4129 
Q 3622 3509 3622 2328 
Q 3622 1225 3098 567 
Q 2575 -91 1691 -91 
Q 1453 -91 1209 -44 
Q 966 3 703 97 
z
M 1959 2075 
Q 2384 2075 2632 2365 
Q 2881 2656 2881 3163 
Q 2881 3666 2632 3958 
Q 2384 4250 1959 4250 
Q 1534 4250 1286 3958 
Q 1038 3666 1038 3163 
Q 1038 2656 1286 2365 
Q 1534 2075 1959 2075 
z
" transform="scale(0.015625)"/>
        <path id="DejaVuSans-36" d="M 2113 2584 
Q 1688 2584 1439 2293 
Q 1191 2003 1191 1497 
Q 1191 994 1439 701 
Q 1688 409 2113 409 
Q 2538 409 2786 701 
Q 3034 994 3034 1497 
Q 3034 2003 2786 2293 
Q 2538 2584 2113 2584 
z
M 3366 4563 
L 3366 3988 
Q 3128 4100 2886 4159 
Q 2644 4219 2406 4219 
Q 1781 4219 1451 3797 
Q 1122 3375 1075 2522 
Q 1259 2794 1537 2939 
Q 1816 3084 2150 3084 
Q 2853 3084 3261 2657 
Q 3669 2231 3669 1497 
Q 3669 778 3244 343 
Q 2819 -91 2113 -91 
Q 1303 -91 875 529 
Q 447 1150 447 2328 
Q 447 3434 972 4092 
Q 1497 4750 2381 4750 
Q 2619 4750 2861 4703 
Q 3103 4656 3366 4563 
z
" transform="scale(0.015625)"/>
        <path id="DejaVuSans-30" d="M 2034 4250 
Q 1547 4250 1301 3770 
Q 1056 3291 1056 2328 
Q 1056 1369 1301 889 
Q 1547 409 2034 409 
Q 2525 409 2770 889 
Q 3016 1369 3016 2328 
Q 3016 3291 2770 3770 
Q 2525 4250 2034 4250 
z
M 2034 4750 
Q 2819 4750 3233 4129 
Q 3647 3509 3647 2328 
Q 3647 1150 3233 529 
Q 2819 -91 2034 -91 
Q 1250 -91 836 529 
Q 422 1150 422 2328 
Q 422 3509 836 4129 
Q 1250 4750 2034 4750 
z
" transform="scale(0.015625)"/>
       </defs>
       <use xlink:href="#DejaVuSans-31"/>
       <use xlink:href="#DejaVuSans-39" transform="translate(63.623047 0)"/>
       <use xlink:href="#DejaVuSans-36" transform="translate(127.246094 0)"/>
       <use xlink:href="#DejaVuSans-30" transform="translate(190.869141 0)"/>
      </g>
     </g>
    </g>
    <g id="xtick_2">
     <g id="line2d_3">
      <path d="M 207.546499 318.04 
L 207.546499 25.44 
" clip-path="url(#p8fe9a6c799)" style="fill: none; stroke: #b0b0b0; stroke-width: 0.8; stroke-linecap: square"/>
     </g>
     <g id="line2d_4">
      <g>
       <use xlink:href="#mef13890566" x="207.546499" y="318.04" style="stroke: #000000; stroke-width: 0.8"/>
      </g>
     </g>
     <g id="text_2">
      <!-- 1970 -->
      <g transform="translate(194.821499 332.638438) scale(0.1 -0.1)">
       <defs>
        <path id="DejaVuSans-37" d="M 525 4666 
L 3525 4666 
L 3525 4397 
L 1831 0 
L 1172 0 
L 2766 4134 
L 525 4134 
L 525 4666 
z
" transform="scale(0.015625)"/>
       </defs>
       <use xlink:href="#DejaVuSans-31"/>
       <use xlink:href="#DejaVuSans-39" transform="translate(63.623047 0)"/>
       <use xlink:href="#DejaVuSans-37" transform="translate(127.246094 0)"/>
       <use xlink:href="#DejaVuSans-30" transform="translate(190.869141 0)"/>
      </g>
     </g>
    </g>
    <g id="xtick_3">
     <g id="line2d_5">
      <path d="M 324.818355 318.04 
L 324.818355 25.44 
" clip-path="url(#p8fe9a6c799)" style="fill: none; stroke: #b0b0b0; stroke-width: 0.8; stroke-linecap: square"/>
     </g>
     <g id="line2d_6">
      <g>
       <use xlink:href="#mef13890566" x="324.818355" y="318.04" style="stroke: #000000; stroke-width: 0.8"/>
      </g>
     </g>
     <g id="text_3">
      <!-- 1980 -->
      <g transform="translate(312.093355 332.638438) scale(0.1 -0.1)">
       <defs>
        <path id="DejaVuSans-38" d="M 2034 2216 
Q 1584 2216 1326 1975 
Q 1069 1734 1069 1313 
Q 1069 891 1326 650 
Q 1584 409 2034 409 
Q 2484 409 2743 651 
Q 3003 894 3003 1313 
Q 3003 1734 2745 1975 
Q 2488 2216 2034 2216 
z
M 1403 2484 
Q 997 2584 770 2862 
Q 544 3141 544 3541 
Q 544 4100 942 4425 
Q 1341 4750 2034 4750 
Q 2731 4750 3128 4425 
Q 3525 4100 3525 3541 
Q 3525 3141 3298 2862 
Q 3072 2584 2669 2484 
Q 3125 2378 3379 2068 
Q 3634 1759 3634 1313 
Q 3634 634 3220 271 
Q 2806 -91 2034 -91 
Q 1263 -91 848 271 
Q 434 634 434 1313 
Q 434 1759 690 2068 
Q 947 2378 1403 2484 
z
M 1172 3481 
Q 1172 3119 1398 2916 
Q 1625 2713 2034 2713 
Q 2441 2713 2670 2916 
Q 2900 3119 2900 3481 
Q 2900 3844 2670 4047 
Q 2441 4250 2034 4250 
Q 1625 4250 1398 4047 
Q 1172 3844 1172 3481 
z
" transform="scale(0.015625)"/>
       </defs>
       <use xlink:href="#DejaVuSans-31"/>
       <use xlink:href="#DejaVuSans-39" transform="translate(63.623047 0)"/>
       <use xlink:href="#DejaVuSans-38" transform="translate(127.246094 0)"/>
       <use xlink:href="#DejaVuSans-30" transform="translate(190.869141 0)"/>
      </g>
     </g>
    </g>
    <g id="xtick_4">
     <g id="line2d_7">
      <path d="M 442.122324 318.04 
L 442.122324 25.44 
" clip-path="url(#p8fe9a6c799)" style="fill: none; stroke: #b0b0b0; stroke-width: 0.8; stroke-linecap: square"/>
     </g>
     <g id="line2d_8">
      <g>
       <use xlink:href="#mef13890566" x="442.122324" y="318.04" style="stroke: #000000; stroke-width: 0.8"/>
      </g>
     </g>
     <g id="text_4">
      <!-- 1990 -->
      <g transform="translate(429.397324 332.638438) scale(0.1 -0.1)">
       <use xlink:href="#DejaVuSans-31"/>
       <use xlink:href="#DejaVuSans-39" transform="translate(63.623047 0)"/>
       <use xlink:href="#DejaVuSans-39" transform="translate(127.246094 0)"/>
       <use xlink:href="#DejaVuSans-30" transform="translate(190.869141 0)"/>
      </g>
     </g>
    </g>
    <g id="xtick_5">
     <g id="line2d_9">
      <path d="M 559.39418 318.04 
L 559.39418 25.44 
" clip-path="url(#p8fe9a6c799)" style="fill: none; stroke: #b0b0b0; stroke-width: 0.8; stroke-linecap: square"/>
     </g>
     <g id="line2d_10">
      <g>
       <use xlink:href="#mef13890566" x="559.39418" y="318.04" style="stroke: #000000; stroke-width: 0.8"/>
      </g>
     </g>
     <g id="text_5">
      <!-- 2000 -->
      <g transform="translate(546.66918 332.638438) scale(0.1 -0.1)">
       <defs>
        <path id="DejaVuSans-32" d="M 1228 531 
L 3431 531 
L 3431 0 
L 469 0 
L 469 531 
Q 828 903 1448 1529 
Q 2069 2156 2228 2338 
Q 2531 2678 2651 2914 
Q 2772 3150 2772 3378 
Q 2772 3750 2511 3984 
Q 2250 4219 1831 4219 
Q 1534 4219 1204 4116 
Q 875 4013 500 3803 
L 500 4441 
Q 881 4594 1212 4672 
Q 1544 4750 1819 4750 
Q 2544 4750 2975 4387 
Q 3406 4025 3406 3419 
Q 3406 3131 3298 2873 
Q 3191 2616 2906 2266 
Q 2828 2175 2409 1742 
Q 1991 1309 1228 531 
z
" transform="scale(0.015625)"/>
       </defs>
       <use xlink:href="#DejaVuSans-32"/>
       <use xlink:href="#DejaVuSans-30" transform="translate(63.623047 0)"/>
       <use xlink:href="#DejaVuSans-30" transform="translate(127.246094 0)"/>
       <use xlink:href="#DejaVuSans-30" transform="translate(190.869141 0)"/>
      </g>
     </g>
    </g>
    <g id="xtick_6">
     <g id="line2d_11">
      <path d="M 676.698149 318.04 
L 676.698149 25.44 
" clip-path="url(#p8fe9a6c799)" style="fill: none; stroke: #b0b0b0; stroke-width: 0.8; stroke-linecap: square"/>
     </g>
     <g id="line2d_12">
      <g>
       <use xlink:href="#mef13890566" x="676.698149" y="318.04" style="stroke: #000000; stroke-width: 0.8"/>
      </g>
     </g>
     <g id="text_6">
      <!-- 2010 -->
      <g transform="translate(663.973149 332.638438) scale(0.1 -0.1)">
       <use xlink:href="#DejaVuSans-32"/>
       <use xlink:href="#DejaVuSans-30" transform="translate(63.623047 0)"/>
       <use xlink:href="#DejaVuSans-31" transform="translate(127.246094 0)"/>
       <use xlink:href="#DejaVuSans-30" transform="translate(190.869141 0)"/>
      </g>
     </g>
    </g>
    <g id="xtick_7">
     <g id="line2d_13">
      <path d="M 793.970006 318.04 
L 793.970006 25.44 
" clip-path="url(#p8fe9a6c799)" style="fill: none; stroke: #b0b0b0; stroke-width: 0.8; stroke-linecap: square"/>
     </g>
     <g id="line2d_14">
      <g>
       <use xlink:href="#mef13890566" x="793.970006" y="318.04" style="stroke: #000000; stroke-width: 0.8"/>
      </g>
     </g>
     <g id="text_7">
      <!-- 2020 -->
      <g transform="translate(781.245006 332.638438) scale(0.1 -0.1)">
       <use xlink:href="#DejaVuSans-32"/>
       <use xlink:href="#DejaVuSans-30" transform="translate(63.623047 0)"/>
       <use xlink:href="#DejaVuSans-32" transform="translate(127.246094 0)"/>
       <use xlink:href="#DejaVuSans-30" transform="translate(190.869141 0)"/>
      </g>
     </g>
    </g>
    <g id="text_8">
     <!-- Date -->
     <g transform="translate(436.979219 346.316563) scale(0.1 -0.1)">
      <defs>
       <path id="DejaVuSans-44" d="M 1259 4147 
L 1259 519 
L 2022 519 
Q 2988 519 3436 956 
Q 3884 1394 3884 2338 
Q 3884 3275 3436 3711 
Q 2988 4147 2022 4147 
L 1259 4147 
z
M 628 4666 
L 1925 4666 
Q 3281 4666 3915 4102 
Q 4550 3538 4550 2338 
Q 4550 1131 3912 565 
Q 3275 0 1925 0 
L 628 0 
L 628 4666 
z
" transform="scale(0.015625)"/>
       <path id="DejaVuSans-61" d="M 2194 1759 
Q 1497 1759 1228 1600 
Q 959 1441 959 1056 
Q 959 750 1161 570 
Q 1363 391 1709 391 
Q 2188 391 2477 730 
Q 2766 1069 2766 1631 
L 2766 1759 
L 2194 1759 
z
M 3341 1997 
L 3341 0 
L 2766 0 
L 2766 531 
Q 2569 213 2275 61 
Q 1981 -91 1556 -91 
Q 1019 -91 701 211 
Q 384 513 384 1019 
Q 384 1609 779 1909 
Q 1175 2209 1959 2209 
L 2766 2209 
L 2766 2266 
Q 2766 2663 2505 2880 
Q 2244 3097 1772 3097 
Q 1472 3097 1187 3025 
Q 903 2953 641 2809 
L 641 3341 
Q 956 3463 1253 3523 
Q 1550 3584 1831 3584 
Q 2591 3584 2966 3190 
Q 3341 2797 3341 1997 
z
" transform="scale(0.015625)"/>
       <path id="DejaVuSans-74" d="M 1172 4494 
L 1172 3500 
L 2356 3500 
L 2356 3053 
L 1172 3053 
L 1172 1153 
Q 1172 725 1289 603 
Q 1406 481 1766 481 
L 2356 481 
L 2356 0 
L 1766 0 
Q 1100 0 847 248 
Q 594 497 594 1153 
L 594 3053 
L 172 3053 
L 172 3500 
L 594 3500 
L 594 4494 
L 1172 4494 
z
" transform="scale(0.015625)"/>
       <path id="DejaVuSans-65" d="M 3597 1894 
L 3597 1613 
L 953 1613 
Q 991 1019 1311 708 
Q 1631 397 2203 397 
Q 2534 397 2845 478 
Q 3156 559 3463 722 
L 3463 178 
Q 3153 47 2828 -22 
Q 2503 -91 2169 -91 
Q 1331 -91 842 396 
Q 353 884 353 1716 
Q 353 2575 817 3079 
Q 1281 3584 2069 3584 
Q 2775 3584 3186 3129 
Q 3597 2675 3597 1894 
z
M 3022 2063 
Q 3016 2534 2758 2815 
Q 2500 3097 2075 3097 
Q 1594 3097 1305 2825 
Q 1016 2553 972 2059 
L 3022 2063 
z
" transform="scale(0.015625)"/>
      </defs>
      <use xlink:href="#DejaVuSans-44"/>
      <use xlink:href="#DejaVuSans-61" transform="translate(77.001953 0)"/>
      <use xlink:href="#DejaVuSans-74" transform="translate(138.28125 0)"/>
      <use xlink:href="#DejaVuSans-65" transform="translate(177.490234 0)"/>
     </g>
    </g>
   </g>
   <g id="matplotlib.axis_2">
    <g id="ytick_1">
     <g id="line2d_15">
      <path d="M 44.66 296.06332 
L 853.2 296.06332 
" clip-path="url(#p8fe9a6c799)" style="fill: none; stroke: #b0b0b0; stroke-width: 0.8; stroke-linecap: square"/>
     </g>
     <g id="line2d_16">
      <defs>
       <path id="mb2d5071a5e" d="M 0 0 
L -3.5 0 
" style="stroke: #000000; stroke-width: 0.8"/>
      </defs>
      <g>
       <use xlink:href="#mb2d5071a5e" x="44.66" y="296.06332" style="stroke: #000000; stroke-width: 0.8"/>
      </g>
     </g>
     <g id="text_9">
      <!-- 0 -->
      <g transform="translate(31.2975 299.862539) scale(0.1 -0.1)">
       <use xlink:href="#DejaVuSans-30"/>
      </g>
     </g>
    </g>
    <g id="ytick_2">
     <g id="line2d_17">
      <path d="M 44.66 248.497778 
L 853.2 248.497778 
" clip-path="url(#p8fe9a6c799)" style="fill: none; stroke: #b0b0b0; stroke-width: 0.8; stroke-linecap: square"/>
     </g>
     <g id="line2d_18">
      <g>
       <use xlink:href="#mb2d5071a5e" x="44.66" y="248.497778" style="stroke: #000000; stroke-width: 0.8"/>
      </g>
     </g>
     <g id="text_10">
      <!-- 5 -->
      <g transform="translate(31.2975 252.296997) scale(0.1 -0.1)">
       <defs>
        <path id="DejaVuSans-35" d="M 691 4666 
L 3169 4666 
L 3169 4134 
L 1269 4134 
L 1269 2991 
Q 1406 3038 1543 3061 
Q 1681 3084 1819 3084 
Q 2600 3084 3056 2656 
Q 3513 2228 3513 1497 
Q 3513 744 3044 326 
Q 2575 -91 1722 -91 
Q 1428 -91 1123 -41 
Q 819 9 494 109 
L 494 744 
Q 775 591 1075 516 
Q 1375 441 1709 441 
Q 2250 441 2565 725 
Q 2881 1009 2881 1497 
Q 2881 1984 2565 2268 
Q 2250 2553 1709 2553 
Q 1456 2553 1204 2497 
Q 953 2441 691 2322 
L 691 4666 
z
" transform="scale(0.015625)"/>
       </defs>
       <use xlink:href="#DejaVuSans-35"/>
      </g>
     </g>
    </g>
    <g id="ytick_3">
     <g id="line2d_19">
      <path d="M 44.66 200.932237 
L 853.2 200.932237 
" clip-path="url(#p8fe9a6c799)" style="fill: none; stroke: #b0b0b0; stroke-width: 0.8; stroke-linecap: square"/>
     </g>
     <g id="line2d_20">
      <g>
       <use xlink:href="#mb2d5071a5e" x="44.66" y="200.932237" style="stroke: #000000; stroke-width: 0.8"/>
      </g>
     </g>
     <g id="text_11">
      <!-- 10 -->
      <g transform="translate(24.935 204.731456) scale(0.1 -0.1)">
       <use xlink:href="#DejaVuSans-31"/>
       <use xlink:href="#DejaVuSans-30" transform="translate(63.623047 0)"/>
      </g>
     </g>
    </g>
    <g id="ytick_4">
     <g id="line2d_21">
      <path d="M 44.66 153.366696 
L 853.2 153.366696 
" clip-path="url(#p8fe9a6c799)" style="fill: none; stroke: #b0b0b0; stroke-width: 0.8; stroke-linecap: square"/>
     </g>
     <g id="line2d_22">
      <g>
       <use xlink:href="#mb2d5071a5e" x="44.66" y="153.366696" style="stroke: #000000; stroke-width: 0.8"/>
      </g>
     </g>
     <g id="text_12">
      <!-- 15 -->
      <g transform="translate(24.935 157.165914) scale(0.1 -0.1)">
       <use xlink:href="#DejaVuSans-31"/>
       <use xlink:href="#DejaVuSans-35" transform="translate(63.623047 0)"/>
      </g>
     </g>
    </g>
    <g id="ytick_5">
     <g id="line2d_23">
      <path d="M 44.66 105.801154 
L 853.2 105.801154 
" clip-path="url(#p8fe9a6c799)" style="fill: none; stroke: #b0b0b0; stroke-width: 0.8; stroke-linecap: square"/>
     </g>
     <g id="line2d_24">
      <g>
       <use xlink:href="#mb2d5071a5e" x="44.66" y="105.801154" style="stroke: #000000; stroke-width: 0.8"/>
      </g>
     </g>
     <g id="text_13">
      <!-- 20 -->
      <g transform="translate(24.935 109.600373) scale(0.1 -0.1)">
       <use xlink:href="#DejaVuSans-32"/>
       <use xlink:href="#DejaVuSans-30" transform="translate(63.623047 0)"/>
      </g>
     </g>
    </g>
    <g id="ytick_6">
     <g id="line2d_25">
      <path d="M 44.66 58.235613 
L 853.2 58.235613 
" clip-path="url(#p8fe9a6c799)" style="fill: none; stroke: #b0b0b0; stroke-width: 0.8; stroke-linecap: square"/>
     </g>
     <g id="line2d_26">
      <g>
       <use xlink:href="#mb2d5071a5e" x="44.66" y="58.235613" style="stroke: #000000; stroke-width: 0.8"/>
      </g>
     </g>
     <g id="text_14">
      <!-- 25 -->
      <g transform="translate(24.935 62.034832) scale(0.1 -0.1)">
       <use xlink:href="#DejaVuSans-32"/>
       <use xlink:href="#DejaVuSans-35" transform="translate(63.623047 0)"/>
      </g>
     </g>
    </g>
    <g id="text_15">
     <!-- Residual / ppm -->
     <g transform="translate(18.855313 208.936875) rotate(-90) scale(0.1 -0.1)">
      <defs>
       <path id="DejaVuSans-52" d="M 2841 2188 
Q 3044 2119 3236 1894 
Q 3428 1669 3622 1275 
L 4263 0 
L 3584 0 
L 2988 1197 
Q 2756 1666 2539 1819 
Q 2322 1972 1947 1972 
L 1259 1972 
L 1259 0 
L 628 0 
L 628 4666 
L 2053 4666 
Q 2853 4666 3247 4331 
Q 3641 3997 3641 3322 
Q 3641 2881 3436 2590 
Q 3231 2300 2841 2188 
z
M 1259 4147 
L 1259 2491 
L 2053 2491 
Q 2509 2491 2742 2702 
Q 2975 2913 2975 3322 
Q 2975 3731 2742 3939 
Q 2509 4147 2053 4147 
L 1259 4147 
z
" transform="scale(0.015625)"/>
       <path id="DejaVuSans-73" d="M 2834 3397 
L 2834 2853 
Q 2591 2978 2328 3040 
Q 2066 3103 1784 3103 
Q 1356 3103 1142 2972 
Q 928 2841 928 2578 
Q 928 2378 1081 2264 
Q 1234 2150 1697 2047 
L 1894 2003 
Q 2506 1872 2764 1633 
Q 3022 1394 3022 966 
Q 3022 478 2636 193 
Q 2250 -91 1575 -91 
Q 1294 -91 989 -36 
Q 684 19 347 128 
L 347 722 
Q 666 556 975 473 
Q 1284 391 1588 391 
Q 1994 391 2212 530 
Q 2431 669 2431 922 
Q 2431 1156 2273 1281 
Q 2116 1406 1581 1522 
L 1381 1569 
Q 847 1681 609 1914 
Q 372 2147 372 2553 
Q 372 3047 722 3315 
Q 1072 3584 1716 3584 
Q 2034 3584 2315 3537 
Q 2597 3491 2834 3397 
z
" transform="scale(0.015625)"/>
       <path id="DejaVuSans-69" d="M 603 3500 
L 1178 3500 
L 1178 0 
L 603 0 
L 603 3500 
z
M 603 4863 
L 1178 4863 
L 1178 4134 
L 603 4134 
L 603 4863 
z
" transform="scale(0.015625)"/>
       <path id="DejaVuSans-64" d="M 2906 2969 
L 2906 4863 
L 3481 4863 
L 3481 0 
L 2906 0 
L 2906 525 
Q 2725 213 2448 61 
Q 2172 -91 1784 -91 
Q 1150 -91 751 415 
Q 353 922 353 1747 
Q 353 2572 751 3078 
Q 1150 3584 1784 3584 
Q 2172 3584 2448 3432 
Q 2725 3281 2906 2969 
z
M 947 1747 
Q 947 1113 1208 752 
Q 1469 391 1925 391 
Q 2381 391 2643 752 
Q 2906 1113 2906 1747 
Q 2906 2381 2643 2742 
Q 2381 3103 1925 3103 
Q 1469 3103 1208 2742 
Q 947 2381 947 1747 
z
" transform="scale(0.015625)"/>
       <path id="DejaVuSans-75" d="M 544 1381 
L 544 3500 
L 1119 3500 
L 1119 1403 
Q 1119 906 1312 657 
Q 1506 409 1894 409 
Q 2359 409 2629 706 
Q 2900 1003 2900 1516 
L 2900 3500 
L 3475 3500 
L 3475 0 
L 2900 0 
L 2900 538 
Q 2691 219 2414 64 
Q 2138 -91 1772 -91 
Q 1169 -91 856 284 
Q 544 659 544 1381 
z
M 1991 3584 
L 1991 3584 
z
" transform="scale(0.015625)"/>
       <path id="DejaVuSans-6c" d="M 603 4863 
L 1178 4863 
L 1178 0 
L 603 0 
L 603 4863 
z
" transform="scale(0.015625)"/>
       <path id="DejaVuSans-20" transform="scale(0.015625)"/>
       <path id="DejaVuSans-2f" d="M 1625 4666 
L 2156 4666 
L 531 -594 
L 0 -594 
L 1625 4666 
z
" transform="scale(0.015625)"/>
       <path id="DejaVuSans-70" d="M 1159 525 
L 1159 -1331 
L 581 -1331 
L 581 3500 
L 1159 3500 
L 1159 2969 
Q 1341 3281 1617 3432 
Q 1894 3584 2278 3584 
Q 2916 3584 3314 3078 
Q 3713 2572 3713 1747 
Q 3713 922 3314 415 
Q 2916 -91 2278 -91 
Q 1894 -91 1617 61 
Q 1341 213 1159 525 
z
M 3116 1747 
Q 3116 2381 2855 2742 
Q 2594 3103 2138 3103 
Q 1681 3103 1420 2742 
Q 1159 2381 1159 1747 
Q 1159 1113 1420 752 
Q 1681 391 2138 391 
Q 2594 391 2855 752 
Q 3116 1113 3116 1747 
z
" transform="scale(0.015625)"/>
       <path id="DejaVuSans-6d" d="M 3328 2828 
Q 3544 3216 3844 3400 
Q 4144 3584 4550 3584 
Q 5097 3584 5394 3201 
Q 5691 2819 5691 2113 
L 5691 0 
L 5113 0 
L 5113 2094 
Q 5113 2597 4934 2840 
Q 4756 3084 4391 3084 
Q 3944 3084 3684 2787 
Q 3425 2491 3425 1978 
L 3425 0 
L 2847 0 
L 2847 2094 
Q 2847 2600 2669 2842 
Q 2491 3084 2119 3084 
Q 1678 3084 1418 2786 
Q 1159 2488 1159 1978 
L 1159 0 
L 581 0 
L 581 3500 
L 1159 3500 
L 1159 2956 
Q 1356 3278 1631 3431 
Q 1906 3584 2284 3584 
Q 2666 3584 2933 3390 
Q 3200 3197 3328 2828 
z
" transform="scale(0.015625)"/>
      </defs>
      <use xlink:href="#DejaVuSans-52"/>
      <use xlink:href="#DejaVuSans-65" transform="translate(64.982422 0)"/>
      <use xlink:href="#DejaVuSans-73" transform="translate(126.505859 0)"/>
      <use xlink:href="#DejaVuSans-69" transform="translate(178.605469 0)"/>
      <use xlink:href="#DejaVuSans-64" transform="translate(206.388672 0)"/>
      <use xlink:href="#DejaVuSans-75" transform="translate(269.865234 0)"/>
      <use xlink:href="#DejaVuSans-61" transform="translate(333.244141 0)"/>
      <use xlink:href="#DejaVuSans-6c" transform="translate(394.523438 0)"/>
      <use xlink:href="#DejaVuSans-20" transform="translate(422.306641 0)"/>
      <use xlink:href="#DejaVuSans-2f" transform="translate(454.09375 0)"/>
      <use xlink:href="#DejaVuSans-20" transform="translate(487.785156 0)"/>
      <use xlink:href="#DejaVuSans-70" transform="translate(519.572266 0)"/>
      <use xlink:href="#DejaVuSans-70" transform="translate(583.048828 0)"/>
      <use xlink:href="#DejaVuSans-6d" transform="translate(646.525391 0)"/>
     </g>
    </g>
   </g>
   <g id="line2d_27">
    <path d="M 44.66 296.06332 
L 853.2 296.06332 
" clip-path="url(#p8fe9a6c799)" style="fill: none; stroke-dasharray: 5.55,2.4; stroke-dashoffset: 0; stroke: #808080; stroke-width: 1.5"/>
   </g>
   <g id="line2d_28">
    <path d="M 81.411818 38.74 
L 82.375169 289.843059 
L 83.370631 294.323383 
L 84.333981 297.683786 
L 85.329443 303.788258 
L 86.324905 289.79482 
L 87.288256 292.93508 
L 88.283718 290.156337 
L 89.247068 300.680141 
L 90.24253 296.988806 
L 91.237992 299.782627 
L 92.169231 293.106047 
L 93.164693 292.88153 
L 94.128044 289.447263 
L 95.123506 296.465469 
L 96.086856 294.019912 
L 97.082318 302.792377 
L 98.07778 303.377436 
L 99.041131 297.198576 
L 100.036593 298.649947 
L 100.999943 294.958957 
L 101.995405 297.345392 
L 102.990867 295.249838 
L 103.889994 292.82999 
L 104.885457 298.63131 
L 105.848807 292.511931 
L 106.844269 300.076819 
L 107.807619 294.360983 
L 108.803082 295.128624 
L 109.798544 299.245294 
L 110.761894 289.662479 
L 111.757356 298.546605 
L 112.720707 297.840137 
L 113.716169 295.464953 
L 114.711631 297.25536 
L 115.610758 291.920777 
L 116.60622 297.677775 
L 117.56957 299.59032 
L 118.565032 297.103862 
L 119.528383 292.836289 
L 120.523845 298.841787 
L 121.519307 293.315526 
L 122.482657 300.899766 
L 123.478119 296.250659 
L 124.44147 296.479071 
L 125.436932 294.340376 
L 126.432394 299.059611 
L 127.331521 297.031656 
L 128.326983 292.801224 
L 129.290334 293.594776 
L 130.285796 298.068721 
L 131.249146 300.638293 
L 132.244608 298.459605 
L 133.24007 298.4488 
L 134.203421 295.817973 
L 135.198883 296.996658 
L 136.162233 293.897803 
L 137.157695 292.172132 
L 138.153157 295.898222 
L 139.084396 296.463947 
L 140.079858 297.247823 
L 141.043209 299.672344 
L 142.038671 296.262732 
L 143.002021 296.85913 
L 143.997483 294.850271 
L 144.992945 300.615524 
L 145.956296 292.93859 
L 146.951758 298.486983 
L 147.915108 297.161143 
L 148.91057 298.772158 
L 149.906032 293.265694 
L 150.805159 298.408031 
L 151.800622 296.149183 
L 152.763972 302.475255 
L 153.759434 296.892907 
L 154.722784 289.732885 
L 155.718247 298.262001 
L 156.713709 291.602968 
L 157.677059 297.136163 
L 158.672521 291.541159 
L 159.635872 299.324788 
L 160.631334 294.211003 
L 161.626796 292.569712 
L 162.525923 294.022767 
L 163.521385 293.964777 
L 164.484735 296.974997 
L 165.480197 295.196114 
L 166.443548 296.662685 
L 167.43901 296.73216 
L 168.434472 298.724283 
L 169.397822 299.51606 
L 170.393284 292.69893 
L 171.356635 292.722138 
L 172.352097 291.378115 
L 173.347559 299.267893 
L 174.246686 298.740789 
L 175.242148 295.658735 
L 176.205499 295.797826 
L 177.200961 300.693096 
L 178.164311 300.136444 
L 179.159773 294.661741 
L 180.155235 297.522732 
L 181.118586 292.178507 
L 182.114048 293.902334 
L 183.077398 293.041921 
L 184.07286 298.635745 
L 185.068322 297.26414 
L 185.999561 296.317461 
L 186.995023 297.36909 
L 187.958374 296.674317 
L 188.953836 293.790795 
L 189.917186 294.238549 
L 191.90811 298.402565 
L 192.871461 295.256043 
L 193.866923 297.819173 
L 194.830273 291.804652 
L 195.825735 293.257357 
L 196.821197 296.833642 
L 197.720324 291.226688 
L 198.715787 296.204098 
L 199.679137 294.209659 
L 200.674599 297.45762 
L 201.637949 291.800886 
L 202.633412 297.385359 
L 203.628874 293.567848 
L 204.592224 298.734107 
L 205.587686 298.484913 
L 206.551037 295.889397 
L 207.546499 296.583222 
L 208.541961 293.186915 
L 209.441088 293.582853 
L 210.43655 294.996141 
L 211.3999 301.456856 
L 212.395362 297.311046 
L 213.358713 297.704073 
L 214.354175 293.981113 
L 215.349637 296.044485 
L 216.312987 293.700265 
L 217.30845 297.748635 
L 219.267262 295.888565 
L 220.262724 297.307237 
L 221.161851 299.545096 
L 222.157313 303.213422 
L 223.120664 292.834546 
L 224.116126 294.55018 
L 225.079476 294.955084 
L 226.074938 295.601177 
L 227.0704 300.956916 
L 228.033751 293.590451 
L 229.029213 295.044199 
L 229.992563 294.991003 
L 230.988025 297.790197 
L 231.983487 294.445942 
L 232.914726 301.75814 
L 233.910188 290.074315 
L 234.873539 296.566948 
L 235.869001 300.940147 
L 236.832351 295.926275 
L 237.827813 294.497984 
L 238.823275 294.497918 
L 239.786626 290.212018 
L 241.745438 295.399239 
L 242.7409 295.132981 
L 243.736362 292.217973 
L 244.635489 294.16177 
L 245.630952 295.411526 
L 246.594302 291.614615 
L 247.589764 293.376058 
L 248.553115 294.504854 
L 249.548577 292.036694 
L 250.544039 296.437381 
L 251.507389 297.902699 
L 252.502851 298.899742 
L 253.466202 303.589811 
L 254.461664 301.581358 
L 255.457126 292.677888 
L 256.356253 294.612329 
L 257.351715 296.124499 
L 258.315065 296.650795 
L 259.310527 300.950658 
L 260.273878 297.080948 
L 261.26934 297.514648 
L 262.264802 298.85944 
L 263.228152 296.412197 
L 264.223615 297.933209 
L 265.186965 294.906312 
L 266.182427 293.838879 
L 267.177889 295.796253 
L 268.077016 297.954143 
L 269.072478 297.265236 
L 270.035829 294.435983 
L 271.031291 295.365452 
L 271.994641 298.056137 
L 272.990103 298.286084 
L 273.985565 295.456525 
L 274.948916 296.104321 
L 275.944378 297.495762 
L 276.907728 293.872553 
L 277.90319 296.998212 
L 278.898652 292.530345 
L 279.829891 295.414401 
L 280.825353 294.079508 
L 281.788704 301.490252 
L 282.784166 299.781767 
L 283.747516 294.5816 
L 284.742978 300.920917 
L 285.73844 298.928852 
L 286.701791 298.611324 
L 287.697253 294.583847 
L 288.660603 292.665945 
L 289.656065 293.735568 
L 290.651527 298.237188 
L 291.550655 286.032992 
L 292.546117 293.136427 
L 293.509467 292.043855 
L 294.504929 295.986792 
L 295.46828 296.508148 
L 296.463742 299.899705 
L 297.459204 294.211211 
L 298.422554 294.511397 
L 299.418016 295.511904 
L 300.381367 296.03705 
L 301.376829 292.436224 
L 302.372291 299.270511 
L 303.271418 291.371356 
L 304.26688 296.539473 
L 305.23023 298.388545 
L 306.225692 291.351349 
L 307.189043 297.502967 
L 308.184505 297.211826 
L 309.179967 301.182004 
L 310.143317 296.069301 
L 311.13878 295.369856 
L 312.10213 296.111959 
L 313.097592 293.997446 
L 314.093054 297.14447 
L 314.992181 289.702828 
L 315.987643 300.134595 
L 316.950994 298.412284 
L 317.946456 292.007749 
L 318.909806 299.463124 
L 319.905268 295.4274 
L 320.90073 297.217686 
L 321.864081 293.056716 
L 322.859543 296.270597 
L 323.822893 292.889907 
L 324.818355 294.420302 
L 325.813817 297.889165 
L 326.745056 289.338012 
L 327.740518 296.370623 
L 328.703869 295.924087 
L 329.699331 292.473704 
L 330.662681 300.643048 
L 331.658143 295.67198 
L 332.653605 294.137969 
L 333.616956 296.013175 
L 334.612418 296.23335 
L 335.575768 298.200179 
L 336.57123 297.33671 
L 337.566692 291.291408 
L 338.46582 294.31435 
L 339.461282 296.393871 
L 340.424632 296.982341 
L 341.420094 297.263572 
L 342.383445 300.006281 
L 343.378907 301.404614 
L 344.374369 297.592151 
L 345.337719 295.698111 
L 346.333181 292.957796 
L 347.296532 293.595423 
L 348.291994 295.174309 
L 349.287456 294.830685 
L 350.186583 295.959548 
L 351.182045 295.088089 
L 352.145395 293.066309 
L 353.140857 299.392385 
L 354.104208 297.597736 
L 356.095132 299.768675 
L 357.058482 297.002127 
L 358.053945 298.712629 
L 359.017295 295.921107 
L 360.012757 298.694535 
L 361.008219 292.90122 
L 361.907346 299.654414 
L 362.902808 288.39495 
L 363.866159 291.88747 
L 364.861621 293.121325 
L 365.824971 294.863899 
L 366.820433 293.408961 
L 367.815895 298.931315 
L 368.779246 296.017014 
L 369.774708 295.780932 
L 370.738058 294.23646 
L 372.728982 296.796418 
L 373.660221 298.649962 
L 374.655683 292.569158 
L 375.619034 296.838992 
L 376.614496 297.572866 
L 377.577846 296.279343 
L 378.573308 296.912579 
L 379.56877 300.926309 
L 380.532121 295.295174 
L 381.527583 294.013044 
L 382.490933 291.148342 
L 383.486395 299.236452 
L 384.481858 295.704078 
L 385.380985 291.187539 
L 386.376447 299.298542 
L 387.339797 296.413767 
L 388.335259 297.863823 
L 389.29861 300.118875 
L 390.294072 294.401324 
L 391.289534 296.383085 
L 392.252884 297.541367 
L 393.248346 295.38981 
L 394.211697 295.119591 
L 395.207159 298.525577 
L 396.202621 298.128693 
L 397.101748 299.640359 
L 398.09721 293.844859 
L 400.056022 295.991486 
L 401.019373 298.683561 
L 402.014835 298.283055 
L 403.010297 287.137738 
L 403.973647 299.422303 
L 404.96911 295.378574 
L 405.93246 296.475438 
L 406.927922 293.094018 
L 407.923384 300.973608 
L 408.822511 298.843509 
L 409.817973 294.341819 
L 410.781324 294.23124 
L 411.776786 296.054796 
L 412.740136 294.93506 
L 413.735598 296.110753 
L 415.694411 294.598483 
L 416.689873 294.763875 
L 417.653223 296.525539 
L 419.644148 290.937607 
L 420.575386 295.934097 
L 421.570848 296.864354 
L 422.534199 295.615272 
L 423.529661 295.659034 
L 424.493011 292.301099 
L 425.488473 297.960067 
L 426.483935 295.704888 
L 427.447286 291.763636 
L 428.442748 296.832066 
L 429.406098 296.964172 
L 430.40156 292.091341 
L 431.397023 298.865417 
L 432.29615 299.952674 
L 433.291612 294.346991 
L 434.254962 299.525653 
L 435.250424 297.42569 
L 436.213775 296.634197 
L 437.209237 298.432396 
L 438.204699 298.567561 
L 439.168049 294.982863 
L 440.163511 296.395126 
L 441.126862 295.502901 
L 442.122324 296.875327 
L 443.117786 291.667673 
L 445.012375 302.904385 
L 445.975725 294.598688 
L 446.971187 300.804794 
L 447.934538 298.705983 
L 448.93 295.575632 
L 449.925462 296.905993 
L 450.888813 293.810455 
L 451.884275 293.568979 
L 452.847625 295.290217 
L 453.843087 300.539979 
L 454.838549 296.837173 
L 455.737676 291.000223 
L 456.733138 292.586868 
L 458.691951 299.981779 
L 459.655301 302.327468 
L 460.650763 301.813483 
L 461.646225 298.923607 
L 462.609576 297.529335 
L 463.605038 295.347443 
L 464.568388 295.812029 
L 465.56385 294.581111 
L 466.559313 295.046645 
L 467.490551 297.712992 
L 468.486013 296.837996 
L 469.449364 297.632646 
L 470.444826 293.579138 
L 471.408176 303.072336 
L 472.403638 299.6568 
L 473.3991 301.421049 
L 474.362451 295.452369 
L 475.357913 299.144977 
L 476.321263 297.687377 
L 477.316725 292.966753 
L 478.312188 299.97279 
L 479.211315 295.30681 
L 480.206777 300.602937 
L 481.170127 294.78927 
L 482.165589 296.915115 
L 483.12894 302.279441 
L 484.124402 295.005439 
L 485.119864 295.885613 
L 486.083214 296.276056 
L 487.078676 295.952862 
L 488.042027 294.157222 
L 489.037489 292.752354 
L 490.032951 295.57868 
L 490.932078 294.811236 
L 491.92754 295.254619 
L 492.89089 297.737727 
L 493.886353 299.165263 
L 494.849703 295.330284 
L 495.845165 295.278733 
L 496.840627 296.578361 
L 497.803978 293.961307 
L 498.79944 293.850608 
L 499.76279 293.928985 
L 500.758252 296.503756 
L 501.753714 294.142431 
L 502.652841 295.541889 
L 503.648303 293.521269 
L 504.611654 297.211542 
L 505.607116 295.327119 
L 506.570466 295.248317 
L 507.565928 300.085447 
L 508.56139 291.341759 
L 509.524741 297.736368 
L 510.520203 294.806095 
L 511.483553 296.950483 
L 512.479015 293.405875 
L 513.474478 291.615259 
L 514.405716 294.997065 
L 515.401178 303.348285 
L 517.359991 293.880822 
L 518.323341 293.397657 
L 520.314265 298.483943 
L 522.273078 296.897668 
L 523.236428 296.356737 
L 524.23189 298.782361 
L 525.227353 295.826219 
L 526.12648 301.467215 
L 527.121942 291.61715 
L 528.085292 297.826696 
L 529.080754 301.24674 
L 530.044105 295.170571 
L 531.039567 296.246785 
L 532.035029 299.520484 
L 532.998379 293.283632 
L 533.993841 291.989094 
L 534.957192 289.421744 
L 535.952654 295.219149 
L 536.948116 296.51287 
L 537.847243 292.89137 
L 538.842705 293.115593 
L 539.806055 292.694145 
L 540.801518 292.989296 
L 541.764868 290.947753 
L 542.76033 292.248014 
L 543.755792 296.986893 
L 544.719143 293.854314 
L 545.714605 297.549963 
L 546.677955 294.23953 
L 547.673417 295.599184 
L 548.668879 294.902026 
L 549.568006 299.48501 
L 550.563468 296.809732 
L 551.526819 302.42478 
L 552.522281 299.35195 
L 553.485631 291.747232 
L 554.481093 299.826034 
L 555.476555 301.288161 
L 556.439906 294.552814 
L 557.435368 295.855583 
L 558.398718 296.441524 
L 559.39418 294.980885 
L 560.389643 301.326707 
L 561.320881 296.820177 
L 562.316343 297.174635 
L 563.279694 303.694213 
L 564.275156 292.327632 
L 565.238506 299.52683 
L 566.233968 293.965374 
L 567.22943 289.762868 
L 568.192781 295.562951 
L 569.188243 295.357121 
L 570.151593 296.85019 
L 571.147055 297.698044 
L 572.142518 295.324521 
L 573.041645 295.941567 
L 574.037107 299.341639 
L 575.000457 296.754797 
L 575.995919 297.862845 
L 576.95927 299.324502 
L 577.954732 296.044315 
L 578.950194 294.325534 
L 579.913544 294.927655 
L 580.909006 295.739821 
L 581.872357 295.195745 
L 582.867819 293.654196 
L 583.863281 296.374245 
L 584.762408 296.092868 
L 585.75787 299.316814 
L 586.72122 294.363064 
L 587.716683 293.150807 
L 588.680033 295.325443 
L 589.675495 296.535017 
L 590.670957 291.219352 
L 591.634308 298.20233 
L 592.62977 293.157458 
L 593.59312 293.884614 
L 594.588582 295.081472 
L 595.584044 295.86887 
L 596.483171 297.045041 
L 597.478633 295.569254 
L 598.441984 292.282544 
L 599.437446 293.187401 
L 601.396258 298.192022 
L 602.39172 293.578194 
L 603.355071 297.241592 
L 604.350533 295.052377 
L 605.313883 296.806929 
L 606.309345 297.17361 
L 607.304808 295.640391 
L 608.236046 295.262029 
L 609.231508 293.160191 
L 610.194859 297.427894 
L 611.190321 300.850452 
L 612.153671 304.74 
L 613.149133 294.067036 
L 614.144595 298.200236 
L 615.107946 296.402273 
L 616.103408 293.641606 
L 617.066758 296.004852 
L 618.062221 297.159413 
L 619.057683 291.866727 
L 619.95681 293.682541 
L 620.952272 292.128345 
L 621.915622 297.537722 
L 622.911084 293.690398 
L 623.874435 294.174445 
L 624.869897 295.242709 
L 625.865359 300.292092 
L 626.828709 296.174926 
L 627.824171 297.372967 
L 628.787522 293.321321 
L 629.782984 293.301577 
L 630.778446 295.239628 
L 631.677573 300.226694 
L 632.673035 291.169024 
L 633.636385 294.924948 
L 634.631848 300.138936 
L 635.595198 297.624308 
L 636.59066 297.473792 
L 638.549473 295.279183 
L 639.544935 299.839779 
L 640.508285 295.460472 
L 641.503747 296.30571 
L 642.499209 294.625654 
L 643.398336 297.564345 
L 644.393798 291.16283 
L 645.357149 298.212011 
L 646.352611 295.710928 
L 647.315961 296.344913 
L 648.311423 300.849343 
L 649.306885 292.574852 
L 650.270236 295.404332 
L 651.265698 296.232261 
L 652.229048 296.057516 
L 653.224511 291.377398 
L 654.219973 300.045501 
L 655.151211 303.407699 
L 656.146673 302.58272 
L 657.110024 289.190426 
L 658.105486 296.780692 
L 659.068836 294.037115 
L 660.064298 297.642025 
L 661.059761 290.616203 
L 662.023111 297.808735 
L 663.018573 298.172778 
L 663.981923 297.979112 
L 664.977386 294.83966 
L 665.972848 298.48123 
L 666.871975 291.781947 
L 667.867437 301.006823 
L 668.830787 296.945284 
L 669.826249 297.773883 
L 670.7896 296.049296 
L 671.785062 294.991385 
L 672.780524 294.655075 
L 673.743874 299.854737 
L 674.739336 295.203459 
L 675.702687 296.819808 
L 676.698149 295.450759 
L 677.693611 289.047881 
L 678.592738 292.580934 
L 679.5882 294.305985 
L 680.55155 295.061388 
L 682.510363 300.841592 
L 683.505825 296.115391 
L 684.501287 297.208179 
L 685.464638 293.711153 
L 686.4601 294.891473 
L 687.42345 298.858375 
L 688.418912 294.016536 
L 689.414374 298.524968 
L 690.313501 298.095434 
L 691.308963 303.353858 
L 692.272314 294.906531 
L 693.267776 295.035938 
L 694.231126 292.404384 
L 695.226588 298.006071 
L 696.222051 292.744872 
L 697.185401 297.089015 
L 698.180863 297.271486 
L 699.144213 295.168973 
L 700.139676 295.739416 
L 701.135138 296.869672 
L 702.066376 299.35096 
L 703.061838 292.030474 
L 704.025189 295.32447 
L 705.020651 299.793615 
L 705.984001 295.541789 
L 706.979463 295.133276 
L 707.974926 294.57179 
L 708.938276 296.989249 
L 709.933738 291.153315 
L 710.897088 295.122158 
L 711.892551 295.652545 
L 712.888013 291.687233 
L 713.78714 296.323992 
L 714.782602 298.848952 
L 715.745952 289.563431 
L 716.741414 299.481918 
L 717.704765 294.827217 
L 718.700227 296.335311 
L 719.695689 298.899914 
L 720.659039 296.305605 
L 721.654501 296.361984 
L 722.617852 294.128903 
L 723.613314 297.597828 
L 724.608776 302.617545 
L 725.507903 290.673271 
L 726.503365 291.452733 
L 727.466716 296.348012 
L 728.462178 294.21394 
L 729.425528 301.739753 
L 730.42099 298.207251 
L 731.416452 299.473352 
L 732.379803 292.70087 
L 733.375265 297.261928 
L 734.338615 294.36856 
L 735.334077 296.605528 
L 736.329539 300.244655 
L 737.228666 294.960833 
L 738.224128 293.11876 
L 739.187479 293.683205 
L 740.182941 299.817277 
L 741.146291 296.705598 
L 742.141753 299.241639 
L 743.137216 295.970777 
L 744.100566 291.553379 
L 745.096028 291.20186 
L 746.059378 291.200495 
L 747.054841 298.907468 
L 748.050303 289.317062 
L 748.981541 295.01345 
L 749.977003 283.803125 
L 750.940354 295.016667 
L 751.935816 296.402434 
L 752.899166 303.933144 
L 753.894628 299.310197 
L 754.890091 296.027094 
L 756.848903 290.859724 
L 757.812253 299.844972 
L 758.807716 291.51347 
L 759.803178 299.786024 
L 761.697767 295.042332 
L 762.661117 295.579264 
L 763.656579 296.450554 
L 764.61993 297.098791 
L 765.615392 295.602228 
L 766.610854 299.417373 
L 767.574204 297.495104 
L 768.569666 297.284424 
L 769.533017 294.576821 
L 770.528479 296.265519 
L 771.523941 299.984521 
L 772.423068 296.158088 
L 773.41853 302.636295 
L 774.381881 295.274469 
L 775.377343 293.449562 
L 776.340693 299.243917 
L 777.336155 293.726161 
L 778.331617 295.617897 
L 779.294968 293.789346 
L 780.29043 290.527018 
L 781.25378 297.992579 
L 782.249242 291.046682 
L 783.244704 292.437518 
L 784.143831 301.270701 
L 785.139293 298.354844 
L 786.102644 291.233024 
L 787.098106 294.515765 
L 788.061456 299.740804 
L 789.056918 294.79763 
L 790.052381 295.667067 
L 791.015731 298.912753 
L 792.011193 295.757021 
L 792.974543 295.672114 
L 793.970006 292.676323 
L 794.965468 295.099632 
L 795.896706 299.854203 
L 796.892168 294.768713 
L 797.855519 294.965176 
L 798.850981 295.516068 
L 799.814331 298.01363 
L 800.809793 294.984872 
L 801.805256 294.147848 
L 802.768606 297.916467 
L 803.764068 296.588899 
L 804.727418 299.469183 
L 805.722881 297.946125 
L 806.718343 292.574972 
L 807.61747 294.254568 
L 808.612932 295.797334 
L 809.576282 302.424946 
L 810.571744 293.127459 
L 811.535095 297.770472 
L 812.530557 301.244692 
L 813.526019 295.771495 
L 814.489369 292.534285 
L 815.484831 300.012184 
L 816.448182 294.57974 
L 816.448182 294.57974 
" clip-path="url(#p8fe9a6c799)" style="fill: none; stroke: #1f77b4; stroke-width: 1.5; stroke-linecap: square"/>
   </g>
   <g id="patch_3">
    <path d="M 44.66 318.04 
L 44.66 25.44 
" style="fill: none; stroke: #000000; stroke-width: 0.8; stroke-linejoin: miter; stroke-linecap: square"/>
   </g>
   <g id="patch_4">
    <path d="M 853.2 318.04 
L 853.2 25.44 
" style="fill: none; stroke: #000000; stroke-width: 0.8; stroke-linejoin: miter; stroke-linecap: square"/>
   </g>
   <g id="patch_5">
    <path d="M 44.66 318.04 
L 853.2 318.04 
" style="fill: none; stroke: #000000; stroke-width: 0.8; stroke-linejoin: miter; stroke-linecap: square"/>
   </g>
   <g id="patch_6">
    <path d="M 44.66 25.44 
L 853.2 25.44 
" style="fill: none; stroke: #000000; stroke-width: 0.8; stroke-linejoin: miter; stroke-linecap: square"/>
   </g>
   <g id="text_16">
    <!-- SARIMA(1,1,1)(1,1,1,12): full_data Residuals Over Time -->
    <g transform="translate(283.255938 19.44) scale(0.12 -0.12)">
     <defs>
      <path id="DejaVuSans-53" d="M 3425 4513 
L 3425 3897 
Q 3066 4069 2747 4153 
Q 2428 4238 2131 4238 
Q 1616 4238 1336 4038 
Q 1056 3838 1056 3469 
Q 1056 3159 1242 3001 
Q 1428 2844 1947 2747 
L 2328 2669 
Q 3034 2534 3370 2195 
Q 3706 1856 3706 1288 
Q 3706 609 3251 259 
Q 2797 -91 1919 -91 
Q 1588 -91 1214 -16 
Q 841 59 441 206 
L 441 856 
Q 825 641 1194 531 
Q 1563 422 1919 422 
Q 2459 422 2753 634 
Q 3047 847 3047 1241 
Q 3047 1584 2836 1778 
Q 2625 1972 2144 2069 
L 1759 2144 
Q 1053 2284 737 2584 
Q 422 2884 422 3419 
Q 422 4038 858 4394 
Q 1294 4750 2059 4750 
Q 2388 4750 2728 4690 
Q 3069 4631 3425 4513 
z
" transform="scale(0.015625)"/>
      <path id="DejaVuSans-41" d="M 2188 4044 
L 1331 1722 
L 3047 1722 
L 2188 4044 
z
M 1831 4666 
L 2547 4666 
L 4325 0 
L 3669 0 
L 3244 1197 
L 1141 1197 
L 716 0 
L 50 0 
L 1831 4666 
z
" transform="scale(0.015625)"/>
      <path id="DejaVuSans-49" d="M 628 4666 
L 1259 4666 
L 1259 0 
L 628 0 
L 628 4666 
z
" transform="scale(0.015625)"/>
      <path id="DejaVuSans-4d" d="M 628 4666 
L 1569 4666 
L 2759 1491 
L 3956 4666 
L 4897 4666 
L 4897 0 
L 4281 0 
L 4281 4097 
L 3078 897 
L 2444 897 
L 1241 4097 
L 1241 0 
L 628 0 
L 628 4666 
z
" transform="scale(0.015625)"/>
      <path id="DejaVuSans-28" d="M 1984 4856 
Q 1566 4138 1362 3434 
Q 1159 2731 1159 2009 
Q 1159 1288 1364 580 
Q 1569 -128 1984 -844 
L 1484 -844 
Q 1016 -109 783 600 
Q 550 1309 550 2009 
Q 550 2706 781 3412 
Q 1013 4119 1484 4856 
L 1984 4856 
z
" transform="scale(0.015625)"/>
      <path id="DejaVuSans-2c" d="M 750 794 
L 1409 794 
L 1409 256 
L 897 -744 
L 494 -744 
L 750 256 
L 750 794 
z
" transform="scale(0.015625)"/>
      <path id="DejaVuSans-29" d="M 513 4856 
L 1013 4856 
Q 1481 4119 1714 3412 
Q 1947 2706 1947 2009 
Q 1947 1309 1714 600 
Q 1481 -109 1013 -844 
L 513 -844 
Q 928 -128 1133 580 
Q 1338 1288 1338 2009 
Q 1338 2731 1133 3434 
Q 928 4138 513 4856 
z
" transform="scale(0.015625)"/>
      <path id="DejaVuSans-3a" d="M 750 794 
L 1409 794 
L 1409 0 
L 750 0 
L 750 794 
z
M 750 3309 
L 1409 3309 
L 1409 2516 
L 750 2516 
L 750 3309 
z
" transform="scale(0.015625)"/>
      <path id="DejaVuSans-66" d="M 2375 4863 
L 2375 4384 
L 1825 4384 
Q 1516 4384 1395 4259 
Q 1275 4134 1275 3809 
L 1275 3500 
L 2222 3500 
L 2222 3053 
L 1275 3053 
L 1275 0 
L 697 0 
L 697 3053 
L 147 3053 
L 147 3500 
L 697 3500 
L 697 3744 
Q 697 4328 969 4595 
Q 1241 4863 1831 4863 
L 2375 4863 
z
" transform="scale(0.015625)"/>
      <path id="DejaVuSans-5f" d="M 3263 -1063 
L 3263 -1509 
L -63 -1509 
L -63 -1063 
L 3263 -1063 
z
" transform="scale(0.015625)"/>
      <path id="DejaVuSans-4f" d="M 2522 4238 
Q 1834 4238 1429 3725 
Q 1025 3213 1025 2328 
Q 1025 1447 1429 934 
Q 1834 422 2522 422 
Q 3209 422 3611 934 
Q 4013 1447 4013 2328 
Q 4013 3213 3611 3725 
Q 3209 4238 2522 4238 
z
M 2522 4750 
Q 3503 4750 4090 4092 
Q 4678 3434 4678 2328 
Q 4678 1225 4090 567 
Q 3503 -91 2522 -91 
Q 1538 -91 948 565 
Q 359 1222 359 2328 
Q 359 3434 948 4092 
Q 1538 4750 2522 4750 
z
" transform="scale(0.015625)"/>
      <path id="DejaVuSans-76" d="M 191 3500 
L 800 3500 
L 1894 563 
L 2988 3500 
L 3597 3500 
L 2284 0 
L 1503 0 
L 191 3500 
z
" transform="scale(0.015625)"/>
      <path id="DejaVuSans-72" d="M 2631 2963 
Q 2534 3019 2420 3045 
Q 2306 3072 2169 3072 
Q 1681 3072 1420 2755 
Q 1159 2438 1159 1844 
L 1159 0 
L 581 0 
L 581 3500 
L 1159 3500 
L 1159 2956 
Q 1341 3275 1631 3429 
Q 1922 3584 2338 3584 
Q 2397 3584 2469 3576 
Q 2541 3569 2628 3553 
L 2631 2963 
z
" transform="scale(0.015625)"/>
      <path id="DejaVuSans-54" d="M -19 4666 
L 3928 4666 
L 3928 4134 
L 2272 4134 
L 2272 0 
L 1638 0 
L 1638 4134 
L -19 4134 
L -19 4666 
z
" transform="scale(0.015625)"/>
     </defs>
     <use xlink:href="#DejaVuSans-53"/>
     <use xlink:href="#DejaVuSans-41" transform="translate(65.351562 0)"/>
     <use xlink:href="#DejaVuSans-52" transform="translate(133.759766 0)"/>
     <use xlink:href="#DejaVuSans-49" transform="translate(203.242188 0)"/>
     <use xlink:href="#DejaVuSans-4d" transform="translate(232.734375 0)"/>
     <use xlink:href="#DejaVuSans-41" transform="translate(319.013672 0)"/>
     <use xlink:href="#DejaVuSans-28" transform="translate(387.421875 0)"/>
     <use xlink:href="#DejaVuSans-31" transform="translate(426.435547 0)"/>
     <use xlink:href="#DejaVuSans-2c" transform="translate(490.058594 0)"/>
     <use xlink:href="#DejaVuSans-31" transform="translate(521.845703 0)"/>
     <use xlink:href="#DejaVuSans-2c" transform="translate(585.46875 0)"/>
     <use xlink:href="#DejaVuSans-31" transform="translate(617.255859 0)"/>
     <use xlink:href="#DejaVuSans-29" transform="translate(680.878906 0)"/>
     <use xlink:href="#DejaVuSans-28" transform="translate(719.892578 0)"/>
     <use xlink:href="#DejaVuSans-31" transform="translate(758.90625 0)"/>
     <use xlink:href="#DejaVuSans-2c" transform="translate(822.529297 0)"/>
     <use xlink:href="#DejaVuSans-31" transform="translate(854.316406 0)"/>
     <use xlink:href="#DejaVuSans-2c" transform="translate(917.939453 0)"/>
     <use xlink:href="#DejaVuSans-31" transform="translate(949.726562 0)"/>
     <use xlink:href="#DejaVuSans-2c" transform="translate(1013.349609 0)"/>
     <use xlink:href="#DejaVuSans-31" transform="translate(1045.136719 0)"/>
     <use xlink:href="#DejaVuSans-32" transform="translate(1108.759766 0)"/>
     <use xlink:href="#DejaVuSans-29" transform="translate(1172.382812 0)"/>
     <use xlink:href="#DejaVuSans-3a" transform="translate(1211.396484 0)"/>
     <use xlink:href="#DejaVuSans-20" transform="translate(1245.087891 0)"/>
     <use xlink:href="#DejaVuSans-66" transform="translate(1276.875 0)"/>
     <use xlink:href="#DejaVuSans-75" transform="translate(1312.080078 0)"/>
     <use xlink:href="#DejaVuSans-6c" transform="translate(1375.458984 0)"/>
     <use xlink:href="#DejaVuSans-6c" transform="translate(1403.242188 0)"/>
     <use xlink:href="#DejaVuSans-5f" transform="translate(1431.025391 0)"/>
     <use xlink:href="#DejaVuSans-64" transform="translate(1481.025391 0)"/>
     <use xlink:href="#DejaVuSans-61" transform="translate(1544.501953 0)"/>
     <use xlink:href="#DejaVuSans-74" transform="translate(1605.78125 0)"/>
     <use xlink:href="#DejaVuSans-61" transform="translate(1644.990234 0)"/>
     <use xlink:href="#DejaVuSans-20" transform="translate(1706.269531 0)"/>
     <use xlink:href="#DejaVuSans-52" transform="translate(1738.056641 0)"/>
     <use xlink:href="#DejaVuSans-65" transform="translate(1803.039062 0)"/>
     <use xlink:href="#DejaVuSans-73" transform="translate(1864.5625 0)"/>
     <use xlink:href="#DejaVuSans-69" transform="translate(1916.662109 0)"/>
     <use xlink:href="#DejaVuSans-64" transform="translate(1944.445312 0)"/>
     <use xlink:href="#DejaVuSans-75" transform="translate(2007.921875 0)"/>
     <use xlink:href="#DejaVuSans-61" transform="translate(2071.300781 0)"/>
     <use xlink:href="#DejaVuSans-6c" transform="translate(2132.580078 0)"/>
     <use xlink:href="#DejaVuSans-73" transform="translate(2160.363281 0)"/>
     <use xlink:href="#DejaVuSans-20" transform="translate(2212.462891 0)"/>
     <use xlink:href="#DejaVuSans-4f" transform="translate(2244.25 0)"/>
     <use xlink:href="#DejaVuSans-76" transform="translate(2322.960938 0)"/>
     <use xlink:href="#DejaVuSans-65" transform="translate(2382.140625 0)"/>
     <use xlink:href="#DejaVuSans-72" transform="translate(2443.664062 0)"/>
     <use xlink:href="#DejaVuSans-20" transform="translate(2484.777344 0)"/>
     <use xlink:href="#DejaVuSans-54" transform="translate(2516.564453 0)"/>
     <use xlink:href="#DejaVuSans-69" transform="translate(2574.523438 0)"/>
     <use xlink:href="#DejaVuSans-6d" transform="translate(2602.306641 0)"/>
     <use xlink:href="#DejaVuSans-65" transform="translate(2699.71875 0)"/>
    </g>
   </g>
   <g id="legend_1">
    <g id="patch_7">
     <path d="M 748.395313 62.79625 
L 846.2 62.79625 
Q 848.2 62.79625 848.2 60.79625 
L 848.2 32.44 
Q 848.2 30.44 846.2 30.44 
L 748.395313 30.44 
Q 746.395313 30.44 746.395313 32.44 
L 746.395313 60.79625 
Q 746.395313 62.79625 748.395313 62.79625 
z
" style="fill: #ffffff; opacity: 0.8; stroke: #cccccc; stroke-linejoin: miter"/>
    </g>
    <g id="line2d_29">
     <path d="M 750.395313 38.538437 
L 760.395313 38.538437 
L 770.395313 38.538437 
" style="fill: none; stroke-dasharray: 5.55,2.4; stroke-dashoffset: 0; stroke: #808080; stroke-width: 1.5"/>
    </g>
    <g id="text_17">
     <!-- Zero residual -->
     <g transform="translate(778.395313 42.038437) scale(0.1 -0.1)">
      <defs>
       <path id="DejaVuSans-5a" d="M 359 4666 
L 4025 4666 
L 4025 4184 
L 1075 531 
L 4097 531 
L 4097 0 
L 288 0 
L 288 481 
L 3238 4134 
L 359 4134 
L 359 4666 
z
" transform="scale(0.015625)"/>
       <path id="DejaVuSans-6f" d="M 1959 3097 
Q 1497 3097 1228 2736 
Q 959 2375 959 1747 
Q 959 1119 1226 758 
Q 1494 397 1959 397 
Q 2419 397 2687 759 
Q 2956 1122 2956 1747 
Q 2956 2369 2687 2733 
Q 2419 3097 1959 3097 
z
M 1959 3584 
Q 2709 3584 3137 3096 
Q 3566 2609 3566 1747 
Q 3566 888 3137 398 
Q 2709 -91 1959 -91 
Q 1206 -91 779 398 
Q 353 888 353 1747 
Q 353 2609 779 3096 
Q 1206 3584 1959 3584 
z
" transform="scale(0.015625)"/>
      </defs>
      <use xlink:href="#DejaVuSans-5a"/>
      <use xlink:href="#DejaVuSans-65" transform="translate(68.505859 0)"/>
      <use xlink:href="#DejaVuSans-72" transform="translate(130.029297 0)"/>
      <use xlink:href="#DejaVuSans-6f" transform="translate(168.892578 0)"/>
      <use xlink:href="#DejaVuSans-20" transform="translate(230.074219 0)"/>
      <use xlink:href="#DejaVuSans-72" transform="translate(261.861328 0)"/>
      <use xlink:href="#DejaVuSans-65" transform="translate(300.724609 0)"/>
      <use xlink:href="#DejaVuSans-73" transform="translate(362.248047 0)"/>
      <use xlink:href="#DejaVuSans-69" transform="translate(414.347656 0)"/>
      <use xlink:href="#DejaVuSans-64" transform="translate(442.130859 0)"/>
      <use xlink:href="#DejaVuSans-75" transform="translate(505.607422 0)"/>
      <use xlink:href="#DejaVuSans-61" transform="translate(568.986328 0)"/>
      <use xlink:href="#DejaVuSans-6c" transform="translate(630.265625 0)"/>
     </g>
    </g>
    <g id="line2d_30">
     <path d="M 750.395313 53.216563 
L 760.395313 53.216563 
L 770.395313 53.216563 
" style="fill: none; stroke: #1f77b4; stroke-width: 1.5; stroke-linecap: square"/>
    </g>
    <g id="text_18">
     <!-- Residuals -->
     <g transform="translate(778.395313 56.716563) scale(0.1 -0.1)">
      <use xlink:href="#DejaVuSans-52"/>
      <use xlink:href="#DejaVuSans-65" transform="translate(64.982422 0)"/>
      <use xlink:href="#DejaVuSans-73" transform="translate(126.505859 0)"/>
      <use xlink:href="#DejaVuSans-69" transform="translate(178.605469 0)"/>
      <use xlink:href="#DejaVuSans-64" transform="translate(206.388672 0)"/>
      <use xlink:href="#DejaVuSans-75" transform="translate(269.865234 0)"/>
      <use xlink:href="#DejaVuSans-61" transform="translate(333.244141 0)"/>
      <use xlink:href="#DejaVuSans-6c" transform="translate(394.523438 0)"/>
      <use xlink:href="#DejaVuSans-73" transform="translate(422.306641 0)"/>
     </g>
    </g>
   </g>
  </g>
 </g>
 <defs>
  <clipPath id="p8fe9a6c799">
   <rect x="44.66" y="25.44" width="808.54" height="292.6"/>
  </clipPath>
 </defs>
</svg>
