<?xml version="1.0" encoding="utf-8" standalone="no"?>
<!DOCTYPE svg PUBLIC "-//W3C//DTD SVG 1.1//EN"
  "http://www.w3.org/Graphics/SVG/1.1/DTD/svg11.dtd">
<svg xmlns:xlink="http://www.w3.org/1999/xlink" width="864pt" height="360pt" viewBox="0 0 864 360" xmlns="http://www.w3.org/2000/svg" version="1.1">
 <metadata>
  <rdf:RDF xmlns:dc="http://purl.org/dc/elements/1.1/" xmlns:cc="http://creativecommons.org/ns#" xmlns:rdf="http://www.w3.org/1999/02/22-rdf-syntax-ns#">
   <cc:Work>
    <dc:type rdf:resource="http://purl.org/dc/dcmitype/StillImage"/>
    <dc:date>2026-07-08T14:23:38.587214</dc:date>
    <dc:format>image/svg+xml</dc:format>
    <dc:creator>
     <cc:Agent>
      <dc:title>Matplotlib v3.10.0, https://matplotlib.org/</dc:title>
     </cc:Agent>
    </dc:creator>
   </cc:Work>
  </rdf:RDF>
 </metadata>
 <defs>
  <style type="text/css">*{stroke-linejoin: round; stroke-linecap: butt}</style>
 </defs>
 <g id="figure_1">
  <g id="patch_1">
   <path d="M 0 360 
L 864 360 
L 864 0 
L 0 0 
z
" style="fill: #ffffff"/>
  </g>
  <g id="axes_1">
   <g id="patch_2">
    <path d="M 44.66 318.04 
L 853.2 318.04 
L 853.2 25.44 
L 44.66 25.44 
z
" style="fill: #ffffff"/>
   </g>
   <g id="matplotlib.axis_1">
    <g id="xtick_1">
     <g id="line2d_1">
      <path d="M 91.919434 318.04 
L 91.919434 25.44 
" clip-path="url(#p72f9ff5f73)" style="fill: none; stroke: #b0b0b0; stroke-width: 0.8; stroke-linecap: square"/>
     </g>
     <g id="line2d_2">
      <defs>
       <path id="m0981f678fa" d="M 0 0 
L 0 3.5 
" style="stroke: #000000; stroke-width: 0.8"/>
      </defs>
      <g>
       <use xlink:href="#m0981f678fa" x="91.919434" y="318.04" style="stroke: #000000; stroke-width: 0.8"/>
      </g>
     </g>
     <g id="text_1">
      <!-- 1960 -->
      <g transform="translate(79.194434 332.638438) scale(0.1 -0.1)">
       <defs>
        <path id="DejaVuSans-31" d="M 794 531 
L 1825 531 
L 1825 4091 
L 703 3866 
L 703 4441 
L 1819 4666 
L 2450 4666 
L 2450 531 
L 3481 531 
L 3481 0 
L 794 0 
L 794 531 
z
" transform="scale(0.015625)"/>
        <path id="DejaVuSans-39" d="M 703 97 
L 703 672 
Q 941 559 1184 500 
Q 1428 441 1663 441 
Q 2288 441 2617 861 
Q 2947 1281 2994 2138 
Q 2813 1869 2534 1725 
Q 2256 1581 1919 1581 
Q 1219 1581 811 2004 
Q 403 2428 403 3163 
Q 403 3881 828 4315 
Q 1253 4750 1959 4750 
Q 2769 4750 3195 4129 
Q 3622 3509 3622 2328 
Q 3622 1225 3098 567 
Q 2575 -91 1691 -91 
Q 1453 -91 1209 -44 
Q 966 3 703 97 
z
M 1959 2075 
Q 2384 2075 2632 2365 
Q 2881 2656 2881 3163 
Q 2881 3666 2632 3958 
Q 2384 4250 1959 4250 
Q 1534 4250 1286 3958 
Q 1038 3666 1038 3163 
Q 1038 2656 1286 2365 
Q 1534 2075 1959 2075 
z
" transform="scale(0.015625)"/>
        <path id="DejaVuSans-36" d="M 2113 2584 
Q 1688 2584 1439 2293 
Q 1191 2003 1191 1497 
Q 1191 994 1439 701 
Q 1688 409 2113 409 
Q 2538 409 2786 701 
Q 3034 994 3034 1497 
Q 3034 2003 2786 2293 
Q 2538 2584 2113 2584 
z
M 3366 4563 
L 3366 3988 
Q 3128 4100 2886 4159 
Q 2644 4219 2406 4219 
Q 1781 4219 1451 3797 
Q 1122 3375 1075 2522 
Q 1259 2794 1537 2939 
Q 1816 3084 2150 3084 
Q 2853 3084 3261 2657 
Q 3669 2231 3669 1497 
Q 3669 778 3244 343 
Q 2819 -91 2113 -91 
Q 1303 -91 875 529 
Q 447 1150 447 2328 
Q 447 3434 972 4092 
Q 1497 4750 2381 4750 
Q 2619 4750 2861 4703 
Q 3103 4656 3366 4563 
z
" transform="scale(0.015625)"/>
        <path id="DejaVuSans-30" d="M 2034 4250 
Q 1547 4250 1301 3770 
Q 1056 3291 1056 2328 
Q 1056 1369 1301 889 
Q 1547 409 2034 409 
Q 2525 409 2770 889 
Q 3016 1369 3016 2328 
Q 3016 3291 2770 3770 
Q 2525 4250 2034 4250 
z
M 2034 4750 
Q 2819 4750 3233 4129 
Q 3647 3509 3647 2328 
Q 3647 1150 3233 529 
Q 2819 -91 2034 -91 
Q 1250 -91 836 529 
Q 422 1150 422 2328 
Q 422 3509 836 4129 
Q 1250 4750 2034 4750 
z
" transform="scale(0.015625)"/>
       </defs>
       <use xlink:href="#DejaVuSans-31"/>
       <use xlink:href="#DejaVuSans-39" transform="translate(63.623047 0)"/>
       <use xlink:href="#DejaVuSans-36" transform="translate(127.246094 0)"/>
       <use xlink:href="#DejaVuSans-30" transform="translate(190.869141 0)"/>
      </g>
     </g>
    </g>
    <g id="xtick_2">
     <g id="line2d_3">
      <path d="M 231.498777 318.04 
L 231.498777 25.44 
" clip-path="url(#p72f9ff5f73)" style="fill: none; stroke: #b0b0b0; stroke-width: 0.8; stroke-linecap: square"/>
     </g>
     <g id="line2d_4">
      <g>
       <use xlink:href="#m0981f678fa" x="231.498777" y="318.04" style="stroke: #000000; stroke-width: 0.8"/>
      </g>
     </g>
     <g id="text_2">
      <!-- 1970 -->
      <g transform="translate(218.773777 332.638438) scale(0.1 -0.1)">
       <defs>
        <path id="DejaVuSans-37" d="M 525 4666 
L 3525 4666 
L 3525 4397 
L 1831 0 
L 1172 0 
L 2766 4134 
L 525 4134 
L 525 4666 
z
" transform="scale(0.015625)"/>
       </defs>
       <use xlink:href="#DejaVuSans-31"/>
       <use xlink:href="#DejaVuSans-39" transform="translate(63.623047 0)"/>
       <use xlink:href="#DejaVuSans-37" transform="translate(127.246094 0)"/>
       <use xlink:href="#DejaVuSans-30" transform="translate(190.869141 0)"/>
      </g>
     </g>
    </g>
    <g id="xtick_3">
     <g id="line2d_5">
      <path d="M 371.039912 318.04 
L 371.039912 25.44 
" clip-path="url(#p72f9ff5f73)" style="fill: none; stroke: #b0b0b0; stroke-width: 0.8; stroke-linecap: square"/>
     </g>
     <g id="line2d_6">
      <g>
       <use xlink:href="#m0981f678fa" x="371.039912" y="318.04" style="stroke: #000000; stroke-width: 0.8"/>
      </g>
     </g>
     <g id="text_3">
      <!-- 1980 -->
      <g transform="translate(358.314912 332.638438) scale(0.1 -0.1)">
       <defs>
        <path id="DejaVuSans-38" d="M 2034 2216 
Q 1584 2216 1326 1975 
Q 1069 1734 1069 1313 
Q 1069 891 1326 650 
Q 1584 409 2034 409 
Q 2484 409 2743 651 
Q 3003 894 3003 1313 
Q 3003 1734 2745 1975 
Q 2488 2216 2034 2216 
z
M 1403 2484 
Q 997 2584 770 2862 
Q 544 3141 544 3541 
Q 544 4100 942 4425 
Q 1341 4750 2034 4750 
Q 2731 4750 3128 4425 
Q 3525 4100 3525 3541 
Q 3525 3141 3298 2862 
Q 3072 2584 2669 2484 
Q 3125 2378 3379 2068 
Q 3634 1759 3634 1313 
Q 3634 634 3220 271 
Q 2806 -91 2034 -91 
Q 1263 -91 848 271 
Q 434 634 434 1313 
Q 434 1759 690 2068 
Q 947 2378 1403 2484 
z
M 1172 3481 
Q 1172 3119 1398 2916 
Q 1625 2713 2034 2713 
Q 2441 2713 2670 2916 
Q 2900 3119 2900 3481 
Q 2900 3844 2670 4047 
Q 2441 4250 2034 4250 
Q 1625 4250 1398 4047 
Q 1172 3844 1172 3481 
z
" transform="scale(0.015625)"/>
       </defs>
       <use xlink:href="#DejaVuSans-31"/>
       <use xlink:href="#DejaVuSans-39" transform="translate(63.623047 0)"/>
       <use xlink:href="#DejaVuSans-38" transform="translate(127.246094 0)"/>
       <use xlink:href="#DejaVuSans-30" transform="translate(190.869141 0)"/>
      </g>
     </g>
    </g>
    <g id="xtick_4">
     <g id="line2d_7">
      <path d="M 510.619256 318.04 
L 510.619256 25.44 
" clip-path="url(#p72f9ff5f73)" style="fill: none; stroke: #b0b0b0; stroke-width: 0.8; stroke-linecap: square"/>
     </g>
     <g id="line2d_8">
      <g>
       <use xlink:href="#m0981f678fa" x="510.619256" y="318.04" style="stroke: #000000; stroke-width: 0.8"/>
      </g>
     </g>
     <g id="text_4">
      <!-- 1990 -->
      <g transform="translate(497.894256 332.638438) scale(0.1 -0.1)">
       <use xlink:href="#DejaVuSans-31"/>
       <use xlink:href="#DejaVuSans-39" transform="translate(63.623047 0)"/>
       <use xlink:href="#DejaVuSans-39" transform="translate(127.246094 0)"/>
       <use xlink:href="#DejaVuSans-30" transform="translate(190.869141 0)"/>
      </g>
     </g>
    </g>
    <g id="xtick_5">
     <g id="line2d_9">
      <path d="M 650.16039 318.04 
L 650.16039 25.44 
" clip-path="url(#p72f9ff5f73)" style="fill: none; stroke: #b0b0b0; stroke-width: 0.8; stroke-linecap: square"/>
     </g>
     <g id="line2d_10">
      <g>
       <use xlink:href="#m0981f678fa" x="650.16039" y="318.04" style="stroke: #000000; stroke-width: 0.8"/>
      </g>
     </g>
     <g id="text_5">
      <!-- 2000 -->
      <g transform="translate(637.43539 332.638438) scale(0.1 -0.1)">
       <defs>
        <path id="DejaVuSans-32" d="M 1228 531 
L 3431 531 
L 3431 0 
L 469 0 
L 469 531 
Q 828 903 1448 1529 
Q 2069 2156 2228 2338 
Q 2531 2678 2651 2914 
Q 2772 3150 2772 3378 
Q 2772 3750 2511 3984 
Q 2250 4219 1831 4219 
Q 1534 4219 1204 4116 
Q 875 4013 500 3803 
L 500 4441 
Q 881 4594 1212 4672 
Q 1544 4750 1819 4750 
Q 2544 4750 2975 4387 
Q 3406 4025 3406 3419 
Q 3406 3131 3298 2873 
Q 3191 2616 2906 2266 
Q 2828 2175 2409 1742 
Q 1991 1309 1228 531 
z
" transform="scale(0.015625)"/>
       </defs>
       <use xlink:href="#DejaVuSans-32"/>
       <use xlink:href="#DejaVuSans-30" transform="translate(63.623047 0)"/>
       <use xlink:href="#DejaVuSans-30" transform="translate(127.246094 0)"/>
       <use xlink:href="#DejaVuSans-30" transform="translate(190.869141 0)"/>
      </g>
     </g>
    </g>
    <g id="xtick_6">
     <g id="line2d_11">
      <path d="M 789.739734 318.04 
L 789.739734 25.44 
" clip-path="url(#p72f9ff5f73)" style="fill: none; stroke: #b0b0b0; stroke-width: 0.8; stroke-linecap: square"/>
     </g>
     <g id="line2d_12">
      <g>
       <use xlink:href="#m0981f678fa" x="789.739734" y="318.04" style="stroke: #000000; stroke-width: 0.8"/>
      </g>
     </g>
     <g id="text_6">
      <!-- 2010 -->
      <g transform="translate(777.014734 332.638438) scale(0.1 -0.1)">
       <use xlink:href="#DejaVuSans-32"/>
       <use xlink:href="#DejaVuSans-30" transform="translate(63.623047 0)"/>
       <use xlink:href="#DejaVuSans-31" transform="translate(127.246094 0)"/>
       <use xlink:href="#DejaVuSans-30" transform="translate(190.869141 0)"/>
      </g>
     </g>
    </g>
    <g id="text_7">
     <!-- Date -->
     <g transform="translate(436.979219 346.316563) scale(0.1 -0.1)">
      <defs>
       <path id="DejaVuSans-44" d="M 1259 4147 
L 1259 519 
L 2022 519 
Q 2988 519 3436 956 
Q 3884 1394 3884 2338 
Q 3884 3275 3436 3711 
Q 2988 4147 2022 4147 
L 1259 4147 
z
M 628 4666 
L 1925 4666 
Q 3281 4666 3915 4102 
Q 4550 3538 4550 2338 
Q 4550 1131 3912 565 
Q 3275 0 1925 0 
L 628 0 
L 628 4666 
z
" transform="scale(0.015625)"/>
       <path id="DejaVuSans-61" d="M 2194 1759 
Q 1497 1759 1228 1600 
Q 959 1441 959 1056 
Q 959 750 1161 570 
Q 1363 391 1709 391 
Q 2188 391 2477 730 
Q 2766 1069 2766 1631 
L 2766 1759 
L 2194 1759 
z
M 3341 1997 
L 3341 0 
L 2766 0 
L 2766 531 
Q 2569 213 2275 61 
Q 1981 -91 1556 -91 
Q 1019 -91 701 211 
Q 384 513 384 1019 
Q 384 1609 779 1909 
Q 1175 2209 1959 2209 
L 2766 2209 
L 2766 2266 
Q 2766 2663 2505 2880 
Q 2244 3097 1772 3097 
Q 1472 3097 1187 3025 
Q 903 2953 641 2809 
L 641 3341 
Q 956 3463 1253 3523 
Q 1550 3584 1831 3584 
Q 2591 3584 2966 3190 
Q 3341 2797 3341 1997 
z
" transform="scale(0.015625)"/>
       <path id="DejaVuSans-74" d="M 1172 4494 
L 1172 3500 
L 2356 3500 
L 2356 3053 
L 1172 3053 
L 1172 1153 
Q 1172 725 1289 603 
Q 1406 481 1766 481 
L 2356 481 
L 2356 0 
L 1766 0 
Q 1100 0 847 248 
Q 594 497 594 1153 
L 594 3053 
L 172 3053 
L 172 3500 
L 594 3500 
L 594 4494 
L 1172 4494 
z
" transform="scale(0.015625)"/>
       <path id="DejaVuSans-65" d="M 3597 1894 
L 3597 1613 
L 953 1613 
Q 991 1019 1311 708 
Q 1631 397 2203 397 
Q 2534 397 2845 478 
Q 3156 559 3463 722 
L 3463 178 
Q 3153 47 2828 -22 
Q 2503 -91 2169 -91 
Q 1331 -91 842 396 
Q 353 884 353 1716 
Q 353 2575 817 3079 
Q 1281 3584 2069 3584 
Q 2775 3584 3186 3129 
Q 3597 2675 3597 1894 
z
M 3022 2063 
Q 3016 2534 2758 2815 
Q 2500 3097 2075 3097 
Q 1594 3097 1305 2825 
Q 1016 2553 972 2059 
L 3022 2063 
z
" transform="scale(0.015625)"/>
      </defs>
      <use xlink:href="#DejaVuSans-44"/>
      <use xlink:href="#DejaVuSans-61" transform="translate(77.001953 0)"/>
      <use xlink:href="#DejaVuSans-74" transform="translate(138.28125 0)"/>
      <use xlink:href="#DejaVuSans-65" transform="translate(177.490234 0)"/>
     </g>
    </g>
   </g>
   <g id="matplotlib.axis_2">
    <g id="ytick_1">
     <g id="line2d_13">
      <path d="M 44.66 295.721117 
L 853.2 295.721117 
" clip-path="url(#p72f9ff5f73)" style="fill: none; stroke: #b0b0b0; stroke-width: 0.8; stroke-linecap: square"/>
     </g>
     <g id="line2d_14">
      <defs>
       <path id="mef49d2a353" d="M 0 0 
L -3.5 0 
" style="stroke: #000000; stroke-width: 0.8"/>
      </defs>
      <g>
       <use xlink:href="#mef49d2a353" x="44.66" y="295.721117" style="stroke: #000000; stroke-width: 0.8"/>
      </g>
     </g>
     <g id="text_8">
      <!-- 0 -->
      <g transform="translate(31.2975 299.520335) scale(0.1 -0.1)">
       <use xlink:href="#DejaVuSans-30"/>
      </g>
     </g>
    </g>
    <g id="ytick_2">
     <g id="line2d_15">
      <path d="M 44.66 245.640319 
L 853.2 245.640319 
" clip-path="url(#p72f9ff5f73)" style="fill: none; stroke: #b0b0b0; stroke-width: 0.8; stroke-linecap: square"/>
     </g>
     <g id="line2d_16">
      <g>
       <use xlink:href="#mef49d2a353" x="44.66" y="245.640319" style="stroke: #000000; stroke-width: 0.8"/>
      </g>
     </g>
     <g id="text_9">
      <!-- 5 -->
      <g transform="translate(31.2975 249.439538) scale(0.1 -0.1)">
       <defs>
        <path id="DejaVuSans-35" d="M 691 4666 
L 3169 4666 
L 3169 4134 
L 1269 4134 
L 1269 2991 
Q 1406 3038 1543 3061 
Q 1681 3084 1819 3084 
Q 2600 3084 3056 2656 
Q 3513 2228 3513 1497 
Q 3513 744 3044 326 
Q 2575 -91 1722 -91 
Q 1428 -91 1123 -41 
Q 819 9 494 109 
L 494 744 
Q 775 591 1075 516 
Q 1375 441 1709 441 
Q 2250 441 2565 725 
Q 2881 1009 2881 1497 
Q 2881 1984 2565 2268 
Q 2250 2553 1709 2553 
Q 1456 2553 1204 2497 
Q 953 2441 691 2322 
L 691 4666 
z
" transform="scale(0.015625)"/>
       </defs>
       <use xlink:href="#DejaVuSans-35"/>
      </g>
     </g>
    </g>
    <g id="ytick_3">
     <g id="line2d_17">
      <path d="M 44.66 195.559521 
L 853.2 195.559521 
" clip-path="url(#p72f9ff5f73)" style="fill: none; stroke: #b0b0b0; stroke-width: 0.8; stroke-linecap: square"/>
     </g>
     <g id="line2d_18">
      <g>
       <use xlink:href="#mef49d2a353" x="44.66" y="195.559521" style="stroke: #000000; stroke-width: 0.8"/>
      </g>
     </g>
     <g id="text_10">
      <!-- 10 -->
      <g transform="translate(24.935 199.35874) scale(0.1 -0.1)">
       <use xlink:href="#DejaVuSans-31"/>
       <use xlink:href="#DejaVuSans-30" transform="translate(63.623047 0)"/>
      </g>
     </g>
    </g>
    <g id="ytick_4">
     <g id="line2d_19">
      <path d="M 44.66 145.478724 
L 853.2 145.478724 
" clip-path="url(#p72f9ff5f73)" style="fill: none; stroke: #b0b0b0; stroke-width: 0.8; stroke-linecap: square"/>
     </g>
     <g id="line2d_20">
      <g>
       <use xlink:href="#mef49d2a353" x="44.66" y="145.478724" style="stroke: #000000; stroke-width: 0.8"/>
      </g>
     </g>
     <g id="text_11">
      <!-- 15 -->
      <g transform="translate(24.935 149.277943) scale(0.1 -0.1)">
       <use xlink:href="#DejaVuSans-31"/>
       <use xlink:href="#DejaVuSans-35" transform="translate(63.623047 0)"/>
      </g>
     </g>
    </g>
    <g id="ytick_5">
     <g id="line2d_21">
      <path d="M 44.66 95.397926 
L 853.2 95.397926 
" clip-path="url(#p72f9ff5f73)" style="fill: none; stroke: #b0b0b0; stroke-width: 0.8; stroke-linecap: square"/>
     </g>
     <g id="line2d_22">
      <g>
       <use xlink:href="#mef49d2a353" x="44.66" y="95.397926" style="stroke: #000000; stroke-width: 0.8"/>
      </g>
     </g>
     <g id="text_12">
      <!-- 20 -->
      <g transform="translate(24.935 99.197145) scale(0.1 -0.1)">
       <use xlink:href="#DejaVuSans-32"/>
       <use xlink:href="#DejaVuSans-30" transform="translate(63.623047 0)"/>
      </g>
     </g>
    </g>
    <g id="ytick_6">
     <g id="line2d_23">
      <path d="M 44.66 45.317129 
L 853.2 45.317129 
" clip-path="url(#p72f9ff5f73)" style="fill: none; stroke: #b0b0b0; stroke-width: 0.8; stroke-linecap: square"/>
     </g>
     <g id="line2d_24">
      <g>
       <use xlink:href="#mef49d2a353" x="44.66" y="45.317129" style="stroke: #000000; stroke-width: 0.8"/>
      </g>
     </g>
     <g id="text_13">
      <!-- 25 -->
      <g transform="translate(24.935 49.116348) scale(0.1 -0.1)">
       <use xlink:href="#DejaVuSans-32"/>
       <use xlink:href="#DejaVuSans-35" transform="translate(63.623047 0)"/>
      </g>
     </g>
    </g>
    <g id="text_14">
     <!-- Residual / ppm -->
     <g transform="translate(18.855313 208.936875) rotate(-90) scale(0.1 -0.1)">
      <defs>
       <path id="DejaVuSans-52" d="M 2841 2188 
Q 3044 2119 3236 1894 
Q 3428 1669 3622 1275 
L 4263 0 
L 3584 0 
L 2988 1197 
Q 2756 1666 2539 1819 
Q 2322 1972 1947 1972 
L 1259 1972 
L 1259 0 
L 628 0 
L 628 4666 
L 2053 4666 
Q 2853 4666 3247 4331 
Q 3641 3997 3641 3322 
Q 3641 2881 3436 2590 
Q 3231 2300 2841 2188 
z
M 1259 4147 
L 1259 2491 
L 2053 2491 
Q 2509 2491 2742 2702 
Q 2975 2913 2975 3322 
Q 2975 3731 2742 3939 
Q 2509 4147 2053 4147 
L 1259 4147 
z
" transform="scale(0.015625)"/>
       <path id="DejaVuSans-73" d="M 2834 3397 
L 2834 2853 
Q 2591 2978 2328 3040 
Q 2066 3103 1784 3103 
Q 1356 3103 1142 2972 
Q 928 2841 928 2578 
Q 928 2378 1081 2264 
Q 1234 2150 1697 2047 
L 1894 2003 
Q 2506 1872 2764 1633 
Q 3022 1394 3022 966 
Q 3022 478 2636 193 
Q 2250 -91 1575 -91 
Q 1294 -91 989 -36 
Q 684 19 347 128 
L 347 722 
Q 666 556 975 473 
Q 1284 391 1588 391 
Q 1994 391 2212 530 
Q 2431 669 2431 922 
Q 2431 1156 2273 1281 
Q 2116 1406 1581 1522 
L 1381 1569 
Q 847 1681 609 1914 
Q 372 2147 372 2553 
Q 372 3047 722 3315 
Q 1072 3584 1716 3584 
Q 2034 3584 2315 3537 
Q 2597 3491 2834 3397 
z
" transform="scale(0.015625)"/>
       <path id="DejaVuSans-69" d="M 603 3500 
L 1178 3500 
L 1178 0 
L 603 0 
L 603 3500 
z
M 603 4863 
L 1178 4863 
L 1178 4134 
L 603 4134 
L 603 4863 
z
" transform="scale(0.015625)"/>
       <path id="DejaVuSans-64" d="M 2906 2969 
L 2906 4863 
L 3481 4863 
L 3481 0 
L 2906 0 
L 2906 525 
Q 2725 213 2448 61 
Q 2172 -91 1784 -91 
Q 1150 -91 751 415 
Q 353 922 353 1747 
Q 353 2572 751 3078 
Q 1150 3584 1784 3584 
Q 2172 3584 2448 3432 
Q 2725 3281 2906 2969 
z
M 947 1747 
Q 947 1113 1208 752 
Q 1469 391 1925 391 
Q 2381 391 2643 752 
Q 2906 1113 2906 1747 
Q 2906 2381 2643 2742 
Q 2381 3103 1925 3103 
Q 1469 3103 1208 2742 
Q 947 2381 947 1747 
z
" transform="scale(0.015625)"/>
       <path id="DejaVuSans-75" d="M 544 1381 
L 544 3500 
L 1119 3500 
L 1119 1403 
Q 1119 906 1312 657 
Q 1506 409 1894 409 
Q 2359 409 2629 706 
Q 2900 1003 2900 1516 
L 2900 3500 
L 3475 3500 
L 3475 0 
L 2900 0 
L 2900 538 
Q 2691 219 2414 64 
Q 2138 -91 1772 -91 
Q 1169 -91 856 284 
Q 544 659 544 1381 
z
M 1991 3584 
L 1991 3584 
z
" transform="scale(0.015625)"/>
       <path id="DejaVuSans-6c" d="M 603 4863 
L 1178 4863 
L 1178 0 
L 603 0 
L 603 4863 
z
" transform="scale(0.015625)"/>
       <path id="DejaVuSans-20" transform="scale(0.015625)"/>
       <path id="DejaVuSans-2f" d="M 1625 4666 
L 2156 4666 
L 531 -594 
L 0 -594 
L 1625 4666 
z
" transform="scale(0.015625)"/>
       <path id="DejaVuSans-70" d="M 1159 525 
L 1159 -1331 
L 581 -1331 
L 581 3500 
L 1159 3500 
L 1159 2969 
Q 1341 3281 1617 3432 
Q 1894 3584 2278 3584 
Q 2916 3584 3314 3078 
Q 3713 2572 3713 1747 
Q 3713 922 3314 415 
Q 2916 -91 2278 -91 
Q 1894 -91 1617 61 
Q 1341 213 1159 525 
z
M 3116 1747 
Q 3116 2381 2855 2742 
Q 2594 3103 2138 3103 
Q 1681 3103 1420 2742 
Q 1159 2381 1159 1747 
Q 1159 1113 1420 752 
Q 1681 391 2138 391 
Q 2594 391 2855 752 
Q 3116 1113 3116 1747 
z
" transform="scale(0.015625)"/>
       <path id="DejaVuSans-6d" d="M 3328 2828 
Q 3544 3216 3844 3400 
Q 4144 3584 4550 3584 
Q 5097 3584 5394 3201 
Q 5691 2819 5691 2113 
L 5691 0 
L 5113 0 
L 5113 2094 
Q 5113 2597 4934 2840 
Q 4756 3084 4391 3084 
Q 3944 3084 3684 2787 
Q 3425 2491 3425 1978 
L 3425 0 
L 2847 0 
L 2847 2094 
Q 2847 2600 2669 2842 
Q 2491 3084 2119 3084 
Q 1678 3084 1418 2786 
Q 1159 2488 1159 1978 
L 1159 0 
L 581 0 
L 581 3500 
L 1159 3500 
L 1159 2956 
Q 1356 3278 1631 3431 
Q 1906 3584 2284 3584 
Q 2666 3584 2933 3390 
Q 3200 3197 3328 2828 
z
" transform="scale(0.015625)"/>
      </defs>
      <use xlink:href="#DejaVuSans-52"/>
      <use xlink:href="#DejaVuSans-65" transform="translate(64.982422 0)"/>
      <use xlink:href="#DejaVuSans-73" transform="translate(126.505859 0)"/>
      <use xlink:href="#DejaVuSans-69" transform="translate(178.605469 0)"/>
      <use xlink:href="#DejaVuSans-64" transform="translate(206.388672 0)"/>
      <use xlink:href="#DejaVuSans-75" transform="translate(269.865234 0)"/>
      <use xlink:href="#DejaVuSans-61" transform="translate(333.244141 0)"/>
      <use xlink:href="#DejaVuSans-6c" transform="translate(394.523438 0)"/>
      <use xlink:href="#DejaVuSans-20" transform="translate(422.306641 0)"/>
      <use xlink:href="#DejaVuSans-2f" transform="translate(454.09375 0)"/>
      <use xlink:href="#DejaVuSans-20" transform="translate(487.785156 0)"/>
      <use xlink:href="#DejaVuSans-70" transform="translate(519.572266 0)"/>
      <use xlink:href="#DejaVuSans-70" transform="translate(583.048828 0)"/>
      <use xlink:href="#DejaVuSans-6d" transform="translate(646.525391 0)"/>
     </g>
    </g>
   </g>
   <g id="line2d_25">
    <path d="M 44.66 295.721117 
L 853.2 295.721117 
" clip-path="url(#p72f9ff5f73)" style="fill: none; stroke-dasharray: 5.55,2.4; stroke-dashoffset: 0; stroke: #808080; stroke-width: 1.5"/>
   </g>
   <g id="line2d_26">
    <path d="M 81.411818 38.74 
L 82.558104 289.243546 
L 83.742598 294.013615 
L 84.888884 297.51148 
L 86.073379 303.84652 
L 87.257873 288.933897 
L 88.404159 292.50734 
L 89.588654 289.604032 
L 90.734939 300.758807 
L 91.919434 296.648466 
L 93.103929 299.597021 
L 94.212004 292.54238 
L 95.396499 292.298794 
L 96.542785 288.923249 
L 97.727279 296.37115 
L 98.873565 293.654367 
L 100.05806 302.735684 
L 101.242554 303.425093 
L 102.38884 296.734492 
L 103.573335 298.374602 
L 104.71962 294.28769 
L 105.904115 296.939082 
L 107.08861 294.680943 
L 108.158476 292.349755 
L 109.342971 298.435691 
L 110.489256 292.065613 
L 111.673751 300.039955 
L 112.820036 293.889083 
L 114.004531 294.599988 
L 115.189026 299.113764 
L 116.335311 288.962955 
L 117.519806 298.511517 
L 118.666091 297.578015 
L 119.850586 295.023287 
L 121.035081 296.904398 
L 122.104947 291.372944 
L 123.289442 297.460034 
L 124.435728 299.53063 
L 125.620222 296.742418 
L 126.766508 292.247164 
L 127.951003 298.575421 
L 129.135497 292.78197 
L 130.281783 300.890112 
L 131.466278 295.86067 
L 132.612563 296.05289 
L 133.797058 293.83 
L 134.981553 298.840491 
L 136.051419 296.720059 
L 137.235914 292.191257 
L 138.382199 293.215674 
L 139.566694 297.928854 
L 140.712979 300.560372 
L 141.897474 298.055103 
L 143.081969 298.08952 
L 144.228254 295.336951 
L 145.412749 296.63748 
L 146.559034 293.339118 
L 147.743529 291.616373 
L 148.928024 295.620538 
L 151.220595 296.980498 
L 152.36688 299.55377 
L 153.551375 295.83255 
L 154.69766 296.491377 
L 155.882155 294.317581 
L 157.06665 300.503691 
L 158.212935 292.334004 
L 159.39743 298.287247 
L 160.543716 296.797597 
L 161.72821 298.489707 
L 162.912705 292.632495 
L 163.982572 298.211828 
L 165.167066 295.738536 
L 166.313352 302.471649 
L 167.497847 296.409797 
L 168.644132 288.91257 
L 169.828627 298.051892 
L 171.013122 291.035414 
L 172.159407 296.973061 
L 173.343902 291.028308 
L 174.490187 299.277069 
L 175.674682 293.773063 
L 176.859177 292.056476 
L 177.929043 293.713781 
L 179.113538 293.625875 
L 180.259823 296.86119 
L 181.444318 294.870894 
L 182.590603 296.397421 
L 183.775098 296.401575 
L 184.959593 298.505682 
L 186.105878 299.288658 
L 187.290373 292.039246 
L 188.436659 292.180683 
L 189.621153 290.861107 
L 190.805648 299.243181 
L 191.875515 298.594836 
L 193.060009 295.218983 
L 194.206295 295.446387 
L 195.39079 300.578799 
L 196.537075 299.8773 
L 197.72157 294.018697 
L 198.906065 297.165001 
L 200.05235 291.55818 
L 201.236845 293.481462 
L 202.38313 292.612164 
L 203.567625 298.542061 
L 204.75212 296.988507 
L 205.860196 295.981092 
L 207.04469 297.046823 
L 208.190976 296.342999 
L 209.375471 293.287002 
L 210.521756 293.828832 
L 212.890746 298.223822 
L 214.037031 294.831013 
L 215.221526 297.542996 
L 216.367811 291.158009 
L 217.552306 292.822549 
L 218.736801 296.641004 
L 219.806667 290.706272 
L 220.991162 296.010699 
L 222.137447 293.897555 
L 223.321942 297.293303 
L 224.468227 291.258889 
L 225.652722 297.201191 
L 226.837217 293.149347 
L 227.983502 298.614288 
L 229.167997 298.250142 
L 230.314283 295.418921 
L 231.498777 296.191154 
L 232.683272 292.633622 
L 233.753139 293.147651 
L 234.937633 294.681229 
L 236.083919 301.507176 
L 237.268414 296.95702 
L 238.414699 297.329338 
L 239.599194 293.398022 
L 240.783689 295.681178 
L 241.929974 293.233748 
L 243.114469 297.55349 
L 244.260754 296.42795 
L 245.445249 295.489828 
L 246.629744 296.991271 
L 247.69961 299.329357 
L 248.884105 303.113677 
L 250.03039 292.091237 
L 251.214885 294.035825 
L 252.361171 294.530163 
L 253.545665 295.231993 
L 254.73016 300.900585 
L 255.876446 293.004536 
L 257.06094 294.636696 
L 258.207226 294.581701 
L 259.391721 297.560949 
L 260.576215 293.983971 
L 261.684291 301.739669 
L 262.868786 289.299878 
L 264.015071 296.322166 
L 265.199566 300.889619 
L 266.345852 295.455519 
L 267.530346 293.967673 
L 268.714841 294.080857 
L 269.861127 289.581411 
L 272.191907 295.192915 
L 273.376402 294.87581 
L 274.560896 291.757986 
L 275.630763 293.901742 
L 276.815258 295.169725 
L 277.961543 291.159697 
L 279.146038 293.085902 
L 280.292323 294.245302 
L 281.476818 291.600192 
L 282.661313 296.314537 
L 283.807598 297.728796 
L 284.992093 298.707744 
L 286.138378 303.540183 
L 287.322873 301.267934 
L 288.507368 291.805041 
L 289.577234 294.084371 
L 290.761729 295.743868 
L 291.908014 296.32093 
L 293.092509 300.848571 
L 294.238795 296.62869 
L 295.423289 297.073053 
L 296.607784 298.553111 
L 297.75407 295.91193 
L 298.938564 297.582431 
L 300.08485 294.39458 
L 301.269345 293.344588 
L 302.453839 295.421225 
L 303.523706 297.744563 
L 304.708201 296.939609 
L 305.854486 293.94407 
L 307.038981 295.011438 
L 308.185266 297.822758 
L 309.369761 297.985015 
L 310.554256 295.011249 
L 311.700541 295.691205 
L 312.885036 297.205396 
L 314.031321 293.355394 
L 315.215816 296.71814 
L 316.400311 291.943875 
L 317.508387 295.125802 
L 318.692882 293.693413 
L 319.839167 301.512532 
L 321.023662 299.572331 
L 322.169947 293.991678 
L 323.354442 300.736427 
L 324.538937 298.582477 
L 325.685222 298.192114 
L 326.869717 293.986666 
L 328.016002 292.046612 
L 329.200497 293.311797 
L 330.384992 298.043427 
L 331.454858 285.169916 
L 332.639353 292.869133 
L 333.785639 291.750839 
L 334.970133 295.929368 
L 336.116419 296.335685 
L 337.300914 299.840334 
L 338.485408 293.734195 
L 339.631694 294.071706 
L 340.816189 295.178518 
L 341.962474 295.701106 
L 343.146969 291.912867 
L 344.331464 299.157446 
L 345.40133 290.720359 
L 346.585825 296.289535 
L 347.73211 298.216732 
L 348.916605 290.757905 
L 350.06289 297.316303 
L 351.247385 296.976999 
L 352.43188 301.098889 
L 353.578165 295.558676 
L 354.76266 294.87871 
L 355.908945 295.693186 
L 357.09344 293.485542 
L 358.277935 296.869346 
L 359.347801 288.953396 
L 360.532296 300.134959 
L 361.678582 298.200766 
L 362.863076 291.377476 
L 364.009362 299.344553 
L 365.193857 295.023355 
L 366.378351 296.942727 
L 367.524637 292.490101 
L 368.709132 295.973258 
L 369.855417 292.379258 
L 371.039912 294.046196 
L 372.224407 297.730961 
L 373.332482 288.564242 
L 374.516977 296.213292 
L 375.663263 295.697934 
L 376.847757 291.983515 
L 377.994043 300.681354 
L 379.178538 295.287181 
L 380.363032 293.697386 
L 381.509318 295.662427 
L 382.693813 295.912994 
L 383.840098 297.935018 
L 385.024593 296.963244 
L 386.209088 290.616032 
L 387.278954 293.831268 
L 388.463449 296.165116 
L 389.609734 296.752136 
L 390.794229 296.947979 
L 391.940514 299.871258 
L 393.125009 301.224258 
L 394.309504 297.119552 
L 395.455789 295.111181 
L 396.640284 292.330978 
L 397.786569 293.108236 
L 398.971064 294.830537 
L 400.155559 294.467273 
L 401.225425 295.573551 
L 402.40992 294.741216 
L 403.556206 292.627811 
L 404.7407 299.300021 
L 405.886986 297.368765 
L 408.255976 299.529653 
L 409.402261 296.504511 
L 410.586756 298.344891 
L 411.733041 295.376957 
L 412.917536 298.357554 
L 414.102031 292.229537 
L 415.171897 299.395129 
L 416.356392 287.553806 
L 417.502677 291.450375 
L 418.687172 292.817468 
L 419.833457 294.716176 
L 421.017952 293.12678 
L 422.202447 298.936715 
L 423.348732 295.671115 
L 424.533227 295.415702 
L 425.679513 293.763907 
L 428.048502 296.487593 
L 429.156578 298.377645 
L 430.341073 291.925687 
L 431.487358 296.546871 
L 432.671853 297.29422 
L 433.818138 295.948825 
L 435.002633 296.601411 
L 436.187128 300.840231 
L 437.333413 294.730585 
L 438.517908 293.458845 
L 439.664194 290.4995 
L 440.848688 299.168631 
L 442.033183 295.309746 
L 443.10305 290.536519 
L 444.287544 299.185561 
L 445.43383 296.069535 
L 446.618325 297.580121 
L 447.76461 299.959846 
L 448.949105 293.843451 
L 450.1336 296.060325 
L 451.279885 297.206168 
L 452.46438 294.922972 
L 453.610665 294.632427 
L 454.79516 298.316694 
L 455.979655 297.7969 
L 457.049521 299.315225 
L 458.234016 293.186892 
L 460.564796 295.644585 
L 461.711081 298.536569 
L 462.895576 298.0027 
L 464.080071 286.275043 
L 465.226356 299.39316 
L 466.410851 295.004397 
L 467.557137 296.11389 
L 468.741631 292.604485 
L 469.926126 300.935822 
L 470.995993 298.522316 
L 472.180487 293.724588 
L 473.326773 293.717903 
L 474.511268 295.724878 
L 475.657553 294.605448 
L 476.842048 295.825123 
L 479.172828 294.207088 
L 480.357323 294.37701 
L 481.503608 296.215894 
L 482.688103 293.128731 
L 483.872598 290.400487 
L 484.980674 295.733065 
L 486.165168 296.630825 
L 487.311454 295.264137 
L 488.495949 295.320151 
L 489.642234 291.828219 
L 490.826729 297.841735 
L 492.011224 295.363647 
L 493.157509 291.20002 
L 494.342004 296.611937 
L 495.488289 296.678379 
L 496.672784 291.522211 
L 497.857279 298.741647 
L 498.927145 299.782601 
L 500.11164 293.754938 
L 501.257925 299.292657 
L 502.44242 297.034523 
L 503.588706 296.22526 
L 504.7732 298.149325 
L 505.957695 298.233996 
L 507.103981 294.409126 
L 508.288475 295.97743 
L 509.434761 295.044092 
L 510.619256 296.51677 
L 511.80375 291.052322 
L 512.873617 297.128242 
L 514.058112 302.903332 
L 515.204397 294.004243 
L 516.388892 300.62528 
L 517.535177 298.34801 
L 518.719672 295.053994 
L 519.904167 296.505857 
L 521.050452 293.227252 
L 522.234947 293.074844 
L 523.381232 294.937298 
L 524.565727 300.466292 
L 525.750222 296.427065 
L 526.820088 290.309522 
L 528.004583 292.124469 
L 530.335363 299.962606 
L 531.481649 302.295316 
L 532.666143 301.593469 
L 533.850638 298.448217 
L 534.996924 296.951303 
L 536.181418 294.725747 
L 537.327704 295.306909 
L 538.512199 294.096155 
L 539.696693 294.627518 
L 540.804769 297.46093 
L 541.989264 296.485304 
L 543.135549 297.312277 
L 544.320044 293.073046 
L 545.46633 303.168848 
L 546.650824 299.387061 
L 547.835319 301.167498 
L 548.981605 294.763722 
L 550.166099 298.760163 
L 551.312385 297.21393 
L 552.49688 292.287543 
L 553.681374 299.785574 
L 554.751241 294.803795 
L 555.935736 300.422927 
L 557.082021 294.2197 
L 558.266516 296.564339 
L 559.412801 302.287238 
L 560.597296 294.467094 
L 561.781791 295.46397 
L 562.928076 295.84451 
L 564.112571 295.542906 
L 565.258856 293.66055 
L 566.443351 292.232388 
L 567.627846 295.308693 
L 568.697712 294.46399 
L 569.882207 294.951551 
L 571.028492 297.532453 
L 572.212987 299.001782 
L 573.359273 294.965376 
L 574.543768 294.890733 
L 575.728262 296.287979 
L 576.874548 293.454525 
L 578.059043 293.410247 
L 579.205328 293.518828 
L 580.389823 296.242483 
L 581.574318 293.743115 
L 582.644184 295.221711 
L 583.828679 293.101396 
L 584.974964 297.019663 
L 586.159459 295.011019 
L 587.305744 294.982718 
L 588.490239 300.026512 
L 589.674734 290.700586 
L 590.821019 297.495168 
L 592.005514 294.367965 
L 593.151799 296.635081 
L 594.336294 292.873277 
L 595.520789 291.073772 
L 596.628865 294.722494 
L 597.81336 303.50144 
L 600.14414 293.282852 
L 601.290425 292.931716 
L 603.659415 298.304924 
L 604.8057 297.314071 
L 605.990195 296.487561 
L 607.13648 295.917417 
L 608.320975 298.472534 
L 609.50547 295.32028 
L 610.575336 301.311548 
L 611.759831 290.88267 
L 612.906117 297.576566 
L 614.090611 301.143595 
L 615.236897 294.666939 
L 616.421392 295.864052 
L 617.605886 299.313782 
L 618.752172 292.648514 
L 619.936667 291.38655 
L 621.082952 288.794907 
L 622.267447 295.037232 
L 623.451942 296.333425 
L 624.521808 292.476648 
L 625.706303 292.7412 
L 626.852588 292.347929 
L 628.037083 292.700336 
L 629.183368 290.564028 
L 630.367863 291.9904 
L 631.552358 296.977871 
L 632.698643 293.495153 
L 633.883138 297.365262 
L 635.029423 293.772847 
L 636.213918 295.256954 
L 637.398413 294.510695 
L 638.468279 299.361225 
L 639.652774 296.430348 
L 640.79906 302.350268 
L 641.983554 298.987496 
L 643.12984 290.95131 
L 644.314335 299.655213 
L 645.498829 301.145085 
L 646.645115 293.878687 
L 647.82961 295.362377 
L 648.975895 295.995078 
L 650.16039 294.504487 
L 651.344885 301.22334 
L 652.45296 296.38573 
L 653.637455 296.756617 
L 654.783741 303.681528 
L 655.968236 291.552004 
L 657.114521 299.259825 
L 658.299016 293.411327 
L 659.483511 289.10623 
L 660.629796 295.288875 
L 661.814291 295.058627 
L 662.960576 296.57451 
L 664.145071 297.432423 
L 665.329566 294.9041 
L 666.399432 295.586512 
L 667.583927 299.157288 
L 668.730212 296.426647 
L 669.914707 297.531964 
L 671.060992 299.050779 
L 672.245487 295.562663 
L 673.429982 293.800993 
L 674.576267 294.459794 
L 675.760762 295.366664 
L 676.907048 294.779343 
L 678.091542 293.19194 
L 679.276037 296.11673 
L 680.345904 295.796599 
L 681.530398 299.17381 
L 682.676684 293.916289 
L 683.861179 292.647211 
L 685.007464 295.023813 
L 686.191959 296.291439 
L 687.376454 290.645654 
L 688.522739 298.057151 
L 689.707234 292.662339 
L 690.853519 293.461146 
L 692.038014 294.759488 
L 693.222509 295.599572 
L 694.292375 296.813579 
L 695.47687 295.229092 
L 696.623155 291.791574 
L 697.80765 292.78133 
L 700.13843 298.073468 
L 701.322925 293.079467 
L 702.46921 296.98276 
L 703.653705 294.613804 
L 704.799991 296.467487 
L 705.984485 296.84349 
L 707.16898 295.226743 
L 708.277056 294.862374 
L 709.461551 292.686807 
L 710.607836 297.251226 
L 711.792331 300.752778 
L 712.938616 304.74 
L 714.123111 293.327663 
L 715.307606 297.766603 
L 716.453891 295.905186 
L 717.638386 293.019181 
L 718.784672 295.608677 
L 719.969166 296.850831 
L 721.153661 291.263093 
L 722.223528 293.296914 
L 723.408022 291.694832 
L 724.554308 297.470233 
L 725.738803 293.29973 
L 726.885088 293.875763 
L 728.069583 294.966854 
L 729.254078 300.233251 
L 730.400363 295.758547 
L 731.584858 296.986405 
L 732.731143 292.717744 
L 733.915638 292.811525 
L 735.100133 294.905558 
L 736.169999 300.168079 
L 737.354494 290.483233 
L 738.500779 294.620463 
L 739.685274 300.081927 
L 740.831559 297.341236 
L 742.016054 297.11533 
L 744.346835 294.801558 
L 745.531329 299.623573 
L 746.677615 294.917532 
L 747.86211 295.874893 
L 749.046604 294.123385 
L 750.116471 297.315226 
L 751.300966 290.478207 
L 752.447251 298.09705 
L 753.631746 295.375332 
L 754.778031 296.060278 
L 755.962526 300.758156 
L 757.147021 291.917137 
L 758.293306 294.996981 
L 759.477801 295.896621 
L 760.624086 295.667521 
L 761.808581 290.756142 
L 762.993076 299.987565 
L 764.101152 303.445688 
L 765.285647 302.297485 
L 766.431932 288.188157 
L 767.616427 296.442529 
L 768.762712 293.595392 
L 769.947207 297.448118 
L 771.131702 289.949083 
L 772.277987 297.654925 
L 773.462482 297.962838 
L 774.608767 297.650268 
L 775.793262 294.294667 
L 776.977757 298.222017 
L 778.047623 291.18588 
L 779.232118 300.94769 
L 780.378403 296.546495 
L 781.562898 297.439791 
L 782.709184 295.616566 
L 783.893678 294.555009 
L 785.078173 294.171403 
L 786.224459 299.725801 
L 787.408953 294.729751 
L 788.555239 296.44243 
L 789.739734 294.974414 
L 790.924228 288.315755 
L 791.994095 292.242224 
L 793.17859 294.075743 
L 794.324875 294.828808 
L 796.655655 300.787255 
L 797.84015 295.67782 
L 799.024645 296.780912 
L 800.17093 293.162879 
L 801.355425 294.475983 
L 802.50171 298.670362 
L 803.686205 293.461591 
L 804.8707 298.281682 
L 805.940566 297.804714 
L 807.125061 303.291181 
L 808.271346 294.233924 
L 809.455841 294.516693 
L 810.602127 291.843277 
L 811.786621 297.843646 
L 812.971116 292.179974 
L 814.117402 296.866142 
L 815.301896 296.997483 
L 816.448182 294.744531 
L 816.448182 294.744531 
" clip-path="url(#p72f9ff5f73)" style="fill: none; stroke: #1f77b4; stroke-width: 1.5; stroke-linecap: square"/>
   </g>
   <g id="patch_3">
    <path d="M 44.66 318.04 
L 44.66 25.44 
" style="fill: none; stroke: #000000; stroke-width: 0.8; stroke-linejoin: miter; stroke-linecap: square"/>
   </g>
   <g id="patch_4">
    <path d="M 853.2 318.04 
L 853.2 25.44 
" style="fill: none; stroke: #000000; stroke-width: 0.8; stroke-linejoin: miter; stroke-linecap: square"/>
   </g>
   <g id="patch_5">
    <path d="M 44.66 318.04 
L 853.2 318.04 
" style="fill: none; stroke: #000000; stroke-width: 0.8; stroke-linejoin: miter; stroke-linecap: square"/>
   </g>
   <g id="patch_6">
    <path d="M 44.66 25.44 
L 853.2 25.44 
" style="fill: none; stroke: #000000; stroke-width: 0.8; stroke-linejoin: miter; stroke-linecap: square"/>
   </g>
   <g id="text_15">
    <!-- SARIMA(1,1,1)(1,1,1,12): training_data Residuals Over Time -->
    <g transform="translate(269.260938 19.44) scale(0.12 -0.12)">
     <defs>
      <path id="DejaVuSans-53" d="M 3425 4513 
L 3425 3897 
Q 3066 4069 2747 4153 
Q 2428 4238 2131 4238 
Q 1616 4238 1336 4038 
Q 1056 3838 1056 3469 
Q 1056 3159 1242 3001 
Q 1428 2844 1947 2747 
L 2328 2669 
Q 3034 2534 3370 2195 
Q 3706 1856 3706 1288 
Q 3706 609 3251 259 
Q 2797 -91 1919 -91 
Q 1588 -91 1214 -16 
Q 841 59 441 206 
L 441 856 
Q 825 641 1194 531 
Q 1563 422 1919 422 
Q 2459 422 2753 634 
Q 3047 847 3047 1241 
Q 3047 1584 2836 1778 
Q 2625 1972 2144 2069 
L 1759 2144 
Q 1053 2284 737 2584 
Q 422 2884 422 3419 
Q 422 4038 858 4394 
Q 1294 4750 2059 4750 
Q 2388 4750 2728 4690 
Q 3069 4631 3425 4513 
z
" transform="scale(0.015625)"/>
      <path id="DejaVuSans-41" d="M 2188 4044 
L 1331 1722 
L 3047 1722 
L 2188 4044 
z
M 1831 4666 
L 2547 4666 
L 4325 0 
L 3669 0 
L 3244 1197 
L 1141 1197 
L 716 0 
L 50 0 
L 1831 4666 
z
" transform="scale(0.015625)"/>
      <path id="DejaVuSans-49" d="M 628 4666 
L 1259 4666 
L 1259 0 
L 628 0 
L 628 4666 
z
" transform="scale(0.015625)"/>
      <path id="DejaVuSans-4d" d="M 628 4666 
L 1569 4666 
L 2759 1491 
L 3956 4666 
L 4897 4666 
L 4897 0 
L 4281 0 
L 4281 4097 
L 3078 897 
L 2444 897 
L 1241 4097 
L 1241 0 
L 628 0 
L 628 4666 
z
" transform="scale(0.015625)"/>
      <path id="DejaVuSans-28" d="M 1984 4856 
Q 1566 4138 1362 3434 
Q 1159 2731 1159 2009 
Q 1159 1288 1364 580 
Q 1569 -128 1984 -844 
L 1484 -844 
Q 1016 -109 783 600 
Q 550 1309 550 2009 
Q 550 2706 781 3412 
Q 1013 4119 1484 4856 
L 1984 4856 
z
" transform="scale(0.015625)"/>
      <path id="DejaVuSans-2c" d="M 750 794 
L 1409 794 
L 1409 256 
L 897 -744 
L 494 -744 
L 750 256 
L 750 794 
z
" transform="scale(0.015625)"/>
      <path id="DejaVuSans-29" d="M 513 4856 
L 1013 4856 
Q 1481 4119 1714 3412 
Q 1947 2706 1947 2009 
Q 1947 1309 1714 600 
Q 1481 -109 1013 -844 
L 513 -844 
Q 928 -128 1133 580 
Q 1338 1288 1338 2009 
Q 1338 2731 1133 3434 
Q 928 4138 513 4856 
z
" transform="scale(0.015625)"/>
      <path id="DejaVuSans-3a" d="M 750 794 
L 1409 794 
L 1409 0 
L 750 0 
L 750 794 
z
M 750 3309 
L 1409 3309 
L 1409 2516 
L 750 2516 
L 750 3309 
z
" transform="scale(0.015625)"/>
      <path id="DejaVuSans-72" d="M 2631 2963 
Q 2534 3019 2420 3045 
Q 2306 3072 2169 3072 
Q 1681 3072 1420 2755 
Q 1159 2438 1159 1844 
L 1159 0 
L 581 0 
L 581 3500 
L 1159 3500 
L 1159 2956 
Q 1341 3275 1631 3429 
Q 1922 3584 2338 3584 
Q 2397 3584 2469 3576 
Q 2541 3569 2628 3553 
L 2631 2963 
z
" transform="scale(0.015625)"/>
      <path id="DejaVuSans-6e" d="M 3513 2113 
L 3513 0 
L 2938 0 
L 2938 2094 
Q 2938 2591 2744 2837 
Q 2550 3084 2163 3084 
Q 1697 3084 1428 2787 
Q 1159 2491 1159 1978 
L 1159 0 
L 581 0 
L 581 3500 
L 1159 3500 
L 1159 2956 
Q 1366 3272 1645 3428 
Q 1925 3584 2291 3584 
Q 2894 3584 3203 3211 
Q 3513 2838 3513 2113 
z
" transform="scale(0.015625)"/>
      <path id="DejaVuSans-67" d="M 2906 1791 
Q 2906 2416 2648 2759 
Q 2391 3103 1925 3103 
Q 1463 3103 1205 2759 
Q 947 2416 947 1791 
Q 947 1169 1205 825 
Q 1463 481 1925 481 
Q 2391 481 2648 825 
Q 2906 1169 2906 1791 
z
M 3481 434 
Q 3481 -459 3084 -895 
Q 2688 -1331 1869 -1331 
Q 1566 -1331 1297 -1286 
Q 1028 -1241 775 -1147 
L 775 -588 
Q 1028 -725 1275 -790 
Q 1522 -856 1778 -856 
Q 2344 -856 2625 -561 
Q 2906 -266 2906 331 
L 2906 616 
Q 2728 306 2450 153 
Q 2172 0 1784 0 
Q 1141 0 747 490 
Q 353 981 353 1791 
Q 353 2603 747 3093 
Q 1141 3584 1784 3584 
Q 2172 3584 2450 3431 
Q 2728 3278 2906 2969 
L 2906 3500 
L 3481 3500 
L 3481 434 
z
" transform="scale(0.015625)"/>
      <path id="DejaVuSans-5f" d="M 3263 -1063 
L 3263 -1509 
L -63 -1509 
L -63 -1063 
L 3263 -1063 
z
" transform="scale(0.015625)"/>
      <path id="DejaVuSans-4f" d="M 2522 4238 
Q 1834 4238 1429 3725 
Q 1025 3213 1025 2328 
Q 1025 1447 1429 934 
Q 1834 422 2522 422 
Q 3209 422 3611 934 
Q 4013 1447 4013 2328 
Q 4013 3213 3611 3725 
Q 3209 4238 2522 4238 
z
M 2522 4750 
Q 3503 4750 4090 4092 
Q 4678 3434 4678 2328 
Q 4678 1225 4090 567 
Q 3503 -91 2522 -91 
Q 1538 -91 948 565 
Q 359 1222 359 2328 
Q 359 3434 948 4092 
Q 1538 4750 2522 4750 
z
" transform="scale(0.015625)"/>
      <path id="DejaVuSans-76" d="M 191 3500 
L 800 3500 
L 1894 563 
L 2988 3500 
L 3597 3500 
L 2284 0 
L 1503 0 
L 191 3500 
z
" transform="scale(0.015625)"/>
      <path id="DejaVuSans-54" d="M -19 4666 
L 3928 4666 
L 3928 4134 
L 2272 4134 
L 2272 0 
L 1638 0 
L 1638 4134 
L -19 4134 
L -19 4666 
z
" transform="scale(0.015625)"/>
     </defs>
     <use xlink:href="#DejaVuSans-53"/>
     <use xlink:href="#DejaVuSans-41" transform="translate(65.351562 0)"/>
     <use xlink:href="#DejaVuSans-52" transform="translate(133.759766 0)"/>
     <use xlink:href="#DejaVuSans-49" transform="translate(203.242188 0)"/>
     <use xlink:href="#DejaVuSans-4d" transform="translate(232.734375 0)"/>
     <use xlink:href="#DejaVuSans-41" transform="translate(319.013672 0)"/>
     <use xlink:href="#DejaVuSans-28" transform="translate(387.421875 0)"/>
     <use xlink:href="#DejaVuSans-31" transform="translate(426.435547 0)"/>
     <use xlink:href="#DejaVuSans-2c" transform="translate(490.058594 0)"/>
     <use xlink:href="#DejaVuSans-31" transform="translate(521.845703 0)"/>
     <use xlink:href="#DejaVuSans-2c" transform="translate(585.46875 0)"/>
     <use xlink:href="#DejaVuSans-31" transform="translate(617.255859 0)"/>
     <use xlink:href="#DejaVuSans-29" transform="translate(680.878906 0)"/>
     <use xlink:href="#DejaVuSans-28" transform="translate(719.892578 0)"/>
     <use xlink:href="#DejaVuSans-31" transform="translate(758.90625 0)"/>
     <use xlink:href="#DejaVuSans-2c" transform="translate(822.529297 0)"/>
     <use xlink:href="#DejaVuSans-31" transform="translate(854.316406 0)"/>
     <use xlink:href="#DejaVuSans-2c" transform="translate(917.939453 0)"/>
     <use xlink:href="#DejaVuSans-31" transform="translate(949.726562 0)"/>
     <use xlink:href="#DejaVuSans-2c" transform="translate(1013.349609 0)"/>
     <use xlink:href="#DejaVuSans-31" transform="translate(1045.136719 0)"/>
     <use xlink:href="#DejaVuSans-32" transform="translate(1108.759766 0)"/>
     <use xlink:href="#DejaVuSans-29" transform="translate(1172.382812 0)"/>
     <use xlink:href="#DejaVuSans-3a" transform="translate(1211.396484 0)"/>
     <use xlink:href="#DejaVuSans-20" transform="translate(1245.087891 0)"/>
     <use xlink:href="#DejaVuSans-74" transform="translate(1276.875 0)"/>
     <use xlink:href="#DejaVuSans-72" transform="translate(1316.083984 0)"/>
     <use xlink:href="#DejaVuSans-61" transform="translate(1357.197266 0)"/>
     <use xlink:href="#DejaVuSans-69" transform="translate(1418.476562 0)"/>
     <use xlink:href="#DejaVuSans-6e" transform="translate(1446.259766 0)"/>
     <use xlink:href="#DejaVuSans-69" transform="translate(1509.638672 0)"/>
     <use xlink:href="#DejaVuSans-6e" transform="translate(1537.421875 0)"/>
     <use xlink:href="#DejaVuSans-67" transform="translate(1600.800781 0)"/>
     <use xlink:href="#DejaVuSans-5f" transform="translate(1664.277344 0)"/>
     <use xlink:href="#DejaVuSans-64" transform="translate(1714.277344 0)"/>
     <use xlink:href="#DejaVuSans-61" transform="translate(1777.753906 0)"/>
     <use xlink:href="#DejaVuSans-74" transform="translate(1839.033203 0)"/>
     <use xlink:href="#DejaVuSans-61" transform="translate(1878.242188 0)"/>
     <use xlink:href="#DejaVuSans-20" transform="translate(1939.521484 0)"/>
     <use xlink:href="#DejaVuSans-52" transform="translate(1971.308594 0)"/>
     <use xlink:href="#DejaVuSans-65" transform="translate(2036.291016 0)"/>
     <use xlink:href="#DejaVuSans-73" transform="translate(2097.814453 0)"/>
     <use xlink:href="#DejaVuSans-69" transform="translate(2149.914062 0)"/>
     <use xlink:href="#DejaVuSans-64" transform="translate(2177.697266 0)"/>
     <use xlink:href="#DejaVuSans-75" transform="translate(2241.173828 0)"/>
     <use xlink:href="#DejaVuSans-61" transform="translate(2304.552734 0)"/>
     <use xlink:href="#DejaVuSans-6c" transform="translate(2365.832031 0)"/>
     <use xlink:href="#DejaVuSans-73" transform="translate(2393.615234 0)"/>
     <use xlink:href="#DejaVuSans-20" transform="translate(2445.714844 0)"/>
     <use xlink:href="#DejaVuSans-4f" transform="translate(2477.501953 0)"/>
     <use xlink:href="#DejaVuSans-76" transform="translate(2556.212891 0)"/>
     <use xlink:href="#DejaVuSans-65" transform="translate(2615.392578 0)"/>
     <use xlink:href="#DejaVuSans-72" transform="translate(2676.916016 0)"/>
     <use xlink:href="#DejaVuSans-20" transform="translate(2718.029297 0)"/>
     <use xlink:href="#DejaVuSans-54" transform="translate(2749.816406 0)"/>
     <use xlink:href="#DejaVuSans-69" transform="translate(2807.775391 0)"/>
     <use xlink:href="#DejaVuSans-6d" transform="translate(2835.558594 0)"/>
     <use xlink:href="#DejaVuSans-65" transform="translate(2932.970703 0)"/>
    </g>
   </g>
   <g id="legend_1">
    <g id="patch_7">
     <path d="M 748.395313 62.79625 
L 846.2 62.79625 
Q 848.2 62.79625 848.2 60.79625 
L 848.2 32.44 
Q 848.2 30.44 846.2 30.44 
L 748.395313 30.44 
Q 746.395313 30.44 746.395313 32.44 
L 746.395313 60.79625 
Q 746.395313 62.79625 748.395313 62.79625 
z
" style="fill: #ffffff; opacity: 0.8; stroke: #cccccc; stroke-linejoin: miter"/>
    </g>
    <g id="line2d_27">
     <path d="M 750.395313 38.538437 
L 760.395313 38.538437 
L 770.395313 38.538437 
" style="fill: none; stroke-dasharray: 5.55,2.4; stroke-dashoffset: 0; stroke: #808080; stroke-width: 1.5"/>
    </g>
    <g id="text_16">
     <!-- Zero residual -->
     <g transform="translate(778.395313 42.038437) scale(0.1 -0.1)">
      <defs>
       <path id="DejaVuSans-5a" d="M 359 4666 
L 4025 4666 
L 4025 4184 
L 1075 531 
L 4097 531 
L 4097 0 
L 288 0 
L 288 481 
L 3238 4134 
L 359 4134 
L 359 4666 
z
" transform="scale(0.015625)"/>
       <path id="DejaVuSans-6f" d="M 1959 3097 
Q 1497 3097 1228 2736 
Q 959 2375 959 1747 
Q 959 1119 1226 758 
Q 1494 397 1959 397 
Q 2419 397 2687 759 
Q 2956 1122 2956 1747 
Q 2956 2369 2687 2733 
Q 2419 3097 1959 3097 
z
M 1959 3584 
Q 2709 3584 3137 3096 
Q 3566 2609 3566 1747 
Q 3566 888 3137 398 
Q 2709 -91 1959 -91 
Q 1206 -91 779 398 
Q 353 888 353 1747 
Q 353 2609 779 3096 
Q 1206 3584 1959 3584 
z
" transform="scale(0.015625)"/>
      </defs>
      <use xlink:href="#DejaVuSans-5a"/>
      <use xlink:href="#DejaVuSans-65" transform="translate(68.505859 0)"/>
      <use xlink:href="#DejaVuSans-72" transform="translate(130.029297 0)"/>
      <use xlink:href="#DejaVuSans-6f" transform="translate(168.892578 0)"/>
      <use xlink:href="#DejaVuSans-20" transform="translate(230.074219 0)"/>
      <use xlink:href="#DejaVuSans-72" transform="translate(261.861328 0)"/>
      <use xlink:href="#DejaVuSans-65" transform="translate(300.724609 0)"/>
      <use xlink:href="#DejaVuSans-73" transform="translate(362.248047 0)"/>
      <use xlink:href="#DejaVuSans-69" transform="translate(414.347656 0)"/>
      <use xlink:href="#DejaVuSans-64" transform="translate(442.130859 0)"/>
      <use xlink:href="#DejaVuSans-75" transform="translate(505.607422 0)"/>
      <use xlink:href="#DejaVuSans-61" transform="translate(568.986328 0)"/>
      <use xlink:href="#DejaVuSans-6c" transform="translate(630.265625 0)"/>
     </g>
    </g>
    <g id="line2d_28">
     <path d="M 750.395313 53.216563 
L 760.395313 53.216563 
L 770.395313 53.216563 
" style="fill: none; stroke: #1f77b4; stroke-width: 1.5; stroke-linecap: square"/>
    </g>
    <g id="text_17">
     <!-- Residuals -->
     <g transform="translate(778.395313 56.716563) scale(0.1 -0.1)">
      <use xlink:href="#DejaVuSans-52"/>
      <use xlink:href="#DejaVuSans-65" transform="translate(64.982422 0)"/>
      <use xlink:href="#DejaVuSans-73" transform="translate(126.505859 0)"/>
      <use xlink:href="#DejaVuSans-69" transform="translate(178.605469 0)"/>
      <use xlink:href="#DejaVuSans-64" transform="translate(206.388672 0)"/>
      <use xlink:href="#DejaVuSans-75" transform="translate(269.865234 0)"/>
      <use xlink:href="#DejaVuSans-61" transform="translate(333.244141 0)"/>
      <use xlink:href="#DejaVuSans-6c" transform="translate(394.523438 0)"/>
      <use xlink:href="#DejaVuSans-73" transform="translate(422.306641 0)"/>
     </g>
    </g>
   </g>
  </g>
 </g>
 <defs>
  <clipPath id="p72f9ff5f73">
   <rect x="44.66" y="25.44" width="808.54" height="292.6"/>
  </clipPath>
 </defs>
</svg>
