<?xml version="1.0" encoding="utf-8" standalone="no"?>
<!DOCTYPE svg PUBLIC "-//W3C//DTD SVG 1.1//EN"
  "http://www.w3.org/Graphics/SVG/1.1/DTD/svg11.dtd">
<svg xmlns:xlink="http://www.w3.org/1999/xlink" width="936pt" height="504pt" viewBox="0 0 936 504" xmlns="http://www.w3.org/2000/svg" version="1.1">
 <metadata>
  <rdf:RDF xmlns:dc="http://purl.org/dc/elements/1.1/" xmlns:cc="http://creativecommons.org/ns#" xmlns:rdf="http://www.w3.org/1999/02/22-rdf-syntax-ns#">
   <cc:Work>
    <dc:type rdf:resource="http://purl.org/dc/dcmitype/StillImage"/>
    <dc:date>2026-07-08T14:34:08.765018</dc:date>
    <dc:format>image/svg+xml</dc:format>
    <dc:creator>
     <cc:Agent>
      <dc:title>Matplotlib v3.10.0, https://matplotlib.org/</dc:title>
     </cc:Agent>
    </dc:creator>
   </cc:Work>
  </rdf:RDF>
 </metadata>
 <defs>
  <style type="text/css">*{stroke-linejoin: round; stroke-linecap: butt}</style>
 </defs>
 <g id="figure_1">
  <g id="patch_1">
   <path d="M 0 504 
L 936 504 
L 936 0 
L 0 0 
z
" style="fill: #ffffff"/>
  </g>
  <g id="axes_1">
   <g id="patch_2">
    <path d="M 51.05 462.04 
L 925.2 462.04 
L 925.2 25.44 
L 51.05 25.44 
z
" style="fill: #ffffff"/>
   </g>
   <g id="matplotlib.axis_1">
    <g id="xtick_1">
     <g id="line2d_1">
      <path d="M 103.60154 462.04 
L 103.60154 25.44 
" clip-path="url(#pb6604a644d)" style="fill: none; stroke: #b0b0b0; stroke-opacity: 0.35; stroke-width: 0.8; stroke-linecap: square"/>
     </g>
     <g id="line2d_2">
      <defs>
       <path id="m04ab461c44" d="M 0 0 
L 0 3.5 
" style="stroke: #000000; stroke-width: 0.8"/>
      </defs>
      <g>
       <use xlink:href="#m04ab461c44" x="103.60154" y="462.04" style="stroke: #000000; stroke-width: 0.8"/>
      </g>
     </g>
     <g id="text_1">
      <!-- 1960 -->
      <g transform="translate(90.87654 476.638438) scale(0.1 -0.1)">
       <defs>
        <path id="DejaVuSans-31" d="M 794 531 
L 1825 531 
L 1825 4091 
L 703 3866 
L 703 4441 
L 1819 4666 
L 2450 4666 
L 2450 531 
L 3481 531 
L 3481 0 
L 794 0 
L 794 531 
z
" transform="scale(0.015625)"/>
        <path id="DejaVuSans-39" d="M 703 97 
L 703 672 
Q 941 559 1184 500 
Q 1428 441 1663 441 
Q 2288 441 2617 861 
Q 2947 1281 2994 2138 
Q 2813 1869 2534 1725 
Q 2256 1581 1919 1581 
Q 1219 1581 811 2004 
Q 403 2428 403 3163 
Q 403 3881 828 4315 
Q 1253 4750 1959 4750 
Q 2769 4750 3195 4129 
Q 3622 3509 3622 2328 
Q 3622 1225 3098 567 
Q 2575 -91 1691 -91 
Q 1453 -91 1209 -44 
Q 966 3 703 97 
z
M 1959 2075 
Q 2384 2075 2632 2365 
Q 2881 2656 2881 3163 
Q 2881 3666 2632 3958 
Q 2384 4250 1959 4250 
Q 1534 4250 1286 3958 
Q 1038 3666 1038 3163 
Q 1038 2656 1286 2365 
Q 1534 2075 1959 2075 
z
" transform="scale(0.015625)"/>
        <path id="DejaVuSans-36" d="M 2113 2584 
Q 1688 2584 1439 2293 
Q 1191 2003 1191 1497 
Q 1191 994 1439 701 
Q 1688 409 2113 409 
Q 2538 409 2786 701 
Q 3034 994 3034 1497 
Q 3034 2003 2786 2293 
Q 2538 2584 2113 2584 
z
M 3366 4563 
L 3366 3988 
Q 3128 4100 2886 4159 
Q 2644 4219 2406 4219 
Q 1781 4219 1451 3797 
Q 1122 3375 1075 2522 
Q 1259 2794 1537 2939 
Q 1816 3084 2150 3084 
Q 2853 3084 3261 2657 
Q 3669 2231 3669 1497 
Q 3669 778 3244 343 
Q 2819 -91 2113 -91 
Q 1303 -91 875 529 
Q 447 1150 447 2328 
Q 447 3434 972 4092 
Q 1497 4750 2381 4750 
Q 2619 4750 2861 4703 
Q 3103 4656 3366 4563 
z
" transform="scale(0.015625)"/>
        <path id="DejaVuSans-30" d="M 2034 4250 
Q 1547 4250 1301 3770 
Q 1056 3291 1056 2328 
Q 1056 1369 1301 889 
Q 1547 409 2034 409 
Q 2525 409 2770 889 
Q 3016 1369 3016 2328 
Q 3016 3291 2770 3770 
Q 2525 4250 2034 4250 
z
M 2034 4750 
Q 2819 4750 3233 4129 
Q 3647 3509 3647 2328 
Q 3647 1150 3233 529 
Q 2819 -91 2034 -91 
Q 1250 -91 836 529 
Q 422 1150 422 2328 
Q 422 3509 836 4129 
Q 1250 4750 2034 4750 
z
" transform="scale(0.015625)"/>
       </defs>
       <use xlink:href="#DejaVuSans-31"/>
       <use xlink:href="#DejaVuSans-39" transform="translate(63.623047 0)"/>
       <use xlink:href="#DejaVuSans-36" transform="translate(127.246094 0)"/>
       <use xlink:href="#DejaVuSans-30" transform="translate(190.869141 0)"/>
      </g>
     </g>
    </g>
    <g id="xtick_2">
     <g id="line2d_3">
      <path d="M 231.776026 462.04 
L 231.776026 25.44 
" clip-path="url(#pb6604a644d)" style="fill: none; stroke: #b0b0b0; stroke-opacity: 0.35; stroke-width: 0.8; stroke-linecap: square"/>
     </g>
     <g id="line2d_4">
      <g>
       <use xlink:href="#m04ab461c44" x="231.776026" y="462.04" style="stroke: #000000; stroke-width: 0.8"/>
      </g>
     </g>
     <g id="text_2">
      <!-- 1970 -->
      <g transform="translate(219.051026 476.638438) scale(0.1 -0.1)">
       <defs>
        <path id="DejaVuSans-37" d="M 525 4666 
L 3525 4666 
L 3525 4397 
L 1831 0 
L 1172 0 
L 2766 4134 
L 525 4134 
L 525 4666 
z
" transform="scale(0.015625)"/>
       </defs>
       <use xlink:href="#DejaVuSans-31"/>
       <use xlink:href="#DejaVuSans-39" transform="translate(63.623047 0)"/>
       <use xlink:href="#DejaVuSans-37" transform="translate(127.246094 0)"/>
       <use xlink:href="#DejaVuSans-30" transform="translate(190.869141 0)"/>
      </g>
     </g>
    </g>
    <g id="xtick_3">
     <g id="line2d_5">
      <path d="M 359.950513 462.04 
L 359.950513 25.44 
" clip-path="url(#pb6604a644d)" style="fill: none; stroke: #b0b0b0; stroke-opacity: 0.35; stroke-width: 0.8; stroke-linecap: square"/>
     </g>
     <g id="line2d_6">
      <g>
       <use xlink:href="#m04ab461c44" x="359.950513" y="462.04" style="stroke: #000000; stroke-width: 0.8"/>
      </g>
     </g>
     <g id="text_3">
      <!-- 1980 -->
      <g transform="translate(347.225513 476.638438) scale(0.1 -0.1)">
       <defs>
        <path id="DejaVuSans-38" d="M 2034 2216 
Q 1584 2216 1326 1975 
Q 1069 1734 1069 1313 
Q 1069 891 1326 650 
Q 1584 409 2034 409 
Q 2484 409 2743 651 
Q 3003 894 3003 1313 
Q 3003 1734 2745 1975 
Q 2488 2216 2034 2216 
z
M 1403 2484 
Q 997 2584 770 2862 
Q 544 3141 544 3541 
Q 544 4100 942 4425 
Q 1341 4750 2034 4750 
Q 2731 4750 3128 4425 
Q 3525 4100 3525 3541 
Q 3525 3141 3298 2862 
Q 3072 2584 2669 2484 
Q 3125 2378 3379 2068 
Q 3634 1759 3634 1313 
Q 3634 634 3220 271 
Q 2806 -91 2034 -91 
Q 1263 -91 848 271 
Q 434 634 434 1313 
Q 434 1759 690 2068 
Q 947 2378 1403 2484 
z
M 1172 3481 
Q 1172 3119 1398 2916 
Q 1625 2713 2034 2713 
Q 2441 2713 2670 2916 
Q 2900 3119 2900 3481 
Q 2900 3844 2670 4047 
Q 2441 4250 2034 4250 
Q 1625 4250 1398 4047 
Q 1172 3844 1172 3481 
z
" transform="scale(0.015625)"/>
       </defs>
       <use xlink:href="#DejaVuSans-31"/>
       <use xlink:href="#DejaVuSans-39" transform="translate(63.623047 0)"/>
       <use xlink:href="#DejaVuSans-38" transform="translate(127.246094 0)"/>
       <use xlink:href="#DejaVuSans-30" transform="translate(190.869141 0)"/>
      </g>
     </g>
    </g>
    <g id="xtick_4">
     <g id="line2d_7">
      <path d="M 488.125 462.04 
L 488.125 25.44 
" clip-path="url(#pb6604a644d)" style="fill: none; stroke: #b0b0b0; stroke-opacity: 0.35; stroke-width: 0.8; stroke-linecap: square"/>
     </g>
     <g id="line2d_8">
      <g>
       <use xlink:href="#m04ab461c44" x="488.125" y="462.04" style="stroke: #000000; stroke-width: 0.8"/>
      </g>
     </g>
     <g id="text_4">
      <!-- 1990 -->
      <g transform="translate(475.4 476.638438) scale(0.1 -0.1)">
       <use xlink:href="#DejaVuSans-31"/>
       <use xlink:href="#DejaVuSans-39" transform="translate(63.623047 0)"/>
       <use xlink:href="#DejaVuSans-39" transform="translate(127.246094 0)"/>
       <use xlink:href="#DejaVuSans-30" transform="translate(190.869141 0)"/>
      </g>
     </g>
    </g>
    <g id="xtick_5">
     <g id="line2d_9">
      <path d="M 616.299487 462.04 
L 616.299487 25.44 
" clip-path="url(#pb6604a644d)" style="fill: none; stroke: #b0b0b0; stroke-opacity: 0.35; stroke-width: 0.8; stroke-linecap: square"/>
     </g>
     <g id="line2d_10">
      <g>
       <use xlink:href="#m04ab461c44" x="616.299487" y="462.04" style="stroke: #000000; stroke-width: 0.8"/>
      </g>
     </g>
     <g id="text_5">
      <!-- 2000 -->
      <g transform="translate(603.574487 476.638438) scale(0.1 -0.1)">
       <defs>
        <path id="DejaVuSans-32" d="M 1228 531 
L 3431 531 
L 3431 0 
L 469 0 
L 469 531 
Q 828 903 1448 1529 
Q 2069 2156 2228 2338 
Q 2531 2678 2651 2914 
Q 2772 3150 2772 3378 
Q 2772 3750 2511 3984 
Q 2250 4219 1831 4219 
Q 1534 4219 1204 4116 
Q 875 4013 500 3803 
L 500 4441 
Q 881 4594 1212 4672 
Q 1544 4750 1819 4750 
Q 2544 4750 2975 4387 
Q 3406 4025 3406 3419 
Q 3406 3131 3298 2873 
Q 3191 2616 2906 2266 
Q 2828 2175 2409 1742 
Q 1991 1309 1228 531 
z
" transform="scale(0.015625)"/>
       </defs>
       <use xlink:href="#DejaVuSans-32"/>
       <use xlink:href="#DejaVuSans-30" transform="translate(63.623047 0)"/>
       <use xlink:href="#DejaVuSans-30" transform="translate(127.246094 0)"/>
       <use xlink:href="#DejaVuSans-30" transform="translate(190.869141 0)"/>
      </g>
     </g>
    </g>
    <g id="xtick_6">
     <g id="line2d_11">
      <path d="M 744.473974 462.04 
L 744.473974 25.44 
" clip-path="url(#pb6604a644d)" style="fill: none; stroke: #b0b0b0; stroke-opacity: 0.35; stroke-width: 0.8; stroke-linecap: square"/>
     </g>
     <g id="line2d_12">
      <g>
       <use xlink:href="#m04ab461c44" x="744.473974" y="462.04" style="stroke: #000000; stroke-width: 0.8"/>
      </g>
     </g>
     <g id="text_6">
      <!-- 2010 -->
      <g transform="translate(731.748974 476.638438) scale(0.1 -0.1)">
       <use xlink:href="#DejaVuSans-32"/>
       <use xlink:href="#DejaVuSans-30" transform="translate(63.623047 0)"/>
       <use xlink:href="#DejaVuSans-31" transform="translate(127.246094 0)"/>
       <use xlink:href="#DejaVuSans-30" transform="translate(190.869141 0)"/>
      </g>
     </g>
    </g>
    <g id="xtick_7">
     <g id="line2d_13">
      <path d="M 872.64846 462.04 
L 872.64846 25.44 
" clip-path="url(#pb6604a644d)" style="fill: none; stroke: #b0b0b0; stroke-opacity: 0.35; stroke-width: 0.8; stroke-linecap: square"/>
     </g>
     <g id="line2d_14">
      <g>
       <use xlink:href="#m04ab461c44" x="872.64846" y="462.04" style="stroke: #000000; stroke-width: 0.8"/>
      </g>
     </g>
     <g id="text_7">
      <!-- 2020 -->
      <g transform="translate(859.92346 476.638438) scale(0.1 -0.1)">
       <use xlink:href="#DejaVuSans-32"/>
       <use xlink:href="#DejaVuSans-30" transform="translate(63.623047 0)"/>
       <use xlink:href="#DejaVuSans-32" transform="translate(127.246094 0)"/>
       <use xlink:href="#DejaVuSans-30" transform="translate(190.869141 0)"/>
      </g>
     </g>
    </g>
    <g id="text_8">
     <!-- Year -->
     <g transform="translate(477.5375 490.316563) scale(0.1 -0.1)">
      <defs>
       <path id="DejaVuSans-59" d="M -13 4666 
L 666 4666 
L 1959 2747 
L 3244 4666 
L 3922 4666 
L 2272 2222 
L 2272 0 
L 1638 0 
L 1638 2222 
L -13 4666 
z
" transform="scale(0.015625)"/>
       <path id="DejaVuSans-65" d="M 3597 1894 
L 3597 1613 
L 953 1613 
Q 991 1019 1311 708 
Q 1631 397 2203 397 
Q 2534 397 2845 478 
Q 3156 559 3463 722 
L 3463 178 
Q 3153 47 2828 -22 
Q 2503 -91 2169 -91 
Q 1331 -91 842 396 
Q 353 884 353 1716 
Q 353 2575 817 3079 
Q 1281 3584 2069 3584 
Q 2775 3584 3186 3129 
Q 3597 2675 3597 1894 
z
M 3022 2063 
Q 3016 2534 2758 2815 
Q 2500 3097 2075 3097 
Q 1594 3097 1305 2825 
Q 1016 2553 972 2059 
L 3022 2063 
z
" transform="scale(0.015625)"/>
       <path id="DejaVuSans-61" d="M 2194 1759 
Q 1497 1759 1228 1600 
Q 959 1441 959 1056 
Q 959 750 1161 570 
Q 1363 391 1709 391 
Q 2188 391 2477 730 
Q 2766 1069 2766 1631 
L 2766 1759 
L 2194 1759 
z
M 3341 1997 
L 3341 0 
L 2766 0 
L 2766 531 
Q 2569 213 2275 61 
Q 1981 -91 1556 -91 
Q 1019 -91 701 211 
Q 384 513 384 1019 
Q 384 1609 779 1909 
Q 1175 2209 1959 2209 
L 2766 2209 
L 2766 2266 
Q 2766 2663 2505 2880 
Q 2244 3097 1772 3097 
Q 1472 3097 1187 3025 
Q 903 2953 641 2809 
L 641 3341 
Q 956 3463 1253 3523 
Q 1550 3584 1831 3584 
Q 2591 3584 2966 3190 
Q 3341 2797 3341 1997 
z
" transform="scale(0.015625)"/>
       <path id="DejaVuSans-72" d="M 2631 2963 
Q 2534 3019 2420 3045 
Q 2306 3072 2169 3072 
Q 1681 3072 1420 2755 
Q 1159 2438 1159 1844 
L 1159 0 
L 581 0 
L 581 3500 
L 1159 3500 
L 1159 2956 
Q 1341 3275 1631 3429 
Q 1922 3584 2338 3584 
Q 2397 3584 2469 3576 
Q 2541 3569 2628 3553 
L 2631 2963 
z
" transform="scale(0.015625)"/>
      </defs>
      <use xlink:href="#DejaVuSans-59"/>
      <use xlink:href="#DejaVuSans-65" transform="translate(47.833984 0)"/>
      <use xlink:href="#DejaVuSans-61" transform="translate(109.357422 0)"/>
      <use xlink:href="#DejaVuSans-72" transform="translate(170.636719 0)"/>
     </g>
    </g>
   </g>
   <g id="matplotlib.axis_2">
    <g id="ytick_1">
     <g id="line2d_15">
      <path d="M 51.05 423.141715 
L 925.2 423.141715 
" clip-path="url(#pb6604a644d)" style="fill: none; stroke: #b0b0b0; stroke-opacity: 0.35; stroke-width: 0.8; stroke-linecap: square"/>
     </g>
     <g id="line2d_16">
      <defs>
       <path id="m8d7386d484" d="M 0 0 
L -3.5 0 
" style="stroke: #000000; stroke-width: 0.8"/>
      </defs>
      <g>
       <use xlink:href="#m8d7386d484" x="51.05" y="423.141715" style="stroke: #000000; stroke-width: 0.8"/>
      </g>
     </g>
     <g id="text_9">
      <!-- 320 -->
      <g transform="translate(24.9625 426.940934) scale(0.1 -0.1)">
       <defs>
        <path id="DejaVuSans-33" d="M 2597 2516 
Q 3050 2419 3304 2112 
Q 3559 1806 3559 1356 
Q 3559 666 3084 287 
Q 2609 -91 1734 -91 
Q 1441 -91 1130 -33 
Q 819 25 488 141 
L 488 750 
Q 750 597 1062 519 
Q 1375 441 1716 441 
Q 2309 441 2620 675 
Q 2931 909 2931 1356 
Q 2931 1769 2642 2001 
Q 2353 2234 1838 2234 
L 1294 2234 
L 1294 2753 
L 1863 2753 
Q 2328 2753 2575 2939 
Q 2822 3125 2822 3475 
Q 2822 3834 2567 4026 
Q 2313 4219 1838 4219 
Q 1578 4219 1281 4162 
Q 984 4106 628 3988 
L 628 4550 
Q 988 4650 1302 4700 
Q 1616 4750 1894 4750 
Q 2613 4750 3031 4423 
Q 3450 4097 3450 3541 
Q 3450 3153 3228 2886 
Q 3006 2619 2597 2516 
z
" transform="scale(0.015625)"/>
       </defs>
       <use xlink:href="#DejaVuSans-33"/>
       <use xlink:href="#DejaVuSans-32" transform="translate(63.623047 0)"/>
       <use xlink:href="#DejaVuSans-30" transform="translate(127.246094 0)"/>
      </g>
     </g>
    </g>
    <g id="ytick_2">
     <g id="line2d_17">
      <path d="M 51.05 344.798018 
L 925.2 344.798018 
" clip-path="url(#pb6604a644d)" style="fill: none; stroke: #b0b0b0; stroke-opacity: 0.35; stroke-width: 0.8; stroke-linecap: square"/>
     </g>
     <g id="line2d_18">
      <g>
       <use xlink:href="#m8d7386d484" x="51.05" y="344.798018" style="stroke: #000000; stroke-width: 0.8"/>
      </g>
     </g>
     <g id="text_10">
      <!-- 340 -->
      <g transform="translate(24.9625 348.597236) scale(0.1 -0.1)">
       <defs>
        <path id="DejaVuSans-34" d="M 2419 4116 
L 825 1625 
L 2419 1625 
L 2419 4116 
z
M 2253 4666 
L 3047 4666 
L 3047 1625 
L 3713 1625 
L 3713 1100 
L 3047 1100 
L 3047 0 
L 2419 0 
L 2419 1100 
L 313 1100 
L 313 1709 
L 2253 4666 
z
" transform="scale(0.015625)"/>
       </defs>
       <use xlink:href="#DejaVuSans-33"/>
       <use xlink:href="#DejaVuSans-34" transform="translate(63.623047 0)"/>
       <use xlink:href="#DejaVuSans-30" transform="translate(127.246094 0)"/>
      </g>
     </g>
    </g>
    <g id="ytick_3">
     <g id="line2d_19">
      <path d="M 51.05 266.45432 
L 925.2 266.45432 
" clip-path="url(#pb6604a644d)" style="fill: none; stroke: #b0b0b0; stroke-opacity: 0.35; stroke-width: 0.8; stroke-linecap: square"/>
     </g>
     <g id="line2d_20">
      <g>
       <use xlink:href="#m8d7386d484" x="51.05" y="266.45432" style="stroke: #000000; stroke-width: 0.8"/>
      </g>
     </g>
     <g id="text_11">
      <!-- 360 -->
      <g transform="translate(24.9625 270.253539) scale(0.1 -0.1)">
       <use xlink:href="#DejaVuSans-33"/>
       <use xlink:href="#DejaVuSans-36" transform="translate(63.623047 0)"/>
       <use xlink:href="#DejaVuSans-30" transform="translate(127.246094 0)"/>
      </g>
     </g>
    </g>
    <g id="ytick_4">
     <g id="line2d_21">
      <path d="M 51.05 188.110622 
L 925.2 188.110622 
" clip-path="url(#pb6604a644d)" style="fill: none; stroke: #b0b0b0; stroke-opacity: 0.35; stroke-width: 0.8; stroke-linecap: square"/>
     </g>
     <g id="line2d_22">
      <g>
       <use xlink:href="#m8d7386d484" x="51.05" y="188.110622" style="stroke: #000000; stroke-width: 0.8"/>
      </g>
     </g>
     <g id="text_12">
      <!-- 380 -->
      <g transform="translate(24.9625 191.909841) scale(0.1 -0.1)">
       <use xlink:href="#DejaVuSans-33"/>
       <use xlink:href="#DejaVuSans-38" transform="translate(63.623047 0)"/>
       <use xlink:href="#DejaVuSans-30" transform="translate(127.246094 0)"/>
      </g>
     </g>
    </g>
    <g id="ytick_5">
     <g id="line2d_23">
      <path d="M 51.05 109.766925 
L 925.2 109.766925 
" clip-path="url(#pb6604a644d)" style="fill: none; stroke: #b0b0b0; stroke-opacity: 0.35; stroke-width: 0.8; stroke-linecap: square"/>
     </g>
     <g id="line2d_24">
      <g>
       <use xlink:href="#m8d7386d484" x="51.05" y="109.766925" style="stroke: #000000; stroke-width: 0.8"/>
      </g>
     </g>
     <g id="text_13">
      <!-- 400 -->
      <g transform="translate(24.9625 113.566144) scale(0.1 -0.1)">
       <use xlink:href="#DejaVuSans-34"/>
       <use xlink:href="#DejaVuSans-30" transform="translate(63.623047 0)"/>
       <use xlink:href="#DejaVuSans-30" transform="translate(127.246094 0)"/>
      </g>
     </g>
    </g>
    <g id="ytick_6">
     <g id="line2d_25">
      <path d="M 51.05 31.423227 
L 925.2 31.423227 
" clip-path="url(#pb6604a644d)" style="fill: none; stroke: #b0b0b0; stroke-opacity: 0.35; stroke-width: 0.8; stroke-linecap: square"/>
     </g>
     <g id="line2d_26">
      <g>
       <use xlink:href="#m8d7386d484" x="51.05" y="31.423227" style="stroke: #000000; stroke-width: 0.8"/>
      </g>
     </g>
     <g id="text_14">
      <!-- 420 -->
      <g transform="translate(24.9625 35.222446) scale(0.1 -0.1)">
       <use xlink:href="#DejaVuSans-34"/>
       <use xlink:href="#DejaVuSans-32" transform="translate(63.623047 0)"/>
       <use xlink:href="#DejaVuSans-30" transform="translate(127.246094 0)"/>
      </g>
     </g>
    </g>
    <g id="text_15">
     <!-- CO2 concentration / ppm -->
     <g transform="translate(18.882812 306.647812) rotate(-90) scale(0.1 -0.1)">
      <defs>
       <path id="DejaVuSans-43" d="M 4122 4306 
L 4122 3641 
Q 3803 3938 3442 4084 
Q 3081 4231 2675 4231 
Q 1875 4231 1450 3742 
Q 1025 3253 1025 2328 
Q 1025 1406 1450 917 
Q 1875 428 2675 428 
Q 3081 428 3442 575 
Q 3803 722 4122 1019 
L 4122 359 
Q 3791 134 3420 21 
Q 3050 -91 2638 -91 
Q 1578 -91 968 557 
Q 359 1206 359 2328 
Q 359 3453 968 4101 
Q 1578 4750 2638 4750 
Q 3056 4750 3426 4639 
Q 3797 4528 4122 4306 
z
" transform="scale(0.015625)"/>
       <path id="DejaVuSans-4f" d="M 2522 4238 
Q 1834 4238 1429 3725 
Q 1025 3213 1025 2328 
Q 1025 1447 1429 934 
Q 1834 422 2522 422 
Q 3209 422 3611 934 
Q 4013 1447 4013 2328 
Q 4013 3213 3611 3725 
Q 3209 4238 2522 4238 
z
M 2522 4750 
Q 3503 4750 4090 4092 
Q 4678 3434 4678 2328 
Q 4678 1225 4090 567 
Q 3503 -91 2522 -91 
Q 1538 -91 948 565 
Q 359 1222 359 2328 
Q 359 3434 948 4092 
Q 1538 4750 2522 4750 
z
" transform="scale(0.015625)"/>
       <path id="DejaVuSans-20" transform="scale(0.015625)"/>
       <path id="DejaVuSans-63" d="M 3122 3366 
L 3122 2828 
Q 2878 2963 2633 3030 
Q 2388 3097 2138 3097 
Q 1578 3097 1268 2742 
Q 959 2388 959 1747 
Q 959 1106 1268 751 
Q 1578 397 2138 397 
Q 2388 397 2633 464 
Q 2878 531 3122 666 
L 3122 134 
Q 2881 22 2623 -34 
Q 2366 -91 2075 -91 
Q 1284 -91 818 406 
Q 353 903 353 1747 
Q 353 2603 823 3093 
Q 1294 3584 2113 3584 
Q 2378 3584 2631 3529 
Q 2884 3475 3122 3366 
z
" transform="scale(0.015625)"/>
       <path id="DejaVuSans-6f" d="M 1959 3097 
Q 1497 3097 1228 2736 
Q 959 2375 959 1747 
Q 959 1119 1226 758 
Q 1494 397 1959 397 
Q 2419 397 2687 759 
Q 2956 1122 2956 1747 
Q 2956 2369 2687 2733 
Q 2419 3097 1959 3097 
z
M 1959 3584 
Q 2709 3584 3137 3096 
Q 3566 2609 3566 1747 
Q 3566 888 3137 398 
Q 2709 -91 1959 -91 
Q 1206 -91 779 398 
Q 353 888 353 1747 
Q 353 2609 779 3096 
Q 1206 3584 1959 3584 
z
" transform="scale(0.015625)"/>
       <path id="DejaVuSans-6e" d="M 3513 2113 
L 3513 0 
L 2938 0 
L 2938 2094 
Q 2938 2591 2744 2837 
Q 2550 3084 2163 3084 
Q 1697 3084 1428 2787 
Q 1159 2491 1159 1978 
L 1159 0 
L 581 0 
L 581 3500 
L 1159 3500 
L 1159 2956 
Q 1366 3272 1645 3428 
Q 1925 3584 2291 3584 
Q 2894 3584 3203 3211 
Q 3513 2838 3513 2113 
z
" transform="scale(0.015625)"/>
       <path id="DejaVuSans-74" d="M 1172 4494 
L 1172 3500 
L 2356 3500 
L 2356 3053 
L 1172 3053 
L 1172 1153 
Q 1172 725 1289 603 
Q 1406 481 1766 481 
L 2356 481 
L 2356 0 
L 1766 0 
Q 1100 0 847 248 
Q 594 497 594 1153 
L 594 3053 
L 172 3053 
L 172 3500 
L 594 3500 
L 594 4494 
L 1172 4494 
z
" transform="scale(0.015625)"/>
       <path id="DejaVuSans-69" d="M 603 3500 
L 1178 3500 
L 1178 0 
L 603 0 
L 603 3500 
z
M 603 4863 
L 1178 4863 
L 1178 4134 
L 603 4134 
L 603 4863 
z
" transform="scale(0.015625)"/>
       <path id="DejaVuSans-2f" d="M 1625 4666 
L 2156 4666 
L 531 -594 
L 0 -594 
L 1625 4666 
z
" transform="scale(0.015625)"/>
       <path id="DejaVuSans-70" d="M 1159 525 
L 1159 -1331 
L 581 -1331 
L 581 3500 
L 1159 3500 
L 1159 2969 
Q 1341 3281 1617 3432 
Q 1894 3584 2278 3584 
Q 2916 3584 3314 3078 
Q 3713 2572 3713 1747 
Q 3713 922 3314 415 
Q 2916 -91 2278 -91 
Q 1894 -91 1617 61 
Q 1341 213 1159 525 
z
M 3116 1747 
Q 3116 2381 2855 2742 
Q 2594 3103 2138 3103 
Q 1681 3103 1420 2742 
Q 1159 2381 1159 1747 
Q 1159 1113 1420 752 
Q 1681 391 2138 391 
Q 2594 391 2855 752 
Q 3116 1113 3116 1747 
z
" transform="scale(0.015625)"/>
       <path id="DejaVuSans-6d" d="M 3328 2828 
Q 3544 3216 3844 3400 
Q 4144 3584 4550 3584 
Q 5097 3584 5394 3201 
Q 5691 2819 5691 2113 
L 5691 0 
L 5113 0 
L 5113 2094 
Q 5113 2597 4934 2840 
Q 4756 3084 4391 3084 
Q 3944 3084 3684 2787 
Q 3425 2491 3425 1978 
L 3425 0 
L 2847 0 
L 2847 2094 
Q 2847 2600 2669 2842 
Q 2491 3084 2119 3084 
Q 1678 3084 1418 2786 
Q 1159 2488 1159 1978 
L 1159 0 
L 581 0 
L 581 3500 
L 1159 3500 
L 1159 2956 
Q 1356 3278 1631 3431 
Q 1906 3584 2284 3584 
Q 2666 3584 2933 3390 
Q 3200 3197 3328 2828 
z
" transform="scale(0.015625)"/>
      </defs>
      <use xlink:href="#DejaVuSans-43"/>
      <use xlink:href="#DejaVuSans-4f" transform="translate(69.824219 0)"/>
      <use xlink:href="#DejaVuSans-32" transform="translate(148.535156 0)"/>
      <use xlink:href="#DejaVuSans-20" transform="translate(212.158203 0)"/>
      <use xlink:href="#DejaVuSans-63" transform="translate(243.945312 0)"/>
      <use xlink:href="#DejaVuSans-6f" transform="translate(298.925781 0)"/>
      <use xlink:href="#DejaVuSans-6e" transform="translate(360.107422 0)"/>
      <use xlink:href="#DejaVuSans-63" transform="translate(423.486328 0)"/>
      <use xlink:href="#DejaVuSans-65" transform="translate(478.466797 0)"/>
      <use xlink:href="#DejaVuSans-6e" transform="translate(539.990234 0)"/>
      <use xlink:href="#DejaVuSans-74" transform="translate(603.369141 0)"/>
      <use xlink:href="#DejaVuSans-72" transform="translate(642.578125 0)"/>
      <use xlink:href="#DejaVuSans-61" transform="translate(683.691406 0)"/>
      <use xlink:href="#DejaVuSans-74" transform="translate(744.970703 0)"/>
      <use xlink:href="#DejaVuSans-69" transform="translate(784.179688 0)"/>
      <use xlink:href="#DejaVuSans-6f" transform="translate(811.962891 0)"/>
      <use xlink:href="#DejaVuSans-6e" transform="translate(873.144531 0)"/>
      <use xlink:href="#DejaVuSans-20" transform="translate(936.523438 0)"/>
      <use xlink:href="#DejaVuSans-2f" transform="translate(968.310547 0)"/>
      <use xlink:href="#DejaVuSans-20" transform="translate(1002.001953 0)"/>
      <use xlink:href="#DejaVuSans-70" transform="translate(1033.789062 0)"/>
      <use xlink:href="#DejaVuSans-70" transform="translate(1097.265625 0)"/>
      <use xlink:href="#DejaVuSans-6d" transform="translate(1160.742188 0)"/>
     </g>
    </g>
   </g>
   <g id="line2d_27">
    <path d="M 90.784091 438.888798 
L 103.60154 435.245816 
L 116.418988 432.386271 
L 129.236437 429.213352 
L 142.053886 427.098072 
L 154.871334 424.630245 
L 167.688783 422.985028 
L 180.506232 417.775172 
L 193.32368 414.602252 
L 206.141129 411.194301 
L 218.958578 405.044321 
L 231.776026 400.892105 
L 244.593475 398.385107 
L 257.410924 393.919516 
L 270.228372 385.223365 
L 283.045821 383.225601 
L 295.86327 379.543447 
L 308.680718 376.017981 
L 321.498167 368.927876 
L 334.315616 362.777896 
L 347.133065 357.176322 
L 359.950513 349.655327 
L 372.767962 344.327955 
L 385.585411 339.000584 
L 398.402859 332.458885 
L 411.220308 325.721327 
L 424.037757 319.923894 
L 436.855205 314.988241 
L 449.672654 308.329026 
L 462.490103 299.006126 
L 475.307551 293.091177 
L 488.125 288.194696 
L 500.942449 283.298215 
L 513.759897 280.00778 
L 526.577346 277.383266 
L 539.394795 270.528192 
L 552.212243 262.654651 
L 565.029692 255.721233 
L 577.847141 251.255643 
L 590.664589 239.660775 
L 603.482038 233.001561 
L 616.299487 228.418455 
L 629.116935 222.111787 
L 641.934384 213.768183 
L 654.751833 203.857706 
L 667.569282 197.120148 
L 680.38673 188.188966 
L 693.204179 179.923706 
L 706.021628 172.363539 
L 718.839076 165.273435 
L 731.656525 158.18333 
L 744.473974 148.547055 
L 757.291422 141.691982 
L 770.108871 133.035003 
L 782.92632 122.536948 
L 795.743768 114.428375 
L 808.561217 105.810568 
L 821.378666 92.49214 
L 834.196114 83.286755 
L 847.013563 75.609073 
L 859.831012 64.092549 
L 872.64846 53.986212 
L 885.465909 45.329234 
" clip-path="url(#pb6604a644d)" style="fill: none; stroke: #000000; stroke-width: 1.5; stroke-linecap: square"/>
    <defs>
     <path id="mfed5149a16" d="M 0 2 
C 0.530406 2 1.03916 1.789267 1.414214 1.414214 
C 1.789267 1.03916 2 0.530406 2 0 
C 2 -0.530406 1.789267 -1.03916 1.414214 -1.414214 
C 1.03916 -1.789267 0.530406 -2 0 -2 
C -0.530406 -2 -1.03916 -1.789267 -1.414214 -1.414214 
C -1.789267 -1.03916 -2 -0.530406 -2 0 
C -2 0.530406 -1.789267 1.03916 -1.414214 1.414214 
C -1.03916 1.789267 -0.530406 2 0 2 
z
" style="stroke: #000000"/>
    </defs>
    <g clip-path="url(#pb6604a644d)">
     <use xlink:href="#mfed5149a16" x="90.784091" y="438.888798" style="stroke: #000000"/>
     <use xlink:href="#mfed5149a16" x="103.60154" y="435.245816" style="stroke: #000000"/>
     <use xlink:href="#mfed5149a16" x="116.418988" y="432.386271" style="stroke: #000000"/>
     <use xlink:href="#mfed5149a16" x="129.236437" y="429.213352" style="stroke: #000000"/>
     <use xlink:href="#mfed5149a16" x="142.053886" y="427.098072" style="stroke: #000000"/>
     <use xlink:href="#mfed5149a16" x="154.871334" y="424.630245" style="stroke: #000000"/>
     <use xlink:href="#mfed5149a16" x="167.688783" y="422.985028" style="stroke: #000000"/>
     <use xlink:href="#mfed5149a16" x="180.506232" y="417.775172" style="stroke: #000000"/>
     <use xlink:href="#mfed5149a16" x="193.32368" y="414.602252" style="stroke: #000000"/>
     <use xlink:href="#mfed5149a16" x="206.141129" y="411.194301" style="stroke: #000000"/>
     <use xlink:href="#mfed5149a16" x="218.958578" y="405.044321" style="stroke: #000000"/>
     <use xlink:href="#mfed5149a16" x="231.776026" y="400.892105" style="stroke: #000000"/>
     <use xlink:href="#mfed5149a16" x="244.593475" y="398.385107" style="stroke: #000000"/>
     <use xlink:href="#mfed5149a16" x="257.410924" y="393.919516" style="stroke: #000000"/>
     <use xlink:href="#mfed5149a16" x="270.228372" y="385.223365" style="stroke: #000000"/>
     <use xlink:href="#mfed5149a16" x="283.045821" y="383.225601" style="stroke: #000000"/>
     <use xlink:href="#mfed5149a16" x="295.86327" y="379.543447" style="stroke: #000000"/>
     <use xlink:href="#mfed5149a16" x="308.680718" y="376.017981" style="stroke: #000000"/>
     <use xlink:href="#mfed5149a16" x="321.498167" y="368.927876" style="stroke: #000000"/>
     <use xlink:href="#mfed5149a16" x="334.315616" y="362.777896" style="stroke: #000000"/>
     <use xlink:href="#mfed5149a16" x="347.133065" y="357.176322" style="stroke: #000000"/>
     <use xlink:href="#mfed5149a16" x="359.950513" y="349.655327" style="stroke: #000000"/>
     <use xlink:href="#mfed5149a16" x="372.767962" y="344.327955" style="stroke: #000000"/>
     <use xlink:href="#mfed5149a16" x="385.585411" y="339.000584" style="stroke: #000000"/>
     <use xlink:href="#mfed5149a16" x="398.402859" y="332.458885" style="stroke: #000000"/>
     <use xlink:href="#mfed5149a16" x="411.220308" y="325.721327" style="stroke: #000000"/>
     <use xlink:href="#mfed5149a16" x="424.037757" y="319.923894" style="stroke: #000000"/>
     <use xlink:href="#mfed5149a16" x="436.855205" y="314.988241" style="stroke: #000000"/>
     <use xlink:href="#mfed5149a16" x="449.672654" y="308.329026" style="stroke: #000000"/>
     <use xlink:href="#mfed5149a16" x="462.490103" y="299.006126" style="stroke: #000000"/>
     <use xlink:href="#mfed5149a16" x="475.307551" y="293.091177" style="stroke: #000000"/>
     <use xlink:href="#mfed5149a16" x="488.125" y="288.194696" style="stroke: #000000"/>
     <use xlink:href="#mfed5149a16" x="500.942449" y="283.298215" style="stroke: #000000"/>
     <use xlink:href="#mfed5149a16" x="513.759897" y="280.00778" style="stroke: #000000"/>
     <use xlink:href="#mfed5149a16" x="526.577346" y="277.383266" style="stroke: #000000"/>
     <use xlink:href="#mfed5149a16" x="539.394795" y="270.528192" style="stroke: #000000"/>
     <use xlink:href="#mfed5149a16" x="552.212243" y="262.654651" style="stroke: #000000"/>
     <use xlink:href="#mfed5149a16" x="565.029692" y="255.721233" style="stroke: #000000"/>
     <use xlink:href="#mfed5149a16" x="577.847141" y="251.255643" style="stroke: #000000"/>
     <use xlink:href="#mfed5149a16" x="590.664589" y="239.660775" style="stroke: #000000"/>
     <use xlink:href="#mfed5149a16" x="603.482038" y="233.001561" style="stroke: #000000"/>
     <use xlink:href="#mfed5149a16" x="616.299487" y="228.418455" style="stroke: #000000"/>
     <use xlink:href="#mfed5149a16" x="629.116935" y="222.111787" style="stroke: #000000"/>
     <use xlink:href="#mfed5149a16" x="641.934384" y="213.768183" style="stroke: #000000"/>
     <use xlink:href="#mfed5149a16" x="654.751833" y="203.857706" style="stroke: #000000"/>
     <use xlink:href="#mfed5149a16" x="667.569282" y="197.120148" style="stroke: #000000"/>
     <use xlink:href="#mfed5149a16" x="680.38673" y="188.188966" style="stroke: #000000"/>
     <use xlink:href="#mfed5149a16" x="693.204179" y="179.923706" style="stroke: #000000"/>
     <use xlink:href="#mfed5149a16" x="706.021628" y="172.363539" style="stroke: #000000"/>
     <use xlink:href="#mfed5149a16" x="718.839076" y="165.273435" style="stroke: #000000"/>
     <use xlink:href="#mfed5149a16" x="731.656525" y="158.18333" style="stroke: #000000"/>
     <use xlink:href="#mfed5149a16" x="744.473974" y="148.547055" style="stroke: #000000"/>
     <use xlink:href="#mfed5149a16" x="757.291422" y="141.691982" style="stroke: #000000"/>
     <use xlink:href="#mfed5149a16" x="770.108871" y="133.035003" style="stroke: #000000"/>
     <use xlink:href="#mfed5149a16" x="782.92632" y="122.536948" style="stroke: #000000"/>
     <use xlink:href="#mfed5149a16" x="795.743768" y="114.428375" style="stroke: #000000"/>
     <use xlink:href="#mfed5149a16" x="808.561217" y="105.810568" style="stroke: #000000"/>
     <use xlink:href="#mfed5149a16" x="821.378666" y="92.49214" style="stroke: #000000"/>
     <use xlink:href="#mfed5149a16" x="834.196114" y="83.286755" style="stroke: #000000"/>
     <use xlink:href="#mfed5149a16" x="847.013563" y="75.609073" style="stroke: #000000"/>
     <use xlink:href="#mfed5149a16" x="859.831012" y="64.092549" style="stroke: #000000"/>
     <use xlink:href="#mfed5149a16" x="872.64846" y="53.986212" style="stroke: #000000"/>
     <use xlink:href="#mfed5149a16" x="885.465909" y="45.329234" style="stroke: #000000"/>
    </g>
   </g>
   <g id="line2d_28">
    <path d="M 90.784091 440.684793 
L 103.60154 437.477636 
L 116.418988 434.168337 
L 129.236437 430.756897 
L 142.053886 427.243315 
L 154.871334 423.627591 
L 167.688783 419.909725 
L 180.506232 416.089718 
L 193.32368 412.167569 
L 206.141129 408.143279 
L 218.958578 404.016847 
L 231.776026 399.788273 
L 244.593475 395.457557 
L 257.410924 391.0247 
L 270.228372 386.489701 
L 283.045821 381.852561 
L 295.86327 377.113279 
L 308.680718 372.271855 
L 321.498167 367.32829 
L 334.315616 362.282583 
L 347.133065 357.134734 
L 359.950513 351.884744 
L 372.767962 346.532612 
L 385.585411 341.078338 
L 398.402859 335.521922 
L 411.220308 329.863365 
L 424.037757 324.102667 
L 436.855205 318.239826 
L 449.672654 312.274844 
L 462.490103 306.207721 
L 475.307551 300.038455 
L 488.125 293.767049 
L 500.942449 287.3935 
L 513.759897 280.91781 
L 526.577346 274.339978 
L 539.394795 267.660004 
L 552.212243 260.877889 
L 565.029692 253.993632 
L 577.847141 247.007233 
L 590.664589 239.918693 
L 603.482038 232.728011 
L 616.299487 225.435188 
L 629.116935 218.040222 
L 641.934384 210.543116 
L 654.751833 202.943867 
L 667.569282 195.242477 
L 680.38673 187.438945 
L 693.204179 179.533272 
L 706.021628 171.525456 
L 718.839076 163.4155 
L 731.656525 155.203401 
L 744.473974 146.889161 
L 757.291422 138.472779 
L 770.108871 129.954256 
L 782.92632 121.333591 
L 795.743768 112.610784 
L 808.561217 103.785835 
L 821.378666 94.858745 
L 834.196114 85.829514 
L 847.013563 76.69814 
L 859.831012 67.464625 
L 872.64846 58.128968 
L 885.465909 48.69117 
" clip-path="url(#pb6604a644d)" style="fill: none; stroke: #1f77b4; stroke-width: 2.2; stroke-linecap: square"/>
   </g>
   <g id="line2d_29">
    <path d="M 90.784091 442.194545 
L 103.60154 438.777238 
L 116.418988 435.267108 
L 129.236437 431.664157 
L 142.053886 427.968383 
L 154.871334 424.179787 
L 167.688783 420.298368 
L 180.506232 416.324128 
L 193.32368 412.257065 
L 206.141129 408.097181 
L 218.958578 403.844474 
L 231.776026 399.498945 
L 244.593475 395.060594 
L 257.410924 390.529421 
L 270.228372 385.905426 
L 283.045821 381.188608 
L 295.86327 376.378968 
L 308.680718 371.476507 
L 321.498167 366.481223 
L 334.315616 361.393117 
L 347.133065 356.212189 
L 359.950513 350.938438 
L 372.767962 345.571866 
L 385.585411 340.112471 
L 398.402859 334.560254 
L 411.220308 328.915216 
L 424.037757 323.177354 
L 436.855205 317.346671 
L 449.672654 311.423166 
L 462.490103 305.406839 
L 475.307551 299.297689 
L 488.125 293.095717 
L 500.942449 286.800923 
L 513.759897 280.413307 
L 526.577346 273.932869 
L 539.394795 267.359609 
L 552.212243 260.693526 
L 565.029692 253.934622 
L 577.847141 247.082895 
L 590.664589 240.138346 
L 603.482038 233.100975 
L 616.299487 225.970782 
L 629.116935 218.747767 
L 641.934384 211.431929 
L 654.751833 204.02327 
L 667.569282 196.521788 
L 680.38673 188.927484 
L 693.204179 181.240358 
L 706.021628 173.46041 
L 718.839076 165.58764 
L 731.656525 157.622047 
L 744.473974 149.563633 
L 757.291422 141.412396 
L 770.108871 133.168337 
L 782.92632 124.831456 
L 795.743768 116.401753 
L 808.561217 107.879228 
L 821.378666 99.26388 
L 834.196114 90.555711 
L 847.013563 81.754719 
L 859.831012 72.860905 
L 872.64846 63.874269 
L 885.465909 54.794811 
" clip-path="url(#pb6604a644d)" style="fill: none; stroke-dasharray: 7.4,3.2; stroke-dashoffset: 0; stroke: #1f77b4; stroke-width: 2"/>
   </g>
   <g id="line2d_30">
    <path d="M 103.60154 420.117091 
L 116.418988 430.702493 
L 129.236437 429.065816 
L 142.053886 426.879095 
L 154.871334 424.447525 
L 167.688783 422.985202 
L 180.506232 418.101282 
L 193.32368 414.611213 
L 206.141129 411.174083 
L 218.958578 405.31342 
L 231.776026 400.880645 
L 244.593475 398.200116 
L 257.410924 394.203743 
L 270.228372 385.476245 
L 283.045821 382.789279 
L 295.86327 379.521189 
L 308.680718 375.748533 
L 321.498167 369.501371 
L 334.315616 362.746735 
L 347.133065 357.459742 
L 359.950513 349.824529 
L 372.767962 344.263211 
L 385.585411 338.716551 
L 398.402859 332.955409 
L 411.220308 325.732633 
L 424.037757 319.730837 
L 436.855205 314.863775 
L 449.672654 308.417262 
L 462.490103 299.437359 
L 475.307551 292.728082 
L 488.125 288.010954 
L 500.942449 282.711288 
L 513.759897 279.327848 
L 526.577346 277.089299 
L 539.394795 270.810995 
L 552.212243 262.809714 
L 565.029692 255.647835 
L 577.847141 251.278357 
L 590.664589 240.470353 
L 603.482038 232.464789 
L 616.299487 228.291978 
L 629.116935 221.887322 
L 641.934384 214.156967 
L 654.751833 204.087183 
L 667.569282 196.800294 
L 680.38673 188.524169 
L 693.204179 179.75683 
L 706.021628 172.414861 
L 718.839076 165.012295 
L 731.656525 157.980642 
L 744.473974 148.757554 
L 757.291422 141.549282 
L 770.108871 133.233686 
L 782.92632 122.686797 
L 795.743768 114.289029 
L 808.561217 106.089118 
L 821.378666 92.855601 
L 834.196114 83.137692 
L 847.013563 75.565426 
L 859.831012 64.238417 
L 872.64846 54.044985 
L 885.465909 45.285455 
" clip-path="url(#pb6604a644d)" style="fill: none; stroke: #ff7f0e; stroke-width: 2.2; stroke-linecap: square"/>
   </g>
   <g id="line2d_31">
    <path d="M 103.60154 420.005185 
L 116.418988 430.20036 
L 129.236437 429.071151 
L 142.053886 426.897627 
L 154.871334 424.451385 
L 167.688783 422.992847 
L 180.506232 418.090552 
L 193.32368 414.622956 
L 206.141129 411.178242 
L 218.958578 405.293019 
L 231.776026 400.892924 
L 244.593475 398.227257 
L 257.410924 394.202879 
L 270.228372 385.439849 
L 283.045821 382.847047 
L 295.86327 379.535336 
L 308.680718 375.775323 
L 321.498167 369.472757 
L 334.315616 362.757378 
L 347.133065 357.47148 
L 359.950513 349.815653 
L 372.767962 344.296598 
L 385.585411 338.733569 
L 398.402859 332.947401 
L 411.220308 325.755622 
L 424.037757 319.752754 
L 436.855205 314.882815 
L 449.672654 308.424843 
L 462.490103 299.42395 
L 475.307551 292.766836 
L 488.125 288.042873 
L 500.942449 282.744 
L 513.759897 279.366106 
L 526.577346 277.119535 
L 539.394795 270.8019 
L 552.212243 262.802556 
L 565.029692 255.661099 
L 577.847141 251.31184 
L 590.664589 240.417807 
L 603.482038 232.510638 
L 616.299487 228.319847 
L 629.116935 221.906417 
L 641.934384 214.14986 
L 654.751833 204.077451 
L 667.569282 196.840928 
L 680.38673 188.515379 
L 693.204179 179.774238 
L 706.021628 172.432277 
L 718.839076 165.032796 
L 731.656525 158.008002 
L 744.473974 148.752421 
L 757.291422 141.576036 
L 770.108871 133.26356 
L 782.92632 124.768942 
L 795.743768 116.28457 
L 808.561217 107.655417 
L 821.378666 98.934591 
L 834.196114 90.109871 
L 847.013563 81.18329 
L 859.831012 72.154661 
L 872.64846 63.02396 
L 885.465909 53.791204 
" clip-path="url(#pb6604a644d)" style="fill: none; stroke-dasharray: 7.4,3.2; stroke-dashoffset: 0; stroke: #ff7f0e; stroke-width: 2"/>
   </g>
   <g id="line2d_32">
    <path d="M 770.108871 462.04 
L 770.108871 25.44 
" clip-path="url(#pb6604a644d)" style="fill: none; stroke-dasharray: 1.5,2.475; stroke-dashoffset: 0; stroke: #808080; stroke-width: 1.5"/>
   </g>
   <g id="patch_3">
    <path d="M 51.05 462.04 
L 51.05 25.44 
" style="fill: none; stroke: #000000; stroke-width: 0.8; stroke-linejoin: miter; stroke-linecap: square"/>
   </g>
   <g id="patch_4">
    <path d="M 925.2 462.04 
L 925.2 25.44 
" style="fill: none; stroke: #000000; stroke-width: 0.8; stroke-linejoin: miter; stroke-linecap: square"/>
   </g>
   <g id="patch_5">
    <path d="M 51.05 462.04 
L 925.2 462.04 
" style="fill: none; stroke: #000000; stroke-width: 0.8; stroke-linejoin: miter; stroke-linecap: square"/>
   </g>
   <g id="patch_6">
    <path d="M 51.05 25.44 
L 925.2 25.44 
" style="fill: none; stroke: #000000; stroke-width: 0.8; stroke-linejoin: miter; stroke-linecap: square"/>
   </g>
   <g id="text_16">
    <!-- Quadratic Annual and SARIMA Fit/Forecast Comparison -->
    <g transform="translate(323.365 19.44) scale(0.12 -0.12)">
     <defs>
      <path id="DejaVuSans-51" d="M 2522 4238 
Q 1834 4238 1429 3725 
Q 1025 3213 1025 2328 
Q 1025 1447 1429 934 
Q 1834 422 2522 422 
Q 3209 422 3611 934 
Q 4013 1447 4013 2328 
Q 4013 3213 3611 3725 
Q 3209 4238 2522 4238 
z
M 3406 84 
L 4238 -825 
L 3475 -825 
L 2784 -78 
Q 2681 -84 2626 -87 
Q 2572 -91 2522 -91 
Q 1538 -91 948 567 
Q 359 1225 359 2328 
Q 359 3434 948 4092 
Q 1538 4750 2522 4750 
Q 3503 4750 4090 4092 
Q 4678 3434 4678 2328 
Q 4678 1516 4351 937 
Q 4025 359 3406 84 
z
" transform="scale(0.015625)"/>
      <path id="DejaVuSans-75" d="M 544 1381 
L 544 3500 
L 1119 3500 
L 1119 1403 
Q 1119 906 1312 657 
Q 1506 409 1894 409 
Q 2359 409 2629 706 
Q 2900 1003 2900 1516 
L 2900 3500 
L 3475 3500 
L 3475 0 
L 2900 0 
L 2900 538 
Q 2691 219 2414 64 
Q 2138 -91 1772 -91 
Q 1169 -91 856 284 
Q 544 659 544 1381 
z
M 1991 3584 
L 1991 3584 
z
" transform="scale(0.015625)"/>
      <path id="DejaVuSans-64" d="M 2906 2969 
L 2906 4863 
L 3481 4863 
L 3481 0 
L 2906 0 
L 2906 525 
Q 2725 213 2448 61 
Q 2172 -91 1784 -91 
Q 1150 -91 751 415 
Q 353 922 353 1747 
Q 353 2572 751 3078 
Q 1150 3584 1784 3584 
Q 2172 3584 2448 3432 
Q 2725 3281 2906 2969 
z
M 947 1747 
Q 947 1113 1208 752 
Q 1469 391 1925 391 
Q 2381 391 2643 752 
Q 2906 1113 2906 1747 
Q 2906 2381 2643 2742 
Q 2381 3103 1925 3103 
Q 1469 3103 1208 2742 
Q 947 2381 947 1747 
z
" transform="scale(0.015625)"/>
      <path id="DejaVuSans-41" d="M 2188 4044 
L 1331 1722 
L 3047 1722 
L 2188 4044 
z
M 1831 4666 
L 2547 4666 
L 4325 0 
L 3669 0 
L 3244 1197 
L 1141 1197 
L 716 0 
L 50 0 
L 1831 4666 
z
" transform="scale(0.015625)"/>
      <path id="DejaVuSans-6c" d="M 603 4863 
L 1178 4863 
L 1178 0 
L 603 0 
L 603 4863 
z
" transform="scale(0.015625)"/>
      <path id="DejaVuSans-53" d="M 3425 4513 
L 3425 3897 
Q 3066 4069 2747 4153 
Q 2428 4238 2131 4238 
Q 1616 4238 1336 4038 
Q 1056 3838 1056 3469 
Q 1056 3159 1242 3001 
Q 1428 2844 1947 2747 
L 2328 2669 
Q 3034 2534 3370 2195 
Q 3706 1856 3706 1288 
Q 3706 609 3251 259 
Q 2797 -91 1919 -91 
Q 1588 -91 1214 -16 
Q 841 59 441 206 
L 441 856 
Q 825 641 1194 531 
Q 1563 422 1919 422 
Q 2459 422 2753 634 
Q 3047 847 3047 1241 
Q 3047 1584 2836 1778 
Q 2625 1972 2144 2069 
L 1759 2144 
Q 1053 2284 737 2584 
Q 422 2884 422 3419 
Q 422 4038 858 4394 
Q 1294 4750 2059 4750 
Q 2388 4750 2728 4690 
Q 3069 4631 3425 4513 
z
" transform="scale(0.015625)"/>
      <path id="DejaVuSans-52" d="M 2841 2188 
Q 3044 2119 3236 1894 
Q 3428 1669 3622 1275 
L 4263 0 
L 3584 0 
L 2988 1197 
Q 2756 1666 2539 1819 
Q 2322 1972 1947 1972 
L 1259 1972 
L 1259 0 
L 628 0 
L 628 4666 
L 2053 4666 
Q 2853 4666 3247 4331 
Q 3641 3997 3641 3322 
Q 3641 2881 3436 2590 
Q 3231 2300 2841 2188 
z
M 1259 4147 
L 1259 2491 
L 2053 2491 
Q 2509 2491 2742 2702 
Q 2975 2913 2975 3322 
Q 2975 3731 2742 3939 
Q 2509 4147 2053 4147 
L 1259 4147 
z
" transform="scale(0.015625)"/>
      <path id="DejaVuSans-49" d="M 628 4666 
L 1259 4666 
L 1259 0 
L 628 0 
L 628 4666 
z
" transform="scale(0.015625)"/>
      <path id="DejaVuSans-4d" d="M 628 4666 
L 1569 4666 
L 2759 1491 
L 3956 4666 
L 4897 4666 
L 4897 0 
L 4281 0 
L 4281 4097 
L 3078 897 
L 2444 897 
L 1241 4097 
L 1241 0 
L 628 0 
L 628 4666 
z
" transform="scale(0.015625)"/>
      <path id="DejaVuSans-46" d="M 628 4666 
L 3309 4666 
L 3309 4134 
L 1259 4134 
L 1259 2759 
L 3109 2759 
L 3109 2228 
L 1259 2228 
L 1259 0 
L 628 0 
L 628 4666 
z
" transform="scale(0.015625)"/>
      <path id="DejaVuSans-73" d="M 2834 3397 
L 2834 2853 
Q 2591 2978 2328 3040 
Q 2066 3103 1784 3103 
Q 1356 3103 1142 2972 
Q 928 2841 928 2578 
Q 928 2378 1081 2264 
Q 1234 2150 1697 2047 
L 1894 2003 
Q 2506 1872 2764 1633 
Q 3022 1394 3022 966 
Q 3022 478 2636 193 
Q 2250 -91 1575 -91 
Q 1294 -91 989 -36 
Q 684 19 347 128 
L 347 722 
Q 666 556 975 473 
Q 1284 391 1588 391 
Q 1994 391 2212 530 
Q 2431 669 2431 922 
Q 2431 1156 2273 1281 
Q 2116 1406 1581 1522 
L 1381 1569 
Q 847 1681 609 1914 
Q 372 2147 372 2553 
Q 372 3047 722 3315 
Q 1072 3584 1716 3584 
Q 2034 3584 2315 3537 
Q 2597 3491 2834 3397 
z
" transform="scale(0.015625)"/>
     </defs>
     <use xlink:href="#DejaVuSans-51"/>
     <use xlink:href="#DejaVuSans-75" transform="translate(78.710938 0)"/>
     <use xlink:href="#DejaVuSans-61" transform="translate(142.089844 0)"/>
     <use xlink:href="#DejaVuSans-64" transform="translate(203.369141 0)"/>
     <use xlink:href="#DejaVuSans-72" transform="translate(266.845703 0)"/>
     <use xlink:href="#DejaVuSans-61" transform="translate(307.958984 0)"/>
     <use xlink:href="#DejaVuSans-74" transform="translate(369.238281 0)"/>
     <use xlink:href="#DejaVuSans-69" transform="translate(408.447266 0)"/>
     <use xlink:href="#DejaVuSans-63" transform="translate(436.230469 0)"/>
     <use xlink:href="#DejaVuSans-20" transform="translate(491.210938 0)"/>
     <use xlink:href="#DejaVuSans-41" transform="translate(522.998047 0)"/>
     <use xlink:href="#DejaVuSans-6e" transform="translate(591.40625 0)"/>
     <use xlink:href="#DejaVuSans-6e" transform="translate(654.785156 0)"/>
     <use xlink:href="#DejaVuSans-75" transform="translate(718.164062 0)"/>
     <use xlink:href="#DejaVuSans-61" transform="translate(781.542969 0)"/>
     <use xlink:href="#DejaVuSans-6c" transform="translate(842.822266 0)"/>
     <use xlink:href="#DejaVuSans-20" transform="translate(870.605469 0)"/>
     <use xlink:href="#DejaVuSans-61" transform="translate(902.392578 0)"/>
     <use xlink:href="#DejaVuSans-6e" transform="translate(963.671875 0)"/>
     <use xlink:href="#DejaVuSans-64" transform="translate(1027.050781 0)"/>
     <use xlink:href="#DejaVuSans-20" transform="translate(1090.527344 0)"/>
     <use xlink:href="#DejaVuSans-53" transform="translate(1122.314453 0)"/>
     <use xlink:href="#DejaVuSans-41" transform="translate(1187.666016 0)"/>
     <use xlink:href="#DejaVuSans-52" transform="translate(1256.074219 0)"/>
     <use xlink:href="#DejaVuSans-49" transform="translate(1325.556641 0)"/>
     <use xlink:href="#DejaVuSans-4d" transform="translate(1355.048828 0)"/>
     <use xlink:href="#DejaVuSans-41" transform="translate(1441.328125 0)"/>
     <use xlink:href="#DejaVuSans-20" transform="translate(1509.736328 0)"/>
     <use xlink:href="#DejaVuSans-46" transform="translate(1541.523438 0)"/>
     <use xlink:href="#DejaVuSans-69" transform="translate(1591.792969 0)"/>
     <use xlink:href="#DejaVuSans-74" transform="translate(1619.576172 0)"/>
     <use xlink:href="#DejaVuSans-2f" transform="translate(1658.785156 0)"/>
     <use xlink:href="#DejaVuSans-46" transform="translate(1692.476562 0)"/>
     <use xlink:href="#DejaVuSans-6f" transform="translate(1746.371094 0)"/>
     <use xlink:href="#DejaVuSans-72" transform="translate(1807.552734 0)"/>
     <use xlink:href="#DejaVuSans-65" transform="translate(1846.416016 0)"/>
     <use xlink:href="#DejaVuSans-63" transform="translate(1907.939453 0)"/>
     <use xlink:href="#DejaVuSans-61" transform="translate(1962.919922 0)"/>
     <use xlink:href="#DejaVuSans-73" transform="translate(2024.199219 0)"/>
     <use xlink:href="#DejaVuSans-74" transform="translate(2076.298828 0)"/>
     <use xlink:href="#DejaVuSans-20" transform="translate(2115.507812 0)"/>
     <use xlink:href="#DejaVuSans-43" transform="translate(2147.294922 0)"/>
     <use xlink:href="#DejaVuSans-6f" transform="translate(2217.119141 0)"/>
     <use xlink:href="#DejaVuSans-6d" transform="translate(2278.300781 0)"/>
     <use xlink:href="#DejaVuSans-70" transform="translate(2375.712891 0)"/>
     <use xlink:href="#DejaVuSans-61" transform="translate(2439.189453 0)"/>
     <use xlink:href="#DejaVuSans-72" transform="translate(2500.46875 0)"/>
     <use xlink:href="#DejaVuSans-69" transform="translate(2541.582031 0)"/>
     <use xlink:href="#DejaVuSans-73" transform="translate(2569.365234 0)"/>
     <use xlink:href="#DejaVuSans-6f" transform="translate(2621.464844 0)"/>
     <use xlink:href="#DejaVuSans-6e" transform="translate(2682.646484 0)"/>
    </g>
   </g>
   <g id="legend_1">
    <g id="patch_7">
     <path d="M 56.65 102.295 
L 265.74 102.295 
Q 267.34 102.295 267.34 100.695 
L 267.34 31.04 
Q 267.34 29.44 265.74 29.44 
L 56.65 29.44 
Q 55.05 29.44 55.05 31.04 
L 55.05 100.695 
Q 55.05 102.295 56.65 102.295 
z
" style="fill: #ffffff; opacity: 0.8; stroke: #cccccc; stroke-linejoin: miter"/>
    </g>
    <g id="line2d_33">
     <path d="M 58.25 35.91875 
L 66.25 35.91875 
L 74.25 35.91875 
" style="fill: none; stroke: #000000; stroke-width: 1.5; stroke-linecap: square"/>
     <g>
      <use xlink:href="#mfed5149a16" x="66.25" y="35.91875" style="stroke: #000000"/>
     </g>
    </g>
    <g id="text_17">
     <!-- Observed annual CO2 -->
     <g transform="translate(80.65 38.71875) scale(0.08 -0.08)">
      <defs>
       <path id="DejaVuSans-62" d="M 3116 1747 
Q 3116 2381 2855 2742 
Q 2594 3103 2138 3103 
Q 1681 3103 1420 2742 
Q 1159 2381 1159 1747 
Q 1159 1113 1420 752 
Q 1681 391 2138 391 
Q 2594 391 2855 752 
Q 3116 1113 3116 1747 
z
M 1159 2969 
Q 1341 3281 1617 3432 
Q 1894 3584 2278 3584 
Q 2916 3584 3314 3078 
Q 3713 2572 3713 1747 
Q 3713 922 3314 415 
Q 2916 -91 2278 -91 
Q 1894 -91 1617 61 
Q 1341 213 1159 525 
L 1159 0 
L 581 0 
L 581 4863 
L 1159 4863 
L 1159 2969 
z
" transform="scale(0.015625)"/>
       <path id="DejaVuSans-76" d="M 191 3500 
L 800 3500 
L 1894 563 
L 2988 3500 
L 3597 3500 
L 2284 0 
L 1503 0 
L 191 3500 
z
" transform="scale(0.015625)"/>
      </defs>
      <use xlink:href="#DejaVuSans-4f"/>
      <use xlink:href="#DejaVuSans-62" transform="translate(78.710938 0)"/>
      <use xlink:href="#DejaVuSans-73" transform="translate(142.1875 0)"/>
      <use xlink:href="#DejaVuSans-65" transform="translate(194.287109 0)"/>
      <use xlink:href="#DejaVuSans-72" transform="translate(255.810547 0)"/>
      <use xlink:href="#DejaVuSans-76" transform="translate(296.923828 0)"/>
      <use xlink:href="#DejaVuSans-65" transform="translate(356.103516 0)"/>
      <use xlink:href="#DejaVuSans-64" transform="translate(417.626953 0)"/>
      <use xlink:href="#DejaVuSans-20" transform="translate(481.103516 0)"/>
      <use xlink:href="#DejaVuSans-61" transform="translate(512.890625 0)"/>
      <use xlink:href="#DejaVuSans-6e" transform="translate(574.169922 0)"/>
      <use xlink:href="#DejaVuSans-6e" transform="translate(637.548828 0)"/>
      <use xlink:href="#DejaVuSans-75" transform="translate(700.927734 0)"/>
      <use xlink:href="#DejaVuSans-61" transform="translate(764.306641 0)"/>
      <use xlink:href="#DejaVuSans-6c" transform="translate(825.585938 0)"/>
      <use xlink:href="#DejaVuSans-20" transform="translate(853.369141 0)"/>
      <use xlink:href="#DejaVuSans-43" transform="translate(885.15625 0)"/>
      <use xlink:href="#DejaVuSans-4f" transform="translate(954.980469 0)"/>
      <use xlink:href="#DejaVuSans-32" transform="translate(1033.691406 0)"/>
     </g>
    </g>
    <g id="line2d_34">
     <path d="M 58.25 47.66125 
L 66.25 47.66125 
L 74.25 47.66125 
" style="fill: none; stroke: #1f77b4; stroke-width: 2.2; stroke-linecap: square"/>
    </g>
    <g id="text_18">
     <!-- Quadratic full-data fit -->
     <g transform="translate(80.65 50.46125) scale(0.08 -0.08)">
      <defs>
       <path id="DejaVuSans-66" d="M 2375 4863 
L 2375 4384 
L 1825 4384 
Q 1516 4384 1395 4259 
Q 1275 4134 1275 3809 
L 1275 3500 
L 2222 3500 
L 2222 3053 
L 1275 3053 
L 1275 0 
L 697 0 
L 697 3053 
L 147 3053 
L 147 3500 
L 697 3500 
L 697 3744 
Q 697 4328 969 4595 
Q 1241 4863 1831 4863 
L 2375 4863 
z
" transform="scale(0.015625)"/>
       <path id="DejaVuSans-2d" d="M 313 2009 
L 1997 2009 
L 1997 1497 
L 313 1497 
L 313 2009 
z
" transform="scale(0.015625)"/>
      </defs>
      <use xlink:href="#DejaVuSans-51"/>
      <use xlink:href="#DejaVuSans-75" transform="translate(78.710938 0)"/>
      <use xlink:href="#DejaVuSans-61" transform="translate(142.089844 0)"/>
      <use xlink:href="#DejaVuSans-64" transform="translate(203.369141 0)"/>
      <use xlink:href="#DejaVuSans-72" transform="translate(266.845703 0)"/>
      <use xlink:href="#DejaVuSans-61" transform="translate(307.958984 0)"/>
      <use xlink:href="#DejaVuSans-74" transform="translate(369.238281 0)"/>
      <use xlink:href="#DejaVuSans-69" transform="translate(408.447266 0)"/>
      <use xlink:href="#DejaVuSans-63" transform="translate(436.230469 0)"/>
      <use xlink:href="#DejaVuSans-20" transform="translate(491.210938 0)"/>
      <use xlink:href="#DejaVuSans-66" transform="translate(522.998047 0)"/>
      <use xlink:href="#DejaVuSans-75" transform="translate(558.203125 0)"/>
      <use xlink:href="#DejaVuSans-6c" transform="translate(621.582031 0)"/>
      <use xlink:href="#DejaVuSans-6c" transform="translate(649.365234 0)"/>
      <use xlink:href="#DejaVuSans-2d" transform="translate(677.148438 0)"/>
      <use xlink:href="#DejaVuSans-64" transform="translate(713.232422 0)"/>
      <use xlink:href="#DejaVuSans-61" transform="translate(776.708984 0)"/>
      <use xlink:href="#DejaVuSans-74" transform="translate(837.988281 0)"/>
      <use xlink:href="#DejaVuSans-61" transform="translate(877.197266 0)"/>
      <use xlink:href="#DejaVuSans-20" transform="translate(938.476562 0)"/>
      <use xlink:href="#DejaVuSans-66" transform="translate(970.263672 0)"/>
      <use xlink:href="#DejaVuSans-69" transform="translate(1005.46875 0)"/>
      <use xlink:href="#DejaVuSans-74" transform="translate(1033.251953 0)"/>
     </g>
    </g>
    <g id="line2d_35">
     <path d="M 58.25 59.40375 
L 66.25 59.40375 
L 74.25 59.40375 
" style="fill: none; stroke-dasharray: 7.4,3.2; stroke-dashoffset: 0; stroke: #1f77b4; stroke-width: 2"/>
    </g>
    <g id="text_19">
     <!-- Quadratic training fit + test forecast -->
     <g transform="translate(80.65 62.20375) scale(0.08 -0.08)">
      <defs>
       <path id="DejaVuSans-67" d="M 2906 1791 
Q 2906 2416 2648 2759 
Q 2391 3103 1925 3103 
Q 1463 3103 1205 2759 
Q 947 2416 947 1791 
Q 947 1169 1205 825 
Q 1463 481 1925 481 
Q 2391 481 2648 825 
Q 2906 1169 2906 1791 
z
M 3481 434 
Q 3481 -459 3084 -895 
Q 2688 -1331 1869 -1331 
Q 1566 -1331 1297 -1286 
Q 1028 -1241 775 -1147 
L 775 -588 
Q 1028 -725 1275 -790 
Q 1522 -856 1778 -856 
Q 2344 -856 2625 -561 
Q 2906 -266 2906 331 
L 2906 616 
Q 2728 306 2450 153 
Q 2172 0 1784 0 
Q 1141 0 747 490 
Q 353 981 353 1791 
Q 353 2603 747 3093 
Q 1141 3584 1784 3584 
Q 2172 3584 2450 3431 
Q 2728 3278 2906 2969 
L 2906 3500 
L 3481 3500 
L 3481 434 
z
" transform="scale(0.015625)"/>
       <path id="DejaVuSans-2b" d="M 2944 4013 
L 2944 2272 
L 4684 2272 
L 4684 1741 
L 2944 1741 
L 2944 0 
L 2419 0 
L 2419 1741 
L 678 1741 
L 678 2272 
L 2419 2272 
L 2419 4013 
L 2944 4013 
z
" transform="scale(0.015625)"/>
      </defs>
      <use xlink:href="#DejaVuSans-51"/>
      <use xlink:href="#DejaVuSans-75" transform="translate(78.710938 0)"/>
      <use xlink:href="#DejaVuSans-61" transform="translate(142.089844 0)"/>
      <use xlink:href="#DejaVuSans-64" transform="translate(203.369141 0)"/>
      <use xlink:href="#DejaVuSans-72" transform="translate(266.845703 0)"/>
      <use xlink:href="#DejaVuSans-61" transform="translate(307.958984 0)"/>
      <use xlink:href="#DejaVuSans-74" transform="translate(369.238281 0)"/>
      <use xlink:href="#DejaVuSans-69" transform="translate(408.447266 0)"/>
      <use xlink:href="#DejaVuSans-63" transform="translate(436.230469 0)"/>
      <use xlink:href="#DejaVuSans-20" transform="translate(491.210938 0)"/>
      <use xlink:href="#DejaVuSans-74" transform="translate(522.998047 0)"/>
      <use xlink:href="#DejaVuSans-72" transform="translate(562.207031 0)"/>
      <use xlink:href="#DejaVuSans-61" transform="translate(603.320312 0)"/>
      <use xlink:href="#DejaVuSans-69" transform="translate(664.599609 0)"/>
      <use xlink:href="#DejaVuSans-6e" transform="translate(692.382812 0)"/>
      <use xlink:href="#DejaVuSans-69" transform="translate(755.761719 0)"/>
      <use xlink:href="#DejaVuSans-6e" transform="translate(783.544922 0)"/>
      <use xlink:href="#DejaVuSans-67" transform="translate(846.923828 0)"/>
      <use xlink:href="#DejaVuSans-20" transform="translate(910.400391 0)"/>
      <use xlink:href="#DejaVuSans-66" transform="translate(942.1875 0)"/>
      <use xlink:href="#DejaVuSans-69" transform="translate(977.392578 0)"/>
      <use xlink:href="#DejaVuSans-74" transform="translate(1005.175781 0)"/>
      <use xlink:href="#DejaVuSans-20" transform="translate(1044.384766 0)"/>
      <use xlink:href="#DejaVuSans-2b" transform="translate(1076.171875 0)"/>
      <use xlink:href="#DejaVuSans-20" transform="translate(1159.960938 0)"/>
      <use xlink:href="#DejaVuSans-74" transform="translate(1191.748047 0)"/>
      <use xlink:href="#DejaVuSans-65" transform="translate(1230.957031 0)"/>
      <use xlink:href="#DejaVuSans-73" transform="translate(1292.480469 0)"/>
      <use xlink:href="#DejaVuSans-74" transform="translate(1344.580078 0)"/>
      <use xlink:href="#DejaVuSans-20" transform="translate(1383.789062 0)"/>
      <use xlink:href="#DejaVuSans-66" transform="translate(1415.576172 0)"/>
      <use xlink:href="#DejaVuSans-6f" transform="translate(1450.78125 0)"/>
      <use xlink:href="#DejaVuSans-72" transform="translate(1511.962891 0)"/>
      <use xlink:href="#DejaVuSans-65" transform="translate(1550.826172 0)"/>
      <use xlink:href="#DejaVuSans-63" transform="translate(1612.349609 0)"/>
      <use xlink:href="#DejaVuSans-61" transform="translate(1667.330078 0)"/>
      <use xlink:href="#DejaVuSans-73" transform="translate(1728.609375 0)"/>
      <use xlink:href="#DejaVuSans-74" transform="translate(1780.708984 0)"/>
     </g>
    </g>
    <g id="line2d_36">
     <path d="M 58.25 71.14625 
L 66.25 71.14625 
L 74.25 71.14625 
" style="fill: none; stroke: #ff7f0e; stroke-width: 2.2; stroke-linecap: square"/>
    </g>
    <g id="text_20">
     <!-- SARIMA full-data fit annualized -->
     <g transform="translate(80.65 73.94625) scale(0.08 -0.08)">
      <defs>
       <path id="DejaVuSans-7a" d="M 353 3500 
L 3084 3500 
L 3084 2975 
L 922 459 
L 3084 459 
L 3084 0 
L 275 0 
L 275 525 
L 2438 3041 
L 353 3041 
L 353 3500 
z
" transform="scale(0.015625)"/>
      </defs>
      <use xlink:href="#DejaVuSans-53"/>
      <use xlink:href="#DejaVuSans-41" transform="translate(65.351562 0)"/>
      <use xlink:href="#DejaVuSans-52" transform="translate(133.759766 0)"/>
      <use xlink:href="#DejaVuSans-49" transform="translate(203.242188 0)"/>
      <use xlink:href="#DejaVuSans-4d" transform="translate(232.734375 0)"/>
      <use xlink:href="#DejaVuSans-41" transform="translate(319.013672 0)"/>
      <use xlink:href="#DejaVuSans-20" transform="translate(387.421875 0)"/>
      <use xlink:href="#DejaVuSans-66" transform="translate(419.208984 0)"/>
      <use xlink:href="#DejaVuSans-75" transform="translate(454.414062 0)"/>
      <use xlink:href="#DejaVuSans-6c" transform="translate(517.792969 0)"/>
      <use xlink:href="#DejaVuSans-6c" transform="translate(545.576172 0)"/>
      <use xlink:href="#DejaVuSans-2d" transform="translate(573.359375 0)"/>
      <use xlink:href="#DejaVuSans-64" transform="translate(609.443359 0)"/>
      <use xlink:href="#DejaVuSans-61" transform="translate(672.919922 0)"/>
      <use xlink:href="#DejaVuSans-74" transform="translate(734.199219 0)"/>
      <use xlink:href="#DejaVuSans-61" transform="translate(773.408203 0)"/>
      <use xlink:href="#DejaVuSans-20" transform="translate(834.6875 0)"/>
      <use xlink:href="#DejaVuSans-66" transform="translate(866.474609 0)"/>
      <use xlink:href="#DejaVuSans-69" transform="translate(901.679688 0)"/>
      <use xlink:href="#DejaVuSans-74" transform="translate(929.462891 0)"/>
      <use xlink:href="#DejaVuSans-20" transform="translate(968.671875 0)"/>
      <use xlink:href="#DejaVuSans-61" transform="translate(1000.458984 0)"/>
      <use xlink:href="#DejaVuSans-6e" transform="translate(1061.738281 0)"/>
      <use xlink:href="#DejaVuSans-6e" transform="translate(1125.117188 0)"/>
      <use xlink:href="#DejaVuSans-75" transform="translate(1188.496094 0)"/>
      <use xlink:href="#DejaVuSans-61" transform="translate(1251.875 0)"/>
      <use xlink:href="#DejaVuSans-6c" transform="translate(1313.154297 0)"/>
      <use xlink:href="#DejaVuSans-69" transform="translate(1340.9375 0)"/>
      <use xlink:href="#DejaVuSans-7a" transform="translate(1368.720703 0)"/>
      <use xlink:href="#DejaVuSans-65" transform="translate(1421.210938 0)"/>
      <use xlink:href="#DejaVuSans-64" transform="translate(1482.734375 0)"/>
     </g>
    </g>
    <g id="line2d_37">
     <path d="M 58.25 82.88875 
L 66.25 82.88875 
L 74.25 82.88875 
" style="fill: none; stroke-dasharray: 7.4,3.2; stroke-dashoffset: 0; stroke: #ff7f0e; stroke-width: 2"/>
    </g>
    <g id="text_21">
     <!-- SARIMA training fit + test forecast annualized -->
     <g transform="translate(80.65 85.68875) scale(0.08 -0.08)">
      <use xlink:href="#DejaVuSans-53"/>
      <use xlink:href="#DejaVuSans-41" transform="translate(65.351562 0)"/>
      <use xlink:href="#DejaVuSans-52" transform="translate(133.759766 0)"/>
      <use xlink:href="#DejaVuSans-49" transform="translate(203.242188 0)"/>
      <use xlink:href="#DejaVuSans-4d" transform="translate(232.734375 0)"/>
      <use xlink:href="#DejaVuSans-41" transform="translate(319.013672 0)"/>
      <use xlink:href="#DejaVuSans-20" transform="translate(387.421875 0)"/>
      <use xlink:href="#DejaVuSans-74" transform="translate(419.208984 0)"/>
      <use xlink:href="#DejaVuSans-72" transform="translate(458.417969 0)"/>
      <use xlink:href="#DejaVuSans-61" transform="translate(499.53125 0)"/>
      <use xlink:href="#DejaVuSans-69" transform="translate(560.810547 0)"/>
      <use xlink:href="#DejaVuSans-6e" transform="translate(588.59375 0)"/>
      <use xlink:href="#DejaVuSans-69" transform="translate(651.972656 0)"/>
      <use xlink:href="#DejaVuSans-6e" transform="translate(679.755859 0)"/>
      <use xlink:href="#DejaVuSans-67" transform="translate(743.134766 0)"/>
      <use xlink:href="#DejaVuSans-20" transform="translate(806.611328 0)"/>
      <use xlink:href="#DejaVuSans-66" transform="translate(838.398438 0)"/>
      <use xlink:href="#DejaVuSans-69" transform="translate(873.603516 0)"/>
      <use xlink:href="#DejaVuSans-74" transform="translate(901.386719 0)"/>
      <use xlink:href="#DejaVuSans-20" transform="translate(940.595703 0)"/>
      <use xlink:href="#DejaVuSans-2b" transform="translate(972.382812 0)"/>
      <use xlink:href="#DejaVuSans-20" transform="translate(1056.171875 0)"/>
      <use xlink:href="#DejaVuSans-74" transform="translate(1087.958984 0)"/>
      <use xlink:href="#DejaVuSans-65" transform="translate(1127.167969 0)"/>
      <use xlink:href="#DejaVuSans-73" transform="translate(1188.691406 0)"/>
      <use xlink:href="#DejaVuSans-74" transform="translate(1240.791016 0)"/>
      <use xlink:href="#DejaVuSans-20" transform="translate(1280 0)"/>
      <use xlink:href="#DejaVuSans-66" transform="translate(1311.787109 0)"/>
      <use xlink:href="#DejaVuSans-6f" transform="translate(1346.992188 0)"/>
      <use xlink:href="#DejaVuSans-72" transform="translate(1408.173828 0)"/>
      <use xlink:href="#DejaVuSans-65" transform="translate(1447.037109 0)"/>
      <use xlink:href="#DejaVuSans-63" transform="translate(1508.560547 0)"/>
      <use xlink:href="#DejaVuSans-61" transform="translate(1563.541016 0)"/>
      <use xlink:href="#DejaVuSans-73" transform="translate(1624.820312 0)"/>
      <use xlink:href="#DejaVuSans-74" transform="translate(1676.919922 0)"/>
      <use xlink:href="#DejaVuSans-20" transform="translate(1716.128906 0)"/>
      <use xlink:href="#DejaVuSans-61" transform="translate(1747.916016 0)"/>
      <use xlink:href="#DejaVuSans-6e" transform="translate(1809.195312 0)"/>
      <use xlink:href="#DejaVuSans-6e" transform="translate(1872.574219 0)"/>
      <use xlink:href="#DejaVuSans-75" transform="translate(1935.953125 0)"/>
      <use xlink:href="#DejaVuSans-61" transform="translate(1999.332031 0)"/>
      <use xlink:href="#DejaVuSans-6c" transform="translate(2060.611328 0)"/>
      <use xlink:href="#DejaVuSans-69" transform="translate(2088.394531 0)"/>
      <use xlink:href="#DejaVuSans-7a" transform="translate(2116.177734 0)"/>
      <use xlink:href="#DejaVuSans-65" transform="translate(2168.667969 0)"/>
      <use xlink:href="#DejaVuSans-64" transform="translate(2230.191406 0)"/>
     </g>
    </g>
    <g id="line2d_38">
     <path d="M 58.25 94.63125 
L 66.25 94.63125 
L 74.25 94.63125 
" style="fill: none; stroke-dasharray: 1.5,2.475; stroke-dashoffset: 0; stroke: #808080; stroke-width: 1.5"/>
    </g>
    <g id="text_22">
     <!-- Test period starts -->
     <g transform="translate(80.65 97.43125) scale(0.08 -0.08)">
      <defs>
       <path id="DejaVuSans-54" d="M -19 4666 
L 3928 4666 
L 3928 4134 
L 2272 4134 
L 2272 0 
L 1638 0 
L 1638 4134 
L -19 4134 
L -19 4666 
z
" transform="scale(0.015625)"/>
      </defs>
      <use xlink:href="#DejaVuSans-54"/>
      <use xlink:href="#DejaVuSans-65" transform="translate(44.083984 0)"/>
      <use xlink:href="#DejaVuSans-73" transform="translate(105.607422 0)"/>
      <use xlink:href="#DejaVuSans-74" transform="translate(157.707031 0)"/>
      <use xlink:href="#DejaVuSans-20" transform="translate(196.916016 0)"/>
      <use xlink:href="#DejaVuSans-70" transform="translate(228.703125 0)"/>
      <use xlink:href="#DejaVuSans-65" transform="translate(292.179688 0)"/>
      <use xlink:href="#DejaVuSans-72" transform="translate(353.703125 0)"/>
      <use xlink:href="#DejaVuSans-69" transform="translate(394.816406 0)"/>
      <use xlink:href="#DejaVuSans-6f" transform="translate(422.599609 0)"/>
      <use xlink:href="#DejaVuSans-64" transform="translate(483.78125 0)"/>
      <use xlink:href="#DejaVuSans-20" transform="translate(547.257812 0)"/>
      <use xlink:href="#DejaVuSans-73" transform="translate(579.044922 0)"/>
      <use xlink:href="#DejaVuSans-74" transform="translate(631.144531 0)"/>
      <use xlink:href="#DejaVuSans-61" transform="translate(670.353516 0)"/>
      <use xlink:href="#DejaVuSans-72" transform="translate(731.632812 0)"/>
      <use xlink:href="#DejaVuSans-74" transform="translate(772.746094 0)"/>
      <use xlink:href="#DejaVuSans-73" transform="translate(811.955078 0)"/>
     </g>
    </g>
   </g>
  </g>
 </g>
 <defs>
  <clipPath id="pb6604a644d">
   <rect x="51.05" y="25.44" width="874.15" height="436.6"/>
  </clipPath>
 </defs>
</svg>
