<?xml version="1.0" encoding="utf-8" standalone="no"?>
<!DOCTYPE svg PUBLIC "-//W3C//DTD SVG 1.1//EN"
  "http://www.w3.org/Graphics/SVG/1.1/DTD/svg11.dtd">
<svg xmlns:xlink="http://www.w3.org/1999/xlink" width="864pt" height="432pt" viewBox="0 0 864 432" xmlns="http://www.w3.org/2000/svg" version="1.1">
 <metadata>
  <rdf:RDF xmlns:dc="http://purl.org/dc/elements/1.1/" xmlns:cc="http://creativecommons.org/ns#" xmlns:rdf="http://www.w3.org/1999/02/22-rdf-syntax-ns#">
   <cc:Work>
    <dc:type rdf:resource="http://purl.org/dc/dcmitype/StillImage"/>
    <dc:date>2026-07-08T14:34:10.333388</dc:date>
    <dc:format>image/svg+xml</dc:format>
    <dc:creator>
     <cc:Agent>
      <dc:title>Matplotlib v3.10.0, https://matplotlib.org/</dc:title>
     </cc:Agent>
    </dc:creator>
   </cc:Work>
  </rdf:RDF>
 </metadata>
 <defs>
  <style type="text/css">*{stroke-linejoin: round; stroke-linecap: butt}</style>
 </defs>
 <g id="figure_1">
  <g id="patch_1">
   <path d="M 0 432 
L 864 432 
L 864 0 
L 0 0 
z
" style="fill: #ffffff"/>
  </g>
  <g id="axes_1">
   <g id="patch_2">
    <path d="M 51.05 390.04 
L 853.2 390.04 
L 853.2 25.44 
L 51.05 25.44 
z
" style="fill: #ffffff"/>
   </g>
   <g id="matplotlib.axis_1">
    <g id="xtick_1">
     <g id="line2d_1">
      <path d="M 92.683188 390.04 
L 92.683188 25.44 
" clip-path="url(#p849c7eceee)" style="fill: none; stroke: #b0b0b0; stroke-width: 0.8; stroke-linecap: square"/>
     </g>
     <g id="line2d_2">
      <defs>
       <path id="m30410be729" d="M 0 0 
L 0 3.5 
" style="stroke: #000000; stroke-width: 0.8"/>
      </defs>
      <g>
       <use xlink:href="#m30410be729" x="92.683188" y="390.04" style="stroke: #000000; stroke-width: 0.8"/>
      </g>
     </g>
     <g id="text_1">
      <!-- 1960 -->
      <g transform="translate(79.958188 404.638438) scale(0.1 -0.1)">
       <defs>
        <path id="DejaVuSans-31" d="M 794 531 
L 1825 531 
L 1825 4091 
L 703 3866 
L 703 4441 
L 1819 4666 
L 2450 4666 
L 2450 531 
L 3481 531 
L 3481 0 
L 794 0 
L 794 531 
z
" transform="scale(0.015625)"/>
        <path id="DejaVuSans-39" d="M 703 97 
L 703 672 
Q 941 559 1184 500 
Q 1428 441 1663 441 
Q 2288 441 2617 861 
Q 2947 1281 2994 2138 
Q 2813 1869 2534 1725 
Q 2256 1581 1919 1581 
Q 1219 1581 811 2004 
Q 403 2428 403 3163 
Q 403 3881 828 4315 
Q 1253 4750 1959 4750 
Q 2769 4750 3195 4129 
Q 3622 3509 3622 2328 
Q 3622 1225 3098 567 
Q 2575 -91 1691 -91 
Q 1453 -91 1209 -44 
Q 966 3 703 97 
z
M 1959 2075 
Q 2384 2075 2632 2365 
Q 2881 2656 2881 3163 
Q 2881 3666 2632 3958 
Q 2384 4250 1959 4250 
Q 1534 4250 1286 3958 
Q 1038 3666 1038 3163 
Q 1038 2656 1286 2365 
Q 1534 2075 1959 2075 
z
" transform="scale(0.015625)"/>
        <path id="DejaVuSans-36" d="M 2113 2584 
Q 1688 2584 1439 2293 
Q 1191 2003 1191 1497 
Q 1191 994 1439 701 
Q 1688 409 2113 409 
Q 2538 409 2786 701 
Q 3034 994 3034 1497 
Q 3034 2003 2786 2293 
Q 2538 2584 2113 2584 
z
M 3366 4563 
L 3366 3988 
Q 3128 4100 2886 4159 
Q 2644 4219 2406 4219 
Q 1781 4219 1451 3797 
Q 1122 3375 1075 2522 
Q 1259 2794 1537 2939 
Q 1816 3084 2150 3084 
Q 2853 3084 3261 2657 
Q 3669 2231 3669 1497 
Q 3669 778 3244 343 
Q 2819 -91 2113 -91 
Q 1303 -91 875 529 
Q 447 1150 447 2328 
Q 447 3434 972 4092 
Q 1497 4750 2381 4750 
Q 2619 4750 2861 4703 
Q 3103 4656 3366 4563 
z
" transform="scale(0.015625)"/>
        <path id="DejaVuSans-30" d="M 2034 4250 
Q 1547 4250 1301 3770 
Q 1056 3291 1056 2328 
Q 1056 1369 1301 889 
Q 1547 409 2034 409 
Q 2525 409 2770 889 
Q 3016 1369 3016 2328 
Q 3016 3291 2770 3770 
Q 2525 4250 2034 4250 
z
M 2034 4750 
Q 2819 4750 3233 4129 
Q 3647 3509 3647 2328 
Q 3647 1150 3233 529 
Q 2819 -91 2034 -91 
Q 1250 -91 836 529 
Q 422 1150 422 2328 
Q 422 3509 836 4129 
Q 1250 4750 2034 4750 
z
" transform="scale(0.015625)"/>
       </defs>
       <use xlink:href="#DejaVuSans-31"/>
       <use xlink:href="#DejaVuSans-39" transform="translate(63.623047 0)"/>
       <use xlink:href="#DejaVuSans-36" transform="translate(127.246094 0)"/>
       <use xlink:href="#DejaVuSans-30" transform="translate(190.869141 0)"/>
      </g>
     </g>
    </g>
    <g id="xtick_2">
     <g id="line2d_3">
      <path d="M 196.119681 390.04 
L 196.119681 25.44 
" clip-path="url(#p849c7eceee)" style="fill: none; stroke: #b0b0b0; stroke-width: 0.8; stroke-linecap: square"/>
     </g>
     <g id="line2d_4">
      <g>
       <use xlink:href="#m30410be729" x="196.119681" y="390.04" style="stroke: #000000; stroke-width: 0.8"/>
      </g>
     </g>
     <g id="text_2">
      <!-- 1980 -->
      <g transform="translate(183.394681 404.638438) scale(0.1 -0.1)">
       <defs>
        <path id="DejaVuSans-38" d="M 2034 2216 
Q 1584 2216 1326 1975 
Q 1069 1734 1069 1313 
Q 1069 891 1326 650 
Q 1584 409 2034 409 
Q 2484 409 2743 651 
Q 3003 894 3003 1313 
Q 3003 1734 2745 1975 
Q 2488 2216 2034 2216 
z
M 1403 2484 
Q 997 2584 770 2862 
Q 544 3141 544 3541 
Q 544 4100 942 4425 
Q 1341 4750 2034 4750 
Q 2731 4750 3128 4425 
Q 3525 4100 3525 3541 
Q 3525 3141 3298 2862 
Q 3072 2584 2669 2484 
Q 3125 2378 3379 2068 
Q 3634 1759 3634 1313 
Q 3634 634 3220 271 
Q 2806 -91 2034 -91 
Q 1263 -91 848 271 
Q 434 634 434 1313 
Q 434 1759 690 2068 
Q 947 2378 1403 2484 
z
M 1172 3481 
Q 1172 3119 1398 2916 
Q 1625 2713 2034 2713 
Q 2441 2713 2670 2916 
Q 2900 3119 2900 3481 
Q 2900 3844 2670 4047 
Q 2441 4250 2034 4250 
Q 1625 4250 1398 4047 
Q 1172 3844 1172 3481 
z
" transform="scale(0.015625)"/>
       </defs>
       <use xlink:href="#DejaVuSans-31"/>
       <use xlink:href="#DejaVuSans-39" transform="translate(63.623047 0)"/>
       <use xlink:href="#DejaVuSans-38" transform="translate(127.246094 0)"/>
       <use xlink:href="#DejaVuSans-30" transform="translate(190.869141 0)"/>
      </g>
     </g>
    </g>
    <g id="xtick_3">
     <g id="line2d_5">
      <path d="M 299.556173 390.04 
L 299.556173 25.44 
" clip-path="url(#p849c7eceee)" style="fill: none; stroke: #b0b0b0; stroke-width: 0.8; stroke-linecap: square"/>
     </g>
     <g id="line2d_6">
      <g>
       <use xlink:href="#m30410be729" x="299.556173" y="390.04" style="stroke: #000000; stroke-width: 0.8"/>
      </g>
     </g>
     <g id="text_3">
      <!-- 2000 -->
      <g transform="translate(286.831173 404.638438) scale(0.1 -0.1)">
       <defs>
        <path id="DejaVuSans-32" d="M 1228 531 
L 3431 531 
L 3431 0 
L 469 0 
L 469 531 
Q 828 903 1448 1529 
Q 2069 2156 2228 2338 
Q 2531 2678 2651 2914 
Q 2772 3150 2772 3378 
Q 2772 3750 2511 3984 
Q 2250 4219 1831 4219 
Q 1534 4219 1204 4116 
Q 875 4013 500 3803 
L 500 4441 
Q 881 4594 1212 4672 
Q 1544 4750 1819 4750 
Q 2544 4750 2975 4387 
Q 3406 4025 3406 3419 
Q 3406 3131 3298 2873 
Q 3191 2616 2906 2266 
Q 2828 2175 2409 1742 
Q 1991 1309 1228 531 
z
" transform="scale(0.015625)"/>
       </defs>
       <use xlink:href="#DejaVuSans-32"/>
       <use xlink:href="#DejaVuSans-30" transform="translate(63.623047 0)"/>
       <use xlink:href="#DejaVuSans-30" transform="translate(127.246094 0)"/>
       <use xlink:href="#DejaVuSans-30" transform="translate(190.869141 0)"/>
      </g>
     </g>
    </g>
    <g id="xtick_4">
     <g id="line2d_7">
      <path d="M 402.992666 390.04 
L 402.992666 25.44 
" clip-path="url(#p849c7eceee)" style="fill: none; stroke: #b0b0b0; stroke-width: 0.8; stroke-linecap: square"/>
     </g>
     <g id="line2d_8">
      <g>
       <use xlink:href="#m30410be729" x="402.992666" y="390.04" style="stroke: #000000; stroke-width: 0.8"/>
      </g>
     </g>
     <g id="text_4">
      <!-- 2020 -->
      <g transform="translate(390.267666 404.638438) scale(0.1 -0.1)">
       <use xlink:href="#DejaVuSans-32"/>
       <use xlink:href="#DejaVuSans-30" transform="translate(63.623047 0)"/>
       <use xlink:href="#DejaVuSans-32" transform="translate(127.246094 0)"/>
       <use xlink:href="#DejaVuSans-30" transform="translate(190.869141 0)"/>
      </g>
     </g>
    </g>
    <g id="xtick_5">
     <g id="line2d_9">
      <path d="M 506.429159 390.04 
L 506.429159 25.44 
" clip-path="url(#p849c7eceee)" style="fill: none; stroke: #b0b0b0; stroke-width: 0.8; stroke-linecap: square"/>
     </g>
     <g id="line2d_10">
      <g>
       <use xlink:href="#m30410be729" x="506.429159" y="390.04" style="stroke: #000000; stroke-width: 0.8"/>
      </g>
     </g>
     <g id="text_5">
      <!-- 2040 -->
      <g transform="translate(493.704159 404.638438) scale(0.1 -0.1)">
       <defs>
        <path id="DejaVuSans-34" d="M 2419 4116 
L 825 1625 
L 2419 1625 
L 2419 4116 
z
M 2253 4666 
L 3047 4666 
L 3047 1625 
L 3713 1625 
L 3713 1100 
L 3047 1100 
L 3047 0 
L 2419 0 
L 2419 1100 
L 313 1100 
L 313 1709 
L 2253 4666 
z
" transform="scale(0.015625)"/>
       </defs>
       <use xlink:href="#DejaVuSans-32"/>
       <use xlink:href="#DejaVuSans-30" transform="translate(63.623047 0)"/>
       <use xlink:href="#DejaVuSans-34" transform="translate(127.246094 0)"/>
       <use xlink:href="#DejaVuSans-30" transform="translate(190.869141 0)"/>
      </g>
     </g>
    </g>
    <g id="xtick_6">
     <g id="line2d_11">
      <path d="M 609.865651 390.04 
L 609.865651 25.44 
" clip-path="url(#p849c7eceee)" style="fill: none; stroke: #b0b0b0; stroke-width: 0.8; stroke-linecap: square"/>
     </g>
     <g id="line2d_12">
      <g>
       <use xlink:href="#m30410be729" x="609.865651" y="390.04" style="stroke: #000000; stroke-width: 0.8"/>
      </g>
     </g>
     <g id="text_6">
      <!-- 2060 -->
      <g transform="translate(597.140651 404.638438) scale(0.1 -0.1)">
       <use xlink:href="#DejaVuSans-32"/>
       <use xlink:href="#DejaVuSans-30" transform="translate(63.623047 0)"/>
       <use xlink:href="#DejaVuSans-36" transform="translate(127.246094 0)"/>
       <use xlink:href="#DejaVuSans-30" transform="translate(190.869141 0)"/>
      </g>
     </g>
    </g>
    <g id="xtick_7">
     <g id="line2d_13">
      <path d="M 713.302144 390.04 
L 713.302144 25.44 
" clip-path="url(#p849c7eceee)" style="fill: none; stroke: #b0b0b0; stroke-width: 0.8; stroke-linecap: square"/>
     </g>
     <g id="line2d_14">
      <g>
       <use xlink:href="#m30410be729" x="713.302144" y="390.04" style="stroke: #000000; stroke-width: 0.8"/>
      </g>
     </g>
     <g id="text_7">
      <!-- 2080 -->
      <g transform="translate(700.577144 404.638438) scale(0.1 -0.1)">
       <use xlink:href="#DejaVuSans-32"/>
       <use xlink:href="#DejaVuSans-30" transform="translate(63.623047 0)"/>
       <use xlink:href="#DejaVuSans-38" transform="translate(127.246094 0)"/>
       <use xlink:href="#DejaVuSans-30" transform="translate(190.869141 0)"/>
      </g>
     </g>
    </g>
    <g id="xtick_8">
     <g id="line2d_15">
      <path d="M 816.738636 390.04 
L 816.738636 25.44 
" clip-path="url(#p849c7eceee)" style="fill: none; stroke: #b0b0b0; stroke-width: 0.8; stroke-linecap: square"/>
     </g>
     <g id="line2d_16">
      <g>
       <use xlink:href="#m30410be729" x="816.738636" y="390.04" style="stroke: #000000; stroke-width: 0.8"/>
      </g>
     </g>
     <g id="text_8">
      <!-- 2100 -->
      <g transform="translate(804.013636 404.638438) scale(0.1 -0.1)">
       <use xlink:href="#DejaVuSans-32"/>
       <use xlink:href="#DejaVuSans-31" transform="translate(63.623047 0)"/>
       <use xlink:href="#DejaVuSans-30" transform="translate(127.246094 0)"/>
       <use xlink:href="#DejaVuSans-30" transform="translate(190.869141 0)"/>
      </g>
     </g>
    </g>
    <g id="text_9">
     <!-- Year -->
     <g transform="translate(441.5375 418.316562) scale(0.1 -0.1)">
      <defs>
       <path id="DejaVuSans-59" d="M -13 4666 
L 666 4666 
L 1959 2747 
L 3244 4666 
L 3922 4666 
L 2272 2222 
L 2272 0 
L 1638 0 
L 1638 2222 
L -13 4666 
z
" transform="scale(0.015625)"/>
       <path id="DejaVuSans-65" d="M 3597 1894 
L 3597 1613 
L 953 1613 
Q 991 1019 1311 708 
Q 1631 397 2203 397 
Q 2534 397 2845 478 
Q 3156 559 3463 722 
L 3463 178 
Q 3153 47 2828 -22 
Q 2503 -91 2169 -91 
Q 1331 -91 842 396 
Q 353 884 353 1716 
Q 353 2575 817 3079 
Q 1281 3584 2069 3584 
Q 2775 3584 3186 3129 
Q 3597 2675 3597 1894 
z
M 3022 2063 
Q 3016 2534 2758 2815 
Q 2500 3097 2075 3097 
Q 1594 3097 1305 2825 
Q 1016 2553 972 2059 
L 3022 2063 
z
" transform="scale(0.015625)"/>
       <path id="DejaVuSans-61" d="M 2194 1759 
Q 1497 1759 1228 1600 
Q 959 1441 959 1056 
Q 959 750 1161 570 
Q 1363 391 1709 391 
Q 2188 391 2477 730 
Q 2766 1069 2766 1631 
L 2766 1759 
L 2194 1759 
z
M 3341 1997 
L 3341 0 
L 2766 0 
L 2766 531 
Q 2569 213 2275 61 
Q 1981 -91 1556 -91 
Q 1019 -91 701 211 
Q 384 513 384 1019 
Q 384 1609 779 1909 
Q 1175 2209 1959 2209 
L 2766 2209 
L 2766 2266 
Q 2766 2663 2505 2880 
Q 2244 3097 1772 3097 
Q 1472 3097 1187 3025 
Q 903 2953 641 2809 
L 641 3341 
Q 956 3463 1253 3523 
Q 1550 3584 1831 3584 
Q 2591 3584 2966 3190 
Q 3341 2797 3341 1997 
z
" transform="scale(0.015625)"/>
       <path id="DejaVuSans-72" d="M 2631 2963 
Q 2534 3019 2420 3045 
Q 2306 3072 2169 3072 
Q 1681 3072 1420 2755 
Q 1159 2438 1159 1844 
L 1159 0 
L 581 0 
L 581 3500 
L 1159 3500 
L 1159 2956 
Q 1341 3275 1631 3429 
Q 1922 3584 2338 3584 
Q 2397 3584 2469 3576 
Q 2541 3569 2628 3553 
L 2631 2963 
z
" transform="scale(0.015625)"/>
      </defs>
      <use xlink:href="#DejaVuSans-59"/>
      <use xlink:href="#DejaVuSans-65" transform="translate(47.833984 0)"/>
      <use xlink:href="#DejaVuSans-61" transform="translate(109.357422 0)"/>
      <use xlink:href="#DejaVuSans-72" transform="translate(170.636719 0)"/>
     </g>
    </g>
   </g>
   <g id="matplotlib.axis_2">
    <g id="ytick_1">
     <g id="line2d_17">
      <path d="M 51.05 387.6923 
L 853.2 387.6923 
" clip-path="url(#p849c7eceee)" style="fill: none; stroke: #b0b0b0; stroke-width: 0.8; stroke-linecap: square"/>
     </g>
     <g id="line2d_18">
      <defs>
       <path id="md0f555758e" d="M 0 0 
L -3.5 0 
" style="stroke: #000000; stroke-width: 0.8"/>
      </defs>
      <g>
       <use xlink:href="#md0f555758e" x="51.05" y="387.6923" style="stroke: #000000; stroke-width: 0.8"/>
      </g>
     </g>
     <g id="text_10">
      <!-- 300 -->
      <g transform="translate(24.9625 391.491519) scale(0.1 -0.1)">
       <defs>
        <path id="DejaVuSans-33" d="M 2597 2516 
Q 3050 2419 3304 2112 
Q 3559 1806 3559 1356 
Q 3559 666 3084 287 
Q 2609 -91 1734 -91 
Q 1441 -91 1130 -33 
Q 819 25 488 141 
L 488 750 
Q 750 597 1062 519 
Q 1375 441 1716 441 
Q 2309 441 2620 675 
Q 2931 909 2931 1356 
Q 2931 1769 2642 2001 
Q 2353 2234 1838 2234 
L 1294 2234 
L 1294 2753 
L 1863 2753 
Q 2328 2753 2575 2939 
Q 2822 3125 2822 3475 
Q 2822 3834 2567 4026 
Q 2313 4219 1838 4219 
Q 1578 4219 1281 4162 
Q 984 4106 628 3988 
L 628 4550 
Q 988 4650 1302 4700 
Q 1616 4750 1894 4750 
Q 2613 4750 3031 4423 
Q 3450 4097 3450 3541 
Q 3450 3153 3228 2886 
Q 3006 2619 2597 2516 
z
" transform="scale(0.015625)"/>
       </defs>
       <use xlink:href="#DejaVuSans-33"/>
       <use xlink:href="#DejaVuSans-30" transform="translate(63.623047 0)"/>
       <use xlink:href="#DejaVuSans-30" transform="translate(127.246094 0)"/>
      </g>
     </g>
    </g>
    <g id="ytick_2">
     <g id="line2d_19">
      <path d="M 51.05 343.183454 
L 853.2 343.183454 
" clip-path="url(#p849c7eceee)" style="fill: none; stroke: #b0b0b0; stroke-width: 0.8; stroke-linecap: square"/>
     </g>
     <g id="line2d_20">
      <g>
       <use xlink:href="#md0f555758e" x="51.05" y="343.183454" style="stroke: #000000; stroke-width: 0.8"/>
      </g>
     </g>
     <g id="text_11">
      <!-- 350 -->
      <g transform="translate(24.9625 346.982673) scale(0.1 -0.1)">
       <defs>
        <path id="DejaVuSans-35" d="M 691 4666 
L 3169 4666 
L 3169 4134 
L 1269 4134 
L 1269 2991 
Q 1406 3038 1543 3061 
Q 1681 3084 1819 3084 
Q 2600 3084 3056 2656 
Q 3513 2228 3513 1497 
Q 3513 744 3044 326 
Q 2575 -91 1722 -91 
Q 1428 -91 1123 -41 
Q 819 9 494 109 
L 494 744 
Q 775 591 1075 516 
Q 1375 441 1709 441 
Q 2250 441 2565 725 
Q 2881 1009 2881 1497 
Q 2881 1984 2565 2268 
Q 2250 2553 1709 2553 
Q 1456 2553 1204 2497 
Q 953 2441 691 2322 
L 691 4666 
z
" transform="scale(0.015625)"/>
       </defs>
       <use xlink:href="#DejaVuSans-33"/>
       <use xlink:href="#DejaVuSans-35" transform="translate(63.623047 0)"/>
       <use xlink:href="#DejaVuSans-30" transform="translate(127.246094 0)"/>
      </g>
     </g>
    </g>
    <g id="ytick_3">
     <g id="line2d_21">
      <path d="M 51.05 298.674608 
L 853.2 298.674608 
" clip-path="url(#p849c7eceee)" style="fill: none; stroke: #b0b0b0; stroke-width: 0.8; stroke-linecap: square"/>
     </g>
     <g id="line2d_22">
      <g>
       <use xlink:href="#md0f555758e" x="51.05" y="298.674608" style="stroke: #000000; stroke-width: 0.8"/>
      </g>
     </g>
     <g id="text_12">
      <!-- 400 -->
      <g transform="translate(24.9625 302.473827) scale(0.1 -0.1)">
       <use xlink:href="#DejaVuSans-34"/>
       <use xlink:href="#DejaVuSans-30" transform="translate(63.623047 0)"/>
       <use xlink:href="#DejaVuSans-30" transform="translate(127.246094 0)"/>
      </g>
     </g>
    </g>
    <g id="ytick_4">
     <g id="line2d_23">
      <path d="M 51.05 254.165762 
L 853.2 254.165762 
" clip-path="url(#p849c7eceee)" style="fill: none; stroke: #b0b0b0; stroke-width: 0.8; stroke-linecap: square"/>
     </g>
     <g id="line2d_24">
      <g>
       <use xlink:href="#md0f555758e" x="51.05" y="254.165762" style="stroke: #000000; stroke-width: 0.8"/>
      </g>
     </g>
     <g id="text_13">
      <!-- 450 -->
      <g transform="translate(24.9625 257.964981) scale(0.1 -0.1)">
       <use xlink:href="#DejaVuSans-34"/>
       <use xlink:href="#DejaVuSans-35" transform="translate(63.623047 0)"/>
       <use xlink:href="#DejaVuSans-30" transform="translate(127.246094 0)"/>
      </g>
     </g>
    </g>
    <g id="ytick_5">
     <g id="line2d_25">
      <path d="M 51.05 209.656917 
L 853.2 209.656917 
" clip-path="url(#p849c7eceee)" style="fill: none; stroke: #b0b0b0; stroke-width: 0.8; stroke-linecap: square"/>
     </g>
     <g id="line2d_26">
      <g>
       <use xlink:href="#md0f555758e" x="51.05" y="209.656917" style="stroke: #000000; stroke-width: 0.8"/>
      </g>
     </g>
     <g id="text_14">
      <!-- 500 -->
      <g transform="translate(24.9625 213.456135) scale(0.1 -0.1)">
       <use xlink:href="#DejaVuSans-35"/>
       <use xlink:href="#DejaVuSans-30" transform="translate(63.623047 0)"/>
       <use xlink:href="#DejaVuSans-30" transform="translate(127.246094 0)"/>
      </g>
     </g>
    </g>
    <g id="ytick_6">
     <g id="line2d_27">
      <path d="M 51.05 165.148071 
L 853.2 165.148071 
" clip-path="url(#p849c7eceee)" style="fill: none; stroke: #b0b0b0; stroke-width: 0.8; stroke-linecap: square"/>
     </g>
     <g id="line2d_28">
      <g>
       <use xlink:href="#md0f555758e" x="51.05" y="165.148071" style="stroke: #000000; stroke-width: 0.8"/>
      </g>
     </g>
     <g id="text_15">
      <!-- 550 -->
      <g transform="translate(24.9625 168.94729) scale(0.1 -0.1)">
       <use xlink:href="#DejaVuSans-35"/>
       <use xlink:href="#DejaVuSans-35" transform="translate(63.623047 0)"/>
       <use xlink:href="#DejaVuSans-30" transform="translate(127.246094 0)"/>
      </g>
     </g>
    </g>
    <g id="ytick_7">
     <g id="line2d_29">
      <path d="M 51.05 120.639225 
L 853.2 120.639225 
" clip-path="url(#p849c7eceee)" style="fill: none; stroke: #b0b0b0; stroke-width: 0.8; stroke-linecap: square"/>
     </g>
     <g id="line2d_30">
      <g>
       <use xlink:href="#md0f555758e" x="51.05" y="120.639225" style="stroke: #000000; stroke-width: 0.8"/>
      </g>
     </g>
     <g id="text_16">
      <!-- 600 -->
      <g transform="translate(24.9625 124.438444) scale(0.1 -0.1)">
       <use xlink:href="#DejaVuSans-36"/>
       <use xlink:href="#DejaVuSans-30" transform="translate(63.623047 0)"/>
       <use xlink:href="#DejaVuSans-30" transform="translate(127.246094 0)"/>
      </g>
     </g>
    </g>
    <g id="ytick_8">
     <g id="line2d_31">
      <path d="M 51.05 76.130379 
L 853.2 76.130379 
" clip-path="url(#p849c7eceee)" style="fill: none; stroke: #b0b0b0; stroke-width: 0.8; stroke-linecap: square"/>
     </g>
     <g id="line2d_32">
      <g>
       <use xlink:href="#md0f555758e" x="51.05" y="76.130379" style="stroke: #000000; stroke-width: 0.8"/>
      </g>
     </g>
     <g id="text_17">
      <!-- 650 -->
      <g transform="translate(24.9625 79.929598) scale(0.1 -0.1)">
       <use xlink:href="#DejaVuSans-36"/>
       <use xlink:href="#DejaVuSans-35" transform="translate(63.623047 0)"/>
       <use xlink:href="#DejaVuSans-30" transform="translate(127.246094 0)"/>
      </g>
     </g>
    </g>
    <g id="ytick_9">
     <g id="line2d_33">
      <path d="M 51.05 31.621533 
L 853.2 31.621533 
" clip-path="url(#p849c7eceee)" style="fill: none; stroke: #b0b0b0; stroke-width: 0.8; stroke-linecap: square"/>
     </g>
     <g id="line2d_34">
      <g>
       <use xlink:href="#md0f555758e" x="51.05" y="31.621533" style="stroke: #000000; stroke-width: 0.8"/>
      </g>
     </g>
     <g id="text_18">
      <!-- 700 -->
      <g transform="translate(24.9625 35.420752) scale(0.1 -0.1)">
       <defs>
        <path id="DejaVuSans-37" d="M 525 4666 
L 3525 4666 
L 3525 4397 
L 1831 0 
L 1172 0 
L 2766 4134 
L 525 4134 
L 525 4666 
z
" transform="scale(0.015625)"/>
       </defs>
       <use xlink:href="#DejaVuSans-37"/>
       <use xlink:href="#DejaVuSans-30" transform="translate(63.623047 0)"/>
       <use xlink:href="#DejaVuSans-30" transform="translate(127.246094 0)"/>
      </g>
     </g>
    </g>
    <g id="text_19">
     <!-- CO2 concentration / ppm -->
     <g transform="translate(18.882813 270.647812) rotate(-90) scale(0.1 -0.1)">
      <defs>
       <path id="DejaVuSans-43" d="M 4122 4306 
L 4122 3641 
Q 3803 3938 3442 4084 
Q 3081 4231 2675 4231 
Q 1875 4231 1450 3742 
Q 1025 3253 1025 2328 
Q 1025 1406 1450 917 
Q 1875 428 2675 428 
Q 3081 428 3442 575 
Q 3803 722 4122 1019 
L 4122 359 
Q 3791 134 3420 21 
Q 3050 -91 2638 -91 
Q 1578 -91 968 557 
Q 359 1206 359 2328 
Q 359 3453 968 4101 
Q 1578 4750 2638 4750 
Q 3056 4750 3426 4639 
Q 3797 4528 4122 4306 
z
" transform="scale(0.015625)"/>
       <path id="DejaVuSans-4f" d="M 2522 4238 
Q 1834 4238 1429 3725 
Q 1025 3213 1025 2328 
Q 1025 1447 1429 934 
Q 1834 422 2522 422 
Q 3209 422 3611 934 
Q 4013 1447 4013 2328 
Q 4013 3213 3611 3725 
Q 3209 4238 2522 4238 
z
M 2522 4750 
Q 3503 4750 4090 4092 
Q 4678 3434 4678 2328 
Q 4678 1225 4090 567 
Q 3503 -91 2522 -91 
Q 1538 -91 948 565 
Q 359 1222 359 2328 
Q 359 3434 948 4092 
Q 1538 4750 2522 4750 
z
" transform="scale(0.015625)"/>
       <path id="DejaVuSans-20" transform="scale(0.015625)"/>
       <path id="DejaVuSans-63" d="M 3122 3366 
L 3122 2828 
Q 2878 2963 2633 3030 
Q 2388 3097 2138 3097 
Q 1578 3097 1268 2742 
Q 959 2388 959 1747 
Q 959 1106 1268 751 
Q 1578 397 2138 397 
Q 2388 397 2633 464 
Q 2878 531 3122 666 
L 3122 134 
Q 2881 22 2623 -34 
Q 2366 -91 2075 -91 
Q 1284 -91 818 406 
Q 353 903 353 1747 
Q 353 2603 823 3093 
Q 1294 3584 2113 3584 
Q 2378 3584 2631 3529 
Q 2884 3475 3122 3366 
z
" transform="scale(0.015625)"/>
       <path id="DejaVuSans-6f" d="M 1959 3097 
Q 1497 3097 1228 2736 
Q 959 2375 959 1747 
Q 959 1119 1226 758 
Q 1494 397 1959 397 
Q 2419 397 2687 759 
Q 2956 1122 2956 1747 
Q 2956 2369 2687 2733 
Q 2419 3097 1959 3097 
z
M 1959 3584 
Q 2709 3584 3137 3096 
Q 3566 2609 3566 1747 
Q 3566 888 3137 398 
Q 2709 -91 1959 -91 
Q 1206 -91 779 398 
Q 353 888 353 1747 
Q 353 2609 779 3096 
Q 1206 3584 1959 3584 
z
" transform="scale(0.015625)"/>
       <path id="DejaVuSans-6e" d="M 3513 2113 
L 3513 0 
L 2938 0 
L 2938 2094 
Q 2938 2591 2744 2837 
Q 2550 3084 2163 3084 
Q 1697 3084 1428 2787 
Q 1159 2491 1159 1978 
L 1159 0 
L 581 0 
L 581 3500 
L 1159 3500 
L 1159 2956 
Q 1366 3272 1645 3428 
Q 1925 3584 2291 3584 
Q 2894 3584 3203 3211 
Q 3513 2838 3513 2113 
z
" transform="scale(0.015625)"/>
       <path id="DejaVuSans-74" d="M 1172 4494 
L 1172 3500 
L 2356 3500 
L 2356 3053 
L 1172 3053 
L 1172 1153 
Q 1172 725 1289 603 
Q 1406 481 1766 481 
L 2356 481 
L 2356 0 
L 1766 0 
Q 1100 0 847 248 
Q 594 497 594 1153 
L 594 3053 
L 172 3053 
L 172 3500 
L 594 3500 
L 594 4494 
L 1172 4494 
z
" transform="scale(0.015625)"/>
       <path id="DejaVuSans-69" d="M 603 3500 
L 1178 3500 
L 1178 0 
L 603 0 
L 603 3500 
z
M 603 4863 
L 1178 4863 
L 1178 4134 
L 603 4134 
L 603 4863 
z
" transform="scale(0.015625)"/>
       <path id="DejaVuSans-2f" d="M 1625 4666 
L 2156 4666 
L 531 -594 
L 0 -594 
L 1625 4666 
z
" transform="scale(0.015625)"/>
       <path id="DejaVuSans-70" d="M 1159 525 
L 1159 -1331 
L 581 -1331 
L 581 3500 
L 1159 3500 
L 1159 2969 
Q 1341 3281 1617 3432 
Q 1894 3584 2278 3584 
Q 2916 3584 3314 3078 
Q 3713 2572 3713 1747 
Q 3713 922 3314 415 
Q 2916 -91 2278 -91 
Q 1894 -91 1617 61 
Q 1341 213 1159 525 
z
M 3116 1747 
Q 3116 2381 2855 2742 
Q 2594 3103 2138 3103 
Q 1681 3103 1420 2742 
Q 1159 2381 1159 1747 
Q 1159 1113 1420 752 
Q 1681 391 2138 391 
Q 2594 391 2855 752 
Q 3116 1113 3116 1747 
z
" transform="scale(0.015625)"/>
       <path id="DejaVuSans-6d" d="M 3328 2828 
Q 3544 3216 3844 3400 
Q 4144 3584 4550 3584 
Q 5097 3584 5394 3201 
Q 5691 2819 5691 2113 
L 5691 0 
L 5113 0 
L 5113 2094 
Q 5113 2597 4934 2840 
Q 4756 3084 4391 3084 
Q 3944 3084 3684 2787 
Q 3425 2491 3425 1978 
L 3425 0 
L 2847 0 
L 2847 2094 
Q 2847 2600 2669 2842 
Q 2491 3084 2119 3084 
Q 1678 3084 1418 2786 
Q 1159 2488 1159 1978 
L 1159 0 
L 581 0 
L 581 3500 
L 1159 3500 
L 1159 2956 
Q 1356 3278 1631 3431 
Q 1906 3584 2284 3584 
Q 2666 3584 2933 3390 
Q 3200 3197 3328 2828 
z
" transform="scale(0.015625)"/>
      </defs>
      <use xlink:href="#DejaVuSans-43"/>
      <use xlink:href="#DejaVuSans-4f" transform="translate(69.824219 0)"/>
      <use xlink:href="#DejaVuSans-32" transform="translate(148.535156 0)"/>
      <use xlink:href="#DejaVuSans-20" transform="translate(212.158203 0)"/>
      <use xlink:href="#DejaVuSans-63" transform="translate(243.945312 0)"/>
      <use xlink:href="#DejaVuSans-6f" transform="translate(298.925781 0)"/>
      <use xlink:href="#DejaVuSans-6e" transform="translate(360.107422 0)"/>
      <use xlink:href="#DejaVuSans-63" transform="translate(423.486328 0)"/>
      <use xlink:href="#DejaVuSans-65" transform="translate(478.466797 0)"/>
      <use xlink:href="#DejaVuSans-6e" transform="translate(539.990234 0)"/>
      <use xlink:href="#DejaVuSans-74" transform="translate(603.369141 0)"/>
      <use xlink:href="#DejaVuSans-72" transform="translate(642.578125 0)"/>
      <use xlink:href="#DejaVuSans-61" transform="translate(683.691406 0)"/>
      <use xlink:href="#DejaVuSans-74" transform="translate(744.970703 0)"/>
      <use xlink:href="#DejaVuSans-69" transform="translate(784.179688 0)"/>
      <use xlink:href="#DejaVuSans-6f" transform="translate(811.962891 0)"/>
      <use xlink:href="#DejaVuSans-6e" transform="translate(873.144531 0)"/>
      <use xlink:href="#DejaVuSans-20" transform="translate(936.523438 0)"/>
      <use xlink:href="#DejaVuSans-2f" transform="translate(968.310547 0)"/>
      <use xlink:href="#DejaVuSans-20" transform="translate(1002.001953 0)"/>
      <use xlink:href="#DejaVuSans-70" transform="translate(1033.789062 0)"/>
      <use xlink:href="#DejaVuSans-70" transform="translate(1097.265625 0)"/>
      <use xlink:href="#DejaVuSans-6d" transform="translate(1160.742188 0)"/>
     </g>
    </g>
   </g>
   <g id="line2d_35">
    <path d="M 87.511364 373.467273 
L 92.683188 372.639408 
L 97.855013 371.989579 
L 103.026838 371.268536 
L 108.198662 370.78784 
L 113.370487 370.227029 
L 118.542311 369.853154 
L 123.714136 368.669219 
L 128.885961 367.948176 
L 134.057785 367.173722 
L 139.22961 365.776144 
L 144.401435 364.832557 
L 149.573259 364.262843 
L 154.745084 363.248042 
L 159.916908 361.271849 
L 165.088733 360.817859 
L 170.260558 359.981092 
L 175.432382 359.179933 
L 180.604207 357.568713 
L 185.776032 356.171135 
L 190.947856 354.898182 
L 196.119681 353.189043 
L 201.291505 351.978402 
L 206.46333 350.767761 
L 211.635155 349.281166 
L 216.806979 347.750062 
L 221.978804 346.4326 
L 227.150629 345.310977 
L 232.322453 343.797676 
L 237.494278 341.679055 
L 242.666103 340.334888 
L 247.837927 339.222167 
L 253.009752 338.109446 
L 258.181576 337.361697 
L 263.353401 336.765278 
L 268.525226 335.207469 
L 273.69705 333.418213 
L 278.868875 331.8426 
L 284.0407 330.827798 
L 289.212524 328.192875 
L 294.384349 326.679574 
L 299.556173 325.638067 
L 304.727998 324.204882 
L 309.899823 322.308805 
L 315.071647 320.056658 
L 320.243472 318.525553 
L 325.415297 316.49595 
L 330.587121 314.617677 
L 335.758946 312.899635 
L 340.93077 311.288415 
L 346.102595 309.677195 
L 351.27442 307.48736 
L 356.446244 305.92955 
L 361.618069 303.962259 
L 366.789894 301.576585 
L 371.961718 299.733919 
L 377.133543 297.77553 
L 382.305368 294.748928 
L 387.477192 292.657012 
L 392.649017 290.912266 
L 397.820841 288.295145 
L 402.992666 285.998489 
L 408.164491 284.031198 
" clip-path="url(#p849c7eceee)" style="fill: none; stroke: #000000; stroke-width: 2; stroke-linecap: square"/>
    <defs>
     <path id="m025dbb93e4" d="M 0 1.5 
C 0.397805 1.5 0.77937 1.341951 1.06066 1.06066 
C 1.341951 0.77937 1.5 0.397805 1.5 0 
C 1.5 -0.397805 1.341951 -0.77937 1.06066 -1.06066 
C 0.77937 -1.341951 0.397805 -1.5 0 -1.5 
C -0.397805 -1.5 -0.77937 -1.341951 -1.06066 -1.06066 
C -1.341951 -0.77937 -1.5 -0.397805 -1.5 0 
C -1.5 0.397805 -1.341951 0.77937 -1.06066 1.06066 
C -0.77937 1.341951 -0.397805 1.5 0 1.5 
z
" style="stroke: #000000"/>
    </defs>
    <g clip-path="url(#p849c7eceee)">
     <use xlink:href="#m025dbb93e4" x="87.511364" y="373.467273" style="stroke: #000000"/>
     <use xlink:href="#m025dbb93e4" x="92.683188" y="372.639408" style="stroke: #000000"/>
     <use xlink:href="#m025dbb93e4" x="97.855013" y="371.989579" style="stroke: #000000"/>
     <use xlink:href="#m025dbb93e4" x="103.026838" y="371.268536" style="stroke: #000000"/>
     <use xlink:href="#m025dbb93e4" x="108.198662" y="370.78784" style="stroke: #000000"/>
     <use xlink:href="#m025dbb93e4" x="113.370487" y="370.227029" style="stroke: #000000"/>
     <use xlink:href="#m025dbb93e4" x="118.542311" y="369.853154" style="stroke: #000000"/>
     <use xlink:href="#m025dbb93e4" x="123.714136" y="368.669219" style="stroke: #000000"/>
     <use xlink:href="#m025dbb93e4" x="128.885961" y="367.948176" style="stroke: #000000"/>
     <use xlink:href="#m025dbb93e4" x="134.057785" y="367.173722" style="stroke: #000000"/>
     <use xlink:href="#m025dbb93e4" x="139.22961" y="365.776144" style="stroke: #000000"/>
     <use xlink:href="#m025dbb93e4" x="144.401435" y="364.832557" style="stroke: #000000"/>
     <use xlink:href="#m025dbb93e4" x="149.573259" y="364.262843" style="stroke: #000000"/>
     <use xlink:href="#m025dbb93e4" x="154.745084" y="363.248042" style="stroke: #000000"/>
     <use xlink:href="#m025dbb93e4" x="159.916908" y="361.271849" style="stroke: #000000"/>
     <use xlink:href="#m025dbb93e4" x="165.088733" y="360.817859" style="stroke: #000000"/>
     <use xlink:href="#m025dbb93e4" x="170.260558" y="359.981092" style="stroke: #000000"/>
     <use xlink:href="#m025dbb93e4" x="175.432382" y="359.179933" style="stroke: #000000"/>
     <use xlink:href="#m025dbb93e4" x="180.604207" y="357.568713" style="stroke: #000000"/>
     <use xlink:href="#m025dbb93e4" x="185.776032" y="356.171135" style="stroke: #000000"/>
     <use xlink:href="#m025dbb93e4" x="190.947856" y="354.898182" style="stroke: #000000"/>
     <use xlink:href="#m025dbb93e4" x="196.119681" y="353.189043" style="stroke: #000000"/>
     <use xlink:href="#m025dbb93e4" x="201.291505" y="351.978402" style="stroke: #000000"/>
     <use xlink:href="#m025dbb93e4" x="206.46333" y="350.767761" style="stroke: #000000"/>
     <use xlink:href="#m025dbb93e4" x="211.635155" y="349.281166" style="stroke: #000000"/>
     <use xlink:href="#m025dbb93e4" x="216.806979" y="347.750062" style="stroke: #000000"/>
     <use xlink:href="#m025dbb93e4" x="221.978804" y="346.4326" style="stroke: #000000"/>
     <use xlink:href="#m025dbb93e4" x="227.150629" y="345.310977" style="stroke: #000000"/>
     <use xlink:href="#m025dbb93e4" x="232.322453" y="343.797676" style="stroke: #000000"/>
     <use xlink:href="#m025dbb93e4" x="237.494278" y="341.679055" style="stroke: #000000"/>
     <use xlink:href="#m025dbb93e4" x="242.666103" y="340.334888" style="stroke: #000000"/>
     <use xlink:href="#m025dbb93e4" x="247.837927" y="339.222167" style="stroke: #000000"/>
     <use xlink:href="#m025dbb93e4" x="253.009752" y="338.109446" style="stroke: #000000"/>
     <use xlink:href="#m025dbb93e4" x="258.181576" y="337.361697" style="stroke: #000000"/>
     <use xlink:href="#m025dbb93e4" x="263.353401" y="336.765278" style="stroke: #000000"/>
     <use xlink:href="#m025dbb93e4" x="268.525226" y="335.207469" style="stroke: #000000"/>
     <use xlink:href="#m025dbb93e4" x="273.69705" y="333.418213" style="stroke: #000000"/>
     <use xlink:href="#m025dbb93e4" x="278.868875" y="331.8426" style="stroke: #000000"/>
     <use xlink:href="#m025dbb93e4" x="284.0407" y="330.827798" style="stroke: #000000"/>
     <use xlink:href="#m025dbb93e4" x="289.212524" y="328.192875" style="stroke: #000000"/>
     <use xlink:href="#m025dbb93e4" x="294.384349" y="326.679574" style="stroke: #000000"/>
     <use xlink:href="#m025dbb93e4" x="299.556173" y="325.638067" style="stroke: #000000"/>
     <use xlink:href="#m025dbb93e4" x="304.727998" y="324.204882" style="stroke: #000000"/>
     <use xlink:href="#m025dbb93e4" x="309.899823" y="322.308805" style="stroke: #000000"/>
     <use xlink:href="#m025dbb93e4" x="315.071647" y="320.056658" style="stroke: #000000"/>
     <use xlink:href="#m025dbb93e4" x="320.243472" y="318.525553" style="stroke: #000000"/>
     <use xlink:href="#m025dbb93e4" x="325.415297" y="316.49595" style="stroke: #000000"/>
     <use xlink:href="#m025dbb93e4" x="330.587121" y="314.617677" style="stroke: #000000"/>
     <use xlink:href="#m025dbb93e4" x="335.758946" y="312.899635" style="stroke: #000000"/>
     <use xlink:href="#m025dbb93e4" x="340.93077" y="311.288415" style="stroke: #000000"/>
     <use xlink:href="#m025dbb93e4" x="346.102595" y="309.677195" style="stroke: #000000"/>
     <use xlink:href="#m025dbb93e4" x="351.27442" y="307.48736" style="stroke: #000000"/>
     <use xlink:href="#m025dbb93e4" x="356.446244" y="305.92955" style="stroke: #000000"/>
     <use xlink:href="#m025dbb93e4" x="361.618069" y="303.962259" style="stroke: #000000"/>
     <use xlink:href="#m025dbb93e4" x="366.789894" y="301.576585" style="stroke: #000000"/>
     <use xlink:href="#m025dbb93e4" x="371.961718" y="299.733919" style="stroke: #000000"/>
     <use xlink:href="#m025dbb93e4" x="377.133543" y="297.77553" style="stroke: #000000"/>
     <use xlink:href="#m025dbb93e4" x="382.305368" y="294.748928" style="stroke: #000000"/>
     <use xlink:href="#m025dbb93e4" x="387.477192" y="292.657012" style="stroke: #000000"/>
     <use xlink:href="#m025dbb93e4" x="392.649017" y="290.912266" style="stroke: #000000"/>
     <use xlink:href="#m025dbb93e4" x="397.820841" y="288.295145" style="stroke: #000000"/>
     <use xlink:href="#m025dbb93e4" x="402.992666" y="285.998489" style="stroke: #000000"/>
     <use xlink:href="#m025dbb93e4" x="408.164491" y="284.031198" style="stroke: #000000"/>
    </g>
   </g>
   <g id="line2d_36">
    <path d="M 408.164491 284.031198 
L 413.336315 282.627252 
L 418.50814 280.436097 
L 423.679965 278.221731 
L 428.851789 275.984153 
L 434.023614 273.723363 
L 439.195438 271.439362 
L 444.367263 269.132149 
L 449.539088 266.801724 
L 454.710912 264.448088 
L 459.882737 262.071241 
L 465.054562 259.671182 
L 470.226386 257.247911 
L 475.398211 254.801428 
L 480.570035 252.331734 
L 485.74186 249.838828 
L 490.913685 247.322711 
L 496.085509 244.783382 
L 501.257334 242.220842 
L 506.429159 239.63509 
L 511.600983 237.026126 
L 516.772808 234.393951 
L 521.944632 231.738564 
L 527.116457 229.059965 
L 532.288282 226.358155 
L 537.460106 223.633133 
L 542.631931 220.8849 
L 547.803756 218.113455 
L 552.97558 215.318799 
L 558.147405 212.50093 
L 563.31923 209.659851 
L 568.491054 206.795559 
L 573.662879 203.908056 
L 578.834703 200.997342 
L 584.006528 198.063416 
L 589.178353 195.106278 
L 594.350177 192.125928 
L 599.522002 189.122367 
L 604.693827 186.095595 
L 609.865651 183.045611 
L 615.037476 179.972415 
L 620.2093 176.876007 
L 625.381125 173.756388 
L 630.55295 170.613558 
L 635.724774 167.447516 
L 640.896599 164.258262 
L 646.068424 161.045796 
L 651.240248 157.810119 
L 656.412073 154.551231 
L 661.583897 151.26913 
L 666.755722 147.963819 
L 671.927547 144.635295 
L 677.099371 141.28356 
L 682.271196 137.908613 
L 687.443021 134.510455 
L 692.614845 131.089085 
L 697.78667 127.644504 
L 702.958495 124.176711 
L 708.130319 120.685706 
L 713.302144 117.17149 
L 718.473968 113.634062 
L 723.645793 110.073422 
L 728.817618 106.489571 
L 733.989442 102.882509 
L 739.161267 99.252234 
L 744.333092 95.598748 
L 749.504916 91.922051 
L 754.676741 88.222142 
L 759.848565 84.499021 
L 765.02039 80.752689 
L 770.192215 76.983145 
L 775.364039 73.190389 
L 780.535864 69.374422 
L 785.707689 65.535243 
L 790.879513 61.672853 
L 796.051338 57.787251 
L 801.223162 53.878438 
L 806.394987 49.946412 
L 811.566812 45.991176 
L 816.738636 42.012727 
" clip-path="url(#p849c7eceee)" style="fill: none; stroke: #1f77b4; stroke-width: 2; stroke-linecap: square"/>
   </g>
   <g id="line2d_37">
    <path d="M 51.05 44.974187 
L 853.2 44.974187 
" clip-path="url(#p849c7eceee)" style="fill: none; stroke-dasharray: 5.55,2.4; stroke-dashoffset: 0; stroke: #ff0000; stroke-width: 1.5"/>
   </g>
   <g id="line2d_38">
    <path d="M 558.147405 390.04 
L 558.147405 25.44 
" clip-path="url(#p849c7eceee)" style="fill: none; stroke-dasharray: 3.7,1.6; stroke-dashoffset: 0; stroke: #808080"/>
   </g>
   <g id="line2d_39">
    <path d="M 816.738636 390.04 
L 816.738636 25.44 
" clip-path="url(#p849c7eceee)" style="fill: none; stroke-dasharray: 1,1.65; stroke-dashoffset: 0; stroke: #808080"/>
   </g>
   <g id="patch_3">
    <path d="M 51.05 390.04 
L 51.05 25.44 
" style="fill: none; stroke: #000000; stroke-width: 0.8; stroke-linejoin: miter; stroke-linecap: square"/>
   </g>
   <g id="patch_4">
    <path d="M 853.2 390.04 
L 853.2 25.44 
" style="fill: none; stroke: #000000; stroke-width: 0.8; stroke-linejoin: miter; stroke-linecap: square"/>
   </g>
   <g id="patch_5">
    <path d="M 51.05 390.04 
L 853.2 390.04 
" style="fill: none; stroke: #000000; stroke-width: 0.8; stroke-linejoin: miter; stroke-linecap: square"/>
   </g>
   <g id="patch_6">
    <path d="M 51.05 25.44 
L 853.2 25.44 
" style="fill: none; stroke: #000000; stroke-width: 0.8; stroke-linejoin: miter; stroke-linecap: square"/>
   </g>
   <g id="text_20">
    <!-- Observed CO2 Data Extended with Quadratic Forecast -->
    <g transform="translate(288.676563 19.44) scale(0.12 -0.12)">
     <defs>
      <path id="DejaVuSans-62" d="M 3116 1747 
Q 3116 2381 2855 2742 
Q 2594 3103 2138 3103 
Q 1681 3103 1420 2742 
Q 1159 2381 1159 1747 
Q 1159 1113 1420 752 
Q 1681 391 2138 391 
Q 2594 391 2855 752 
Q 3116 1113 3116 1747 
z
M 1159 2969 
Q 1341 3281 1617 3432 
Q 1894 3584 2278 3584 
Q 2916 3584 3314 3078 
Q 3713 2572 3713 1747 
Q 3713 922 3314 415 
Q 2916 -91 2278 -91 
Q 1894 -91 1617 61 
Q 1341 213 1159 525 
L 1159 0 
L 581 0 
L 581 4863 
L 1159 4863 
L 1159 2969 
z
" transform="scale(0.015625)"/>
      <path id="DejaVuSans-73" d="M 2834 3397 
L 2834 2853 
Q 2591 2978 2328 3040 
Q 2066 3103 1784 3103 
Q 1356 3103 1142 2972 
Q 928 2841 928 2578 
Q 928 2378 1081 2264 
Q 1234 2150 1697 2047 
L 1894 2003 
Q 2506 1872 2764 1633 
Q 3022 1394 3022 966 
Q 3022 478 2636 193 
Q 2250 -91 1575 -91 
Q 1294 -91 989 -36 
Q 684 19 347 128 
L 347 722 
Q 666 556 975 473 
Q 1284 391 1588 391 
Q 1994 391 2212 530 
Q 2431 669 2431 922 
Q 2431 1156 2273 1281 
Q 2116 1406 1581 1522 
L 1381 1569 
Q 847 1681 609 1914 
Q 372 2147 372 2553 
Q 372 3047 722 3315 
Q 1072 3584 1716 3584 
Q 2034 3584 2315 3537 
Q 2597 3491 2834 3397 
z
" transform="scale(0.015625)"/>
      <path id="DejaVuSans-76" d="M 191 3500 
L 800 3500 
L 1894 563 
L 2988 3500 
L 3597 3500 
L 2284 0 
L 1503 0 
L 191 3500 
z
" transform="scale(0.015625)"/>
      <path id="DejaVuSans-64" d="M 2906 2969 
L 2906 4863 
L 3481 4863 
L 3481 0 
L 2906 0 
L 2906 525 
Q 2725 213 2448 61 
Q 2172 -91 1784 -91 
Q 1150 -91 751 415 
Q 353 922 353 1747 
Q 353 2572 751 3078 
Q 1150 3584 1784 3584 
Q 2172 3584 2448 3432 
Q 2725 3281 2906 2969 
z
M 947 1747 
Q 947 1113 1208 752 
Q 1469 391 1925 391 
Q 2381 391 2643 752 
Q 2906 1113 2906 1747 
Q 2906 2381 2643 2742 
Q 2381 3103 1925 3103 
Q 1469 3103 1208 2742 
Q 947 2381 947 1747 
z
" transform="scale(0.015625)"/>
      <path id="DejaVuSans-44" d="M 1259 4147 
L 1259 519 
L 2022 519 
Q 2988 519 3436 956 
Q 3884 1394 3884 2338 
Q 3884 3275 3436 3711 
Q 2988 4147 2022 4147 
L 1259 4147 
z
M 628 4666 
L 1925 4666 
Q 3281 4666 3915 4102 
Q 4550 3538 4550 2338 
Q 4550 1131 3912 565 
Q 3275 0 1925 0 
L 628 0 
L 628 4666 
z
" transform="scale(0.015625)"/>
      <path id="DejaVuSans-45" d="M 628 4666 
L 3578 4666 
L 3578 4134 
L 1259 4134 
L 1259 2753 
L 3481 2753 
L 3481 2222 
L 1259 2222 
L 1259 531 
L 3634 531 
L 3634 0 
L 628 0 
L 628 4666 
z
" transform="scale(0.015625)"/>
      <path id="DejaVuSans-78" d="M 3513 3500 
L 2247 1797 
L 3578 0 
L 2900 0 
L 1881 1375 
L 863 0 
L 184 0 
L 1544 1831 
L 300 3500 
L 978 3500 
L 1906 2253 
L 2834 3500 
L 3513 3500 
z
" transform="scale(0.015625)"/>
      <path id="DejaVuSans-77" d="M 269 3500 
L 844 3500 
L 1563 769 
L 2278 3500 
L 2956 3500 
L 3675 769 
L 4391 3500 
L 4966 3500 
L 4050 0 
L 3372 0 
L 2619 2869 
L 1863 0 
L 1184 0 
L 269 3500 
z
" transform="scale(0.015625)"/>
      <path id="DejaVuSans-68" d="M 3513 2113 
L 3513 0 
L 2938 0 
L 2938 2094 
Q 2938 2591 2744 2837 
Q 2550 3084 2163 3084 
Q 1697 3084 1428 2787 
Q 1159 2491 1159 1978 
L 1159 0 
L 581 0 
L 581 4863 
L 1159 4863 
L 1159 2956 
Q 1366 3272 1645 3428 
Q 1925 3584 2291 3584 
Q 2894 3584 3203 3211 
Q 3513 2838 3513 2113 
z
" transform="scale(0.015625)"/>
      <path id="DejaVuSans-51" d="M 2522 4238 
Q 1834 4238 1429 3725 
Q 1025 3213 1025 2328 
Q 1025 1447 1429 934 
Q 1834 422 2522 422 
Q 3209 422 3611 934 
Q 4013 1447 4013 2328 
Q 4013 3213 3611 3725 
Q 3209 4238 2522 4238 
z
M 3406 84 
L 4238 -825 
L 3475 -825 
L 2784 -78 
Q 2681 -84 2626 -87 
Q 2572 -91 2522 -91 
Q 1538 -91 948 567 
Q 359 1225 359 2328 
Q 359 3434 948 4092 
Q 1538 4750 2522 4750 
Q 3503 4750 4090 4092 
Q 4678 3434 4678 2328 
Q 4678 1516 4351 937 
Q 4025 359 3406 84 
z
" transform="scale(0.015625)"/>
      <path id="DejaVuSans-75" d="M 544 1381 
L 544 3500 
L 1119 3500 
L 1119 1403 
Q 1119 906 1312 657 
Q 1506 409 1894 409 
Q 2359 409 2629 706 
Q 2900 1003 2900 1516 
L 2900 3500 
L 3475 3500 
L 3475 0 
L 2900 0 
L 2900 538 
Q 2691 219 2414 64 
Q 2138 -91 1772 -91 
Q 1169 -91 856 284 
Q 544 659 544 1381 
z
M 1991 3584 
L 1991 3584 
z
" transform="scale(0.015625)"/>
      <path id="DejaVuSans-46" d="M 628 4666 
L 3309 4666 
L 3309 4134 
L 1259 4134 
L 1259 2759 
L 3109 2759 
L 3109 2228 
L 1259 2228 
L 1259 0 
L 628 0 
L 628 4666 
z
" transform="scale(0.015625)"/>
     </defs>
     <use xlink:href="#DejaVuSans-4f"/>
     <use xlink:href="#DejaVuSans-62" transform="translate(78.710938 0)"/>
     <use xlink:href="#DejaVuSans-73" transform="translate(142.1875 0)"/>
     <use xlink:href="#DejaVuSans-65" transform="translate(194.287109 0)"/>
     <use xlink:href="#DejaVuSans-72" transform="translate(255.810547 0)"/>
     <use xlink:href="#DejaVuSans-76" transform="translate(296.923828 0)"/>
     <use xlink:href="#DejaVuSans-65" transform="translate(356.103516 0)"/>
     <use xlink:href="#DejaVuSans-64" transform="translate(417.626953 0)"/>
     <use xlink:href="#DejaVuSans-20" transform="translate(481.103516 0)"/>
     <use xlink:href="#DejaVuSans-43" transform="translate(512.890625 0)"/>
     <use xlink:href="#DejaVuSans-4f" transform="translate(582.714844 0)"/>
     <use xlink:href="#DejaVuSans-32" transform="translate(661.425781 0)"/>
     <use xlink:href="#DejaVuSans-20" transform="translate(725.048828 0)"/>
     <use xlink:href="#DejaVuSans-44" transform="translate(756.835938 0)"/>
     <use xlink:href="#DejaVuSans-61" transform="translate(833.837891 0)"/>
     <use xlink:href="#DejaVuSans-74" transform="translate(895.117188 0)"/>
     <use xlink:href="#DejaVuSans-61" transform="translate(934.326172 0)"/>
     <use xlink:href="#DejaVuSans-20" transform="translate(995.605469 0)"/>
     <use xlink:href="#DejaVuSans-45" transform="translate(1027.392578 0)"/>
     <use xlink:href="#DejaVuSans-78" transform="translate(1090.576172 0)"/>
     <use xlink:href="#DejaVuSans-74" transform="translate(1149.755859 0)"/>
     <use xlink:href="#DejaVuSans-65" transform="translate(1188.964844 0)"/>
     <use xlink:href="#DejaVuSans-6e" transform="translate(1250.488281 0)"/>
     <use xlink:href="#DejaVuSans-64" transform="translate(1313.867188 0)"/>
     <use xlink:href="#DejaVuSans-65" transform="translate(1377.34375 0)"/>
     <use xlink:href="#DejaVuSans-64" transform="translate(1438.867188 0)"/>
     <use xlink:href="#DejaVuSans-20" transform="translate(1502.34375 0)"/>
     <use xlink:href="#DejaVuSans-77" transform="translate(1534.130859 0)"/>
     <use xlink:href="#DejaVuSans-69" transform="translate(1615.917969 0)"/>
     <use xlink:href="#DejaVuSans-74" transform="translate(1643.701172 0)"/>
     <use xlink:href="#DejaVuSans-68" transform="translate(1682.910156 0)"/>
     <use xlink:href="#DejaVuSans-20" transform="translate(1746.289062 0)"/>
     <use xlink:href="#DejaVuSans-51" transform="translate(1778.076172 0)"/>
     <use xlink:href="#DejaVuSans-75" transform="translate(1856.787109 0)"/>
     <use xlink:href="#DejaVuSans-61" transform="translate(1920.166016 0)"/>
     <use xlink:href="#DejaVuSans-64" transform="translate(1981.445312 0)"/>
     <use xlink:href="#DejaVuSans-72" transform="translate(2044.921875 0)"/>
     <use xlink:href="#DejaVuSans-61" transform="translate(2086.035156 0)"/>
     <use xlink:href="#DejaVuSans-74" transform="translate(2147.314453 0)"/>
     <use xlink:href="#DejaVuSans-69" transform="translate(2186.523438 0)"/>
     <use xlink:href="#DejaVuSans-63" transform="translate(2214.306641 0)"/>
     <use xlink:href="#DejaVuSans-20" transform="translate(2269.287109 0)"/>
     <use xlink:href="#DejaVuSans-46" transform="translate(2301.074219 0)"/>
     <use xlink:href="#DejaVuSans-6f" transform="translate(2354.96875 0)"/>
     <use xlink:href="#DejaVuSans-72" transform="translate(2416.150391 0)"/>
     <use xlink:href="#DejaVuSans-65" transform="translate(2455.013672 0)"/>
     <use xlink:href="#DejaVuSans-63" transform="translate(2516.537109 0)"/>
     <use xlink:href="#DejaVuSans-61" transform="translate(2571.517578 0)"/>
     <use xlink:href="#DejaVuSans-73" transform="translate(2632.796875 0)"/>
     <use xlink:href="#DejaVuSans-74" transform="translate(2684.896484 0)"/>
    </g>
   </g>
   <g id="PathCollection_1">
    <defs>
     <path id="m2bd2669e75" d="M 0 3.354102 
C 0.889518 3.354102 1.742724 3.000693 2.371708 2.371708 
C 3.000693 1.742724 3.354102 0.889518 3.354102 0 
C 3.354102 -0.889518 3.000693 -1.742724 2.371708 -2.371708 
C 1.742724 -3.000693 0.889518 -3.354102 0 -3.354102 
C -0.889518 -3.354102 -1.742724 -3.000693 -2.371708 -2.371708 
C -3.000693 -1.742724 -3.354102 -0.889518 -3.354102 0 
C -3.354102 0.889518 -3.000693 1.742724 -2.371708 2.371708 
C -1.742724 3.000693 -0.889518 3.354102 0 3.354102 
z
" style="stroke: #1f77b4"/>
    </defs>
    <g clip-path="url(#p849c7eceee)">
     <use xlink:href="#m2bd2669e75" x="558.147405" y="212.50093" style="fill: #1f77b4; stroke: #1f77b4"/>
    </g>
   </g>
   <g id="PathCollection_2">
    <defs>
     <path id="m8fef0d2dfd" d="M 0 3.354102 
C 0.889518 3.354102 1.742724 3.000693 2.371708 2.371708 
C 3.000693 1.742724 3.354102 0.889518 3.354102 0 
C 3.354102 -0.889518 3.000693 -1.742724 2.371708 -2.371708 
C 1.742724 -3.000693 0.889518 -3.354102 0 -3.354102 
C -0.889518 -3.354102 -1.742724 -3.000693 -2.371708 -2.371708 
C -3.000693 -1.742724 -3.354102 -0.889518 -3.354102 0 
C -3.354102 0.889518 -3.000693 1.742724 -2.371708 2.371708 
C -1.742724 3.000693 -0.889518 3.354102 0 3.354102 
z
" style="stroke: #ff7f0e"/>
    </defs>
    <g clip-path="url(#p849c7eceee)">
     <use xlink:href="#m8fef0d2dfd" x="816.738636" y="42.012727" style="fill: #ff7f0e; stroke: #ff7f0e"/>
    </g>
   </g>
   <g id="legend_1">
    <g id="patch_7">
     <path d="M 58.05 245.935313 
L 199.784375 245.935313 
Q 201.784375 245.935313 201.784375 243.935313 
L 201.784375 171.544688 
Q 201.784375 169.544688 199.784375 169.544688 
L 58.05 169.544688 
Q 56.05 169.544688 56.05 171.544688 
L 56.05 243.935313 
Q 56.05 245.935313 58.05 245.935313 
z
" style="fill: #ffffff; opacity: 0.8; stroke: #cccccc; stroke-linejoin: miter"/>
    </g>
    <g id="line2d_40">
     <path d="M 60.05 177.643125 
L 70.05 177.643125 
L 80.05 177.643125 
" style="fill: none; stroke: #000000; stroke-width: 2; stroke-linecap: square"/>
     <g>
      <use xlink:href="#m025dbb93e4" x="70.05" y="177.643125" style="stroke: #000000"/>
     </g>
    </g>
    <g id="text_21">
     <!-- Observed annual CO2 -->
     <g transform="translate(88.05 181.143125) scale(0.1 -0.1)">
      <defs>
       <path id="DejaVuSans-6c" d="M 603 4863 
L 1178 4863 
L 1178 0 
L 603 0 
L 603 4863 
z
" transform="scale(0.015625)"/>
      </defs>
      <use xlink:href="#DejaVuSans-4f"/>
      <use xlink:href="#DejaVuSans-62" transform="translate(78.710938 0)"/>
      <use xlink:href="#DejaVuSans-73" transform="translate(142.1875 0)"/>
      <use xlink:href="#DejaVuSans-65" transform="translate(194.287109 0)"/>
      <use xlink:href="#DejaVuSans-72" transform="translate(255.810547 0)"/>
      <use xlink:href="#DejaVuSans-76" transform="translate(296.923828 0)"/>
      <use xlink:href="#DejaVuSans-65" transform="translate(356.103516 0)"/>
      <use xlink:href="#DejaVuSans-64" transform="translate(417.626953 0)"/>
      <use xlink:href="#DejaVuSans-20" transform="translate(481.103516 0)"/>
      <use xlink:href="#DejaVuSans-61" transform="translate(512.890625 0)"/>
      <use xlink:href="#DejaVuSans-6e" transform="translate(574.169922 0)"/>
      <use xlink:href="#DejaVuSans-6e" transform="translate(637.548828 0)"/>
      <use xlink:href="#DejaVuSans-75" transform="translate(700.927734 0)"/>
      <use xlink:href="#DejaVuSans-61" transform="translate(764.306641 0)"/>
      <use xlink:href="#DejaVuSans-6c" transform="translate(825.585938 0)"/>
      <use xlink:href="#DejaVuSans-20" transform="translate(853.369141 0)"/>
      <use xlink:href="#DejaVuSans-43" transform="translate(885.15625 0)"/>
      <use xlink:href="#DejaVuSans-4f" transform="translate(954.980469 0)"/>
      <use xlink:href="#DejaVuSans-32" transform="translate(1033.691406 0)"/>
     </g>
    </g>
    <g id="line2d_41">
     <path d="M 60.05 192.32125 
L 70.05 192.32125 
L 80.05 192.32125 
" style="fill: none; stroke: #1f77b4; stroke-width: 2; stroke-linecap: square"/>
    </g>
    <g id="text_22">
     <!-- Quadratic forecast -->
     <g transform="translate(88.05 195.82125) scale(0.1 -0.1)">
      <defs>
       <path id="DejaVuSans-66" d="M 2375 4863 
L 2375 4384 
L 1825 4384 
Q 1516 4384 1395 4259 
Q 1275 4134 1275 3809 
L 1275 3500 
L 2222 3500 
L 2222 3053 
L 1275 3053 
L 1275 0 
L 697 0 
L 697 3053 
L 147 3053 
L 147 3500 
L 697 3500 
L 697 3744 
Q 697 4328 969 4595 
Q 1241 4863 1831 4863 
L 2375 4863 
z
" transform="scale(0.015625)"/>
      </defs>
      <use xlink:href="#DejaVuSans-51"/>
      <use xlink:href="#DejaVuSans-75" transform="translate(78.710938 0)"/>
      <use xlink:href="#DejaVuSans-61" transform="translate(142.089844 0)"/>
      <use xlink:href="#DejaVuSans-64" transform="translate(203.369141 0)"/>
      <use xlink:href="#DejaVuSans-72" transform="translate(266.845703 0)"/>
      <use xlink:href="#DejaVuSans-61" transform="translate(307.958984 0)"/>
      <use xlink:href="#DejaVuSans-74" transform="translate(369.238281 0)"/>
      <use xlink:href="#DejaVuSans-69" transform="translate(408.447266 0)"/>
      <use xlink:href="#DejaVuSans-63" transform="translate(436.230469 0)"/>
      <use xlink:href="#DejaVuSans-20" transform="translate(491.210938 0)"/>
      <use xlink:href="#DejaVuSans-66" transform="translate(522.998047 0)"/>
      <use xlink:href="#DejaVuSans-6f" transform="translate(558.203125 0)"/>
      <use xlink:href="#DejaVuSans-72" transform="translate(619.384766 0)"/>
      <use xlink:href="#DejaVuSans-65" transform="translate(658.248047 0)"/>
      <use xlink:href="#DejaVuSans-63" transform="translate(719.771484 0)"/>
      <use xlink:href="#DejaVuSans-61" transform="translate(774.751953 0)"/>
      <use xlink:href="#DejaVuSans-73" transform="translate(836.03125 0)"/>
      <use xlink:href="#DejaVuSans-74" transform="translate(888.130859 0)"/>
     </g>
    </g>
    <g id="line2d_42">
     <path d="M 60.05 206.999375 
L 70.05 206.999375 
L 80.05 206.999375 
" style="fill: none; stroke-dasharray: 5.55,2.4; stroke-dashoffset: 0; stroke: #ff0000; stroke-width: 1.5"/>
    </g>
    <g id="text_23">
     <!-- 685 ppm target -->
     <g transform="translate(88.05 210.499375) scale(0.1 -0.1)">
      <defs>
       <path id="DejaVuSans-67" d="M 2906 1791 
Q 2906 2416 2648 2759 
Q 2391 3103 1925 3103 
Q 1463 3103 1205 2759 
Q 947 2416 947 1791 
Q 947 1169 1205 825 
Q 1463 481 1925 481 
Q 2391 481 2648 825 
Q 2906 1169 2906 1791 
z
M 3481 434 
Q 3481 -459 3084 -895 
Q 2688 -1331 1869 -1331 
Q 1566 -1331 1297 -1286 
Q 1028 -1241 775 -1147 
L 775 -588 
Q 1028 -725 1275 -790 
Q 1522 -856 1778 -856 
Q 2344 -856 2625 -561 
Q 2906 -266 2906 331 
L 2906 616 
Q 2728 306 2450 153 
Q 2172 0 1784 0 
Q 1141 0 747 490 
Q 353 981 353 1791 
Q 353 2603 747 3093 
Q 1141 3584 1784 3584 
Q 2172 3584 2450 3431 
Q 2728 3278 2906 2969 
L 2906 3500 
L 3481 3500 
L 3481 434 
z
" transform="scale(0.015625)"/>
      </defs>
      <use xlink:href="#DejaVuSans-36"/>
      <use xlink:href="#DejaVuSans-38" transform="translate(63.623047 0)"/>
      <use xlink:href="#DejaVuSans-35" transform="translate(127.246094 0)"/>
      <use xlink:href="#DejaVuSans-20" transform="translate(190.869141 0)"/>
      <use xlink:href="#DejaVuSans-70" transform="translate(222.65625 0)"/>
      <use xlink:href="#DejaVuSans-70" transform="translate(286.132812 0)"/>
      <use xlink:href="#DejaVuSans-6d" transform="translate(349.609375 0)"/>
      <use xlink:href="#DejaVuSans-20" transform="translate(447.021484 0)"/>
      <use xlink:href="#DejaVuSans-74" transform="translate(478.808594 0)"/>
      <use xlink:href="#DejaVuSans-61" transform="translate(518.017578 0)"/>
      <use xlink:href="#DejaVuSans-72" transform="translate(579.296875 0)"/>
      <use xlink:href="#DejaVuSans-67" transform="translate(618.660156 0)"/>
      <use xlink:href="#DejaVuSans-65" transform="translate(682.136719 0)"/>
      <use xlink:href="#DejaVuSans-74" transform="translate(743.660156 0)"/>
     </g>
    </g>
    <g id="line2d_43">
     <path d="M 60.05 221.6775 
L 70.05 221.6775 
L 80.05 221.6775 
" style="fill: none; stroke-dasharray: 3.7,1.6; stroke-dashoffset: 0; stroke: #808080"/>
    </g>
    <g id="text_24">
     <!-- 2050 -->
     <g transform="translate(88.05 225.1775) scale(0.1 -0.1)">
      <use xlink:href="#DejaVuSans-32"/>
      <use xlink:href="#DejaVuSans-30" transform="translate(63.623047 0)"/>
      <use xlink:href="#DejaVuSans-35" transform="translate(127.246094 0)"/>
      <use xlink:href="#DejaVuSans-30" transform="translate(190.869141 0)"/>
     </g>
    </g>
    <g id="line2d_44">
     <path d="M 60.05 236.355625 
L 70.05 236.355625 
L 80.05 236.355625 
" style="fill: none; stroke-dasharray: 1,1.65; stroke-dashoffset: 0; stroke: #808080"/>
    </g>
    <g id="text_25">
     <!-- 2100 -->
     <g transform="translate(88.05 239.855625) scale(0.1 -0.1)">
      <use xlink:href="#DejaVuSans-32"/>
      <use xlink:href="#DejaVuSans-31" transform="translate(63.623047 0)"/>
      <use xlink:href="#DejaVuSans-30" transform="translate(127.246094 0)"/>
      <use xlink:href="#DejaVuSans-30" transform="translate(190.869141 0)"/>
     </g>
    </g>
   </g>
  </g>
 </g>
 <defs>
  <clipPath id="p849c7eceee">
   <rect x="51.05" y="25.44" width="802.15" height="364.6"/>
  </clipPath>
 </defs>
</svg>
