<?xml version="1.0" encoding="utf-8" standalone="no"?>
<!DOCTYPE svg PUBLIC "-//W3C//DTD SVG 1.1//EN"
  "http://www.w3.org/Graphics/SVG/1.1/DTD/svg11.dtd">
<svg xmlns:xlink="http://www.w3.org/1999/xlink" width="864pt" height="432pt" viewBox="0 0 864 432" xmlns="http://www.w3.org/2000/svg" version="1.1">
 <metadata>
  <rdf:RDF xmlns:dc="http://purl.org/dc/elements/1.1/" xmlns:cc="http://creativecommons.org/ns#" xmlns:rdf="http://www.w3.org/1999/02/22-rdf-syntax-ns#">
   <cc:Work>
    <dc:type rdf:resource="http://purl.org/dc/dcmitype/StillImage"/>
    <dc:date>2026-07-08T14:34:10.766366</dc:date>
    <dc:format>image/svg+xml</dc:format>
    <dc:creator>
     <cc:Agent>
      <dc:title>Matplotlib v3.10.0, https://matplotlib.org/</dc:title>
     </cc:Agent>
    </dc:creator>
   </cc:Work>
  </rdf:RDF>
 </metadata>
 <defs>
  <style type="text/css">*{stroke-linejoin: round; stroke-linecap: butt}</style>
 </defs>
 <g id="figure_1">
  <g id="patch_1">
   <path d="M 0 432 
L 864 432 
L 864 0 
L 0 0 
z
" style="fill: #ffffff"/>
  </g>
  <g id="axes_1">
   <g id="patch_2">
    <path d="M 51.05 390.04 
L 853.2 390.04 
L 853.2 25.44 
L 51.05 25.44 
z
" style="fill: #ffffff"/>
   </g>
   <g id="matplotlib.axis_1">
    <g id="xtick_1">
     <g id="line2d_1">
      <path d="M 92.683188 390.04 
L 92.683188 25.44 
" clip-path="url(#pedec20d521)" style="fill: none; stroke: #b0b0b0; stroke-width: 0.8; stroke-linecap: square"/>
     </g>
     <g id="line2d_2">
      <defs>
       <path id="m0a14fd7f4c" d="M 0 0 
L 0 3.5 
" style="stroke: #000000; stroke-width: 0.8"/>
      </defs>
      <g>
       <use xlink:href="#m0a14fd7f4c" x="92.683188" y="390.04" style="stroke: #000000; stroke-width: 0.8"/>
      </g>
     </g>
     <g id="text_1">
      <!-- 1960 -->
      <g transform="translate(79.958188 404.638438) scale(0.1 -0.1)">
       <defs>
        <path id="DejaVuSans-31" d="M 794 531 
L 1825 531 
L 1825 4091 
L 703 3866 
L 703 4441 
L 1819 4666 
L 2450 4666 
L 2450 531 
L 3481 531 
L 3481 0 
L 794 0 
L 794 531 
z
" transform="scale(0.015625)"/>
        <path id="DejaVuSans-39" d="M 703 97 
L 703 672 
Q 941 559 1184 500 
Q 1428 441 1663 441 
Q 2288 441 2617 861 
Q 2947 1281 2994 2138 
Q 2813 1869 2534 1725 
Q 2256 1581 1919 1581 
Q 1219 1581 811 2004 
Q 403 2428 403 3163 
Q 403 3881 828 4315 
Q 1253 4750 1959 4750 
Q 2769 4750 3195 4129 
Q 3622 3509 3622 2328 
Q 3622 1225 3098 567 
Q 2575 -91 1691 -91 
Q 1453 -91 1209 -44 
Q 966 3 703 97 
z
M 1959 2075 
Q 2384 2075 2632 2365 
Q 2881 2656 2881 3163 
Q 2881 3666 2632 3958 
Q 2384 4250 1959 4250 
Q 1534 4250 1286 3958 
Q 1038 3666 1038 3163 
Q 1038 2656 1286 2365 
Q 1534 2075 1959 2075 
z
" transform="scale(0.015625)"/>
        <path id="DejaVuSans-36" d="M 2113 2584 
Q 1688 2584 1439 2293 
Q 1191 2003 1191 1497 
Q 1191 994 1439 701 
Q 1688 409 2113 409 
Q 2538 409 2786 701 
Q 3034 994 3034 1497 
Q 3034 2003 2786 2293 
Q 2538 2584 2113 2584 
z
M 3366 4563 
L 3366 3988 
Q 3128 4100 2886 4159 
Q 2644 4219 2406 4219 
Q 1781 4219 1451 3797 
Q 1122 3375 1075 2522 
Q 1259 2794 1537 2939 
Q 1816 3084 2150 3084 
Q 2853 3084 3261 2657 
Q 3669 2231 3669 1497 
Q 3669 778 3244 343 
Q 2819 -91 2113 -91 
Q 1303 -91 875 529 
Q 447 1150 447 2328 
Q 447 3434 972 4092 
Q 1497 4750 2381 4750 
Q 2619 4750 2861 4703 
Q 3103 4656 3366 4563 
z
" transform="scale(0.015625)"/>
        <path id="DejaVuSans-30" d="M 2034 4250 
Q 1547 4250 1301 3770 
Q 1056 3291 1056 2328 
Q 1056 1369 1301 889 
Q 1547 409 2034 409 
Q 2525 409 2770 889 
Q 3016 1369 3016 2328 
Q 3016 3291 2770 3770 
Q 2525 4250 2034 4250 
z
M 2034 4750 
Q 2819 4750 3233 4129 
Q 3647 3509 3647 2328 
Q 3647 1150 3233 529 
Q 2819 -91 2034 -91 
Q 1250 -91 836 529 
Q 422 1150 422 2328 
Q 422 3509 836 4129 
Q 1250 4750 2034 4750 
z
" transform="scale(0.015625)"/>
       </defs>
       <use xlink:href="#DejaVuSans-31"/>
       <use xlink:href="#DejaVuSans-39" transform="translate(63.623047 0)"/>
       <use xlink:href="#DejaVuSans-36" transform="translate(127.246094 0)"/>
       <use xlink:href="#DejaVuSans-30" transform="translate(190.869141 0)"/>
      </g>
     </g>
    </g>
    <g id="xtick_2">
     <g id="line2d_3">
      <path d="M 196.119681 390.04 
L 196.119681 25.44 
" clip-path="url(#pedec20d521)" style="fill: none; stroke: #b0b0b0; stroke-width: 0.8; stroke-linecap: square"/>
     </g>
     <g id="line2d_4">
      <g>
       <use xlink:href="#m0a14fd7f4c" x="196.119681" y="390.04" style="stroke: #000000; stroke-width: 0.8"/>
      </g>
     </g>
     <g id="text_2">
      <!-- 1980 -->
      <g transform="translate(183.394681 404.638438) scale(0.1 -0.1)">
       <defs>
        <path id="DejaVuSans-38" d="M 2034 2216 
Q 1584 2216 1326 1975 
Q 1069 1734 1069 1313 
Q 1069 891 1326 650 
Q 1584 409 2034 409 
Q 2484 409 2743 651 
Q 3003 894 3003 1313 
Q 3003 1734 2745 1975 
Q 2488 2216 2034 2216 
z
M 1403 2484 
Q 997 2584 770 2862 
Q 544 3141 544 3541 
Q 544 4100 942 4425 
Q 1341 4750 2034 4750 
Q 2731 4750 3128 4425 
Q 3525 4100 3525 3541 
Q 3525 3141 3298 2862 
Q 3072 2584 2669 2484 
Q 3125 2378 3379 2068 
Q 3634 1759 3634 1313 
Q 3634 634 3220 271 
Q 2806 -91 2034 -91 
Q 1263 -91 848 271 
Q 434 634 434 1313 
Q 434 1759 690 2068 
Q 947 2378 1403 2484 
z
M 1172 3481 
Q 1172 3119 1398 2916 
Q 1625 2713 2034 2713 
Q 2441 2713 2670 2916 
Q 2900 3119 2900 3481 
Q 2900 3844 2670 4047 
Q 2441 4250 2034 4250 
Q 1625 4250 1398 4047 
Q 1172 3844 1172 3481 
z
" transform="scale(0.015625)"/>
       </defs>
       <use xlink:href="#DejaVuSans-31"/>
       <use xlink:href="#DejaVuSans-39" transform="translate(63.623047 0)"/>
       <use xlink:href="#DejaVuSans-38" transform="translate(127.246094 0)"/>
       <use xlink:href="#DejaVuSans-30" transform="translate(190.869141 0)"/>
      </g>
     </g>
    </g>
    <g id="xtick_3">
     <g id="line2d_5">
      <path d="M 299.556173 390.04 
L 299.556173 25.44 
" clip-path="url(#pedec20d521)" style="fill: none; stroke: #b0b0b0; stroke-width: 0.8; stroke-linecap: square"/>
     </g>
     <g id="line2d_6">
      <g>
       <use xlink:href="#m0a14fd7f4c" x="299.556173" y="390.04" style="stroke: #000000; stroke-width: 0.8"/>
      </g>
     </g>
     <g id="text_3">
      <!-- 2000 -->
      <g transform="translate(286.831173 404.638438) scale(0.1 -0.1)">
       <defs>
        <path id="DejaVuSans-32" d="M 1228 531 
L 3431 531 
L 3431 0 
L 469 0 
L 469 531 
Q 828 903 1448 1529 
Q 2069 2156 2228 2338 
Q 2531 2678 2651 2914 
Q 2772 3150 2772 3378 
Q 2772 3750 2511 3984 
Q 2250 4219 1831 4219 
Q 1534 4219 1204 4116 
Q 875 4013 500 3803 
L 500 4441 
Q 881 4594 1212 4672 
Q 1544 4750 1819 4750 
Q 2544 4750 2975 4387 
Q 3406 4025 3406 3419 
Q 3406 3131 3298 2873 
Q 3191 2616 2906 2266 
Q 2828 2175 2409 1742 
Q 1991 1309 1228 531 
z
" transform="scale(0.015625)"/>
       </defs>
       <use xlink:href="#DejaVuSans-32"/>
       <use xlink:href="#DejaVuSans-30" transform="translate(63.623047 0)"/>
       <use xlink:href="#DejaVuSans-30" transform="translate(127.246094 0)"/>
       <use xlink:href="#DejaVuSans-30" transform="translate(190.869141 0)"/>
      </g>
     </g>
    </g>
    <g id="xtick_4">
     <g id="line2d_7">
      <path d="M 402.992666 390.04 
L 402.992666 25.44 
" clip-path="url(#pedec20d521)" style="fill: none; stroke: #b0b0b0; stroke-width: 0.8; stroke-linecap: square"/>
     </g>
     <g id="line2d_8">
      <g>
       <use xlink:href="#m0a14fd7f4c" x="402.992666" y="390.04" style="stroke: #000000; stroke-width: 0.8"/>
      </g>
     </g>
     <g id="text_4">
      <!-- 2020 -->
      <g transform="translate(390.267666 404.638438) scale(0.1 -0.1)">
       <use xlink:href="#DejaVuSans-32"/>
       <use xlink:href="#DejaVuSans-30" transform="translate(63.623047 0)"/>
       <use xlink:href="#DejaVuSans-32" transform="translate(127.246094 0)"/>
       <use xlink:href="#DejaVuSans-30" transform="translate(190.869141 0)"/>
      </g>
     </g>
    </g>
    <g id="xtick_5">
     <g id="line2d_9">
      <path d="M 506.429159 390.04 
L 506.429159 25.44 
" clip-path="url(#pedec20d521)" style="fill: none; stroke: #b0b0b0; stroke-width: 0.8; stroke-linecap: square"/>
     </g>
     <g id="line2d_10">
      <g>
       <use xlink:href="#m0a14fd7f4c" x="506.429159" y="390.04" style="stroke: #000000; stroke-width: 0.8"/>
      </g>
     </g>
     <g id="text_5">
      <!-- 2040 -->
      <g transform="translate(493.704159 404.638438) scale(0.1 -0.1)">
       <defs>
        <path id="DejaVuSans-34" d="M 2419 4116 
L 825 1625 
L 2419 1625 
L 2419 4116 
z
M 2253 4666 
L 3047 4666 
L 3047 1625 
L 3713 1625 
L 3713 1100 
L 3047 1100 
L 3047 0 
L 2419 0 
L 2419 1100 
L 313 1100 
L 313 1709 
L 2253 4666 
z
" transform="scale(0.015625)"/>
       </defs>
       <use xlink:href="#DejaVuSans-32"/>
       <use xlink:href="#DejaVuSans-30" transform="translate(63.623047 0)"/>
       <use xlink:href="#DejaVuSans-34" transform="translate(127.246094 0)"/>
       <use xlink:href="#DejaVuSans-30" transform="translate(190.869141 0)"/>
      </g>
     </g>
    </g>
    <g id="xtick_6">
     <g id="line2d_11">
      <path d="M 609.865651 390.04 
L 609.865651 25.44 
" clip-path="url(#pedec20d521)" style="fill: none; stroke: #b0b0b0; stroke-width: 0.8; stroke-linecap: square"/>
     </g>
     <g id="line2d_12">
      <g>
       <use xlink:href="#m0a14fd7f4c" x="609.865651" y="390.04" style="stroke: #000000; stroke-width: 0.8"/>
      </g>
     </g>
     <g id="text_6">
      <!-- 2060 -->
      <g transform="translate(597.140651 404.638438) scale(0.1 -0.1)">
       <use xlink:href="#DejaVuSans-32"/>
       <use xlink:href="#DejaVuSans-30" transform="translate(63.623047 0)"/>
       <use xlink:href="#DejaVuSans-36" transform="translate(127.246094 0)"/>
       <use xlink:href="#DejaVuSans-30" transform="translate(190.869141 0)"/>
      </g>
     </g>
    </g>
    <g id="xtick_7">
     <g id="line2d_13">
      <path d="M 713.302144 390.04 
L 713.302144 25.44 
" clip-path="url(#pedec20d521)" style="fill: none; stroke: #b0b0b0; stroke-width: 0.8; stroke-linecap: square"/>
     </g>
     <g id="line2d_14">
      <g>
       <use xlink:href="#m0a14fd7f4c" x="713.302144" y="390.04" style="stroke: #000000; stroke-width: 0.8"/>
      </g>
     </g>
     <g id="text_7">
      <!-- 2080 -->
      <g transform="translate(700.577144 404.638438) scale(0.1 -0.1)">
       <use xlink:href="#DejaVuSans-32"/>
       <use xlink:href="#DejaVuSans-30" transform="translate(63.623047 0)"/>
       <use xlink:href="#DejaVuSans-38" transform="translate(127.246094 0)"/>
       <use xlink:href="#DejaVuSans-30" transform="translate(190.869141 0)"/>
      </g>
     </g>
    </g>
    <g id="xtick_8">
     <g id="line2d_15">
      <path d="M 816.738636 390.04 
L 816.738636 25.44 
" clip-path="url(#pedec20d521)" style="fill: none; stroke: #b0b0b0; stroke-width: 0.8; stroke-linecap: square"/>
     </g>
     <g id="line2d_16">
      <g>
       <use xlink:href="#m0a14fd7f4c" x="816.738636" y="390.04" style="stroke: #000000; stroke-width: 0.8"/>
      </g>
     </g>
     <g id="text_8">
      <!-- 2100 -->
      <g transform="translate(804.013636 404.638438) scale(0.1 -0.1)">
       <use xlink:href="#DejaVuSans-32"/>
       <use xlink:href="#DejaVuSans-31" transform="translate(63.623047 0)"/>
       <use xlink:href="#DejaVuSans-30" transform="translate(127.246094 0)"/>
       <use xlink:href="#DejaVuSans-30" transform="translate(190.869141 0)"/>
      </g>
     </g>
    </g>
    <g id="text_9">
     <!-- Year -->
     <g transform="translate(441.5375 418.316562) scale(0.1 -0.1)">
      <defs>
       <path id="DejaVuSans-59" d="M -13 4666 
L 666 4666 
L 1959 2747 
L 3244 4666 
L 3922 4666 
L 2272 2222 
L 2272 0 
L 1638 0 
L 1638 2222 
L -13 4666 
z
" transform="scale(0.015625)"/>
       <path id="DejaVuSans-65" d="M 3597 1894 
L 3597 1613 
L 953 1613 
Q 991 1019 1311 708 
Q 1631 397 2203 397 
Q 2534 397 2845 478 
Q 3156 559 3463 722 
L 3463 178 
Q 3153 47 2828 -22 
Q 2503 -91 2169 -91 
Q 1331 -91 842 396 
Q 353 884 353 1716 
Q 353 2575 817 3079 
Q 1281 3584 2069 3584 
Q 2775 3584 3186 3129 
Q 3597 2675 3597 1894 
z
M 3022 2063 
Q 3016 2534 2758 2815 
Q 2500 3097 2075 3097 
Q 1594 3097 1305 2825 
Q 1016 2553 972 2059 
L 3022 2063 
z
" transform="scale(0.015625)"/>
       <path id="DejaVuSans-61" d="M 2194 1759 
Q 1497 1759 1228 1600 
Q 959 1441 959 1056 
Q 959 750 1161 570 
Q 1363 391 1709 391 
Q 2188 391 2477 730 
Q 2766 1069 2766 1631 
L 2766 1759 
L 2194 1759 
z
M 3341 1997 
L 3341 0 
L 2766 0 
L 2766 531 
Q 2569 213 2275 61 
Q 1981 -91 1556 -91 
Q 1019 -91 701 211 
Q 384 513 384 1019 
Q 384 1609 779 1909 
Q 1175 2209 1959 2209 
L 2766 2209 
L 2766 2266 
Q 2766 2663 2505 2880 
Q 2244 3097 1772 3097 
Q 1472 3097 1187 3025 
Q 903 2953 641 2809 
L 641 3341 
Q 956 3463 1253 3523 
Q 1550 3584 1831 3584 
Q 2591 3584 2966 3190 
Q 3341 2797 3341 1997 
z
" transform="scale(0.015625)"/>
       <path id="DejaVuSans-72" d="M 2631 2963 
Q 2534 3019 2420 3045 
Q 2306 3072 2169 3072 
Q 1681 3072 1420 2755 
Q 1159 2438 1159 1844 
L 1159 0 
L 581 0 
L 581 3500 
L 1159 3500 
L 1159 2956 
Q 1341 3275 1631 3429 
Q 1922 3584 2338 3584 
Q 2397 3584 2469 3576 
Q 2541 3569 2628 3553 
L 2631 2963 
z
" transform="scale(0.015625)"/>
      </defs>
      <use xlink:href="#DejaVuSans-59"/>
      <use xlink:href="#DejaVuSans-65" transform="translate(47.833984 0)"/>
      <use xlink:href="#DejaVuSans-61" transform="translate(109.357422 0)"/>
      <use xlink:href="#DejaVuSans-72" transform="translate(170.636719 0)"/>
     </g>
    </g>
   </g>
   <g id="matplotlib.axis_2">
    <g id="ytick_1">
     <g id="line2d_17">
      <path d="M 51.05 387.100272 
L 853.2 387.100272 
" clip-path="url(#pedec20d521)" style="fill: none; stroke: #b0b0b0; stroke-width: 0.8; stroke-linecap: square"/>
     </g>
     <g id="line2d_18">
      <defs>
       <path id="m1f119c7d32" d="M 0 0 
L -3.5 0 
" style="stroke: #000000; stroke-width: 0.8"/>
      </defs>
      <g>
       <use xlink:href="#m1f119c7d32" x="51.05" y="387.100272" style="stroke: #000000; stroke-width: 0.8"/>
      </g>
     </g>
     <g id="text_10">
      <!-- 300 -->
      <g transform="translate(24.9625 390.899491) scale(0.1 -0.1)">
       <defs>
        <path id="DejaVuSans-33" d="M 2597 2516 
Q 3050 2419 3304 2112 
Q 3559 1806 3559 1356 
Q 3559 666 3084 287 
Q 2609 -91 1734 -91 
Q 1441 -91 1130 -33 
Q 819 25 488 141 
L 488 750 
Q 750 597 1062 519 
Q 1375 441 1716 441 
Q 2309 441 2620 675 
Q 2931 909 2931 1356 
Q 2931 1769 2642 2001 
Q 2353 2234 1838 2234 
L 1294 2234 
L 1294 2753 
L 1863 2753 
Q 2328 2753 2575 2939 
Q 2822 3125 2822 3475 
Q 2822 3834 2567 4026 
Q 2313 4219 1838 4219 
Q 1578 4219 1281 4162 
Q 984 4106 628 3988 
L 628 4550 
Q 988 4650 1302 4700 
Q 1616 4750 1894 4750 
Q 2613 4750 3031 4423 
Q 3450 4097 3450 3541 
Q 3450 3153 3228 2886 
Q 3006 2619 2597 2516 
z
" transform="scale(0.015625)"/>
       </defs>
       <use xlink:href="#DejaVuSans-33"/>
       <use xlink:href="#DejaVuSans-30" transform="translate(63.623047 0)"/>
       <use xlink:href="#DejaVuSans-30" transform="translate(127.246094 0)"/>
      </g>
     </g>
    </g>
    <g id="ytick_2">
     <g id="line2d_19">
      <path d="M 51.05 344.443829 
L 853.2 344.443829 
" clip-path="url(#pedec20d521)" style="fill: none; stroke: #b0b0b0; stroke-width: 0.8; stroke-linecap: square"/>
     </g>
     <g id="line2d_20">
      <g>
       <use xlink:href="#m1f119c7d32" x="51.05" y="344.443829" style="stroke: #000000; stroke-width: 0.8"/>
      </g>
     </g>
     <g id="text_11">
      <!-- 350 -->
      <g transform="translate(24.9625 348.243048) scale(0.1 -0.1)">
       <defs>
        <path id="DejaVuSans-35" d="M 691 4666 
L 3169 4666 
L 3169 4134 
L 1269 4134 
L 1269 2991 
Q 1406 3038 1543 3061 
Q 1681 3084 1819 3084 
Q 2600 3084 3056 2656 
Q 3513 2228 3513 1497 
Q 3513 744 3044 326 
Q 2575 -91 1722 -91 
Q 1428 -91 1123 -41 
Q 819 9 494 109 
L 494 744 
Q 775 591 1075 516 
Q 1375 441 1709 441 
Q 2250 441 2565 725 
Q 2881 1009 2881 1497 
Q 2881 1984 2565 2268 
Q 2250 2553 1709 2553 
Q 1456 2553 1204 2497 
Q 953 2441 691 2322 
L 691 4666 
z
" transform="scale(0.015625)"/>
       </defs>
       <use xlink:href="#DejaVuSans-33"/>
       <use xlink:href="#DejaVuSans-35" transform="translate(63.623047 0)"/>
       <use xlink:href="#DejaVuSans-30" transform="translate(127.246094 0)"/>
      </g>
     </g>
    </g>
    <g id="ytick_3">
     <g id="line2d_21">
      <path d="M 51.05 301.787386 
L 853.2 301.787386 
" clip-path="url(#pedec20d521)" style="fill: none; stroke: #b0b0b0; stroke-width: 0.8; stroke-linecap: square"/>
     </g>
     <g id="line2d_22">
      <g>
       <use xlink:href="#m1f119c7d32" x="51.05" y="301.787386" style="stroke: #000000; stroke-width: 0.8"/>
      </g>
     </g>
     <g id="text_12">
      <!-- 400 -->
      <g transform="translate(24.9625 305.586604) scale(0.1 -0.1)">
       <use xlink:href="#DejaVuSans-34"/>
       <use xlink:href="#DejaVuSans-30" transform="translate(63.623047 0)"/>
       <use xlink:href="#DejaVuSans-30" transform="translate(127.246094 0)"/>
      </g>
     </g>
    </g>
    <g id="ytick_4">
     <g id="line2d_23">
      <path d="M 51.05 259.130942 
L 853.2 259.130942 
" clip-path="url(#pedec20d521)" style="fill: none; stroke: #b0b0b0; stroke-width: 0.8; stroke-linecap: square"/>
     </g>
     <g id="line2d_24">
      <g>
       <use xlink:href="#m1f119c7d32" x="51.05" y="259.130942" style="stroke: #000000; stroke-width: 0.8"/>
      </g>
     </g>
     <g id="text_13">
      <!-- 450 -->
      <g transform="translate(24.9625 262.930161) scale(0.1 -0.1)">
       <use xlink:href="#DejaVuSans-34"/>
       <use xlink:href="#DejaVuSans-35" transform="translate(63.623047 0)"/>
       <use xlink:href="#DejaVuSans-30" transform="translate(127.246094 0)"/>
      </g>
     </g>
    </g>
    <g id="ytick_5">
     <g id="line2d_25">
      <path d="M 51.05 216.474499 
L 853.2 216.474499 
" clip-path="url(#pedec20d521)" style="fill: none; stroke: #b0b0b0; stroke-width: 0.8; stroke-linecap: square"/>
     </g>
     <g id="line2d_26">
      <g>
       <use xlink:href="#m1f119c7d32" x="51.05" y="216.474499" style="stroke: #000000; stroke-width: 0.8"/>
      </g>
     </g>
     <g id="text_14">
      <!-- 500 -->
      <g transform="translate(24.9625 220.273718) scale(0.1 -0.1)">
       <use xlink:href="#DejaVuSans-35"/>
       <use xlink:href="#DejaVuSans-30" transform="translate(63.623047 0)"/>
       <use xlink:href="#DejaVuSans-30" transform="translate(127.246094 0)"/>
      </g>
     </g>
    </g>
    <g id="ytick_6">
     <g id="line2d_27">
      <path d="M 51.05 173.818056 
L 853.2 173.818056 
" clip-path="url(#pedec20d521)" style="fill: none; stroke: #b0b0b0; stroke-width: 0.8; stroke-linecap: square"/>
     </g>
     <g id="line2d_28">
      <g>
       <use xlink:href="#m1f119c7d32" x="51.05" y="173.818056" style="stroke: #000000; stroke-width: 0.8"/>
      </g>
     </g>
     <g id="text_15">
      <!-- 550 -->
      <g transform="translate(24.9625 177.617275) scale(0.1 -0.1)">
       <use xlink:href="#DejaVuSans-35"/>
       <use xlink:href="#DejaVuSans-35" transform="translate(63.623047 0)"/>
       <use xlink:href="#DejaVuSans-30" transform="translate(127.246094 0)"/>
      </g>
     </g>
    </g>
    <g id="ytick_7">
     <g id="line2d_29">
      <path d="M 51.05 131.161613 
L 853.2 131.161613 
" clip-path="url(#pedec20d521)" style="fill: none; stroke: #b0b0b0; stroke-width: 0.8; stroke-linecap: square"/>
     </g>
     <g id="line2d_30">
      <g>
       <use xlink:href="#m1f119c7d32" x="51.05" y="131.161613" style="stroke: #000000; stroke-width: 0.8"/>
      </g>
     </g>
     <g id="text_16">
      <!-- 600 -->
      <g transform="translate(24.9625 134.960831) scale(0.1 -0.1)">
       <use xlink:href="#DejaVuSans-36"/>
       <use xlink:href="#DejaVuSans-30" transform="translate(63.623047 0)"/>
       <use xlink:href="#DejaVuSans-30" transform="translate(127.246094 0)"/>
      </g>
     </g>
    </g>
    <g id="ytick_8">
     <g id="line2d_31">
      <path d="M 51.05 88.50517 
L 853.2 88.50517 
" clip-path="url(#pedec20d521)" style="fill: none; stroke: #b0b0b0; stroke-width: 0.8; stroke-linecap: square"/>
     </g>
     <g id="line2d_32">
      <g>
       <use xlink:href="#m1f119c7d32" x="51.05" y="88.50517" style="stroke: #000000; stroke-width: 0.8"/>
      </g>
     </g>
     <g id="text_17">
      <!-- 650 -->
      <g transform="translate(24.9625 92.304388) scale(0.1 -0.1)">
       <use xlink:href="#DejaVuSans-36"/>
       <use xlink:href="#DejaVuSans-35" transform="translate(63.623047 0)"/>
       <use xlink:href="#DejaVuSans-30" transform="translate(127.246094 0)"/>
      </g>
     </g>
    </g>
    <g id="ytick_9">
     <g id="line2d_33">
      <path d="M 51.05 45.848726 
L 853.2 45.848726 
" clip-path="url(#pedec20d521)" style="fill: none; stroke: #b0b0b0; stroke-width: 0.8; stroke-linecap: square"/>
     </g>
     <g id="line2d_34">
      <g>
       <use xlink:href="#m1f119c7d32" x="51.05" y="45.848726" style="stroke: #000000; stroke-width: 0.8"/>
      </g>
     </g>
     <g id="text_18">
      <!-- 700 -->
      <g transform="translate(24.9625 49.647945) scale(0.1 -0.1)">
       <defs>
        <path id="DejaVuSans-37" d="M 525 4666 
L 3525 4666 
L 3525 4397 
L 1831 0 
L 1172 0 
L 2766 4134 
L 525 4134 
L 525 4666 
z
" transform="scale(0.015625)"/>
       </defs>
       <use xlink:href="#DejaVuSans-37"/>
       <use xlink:href="#DejaVuSans-30" transform="translate(63.623047 0)"/>
       <use xlink:href="#DejaVuSans-30" transform="translate(127.246094 0)"/>
      </g>
     </g>
    </g>
    <g id="text_19">
     <!-- CO2 concentration / ppm -->
     <g transform="translate(18.882813 270.647812) rotate(-90) scale(0.1 -0.1)">
      <defs>
       <path id="DejaVuSans-43" d="M 4122 4306 
L 4122 3641 
Q 3803 3938 3442 4084 
Q 3081 4231 2675 4231 
Q 1875 4231 1450 3742 
Q 1025 3253 1025 2328 
Q 1025 1406 1450 917 
Q 1875 428 2675 428 
Q 3081 428 3442 575 
Q 3803 722 4122 1019 
L 4122 359 
Q 3791 134 3420 21 
Q 3050 -91 2638 -91 
Q 1578 -91 968 557 
Q 359 1206 359 2328 
Q 359 3453 968 4101 
Q 1578 4750 2638 4750 
Q 3056 4750 3426 4639 
Q 3797 4528 4122 4306 
z
" transform="scale(0.015625)"/>
       <path id="DejaVuSans-4f" d="M 2522 4238 
Q 1834 4238 1429 3725 
Q 1025 3213 1025 2328 
Q 1025 1447 1429 934 
Q 1834 422 2522 422 
Q 3209 422 3611 934 
Q 4013 1447 4013 2328 
Q 4013 3213 3611 3725 
Q 3209 4238 2522 4238 
z
M 2522 4750 
Q 3503 4750 4090 4092 
Q 4678 3434 4678 2328 
Q 4678 1225 4090 567 
Q 3503 -91 2522 -91 
Q 1538 -91 948 565 
Q 359 1222 359 2328 
Q 359 3434 948 4092 
Q 1538 4750 2522 4750 
z
" transform="scale(0.015625)"/>
       <path id="DejaVuSans-20" transform="scale(0.015625)"/>
       <path id="DejaVuSans-63" d="M 3122 3366 
L 3122 2828 
Q 2878 2963 2633 3030 
Q 2388 3097 2138 3097 
Q 1578 3097 1268 2742 
Q 959 2388 959 1747 
Q 959 1106 1268 751 
Q 1578 397 2138 397 
Q 2388 397 2633 464 
Q 2878 531 3122 666 
L 3122 134 
Q 2881 22 2623 -34 
Q 2366 -91 2075 -91 
Q 1284 -91 818 406 
Q 353 903 353 1747 
Q 353 2603 823 3093 
Q 1294 3584 2113 3584 
Q 2378 3584 2631 3529 
Q 2884 3475 3122 3366 
z
" transform="scale(0.015625)"/>
       <path id="DejaVuSans-6f" d="M 1959 3097 
Q 1497 3097 1228 2736 
Q 959 2375 959 1747 
Q 959 1119 1226 758 
Q 1494 397 1959 397 
Q 2419 397 2687 759 
Q 2956 1122 2956 1747 
Q 2956 2369 2687 2733 
Q 2419 3097 1959 3097 
z
M 1959 3584 
Q 2709 3584 3137 3096 
Q 3566 2609 3566 1747 
Q 3566 888 3137 398 
Q 2709 -91 1959 -91 
Q 1206 -91 779 398 
Q 353 888 353 1747 
Q 353 2609 779 3096 
Q 1206 3584 1959 3584 
z
" transform="scale(0.015625)"/>
       <path id="DejaVuSans-6e" d="M 3513 2113 
L 3513 0 
L 2938 0 
L 2938 2094 
Q 2938 2591 2744 2837 
Q 2550 3084 2163 3084 
Q 1697 3084 1428 2787 
Q 1159 2491 1159 1978 
L 1159 0 
L 581 0 
L 581 3500 
L 1159 3500 
L 1159 2956 
Q 1366 3272 1645 3428 
Q 1925 3584 2291 3584 
Q 2894 3584 3203 3211 
Q 3513 2838 3513 2113 
z
" transform="scale(0.015625)"/>
       <path id="DejaVuSans-74" d="M 1172 4494 
L 1172 3500 
L 2356 3500 
L 2356 3053 
L 1172 3053 
L 1172 1153 
Q 1172 725 1289 603 
Q 1406 481 1766 481 
L 2356 481 
L 2356 0 
L 1766 0 
Q 1100 0 847 248 
Q 594 497 594 1153 
L 594 3053 
L 172 3053 
L 172 3500 
L 594 3500 
L 594 4494 
L 1172 4494 
z
" transform="scale(0.015625)"/>
       <path id="DejaVuSans-69" d="M 603 3500 
L 1178 3500 
L 1178 0 
L 603 0 
L 603 3500 
z
M 603 4863 
L 1178 4863 
L 1178 4134 
L 603 4134 
L 603 4863 
z
" transform="scale(0.015625)"/>
       <path id="DejaVuSans-2f" d="M 1625 4666 
L 2156 4666 
L 531 -594 
L 0 -594 
L 1625 4666 
z
" transform="scale(0.015625)"/>
       <path id="DejaVuSans-70" d="M 1159 525 
L 1159 -1331 
L 581 -1331 
L 581 3500 
L 1159 3500 
L 1159 2969 
Q 1341 3281 1617 3432 
Q 1894 3584 2278 3584 
Q 2916 3584 3314 3078 
Q 3713 2572 3713 1747 
Q 3713 922 3314 415 
Q 2916 -91 2278 -91 
Q 1894 -91 1617 61 
Q 1341 213 1159 525 
z
M 3116 1747 
Q 3116 2381 2855 2742 
Q 2594 3103 2138 3103 
Q 1681 3103 1420 2742 
Q 1159 2381 1159 1747 
Q 1159 1113 1420 752 
Q 1681 391 2138 391 
Q 2594 391 2855 752 
Q 3116 1113 3116 1747 
z
" transform="scale(0.015625)"/>
       <path id="DejaVuSans-6d" d="M 3328 2828 
Q 3544 3216 3844 3400 
Q 4144 3584 4550 3584 
Q 5097 3584 5394 3201 
Q 5691 2819 5691 2113 
L 5691 0 
L 5113 0 
L 5113 2094 
Q 5113 2597 4934 2840 
Q 4756 3084 4391 3084 
Q 3944 3084 3684 2787 
Q 3425 2491 3425 1978 
L 3425 0 
L 2847 0 
L 2847 2094 
Q 2847 2600 2669 2842 
Q 2491 3084 2119 3084 
Q 1678 3084 1418 2786 
Q 1159 2488 1159 1978 
L 1159 0 
L 581 0 
L 581 3500 
L 1159 3500 
L 1159 2956 
Q 1356 3278 1631 3431 
Q 1906 3584 2284 3584 
Q 2666 3584 2933 3390 
Q 3200 3197 3328 2828 
z
" transform="scale(0.015625)"/>
      </defs>
      <use xlink:href="#DejaVuSans-43"/>
      <use xlink:href="#DejaVuSans-4f" transform="translate(69.824219 0)"/>
      <use xlink:href="#DejaVuSans-32" transform="translate(148.535156 0)"/>
      <use xlink:href="#DejaVuSans-20" transform="translate(212.158203 0)"/>
      <use xlink:href="#DejaVuSans-63" transform="translate(243.945312 0)"/>
      <use xlink:href="#DejaVuSans-6f" transform="translate(298.925781 0)"/>
      <use xlink:href="#DejaVuSans-6e" transform="translate(360.107422 0)"/>
      <use xlink:href="#DejaVuSans-63" transform="translate(423.486328 0)"/>
      <use xlink:href="#DejaVuSans-65" transform="translate(478.466797 0)"/>
      <use xlink:href="#DejaVuSans-6e" transform="translate(539.990234 0)"/>
      <use xlink:href="#DejaVuSans-74" transform="translate(603.369141 0)"/>
      <use xlink:href="#DejaVuSans-72" transform="translate(642.578125 0)"/>
      <use xlink:href="#DejaVuSans-61" transform="translate(683.691406 0)"/>
      <use xlink:href="#DejaVuSans-74" transform="translate(744.970703 0)"/>
      <use xlink:href="#DejaVuSans-69" transform="translate(784.179688 0)"/>
      <use xlink:href="#DejaVuSans-6f" transform="translate(811.962891 0)"/>
      <use xlink:href="#DejaVuSans-6e" transform="translate(873.144531 0)"/>
      <use xlink:href="#DejaVuSans-20" transform="translate(936.523438 0)"/>
      <use xlink:href="#DejaVuSans-2f" transform="translate(968.310547 0)"/>
      <use xlink:href="#DejaVuSans-20" transform="translate(1002.001953 0)"/>
      <use xlink:href="#DejaVuSans-70" transform="translate(1033.789062 0)"/>
      <use xlink:href="#DejaVuSans-70" transform="translate(1097.265625 0)"/>
      <use xlink:href="#DejaVuSans-6d" transform="translate(1160.742188 0)"/>
     </g>
    </g>
   </g>
   <g id="line2d_35">
    <path d="M 87.511364 373.467273 
L 92.683188 372.673863 
L 97.855013 372.051079 
L 103.026838 371.360044 
L 108.198662 370.899355 
L 113.370487 370.361884 
L 118.542311 370.00357 
L 123.714136 368.868908 
L 128.885961 368.177874 
L 134.057785 367.435652 
L 139.22961 366.096239 
L 144.401435 365.191923 
L 149.573259 364.64592 
L 154.745084 363.673353 
L 159.916908 361.779407 
L 165.088733 361.344312 
L 170.260558 360.54237 
L 175.432382 359.774554 
L 180.604207 358.230391 
L 185.776032 356.890979 
L 190.947856 355.671005 
L 196.119681 354.032997 
L 201.291505 352.872742 
L 206.46333 351.712487 
L 211.635155 350.287761 
L 216.806979 348.82038 
L 221.978804 347.557749 
L 227.150629 346.482807 
L 232.322453 345.032488 
L 237.494278 343.002041 
L 242.666103 341.713816 
L 247.837927 340.647405 
L 253.009752 339.580994 
L 258.181576 338.864366 
L 263.353401 338.29277 
L 268.525226 336.799794 
L 273.69705 335.085005 
L 278.868875 333.574967 
L 284.0407 332.6024 
L 289.212524 330.077139 
L 294.384349 328.62682 
L 299.556173 327.628659 
L 304.727998 326.255121 
L 309.899823 324.437957 
L 315.071647 322.279541 
L 320.243472 320.812159 
L 325.415297 318.867025 
L 330.587121 317.066924 
L 335.758946 315.420385 
L 340.93077 313.876222 
L 346.102595 312.332058 
L 351.27442 310.233361 
L 356.446244 308.740386 
L 361.618069 306.854971 
L 366.789894 304.568586 
L 371.961718 302.802609 
L 377.133543 300.925725 
L 382.305368 298.025087 
L 387.477192 296.020234 
L 392.649017 294.348102 
L 397.820841 291.839903 
L 402.992666 289.638831 
L 408.164491 287.753416 
" clip-path="url(#pedec20d521)" style="fill: none; stroke: #000000; stroke-width: 2; stroke-linecap: square"/>
    <defs>
     <path id="m157ba6d539" d="M 0 1.5 
C 0.397805 1.5 0.77937 1.341951 1.06066 1.06066 
C 1.341951 0.77937 1.5 0.397805 1.5 0 
C 1.5 -0.397805 1.341951 -0.77937 1.06066 -1.06066 
C 0.77937 -1.341951 0.397805 -1.5 0 -1.5 
C -0.397805 -1.5 -0.77937 -1.341951 -1.06066 -1.06066 
C -1.341951 -0.77937 -1.5 -0.397805 -1.5 0 
C -1.5 0.397805 -1.341951 0.77937 -1.06066 1.06066 
C -0.77937 1.341951 -0.397805 1.5 0 1.5 
z
" style="stroke: #000000"/>
    </defs>
    <g clip-path="url(#pedec20d521)">
     <use xlink:href="#m157ba6d539" x="87.511364" y="373.467273" style="stroke: #000000"/>
     <use xlink:href="#m157ba6d539" x="92.683188" y="372.673863" style="stroke: #000000"/>
     <use xlink:href="#m157ba6d539" x="97.855013" y="372.051079" style="stroke: #000000"/>
     <use xlink:href="#m157ba6d539" x="103.026838" y="371.360044" style="stroke: #000000"/>
     <use xlink:href="#m157ba6d539" x="108.198662" y="370.899355" style="stroke: #000000"/>
     <use xlink:href="#m157ba6d539" x="113.370487" y="370.361884" style="stroke: #000000"/>
     <use xlink:href="#m157ba6d539" x="118.542311" y="370.00357" style="stroke: #000000"/>
     <use xlink:href="#m157ba6d539" x="123.714136" y="368.868908" style="stroke: #000000"/>
     <use xlink:href="#m157ba6d539" x="128.885961" y="368.177874" style="stroke: #000000"/>
     <use xlink:href="#m157ba6d539" x="134.057785" y="367.435652" style="stroke: #000000"/>
     <use xlink:href="#m157ba6d539" x="139.22961" y="366.096239" style="stroke: #000000"/>
     <use xlink:href="#m157ba6d539" x="144.401435" y="365.191923" style="stroke: #000000"/>
     <use xlink:href="#m157ba6d539" x="149.573259" y="364.64592" style="stroke: #000000"/>
     <use xlink:href="#m157ba6d539" x="154.745084" y="363.673353" style="stroke: #000000"/>
     <use xlink:href="#m157ba6d539" x="159.916908" y="361.779407" style="stroke: #000000"/>
     <use xlink:href="#m157ba6d539" x="165.088733" y="361.344312" style="stroke: #000000"/>
     <use xlink:href="#m157ba6d539" x="170.260558" y="360.54237" style="stroke: #000000"/>
     <use xlink:href="#m157ba6d539" x="175.432382" y="359.774554" style="stroke: #000000"/>
     <use xlink:href="#m157ba6d539" x="180.604207" y="358.230391" style="stroke: #000000"/>
     <use xlink:href="#m157ba6d539" x="185.776032" y="356.890979" style="stroke: #000000"/>
     <use xlink:href="#m157ba6d539" x="190.947856" y="355.671005" style="stroke: #000000"/>
     <use xlink:href="#m157ba6d539" x="196.119681" y="354.032997" style="stroke: #000000"/>
     <use xlink:href="#m157ba6d539" x="201.291505" y="352.872742" style="stroke: #000000"/>
     <use xlink:href="#m157ba6d539" x="206.46333" y="351.712487" style="stroke: #000000"/>
     <use xlink:href="#m157ba6d539" x="211.635155" y="350.287761" style="stroke: #000000"/>
     <use xlink:href="#m157ba6d539" x="216.806979" y="348.82038" style="stroke: #000000"/>
     <use xlink:href="#m157ba6d539" x="221.978804" y="347.557749" style="stroke: #000000"/>
     <use xlink:href="#m157ba6d539" x="227.150629" y="346.482807" style="stroke: #000000"/>
     <use xlink:href="#m157ba6d539" x="232.322453" y="345.032488" style="stroke: #000000"/>
     <use xlink:href="#m157ba6d539" x="237.494278" y="343.002041" style="stroke: #000000"/>
     <use xlink:href="#m157ba6d539" x="242.666103" y="341.713816" style="stroke: #000000"/>
     <use xlink:href="#m157ba6d539" x="247.837927" y="340.647405" style="stroke: #000000"/>
     <use xlink:href="#m157ba6d539" x="253.009752" y="339.580994" style="stroke: #000000"/>
     <use xlink:href="#m157ba6d539" x="258.181576" y="338.864366" style="stroke: #000000"/>
     <use xlink:href="#m157ba6d539" x="263.353401" y="338.29277" style="stroke: #000000"/>
     <use xlink:href="#m157ba6d539" x="268.525226" y="336.799794" style="stroke: #000000"/>
     <use xlink:href="#m157ba6d539" x="273.69705" y="335.085005" style="stroke: #000000"/>
     <use xlink:href="#m157ba6d539" x="278.868875" y="333.574967" style="stroke: #000000"/>
     <use xlink:href="#m157ba6d539" x="284.0407" y="332.6024" style="stroke: #000000"/>
     <use xlink:href="#m157ba6d539" x="289.212524" y="330.077139" style="stroke: #000000"/>
     <use xlink:href="#m157ba6d539" x="294.384349" y="328.62682" style="stroke: #000000"/>
     <use xlink:href="#m157ba6d539" x="299.556173" y="327.628659" style="stroke: #000000"/>
     <use xlink:href="#m157ba6d539" x="304.727998" y="326.255121" style="stroke: #000000"/>
     <use xlink:href="#m157ba6d539" x="309.899823" y="324.437957" style="stroke: #000000"/>
     <use xlink:href="#m157ba6d539" x="315.071647" y="322.279541" style="stroke: #000000"/>
     <use xlink:href="#m157ba6d539" x="320.243472" y="320.812159" style="stroke: #000000"/>
     <use xlink:href="#m157ba6d539" x="325.415297" y="318.867025" style="stroke: #000000"/>
     <use xlink:href="#m157ba6d539" x="330.587121" y="317.066924" style="stroke: #000000"/>
     <use xlink:href="#m157ba6d539" x="335.758946" y="315.420385" style="stroke: #000000"/>
     <use xlink:href="#m157ba6d539" x="340.93077" y="313.876222" style="stroke: #000000"/>
     <use xlink:href="#m157ba6d539" x="346.102595" y="312.332058" style="stroke: #000000"/>
     <use xlink:href="#m157ba6d539" x="351.27442" y="310.233361" style="stroke: #000000"/>
     <use xlink:href="#m157ba6d539" x="356.446244" y="308.740386" style="stroke: #000000"/>
     <use xlink:href="#m157ba6d539" x="361.618069" y="306.854971" style="stroke: #000000"/>
     <use xlink:href="#m157ba6d539" x="366.789894" y="304.568586" style="stroke: #000000"/>
     <use xlink:href="#m157ba6d539" x="371.961718" y="302.802609" style="stroke: #000000"/>
     <use xlink:href="#m157ba6d539" x="377.133543" y="300.925725" style="stroke: #000000"/>
     <use xlink:href="#m157ba6d539" x="382.305368" y="298.025087" style="stroke: #000000"/>
     <use xlink:href="#m157ba6d539" x="387.477192" y="296.020234" style="stroke: #000000"/>
     <use xlink:href="#m157ba6d539" x="392.649017" y="294.348102" style="stroke: #000000"/>
     <use xlink:href="#m157ba6d539" x="397.820841" y="291.839903" style="stroke: #000000"/>
     <use xlink:href="#m157ba6d539" x="402.992666" y="289.638831" style="stroke: #000000"/>
     <use xlink:href="#m157ba6d539" x="408.164491" y="287.753416" style="stroke: #000000"/>
    </g>
   </g>
   <g id="line2d_36">
    <path d="M 408.164491 287.753416 
L 413.336315 286.4079 
L 418.50814 284.307939 
L 423.679965 282.185731 
L 428.851789 280.041278 
L 434.023614 277.87458 
L 439.195438 275.685636 
L 444.367263 273.474447 
L 449.539088 271.241011 
L 454.710912 268.985331 
L 459.882737 266.707405 
L 465.054562 264.407233 
L 470.226386 262.084815 
L 475.398211 259.740152 
L 480.570035 257.373244 
L 485.74186 254.98409 
L 490.913685 252.57269 
L 496.085509 250.139045 
L 501.257334 247.683154 
L 506.429159 245.205018 
L 511.600983 242.704636 
L 516.772808 240.182009 
L 521.944632 237.637136 
L 527.116457 235.070017 
L 532.288282 232.480653 
L 537.460106 229.869043 
L 542.631931 227.235188 
L 547.803756 224.579087 
L 552.97558 221.900741 
L 558.147405 219.200149 
L 563.31923 216.477311 
L 568.491054 213.732228 
L 573.662879 210.964899 
L 578.834703 208.175325 
L 584.006528 205.363505 
L 589.178353 202.52944 
L 594.350177 199.673129 
L 599.522002 196.794572 
L 604.693827 193.89377 
L 609.865651 190.970722 
L 615.037476 188.025429 
L 620.2093 185.05789 
L 625.381125 182.068106 
L 630.55295 179.056076 
L 635.724774 176.021801 
L 640.896599 172.96528 
L 646.068424 169.886513 
L 651.240248 166.785501 
L 656.412073 163.662243 
L 661.583897 160.51674 
L 666.755722 157.348991 
L 671.927547 154.158996 
L 677.099371 150.946756 
L 682.271196 147.712271 
L 687.443021 144.45554 
L 692.614845 141.176563 
L 697.78667 137.875341 
L 702.958495 134.551873 
L 708.130319 131.206159 
L 713.302144 127.8382 
L 718.473968 124.447996 
L 723.645793 121.035546 
L 728.817618 117.60085 
L 733.989442 114.143909 
L 739.161267 110.664722 
L 744.333092 107.16329 
L 749.504916 103.639612 
L 754.676741 100.093688 
L 759.848565 96.525519 
L 765.02039 92.935104 
L 770.192215 89.322444 
L 775.364039 85.687538 
L 780.535864 82.030387 
L 785.707689 78.35099 
L 790.879513 74.649348 
L 796.051338 70.92546 
L 801.223162 67.179326 
L 806.394987 63.410947 
L 811.566812 59.620322 
L 816.738636 55.807452 
" clip-path="url(#pedec20d521)" style="fill: none; stroke: #1f77b4; stroke-width: 2; stroke-linecap: square"/>
   </g>
   <g id="line2d_37">
    <path d="M 408.164491 287.753416 
L 413.336315 285.73861 
L 418.50814 283.550932 
L 423.679965 281.344509 
L 428.851789 279.115285 
L 434.023614 276.86073 
L 439.195438 274.581899 
L 444.367263 272.278496 
L 449.539088 269.950593 
L 454.710912 267.598174 
L 459.882737 265.221241 
L 465.054562 262.819795 
L 470.226386 260.393835 
L 475.398211 257.943362 
L 480.570035 255.468375 
L 485.74186 252.968875 
L 490.913685 250.444862 
L 496.085509 247.896334 
L 501.257334 245.323293 
L 506.429159 242.725739 
L 511.600983 240.103671 
L 516.772808 237.45709 
L 521.944632 234.785995 
L 527.116457 232.090387 
L 532.288282 229.370265 
L 537.460106 226.625629 
L 542.631931 223.85648 
L 547.803756 221.062818 
L 552.97558 218.244641 
L 558.147405 215.401952 
L 563.31923 212.534749 
L 568.491054 209.643032 
L 573.662879 206.726802 
L 578.834703 203.786058 
L 584.006528 200.820801 
L 589.178353 197.83103 
L 594.350177 194.816746 
L 599.522002 191.777948 
L 604.693827 188.714637 
L 609.865651 185.626812 
L 615.037476 182.514474 
L 620.2093 179.377622 
L 625.381125 176.216256 
L 630.55295 173.030377 
L 635.724774 169.819985 
L 640.896599 166.585079 
L 646.068424 163.32566 
L 651.240248 160.041726 
L 656.412073 156.73328 
L 661.583897 153.40032 
L 666.755722 150.042846 
L 671.927547 146.660859 
L 677.099371 143.254358 
L 682.271196 139.823344 
L 687.443021 136.367816 
L 692.614845 132.887775 
L 697.78667 129.38322 
L 702.958495 125.854152 
L 708.130319 122.30057 
L 713.302144 118.722475 
L 718.473968 115.119866 
L 723.645793 111.492744 
L 728.817618 107.841108 
L 733.989442 104.164958 
L 739.161267 100.464295 
L 744.333092 96.739119 
L 749.504916 92.989429 
L 754.676741 89.215225 
L 759.848565 85.416508 
L 765.02039 81.593277 
L 770.192215 77.745533 
L 775.364039 73.873276 
L 780.535864 69.976504 
L 785.707689 66.05522 
L 790.879513 62.109421 
L 796.051338 58.13911 
L 801.223162 54.144284 
L 806.394987 50.124945 
L 811.566812 46.081093 
L 816.738636 42.012727 
" clip-path="url(#pedec20d521)" style="fill: none; stroke: #ff7f0e; stroke-width: 2; stroke-linecap: square"/>
   </g>
   <g id="line2d_38">
    <path d="M 51.05 58.645659 
L 853.2 58.645659 
" clip-path="url(#pedec20d521)" style="fill: none; stroke-dasharray: 5.55,2.4; stroke-dashoffset: 0; stroke: #ff0000; stroke-width: 1.5"/>
   </g>
   <g id="line2d_39">
    <path d="M 558.147405 390.04 
L 558.147405 25.44 
" clip-path="url(#pedec20d521)" style="fill: none; stroke-dasharray: 3.7,1.6; stroke-dashoffset: 0; stroke: #808080"/>
   </g>
   <g id="line2d_40">
    <path d="M 816.738636 390.04 
L 816.738636 25.44 
" clip-path="url(#pedec20d521)" style="fill: none; stroke-dasharray: 1,1.65; stroke-dashoffset: 0; stroke: #808080"/>
   </g>
   <g id="patch_3">
    <path d="M 51.05 390.04 
L 51.05 25.44 
" style="fill: none; stroke: #000000; stroke-width: 0.8; stroke-linejoin: miter; stroke-linecap: square"/>
   </g>
   <g id="patch_4">
    <path d="M 853.2 390.04 
L 853.2 25.44 
" style="fill: none; stroke: #000000; stroke-width: 0.8; stroke-linejoin: miter; stroke-linecap: square"/>
   </g>
   <g id="patch_5">
    <path d="M 51.05 390.04 
L 853.2 390.04 
" style="fill: none; stroke: #000000; stroke-width: 0.8; stroke-linejoin: miter; stroke-linecap: square"/>
   </g>
   <g id="patch_6">
    <path d="M 51.05 25.44 
L 853.2 25.44 
" style="fill: none; stroke: #000000; stroke-width: 0.8; stroke-linejoin: miter; stroke-linecap: square"/>
   </g>
   <g id="text_20">
    <!-- Observed CO2 Data Extended with Quadratic and SARIMA Forecasts -->
    <g transform="translate(247.2025 19.44) scale(0.12 -0.12)">
     <defs>
      <path id="DejaVuSans-62" d="M 3116 1747 
Q 3116 2381 2855 2742 
Q 2594 3103 2138 3103 
Q 1681 3103 1420 2742 
Q 1159 2381 1159 1747 
Q 1159 1113 1420 752 
Q 1681 391 2138 391 
Q 2594 391 2855 752 
Q 3116 1113 3116 1747 
z
M 1159 2969 
Q 1341 3281 1617 3432 
Q 1894 3584 2278 3584 
Q 2916 3584 3314 3078 
Q 3713 2572 3713 1747 
Q 3713 922 3314 415 
Q 2916 -91 2278 -91 
Q 1894 -91 1617 61 
Q 1341 213 1159 525 
L 1159 0 
L 581 0 
L 581 4863 
L 1159 4863 
L 1159 2969 
z
" transform="scale(0.015625)"/>
      <path id="DejaVuSans-73" d="M 2834 3397 
L 2834 2853 
Q 2591 2978 2328 3040 
Q 2066 3103 1784 3103 
Q 1356 3103 1142 2972 
Q 928 2841 928 2578 
Q 928 2378 1081 2264 
Q 1234 2150 1697 2047 
L 1894 2003 
Q 2506 1872 2764 1633 
Q 3022 1394 3022 966 
Q 3022 478 2636 193 
Q 2250 -91 1575 -91 
Q 1294 -91 989 -36 
Q 684 19 347 128 
L 347 722 
Q 666 556 975 473 
Q 1284 391 1588 391 
Q 1994 391 2212 530 
Q 2431 669 2431 922 
Q 2431 1156 2273 1281 
Q 2116 1406 1581 1522 
L 1381 1569 
Q 847 1681 609 1914 
Q 372 2147 372 2553 
Q 372 3047 722 3315 
Q 1072 3584 1716 3584 
Q 2034 3584 2315 3537 
Q 2597 3491 2834 3397 
z
" transform="scale(0.015625)"/>
      <path id="DejaVuSans-76" d="M 191 3500 
L 800 3500 
L 1894 563 
L 2988 3500 
L 3597 3500 
L 2284 0 
L 1503 0 
L 191 3500 
z
" transform="scale(0.015625)"/>
      <path id="DejaVuSans-64" d="M 2906 2969 
L 2906 4863 
L 3481 4863 
L 3481 0 
L 2906 0 
L 2906 525 
Q 2725 213 2448 61 
Q 2172 -91 1784 -91 
Q 1150 -91 751 415 
Q 353 922 353 1747 
Q 353 2572 751 3078 
Q 1150 3584 1784 3584 
Q 2172 3584 2448 3432 
Q 2725 3281 2906 2969 
z
M 947 1747 
Q 947 1113 1208 752 
Q 1469 391 1925 391 
Q 2381 391 2643 752 
Q 2906 1113 2906 1747 
Q 2906 2381 2643 2742 
Q 2381 3103 1925 3103 
Q 1469 3103 1208 2742 
Q 947 2381 947 1747 
z
" transform="scale(0.015625)"/>
      <path id="DejaVuSans-44" d="M 1259 4147 
L 1259 519 
L 2022 519 
Q 2988 519 3436 956 
Q 3884 1394 3884 2338 
Q 3884 3275 3436 3711 
Q 2988 4147 2022 4147 
L 1259 4147 
z
M 628 4666 
L 1925 4666 
Q 3281 4666 3915 4102 
Q 4550 3538 4550 2338 
Q 4550 1131 3912 565 
Q 3275 0 1925 0 
L 628 0 
L 628 4666 
z
" transform="scale(0.015625)"/>
      <path id="DejaVuSans-45" d="M 628 4666 
L 3578 4666 
L 3578 4134 
L 1259 4134 
L 1259 2753 
L 3481 2753 
L 3481 2222 
L 1259 2222 
L 1259 531 
L 3634 531 
L 3634 0 
L 628 0 
L 628 4666 
z
" transform="scale(0.015625)"/>
      <path id="DejaVuSans-78" d="M 3513 3500 
L 2247 1797 
L 3578 0 
L 2900 0 
L 1881 1375 
L 863 0 
L 184 0 
L 1544 1831 
L 300 3500 
L 978 3500 
L 1906 2253 
L 2834 3500 
L 3513 3500 
z
" transform="scale(0.015625)"/>
      <path id="DejaVuSans-77" d="M 269 3500 
L 844 3500 
L 1563 769 
L 2278 3500 
L 2956 3500 
L 3675 769 
L 4391 3500 
L 4966 3500 
L 4050 0 
L 3372 0 
L 2619 2869 
L 1863 0 
L 1184 0 
L 269 3500 
z
" transform="scale(0.015625)"/>
      <path id="DejaVuSans-68" d="M 3513 2113 
L 3513 0 
L 2938 0 
L 2938 2094 
Q 2938 2591 2744 2837 
Q 2550 3084 2163 3084 
Q 1697 3084 1428 2787 
Q 1159 2491 1159 1978 
L 1159 0 
L 581 0 
L 581 4863 
L 1159 4863 
L 1159 2956 
Q 1366 3272 1645 3428 
Q 1925 3584 2291 3584 
Q 2894 3584 3203 3211 
Q 3513 2838 3513 2113 
z
" transform="scale(0.015625)"/>
      <path id="DejaVuSans-51" d="M 2522 4238 
Q 1834 4238 1429 3725 
Q 1025 3213 1025 2328 
Q 1025 1447 1429 934 
Q 1834 422 2522 422 
Q 3209 422 3611 934 
Q 4013 1447 4013 2328 
Q 4013 3213 3611 3725 
Q 3209 4238 2522 4238 
z
M 3406 84 
L 4238 -825 
L 3475 -825 
L 2784 -78 
Q 2681 -84 2626 -87 
Q 2572 -91 2522 -91 
Q 1538 -91 948 567 
Q 359 1225 359 2328 
Q 359 3434 948 4092 
Q 1538 4750 2522 4750 
Q 3503 4750 4090 4092 
Q 4678 3434 4678 2328 
Q 4678 1516 4351 937 
Q 4025 359 3406 84 
z
" transform="scale(0.015625)"/>
      <path id="DejaVuSans-75" d="M 544 1381 
L 544 3500 
L 1119 3500 
L 1119 1403 
Q 1119 906 1312 657 
Q 1506 409 1894 409 
Q 2359 409 2629 706 
Q 2900 1003 2900 1516 
L 2900 3500 
L 3475 3500 
L 3475 0 
L 2900 0 
L 2900 538 
Q 2691 219 2414 64 
Q 2138 -91 1772 -91 
Q 1169 -91 856 284 
Q 544 659 544 1381 
z
M 1991 3584 
L 1991 3584 
z
" transform="scale(0.015625)"/>
      <path id="DejaVuSans-53" d="M 3425 4513 
L 3425 3897 
Q 3066 4069 2747 4153 
Q 2428 4238 2131 4238 
Q 1616 4238 1336 4038 
Q 1056 3838 1056 3469 
Q 1056 3159 1242 3001 
Q 1428 2844 1947 2747 
L 2328 2669 
Q 3034 2534 3370 2195 
Q 3706 1856 3706 1288 
Q 3706 609 3251 259 
Q 2797 -91 1919 -91 
Q 1588 -91 1214 -16 
Q 841 59 441 206 
L 441 856 
Q 825 641 1194 531 
Q 1563 422 1919 422 
Q 2459 422 2753 634 
Q 3047 847 3047 1241 
Q 3047 1584 2836 1778 
Q 2625 1972 2144 2069 
L 1759 2144 
Q 1053 2284 737 2584 
Q 422 2884 422 3419 
Q 422 4038 858 4394 
Q 1294 4750 2059 4750 
Q 2388 4750 2728 4690 
Q 3069 4631 3425 4513 
z
" transform="scale(0.015625)"/>
      <path id="DejaVuSans-41" d="M 2188 4044 
L 1331 1722 
L 3047 1722 
L 2188 4044 
z
M 1831 4666 
L 2547 4666 
L 4325 0 
L 3669 0 
L 3244 1197 
L 1141 1197 
L 716 0 
L 50 0 
L 1831 4666 
z
" transform="scale(0.015625)"/>
      <path id="DejaVuSans-52" d="M 2841 2188 
Q 3044 2119 3236 1894 
Q 3428 1669 3622 1275 
L 4263 0 
L 3584 0 
L 2988 1197 
Q 2756 1666 2539 1819 
Q 2322 1972 1947 1972 
L 1259 1972 
L 1259 0 
L 628 0 
L 628 4666 
L 2053 4666 
Q 2853 4666 3247 4331 
Q 3641 3997 3641 3322 
Q 3641 2881 3436 2590 
Q 3231 2300 2841 2188 
z
M 1259 4147 
L 1259 2491 
L 2053 2491 
Q 2509 2491 2742 2702 
Q 2975 2913 2975 3322 
Q 2975 3731 2742 3939 
Q 2509 4147 2053 4147 
L 1259 4147 
z
" transform="scale(0.015625)"/>
      <path id="DejaVuSans-49" d="M 628 4666 
L 1259 4666 
L 1259 0 
L 628 0 
L 628 4666 
z
" transform="scale(0.015625)"/>
      <path id="DejaVuSans-4d" d="M 628 4666 
L 1569 4666 
L 2759 1491 
L 3956 4666 
L 4897 4666 
L 4897 0 
L 4281 0 
L 4281 4097 
L 3078 897 
L 2444 897 
L 1241 4097 
L 1241 0 
L 628 0 
L 628 4666 
z
" transform="scale(0.015625)"/>
      <path id="DejaVuSans-46" d="M 628 4666 
L 3309 4666 
L 3309 4134 
L 1259 4134 
L 1259 2759 
L 3109 2759 
L 3109 2228 
L 1259 2228 
L 1259 0 
L 628 0 
L 628 4666 
z
" transform="scale(0.015625)"/>
     </defs>
     <use xlink:href="#DejaVuSans-4f"/>
     <use xlink:href="#DejaVuSans-62" transform="translate(78.710938 0)"/>
     <use xlink:href="#DejaVuSans-73" transform="translate(142.1875 0)"/>
     <use xlink:href="#DejaVuSans-65" transform="translate(194.287109 0)"/>
     <use xlink:href="#DejaVuSans-72" transform="translate(255.810547 0)"/>
     <use xlink:href="#DejaVuSans-76" transform="translate(296.923828 0)"/>
     <use xlink:href="#DejaVuSans-65" transform="translate(356.103516 0)"/>
     <use xlink:href="#DejaVuSans-64" transform="translate(417.626953 0)"/>
     <use xlink:href="#DejaVuSans-20" transform="translate(481.103516 0)"/>
     <use xlink:href="#DejaVuSans-43" transform="translate(512.890625 0)"/>
     <use xlink:href="#DejaVuSans-4f" transform="translate(582.714844 0)"/>
     <use xlink:href="#DejaVuSans-32" transform="translate(661.425781 0)"/>
     <use xlink:href="#DejaVuSans-20" transform="translate(725.048828 0)"/>
     <use xlink:href="#DejaVuSans-44" transform="translate(756.835938 0)"/>
     <use xlink:href="#DejaVuSans-61" transform="translate(833.837891 0)"/>
     <use xlink:href="#DejaVuSans-74" transform="translate(895.117188 0)"/>
     <use xlink:href="#DejaVuSans-61" transform="translate(934.326172 0)"/>
     <use xlink:href="#DejaVuSans-20" transform="translate(995.605469 0)"/>
     <use xlink:href="#DejaVuSans-45" transform="translate(1027.392578 0)"/>
     <use xlink:href="#DejaVuSans-78" transform="translate(1090.576172 0)"/>
     <use xlink:href="#DejaVuSans-74" transform="translate(1149.755859 0)"/>
     <use xlink:href="#DejaVuSans-65" transform="translate(1188.964844 0)"/>
     <use xlink:href="#DejaVuSans-6e" transform="translate(1250.488281 0)"/>
     <use xlink:href="#DejaVuSans-64" transform="translate(1313.867188 0)"/>
     <use xlink:href="#DejaVuSans-65" transform="translate(1377.34375 0)"/>
     <use xlink:href="#DejaVuSans-64" transform="translate(1438.867188 0)"/>
     <use xlink:href="#DejaVuSans-20" transform="translate(1502.34375 0)"/>
     <use xlink:href="#DejaVuSans-77" transform="translate(1534.130859 0)"/>
     <use xlink:href="#DejaVuSans-69" transform="translate(1615.917969 0)"/>
     <use xlink:href="#DejaVuSans-74" transform="translate(1643.701172 0)"/>
     <use xlink:href="#DejaVuSans-68" transform="translate(1682.910156 0)"/>
     <use xlink:href="#DejaVuSans-20" transform="translate(1746.289062 0)"/>
     <use xlink:href="#DejaVuSans-51" transform="translate(1778.076172 0)"/>
     <use xlink:href="#DejaVuSans-75" transform="translate(1856.787109 0)"/>
     <use xlink:href="#DejaVuSans-61" transform="translate(1920.166016 0)"/>
     <use xlink:href="#DejaVuSans-64" transform="translate(1981.445312 0)"/>
     <use xlink:href="#DejaVuSans-72" transform="translate(2044.921875 0)"/>
     <use xlink:href="#DejaVuSans-61" transform="translate(2086.035156 0)"/>
     <use xlink:href="#DejaVuSans-74" transform="translate(2147.314453 0)"/>
     <use xlink:href="#DejaVuSans-69" transform="translate(2186.523438 0)"/>
     <use xlink:href="#DejaVuSans-63" transform="translate(2214.306641 0)"/>
     <use xlink:href="#DejaVuSans-20" transform="translate(2269.287109 0)"/>
     <use xlink:href="#DejaVuSans-61" transform="translate(2301.074219 0)"/>
     <use xlink:href="#DejaVuSans-6e" transform="translate(2362.353516 0)"/>
     <use xlink:href="#DejaVuSans-64" transform="translate(2425.732422 0)"/>
     <use xlink:href="#DejaVuSans-20" transform="translate(2489.208984 0)"/>
     <use xlink:href="#DejaVuSans-53" transform="translate(2520.996094 0)"/>
     <use xlink:href="#DejaVuSans-41" transform="translate(2586.347656 0)"/>
     <use xlink:href="#DejaVuSans-52" transform="translate(2654.755859 0)"/>
     <use xlink:href="#DejaVuSans-49" transform="translate(2724.238281 0)"/>
     <use xlink:href="#DejaVuSans-4d" transform="translate(2753.730469 0)"/>
     <use xlink:href="#DejaVuSans-41" transform="translate(2840.009766 0)"/>
     <use xlink:href="#DejaVuSans-20" transform="translate(2908.417969 0)"/>
     <use xlink:href="#DejaVuSans-46" transform="translate(2940.205078 0)"/>
     <use xlink:href="#DejaVuSans-6f" transform="translate(2994.099609 0)"/>
     <use xlink:href="#DejaVuSans-72" transform="translate(3055.28125 0)"/>
     <use xlink:href="#DejaVuSans-65" transform="translate(3094.144531 0)"/>
     <use xlink:href="#DejaVuSans-63" transform="translate(3155.667969 0)"/>
     <use xlink:href="#DejaVuSans-61" transform="translate(3210.648438 0)"/>
     <use xlink:href="#DejaVuSans-73" transform="translate(3271.927734 0)"/>
     <use xlink:href="#DejaVuSans-74" transform="translate(3324.027344 0)"/>
     <use xlink:href="#DejaVuSans-73" transform="translate(3363.236328 0)"/>
    </g>
   </g>
   <g id="PathCollection_1">
    <defs>
     <path id="m40553938ce" d="M 0 3.354102 
C 0.889518 3.354102 1.742724 3.000693 2.371708 2.371708 
C 3.000693 1.742724 3.354102 0.889518 3.354102 0 
C 3.354102 -0.889518 3.000693 -1.742724 2.371708 -2.371708 
C 1.742724 -3.000693 0.889518 -3.354102 0 -3.354102 
C -0.889518 -3.354102 -1.742724 -3.000693 -2.371708 -2.371708 
C -3.000693 -1.742724 -3.354102 -0.889518 -3.354102 0 
C -3.354102 0.889518 -3.000693 1.742724 -2.371708 2.371708 
C -1.742724 3.000693 -0.889518 3.354102 0 3.354102 
z
" style="stroke: #1f77b4"/>
    </defs>
    <g clip-path="url(#pedec20d521)">
     <use xlink:href="#m40553938ce" x="558.147405" y="219.200149" style="fill: #1f77b4; stroke: #1f77b4"/>
    </g>
   </g>
   <g id="PathCollection_2">
    <defs>
     <path id="med0424239f" d="M 0 3.354102 
C 0.889518 3.354102 1.742724 3.000693 2.371708 2.371708 
C 3.000693 1.742724 3.354102 0.889518 3.354102 0 
C 3.354102 -0.889518 3.000693 -1.742724 2.371708 -2.371708 
C 1.742724 -3.000693 0.889518 -3.354102 0 -3.354102 
C -0.889518 -3.354102 -1.742724 -3.000693 -2.371708 -2.371708 
C -3.000693 -1.742724 -3.354102 -0.889518 -3.354102 0 
C -3.354102 0.889518 -3.000693 1.742724 -2.371708 2.371708 
C -1.742724 3.000693 -0.889518 3.354102 0 3.354102 
z
" style="stroke: #ff7f0e"/>
    </defs>
    <g clip-path="url(#pedec20d521)">
     <use xlink:href="#med0424239f" x="816.738636" y="55.807452" style="fill: #ff7f0e; stroke: #ff7f0e"/>
    </g>
   </g>
   <g id="PathCollection_3">
    <defs>
     <path id="m2e3ef494a0" d="M 0 3.354102 
C 0.889518 3.354102 1.742724 3.000693 2.371708 2.371708 
C 3.000693 1.742724 3.354102 0.889518 3.354102 0 
C 3.354102 -0.889518 3.000693 -1.742724 2.371708 -2.371708 
C 1.742724 -3.000693 0.889518 -3.354102 0 -3.354102 
C -0.889518 -3.354102 -1.742724 -3.000693 -2.371708 -2.371708 
C -3.000693 -1.742724 -3.354102 -0.889518 -3.354102 0 
C -3.354102 0.889518 -3.000693 1.742724 -2.371708 2.371708 
C -1.742724 3.000693 -0.889518 3.354102 0 3.354102 
z
" style="stroke: #2ca02c"/>
    </defs>
    <g clip-path="url(#pedec20d521)">
     <use xlink:href="#m2e3ef494a0" x="558.147405" y="215.401952" style="fill: #2ca02c; stroke: #2ca02c"/>
    </g>
   </g>
   <g id="PathCollection_4">
    <defs>
     <path id="m0abb892514" d="M 0 3.354102 
C 0.889518 3.354102 1.742724 3.000693 2.371708 2.371708 
C 3.000693 1.742724 3.354102 0.889518 3.354102 0 
C 3.354102 -0.889518 3.000693 -1.742724 2.371708 -2.371708 
C 1.742724 -3.000693 0.889518 -3.354102 0 -3.354102 
C -0.889518 -3.354102 -1.742724 -3.000693 -2.371708 -2.371708 
C -3.000693 -1.742724 -3.354102 -0.889518 -3.354102 0 
C -3.354102 0.889518 -3.000693 1.742724 -2.371708 2.371708 
C -1.742724 3.000693 -0.889518 3.354102 0 3.354102 
z
" style="stroke: #d62728"/>
    </defs>
    <g clip-path="url(#pedec20d521)">
     <use xlink:href="#m0abb892514" x="816.738636" y="42.012727" style="fill: #d62728; stroke: #d62728"/>
    </g>
   </g>
   <g id="legend_1">
    <g id="patch_7">
     <path d="M 58.05 253.274375 
L 254.803125 253.274375 
Q 256.803125 253.274375 256.803125 251.274375 
L 256.803125 164.205625 
Q 256.803125 162.205625 254.803125 162.205625 
L 58.05 162.205625 
Q 56.05 162.205625 56.05 164.205625 
L 56.05 251.274375 
Q 56.05 253.274375 58.05 253.274375 
z
" style="fill: #ffffff; opacity: 0.8; stroke: #cccccc; stroke-linejoin: miter"/>
    </g>
    <g id="line2d_41">
     <path d="M 60.05 170.304062 
L 70.05 170.304062 
L 80.05 170.304062 
" style="fill: none; stroke: #000000; stroke-width: 2; stroke-linecap: square"/>
     <g>
      <use xlink:href="#m157ba6d539" x="70.05" y="170.304062" style="stroke: #000000"/>
     </g>
    </g>
    <g id="text_21">
     <!-- Observed annual CO2 -->
     <g transform="translate(88.05 173.804062) scale(0.1 -0.1)">
      <defs>
       <path id="DejaVuSans-6c" d="M 603 4863 
L 1178 4863 
L 1178 0 
L 603 0 
L 603 4863 
z
" transform="scale(0.015625)"/>
      </defs>
      <use xlink:href="#DejaVuSans-4f"/>
      <use xlink:href="#DejaVuSans-62" transform="translate(78.710938 0)"/>
      <use xlink:href="#DejaVuSans-73" transform="translate(142.1875 0)"/>
      <use xlink:href="#DejaVuSans-65" transform="translate(194.287109 0)"/>
      <use xlink:href="#DejaVuSans-72" transform="translate(255.810547 0)"/>
      <use xlink:href="#DejaVuSans-76" transform="translate(296.923828 0)"/>
      <use xlink:href="#DejaVuSans-65" transform="translate(356.103516 0)"/>
      <use xlink:href="#DejaVuSans-64" transform="translate(417.626953 0)"/>
      <use xlink:href="#DejaVuSans-20" transform="translate(481.103516 0)"/>
      <use xlink:href="#DejaVuSans-61" transform="translate(512.890625 0)"/>
      <use xlink:href="#DejaVuSans-6e" transform="translate(574.169922 0)"/>
      <use xlink:href="#DejaVuSans-6e" transform="translate(637.548828 0)"/>
      <use xlink:href="#DejaVuSans-75" transform="translate(700.927734 0)"/>
      <use xlink:href="#DejaVuSans-61" transform="translate(764.306641 0)"/>
      <use xlink:href="#DejaVuSans-6c" transform="translate(825.585938 0)"/>
      <use xlink:href="#DejaVuSans-20" transform="translate(853.369141 0)"/>
      <use xlink:href="#DejaVuSans-43" transform="translate(885.15625 0)"/>
      <use xlink:href="#DejaVuSans-4f" transform="translate(954.980469 0)"/>
      <use xlink:href="#DejaVuSans-32" transform="translate(1033.691406 0)"/>
     </g>
    </g>
    <g id="line2d_42">
     <path d="M 60.05 184.982187 
L 70.05 184.982187 
L 80.05 184.982187 
" style="fill: none; stroke: #1f77b4; stroke-width: 2; stroke-linecap: square"/>
    </g>
    <g id="text_22">
     <!-- Quadratic forecast -->
     <g transform="translate(88.05 188.482187) scale(0.1 -0.1)">
      <defs>
       <path id="DejaVuSans-66" d="M 2375 4863 
L 2375 4384 
L 1825 4384 
Q 1516 4384 1395 4259 
Q 1275 4134 1275 3809 
L 1275 3500 
L 2222 3500 
L 2222 3053 
L 1275 3053 
L 1275 0 
L 697 0 
L 697 3053 
L 147 3053 
L 147 3500 
L 697 3500 
L 697 3744 
Q 697 4328 969 4595 
Q 1241 4863 1831 4863 
L 2375 4863 
z
" transform="scale(0.015625)"/>
      </defs>
      <use xlink:href="#DejaVuSans-51"/>
      <use xlink:href="#DejaVuSans-75" transform="translate(78.710938 0)"/>
      <use xlink:href="#DejaVuSans-61" transform="translate(142.089844 0)"/>
      <use xlink:href="#DejaVuSans-64" transform="translate(203.369141 0)"/>
      <use xlink:href="#DejaVuSans-72" transform="translate(266.845703 0)"/>
      <use xlink:href="#DejaVuSans-61" transform="translate(307.958984 0)"/>
      <use xlink:href="#DejaVuSans-74" transform="translate(369.238281 0)"/>
      <use xlink:href="#DejaVuSans-69" transform="translate(408.447266 0)"/>
      <use xlink:href="#DejaVuSans-63" transform="translate(436.230469 0)"/>
      <use xlink:href="#DejaVuSans-20" transform="translate(491.210938 0)"/>
      <use xlink:href="#DejaVuSans-66" transform="translate(522.998047 0)"/>
      <use xlink:href="#DejaVuSans-6f" transform="translate(558.203125 0)"/>
      <use xlink:href="#DejaVuSans-72" transform="translate(619.384766 0)"/>
      <use xlink:href="#DejaVuSans-65" transform="translate(658.248047 0)"/>
      <use xlink:href="#DejaVuSans-63" transform="translate(719.771484 0)"/>
      <use xlink:href="#DejaVuSans-61" transform="translate(774.751953 0)"/>
      <use xlink:href="#DejaVuSans-73" transform="translate(836.03125 0)"/>
      <use xlink:href="#DejaVuSans-74" transform="translate(888.130859 0)"/>
     </g>
    </g>
    <g id="line2d_43">
     <path d="M 60.05 199.660312 
L 70.05 199.660312 
L 80.05 199.660312 
" style="fill: none; stroke: #ff7f0e; stroke-width: 2; stroke-linecap: square"/>
    </g>
    <g id="text_23">
     <!-- SARIMA(1,1,1)(2,1,2,12) forecast -->
     <g transform="translate(88.05 203.160312) scale(0.1 -0.1)">
      <defs>
       <path id="DejaVuSans-28" d="M 1984 4856 
Q 1566 4138 1362 3434 
Q 1159 2731 1159 2009 
Q 1159 1288 1364 580 
Q 1569 -128 1984 -844 
L 1484 -844 
Q 1016 -109 783 600 
Q 550 1309 550 2009 
Q 550 2706 781 3412 
Q 1013 4119 1484 4856 
L 1984 4856 
z
" transform="scale(0.015625)"/>
       <path id="DejaVuSans-2c" d="M 750 794 
L 1409 794 
L 1409 256 
L 897 -744 
L 494 -744 
L 750 256 
L 750 794 
z
" transform="scale(0.015625)"/>
       <path id="DejaVuSans-29" d="M 513 4856 
L 1013 4856 
Q 1481 4119 1714 3412 
Q 1947 2706 1947 2009 
Q 1947 1309 1714 600 
Q 1481 -109 1013 -844 
L 513 -844 
Q 928 -128 1133 580 
Q 1338 1288 1338 2009 
Q 1338 2731 1133 3434 
Q 928 4138 513 4856 
z
" transform="scale(0.015625)"/>
      </defs>
      <use xlink:href="#DejaVuSans-53"/>
      <use xlink:href="#DejaVuSans-41" transform="translate(65.351562 0)"/>
      <use xlink:href="#DejaVuSans-52" transform="translate(133.759766 0)"/>
      <use xlink:href="#DejaVuSans-49" transform="translate(203.242188 0)"/>
      <use xlink:href="#DejaVuSans-4d" transform="translate(232.734375 0)"/>
      <use xlink:href="#DejaVuSans-41" transform="translate(319.013672 0)"/>
      <use xlink:href="#DejaVuSans-28" transform="translate(387.421875 0)"/>
      <use xlink:href="#DejaVuSans-31" transform="translate(426.435547 0)"/>
      <use xlink:href="#DejaVuSans-2c" transform="translate(490.058594 0)"/>
      <use xlink:href="#DejaVuSans-31" transform="translate(521.845703 0)"/>
      <use xlink:href="#DejaVuSans-2c" transform="translate(585.46875 0)"/>
      <use xlink:href="#DejaVuSans-31" transform="translate(617.255859 0)"/>
      <use xlink:href="#DejaVuSans-29" transform="translate(680.878906 0)"/>
      <use xlink:href="#DejaVuSans-28" transform="translate(719.892578 0)"/>
      <use xlink:href="#DejaVuSans-32" transform="translate(758.90625 0)"/>
      <use xlink:href="#DejaVuSans-2c" transform="translate(822.529297 0)"/>
      <use xlink:href="#DejaVuSans-31" transform="translate(854.316406 0)"/>
      <use xlink:href="#DejaVuSans-2c" transform="translate(917.939453 0)"/>
      <use xlink:href="#DejaVuSans-32" transform="translate(949.726562 0)"/>
      <use xlink:href="#DejaVuSans-2c" transform="translate(1013.349609 0)"/>
      <use xlink:href="#DejaVuSans-31" transform="translate(1045.136719 0)"/>
      <use xlink:href="#DejaVuSans-32" transform="translate(1108.759766 0)"/>
      <use xlink:href="#DejaVuSans-29" transform="translate(1172.382812 0)"/>
      <use xlink:href="#DejaVuSans-20" transform="translate(1211.396484 0)"/>
      <use xlink:href="#DejaVuSans-66" transform="translate(1243.183594 0)"/>
      <use xlink:href="#DejaVuSans-6f" transform="translate(1278.388672 0)"/>
      <use xlink:href="#DejaVuSans-72" transform="translate(1339.570312 0)"/>
      <use xlink:href="#DejaVuSans-65" transform="translate(1378.433594 0)"/>
      <use xlink:href="#DejaVuSans-63" transform="translate(1439.957031 0)"/>
      <use xlink:href="#DejaVuSans-61" transform="translate(1494.9375 0)"/>
      <use xlink:href="#DejaVuSans-73" transform="translate(1556.216797 0)"/>
      <use xlink:href="#DejaVuSans-74" transform="translate(1608.316406 0)"/>
     </g>
    </g>
    <g id="line2d_44">
     <path d="M 60.05 214.338437 
L 70.05 214.338437 
L 80.05 214.338437 
" style="fill: none; stroke-dasharray: 5.55,2.4; stroke-dashoffset: 0; stroke: #ff0000; stroke-width: 1.5"/>
    </g>
    <g id="text_24">
     <!-- 685 ppm target -->
     <g transform="translate(88.05 217.838437) scale(0.1 -0.1)">
      <defs>
       <path id="DejaVuSans-67" d="M 2906 1791 
Q 2906 2416 2648 2759 
Q 2391 3103 1925 3103 
Q 1463 3103 1205 2759 
Q 947 2416 947 1791 
Q 947 1169 1205 825 
Q 1463 481 1925 481 
Q 2391 481 2648 825 
Q 2906 1169 2906 1791 
z
M 3481 434 
Q 3481 -459 3084 -895 
Q 2688 -1331 1869 -1331 
Q 1566 -1331 1297 -1286 
Q 1028 -1241 775 -1147 
L 775 -588 
Q 1028 -725 1275 -790 
Q 1522 -856 1778 -856 
Q 2344 -856 2625 -561 
Q 2906 -266 2906 331 
L 2906 616 
Q 2728 306 2450 153 
Q 2172 0 1784 0 
Q 1141 0 747 490 
Q 353 981 353 1791 
Q 353 2603 747 3093 
Q 1141 3584 1784 3584 
Q 2172 3584 2450 3431 
Q 2728 3278 2906 2969 
L 2906 3500 
L 3481 3500 
L 3481 434 
z
" transform="scale(0.015625)"/>
      </defs>
      <use xlink:href="#DejaVuSans-36"/>
      <use xlink:href="#DejaVuSans-38" transform="translate(63.623047 0)"/>
      <use xlink:href="#DejaVuSans-35" transform="translate(127.246094 0)"/>
      <use xlink:href="#DejaVuSans-20" transform="translate(190.869141 0)"/>
      <use xlink:href="#DejaVuSans-70" transform="translate(222.65625 0)"/>
      <use xlink:href="#DejaVuSans-70" transform="translate(286.132812 0)"/>
      <use xlink:href="#DejaVuSans-6d" transform="translate(349.609375 0)"/>
      <use xlink:href="#DejaVuSans-20" transform="translate(447.021484 0)"/>
      <use xlink:href="#DejaVuSans-74" transform="translate(478.808594 0)"/>
      <use xlink:href="#DejaVuSans-61" transform="translate(518.017578 0)"/>
      <use xlink:href="#DejaVuSans-72" transform="translate(579.296875 0)"/>
      <use xlink:href="#DejaVuSans-67" transform="translate(618.660156 0)"/>
      <use xlink:href="#DejaVuSans-65" transform="translate(682.136719 0)"/>
      <use xlink:href="#DejaVuSans-74" transform="translate(743.660156 0)"/>
     </g>
    </g>
    <g id="line2d_45">
     <path d="M 60.05 229.016562 
L 70.05 229.016562 
L 80.05 229.016562 
" style="fill: none; stroke-dasharray: 3.7,1.6; stroke-dashoffset: 0; stroke: #808080"/>
    </g>
    <g id="text_25">
     <!-- 2050 -->
     <g transform="translate(88.05 232.516562) scale(0.1 -0.1)">
      <use xlink:href="#DejaVuSans-32"/>
      <use xlink:href="#DejaVuSans-30" transform="translate(63.623047 0)"/>
      <use xlink:href="#DejaVuSans-35" transform="translate(127.246094 0)"/>
      <use xlink:href="#DejaVuSans-30" transform="translate(190.869141 0)"/>
     </g>
    </g>
    <g id="line2d_46">
     <path d="M 60.05 243.694687 
L 70.05 243.694687 
L 80.05 243.694687 
" style="fill: none; stroke-dasharray: 1,1.65; stroke-dashoffset: 0; stroke: #808080"/>
    </g>
    <g id="text_26">
     <!-- 2100 -->
     <g transform="translate(88.05 247.194687) scale(0.1 -0.1)">
      <use xlink:href="#DejaVuSans-32"/>
      <use xlink:href="#DejaVuSans-31" transform="translate(63.623047 0)"/>
      <use xlink:href="#DejaVuSans-30" transform="translate(127.246094 0)"/>
      <use xlink:href="#DejaVuSans-30" transform="translate(190.869141 0)"/>
     </g>
    </g>
   </g>
  </g>
 </g>
 <defs>
  <clipPath id="pedec20d521">
   <rect x="51.05" y="25.44" width="802.15" height="364.6"/>
  </clipPath>
 </defs>
</svg>
