<?xml version="1.0" encoding="utf-8" standalone="no"?>
<!DOCTYPE svg PUBLIC "-//W3C//DTD SVG 1.1//EN"
  "http://www.w3.org/Graphics/SVG/1.1/DTD/svg11.dtd">
<svg xmlns:xlink="http://www.w3.org/1999/xlink" width="936pt" height="504pt" viewBox="0 0 936 504" xmlns="http://www.w3.org/2000/svg" version="1.1">
 <metadata>
  <rdf:RDF xmlns:dc="http://purl.org/dc/elements/1.1/" xmlns:cc="http://creativecommons.org/ns#" xmlns:rdf="http://www.w3.org/1999/02/22-rdf-syntax-ns#">
   <cc:Work>
    <dc:type rdf:resource="http://purl.org/dc/dcmitype/StillImage"/>
    <dc:date>2026-07-08T17:35:32.009022</dc:date>
    <dc:format>image/svg+xml</dc:format>
    <dc:creator>
     <cc:Agent>
      <dc:title>Matplotlib v3.10.0, https://matplotlib.org/</dc:title>
     </cc:Agent>
    </dc:creator>
   </cc:Work>
  </rdf:RDF>
 </metadata>
 <defs>
  <style type="text/css">*{stroke-linejoin: round; stroke-linecap: butt}</style>
 </defs>
 <g id="figure_1">
  <g id="patch_1">
   <path d="M 0 504 
L 936 504 
L 936 0 
L 0 0 
z
" style="fill: #ffffff"/>
  </g>
  <g id="axes_1">
   <g id="patch_2">
    <path d="M 47.81 462.04 
L 925.2 462.04 
L 925.2 25.44 
L 47.81 25.44 
z
" style="fill: #ffffff"/>
   </g>
   <g id="PathCollection_1">
    <defs>
     <path id="md17df06544" d="M 0 2.54951 
C 0.676138 2.54951 1.324674 2.280877 1.802776 1.802776 
C 2.280877 1.324674 2.54951 0.676138 2.54951 0 
C 2.54951 -0.676138 2.280877 -1.324674 1.802776 -1.802776 
C 1.324674 -2.280877 0.676138 -2.54951 0 -2.54951 
C -0.676138 -2.54951 -1.324674 -2.280877 -1.802776 -1.802776 
C -2.280877 -1.324674 -2.54951 -0.676138 -2.54951 0 
C -2.54951 0.676138 -2.280877 1.324674 -1.802776 1.802776 
C -1.324674 2.280877 -0.676138 2.54951 0 2.54951 
z
" style="stroke: #000000"/>
    </defs>
    <g clip-path="url(#pf5be49ffcf)">
     <use xlink:href="#md17df06544" x="87.691364" y="430.193882" style="stroke: #000000"/>
     <use xlink:href="#md17df06544" x="93.308457" y="433.275765" style="stroke: #000000"/>
     <use xlink:href="#md17df06544" x="98.925551" y="439.439529" style="stroke: #000000"/>
     <use xlink:href="#md17df06544" x="104.542644" y="430.193882" style="stroke: #000000"/>
     <use xlink:href="#md17df06544" x="110.159738" y="433.275765" style="stroke: #000000"/>
     <use xlink:href="#md17df06544" x="115.776831" y="431.221176" style="stroke: #000000"/>
     <use xlink:href="#md17df06544" x="121.393924" y="456.903529" style="stroke: #000000"/>
     <use xlink:href="#md17df06544" x="127.011018" y="447.657882" style="stroke: #000000"/>
     <use xlink:href="#md17df06544" x="132.628111" y="442.521412" style="stroke: #000000"/>
     <use xlink:href="#md17df06544" x="138.245205" y="438.412235" style="stroke: #000000"/>
     <use xlink:href="#md17df06544" x="143.862298" y="444.576" style="stroke: #000000"/>
     <use xlink:href="#md17df06544" x="149.479392" y="431.221176" style="stroke: #000000"/>
     <use xlink:href="#md17df06544" x="155.096485" y="433.275765" style="stroke: #000000"/>
     <use xlink:href="#md17df06544" x="160.713579" y="444.576" style="stroke: #000000"/>
     <use xlink:href="#md17df06544" x="166.330672" y="435.330353" style="stroke: #000000"/>
     <use xlink:href="#md17df06544" x="171.947766" y="419.920941" style="stroke: #000000"/>
     <use xlink:href="#md17df06544" x="177.564859" y="443.548706" style="stroke: #000000"/>
     <use xlink:href="#md17df06544" x="183.181953" y="437.384941" style="stroke: #000000"/>
     <use xlink:href="#md17df06544" x="188.799046" y="446.630588" style="stroke: #000000"/>
     <use xlink:href="#md17df06544" x="194.41614" y="417.866353" style="stroke: #000000"/>
     <use xlink:href="#md17df06544" x="200.033233" y="429.166588" style="stroke: #000000"/>
     <use xlink:href="#md17df06544" x="205.650327" y="419.920941" style="stroke: #000000"/>
     <use xlink:href="#md17df06544" x="211.26742" y="409.648" style="stroke: #000000"/>
     <use xlink:href="#md17df06544" x="216.884513" y="403.484235" style="stroke: #000000"/>
     <use xlink:href="#md17df06544" x="222.501607" y="421.975529" style="stroke: #000000"/>
     <use xlink:href="#md17df06544" x="228.1187" y="404.511529" style="stroke: #000000"/>
     <use xlink:href="#md17df06544" x="233.735794" y="419.920941" style="stroke: #000000"/>
     <use xlink:href="#md17df06544" x="239.352887" y="424.030118" style="stroke: #000000"/>
     <use xlink:href="#md17df06544" x="244.969981" y="417.866353" style="stroke: #000000"/>
     <use xlink:href="#md17df06544" x="250.587074" y="403.484235" style="stroke: #000000"/>
     <use xlink:href="#md17df06544" x="256.204168" y="396.293176" style="stroke: #000000"/>
     <use xlink:href="#md17df06544" x="261.821261" y="408.620706" style="stroke: #000000"/>
     <use xlink:href="#md17df06544" x="267.438355" y="390.129412" style="stroke: #000000"/>
     <use xlink:href="#md17df06544" x="273.055448" y="395.265882" style="stroke: #000000"/>
     <use xlink:href="#md17df06544" x="278.672542" y="413.757176" style="stroke: #000000"/>
     <use xlink:href="#md17df06544" x="284.289635" y="412.729882" style="stroke: #000000"/>
     <use xlink:href="#md17df06544" x="289.906729" y="403.484235" style="stroke: #000000"/>
     <use xlink:href="#md17df06544" x="295.523822" y="390.129412" style="stroke: #000000"/>
     <use xlink:href="#md17df06544" x="301.140915" y="402.456941" style="stroke: #000000"/>
     <use xlink:href="#md17df06544" x="306.758009" y="389.102118" style="stroke: #000000"/>
     <use xlink:href="#md17df06544" x="312.375102" y="373.692706" style="stroke: #000000"/>
     <use xlink:href="#md17df06544" x="317.992196" y="397.320471" style="stroke: #000000"/>
     <use xlink:href="#md17df06544" x="323.609289" y="396.293176" style="stroke: #000000"/>
     <use xlink:href="#md17df06544" x="329.226383" y="381.911059" style="stroke: #000000"/>
     <use xlink:href="#md17df06544" x="334.843476" y="371.638118" style="stroke: #000000"/>
     <use xlink:href="#md17df06544" x="340.46057" y="372.665412" style="stroke: #000000"/>
     <use xlink:href="#md17df06544" x="346.077663" y="381.911059" style="stroke: #000000"/>
     <use xlink:href="#md17df06544" x="351.694757" y="367.528941" style="stroke: #000000"/>
     <use xlink:href="#md17df06544" x="357.31185" y="371.638118" style="stroke: #000000"/>
     <use xlink:href="#md17df06544" x="362.928944" y="368.556235" style="stroke: #000000"/>
     <use xlink:href="#md17df06544" x="368.546037" y="380.883765" style="stroke: #000000"/>
     <use xlink:href="#md17df06544" x="374.163131" y="369.583529" style="stroke: #000000"/>
     <use xlink:href="#md17df06544" x="379.780224" y="362.392471" style="stroke: #000000"/>
     <use xlink:href="#md17df06544" x="385.397318" y="373.692706" style="stroke: #000000"/>
     <use xlink:href="#md17df06544" x="391.014411" y="369.583529" style="stroke: #000000"/>
     <use xlink:href="#md17df06544" x="396.631504" y="367.528941" style="stroke: #000000"/>
     <use xlink:href="#md17df06544" x="402.248598" y="360.337882" style="stroke: #000000"/>
     <use xlink:href="#md17df06544" x="407.865691" y="344.928471" style="stroke: #000000"/>
     <use xlink:href="#md17df06544" x="413.482785" y="332.600941" style="stroke: #000000"/>
     <use xlink:href="#md17df06544" x="419.099878" y="341.846588" style="stroke: #000000"/>
     <use xlink:href="#md17df06544" x="424.716972" y="350.064941" style="stroke: #000000"/>
     <use xlink:href="#md17df06544" x="430.334065" y="336.710118" style="stroke: #000000"/>
     <use xlink:href="#md17df06544" x="435.951159" y="331.573647" style="stroke: #000000"/>
     <use xlink:href="#md17df06544" x="441.568252" y="350.064941" style="stroke: #000000"/>
    </g>
   </g>
   <g id="matplotlib.axis_1">
    <g id="xtick_1">
     <g id="line2d_1">
      <path d="M 98.925551 462.04 
L 98.925551 25.44 
" clip-path="url(#pf5be49ffcf)" style="fill: none; stroke: #b0b0b0; stroke-width: 0.8; stroke-linecap: square"/>
     </g>
     <g id="line2d_2">
      <defs>
       <path id="m85cce86799" d="M 0 0 
L 0 3.5 
" style="stroke: #000000; stroke-width: 0.8"/>
      </defs>
      <g>
       <use xlink:href="#m85cce86799" x="98.925551" y="462.04" style="stroke: #000000; stroke-width: 0.8"/>
      </g>
     </g>
     <g id="text_1">
      <!-- 1960 -->
      <g transform="translate(86.200551 476.638438) scale(0.1 -0.1)">
       <defs>
        <path id="DejaVuSans-31" d="M 794 531 
L 1825 531 
L 1825 4091 
L 703 3866 
L 703 4441 
L 1819 4666 
L 2450 4666 
L 2450 531 
L 3481 531 
L 3481 0 
L 794 0 
L 794 531 
z
" transform="scale(0.015625)"/>
        <path id="DejaVuSans-39" d="M 703 97 
L 703 672 
Q 941 559 1184 500 
Q 1428 441 1663 441 
Q 2288 441 2617 861 
Q 2947 1281 2994 2138 
Q 2813 1869 2534 1725 
Q 2256 1581 1919 1581 
Q 1219 1581 811 2004 
Q 403 2428 403 3163 
Q 403 3881 828 4315 
Q 1253 4750 1959 4750 
Q 2769 4750 3195 4129 
Q 3622 3509 3622 2328 
Q 3622 1225 3098 567 
Q 2575 -91 1691 -91 
Q 1453 -91 1209 -44 
Q 966 3 703 97 
z
M 1959 2075 
Q 2384 2075 2632 2365 
Q 2881 2656 2881 3163 
Q 2881 3666 2632 3958 
Q 2384 4250 1959 4250 
Q 1534 4250 1286 3958 
Q 1038 3666 1038 3163 
Q 1038 2656 1286 2365 
Q 1534 2075 1959 2075 
z
" transform="scale(0.015625)"/>
        <path id="DejaVuSans-36" d="M 2113 2584 
Q 1688 2584 1439 2293 
Q 1191 2003 1191 1497 
Q 1191 994 1439 701 
Q 1688 409 2113 409 
Q 2538 409 2786 701 
Q 3034 994 3034 1497 
Q 3034 2003 2786 2293 
Q 2538 2584 2113 2584 
z
M 3366 4563 
L 3366 3988 
Q 3128 4100 2886 4159 
Q 2644 4219 2406 4219 
Q 1781 4219 1451 3797 
Q 1122 3375 1075 2522 
Q 1259 2794 1537 2939 
Q 1816 3084 2150 3084 
Q 2853 3084 3261 2657 
Q 3669 2231 3669 1497 
Q 3669 778 3244 343 
Q 2819 -91 2113 -91 
Q 1303 -91 875 529 
Q 447 1150 447 2328 
Q 447 3434 972 4092 
Q 1497 4750 2381 4750 
Q 2619 4750 2861 4703 
Q 3103 4656 3366 4563 
z
" transform="scale(0.015625)"/>
        <path id="DejaVuSans-30" d="M 2034 4250 
Q 1547 4250 1301 3770 
Q 1056 3291 1056 2328 
Q 1056 1369 1301 889 
Q 1547 409 2034 409 
Q 2525 409 2770 889 
Q 3016 1369 3016 2328 
Q 3016 3291 2770 3770 
Q 2525 4250 2034 4250 
z
M 2034 4750 
Q 2819 4750 3233 4129 
Q 3647 3509 3647 2328 
Q 3647 1150 3233 529 
Q 2819 -91 2034 -91 
Q 1250 -91 836 529 
Q 422 1150 422 2328 
Q 422 3509 836 4129 
Q 1250 4750 2034 4750 
z
" transform="scale(0.015625)"/>
       </defs>
       <use xlink:href="#DejaVuSans-31"/>
       <use xlink:href="#DejaVuSans-39" transform="translate(63.623047 0)"/>
       <use xlink:href="#DejaVuSans-36" transform="translate(127.246094 0)"/>
       <use xlink:href="#DejaVuSans-30" transform="translate(190.869141 0)"/>
      </g>
     </g>
    </g>
    <g id="xtick_2">
     <g id="line2d_3">
      <path d="M 211.26742 462.04 
L 211.26742 25.44 
" clip-path="url(#pf5be49ffcf)" style="fill: none; stroke: #b0b0b0; stroke-width: 0.8; stroke-linecap: square"/>
     </g>
     <g id="line2d_4">
      <g>
       <use xlink:href="#m85cce86799" x="211.26742" y="462.04" style="stroke: #000000; stroke-width: 0.8"/>
      </g>
     </g>
     <g id="text_2">
      <!-- 1980 -->
      <g transform="translate(198.54242 476.638438) scale(0.1 -0.1)">
       <defs>
        <path id="DejaVuSans-38" d="M 2034 2216 
Q 1584 2216 1326 1975 
Q 1069 1734 1069 1313 
Q 1069 891 1326 650 
Q 1584 409 2034 409 
Q 2484 409 2743 651 
Q 3003 894 3003 1313 
Q 3003 1734 2745 1975 
Q 2488 2216 2034 2216 
z
M 1403 2484 
Q 997 2584 770 2862 
Q 544 3141 544 3541 
Q 544 4100 942 4425 
Q 1341 4750 2034 4750 
Q 2731 4750 3128 4425 
Q 3525 4100 3525 3541 
Q 3525 3141 3298 2862 
Q 3072 2584 2669 2484 
Q 3125 2378 3379 2068 
Q 3634 1759 3634 1313 
Q 3634 634 3220 271 
Q 2806 -91 2034 -91 
Q 1263 -91 848 271 
Q 434 634 434 1313 
Q 434 1759 690 2068 
Q 947 2378 1403 2484 
z
M 1172 3481 
Q 1172 3119 1398 2916 
Q 1625 2713 2034 2713 
Q 2441 2713 2670 2916 
Q 2900 3119 2900 3481 
Q 2900 3844 2670 4047 
Q 2441 4250 2034 4250 
Q 1625 4250 1398 4047 
Q 1172 3844 1172 3481 
z
" transform="scale(0.015625)"/>
       </defs>
       <use xlink:href="#DejaVuSans-31"/>
       <use xlink:href="#DejaVuSans-39" transform="translate(63.623047 0)"/>
       <use xlink:href="#DejaVuSans-38" transform="translate(127.246094 0)"/>
       <use xlink:href="#DejaVuSans-30" transform="translate(190.869141 0)"/>
      </g>
     </g>
    </g>
    <g id="xtick_3">
     <g id="line2d_5">
      <path d="M 323.609289 462.04 
L 323.609289 25.44 
" clip-path="url(#pf5be49ffcf)" style="fill: none; stroke: #b0b0b0; stroke-width: 0.8; stroke-linecap: square"/>
     </g>
     <g id="line2d_6">
      <g>
       <use xlink:href="#m85cce86799" x="323.609289" y="462.04" style="stroke: #000000; stroke-width: 0.8"/>
      </g>
     </g>
     <g id="text_3">
      <!-- 2000 -->
      <g transform="translate(310.884289 476.638438) scale(0.1 -0.1)">
       <defs>
        <path id="DejaVuSans-32" d="M 1228 531 
L 3431 531 
L 3431 0 
L 469 0 
L 469 531 
Q 828 903 1448 1529 
Q 2069 2156 2228 2338 
Q 2531 2678 2651 2914 
Q 2772 3150 2772 3378 
Q 2772 3750 2511 3984 
Q 2250 4219 1831 4219 
Q 1534 4219 1204 4116 
Q 875 4013 500 3803 
L 500 4441 
Q 881 4594 1212 4672 
Q 1544 4750 1819 4750 
Q 2544 4750 2975 4387 
Q 3406 4025 3406 3419 
Q 3406 3131 3298 2873 
Q 3191 2616 2906 2266 
Q 2828 2175 2409 1742 
Q 1991 1309 1228 531 
z
" transform="scale(0.015625)"/>
       </defs>
       <use xlink:href="#DejaVuSans-32"/>
       <use xlink:href="#DejaVuSans-30" transform="translate(63.623047 0)"/>
       <use xlink:href="#DejaVuSans-30" transform="translate(127.246094 0)"/>
       <use xlink:href="#DejaVuSans-30" transform="translate(190.869141 0)"/>
      </g>
     </g>
    </g>
    <g id="xtick_4">
     <g id="line2d_7">
      <path d="M 435.951159 462.04 
L 435.951159 25.44 
" clip-path="url(#pf5be49ffcf)" style="fill: none; stroke: #b0b0b0; stroke-width: 0.8; stroke-linecap: square"/>
     </g>
     <g id="line2d_8">
      <g>
       <use xlink:href="#m85cce86799" x="435.951159" y="462.04" style="stroke: #000000; stroke-width: 0.8"/>
      </g>
     </g>
     <g id="text_4">
      <!-- 2020 -->
      <g transform="translate(423.226159 476.638438) scale(0.1 -0.1)">
       <use xlink:href="#DejaVuSans-32"/>
       <use xlink:href="#DejaVuSans-30" transform="translate(63.623047 0)"/>
       <use xlink:href="#DejaVuSans-32" transform="translate(127.246094 0)"/>
       <use xlink:href="#DejaVuSans-30" transform="translate(190.869141 0)"/>
      </g>
     </g>
    </g>
    <g id="xtick_5">
     <g id="line2d_9">
      <path d="M 548.293028 462.04 
L 548.293028 25.44 
" clip-path="url(#pf5be49ffcf)" style="fill: none; stroke: #b0b0b0; stroke-width: 0.8; stroke-linecap: square"/>
     </g>
     <g id="line2d_10">
      <g>
       <use xlink:href="#m85cce86799" x="548.293028" y="462.04" style="stroke: #000000; stroke-width: 0.8"/>
      </g>
     </g>
     <g id="text_5">
      <!-- 2040 -->
      <g transform="translate(535.568028 476.638438) scale(0.1 -0.1)">
       <defs>
        <path id="DejaVuSans-34" d="M 2419 4116 
L 825 1625 
L 2419 1625 
L 2419 4116 
z
M 2253 4666 
L 3047 4666 
L 3047 1625 
L 3713 1625 
L 3713 1100 
L 3047 1100 
L 3047 0 
L 2419 0 
L 2419 1100 
L 313 1100 
L 313 1709 
L 2253 4666 
z
" transform="scale(0.015625)"/>
       </defs>
       <use xlink:href="#DejaVuSans-32"/>
       <use xlink:href="#DejaVuSans-30" transform="translate(63.623047 0)"/>
       <use xlink:href="#DejaVuSans-34" transform="translate(127.246094 0)"/>
       <use xlink:href="#DejaVuSans-30" transform="translate(190.869141 0)"/>
      </g>
     </g>
    </g>
    <g id="xtick_6">
     <g id="line2d_11">
      <path d="M 660.634898 462.04 
L 660.634898 25.44 
" clip-path="url(#pf5be49ffcf)" style="fill: none; stroke: #b0b0b0; stroke-width: 0.8; stroke-linecap: square"/>
     </g>
     <g id="line2d_12">
      <g>
       <use xlink:href="#m85cce86799" x="660.634898" y="462.04" style="stroke: #000000; stroke-width: 0.8"/>
      </g>
     </g>
     <g id="text_6">
      <!-- 2060 -->
      <g transform="translate(647.909898 476.638438) scale(0.1 -0.1)">
       <use xlink:href="#DejaVuSans-32"/>
       <use xlink:href="#DejaVuSans-30" transform="translate(63.623047 0)"/>
       <use xlink:href="#DejaVuSans-36" transform="translate(127.246094 0)"/>
       <use xlink:href="#DejaVuSans-30" transform="translate(190.869141 0)"/>
      </g>
     </g>
    </g>
    <g id="xtick_7">
     <g id="line2d_13">
      <path d="M 772.976767 462.04 
L 772.976767 25.44 
" clip-path="url(#pf5be49ffcf)" style="fill: none; stroke: #b0b0b0; stroke-width: 0.8; stroke-linecap: square"/>
     </g>
     <g id="line2d_14">
      <g>
       <use xlink:href="#m85cce86799" x="772.976767" y="462.04" style="stroke: #000000; stroke-width: 0.8"/>
      </g>
     </g>
     <g id="text_7">
      <!-- 2080 -->
      <g transform="translate(760.251767 476.638438) scale(0.1 -0.1)">
       <use xlink:href="#DejaVuSans-32"/>
       <use xlink:href="#DejaVuSans-30" transform="translate(63.623047 0)"/>
       <use xlink:href="#DejaVuSans-38" transform="translate(127.246094 0)"/>
       <use xlink:href="#DejaVuSans-30" transform="translate(190.869141 0)"/>
      </g>
     </g>
    </g>
    <g id="xtick_8">
     <g id="line2d_15">
      <path d="M 885.318636 462.04 
L 885.318636 25.44 
" clip-path="url(#pf5be49ffcf)" style="fill: none; stroke: #b0b0b0; stroke-width: 0.8; stroke-linecap: square"/>
     </g>
     <g id="line2d_16">
      <g>
       <use xlink:href="#m85cce86799" x="885.318636" y="462.04" style="stroke: #000000; stroke-width: 0.8"/>
      </g>
     </g>
     <g id="text_8">
      <!-- 2100 -->
      <g transform="translate(872.593636 476.638438) scale(0.1 -0.1)">
       <use xlink:href="#DejaVuSans-32"/>
       <use xlink:href="#DejaVuSans-31" transform="translate(63.623047 0)"/>
       <use xlink:href="#DejaVuSans-30" transform="translate(127.246094 0)"/>
       <use xlink:href="#DejaVuSans-30" transform="translate(190.869141 0)"/>
      </g>
     </g>
    </g>
    <g id="text_9">
     <!-- Year -->
     <g transform="translate(475.9175 490.316563) scale(0.1 -0.1)">
      <defs>
       <path id="DejaVuSans-59" d="M -13 4666 
L 666 4666 
L 1959 2747 
L 3244 4666 
L 3922 4666 
L 2272 2222 
L 2272 0 
L 1638 0 
L 1638 2222 
L -13 4666 
z
" transform="scale(0.015625)"/>
       <path id="DejaVuSans-65" d="M 3597 1894 
L 3597 1613 
L 953 1613 
Q 991 1019 1311 708 
Q 1631 397 2203 397 
Q 2534 397 2845 478 
Q 3156 559 3463 722 
L 3463 178 
Q 3153 47 2828 -22 
Q 2503 -91 2169 -91 
Q 1331 -91 842 396 
Q 353 884 353 1716 
Q 353 2575 817 3079 
Q 1281 3584 2069 3584 
Q 2775 3584 3186 3129 
Q 3597 2675 3597 1894 
z
M 3022 2063 
Q 3016 2534 2758 2815 
Q 2500 3097 2075 3097 
Q 1594 3097 1305 2825 
Q 1016 2553 972 2059 
L 3022 2063 
z
" transform="scale(0.015625)"/>
       <path id="DejaVuSans-61" d="M 2194 1759 
Q 1497 1759 1228 1600 
Q 959 1441 959 1056 
Q 959 750 1161 570 
Q 1363 391 1709 391 
Q 2188 391 2477 730 
Q 2766 1069 2766 1631 
L 2766 1759 
L 2194 1759 
z
M 3341 1997 
L 3341 0 
L 2766 0 
L 2766 531 
Q 2569 213 2275 61 
Q 1981 -91 1556 -91 
Q 1019 -91 701 211 
Q 384 513 384 1019 
Q 384 1609 779 1909 
Q 1175 2209 1959 2209 
L 2766 2209 
L 2766 2266 
Q 2766 2663 2505 2880 
Q 2244 3097 1772 3097 
Q 1472 3097 1187 3025 
Q 903 2953 641 2809 
L 641 3341 
Q 956 3463 1253 3523 
Q 1550 3584 1831 3584 
Q 2591 3584 2966 3190 
Q 3341 2797 3341 1997 
z
" transform="scale(0.015625)"/>
       <path id="DejaVuSans-72" d="M 2631 2963 
Q 2534 3019 2420 3045 
Q 2306 3072 2169 3072 
Q 1681 3072 1420 2755 
Q 1159 2438 1159 1844 
L 1159 0 
L 581 0 
L 581 3500 
L 1159 3500 
L 1159 2956 
Q 1341 3275 1631 3429 
Q 1922 3584 2338 3584 
Q 2397 3584 2469 3576 
Q 2541 3569 2628 3553 
L 2631 2963 
z
" transform="scale(0.015625)"/>
      </defs>
      <use xlink:href="#DejaVuSans-59"/>
      <use xlink:href="#DejaVuSans-65" transform="translate(47.833984 0)"/>
      <use xlink:href="#DejaVuSans-61" transform="translate(109.357422 0)"/>
      <use xlink:href="#DejaVuSans-72" transform="translate(170.636719 0)"/>
     </g>
    </g>
   </g>
   <g id="matplotlib.axis_2">
    <g id="ytick_1">
     <g id="line2d_17">
      <path d="M 47.81 436.357647 
L 925.2 436.357647 
" clip-path="url(#pf5be49ffcf)" style="fill: none; stroke: #b0b0b0; stroke-width: 0.8; stroke-linecap: square"/>
     </g>
     <g id="line2d_18">
      <defs>
       <path id="m4dbcd06dfa" d="M 0 0 
L -3.5 0 
" style="stroke: #000000; stroke-width: 0.8"/>
      </defs>
      <g>
       <use xlink:href="#m4dbcd06dfa" x="47.81" y="436.357647" style="stroke: #000000; stroke-width: 0.8"/>
      </g>
     </g>
     <g id="text_10">
      <!-- 0.0 -->
      <g transform="translate(24.906875 440.156866) scale(0.1 -0.1)">
       <defs>
        <path id="DejaVuSans-2e" d="M 684 794 
L 1344 794 
L 1344 0 
L 684 0 
L 684 794 
z
" transform="scale(0.015625)"/>
       </defs>
       <use xlink:href="#DejaVuSans-30"/>
       <use xlink:href="#DejaVuSans-2e" transform="translate(63.623047 0)"/>
       <use xlink:href="#DejaVuSans-30" transform="translate(95.410156 0)"/>
      </g>
     </g>
    </g>
    <g id="ytick_2">
     <g id="line2d_19">
      <path d="M 47.81 384.992941 
L 925.2 384.992941 
" clip-path="url(#pf5be49ffcf)" style="fill: none; stroke: #b0b0b0; stroke-width: 0.8; stroke-linecap: square"/>
     </g>
     <g id="line2d_20">
      <g>
       <use xlink:href="#m4dbcd06dfa" x="47.81" y="384.992941" style="stroke: #000000; stroke-width: 0.8"/>
      </g>
     </g>
     <g id="text_11">
      <!-- 0.5 -->
      <g transform="translate(24.906875 388.79216) scale(0.1 -0.1)">
       <defs>
        <path id="DejaVuSans-35" d="M 691 4666 
L 3169 4666 
L 3169 4134 
L 1269 4134 
L 1269 2991 
Q 1406 3038 1543 3061 
Q 1681 3084 1819 3084 
Q 2600 3084 3056 2656 
Q 3513 2228 3513 1497 
Q 3513 744 3044 326 
Q 2575 -91 1722 -91 
Q 1428 -91 1123 -41 
Q 819 9 494 109 
L 494 744 
Q 775 591 1075 516 
Q 1375 441 1709 441 
Q 2250 441 2565 725 
Q 2881 1009 2881 1497 
Q 2881 1984 2565 2268 
Q 2250 2553 1709 2553 
Q 1456 2553 1204 2497 
Q 953 2441 691 2322 
L 691 4666 
z
" transform="scale(0.015625)"/>
       </defs>
       <use xlink:href="#DejaVuSans-30"/>
       <use xlink:href="#DejaVuSans-2e" transform="translate(63.623047 0)"/>
       <use xlink:href="#DejaVuSans-35" transform="translate(95.410156 0)"/>
      </g>
     </g>
    </g>
    <g id="ytick_3">
     <g id="line2d_21">
      <path d="M 47.81 333.628235 
L 925.2 333.628235 
" clip-path="url(#pf5be49ffcf)" style="fill: none; stroke: #b0b0b0; stroke-width: 0.8; stroke-linecap: square"/>
     </g>
     <g id="line2d_22">
      <g>
       <use xlink:href="#m4dbcd06dfa" x="47.81" y="333.628235" style="stroke: #000000; stroke-width: 0.8"/>
      </g>
     </g>
     <g id="text_12">
      <!-- 1.0 -->
      <g transform="translate(24.906875 337.427454) scale(0.1 -0.1)">
       <use xlink:href="#DejaVuSans-31"/>
       <use xlink:href="#DejaVuSans-2e" transform="translate(63.623047 0)"/>
       <use xlink:href="#DejaVuSans-30" transform="translate(95.410156 0)"/>
      </g>
     </g>
    </g>
    <g id="ytick_4">
     <g id="line2d_23">
      <path d="M 47.81 282.263529 
L 925.2 282.263529 
" clip-path="url(#pf5be49ffcf)" style="fill: none; stroke: #b0b0b0; stroke-width: 0.8; stroke-linecap: square"/>
     </g>
     <g id="line2d_24">
      <g>
       <use xlink:href="#m4dbcd06dfa" x="47.81" y="282.263529" style="stroke: #000000; stroke-width: 0.8"/>
      </g>
     </g>
     <g id="text_13">
      <!-- 1.5 -->
      <g transform="translate(24.906875 286.062748) scale(0.1 -0.1)">
       <use xlink:href="#DejaVuSans-31"/>
       <use xlink:href="#DejaVuSans-2e" transform="translate(63.623047 0)"/>
       <use xlink:href="#DejaVuSans-35" transform="translate(95.410156 0)"/>
      </g>
     </g>
    </g>
    <g id="ytick_5">
     <g id="line2d_25">
      <path d="M 47.81 230.898824 
L 925.2 230.898824 
" clip-path="url(#pf5be49ffcf)" style="fill: none; stroke: #b0b0b0; stroke-width: 0.8; stroke-linecap: square"/>
     </g>
     <g id="line2d_26">
      <g>
       <use xlink:href="#m4dbcd06dfa" x="47.81" y="230.898824" style="stroke: #000000; stroke-width: 0.8"/>
      </g>
     </g>
     <g id="text_14">
      <!-- 2.0 -->
      <g transform="translate(24.906875 234.698042) scale(0.1 -0.1)">
       <use xlink:href="#DejaVuSans-32"/>
       <use xlink:href="#DejaVuSans-2e" transform="translate(63.623047 0)"/>
       <use xlink:href="#DejaVuSans-30" transform="translate(95.410156 0)"/>
      </g>
     </g>
    </g>
    <g id="ytick_6">
     <g id="line2d_27">
      <path d="M 47.81 179.534118 
L 925.2 179.534118 
" clip-path="url(#pf5be49ffcf)" style="fill: none; stroke: #b0b0b0; stroke-width: 0.8; stroke-linecap: square"/>
     </g>
     <g id="line2d_28">
      <g>
       <use xlink:href="#m4dbcd06dfa" x="47.81" y="179.534118" style="stroke: #000000; stroke-width: 0.8"/>
      </g>
     </g>
     <g id="text_15">
      <!-- 2.5 -->
      <g transform="translate(24.906875 183.333336) scale(0.1 -0.1)">
       <use xlink:href="#DejaVuSans-32"/>
       <use xlink:href="#DejaVuSans-2e" transform="translate(63.623047 0)"/>
       <use xlink:href="#DejaVuSans-35" transform="translate(95.410156 0)"/>
      </g>
     </g>
    </g>
    <g id="ytick_7">
     <g id="line2d_29">
      <path d="M 47.81 128.169412 
L 925.2 128.169412 
" clip-path="url(#pf5be49ffcf)" style="fill: none; stroke: #b0b0b0; stroke-width: 0.8; stroke-linecap: square"/>
     </g>
     <g id="line2d_30">
      <g>
       <use xlink:href="#m4dbcd06dfa" x="47.81" y="128.169412" style="stroke: #000000; stroke-width: 0.8"/>
      </g>
     </g>
     <g id="text_16">
      <!-- 3.0 -->
      <g transform="translate(24.906875 131.968631) scale(0.1 -0.1)">
       <defs>
        <path id="DejaVuSans-33" d="M 2597 2516 
Q 3050 2419 3304 2112 
Q 3559 1806 3559 1356 
Q 3559 666 3084 287 
Q 2609 -91 1734 -91 
Q 1441 -91 1130 -33 
Q 819 25 488 141 
L 488 750 
Q 750 597 1062 519 
Q 1375 441 1716 441 
Q 2309 441 2620 675 
Q 2931 909 2931 1356 
Q 2931 1769 2642 2001 
Q 2353 2234 1838 2234 
L 1294 2234 
L 1294 2753 
L 1863 2753 
Q 2328 2753 2575 2939 
Q 2822 3125 2822 3475 
Q 2822 3834 2567 4026 
Q 2313 4219 1838 4219 
Q 1578 4219 1281 4162 
Q 984 4106 628 3988 
L 628 4550 
Q 988 4650 1302 4700 
Q 1616 4750 1894 4750 
Q 2613 4750 3031 4423 
Q 3450 4097 3450 3541 
Q 3450 3153 3228 2886 
Q 3006 2619 2597 2516 
z
" transform="scale(0.015625)"/>
       </defs>
       <use xlink:href="#DejaVuSans-33"/>
       <use xlink:href="#DejaVuSans-2e" transform="translate(63.623047 0)"/>
       <use xlink:href="#DejaVuSans-30" transform="translate(95.410156 0)"/>
      </g>
     </g>
    </g>
    <g id="ytick_8">
     <g id="line2d_31">
      <path d="M 47.81 76.804706 
L 925.2 76.804706 
" clip-path="url(#pf5be49ffcf)" style="fill: none; stroke: #b0b0b0; stroke-width: 0.8; stroke-linecap: square"/>
     </g>
     <g id="line2d_32">
      <g>
       <use xlink:href="#m4dbcd06dfa" x="47.81" y="76.804706" style="stroke: #000000; stroke-width: 0.8"/>
      </g>
     </g>
     <g id="text_17">
      <!-- 3.5 -->
      <g transform="translate(24.906875 80.603925) scale(0.1 -0.1)">
       <use xlink:href="#DejaVuSans-33"/>
       <use xlink:href="#DejaVuSans-2e" transform="translate(63.623047 0)"/>
       <use xlink:href="#DejaVuSans-35" transform="translate(95.410156 0)"/>
      </g>
     </g>
    </g>
    <g id="ytick_9">
     <g id="line2d_33">
      <path d="M 47.81 25.44 
L 925.2 25.44 
" clip-path="url(#pf5be49ffcf)" style="fill: none; stroke: #b0b0b0; stroke-width: 0.8; stroke-linecap: square"/>
     </g>
     <g id="line2d_34">
      <g>
       <use xlink:href="#m4dbcd06dfa" x="47.81" y="25.44" style="stroke: #000000; stroke-width: 0.8"/>
      </g>
     </g>
     <g id="text_18">
      <!-- 4.0 -->
      <g transform="translate(24.906875 29.239219) scale(0.1 -0.1)">
       <use xlink:href="#DejaVuSans-34"/>
       <use xlink:href="#DejaVuSans-2e" transform="translate(63.623047 0)"/>
       <use xlink:href="#DejaVuSans-30" transform="translate(95.410156 0)"/>
      </g>
     </g>
    </g>
    <g id="text_19">
     <!-- Temperature change from 1951-1980 / C -->
     <g transform="translate(18.827188 345.818906) rotate(-90) scale(0.1 -0.1)">
      <defs>
       <path id="DejaVuSans-54" d="M -19 4666 
L 3928 4666 
L 3928 4134 
L 2272 4134 
L 2272 0 
L 1638 0 
L 1638 4134 
L -19 4134 
L -19 4666 
z
" transform="scale(0.015625)"/>
       <path id="DejaVuSans-6d" d="M 3328 2828 
Q 3544 3216 3844 3400 
Q 4144 3584 4550 3584 
Q 5097 3584 5394 3201 
Q 5691 2819 5691 2113 
L 5691 0 
L 5113 0 
L 5113 2094 
Q 5113 2597 4934 2840 
Q 4756 3084 4391 3084 
Q 3944 3084 3684 2787 
Q 3425 2491 3425 1978 
L 3425 0 
L 2847 0 
L 2847 2094 
Q 2847 2600 2669 2842 
Q 2491 3084 2119 3084 
Q 1678 3084 1418 2786 
Q 1159 2488 1159 1978 
L 1159 0 
L 581 0 
L 581 3500 
L 1159 3500 
L 1159 2956 
Q 1356 3278 1631 3431 
Q 1906 3584 2284 3584 
Q 2666 3584 2933 3390 
Q 3200 3197 3328 2828 
z
" transform="scale(0.015625)"/>
       <path id="DejaVuSans-70" d="M 1159 525 
L 1159 -1331 
L 581 -1331 
L 581 3500 
L 1159 3500 
L 1159 2969 
Q 1341 3281 1617 3432 
Q 1894 3584 2278 3584 
Q 2916 3584 3314 3078 
Q 3713 2572 3713 1747 
Q 3713 922 3314 415 
Q 2916 -91 2278 -91 
Q 1894 -91 1617 61 
Q 1341 213 1159 525 
z
M 3116 1747 
Q 3116 2381 2855 2742 
Q 2594 3103 2138 3103 
Q 1681 3103 1420 2742 
Q 1159 2381 1159 1747 
Q 1159 1113 1420 752 
Q 1681 391 2138 391 
Q 2594 391 2855 752 
Q 3116 1113 3116 1747 
z
" transform="scale(0.015625)"/>
       <path id="DejaVuSans-74" d="M 1172 4494 
L 1172 3500 
L 2356 3500 
L 2356 3053 
L 1172 3053 
L 1172 1153 
Q 1172 725 1289 603 
Q 1406 481 1766 481 
L 2356 481 
L 2356 0 
L 1766 0 
Q 1100 0 847 248 
Q 594 497 594 1153 
L 594 3053 
L 172 3053 
L 172 3500 
L 594 3500 
L 594 4494 
L 1172 4494 
z
" transform="scale(0.015625)"/>
       <path id="DejaVuSans-75" d="M 544 1381 
L 544 3500 
L 1119 3500 
L 1119 1403 
Q 1119 906 1312 657 
Q 1506 409 1894 409 
Q 2359 409 2629 706 
Q 2900 1003 2900 1516 
L 2900 3500 
L 3475 3500 
L 3475 0 
L 2900 0 
L 2900 538 
Q 2691 219 2414 64 
Q 2138 -91 1772 -91 
Q 1169 -91 856 284 
Q 544 659 544 1381 
z
M 1991 3584 
L 1991 3584 
z
" transform="scale(0.015625)"/>
       <path id="DejaVuSans-20" transform="scale(0.015625)"/>
       <path id="DejaVuSans-63" d="M 3122 3366 
L 3122 2828 
Q 2878 2963 2633 3030 
Q 2388 3097 2138 3097 
Q 1578 3097 1268 2742 
Q 959 2388 959 1747 
Q 959 1106 1268 751 
Q 1578 397 2138 397 
Q 2388 397 2633 464 
Q 2878 531 3122 666 
L 3122 134 
Q 2881 22 2623 -34 
Q 2366 -91 2075 -91 
Q 1284 -91 818 406 
Q 353 903 353 1747 
Q 353 2603 823 3093 
Q 1294 3584 2113 3584 
Q 2378 3584 2631 3529 
Q 2884 3475 3122 3366 
z
" transform="scale(0.015625)"/>
       <path id="DejaVuSans-68" d="M 3513 2113 
L 3513 0 
L 2938 0 
L 2938 2094 
Q 2938 2591 2744 2837 
Q 2550 3084 2163 3084 
Q 1697 3084 1428 2787 
Q 1159 2491 1159 1978 
L 1159 0 
L 581 0 
L 581 4863 
L 1159 4863 
L 1159 2956 
Q 1366 3272 1645 3428 
Q 1925 3584 2291 3584 
Q 2894 3584 3203 3211 
Q 3513 2838 3513 2113 
z
" transform="scale(0.015625)"/>
       <path id="DejaVuSans-6e" d="M 3513 2113 
L 3513 0 
L 2938 0 
L 2938 2094 
Q 2938 2591 2744 2837 
Q 2550 3084 2163 3084 
Q 1697 3084 1428 2787 
Q 1159 2491 1159 1978 
L 1159 0 
L 581 0 
L 581 3500 
L 1159 3500 
L 1159 2956 
Q 1366 3272 1645 3428 
Q 1925 3584 2291 3584 
Q 2894 3584 3203 3211 
Q 3513 2838 3513 2113 
z
" transform="scale(0.015625)"/>
       <path id="DejaVuSans-67" d="M 2906 1791 
Q 2906 2416 2648 2759 
Q 2391 3103 1925 3103 
Q 1463 3103 1205 2759 
Q 947 2416 947 1791 
Q 947 1169 1205 825 
Q 1463 481 1925 481 
Q 2391 481 2648 825 
Q 2906 1169 2906 1791 
z
M 3481 434 
Q 3481 -459 3084 -895 
Q 2688 -1331 1869 -1331 
Q 1566 -1331 1297 -1286 
Q 1028 -1241 775 -1147 
L 775 -588 
Q 1028 -725 1275 -790 
Q 1522 -856 1778 -856 
Q 2344 -856 2625 -561 
Q 2906 -266 2906 331 
L 2906 616 
Q 2728 306 2450 153 
Q 2172 0 1784 0 
Q 1141 0 747 490 
Q 353 981 353 1791 
Q 353 2603 747 3093 
Q 1141 3584 1784 3584 
Q 2172 3584 2450 3431 
Q 2728 3278 2906 2969 
L 2906 3500 
L 3481 3500 
L 3481 434 
z
" transform="scale(0.015625)"/>
       <path id="DejaVuSans-66" d="M 2375 4863 
L 2375 4384 
L 1825 4384 
Q 1516 4384 1395 4259 
Q 1275 4134 1275 3809 
L 1275 3500 
L 2222 3500 
L 2222 3053 
L 1275 3053 
L 1275 0 
L 697 0 
L 697 3053 
L 147 3053 
L 147 3500 
L 697 3500 
L 697 3744 
Q 697 4328 969 4595 
Q 1241 4863 1831 4863 
L 2375 4863 
z
" transform="scale(0.015625)"/>
       <path id="DejaVuSans-6f" d="M 1959 3097 
Q 1497 3097 1228 2736 
Q 959 2375 959 1747 
Q 959 1119 1226 758 
Q 1494 397 1959 397 
Q 2419 397 2687 759 
Q 2956 1122 2956 1747 
Q 2956 2369 2687 2733 
Q 2419 3097 1959 3097 
z
M 1959 3584 
Q 2709 3584 3137 3096 
Q 3566 2609 3566 1747 
Q 3566 888 3137 398 
Q 2709 -91 1959 -91 
Q 1206 -91 779 398 
Q 353 888 353 1747 
Q 353 2609 779 3096 
Q 1206 3584 1959 3584 
z
" transform="scale(0.015625)"/>
       <path id="DejaVuSans-2d" d="M 313 2009 
L 1997 2009 
L 1997 1497 
L 313 1497 
L 313 2009 
z
" transform="scale(0.015625)"/>
       <path id="DejaVuSans-2f" d="M 1625 4666 
L 2156 4666 
L 531 -594 
L 0 -594 
L 1625 4666 
z
" transform="scale(0.015625)"/>
       <path id="DejaVuSans-43" d="M 4122 4306 
L 4122 3641 
Q 3803 3938 3442 4084 
Q 3081 4231 2675 4231 
Q 1875 4231 1450 3742 
Q 1025 3253 1025 2328 
Q 1025 1406 1450 917 
Q 1875 428 2675 428 
Q 3081 428 3442 575 
Q 3803 722 4122 1019 
L 4122 359 
Q 3791 134 3420 21 
Q 3050 -91 2638 -91 
Q 1578 -91 968 557 
Q 359 1206 359 2328 
Q 359 3453 968 4101 
Q 1578 4750 2638 4750 
Q 3056 4750 3426 4639 
Q 3797 4528 4122 4306 
z
" transform="scale(0.015625)"/>
      </defs>
      <use xlink:href="#DejaVuSans-54"/>
      <use xlink:href="#DejaVuSans-65" transform="translate(44.083984 0)"/>
      <use xlink:href="#DejaVuSans-6d" transform="translate(105.607422 0)"/>
      <use xlink:href="#DejaVuSans-70" transform="translate(203.019531 0)"/>
      <use xlink:href="#DejaVuSans-65" transform="translate(266.496094 0)"/>
      <use xlink:href="#DejaVuSans-72" transform="translate(328.019531 0)"/>
      <use xlink:href="#DejaVuSans-61" transform="translate(369.132812 0)"/>
      <use xlink:href="#DejaVuSans-74" transform="translate(430.412109 0)"/>
      <use xlink:href="#DejaVuSans-75" transform="translate(469.621094 0)"/>
      <use xlink:href="#DejaVuSans-72" transform="translate(533 0)"/>
      <use xlink:href="#DejaVuSans-65" transform="translate(571.863281 0)"/>
      <use xlink:href="#DejaVuSans-20" transform="translate(633.386719 0)"/>
      <use xlink:href="#DejaVuSans-63" transform="translate(665.173828 0)"/>
      <use xlink:href="#DejaVuSans-68" transform="translate(720.154297 0)"/>
      <use xlink:href="#DejaVuSans-61" transform="translate(783.533203 0)"/>
      <use xlink:href="#DejaVuSans-6e" transform="translate(844.8125 0)"/>
      <use xlink:href="#DejaVuSans-67" transform="translate(908.191406 0)"/>
      <use xlink:href="#DejaVuSans-65" transform="translate(971.667969 0)"/>
      <use xlink:href="#DejaVuSans-20" transform="translate(1033.191406 0)"/>
      <use xlink:href="#DejaVuSans-66" transform="translate(1064.978516 0)"/>
      <use xlink:href="#DejaVuSans-72" transform="translate(1100.183594 0)"/>
      <use xlink:href="#DejaVuSans-6f" transform="translate(1139.046875 0)"/>
      <use xlink:href="#DejaVuSans-6d" transform="translate(1200.228516 0)"/>
      <use xlink:href="#DejaVuSans-20" transform="translate(1297.640625 0)"/>
      <use xlink:href="#DejaVuSans-31" transform="translate(1329.427734 0)"/>
      <use xlink:href="#DejaVuSans-39" transform="translate(1393.050781 0)"/>
      <use xlink:href="#DejaVuSans-35" transform="translate(1456.673828 0)"/>
      <use xlink:href="#DejaVuSans-31" transform="translate(1520.296875 0)"/>
      <use xlink:href="#DejaVuSans-2d" transform="translate(1583.919922 0)"/>
      <use xlink:href="#DejaVuSans-31" transform="translate(1620.003906 0)"/>
      <use xlink:href="#DejaVuSans-39" transform="translate(1683.626953 0)"/>
      <use xlink:href="#DejaVuSans-38" transform="translate(1747.25 0)"/>
      <use xlink:href="#DejaVuSans-30" transform="translate(1810.873047 0)"/>
      <use xlink:href="#DejaVuSans-20" transform="translate(1874.496094 0)"/>
      <use xlink:href="#DejaVuSans-2f" transform="translate(1906.283203 0)"/>
      <use xlink:href="#DejaVuSans-20" transform="translate(1939.974609 0)"/>
      <use xlink:href="#DejaVuSans-43" transform="translate(1971.761719 0)"/>
     </g>
    </g>
   </g>
   <g id="line2d_35">
    <path d="M 87.691364 430.193882 
L 93.308457 433.275765 
L 98.925551 439.439529 
L 104.542644 430.193882 
L 110.159738 433.275765 
L 115.776831 431.221176 
L 121.393924 456.903529 
L 127.011018 447.657882 
L 132.628111 442.521412 
L 138.245205 438.412235 
L 143.862298 444.576 
L 149.479392 431.221176 
L 155.096485 433.275765 
L 160.713579 444.576 
L 166.330672 435.330353 
L 171.947766 419.920941 
L 177.564859 443.548706 
L 183.181953 437.384941 
L 188.799046 446.630588 
L 194.41614 417.866353 
L 200.033233 429.166588 
L 205.650327 419.920941 
L 211.26742 409.648 
L 216.884513 403.484235 
L 222.501607 421.975529 
L 228.1187 404.511529 
L 233.735794 419.920941 
L 239.352887 424.030118 
L 244.969981 417.866353 
L 250.587074 403.484235 
L 256.204168 396.293176 
L 261.821261 408.620706 
L 267.438355 390.129412 
L 273.055448 395.265882 
L 278.672542 413.757176 
L 284.289635 412.729882 
L 289.906729 403.484235 
L 295.523822 390.129412 
L 301.140915 402.456941 
L 306.758009 389.102118 
L 312.375102 373.692706 
L 317.992196 397.320471 
L 323.609289 396.293176 
L 329.226383 381.911059 
L 334.843476 371.638118 
L 340.46057 372.665412 
L 346.077663 381.911059 
L 351.694757 367.528941 
L 357.31185 371.638118 
L 362.928944 368.556235 
L 368.546037 380.883765 
L 374.163131 369.583529 
L 379.780224 362.392471 
L 385.397318 373.692706 
L 391.014411 369.583529 
L 396.631504 367.528941 
L 402.248598 360.337882 
L 407.865691 344.928471 
L 413.482785 332.600941 
L 419.099878 341.846588 
L 424.716972 350.064941 
L 430.334065 336.710118 
L 435.951159 331.573647 
L 441.568252 350.064941 
" clip-path="url(#pf5be49ffcf)" style="fill: none; stroke: #000000; stroke-linecap: square"/>
   </g>
   <g id="line2d_36">
    <path d="M 447.185346 332.990763 
L 452.802439 330.11782 
L 458.419533 327.209065 
L 464.036626 324.264497 
L 469.65372 321.284117 
L 475.270813 318.267924 
L 480.887907 315.215919 
L 486.505 312.128101 
L 492.122093 309.004471 
L 497.739187 305.845029 
L 503.35628 302.649774 
L 508.973374 299.418706 
L 514.590467 296.151826 
L 520.207561 292.849134 
L 525.824654 289.510629 
L 531.441748 286.136311 
L 537.058841 282.726182 
L 542.675935 279.280239 
L 548.293028 275.798485 
L 553.910122 272.280917 
L 559.527215 268.727538 
L 565.144309 265.138345 
L 570.761402 261.513341 
L 576.378496 257.852523 
L 581.995589 254.155894 
L 587.612682 250.423452 
L 593.229776 246.655197 
L 598.846869 242.85113 
L 604.463963 239.011251 
L 610.081056 235.135559 
L 615.69815 231.224054 
L 621.315243 227.276737 
L 626.932337 223.293608 
L 632.54943 219.274666 
L 638.166524 215.219912 
L 643.783617 211.129345 
L 649.400711 207.002966 
L 655.017804 202.840774 
L 660.634898 198.64277 
L 666.251991 194.408953 
L 671.869085 190.139324 
L 677.486178 185.833882 
L 683.103271 181.492628 
L 688.720365 177.115561 
L 694.337458 172.702682 
L 699.954552 168.253991 
L 705.571645 163.769487 
L 711.188739 159.24917 
L 716.805832 154.693041 
L 722.422926 150.1011 
L 728.040019 145.473346 
L 733.657113 140.80978 
L 739.274206 136.110401 
L 744.8913 131.37521 
L 750.508393 126.604206 
L 756.125487 121.79739 
L 761.74258 116.954761 
L 767.359673 112.07632 
L 772.976767 107.162066 
L 778.59386 102.212 
L 784.210954 97.226121 
L 789.828047 92.20443 
L 795.445141 87.146927 
L 801.062234 82.053611 
L 806.679328 76.924482 
L 812.296421 71.759541 
L 817.913515 66.558788 
L 823.530608 61.322222 
L 829.147702 56.049843 
L 834.764795 50.741652 
L 840.381889 45.397649 
L 845.998982 40.017833 
L 851.616076 34.602205 
L 857.233169 29.150764 
L 862.850262 23.663511 
L 868.467356 18.140445 
L 874.084449 12.581567 
L 879.701543 6.986877 
L 885.318636 1.356374 
" clip-path="url(#pf5be49ffcf)" style="fill: none; stroke: #1f77b4; stroke-width: 1.8; stroke-linecap: square"/>
   </g>
   <g id="line2d_37">
    <path d="M 447.185346 329.249394 
L 452.802439 324.614191 
L 458.419533 319.647316 
L 464.036626 314.325397 
L 469.65372 308.624316 
L 475.270813 302.519204 
L 480.887907 295.984445 
L 486.505 288.993676 
L 492.122093 281.519784 
L 497.739187 273.534907 
L 503.35628 265.010437 
L 508.973374 255.917016 
L 514.590467 246.224536 
L 520.207561 235.902145 
L 525.824654 224.91824 
L 531.441748 213.240469 
L 537.058841 200.835732 
L 542.675935 187.670183 
L 548.293028 173.709225 
L 553.910122 158.917513 
L 559.527215 143.258955 
L 565.144309 126.696709 
L 570.761402 109.193186 
L 576.378496 90.710049 
L 581.995589 71.20821 
L 587.612682 50.647836 
L 593.229776 28.988343 
L 598.846869 6.188401 
L 600.530512 -1 
" clip-path="url(#pf5be49ffcf)" style="fill: none; stroke: #ff7f0e; stroke-width: 1.8; stroke-linecap: square"/>
   </g>
   <g id="line2d_38">
    <path d="M 447.185346 323.623962 
L 452.802439 319.515302 
L 458.419533 315.289047 
L 464.036626 310.941831 
L 469.65372 306.470192 
L 475.270813 301.870569 
L 480.887907 297.139299 
L 486.505 292.272614 
L 492.122093 287.266638 
L 497.739187 282.117384 
L 503.35628 276.820752 
L 508.973374 271.372524 
L 514.590467 265.76836 
L 520.207561 260.003797 
L 525.824654 254.074245 
L 531.441748 247.974982 
L 537.058841 241.70115 
L 542.675935 235.247753 
L 548.293028 228.609651 
L 553.910122 221.781558 
L 559.527215 214.758036 
L 565.144309 207.533492 
L 570.761402 200.102171 
L 576.378496 192.458157 
L 581.995589 184.595361 
L 587.612682 176.507522 
L 593.229776 168.188198 
L 598.846869 159.630764 
L 604.463963 150.828406 
L 610.081056 141.774112 
L 615.69815 132.460673 
L 621.315243 122.880671 
L 626.932337 113.026477 
L 632.54943 102.890243 
L 638.166524 92.463897 
L 643.783617 81.739135 
L 649.400711 70.707416 
L 655.017804 59.359956 
L 660.634898 47.687716 
L 666.251991 35.681401 
L 671.869085 23.331451 
L 677.486178 10.628028 
L 682.484698 -1 
" clip-path="url(#pf5be49ffcf)" style="fill: none; stroke: #2ca02c; stroke-width: 1.8; stroke-linecap: square"/>
   </g>
   <g id="line2d_39">
    <path d="M 47.81 307.945882 
L 925.2 307.945882 
" clip-path="url(#pf5be49ffcf)" style="fill: none; stroke-dasharray: 4.44,1.92; stroke-dashoffset: 0; stroke: #1f77b4; stroke-width: 1.2"/>
   </g>
   <g id="line2d_40">
    <path d="M 47.81 282.263529 
L 925.2 282.263529 
" clip-path="url(#pf5be49ffcf)" style="fill: none; stroke-dasharray: 4.44,1.92; stroke-dashoffset: 0; stroke: #1f77b4; stroke-width: 1.2"/>
   </g>
   <g id="line2d_41">
    <path d="M 47.81 230.898824 
L 925.2 230.898824 
" clip-path="url(#pf5be49ffcf)" style="fill: none; stroke-dasharray: 4.44,1.92; stroke-dashoffset: 0; stroke: #1f77b4; stroke-width: 1.2"/>
   </g>
   <g id="patch_3">
    <path d="M 47.81 462.04 
L 47.81 25.44 
" style="fill: none; stroke: #000000; stroke-width: 0.8; stroke-linejoin: miter; stroke-linecap: square"/>
   </g>
   <g id="patch_4">
    <path d="M 925.2 462.04 
L 925.2 25.44 
" style="fill: none; stroke: #000000; stroke-width: 0.8; stroke-linejoin: miter; stroke-linecap: square"/>
   </g>
   <g id="patch_5">
    <path d="M 47.81 462.04 
L 925.2 462.04 
" style="fill: none; stroke: #000000; stroke-width: 0.8; stroke-linejoin: miter; stroke-linecap: square"/>
   </g>
   <g id="patch_6">
    <path d="M 47.81 25.44 
L 925.2 25.44 
" style="fill: none; stroke: #000000; stroke-width: 0.8; stroke-linejoin: miter; stroke-linecap: square"/>
   </g>
   <g id="text_20">
    <!-- Forecasts of Temperature Change Relative to 1951-1980 (Zoomed) -->
    <g transform="translate(285.485312 19.44) scale(0.12 -0.12)">
     <defs>
      <path id="DejaVuSans-46" d="M 628 4666 
L 3309 4666 
L 3309 4134 
L 1259 4134 
L 1259 2759 
L 3109 2759 
L 3109 2228 
L 1259 2228 
L 1259 0 
L 628 0 
L 628 4666 
z
" transform="scale(0.015625)"/>
      <path id="DejaVuSans-73" d="M 2834 3397 
L 2834 2853 
Q 2591 2978 2328 3040 
Q 2066 3103 1784 3103 
Q 1356 3103 1142 2972 
Q 928 2841 928 2578 
Q 928 2378 1081 2264 
Q 1234 2150 1697 2047 
L 1894 2003 
Q 2506 1872 2764 1633 
Q 3022 1394 3022 966 
Q 3022 478 2636 193 
Q 2250 -91 1575 -91 
Q 1294 -91 989 -36 
Q 684 19 347 128 
L 347 722 
Q 666 556 975 473 
Q 1284 391 1588 391 
Q 1994 391 2212 530 
Q 2431 669 2431 922 
Q 2431 1156 2273 1281 
Q 2116 1406 1581 1522 
L 1381 1569 
Q 847 1681 609 1914 
Q 372 2147 372 2553 
Q 372 3047 722 3315 
Q 1072 3584 1716 3584 
Q 2034 3584 2315 3537 
Q 2597 3491 2834 3397 
z
" transform="scale(0.015625)"/>
      <path id="DejaVuSans-52" d="M 2841 2188 
Q 3044 2119 3236 1894 
Q 3428 1669 3622 1275 
L 4263 0 
L 3584 0 
L 2988 1197 
Q 2756 1666 2539 1819 
Q 2322 1972 1947 1972 
L 1259 1972 
L 1259 0 
L 628 0 
L 628 4666 
L 2053 4666 
Q 2853 4666 3247 4331 
Q 3641 3997 3641 3322 
Q 3641 2881 3436 2590 
Q 3231 2300 2841 2188 
z
M 1259 4147 
L 1259 2491 
L 2053 2491 
Q 2509 2491 2742 2702 
Q 2975 2913 2975 3322 
Q 2975 3731 2742 3939 
Q 2509 4147 2053 4147 
L 1259 4147 
z
" transform="scale(0.015625)"/>
      <path id="DejaVuSans-6c" d="M 603 4863 
L 1178 4863 
L 1178 0 
L 603 0 
L 603 4863 
z
" transform="scale(0.015625)"/>
      <path id="DejaVuSans-69" d="M 603 3500 
L 1178 3500 
L 1178 0 
L 603 0 
L 603 3500 
z
M 603 4863 
L 1178 4863 
L 1178 4134 
L 603 4134 
L 603 4863 
z
" transform="scale(0.015625)"/>
      <path id="DejaVuSans-76" d="M 191 3500 
L 800 3500 
L 1894 563 
L 2988 3500 
L 3597 3500 
L 2284 0 
L 1503 0 
L 191 3500 
z
" transform="scale(0.015625)"/>
      <path id="DejaVuSans-28" d="M 1984 4856 
Q 1566 4138 1362 3434 
Q 1159 2731 1159 2009 
Q 1159 1288 1364 580 
Q 1569 -128 1984 -844 
L 1484 -844 
Q 1016 -109 783 600 
Q 550 1309 550 2009 
Q 550 2706 781 3412 
Q 1013 4119 1484 4856 
L 1984 4856 
z
" transform="scale(0.015625)"/>
      <path id="DejaVuSans-5a" d="M 359 4666 
L 4025 4666 
L 4025 4184 
L 1075 531 
L 4097 531 
L 4097 0 
L 288 0 
L 288 481 
L 3238 4134 
L 359 4134 
L 359 4666 
z
" transform="scale(0.015625)"/>
      <path id="DejaVuSans-64" d="M 2906 2969 
L 2906 4863 
L 3481 4863 
L 3481 0 
L 2906 0 
L 2906 525 
Q 2725 213 2448 61 
Q 2172 -91 1784 -91 
Q 1150 -91 751 415 
Q 353 922 353 1747 
Q 353 2572 751 3078 
Q 1150 3584 1784 3584 
Q 2172 3584 2448 3432 
Q 2725 3281 2906 2969 
z
M 947 1747 
Q 947 1113 1208 752 
Q 1469 391 1925 391 
Q 2381 391 2643 752 
Q 2906 1113 2906 1747 
Q 2906 2381 2643 2742 
Q 2381 3103 1925 3103 
Q 1469 3103 1208 2742 
Q 947 2381 947 1747 
z
" transform="scale(0.015625)"/>
      <path id="DejaVuSans-29" d="M 513 4856 
L 1013 4856 
Q 1481 4119 1714 3412 
Q 1947 2706 1947 2009 
Q 1947 1309 1714 600 
Q 1481 -109 1013 -844 
L 513 -844 
Q 928 -128 1133 580 
Q 1338 1288 1338 2009 
Q 1338 2731 1133 3434 
Q 928 4138 513 4856 
z
" transform="scale(0.015625)"/>
     </defs>
     <use xlink:href="#DejaVuSans-46"/>
     <use xlink:href="#DejaVuSans-6f" transform="translate(53.894531 0)"/>
     <use xlink:href="#DejaVuSans-72" transform="translate(115.076172 0)"/>
     <use xlink:href="#DejaVuSans-65" transform="translate(153.939453 0)"/>
     <use xlink:href="#DejaVuSans-63" transform="translate(215.462891 0)"/>
     <use xlink:href="#DejaVuSans-61" transform="translate(270.443359 0)"/>
     <use xlink:href="#DejaVuSans-73" transform="translate(331.722656 0)"/>
     <use xlink:href="#DejaVuSans-74" transform="translate(383.822266 0)"/>
     <use xlink:href="#DejaVuSans-73" transform="translate(423.03125 0)"/>
     <use xlink:href="#DejaVuSans-20" transform="translate(475.130859 0)"/>
     <use xlink:href="#DejaVuSans-6f" transform="translate(506.917969 0)"/>
     <use xlink:href="#DejaVuSans-66" transform="translate(568.099609 0)"/>
     <use xlink:href="#DejaVuSans-20" transform="translate(603.304688 0)"/>
     <use xlink:href="#DejaVuSans-54" transform="translate(635.091797 0)"/>
     <use xlink:href="#DejaVuSans-65" transform="translate(679.175781 0)"/>
     <use xlink:href="#DejaVuSans-6d" transform="translate(740.699219 0)"/>
     <use xlink:href="#DejaVuSans-70" transform="translate(838.111328 0)"/>
     <use xlink:href="#DejaVuSans-65" transform="translate(901.587891 0)"/>
     <use xlink:href="#DejaVuSans-72" transform="translate(963.111328 0)"/>
     <use xlink:href="#DejaVuSans-61" transform="translate(1004.224609 0)"/>
     <use xlink:href="#DejaVuSans-74" transform="translate(1065.503906 0)"/>
     <use xlink:href="#DejaVuSans-75" transform="translate(1104.712891 0)"/>
     <use xlink:href="#DejaVuSans-72" transform="translate(1168.091797 0)"/>
     <use xlink:href="#DejaVuSans-65" transform="translate(1206.955078 0)"/>
     <use xlink:href="#DejaVuSans-20" transform="translate(1268.478516 0)"/>
     <use xlink:href="#DejaVuSans-43" transform="translate(1300.265625 0)"/>
     <use xlink:href="#DejaVuSans-68" transform="translate(1370.089844 0)"/>
     <use xlink:href="#DejaVuSans-61" transform="translate(1433.46875 0)"/>
     <use xlink:href="#DejaVuSans-6e" transform="translate(1494.748047 0)"/>
     <use xlink:href="#DejaVuSans-67" transform="translate(1558.126953 0)"/>
     <use xlink:href="#DejaVuSans-65" transform="translate(1621.603516 0)"/>
     <use xlink:href="#DejaVuSans-20" transform="translate(1683.126953 0)"/>
     <use xlink:href="#DejaVuSans-52" transform="translate(1714.914062 0)"/>
     <use xlink:href="#DejaVuSans-65" transform="translate(1779.896484 0)"/>
     <use xlink:href="#DejaVuSans-6c" transform="translate(1841.419922 0)"/>
     <use xlink:href="#DejaVuSans-61" transform="translate(1869.203125 0)"/>
     <use xlink:href="#DejaVuSans-74" transform="translate(1930.482422 0)"/>
     <use xlink:href="#DejaVuSans-69" transform="translate(1969.691406 0)"/>
     <use xlink:href="#DejaVuSans-76" transform="translate(1997.474609 0)"/>
     <use xlink:href="#DejaVuSans-65" transform="translate(2056.654297 0)"/>
     <use xlink:href="#DejaVuSans-20" transform="translate(2118.177734 0)"/>
     <use xlink:href="#DejaVuSans-74" transform="translate(2149.964844 0)"/>
     <use xlink:href="#DejaVuSans-6f" transform="translate(2189.173828 0)"/>
     <use xlink:href="#DejaVuSans-20" transform="translate(2250.355469 0)"/>
     <use xlink:href="#DejaVuSans-31" transform="translate(2282.142578 0)"/>
     <use xlink:href="#DejaVuSans-39" transform="translate(2345.765625 0)"/>
     <use xlink:href="#DejaVuSans-35" transform="translate(2409.388672 0)"/>
     <use xlink:href="#DejaVuSans-31" transform="translate(2473.011719 0)"/>
     <use xlink:href="#DejaVuSans-2d" transform="translate(2536.634766 0)"/>
     <use xlink:href="#DejaVuSans-31" transform="translate(2572.71875 0)"/>
     <use xlink:href="#DejaVuSans-39" transform="translate(2636.341797 0)"/>
     <use xlink:href="#DejaVuSans-38" transform="translate(2699.964844 0)"/>
     <use xlink:href="#DejaVuSans-30" transform="translate(2763.587891 0)"/>
     <use xlink:href="#DejaVuSans-20" transform="translate(2827.210938 0)"/>
     <use xlink:href="#DejaVuSans-28" transform="translate(2858.998047 0)"/>
     <use xlink:href="#DejaVuSans-5a" transform="translate(2898.011719 0)"/>
     <use xlink:href="#DejaVuSans-6f" transform="translate(2966.517578 0)"/>
     <use xlink:href="#DejaVuSans-6f" transform="translate(3027.699219 0)"/>
     <use xlink:href="#DejaVuSans-6d" transform="translate(3088.880859 0)"/>
     <use xlink:href="#DejaVuSans-65" transform="translate(3186.292969 0)"/>
     <use xlink:href="#DejaVuSans-64" transform="translate(3247.816406 0)"/>
     <use xlink:href="#DejaVuSans-29" transform="translate(3311.292969 0)"/>
    </g>
   </g>
   <g id="legend_1">
    <g id="patch_7">
     <path d="M 53.41 114.0375 
L 269.61375 114.0375 
Q 271.21375 114.0375 271.21375 112.4375 
L 271.21375 31.04 
Q 271.21375 29.44 269.61375 29.44 
L 53.41 29.44 
Q 51.81 29.44 51.81 31.04 
L 51.81 112.4375 
Q 51.81 114.0375 53.41 114.0375 
z
" style="fill: #ffffff; opacity: 0.8; stroke: #cccccc; stroke-linejoin: miter"/>
    </g>
    <g id="PathCollection_2">
     <g>
      <use xlink:href="#md17df06544" x="63.01" y="36.61875" style="stroke: #000000"/>
     </g>
    </g>
    <g id="text_21">
     <!-- Observed temperature change from 1951-1980 -->
     <g transform="translate(77.41 38.71875) scale(0.08 -0.08)">
      <defs>
       <path id="DejaVuSans-4f" d="M 2522 4238 
Q 1834 4238 1429 3725 
Q 1025 3213 1025 2328 
Q 1025 1447 1429 934 
Q 1834 422 2522 422 
Q 3209 422 3611 934 
Q 4013 1447 4013 2328 
Q 4013 3213 3611 3725 
Q 3209 4238 2522 4238 
z
M 2522 4750 
Q 3503 4750 4090 4092 
Q 4678 3434 4678 2328 
Q 4678 1225 4090 567 
Q 3503 -91 2522 -91 
Q 1538 -91 948 565 
Q 359 1222 359 2328 
Q 359 3434 948 4092 
Q 1538 4750 2522 4750 
z
" transform="scale(0.015625)"/>
       <path id="DejaVuSans-62" d="M 3116 1747 
Q 3116 2381 2855 2742 
Q 2594 3103 2138 3103 
Q 1681 3103 1420 2742 
Q 1159 2381 1159 1747 
Q 1159 1113 1420 752 
Q 1681 391 2138 391 
Q 2594 391 2855 752 
Q 3116 1113 3116 1747 
z
M 1159 2969 
Q 1341 3281 1617 3432 
Q 1894 3584 2278 3584 
Q 2916 3584 3314 3078 
Q 3713 2572 3713 1747 
Q 3713 922 3314 415 
Q 2916 -91 2278 -91 
Q 1894 -91 1617 61 
Q 1341 213 1159 525 
L 1159 0 
L 581 0 
L 581 4863 
L 1159 4863 
L 1159 2969 
z
" transform="scale(0.015625)"/>
      </defs>
      <use xlink:href="#DejaVuSans-4f"/>
      <use xlink:href="#DejaVuSans-62" transform="translate(78.710938 0)"/>
      <use xlink:href="#DejaVuSans-73" transform="translate(142.1875 0)"/>
      <use xlink:href="#DejaVuSans-65" transform="translate(194.287109 0)"/>
      <use xlink:href="#DejaVuSans-72" transform="translate(255.810547 0)"/>
      <use xlink:href="#DejaVuSans-76" transform="translate(296.923828 0)"/>
      <use xlink:href="#DejaVuSans-65" transform="translate(356.103516 0)"/>
      <use xlink:href="#DejaVuSans-64" transform="translate(417.626953 0)"/>
      <use xlink:href="#DejaVuSans-20" transform="translate(481.103516 0)"/>
      <use xlink:href="#DejaVuSans-74" transform="translate(512.890625 0)"/>
      <use xlink:href="#DejaVuSans-65" transform="translate(552.099609 0)"/>
      <use xlink:href="#DejaVuSans-6d" transform="translate(613.623047 0)"/>
      <use xlink:href="#DejaVuSans-70" transform="translate(711.035156 0)"/>
      <use xlink:href="#DejaVuSans-65" transform="translate(774.511719 0)"/>
      <use xlink:href="#DejaVuSans-72" transform="translate(836.035156 0)"/>
      <use xlink:href="#DejaVuSans-61" transform="translate(877.148438 0)"/>
      <use xlink:href="#DejaVuSans-74" transform="translate(938.427734 0)"/>
      <use xlink:href="#DejaVuSans-75" transform="translate(977.636719 0)"/>
      <use xlink:href="#DejaVuSans-72" transform="translate(1041.015625 0)"/>
      <use xlink:href="#DejaVuSans-65" transform="translate(1079.878906 0)"/>
      <use xlink:href="#DejaVuSans-20" transform="translate(1141.402344 0)"/>
      <use xlink:href="#DejaVuSans-63" transform="translate(1173.189453 0)"/>
      <use xlink:href="#DejaVuSans-68" transform="translate(1228.169922 0)"/>
      <use xlink:href="#DejaVuSans-61" transform="translate(1291.548828 0)"/>
      <use xlink:href="#DejaVuSans-6e" transform="translate(1352.828125 0)"/>
      <use xlink:href="#DejaVuSans-67" transform="translate(1416.207031 0)"/>
      <use xlink:href="#DejaVuSans-65" transform="translate(1479.683594 0)"/>
      <use xlink:href="#DejaVuSans-20" transform="translate(1541.207031 0)"/>
      <use xlink:href="#DejaVuSans-66" transform="translate(1572.994141 0)"/>
      <use xlink:href="#DejaVuSans-72" transform="translate(1608.199219 0)"/>
      <use xlink:href="#DejaVuSans-6f" transform="translate(1647.0625 0)"/>
      <use xlink:href="#DejaVuSans-6d" transform="translate(1708.244141 0)"/>
      <use xlink:href="#DejaVuSans-20" transform="translate(1805.65625 0)"/>
      <use xlink:href="#DejaVuSans-31" transform="translate(1837.443359 0)"/>
      <use xlink:href="#DejaVuSans-39" transform="translate(1901.066406 0)"/>
      <use xlink:href="#DejaVuSans-35" transform="translate(1964.689453 0)"/>
      <use xlink:href="#DejaVuSans-31" transform="translate(2028.3125 0)"/>
      <use xlink:href="#DejaVuSans-2d" transform="translate(2091.935547 0)"/>
      <use xlink:href="#DejaVuSans-31" transform="translate(2128.019531 0)"/>
      <use xlink:href="#DejaVuSans-39" transform="translate(2191.642578 0)"/>
      <use xlink:href="#DejaVuSans-38" transform="translate(2255.265625 0)"/>
      <use xlink:href="#DejaVuSans-30" transform="translate(2318.888672 0)"/>
     </g>
    </g>
    <g id="line2d_42">
     <path d="M 55.01 47.66125 
L 63.01 47.66125 
L 71.01 47.66125 
" style="fill: none; stroke: #1f77b4; stroke-width: 1.8; stroke-linecap: square"/>
    </g>
    <g id="text_22">
     <!-- Quadratic time trend -->
     <g transform="translate(77.41 50.46125) scale(0.08 -0.08)">
      <defs>
       <path id="DejaVuSans-51" d="M 2522 4238 
Q 1834 4238 1429 3725 
Q 1025 3213 1025 2328 
Q 1025 1447 1429 934 
Q 1834 422 2522 422 
Q 3209 422 3611 934 
Q 4013 1447 4013 2328 
Q 4013 3213 3611 3725 
Q 3209 4238 2522 4238 
z
M 3406 84 
L 4238 -825 
L 3475 -825 
L 2784 -78 
Q 2681 -84 2626 -87 
Q 2572 -91 2522 -91 
Q 1538 -91 948 567 
Q 359 1225 359 2328 
Q 359 3434 948 4092 
Q 1538 4750 2522 4750 
Q 3503 4750 4090 4092 
Q 4678 3434 4678 2328 
Q 4678 1516 4351 937 
Q 4025 359 3406 84 
z
" transform="scale(0.015625)"/>
      </defs>
      <use xlink:href="#DejaVuSans-51"/>
      <use xlink:href="#DejaVuSans-75" transform="translate(78.710938 0)"/>
      <use xlink:href="#DejaVuSans-61" transform="translate(142.089844 0)"/>
      <use xlink:href="#DejaVuSans-64" transform="translate(203.369141 0)"/>
      <use xlink:href="#DejaVuSans-72" transform="translate(266.845703 0)"/>
      <use xlink:href="#DejaVuSans-61" transform="translate(307.958984 0)"/>
      <use xlink:href="#DejaVuSans-74" transform="translate(369.238281 0)"/>
      <use xlink:href="#DejaVuSans-69" transform="translate(408.447266 0)"/>
      <use xlink:href="#DejaVuSans-63" transform="translate(436.230469 0)"/>
      <use xlink:href="#DejaVuSans-20" transform="translate(491.210938 0)"/>
      <use xlink:href="#DejaVuSans-74" transform="translate(522.998047 0)"/>
      <use xlink:href="#DejaVuSans-69" transform="translate(562.207031 0)"/>
      <use xlink:href="#DejaVuSans-6d" transform="translate(589.990234 0)"/>
      <use xlink:href="#DejaVuSans-65" transform="translate(687.402344 0)"/>
      <use xlink:href="#DejaVuSans-20" transform="translate(748.925781 0)"/>
      <use xlink:href="#DejaVuSans-74" transform="translate(780.712891 0)"/>
      <use xlink:href="#DejaVuSans-72" transform="translate(819.921875 0)"/>
      <use xlink:href="#DejaVuSans-65" transform="translate(858.785156 0)"/>
      <use xlink:href="#DejaVuSans-6e" transform="translate(920.308594 0)"/>
      <use xlink:href="#DejaVuSans-64" transform="translate(983.6875 0)"/>
     </g>
    </g>
    <g id="line2d_43">
     <path d="M 55.01 59.40375 
L 63.01 59.40375 
L 71.01 59.40375 
" style="fill: none; stroke: #ff7f0e; stroke-width: 1.8; stroke-linecap: square"/>
    </g>
    <g id="text_23">
     <!-- Quartic time trend -->
     <g transform="translate(77.41 62.20375) scale(0.08 -0.08)">
      <use xlink:href="#DejaVuSans-51"/>
      <use xlink:href="#DejaVuSans-75" transform="translate(78.710938 0)"/>
      <use xlink:href="#DejaVuSans-61" transform="translate(142.089844 0)"/>
      <use xlink:href="#DejaVuSans-72" transform="translate(203.369141 0)"/>
      <use xlink:href="#DejaVuSans-74" transform="translate(244.482422 0)"/>
      <use xlink:href="#DejaVuSans-69" transform="translate(283.691406 0)"/>
      <use xlink:href="#DejaVuSans-63" transform="translate(311.474609 0)"/>
      <use xlink:href="#DejaVuSans-20" transform="translate(366.455078 0)"/>
      <use xlink:href="#DejaVuSans-74" transform="translate(398.242188 0)"/>
      <use xlink:href="#DejaVuSans-69" transform="translate(437.451172 0)"/>
      <use xlink:href="#DejaVuSans-6d" transform="translate(465.234375 0)"/>
      <use xlink:href="#DejaVuSans-65" transform="translate(562.646484 0)"/>
      <use xlink:href="#DejaVuSans-20" transform="translate(624.169922 0)"/>
      <use xlink:href="#DejaVuSans-74" transform="translate(655.957031 0)"/>
      <use xlink:href="#DejaVuSans-72" transform="translate(695.166016 0)"/>
      <use xlink:href="#DejaVuSans-65" transform="translate(734.029297 0)"/>
      <use xlink:href="#DejaVuSans-6e" transform="translate(795.552734 0)"/>
      <use xlink:href="#DejaVuSans-64" transform="translate(858.931641 0)"/>
     </g>
    </g>
    <g id="line2d_44">
     <path d="M 55.01 71.14625 
L 63.01 71.14625 
L 71.01 71.14625 
" style="fill: none; stroke: #2ca02c; stroke-width: 1.8; stroke-linecap: square"/>
    </g>
    <g id="text_24">
     <!-- Shifted exponential time trend -->
     <g transform="translate(77.41 73.94625) scale(0.08 -0.08)">
      <defs>
       <path id="DejaVuSans-53" d="M 3425 4513 
L 3425 3897 
Q 3066 4069 2747 4153 
Q 2428 4238 2131 4238 
Q 1616 4238 1336 4038 
Q 1056 3838 1056 3469 
Q 1056 3159 1242 3001 
Q 1428 2844 1947 2747 
L 2328 2669 
Q 3034 2534 3370 2195 
Q 3706 1856 3706 1288 
Q 3706 609 3251 259 
Q 2797 -91 1919 -91 
Q 1588 -91 1214 -16 
Q 841 59 441 206 
L 441 856 
Q 825 641 1194 531 
Q 1563 422 1919 422 
Q 2459 422 2753 634 
Q 3047 847 3047 1241 
Q 3047 1584 2836 1778 
Q 2625 1972 2144 2069 
L 1759 2144 
Q 1053 2284 737 2584 
Q 422 2884 422 3419 
Q 422 4038 858 4394 
Q 1294 4750 2059 4750 
Q 2388 4750 2728 4690 
Q 3069 4631 3425 4513 
z
" transform="scale(0.015625)"/>
       <path id="DejaVuSans-78" d="M 3513 3500 
L 2247 1797 
L 3578 0 
L 2900 0 
L 1881 1375 
L 863 0 
L 184 0 
L 1544 1831 
L 300 3500 
L 978 3500 
L 1906 2253 
L 2834 3500 
L 3513 3500 
z
" transform="scale(0.015625)"/>
      </defs>
      <use xlink:href="#DejaVuSans-53"/>
      <use xlink:href="#DejaVuSans-68" transform="translate(63.476562 0)"/>
      <use xlink:href="#DejaVuSans-69" transform="translate(126.855469 0)"/>
      <use xlink:href="#DejaVuSans-66" transform="translate(154.638672 0)"/>
      <use xlink:href="#DejaVuSans-74" transform="translate(188.09375 0)"/>
      <use xlink:href="#DejaVuSans-65" transform="translate(227.302734 0)"/>
      <use xlink:href="#DejaVuSans-64" transform="translate(288.826172 0)"/>
      <use xlink:href="#DejaVuSans-20" transform="translate(352.302734 0)"/>
      <use xlink:href="#DejaVuSans-65" transform="translate(384.089844 0)"/>
      <use xlink:href="#DejaVuSans-78" transform="translate(443.863281 0)"/>
      <use xlink:href="#DejaVuSans-70" transform="translate(503.042969 0)"/>
      <use xlink:href="#DejaVuSans-6f" transform="translate(566.519531 0)"/>
      <use xlink:href="#DejaVuSans-6e" transform="translate(627.701172 0)"/>
      <use xlink:href="#DejaVuSans-65" transform="translate(691.080078 0)"/>
      <use xlink:href="#DejaVuSans-6e" transform="translate(752.603516 0)"/>
      <use xlink:href="#DejaVuSans-74" transform="translate(815.982422 0)"/>
      <use xlink:href="#DejaVuSans-69" transform="translate(855.191406 0)"/>
      <use xlink:href="#DejaVuSans-61" transform="translate(882.974609 0)"/>
      <use xlink:href="#DejaVuSans-6c" transform="translate(944.253906 0)"/>
      <use xlink:href="#DejaVuSans-20" transform="translate(972.037109 0)"/>
      <use xlink:href="#DejaVuSans-74" transform="translate(1003.824219 0)"/>
      <use xlink:href="#DejaVuSans-69" transform="translate(1043.033203 0)"/>
      <use xlink:href="#DejaVuSans-6d" transform="translate(1070.816406 0)"/>
      <use xlink:href="#DejaVuSans-65" transform="translate(1168.228516 0)"/>
      <use xlink:href="#DejaVuSans-20" transform="translate(1229.751953 0)"/>
      <use xlink:href="#DejaVuSans-74" transform="translate(1261.539062 0)"/>
      <use xlink:href="#DejaVuSans-72" transform="translate(1300.748047 0)"/>
      <use xlink:href="#DejaVuSans-65" transform="translate(1339.611328 0)"/>
      <use xlink:href="#DejaVuSans-6e" transform="translate(1401.134766 0)"/>
      <use xlink:href="#DejaVuSans-64" transform="translate(1464.513672 0)"/>
     </g>
    </g>
    <g id="line2d_45">
     <path d="M 55.01 82.88875 
L 63.01 82.88875 
L 71.01 82.88875 
" style="fill: none; stroke-dasharray: 4.44,1.92; stroke-dashoffset: 0; stroke: #1f77b4; stroke-width: 1.2"/>
    </g>
    <g id="text_25">
     <!-- 1.25 C above 1951-1980 -->
     <g transform="translate(77.41 85.68875) scale(0.08 -0.08)">
      <use xlink:href="#DejaVuSans-31"/>
      <use xlink:href="#DejaVuSans-2e" transform="translate(63.623047 0)"/>
      <use xlink:href="#DejaVuSans-32" transform="translate(95.410156 0)"/>
      <use xlink:href="#DejaVuSans-35" transform="translate(159.033203 0)"/>
      <use xlink:href="#DejaVuSans-20" transform="translate(222.65625 0)"/>
      <use xlink:href="#DejaVuSans-43" transform="translate(254.443359 0)"/>
      <use xlink:href="#DejaVuSans-20" transform="translate(324.267578 0)"/>
      <use xlink:href="#DejaVuSans-61" transform="translate(356.054688 0)"/>
      <use xlink:href="#DejaVuSans-62" transform="translate(417.333984 0)"/>
      <use xlink:href="#DejaVuSans-6f" transform="translate(480.810547 0)"/>
      <use xlink:href="#DejaVuSans-76" transform="translate(541.992188 0)"/>
      <use xlink:href="#DejaVuSans-65" transform="translate(601.171875 0)"/>
      <use xlink:href="#DejaVuSans-20" transform="translate(662.695312 0)"/>
      <use xlink:href="#DejaVuSans-31" transform="translate(694.482422 0)"/>
      <use xlink:href="#DejaVuSans-39" transform="translate(758.105469 0)"/>
      <use xlink:href="#DejaVuSans-35" transform="translate(821.728516 0)"/>
      <use xlink:href="#DejaVuSans-31" transform="translate(885.351562 0)"/>
      <use xlink:href="#DejaVuSans-2d" transform="translate(948.974609 0)"/>
      <use xlink:href="#DejaVuSans-31" transform="translate(985.058594 0)"/>
      <use xlink:href="#DejaVuSans-39" transform="translate(1048.681641 0)"/>
      <use xlink:href="#DejaVuSans-38" transform="translate(1112.304688 0)"/>
      <use xlink:href="#DejaVuSans-30" transform="translate(1175.927734 0)"/>
     </g>
    </g>
    <g id="line2d_46">
     <path d="M 55.01 94.63125 
L 63.01 94.63125 
L 71.01 94.63125 
" style="fill: none; stroke-dasharray: 4.44,1.92; stroke-dashoffset: 0; stroke: #1f77b4; stroke-width: 1.2"/>
    </g>
    <g id="text_26">
     <!-- 1.50 C above 1951-1980 -->
     <g transform="translate(77.41 97.43125) scale(0.08 -0.08)">
      <use xlink:href="#DejaVuSans-31"/>
      <use xlink:href="#DejaVuSans-2e" transform="translate(63.623047 0)"/>
      <use xlink:href="#DejaVuSans-35" transform="translate(95.410156 0)"/>
      <use xlink:href="#DejaVuSans-30" transform="translate(159.033203 0)"/>
      <use xlink:href="#DejaVuSans-20" transform="translate(222.65625 0)"/>
      <use xlink:href="#DejaVuSans-43" transform="translate(254.443359 0)"/>
      <use xlink:href="#DejaVuSans-20" transform="translate(324.267578 0)"/>
      <use xlink:href="#DejaVuSans-61" transform="translate(356.054688 0)"/>
      <use xlink:href="#DejaVuSans-62" transform="translate(417.333984 0)"/>
      <use xlink:href="#DejaVuSans-6f" transform="translate(480.810547 0)"/>
      <use xlink:href="#DejaVuSans-76" transform="translate(541.992188 0)"/>
      <use xlink:href="#DejaVuSans-65" transform="translate(601.171875 0)"/>
      <use xlink:href="#DejaVuSans-20" transform="translate(662.695312 0)"/>
      <use xlink:href="#DejaVuSans-31" transform="translate(694.482422 0)"/>
      <use xlink:href="#DejaVuSans-39" transform="translate(758.105469 0)"/>
      <use xlink:href="#DejaVuSans-35" transform="translate(821.728516 0)"/>
      <use xlink:href="#DejaVuSans-31" transform="translate(885.351562 0)"/>
      <use xlink:href="#DejaVuSans-2d" transform="translate(948.974609 0)"/>
      <use xlink:href="#DejaVuSans-31" transform="translate(985.058594 0)"/>
      <use xlink:href="#DejaVuSans-39" transform="translate(1048.681641 0)"/>
      <use xlink:href="#DejaVuSans-38" transform="translate(1112.304688 0)"/>
      <use xlink:href="#DejaVuSans-30" transform="translate(1175.927734 0)"/>
     </g>
    </g>
    <g id="line2d_47">
     <path d="M 55.01 106.37375 
L 63.01 106.37375 
L 71.01 106.37375 
" style="fill: none; stroke-dasharray: 4.44,1.92; stroke-dashoffset: 0; stroke: #1f77b4; stroke-width: 1.2"/>
    </g>
    <g id="text_27">
     <!-- 2.00 C above 1951-1980 -->
     <g transform="translate(77.41 109.17375) scale(0.08 -0.08)">
      <use xlink:href="#DejaVuSans-32"/>
      <use xlink:href="#DejaVuSans-2e" transform="translate(63.623047 0)"/>
      <use xlink:href="#DejaVuSans-30" transform="translate(95.410156 0)"/>
      <use xlink:href="#DejaVuSans-30" transform="translate(159.033203 0)"/>
      <use xlink:href="#DejaVuSans-20" transform="translate(222.65625 0)"/>
      <use xlink:href="#DejaVuSans-43" transform="translate(254.443359 0)"/>
      <use xlink:href="#DejaVuSans-20" transform="translate(324.267578 0)"/>
      <use xlink:href="#DejaVuSans-61" transform="translate(356.054688 0)"/>
      <use xlink:href="#DejaVuSans-62" transform="translate(417.333984 0)"/>
      <use xlink:href="#DejaVuSans-6f" transform="translate(480.810547 0)"/>
      <use xlink:href="#DejaVuSans-76" transform="translate(541.992188 0)"/>
      <use xlink:href="#DejaVuSans-65" transform="translate(601.171875 0)"/>
      <use xlink:href="#DejaVuSans-20" transform="translate(662.695312 0)"/>
      <use xlink:href="#DejaVuSans-31" transform="translate(694.482422 0)"/>
      <use xlink:href="#DejaVuSans-39" transform="translate(758.105469 0)"/>
      <use xlink:href="#DejaVuSans-35" transform="translate(821.728516 0)"/>
      <use xlink:href="#DejaVuSans-31" transform="translate(885.351562 0)"/>
      <use xlink:href="#DejaVuSans-2d" transform="translate(948.974609 0)"/>
      <use xlink:href="#DejaVuSans-31" transform="translate(985.058594 0)"/>
      <use xlink:href="#DejaVuSans-39" transform="translate(1048.681641 0)"/>
      <use xlink:href="#DejaVuSans-38" transform="translate(1112.304688 0)"/>
      <use xlink:href="#DejaVuSans-30" transform="translate(1175.927734 0)"/>
     </g>
    </g>
   </g>
  </g>
 </g>
 <defs>
  <clipPath id="pf5be49ffcf">
   <rect x="47.81" y="25.44" width="877.39" height="436.6"/>
  </clipPath>
 </defs>
</svg>
