<?xml version="1.0" encoding="utf-8" standalone="no"?>
<!DOCTYPE svg PUBLIC "-//W3C//DTD SVG 1.1//EN"
  "http://www.w3.org/Graphics/SVG/1.1/DTD/svg11.dtd">
<svg xmlns:xlink="http://www.w3.org/1999/xlink" width="864pt" height="360pt" viewBox="0 0 864 360" xmlns="http://www.w3.org/2000/svg" version="1.1">
 <metadata>
  <rdf:RDF xmlns:dc="http://purl.org/dc/elements/1.1/" xmlns:cc="http://creativecommons.org/ns#" xmlns:rdf="http://www.w3.org/1999/02/22-rdf-syntax-ns#">
   <cc:Work>
    <dc:type rdf:resource="http://purl.org/dc/dcmitype/StillImage"/>
    <dc:date>2026-07-08T14:23:54.665515</dc:date>
    <dc:format>image/svg+xml</dc:format>
    <dc:creator>
     <cc:Agent>
      <dc:title>Matplotlib v3.10.0, https://matplotlib.org/</dc:title>
     </cc:Agent>
    </dc:creator>
   </cc:Work>
  </rdf:RDF>
 </metadata>
 <defs>
  <style type="text/css">*{stroke-linejoin: round; stroke-linecap: butt}</style>
 </defs>
 <g id="figure_1">
  <g id="patch_1">
   <path d="M 0 360 
L 864 360 
L 864 0 
L 0 0 
z
" style="fill: #ffffff"/>
  </g>
  <g id="axes_1">
   <g id="patch_2">
    <path d="M 44.66 318.04 
L 853.2 318.04 
L 853.2 25.44 
L 44.66 25.44 
z
" style="fill: #ffffff"/>
   </g>
   <g id="matplotlib.axis_1">
    <g id="xtick_1">
     <g id="line2d_1">
      <path d="M 89.289504 318.04 
L 89.289504 25.44 
" clip-path="url(#p12d23fbfef)" style="fill: none; stroke: #b0b0b0; stroke-width: 0.8; stroke-linecap: square"/>
     </g>
     <g id="line2d_2">
      <defs>
       <path id="m32bfa6456a" d="M 0 0 
L 0 3.5 
" style="stroke: #000000; stroke-width: 0.8"/>
      </defs>
      <g>
       <use xlink:href="#m32bfa6456a" x="89.289504" y="318.04" style="stroke: #000000; stroke-width: 0.8"/>
      </g>
     </g>
     <g id="text_1">
      <!-- 1960 -->
      <g transform="translate(76.564504 332.638438) scale(0.1 -0.1)">
       <defs>
        <path id="DejaVuSans-31" d="M 794 531 
L 1825 531 
L 1825 4091 
L 703 3866 
L 703 4441 
L 1819 4666 
L 2450 4666 
L 2450 531 
L 3481 531 
L 3481 0 
L 794 0 
L 794 531 
z
" transform="scale(0.015625)"/>
        <path id="DejaVuSans-39" d="M 703 97 
L 703 672 
Q 941 559 1184 500 
Q 1428 441 1663 441 
Q 2288 441 2617 861 
Q 2947 1281 2994 2138 
Q 2813 1869 2534 1725 
Q 2256 1581 1919 1581 
Q 1219 1581 811 2004 
Q 403 2428 403 3163 
Q 403 3881 828 4315 
Q 1253 4750 1959 4750 
Q 2769 4750 3195 4129 
Q 3622 3509 3622 2328 
Q 3622 1225 3098 567 
Q 2575 -91 1691 -91 
Q 1453 -91 1209 -44 
Q 966 3 703 97 
z
M 1959 2075 
Q 2384 2075 2632 2365 
Q 2881 2656 2881 3163 
Q 2881 3666 2632 3958 
Q 2384 4250 1959 4250 
Q 1534 4250 1286 3958 
Q 1038 3666 1038 3163 
Q 1038 2656 1286 2365 
Q 1534 2075 1959 2075 
z
" transform="scale(0.015625)"/>
        <path id="DejaVuSans-36" d="M 2113 2584 
Q 1688 2584 1439 2293 
Q 1191 2003 1191 1497 
Q 1191 994 1439 701 
Q 1688 409 2113 409 
Q 2538 409 2786 701 
Q 3034 994 3034 1497 
Q 3034 2003 2786 2293 
Q 2538 2584 2113 2584 
z
M 3366 4563 
L 3366 3988 
Q 3128 4100 2886 4159 
Q 2644 4219 2406 4219 
Q 1781 4219 1451 3797 
Q 1122 3375 1075 2522 
Q 1259 2794 1537 2939 
Q 1816 3084 2150 3084 
Q 2853 3084 3261 2657 
Q 3669 2231 3669 1497 
Q 3669 778 3244 343 
Q 2819 -91 2113 -91 
Q 1303 -91 875 529 
Q 447 1150 447 2328 
Q 447 3434 972 4092 
Q 1497 4750 2381 4750 
Q 2619 4750 2861 4703 
Q 3103 4656 3366 4563 
z
" transform="scale(0.015625)"/>
        <path id="DejaVuSans-30" d="M 2034 4250 
Q 1547 4250 1301 3770 
Q 1056 3291 1056 2328 
Q 1056 1369 1301 889 
Q 1547 409 2034 409 
Q 2525 409 2770 889 
Q 3016 1369 3016 2328 
Q 3016 3291 2770 3770 
Q 2525 4250 2034 4250 
z
M 2034 4750 
Q 2819 4750 3233 4129 
Q 3647 3509 3647 2328 
Q 3647 1150 3233 529 
Q 2819 -91 2034 -91 
Q 1250 -91 836 529 
Q 422 1150 422 2328 
Q 422 3509 836 4129 
Q 1250 4750 2034 4750 
z
" transform="scale(0.015625)"/>
       </defs>
       <use xlink:href="#DejaVuSans-31"/>
       <use xlink:href="#DejaVuSans-39" transform="translate(63.623047 0)"/>
       <use xlink:href="#DejaVuSans-36" transform="translate(127.246094 0)"/>
       <use xlink:href="#DejaVuSans-30" transform="translate(190.869141 0)"/>
      </g>
     </g>
    </g>
    <g id="xtick_2">
     <g id="line2d_3">
      <path d="M 206.747415 318.04 
L 206.747415 25.44 
" clip-path="url(#p12d23fbfef)" style="fill: none; stroke: #b0b0b0; stroke-width: 0.8; stroke-linecap: square"/>
     </g>
     <g id="line2d_4">
      <g>
       <use xlink:href="#m32bfa6456a" x="206.747415" y="318.04" style="stroke: #000000; stroke-width: 0.8"/>
      </g>
     </g>
     <g id="text_2">
      <!-- 1970 -->
      <g transform="translate(194.022415 332.638438) scale(0.1 -0.1)">
       <defs>
        <path id="DejaVuSans-37" d="M 525 4666 
L 3525 4666 
L 3525 4397 
L 1831 0 
L 1172 0 
L 2766 4134 
L 525 4134 
L 525 4666 
z
" transform="scale(0.015625)"/>
       </defs>
       <use xlink:href="#DejaVuSans-31"/>
       <use xlink:href="#DejaVuSans-39" transform="translate(63.623047 0)"/>
       <use xlink:href="#DejaVuSans-37" transform="translate(127.246094 0)"/>
       <use xlink:href="#DejaVuSans-30" transform="translate(190.869141 0)"/>
      </g>
     </g>
    </g>
    <g id="xtick_3">
     <g id="line2d_5">
      <path d="M 324.173172 318.04 
L 324.173172 25.44 
" clip-path="url(#p12d23fbfef)" style="fill: none; stroke: #b0b0b0; stroke-width: 0.8; stroke-linecap: square"/>
     </g>
     <g id="line2d_6">
      <g>
       <use xlink:href="#m32bfa6456a" x="324.173172" y="318.04" style="stroke: #000000; stroke-width: 0.8"/>
      </g>
     </g>
     <g id="text_3">
      <!-- 1980 -->
      <g transform="translate(311.448172 332.638438) scale(0.1 -0.1)">
       <defs>
        <path id="DejaVuSans-38" d="M 2034 2216 
Q 1584 2216 1326 1975 
Q 1069 1734 1069 1313 
Q 1069 891 1326 650 
Q 1584 409 2034 409 
Q 2484 409 2743 651 
Q 3003 894 3003 1313 
Q 3003 1734 2745 1975 
Q 2488 2216 2034 2216 
z
M 1403 2484 
Q 997 2584 770 2862 
Q 544 3141 544 3541 
Q 544 4100 942 4425 
Q 1341 4750 2034 4750 
Q 2731 4750 3128 4425 
Q 3525 4100 3525 3541 
Q 3525 3141 3298 2862 
Q 3072 2584 2669 2484 
Q 3125 2378 3379 2068 
Q 3634 1759 3634 1313 
Q 3634 634 3220 271 
Q 2806 -91 2034 -91 
Q 1263 -91 848 271 
Q 434 634 434 1313 
Q 434 1759 690 2068 
Q 947 2378 1403 2484 
z
M 1172 3481 
Q 1172 3119 1398 2916 
Q 1625 2713 2034 2713 
Q 2441 2713 2670 2916 
Q 2900 3119 2900 3481 
Q 2900 3844 2670 4047 
Q 2441 4250 2034 4250 
Q 1625 4250 1398 4047 
Q 1172 3844 1172 3481 
z
" transform="scale(0.015625)"/>
       </defs>
       <use xlink:href="#DejaVuSans-31"/>
       <use xlink:href="#DejaVuSans-39" transform="translate(63.623047 0)"/>
       <use xlink:href="#DejaVuSans-38" transform="translate(127.246094 0)"/>
       <use xlink:href="#DejaVuSans-30" transform="translate(190.869141 0)"/>
      </g>
     </g>
    </g>
    <g id="xtick_4">
     <g id="line2d_7">
      <path d="M 441.631082 318.04 
L 441.631082 25.44 
" clip-path="url(#p12d23fbfef)" style="fill: none; stroke: #b0b0b0; stroke-width: 0.8; stroke-linecap: square"/>
     </g>
     <g id="line2d_8">
      <g>
       <use xlink:href="#m32bfa6456a" x="441.631082" y="318.04" style="stroke: #000000; stroke-width: 0.8"/>
      </g>
     </g>
     <g id="text_4">
      <!-- 1990 -->
      <g transform="translate(428.906082 332.638438) scale(0.1 -0.1)">
       <use xlink:href="#DejaVuSans-31"/>
       <use xlink:href="#DejaVuSans-39" transform="translate(63.623047 0)"/>
       <use xlink:href="#DejaVuSans-39" transform="translate(127.246094 0)"/>
       <use xlink:href="#DejaVuSans-30" transform="translate(190.869141 0)"/>
      </g>
     </g>
    </g>
    <g id="xtick_5">
     <g id="line2d_9">
      <path d="M 559.056839 318.04 
L 559.056839 25.44 
" clip-path="url(#p12d23fbfef)" style="fill: none; stroke: #b0b0b0; stroke-width: 0.8; stroke-linecap: square"/>
     </g>
     <g id="line2d_10">
      <g>
       <use xlink:href="#m32bfa6456a" x="559.056839" y="318.04" style="stroke: #000000; stroke-width: 0.8"/>
      </g>
     </g>
     <g id="text_5">
      <!-- 2000 -->
      <g transform="translate(546.331839 332.638438) scale(0.1 -0.1)">
       <defs>
        <path id="DejaVuSans-32" d="M 1228 531 
L 3431 531 
L 3431 0 
L 469 0 
L 469 531 
Q 828 903 1448 1529 
Q 2069 2156 2228 2338 
Q 2531 2678 2651 2914 
Q 2772 3150 2772 3378 
Q 2772 3750 2511 3984 
Q 2250 4219 1831 4219 
Q 1534 4219 1204 4116 
Q 875 4013 500 3803 
L 500 4441 
Q 881 4594 1212 4672 
Q 1544 4750 1819 4750 
Q 2544 4750 2975 4387 
Q 3406 4025 3406 3419 
Q 3406 3131 3298 2873 
Q 3191 2616 2906 2266 
Q 2828 2175 2409 1742 
Q 1991 1309 1228 531 
z
" transform="scale(0.015625)"/>
       </defs>
       <use xlink:href="#DejaVuSans-32"/>
       <use xlink:href="#DejaVuSans-30" transform="translate(63.623047 0)"/>
       <use xlink:href="#DejaVuSans-30" transform="translate(127.246094 0)"/>
       <use xlink:href="#DejaVuSans-30" transform="translate(190.869141 0)"/>
      </g>
     </g>
    </g>
    <g id="xtick_6">
     <g id="line2d_11">
      <path d="M 676.51475 318.04 
L 676.51475 25.44 
" clip-path="url(#p12d23fbfef)" style="fill: none; stroke: #b0b0b0; stroke-width: 0.8; stroke-linecap: square"/>
     </g>
     <g id="line2d_12">
      <g>
       <use xlink:href="#m32bfa6456a" x="676.51475" y="318.04" style="stroke: #000000; stroke-width: 0.8"/>
      </g>
     </g>
     <g id="text_6">
      <!-- 2010 -->
      <g transform="translate(663.78975 332.638438) scale(0.1 -0.1)">
       <use xlink:href="#DejaVuSans-32"/>
       <use xlink:href="#DejaVuSans-30" transform="translate(63.623047 0)"/>
       <use xlink:href="#DejaVuSans-31" transform="translate(127.246094 0)"/>
       <use xlink:href="#DejaVuSans-30" transform="translate(190.869141 0)"/>
      </g>
     </g>
    </g>
    <g id="xtick_7">
     <g id="line2d_13">
      <path d="M 793.940507 318.04 
L 793.940507 25.44 
" clip-path="url(#p12d23fbfef)" style="fill: none; stroke: #b0b0b0; stroke-width: 0.8; stroke-linecap: square"/>
     </g>
     <g id="line2d_14">
      <g>
       <use xlink:href="#m32bfa6456a" x="793.940507" y="318.04" style="stroke: #000000; stroke-width: 0.8"/>
      </g>
     </g>
     <g id="text_7">
      <!-- 2020 -->
      <g transform="translate(781.215507 332.638438) scale(0.1 -0.1)">
       <use xlink:href="#DejaVuSans-32"/>
       <use xlink:href="#DejaVuSans-30" transform="translate(63.623047 0)"/>
       <use xlink:href="#DejaVuSans-32" transform="translate(127.246094 0)"/>
       <use xlink:href="#DejaVuSans-30" transform="translate(190.869141 0)"/>
      </g>
     </g>
    </g>
    <g id="text_8">
     <!-- Date -->
     <g transform="translate(436.979219 346.316563) scale(0.1 -0.1)">
      <defs>
       <path id="DejaVuSans-44" d="M 1259 4147 
L 1259 519 
L 2022 519 
Q 2988 519 3436 956 
Q 3884 1394 3884 2338 
Q 3884 3275 3436 3711 
Q 2988 4147 2022 4147 
L 1259 4147 
z
M 628 4666 
L 1925 4666 
Q 3281 4666 3915 4102 
Q 4550 3538 4550 2338 
Q 4550 1131 3912 565 
Q 3275 0 1925 0 
L 628 0 
L 628 4666 
z
" transform="scale(0.015625)"/>
       <path id="DejaVuSans-61" d="M 2194 1759 
Q 1497 1759 1228 1600 
Q 959 1441 959 1056 
Q 959 750 1161 570 
Q 1363 391 1709 391 
Q 2188 391 2477 730 
Q 2766 1069 2766 1631 
L 2766 1759 
L 2194 1759 
z
M 3341 1997 
L 3341 0 
L 2766 0 
L 2766 531 
Q 2569 213 2275 61 
Q 1981 -91 1556 -91 
Q 1019 -91 701 211 
Q 384 513 384 1019 
Q 384 1609 779 1909 
Q 1175 2209 1959 2209 
L 2766 2209 
L 2766 2266 
Q 2766 2663 2505 2880 
Q 2244 3097 1772 3097 
Q 1472 3097 1187 3025 
Q 903 2953 641 2809 
L 641 3341 
Q 956 3463 1253 3523 
Q 1550 3584 1831 3584 
Q 2591 3584 2966 3190 
Q 3341 2797 3341 1997 
z
" transform="scale(0.015625)"/>
       <path id="DejaVuSans-74" d="M 1172 4494 
L 1172 3500 
L 2356 3500 
L 2356 3053 
L 1172 3053 
L 1172 1153 
Q 1172 725 1289 603 
Q 1406 481 1766 481 
L 2356 481 
L 2356 0 
L 1766 0 
Q 1100 0 847 248 
Q 594 497 594 1153 
L 594 3053 
L 172 3053 
L 172 3500 
L 594 3500 
L 594 4494 
L 1172 4494 
z
" transform="scale(0.015625)"/>
       <path id="DejaVuSans-65" d="M 3597 1894 
L 3597 1613 
L 953 1613 
Q 991 1019 1311 708 
Q 1631 397 2203 397 
Q 2534 397 2845 478 
Q 3156 559 3463 722 
L 3463 178 
Q 3153 47 2828 -22 
Q 2503 -91 2169 -91 
Q 1331 -91 842 396 
Q 353 884 353 1716 
Q 353 2575 817 3079 
Q 1281 3584 2069 3584 
Q 2775 3584 3186 3129 
Q 3597 2675 3597 1894 
z
M 3022 2063 
Q 3016 2534 2758 2815 
Q 2500 3097 2075 3097 
Q 1594 3097 1305 2825 
Q 1016 2553 972 2059 
L 3022 2063 
z
" transform="scale(0.015625)"/>
      </defs>
      <use xlink:href="#DejaVuSans-44"/>
      <use xlink:href="#DejaVuSans-61" transform="translate(77.001953 0)"/>
      <use xlink:href="#DejaVuSans-74" transform="translate(138.28125 0)"/>
      <use xlink:href="#DejaVuSans-65" transform="translate(177.490234 0)"/>
     </g>
    </g>
   </g>
   <g id="matplotlib.axis_2">
    <g id="ytick_1">
     <g id="line2d_15">
      <path d="M 44.66 299.778328 
L 853.2 299.778328 
" clip-path="url(#p12d23fbfef)" style="fill: none; stroke: #b0b0b0; stroke-width: 0.8; stroke-linecap: square"/>
     </g>
     <g id="line2d_16">
      <defs>
       <path id="m158d1bd8ec" d="M 0 0 
L -3.5 0 
" style="stroke: #000000; stroke-width: 0.8"/>
      </defs>
      <g>
       <use xlink:href="#m158d1bd8ec" x="44.66" y="299.778328" style="stroke: #000000; stroke-width: 0.8"/>
      </g>
     </g>
     <g id="text_9">
      <!-- 0 -->
      <g transform="translate(31.2975 303.577547) scale(0.1 -0.1)">
       <use xlink:href="#DejaVuSans-30"/>
      </g>
     </g>
    </g>
    <g id="ytick_2">
     <g id="line2d_17">
      <path d="M 44.66 253.080836 
L 853.2 253.080836 
" clip-path="url(#p12d23fbfef)" style="fill: none; stroke: #b0b0b0; stroke-width: 0.8; stroke-linecap: square"/>
     </g>
     <g id="line2d_18">
      <g>
       <use xlink:href="#m158d1bd8ec" x="44.66" y="253.080836" style="stroke: #000000; stroke-width: 0.8"/>
      </g>
     </g>
     <g id="text_10">
      <!-- 10 -->
      <g transform="translate(24.935 256.880055) scale(0.1 -0.1)">
       <use xlink:href="#DejaVuSans-31"/>
       <use xlink:href="#DejaVuSans-30" transform="translate(63.623047 0)"/>
      </g>
     </g>
    </g>
    <g id="ytick_3">
     <g id="line2d_19">
      <path d="M 44.66 206.383344 
L 853.2 206.383344 
" clip-path="url(#p12d23fbfef)" style="fill: none; stroke: #b0b0b0; stroke-width: 0.8; stroke-linecap: square"/>
     </g>
     <g id="line2d_20">
      <g>
       <use xlink:href="#m158d1bd8ec" x="44.66" y="206.383344" style="stroke: #000000; stroke-width: 0.8"/>
      </g>
     </g>
     <g id="text_11">
      <!-- 20 -->
      <g transform="translate(24.935 210.182562) scale(0.1 -0.1)">
       <use xlink:href="#DejaVuSans-32"/>
       <use xlink:href="#DejaVuSans-30" transform="translate(63.623047 0)"/>
      </g>
     </g>
    </g>
    <g id="ytick_4">
     <g id="line2d_21">
      <path d="M 44.66 159.685851 
L 853.2 159.685851 
" clip-path="url(#p12d23fbfef)" style="fill: none; stroke: #b0b0b0; stroke-width: 0.8; stroke-linecap: square"/>
     </g>
     <g id="line2d_22">
      <g>
       <use xlink:href="#m158d1bd8ec" x="44.66" y="159.685851" style="stroke: #000000; stroke-width: 0.8"/>
      </g>
     </g>
     <g id="text_12">
      <!-- 30 -->
      <g transform="translate(24.935 163.48507) scale(0.1 -0.1)">
       <defs>
        <path id="DejaVuSans-33" d="M 2597 2516 
Q 3050 2419 3304 2112 
Q 3559 1806 3559 1356 
Q 3559 666 3084 287 
Q 2609 -91 1734 -91 
Q 1441 -91 1130 -33 
Q 819 25 488 141 
L 488 750 
Q 750 597 1062 519 
Q 1375 441 1716 441 
Q 2309 441 2620 675 
Q 2931 909 2931 1356 
Q 2931 1769 2642 2001 
Q 2353 2234 1838 2234 
L 1294 2234 
L 1294 2753 
L 1863 2753 
Q 2328 2753 2575 2939 
Q 2822 3125 2822 3475 
Q 2822 3834 2567 4026 
Q 2313 4219 1838 4219 
Q 1578 4219 1281 4162 
Q 984 4106 628 3988 
L 628 4550 
Q 988 4650 1302 4700 
Q 1616 4750 1894 4750 
Q 2613 4750 3031 4423 
Q 3450 4097 3450 3541 
Q 3450 3153 3228 2886 
Q 3006 2619 2597 2516 
z
" transform="scale(0.015625)"/>
       </defs>
       <use xlink:href="#DejaVuSans-33"/>
       <use xlink:href="#DejaVuSans-30" transform="translate(63.623047 0)"/>
      </g>
     </g>
    </g>
    <g id="ytick_5">
     <g id="line2d_23">
      <path d="M 44.66 112.988359 
L 853.2 112.988359 
" clip-path="url(#p12d23fbfef)" style="fill: none; stroke: #b0b0b0; stroke-width: 0.8; stroke-linecap: square"/>
     </g>
     <g id="line2d_24">
      <g>
       <use xlink:href="#m158d1bd8ec" x="44.66" y="112.988359" style="stroke: #000000; stroke-width: 0.8"/>
      </g>
     </g>
     <g id="text_13">
      <!-- 40 -->
      <g transform="translate(24.935 116.787578) scale(0.1 -0.1)">
       <defs>
        <path id="DejaVuSans-34" d="M 2419 4116 
L 825 1625 
L 2419 1625 
L 2419 4116 
z
M 2253 4666 
L 3047 4666 
L 3047 1625 
L 3713 1625 
L 3713 1100 
L 3047 1100 
L 3047 0 
L 2419 0 
L 2419 1100 
L 313 1100 
L 313 1709 
L 2253 4666 
z
" transform="scale(0.015625)"/>
       </defs>
       <use xlink:href="#DejaVuSans-34"/>
       <use xlink:href="#DejaVuSans-30" transform="translate(63.623047 0)"/>
      </g>
     </g>
    </g>
    <g id="ytick_6">
     <g id="line2d_25">
      <path d="M 44.66 66.290867 
L 853.2 66.290867 
" clip-path="url(#p12d23fbfef)" style="fill: none; stroke: #b0b0b0; stroke-width: 0.8; stroke-linecap: square"/>
     </g>
     <g id="line2d_26">
      <g>
       <use xlink:href="#m158d1bd8ec" x="44.66" y="66.290867" style="stroke: #000000; stroke-width: 0.8"/>
      </g>
     </g>
     <g id="text_14">
      <!-- 50 -->
      <g transform="translate(24.935 70.090086) scale(0.1 -0.1)">
       <defs>
        <path id="DejaVuSans-35" d="M 691 4666 
L 3169 4666 
L 3169 4134 
L 1269 4134 
L 1269 2991 
Q 1406 3038 1543 3061 
Q 1681 3084 1819 3084 
Q 2600 3084 3056 2656 
Q 3513 2228 3513 1497 
Q 3513 744 3044 326 
Q 2575 -91 1722 -91 
Q 1428 -91 1123 -41 
Q 819 9 494 109 
L 494 744 
Q 775 591 1075 516 
Q 1375 441 1709 441 
Q 2250 441 2565 725 
Q 2881 1009 2881 1497 
Q 2881 1984 2565 2268 
Q 2250 2553 1709 2553 
Q 1456 2553 1204 2497 
Q 953 2441 691 2322 
L 691 4666 
z
" transform="scale(0.015625)"/>
       </defs>
       <use xlink:href="#DejaVuSans-35"/>
       <use xlink:href="#DejaVuSans-30" transform="translate(63.623047 0)"/>
      </g>
     </g>
    </g>
    <g id="text_15">
     <!-- Residual / ppm -->
     <g transform="translate(18.855313 208.936875) rotate(-90) scale(0.1 -0.1)">
      <defs>
       <path id="DejaVuSans-52" d="M 2841 2188 
Q 3044 2119 3236 1894 
Q 3428 1669 3622 1275 
L 4263 0 
L 3584 0 
L 2988 1197 
Q 2756 1666 2539 1819 
Q 2322 1972 1947 1972 
L 1259 1972 
L 1259 0 
L 628 0 
L 628 4666 
L 2053 4666 
Q 2853 4666 3247 4331 
Q 3641 3997 3641 3322 
Q 3641 2881 3436 2590 
Q 3231 2300 2841 2188 
z
M 1259 4147 
L 1259 2491 
L 2053 2491 
Q 2509 2491 2742 2702 
Q 2975 2913 2975 3322 
Q 2975 3731 2742 3939 
Q 2509 4147 2053 4147 
L 1259 4147 
z
" transform="scale(0.015625)"/>
       <path id="DejaVuSans-73" d="M 2834 3397 
L 2834 2853 
Q 2591 2978 2328 3040 
Q 2066 3103 1784 3103 
Q 1356 3103 1142 2972 
Q 928 2841 928 2578 
Q 928 2378 1081 2264 
Q 1234 2150 1697 2047 
L 1894 2003 
Q 2506 1872 2764 1633 
Q 3022 1394 3022 966 
Q 3022 478 2636 193 
Q 2250 -91 1575 -91 
Q 1294 -91 989 -36 
Q 684 19 347 128 
L 347 722 
Q 666 556 975 473 
Q 1284 391 1588 391 
Q 1994 391 2212 530 
Q 2431 669 2431 922 
Q 2431 1156 2273 1281 
Q 2116 1406 1581 1522 
L 1381 1569 
Q 847 1681 609 1914 
Q 372 2147 372 2553 
Q 372 3047 722 3315 
Q 1072 3584 1716 3584 
Q 2034 3584 2315 3537 
Q 2597 3491 2834 3397 
z
" transform="scale(0.015625)"/>
       <path id="DejaVuSans-69" d="M 603 3500 
L 1178 3500 
L 1178 0 
L 603 0 
L 603 3500 
z
M 603 4863 
L 1178 4863 
L 1178 4134 
L 603 4134 
L 603 4863 
z
" transform="scale(0.015625)"/>
       <path id="DejaVuSans-64" d="M 2906 2969 
L 2906 4863 
L 3481 4863 
L 3481 0 
L 2906 0 
L 2906 525 
Q 2725 213 2448 61 
Q 2172 -91 1784 -91 
Q 1150 -91 751 415 
Q 353 922 353 1747 
Q 353 2572 751 3078 
Q 1150 3584 1784 3584 
Q 2172 3584 2448 3432 
Q 2725 3281 2906 2969 
z
M 947 1747 
Q 947 1113 1208 752 
Q 1469 391 1925 391 
Q 2381 391 2643 752 
Q 2906 1113 2906 1747 
Q 2906 2381 2643 2742 
Q 2381 3103 1925 3103 
Q 1469 3103 1208 2742 
Q 947 2381 947 1747 
z
" transform="scale(0.015625)"/>
       <path id="DejaVuSans-75" d="M 544 1381 
L 544 3500 
L 1119 3500 
L 1119 1403 
Q 1119 906 1312 657 
Q 1506 409 1894 409 
Q 2359 409 2629 706 
Q 2900 1003 2900 1516 
L 2900 3500 
L 3475 3500 
L 3475 0 
L 2900 0 
L 2900 538 
Q 2691 219 2414 64 
Q 2138 -91 1772 -91 
Q 1169 -91 856 284 
Q 544 659 544 1381 
z
M 1991 3584 
L 1991 3584 
z
" transform="scale(0.015625)"/>
       <path id="DejaVuSans-6c" d="M 603 4863 
L 1178 4863 
L 1178 0 
L 603 0 
L 603 4863 
z
" transform="scale(0.015625)"/>
       <path id="DejaVuSans-20" transform="scale(0.015625)"/>
       <path id="DejaVuSans-2f" d="M 1625 4666 
L 2156 4666 
L 531 -594 
L 0 -594 
L 1625 4666 
z
" transform="scale(0.015625)"/>
       <path id="DejaVuSans-70" d="M 1159 525 
L 1159 -1331 
L 581 -1331 
L 581 3500 
L 1159 3500 
L 1159 2969 
Q 1341 3281 1617 3432 
Q 1894 3584 2278 3584 
Q 2916 3584 3314 3078 
Q 3713 2572 3713 1747 
Q 3713 922 3314 415 
Q 2916 -91 2278 -91 
Q 1894 -91 1617 61 
Q 1341 213 1159 525 
z
M 3116 1747 
Q 3116 2381 2855 2742 
Q 2594 3103 2138 3103 
Q 1681 3103 1420 2742 
Q 1159 2381 1159 1747 
Q 1159 1113 1420 752 
Q 1681 391 2138 391 
Q 2594 391 2855 752 
Q 3116 1113 3116 1747 
z
" transform="scale(0.015625)"/>
       <path id="DejaVuSans-6d" d="M 3328 2828 
Q 3544 3216 3844 3400 
Q 4144 3584 4550 3584 
Q 5097 3584 5394 3201 
Q 5691 2819 5691 2113 
L 5691 0 
L 5113 0 
L 5113 2094 
Q 5113 2597 4934 2840 
Q 4756 3084 4391 3084 
Q 3944 3084 3684 2787 
Q 3425 2491 3425 1978 
L 3425 0 
L 2847 0 
L 2847 2094 
Q 2847 2600 2669 2842 
Q 2491 3084 2119 3084 
Q 1678 3084 1418 2786 
Q 1159 2488 1159 1978 
L 1159 0 
L 581 0 
L 581 3500 
L 1159 3500 
L 1159 2956 
Q 1356 3278 1631 3431 
Q 1906 3584 2284 3584 
Q 2666 3584 2933 3390 
Q 3200 3197 3328 2828 
z
" transform="scale(0.015625)"/>
      </defs>
      <use xlink:href="#DejaVuSans-52"/>
      <use xlink:href="#DejaVuSans-65" transform="translate(64.982422 0)"/>
      <use xlink:href="#DejaVuSans-73" transform="translate(126.505859 0)"/>
      <use xlink:href="#DejaVuSans-69" transform="translate(178.605469 0)"/>
      <use xlink:href="#DejaVuSans-64" transform="translate(206.388672 0)"/>
      <use xlink:href="#DejaVuSans-75" transform="translate(269.865234 0)"/>
      <use xlink:href="#DejaVuSans-61" transform="translate(333.244141 0)"/>
      <use xlink:href="#DejaVuSans-6c" transform="translate(394.523438 0)"/>
      <use xlink:href="#DejaVuSans-20" transform="translate(422.306641 0)"/>
      <use xlink:href="#DejaVuSans-2f" transform="translate(454.09375 0)"/>
      <use xlink:href="#DejaVuSans-20" transform="translate(487.785156 0)"/>
      <use xlink:href="#DejaVuSans-70" transform="translate(519.572266 0)"/>
      <use xlink:href="#DejaVuSans-70" transform="translate(583.048828 0)"/>
      <use xlink:href="#DejaVuSans-6d" transform="translate(646.525391 0)"/>
     </g>
    </g>
   </g>
   <g id="line2d_27">
    <path d="M 44.66 299.778328 
L 853.2 299.778328 
" clip-path="url(#p12d23fbfef)" style="fill: none; stroke-dasharray: 5.55,2.4; stroke-dashoffset: 0; stroke: #808080; stroke-width: 1.5"/>
   </g>
   <g id="line2d_28">
    <path d="M 81.411818 38.74 
L 82.408587 300.554842 
L 83.373201 301.810559 
L 84.36997 302.763393 
L 85.366738 293.201226 
L 86.331353 300.385859 
L 87.328121 298.691648 
L 88.292736 304.74 
L 89.289504 298.60355 
L 90.286273 300.609995 
L 91.218734 296.610738 
L 92.215502 299.937208 
L 93.180117 299.215345 
L 94.176885 302.93939 
L 95.1415 300.875833 
L 96.138269 303.168992 
L 97.135037 304.67948 
L 98.099652 299.793076 
L 99.09642 300.061179 
L 100.061035 297.857957 
L 101.057803 299.320504 
L 102.054572 298.454893 
L 102.954879 298.11432 
L 103.951647 300.803411 
L 104.916262 298.43834 
L 105.91303 301.396541 
L 106.877645 299.123115 
L 107.874413 298.003036 
L 108.871182 301.538838 
L 109.835797 296.960386 
L 110.832565 300.700124 
L 111.79718 301.133571 
L 112.793948 299.078296 
L 113.790717 299.641048 
L 114.691024 297.829664 
L 115.687792 300.331636 
L 116.652407 302.269141 
L 117.649175 300.144157 
L 118.61379 297.448544 
L 119.610558 300.128849 
L 120.607327 298.69738 
L 121.571941 301.820415 
L 122.56871 300.314897 
L 123.533325 299.101991 
L 124.530093 298.454713 
L 125.526862 300.743173 
L 126.427169 300.460021 
L 127.423937 297.654719 
L 128.388552 298.447371 
L 129.38532 300.968351 
L 130.349935 302.283127 
L 131.346703 300.384338 
L 132.343472 300.034875 
L 133.308086 299.2792 
L 134.304855 299.672399 
L 135.269469 298.222425 
L 136.266238 297.304689 
L 137.263006 299.499555 
L 138.195467 300.563051 
L 139.192236 300.242727 
L 140.15685 301.48478 
L 141.153619 299.629038 
L 142.118234 299.581352 
L 143.115002 298.579674 
L 144.11177 301.60574 
L 145.076385 298.355645 
L 146.073154 300.154571 
L 147.037768 300.252703 
L 148.034537 300.510711 
L 149.031305 297.855873 
L 149.931612 300.366663 
L 150.928381 299.929939 
L 151.892995 302.638714 
L 152.889764 299.946066 
L 153.854378 295.482874 
L 154.851147 299.793241 
L 155.847915 298.155643 
L 156.81253 299.866764 
L 157.809298 297.98744 
L 158.773913 300.98882 
L 159.770682 299.397387 
L 160.76745 297.347634 
L 161.667757 298.81372 
L 162.664526 299.064123 
L 163.62914 300.655351 
L 164.625909 299.633141 
L 166.587292 299.975385 
L 167.58406 300.844998 
L 168.548675 301.483808 
L 169.545443 297.725113 
L 170.510058 297.37746 
L 171.506827 297.559731 
L 172.503595 301.464635 
L 173.403902 301.872271 
L 174.40067 299.331003 
L 175.365285 299.255034 
L 176.362054 301.914159 
L 177.326668 301.925847 
L 178.323437 298.368917 
L 179.320205 299.698219 
L 180.28482 297.973027 
L 181.281588 298.266981 
L 182.246203 298.384315 
L 183.242971 301.133932 
L 184.23974 300.884026 
L 185.172201 299.81026 
L 186.168969 300.142189 
L 187.133584 299.959705 
L 188.130352 298.480353 
L 189.094967 298.737587 
L 191.088504 301.109303 
L 192.053119 299.379606 
L 193.049887 300.266249 
L 194.014502 297.613164 
L 195.01127 298.064347 
L 196.008039 300.489537 
L 196.908346 297.877822 
L 197.905114 299.708985 
L 198.869729 299.518402 
L 199.866497 300.420547 
L 200.831112 297.957245 
L 201.82788 300.099529 
L 202.824649 299.157031 
L 203.789264 301.045726 
L 204.786032 301.498242 
L 205.750647 299.424946 
L 206.747415 299.599214 
L 207.744184 298.299135 
L 208.644491 298.344274 
L 209.641259 299.544731 
L 210.605874 302.830061 
L 211.602642 300.832528 
L 212.567257 299.963449 
L 213.564025 298.443436 
L 214.560794 299.348087 
L 215.525408 298.934501 
L 216.522177 300.71161 
L 217.486792 300.504409 
L 218.48356 299.598324 
L 219.480328 300.137839 
L 221.377404 303.241569 
L 222.342019 298.089849 
L 223.338787 297.897373 
L 224.303402 299.375172 
L 225.30017 299.562859 
L 226.296939 302.268278 
L 227.261553 298.786471 
L 228.258322 298.622505 
L 229.222936 299.399734 
L 230.219705 300.729197 
L 231.216473 299.164149 
L 232.148934 302.443882 
L 233.145703 297.310381 
L 234.110317 299.004946 
L 235.107086 302.631102 
L 236.0717 299.925393 
L 237.068469 298.309637 
L 238.065237 298.871719 
L 239.029852 296.981105 
L 240.026621 298.13117 
L 240.991235 300.089857 
L 241.988004 299.938638 
L 242.984772 298.018847 
L 243.885079 299.026902 
L 244.881848 299.786484 
L 245.846462 297.949136 
L 246.843231 298.637029 
L 247.807845 299.622761 
L 248.804614 298.193342 
L 249.801382 300.109129 
L 250.765997 301.307313 
L 251.762765 301.386056 
L 252.72738 303.486465 
L 253.724149 302.44379 
L 254.720917 297.257812 
L 255.621224 298.023823 
L 256.617993 300.024844 
L 257.582607 300.284165 
L 258.579376 302.176867 
L 259.54399 300.444249 
L 260.540759 299.857952 
L 261.537527 300.933117 
L 262.502142 299.97598 
L 263.49891 300.427079 
L 264.463525 299.287673 
L 265.460293 298.478258 
L 266.457062 299.553162 
L 267.357369 300.912253 
L 268.354137 300.536332 
L 269.318752 298.871626 
L 270.315521 299.246711 
L 271.280135 300.935557 
L 272.276904 301.072747 
L 273.273672 299.333287 
L 274.238287 299.491518 
L 275.235055 300.50479 
L 276.19967 298.640052 
L 277.196438 299.85474 
L 278.193207 298.332878 
L 279.125668 299.326864 
L 280.122436 299.216431 
L 281.087051 302.530905 
L 282.083819 301.985976 
L 283.048434 298.621365 
L 284.045202 301.554418 
L 285.041971 301.308047 
L 286.006586 300.536914 
L 287.003354 298.642577 
L 287.967969 297.494542 
L 288.964737 298.536183 
L 289.961506 301.135069 
L 290.861813 295.253382 
L 291.858581 297.717685 
L 293.819964 300.259377 
L 294.784579 300.578564 
L 295.781347 301.893548 
L 296.778116 299.023413 
L 297.74273 298.555799 
L 298.739499 299.528694 
L 299.704114 299.870784 
L 300.700882 298.060753 
L 301.697651 301.386547 
L 302.597958 297.898346 
L 303.594726 299.485104 
L 304.559341 301.428135 
L 305.556109 297.567957 
L 306.520724 300.116993 
L 307.517492 300.982253 
L 308.514261 302.208345 
L 309.478875 299.815984 
L 310.475644 298.801249 
L 311.440258 299.677943 
L 312.437027 298.775036 
L 313.433795 300.342678 
L 314.334102 296.992119 
L 315.330871 301.512258 
L 316.295486 301.943392 
L 317.292254 297.404221 
L 318.256869 300.967457 
L 319.253637 300.000831 
L 320.250406 300.075214 
L 321.21502 298.418444 
L 322.211789 299.624223 
L 323.176403 298.599289 
L 324.173172 298.927423 
L 325.16994 301.060328 
L 326.102401 296.867648 
L 327.09917 299.656418 
L 328.063784 300.609425 
L 329.060553 298.081741 
L 330.025167 302.030287 
L 332.018704 298.334689 
L 332.983319 299.661409 
L 333.980087 300.161005 
L 334.944702 300.911573 
L 335.941471 300.54079 
L 336.938239 297.306258 
L 337.838546 298.60891 
L 338.835315 300.450322 
L 339.799929 300.597004 
L 340.796698 300.447538 
L 341.761312 301.76533 
L 342.758081 302.366533 
L 343.754849 300.121915 
L 345.716232 297.952962 
L 346.680847 298.52371 
L 347.677616 299.736465 
L 348.674384 299.425088 
L 349.574691 300.045258 
L 350.571459 299.554884 
L 351.536074 298.331364 
L 352.532843 301.548535 
L 353.497457 301.104708 
L 354.494226 300.864706 
L 355.490994 301.455693 
L 356.455609 300.05461 
L 357.452377 300.550455 
L 358.416992 299.553771 
L 359.41376 300.735989 
L 360.410529 298.282655 
L 361.310836 301.28066 
L 362.307604 296.448416 
L 363.272219 296.950806 
L 364.268988 299.141227 
L 365.233602 299.760017 
L 366.230371 298.900469 
L 367.227139 301.408664 
L 368.191754 300.359495 
L 369.188522 299.49801 
L 370.153137 298.887165 
L 371.149905 299.546443 
L 372.146674 300.349893 
L 373.079135 301.447599 
L 374.075903 298.009001 
L 375.040518 299.599301 
L 376.037286 300.908007 
L 377.001901 299.862689 
L 377.998669 299.904931 
L 378.995438 302.163207 
L 379.960052 299.571201 
L 380.956821 298.169829 
L 381.921436 297.272879 
L 382.918204 301.42202 
L 383.914973 300.480911 
L 384.81528 297.326453 
L 385.812048 301.205673 
L 386.776663 300.724685 
L 387.773431 300.502359 
L 388.738046 301.690976 
L 389.734814 298.831381 
L 390.731583 299.357546 
L 391.696197 300.647855 
L 392.692966 299.479022 
L 393.657581 299.080068 
L 394.654349 301.097205 
L 395.651117 301.088557 
L 396.551424 301.324886 
L 397.548193 298.670309 
L 398.512808 298.65224 
L 399.509576 299.878527 
L 400.474191 301.257568 
L 401.470959 300.917266 
L 402.467728 295.046273 
L 403.432342 300.827199 
L 404.429111 300.647502 
L 405.393725 299.849019 
L 406.390494 298.427013 
L 407.387262 302.11526 
L 408.287569 301.86834 
L 409.284338 298.530753 
L 410.248953 298.326101 
L 411.245721 299.802461 
L 412.210336 299.43291 
L 413.207104 299.823638 
L 414.203873 299.307453 
L 415.168487 299.124499 
L 416.165256 299.28569 
L 417.12987 300.263257 
L 419.123407 297.253018 
L 420.055868 299.977678 
L 421.052637 300.900508 
L 422.017251 299.757274 
L 423.01402 299.5133 
L 423.978634 297.858818 
L 424.975403 300.592088 
L 425.972171 300.181417 
L 426.936786 297.530017 
L 427.933554 300.056875 
L 428.898169 300.910645 
L 429.894938 297.884771 
L 430.891706 300.786748 
L 431.792013 302.318061 
L 432.788782 299.010177 
L 433.753396 300.974996 
L 434.750165 300.6813 
L 435.714779 299.579101 
L 436.711548 300.716494 
L 437.708316 301.028334 
L 438.672931 298.977717 
L 439.669699 299.600404 
L 440.634314 299.686788 
L 441.631082 300.090765 
L 442.627851 297.78445 
L 443.528158 300.273363 
L 444.524926 303.736804 
L 445.489541 299.391175 
L 446.48631 301.252064 
L 447.450924 301.21727 
L 448.447693 299.043729 
L 449.444461 299.780602 
L 450.409076 298.693072 
L 451.405844 298.381787 
L 452.370459 299.581731 
L 453.367227 302.374829 
L 454.363996 300.415237 
L 455.264303 296.801051 
L 456.261071 297.887388 
L 457.225686 300.208742 
L 458.222454 302.287832 
L 459.187069 303.156788 
L 460.183838 302.300833 
L 461.180606 300.524831 
L 463.141989 298.908219 
L 464.106604 299.339756 
L 465.103372 299.180836 
L 466.100141 299.295658 
L 467.032602 300.570214 
L 468.02937 300.267041 
L 468.993985 300.439293 
L 469.990753 298.518308 
L 470.955368 302.954326 
L 471.952136 302.09969 
L 472.948905 301.743165 
L 473.913519 299.117746 
L 474.910288 300.473226 
L 475.874903 300.574929 
L 476.871671 297.840188 
L 477.86844 301.239854 
L 478.768747 299.891001 
L 479.765515 301.570981 
L 480.73013 299.321392 
L 481.726898 299.407407 
L 482.691513 302.848535 
L 483.688281 299.346008 
L 484.68505 298.866455 
L 485.649664 299.813723 
L 486.646433 299.778323 
L 488.607816 297.958105 
L 489.604584 299.665482 
L 491.50166 299.514587 
L 492.466275 300.687062 
L 493.463043 301.396533 
L 494.427658 299.274936 
L 495.424426 298.760826 
L 496.421195 299.849647 
L 497.385809 298.881133 
L 498.382578 298.559298 
L 499.347192 298.821288 
L 500.343961 300.158745 
L 501.340729 299.119474 
L 502.241036 299.419384 
L 503.237805 298.666323 
L 504.202419 300.364831 
L 505.199188 299.782765 
L 506.163803 299.032195 
L 507.160571 301.629237 
L 508.15734 297.669298 
L 509.121954 299.941904 
L 510.118723 299.653664 
L 511.083337 300.031072 
L 513.076874 297.348802 
L 514.009335 299.350036 
L 515.006104 303.832951 
L 515.970718 301.684067 
L 516.967487 297.893711 
L 517.932101 297.650714 
L 518.92887 299.728808 
L 519.925638 301.17283 
L 520.890253 300.791683 
L 521.887021 300.000193 
L 522.851636 299.729356 
L 523.848405 300.93849 
L 524.845173 299.577499 
L 525.74548 302.03736 
L 526.742248 297.884702 
L 527.706863 299.818583 
L 528.703632 302.616136 
L 529.668246 299.169081 
L 530.665015 299.03464 
L 531.661783 301.471188 
L 532.626398 298.565774 
L 533.623166 297.255466 
L 534.587781 296.588487 
L 535.584549 299.717925 
L 536.581318 300.899929 
L 537.481625 298.615156 
L 538.478393 298.033053 
L 540.439777 298.652549 
L 541.404391 297.540495 
L 542.40116 298.063173 
L 543.397928 300.837427 
L 544.362543 299.322568 
L 545.359311 300.381099 
L 546.323926 299.117679 
L 547.320694 299.380375 
L 548.317463 299.468437 
L 549.21777 301.431523 
L 550.214538 300.351307 
L 551.179153 302.446512 
L 552.175921 301.343379 
L 553.140536 296.831125 
L 554.137305 300.747471 
L 555.134073 302.862247 
L 556.098688 298.890861 
L 557.095456 298.995451 
L 558.060071 300.030745 
L 559.056839 299.286445 
L 560.053608 302.263198 
L 560.986069 300.523289 
L 561.982837 299.753735 
L 562.947452 303.410081 
L 563.94422 298.057918 
L 564.908835 300.222504 
L 565.905603 299.113778 
L 566.902372 296.25956 
L 567.866986 299.444064 
L 568.863755 300.208165 
L 570.825138 300.737728 
L 571.821906 299.507376 
L 572.722213 299.443348 
L 573.718982 301.391173 
L 574.683597 300.31346 
L 575.680365 300.136317 
L 576.64498 301.320286 
L 577.641748 299.544841 
L 578.638517 298.188628 
L 579.603131 299.0709 
L 580.5999 299.813853 
L 581.564514 299.579238 
L 582.561283 298.682977 
L 583.558051 299.883868 
L 584.458358 300.037943 
L 585.455127 301.437568 
L 586.419742 298.937434 
L 587.41651 297.855249 
L 588.381125 299.478772 
L 589.377893 300.304228 
L 590.374662 297.483575 
L 591.339276 300.624679 
L 592.336045 299.042155 
L 593.300659 298.480241 
L 594.297428 299.482332 
L 596.194503 300.407973 
L 597.191272 299.648562 
L 598.155886 297.635856 
L 599.152655 298.135538 
L 600.11727 299.851124 
L 601.114038 301.247694 
L 602.110806 298.706045 
L 603.075421 300.123866 
L 604.07219 299.584032 
L 606.033573 300.471053 
L 607.030341 299.525885 
L 607.962802 299.201036 
L 608.959571 298.26186 
L 611.885568 304.141318 
L 612.882337 298.562281 
L 613.879105 299.558007 
L 614.84372 300.042919 
L 615.840488 298.364978 
L 616.805103 299.611622 
L 617.801871 300.625443 
L 618.79864 297.778789 
L 619.698947 298.244025 
L 620.695715 298.110499 
L 621.66033 300.713821 
L 622.657099 299.366256 
L 623.621713 298.860496 
L 624.618482 299.468874 
L 625.61525 302.149246 
L 626.579865 300.191758 
L 627.576633 299.934126 
L 628.541248 298.400256 
L 629.538016 298.167273 
L 630.534785 299.458701 
L 631.435092 302.097721 
L 632.43186 297.642772 
L 633.396475 298.549253 
L 634.393243 302.176414 
L 635.357858 300.818591 
L 636.354627 300.05978 
L 637.351395 299.841099 
L 638.31601 299.199314 
L 639.312778 301.577415 
L 640.277393 299.690682 
L 642.27093 299.064168 
L 643.171237 300.510256 
L 644.168005 297.522322 
L 645.13262 300.378973 
L 646.129388 300.326013 
L 647.094003 299.748817 
L 648.090771 302.14043 
L 649.08754 298.207722 
L 650.052155 298.706746 
L 651.048923 300.239354 
L 652.013538 299.981431 
L 653.010306 297.494499 
L 654.007075 301.54039 
L 654.939536 304.080403 
L 655.936304 302.86893 
L 656.900919 295.682108 
L 657.897687 298.806528 
L 658.862302 299.337164 
L 659.85907 300.576677 
L 660.855839 297.34485 
L 661.820453 300.249408 
L 662.817222 301.524275 
L 663.781836 300.78124 
L 664.778605 298.911626 
L 665.775373 300.715403 
L 666.67568 297.957117 
L 667.672449 301.954109 
L 668.637064 300.652694 
L 671.595215 298.944416 
L 672.591984 298.909455 
L 673.556598 301.737943 
L 674.553367 299.753062 
L 675.517981 299.765847 
L 676.51475 299.540563 
L 677.511518 296.22962 
L 678.411825 297.62583 
L 679.408594 299.710349 
L 680.373208 299.900386 
L 681.369977 301.025658 
L 682.334592 302.337808 
L 683.33136 299.687094 
L 684.328129 299.749775 
L 685.292743 298.607569 
L 686.289512 298.892869 
L 687.254126 301.356755 
L 688.250895 299.131739 
L 689.247663 300.440042 
L 690.14797 300.894566 
L 691.144739 303.131983 
L 692.109353 299.199559 
L 693.106122 298.276256 
L 694.070736 297.918451 
L 695.067505 300.63273 
L 696.064273 298.745113 
L 697.028888 299.931169 
L 698.025657 300.708091 
L 698.990271 299.407759 
L 699.98704 299.454145 
L 700.983808 300.300776 
L 701.916269 301.485134 
L 702.913037 297.933991 
L 703.877652 298.813791 
L 704.874421 301.844562 
L 705.839035 299.671557 
L 706.835804 298.866636 
L 707.832572 298.986646 
L 708.797187 300.277448 
L 709.793955 297.622512 
L 710.75857 299.007829 
L 711.755338 300.161837 
L 712.752107 297.884588 
L 713.652414 299.840895 
L 714.649182 301.535934 
L 715.613797 296.763271 
L 716.610565 300.938349 
L 717.57518 299.981568 
L 718.571949 299.512187 
L 719.568717 301.312561 
L 720.533332 300.008024 
L 721.5301 299.471245 
L 722.494715 298.694305 
L 723.491483 300.468335 
L 724.488252 303.20685 
L 725.388559 297.17119 
L 726.385327 296.506739 
L 727.349942 300.118098 
L 728.34671 299.51423 
L 729.311325 302.571604 
L 730.308094 301.259988 
L 731.304862 301.035175 
L 732.269477 297.852987 
L 733.266245 299.735449 
L 734.23086 299.24792 
L 735.227628 299.961028 
L 736.224397 302.210169 
L 737.124704 299.202121 
L 738.121472 297.569093 
L 739.086087 298.607256 
L 740.082855 301.79118 
L 741.04747 300.671888 
L 742.044238 301.015382 
L 743.041007 299.768844 
L 744.005622 297.040435 
L 745.00239 297.136566 
L 745.967005 297.72204 
L 746.963773 301.710458 
L 747.960542 297.371477 
L 748.893002 298.785026 
L 749.889771 294.415894 
L 750.854386 299.094616 
L 751.851154 301.472968 
L 752.815769 304.074019 
L 753.812537 301.748733 
L 754.809306 298.965848 
L 755.77392 297.761369 
L 756.770689 296.906689 
L 757.735303 301.688685 
L 758.732072 298.490587 
L 759.72884 300.963707 
L 760.629147 301.13783 
L 761.625916 298.838019 
L 762.590531 299.297869 
L 763.587299 299.990566 
L 764.551914 300.457295 
L 765.548682 299.575655 
L 766.545451 301.257888 
L 768.506834 299.996346 
L 769.471448 298.980916 
L 770.468217 299.544923 
L 771.464985 301.886481 
L 772.365292 300.056156 
L 773.362061 302.642695 
L 774.326675 299.596402 
L 775.323444 297.536338 
L 776.288059 301.007331 
L 777.284827 298.942928 
L 778.281595 299.223715 
L 779.24621 298.98238 
L 780.242979 297.185023 
L 781.207593 300.781602 
L 782.204362 298.128237 
L 783.20113 297.769223 
L 784.101437 302.776828 
L 785.098206 301.916645 
L 786.06282 297.067686 
L 787.059589 298.256823 
L 788.024203 301.923399 
L 789.020972 299.493203 
L 790.01774 299.123531 
L 790.982355 301.265101 
L 791.979124 299.790269 
L 792.943738 299.319054 
L 793.940507 298.015056 
L 794.937275 299.060479 
L 795.869736 302.120382 
L 796.866504 299.635817 
L 797.831119 298.745727 
L 798.827888 299.435445 
L 799.792502 300.79192 
L 800.789271 299.365201 
L 801.786039 298.564038 
L 802.750654 300.829352 
L 803.747422 300.491477 
L 804.712037 301.293215 
L 805.708805 300.715779 
L 806.705574 297.663511 
L 807.605881 298.443952 
L 808.602649 299.92994 
L 809.567264 303.265445 
L 810.564032 298.661473 
L 811.528647 299.615223 
L 812.525416 302.521593 
L 813.522184 299.643227 
L 814.486799 297.441247 
L 815.483567 301.595248 
L 816.448182 299.68034 
L 816.448182 299.68034 
" clip-path="url(#p12d23fbfef)" style="fill: none; stroke: #1f77b4; stroke-width: 1.5; stroke-linecap: square"/>
   </g>
   <g id="patch_3">
    <path d="M 44.66 318.04 
L 44.66 25.44 
" style="fill: none; stroke: #000000; stroke-width: 0.8; stroke-linejoin: miter; stroke-linecap: square"/>
   </g>
   <g id="patch_4">
    <path d="M 853.2 318.04 
L 853.2 25.44 
" style="fill: none; stroke: #000000; stroke-width: 0.8; stroke-linejoin: miter; stroke-linecap: square"/>
   </g>
   <g id="patch_5">
    <path d="M 44.66 318.04 
L 853.2 318.04 
" style="fill: none; stroke: #000000; stroke-width: 0.8; stroke-linejoin: miter; stroke-linecap: square"/>
   </g>
   <g id="patch_6">
    <path d="M 44.66 25.44 
L 853.2 25.44 
" style="fill: none; stroke: #000000; stroke-width: 0.8; stroke-linejoin: miter; stroke-linecap: square"/>
   </g>
   <g id="text_16">
    <!-- SARIMA(1,2,1)(1,1,1,12): full_data Residuals Over Time -->
    <g transform="translate(283.255938 19.44) scale(0.12 -0.12)">
     <defs>
      <path id="DejaVuSans-53" d="M 3425 4513 
L 3425 3897 
Q 3066 4069 2747 4153 
Q 2428 4238 2131 4238 
Q 1616 4238 1336 4038 
Q 1056 3838 1056 3469 
Q 1056 3159 1242 3001 
Q 1428 2844 1947 2747 
L 2328 2669 
Q 3034 2534 3370 2195 
Q 3706 1856 3706 1288 
Q 3706 609 3251 259 
Q 2797 -91 1919 -91 
Q 1588 -91 1214 -16 
Q 841 59 441 206 
L 441 856 
Q 825 641 1194 531 
Q 1563 422 1919 422 
Q 2459 422 2753 634 
Q 3047 847 3047 1241 
Q 3047 1584 2836 1778 
Q 2625 1972 2144 2069 
L 1759 2144 
Q 1053 2284 737 2584 
Q 422 2884 422 3419 
Q 422 4038 858 4394 
Q 1294 4750 2059 4750 
Q 2388 4750 2728 4690 
Q 3069 4631 3425 4513 
z
" transform="scale(0.015625)"/>
      <path id="DejaVuSans-41" d="M 2188 4044 
L 1331 1722 
L 3047 1722 
L 2188 4044 
z
M 1831 4666 
L 2547 4666 
L 4325 0 
L 3669 0 
L 3244 1197 
L 1141 1197 
L 716 0 
L 50 0 
L 1831 4666 
z
" transform="scale(0.015625)"/>
      <path id="DejaVuSans-49" d="M 628 4666 
L 1259 4666 
L 1259 0 
L 628 0 
L 628 4666 
z
" transform="scale(0.015625)"/>
      <path id="DejaVuSans-4d" d="M 628 4666 
L 1569 4666 
L 2759 1491 
L 3956 4666 
L 4897 4666 
L 4897 0 
L 4281 0 
L 4281 4097 
L 3078 897 
L 2444 897 
L 1241 4097 
L 1241 0 
L 628 0 
L 628 4666 
z
" transform="scale(0.015625)"/>
      <path id="DejaVuSans-28" d="M 1984 4856 
Q 1566 4138 1362 3434 
Q 1159 2731 1159 2009 
Q 1159 1288 1364 580 
Q 1569 -128 1984 -844 
L 1484 -844 
Q 1016 -109 783 600 
Q 550 1309 550 2009 
Q 550 2706 781 3412 
Q 1013 4119 1484 4856 
L 1984 4856 
z
" transform="scale(0.015625)"/>
      <path id="DejaVuSans-2c" d="M 750 794 
L 1409 794 
L 1409 256 
L 897 -744 
L 494 -744 
L 750 256 
L 750 794 
z
" transform="scale(0.015625)"/>
      <path id="DejaVuSans-29" d="M 513 4856 
L 1013 4856 
Q 1481 4119 1714 3412 
Q 1947 2706 1947 2009 
Q 1947 1309 1714 600 
Q 1481 -109 1013 -844 
L 513 -844 
Q 928 -128 1133 580 
Q 1338 1288 1338 2009 
Q 1338 2731 1133 3434 
Q 928 4138 513 4856 
z
" transform="scale(0.015625)"/>
      <path id="DejaVuSans-3a" d="M 750 794 
L 1409 794 
L 1409 0 
L 750 0 
L 750 794 
z
M 750 3309 
L 1409 3309 
L 1409 2516 
L 750 2516 
L 750 3309 
z
" transform="scale(0.015625)"/>
      <path id="DejaVuSans-66" d="M 2375 4863 
L 2375 4384 
L 1825 4384 
Q 1516 4384 1395 4259 
Q 1275 4134 1275 3809 
L 1275 3500 
L 2222 3500 
L 2222 3053 
L 1275 3053 
L 1275 0 
L 697 0 
L 697 3053 
L 147 3053 
L 147 3500 
L 697 3500 
L 697 3744 
Q 697 4328 969 4595 
Q 1241 4863 1831 4863 
L 2375 4863 
z
" transform="scale(0.015625)"/>
      <path id="DejaVuSans-5f" d="M 3263 -1063 
L 3263 -1509 
L -63 -1509 
L -63 -1063 
L 3263 -1063 
z
" transform="scale(0.015625)"/>
      <path id="DejaVuSans-4f" d="M 2522 4238 
Q 1834 4238 1429 3725 
Q 1025 3213 1025 2328 
Q 1025 1447 1429 934 
Q 1834 422 2522 422 
Q 3209 422 3611 934 
Q 4013 1447 4013 2328 
Q 4013 3213 3611 3725 
Q 3209 4238 2522 4238 
z
M 2522 4750 
Q 3503 4750 4090 4092 
Q 4678 3434 4678 2328 
Q 4678 1225 4090 567 
Q 3503 -91 2522 -91 
Q 1538 -91 948 565 
Q 359 1222 359 2328 
Q 359 3434 948 4092 
Q 1538 4750 2522 4750 
z
" transform="scale(0.015625)"/>
      <path id="DejaVuSans-76" d="M 191 3500 
L 800 3500 
L 1894 563 
L 2988 3500 
L 3597 3500 
L 2284 0 
L 1503 0 
L 191 3500 
z
" transform="scale(0.015625)"/>
      <path id="DejaVuSans-72" d="M 2631 2963 
Q 2534 3019 2420 3045 
Q 2306 3072 2169 3072 
Q 1681 3072 1420 2755 
Q 1159 2438 1159 1844 
L 1159 0 
L 581 0 
L 581 3500 
L 1159 3500 
L 1159 2956 
Q 1341 3275 1631 3429 
Q 1922 3584 2338 3584 
Q 2397 3584 2469 3576 
Q 2541 3569 2628 3553 
L 2631 2963 
z
" transform="scale(0.015625)"/>
      <path id="DejaVuSans-54" d="M -19 4666 
L 3928 4666 
L 3928 4134 
L 2272 4134 
L 2272 0 
L 1638 0 
L 1638 4134 
L -19 4134 
L -19 4666 
z
" transform="scale(0.015625)"/>
     </defs>
     <use xlink:href="#DejaVuSans-53"/>
     <use xlink:href="#DejaVuSans-41" transform="translate(65.351562 0)"/>
     <use xlink:href="#DejaVuSans-52" transform="translate(133.759766 0)"/>
     <use xlink:href="#DejaVuSans-49" transform="translate(203.242188 0)"/>
     <use xlink:href="#DejaVuSans-4d" transform="translate(232.734375 0)"/>
     <use xlink:href="#DejaVuSans-41" transform="translate(319.013672 0)"/>
     <use xlink:href="#DejaVuSans-28" transform="translate(387.421875 0)"/>
     <use xlink:href="#DejaVuSans-31" transform="translate(426.435547 0)"/>
     <use xlink:href="#DejaVuSans-2c" transform="translate(490.058594 0)"/>
     <use xlink:href="#DejaVuSans-32" transform="translate(521.845703 0)"/>
     <use xlink:href="#DejaVuSans-2c" transform="translate(585.46875 0)"/>
     <use xlink:href="#DejaVuSans-31" transform="translate(617.255859 0)"/>
     <use xlink:href="#DejaVuSans-29" transform="translate(680.878906 0)"/>
     <use xlink:href="#DejaVuSans-28" transform="translate(719.892578 0)"/>
     <use xlink:href="#DejaVuSans-31" transform="translate(758.90625 0)"/>
     <use xlink:href="#DejaVuSans-2c" transform="translate(822.529297 0)"/>
     <use xlink:href="#DejaVuSans-31" transform="translate(854.316406 0)"/>
     <use xlink:href="#DejaVuSans-2c" transform="translate(917.939453 0)"/>
     <use xlink:href="#DejaVuSans-31" transform="translate(949.726562 0)"/>
     <use xlink:href="#DejaVuSans-2c" transform="translate(1013.349609 0)"/>
     <use xlink:href="#DejaVuSans-31" transform="translate(1045.136719 0)"/>
     <use xlink:href="#DejaVuSans-32" transform="translate(1108.759766 0)"/>
     <use xlink:href="#DejaVuSans-29" transform="translate(1172.382812 0)"/>
     <use xlink:href="#DejaVuSans-3a" transform="translate(1211.396484 0)"/>
     <use xlink:href="#DejaVuSans-20" transform="translate(1245.087891 0)"/>
     <use xlink:href="#DejaVuSans-66" transform="translate(1276.875 0)"/>
     <use xlink:href="#DejaVuSans-75" transform="translate(1312.080078 0)"/>
     <use xlink:href="#DejaVuSans-6c" transform="translate(1375.458984 0)"/>
     <use xlink:href="#DejaVuSans-6c" transform="translate(1403.242188 0)"/>
     <use xlink:href="#DejaVuSans-5f" transform="translate(1431.025391 0)"/>
     <use xlink:href="#DejaVuSans-64" transform="translate(1481.025391 0)"/>
     <use xlink:href="#DejaVuSans-61" transform="translate(1544.501953 0)"/>
     <use xlink:href="#DejaVuSans-74" transform="translate(1605.78125 0)"/>
     <use xlink:href="#DejaVuSans-61" transform="translate(1644.990234 0)"/>
     <use xlink:href="#DejaVuSans-20" transform="translate(1706.269531 0)"/>
     <use xlink:href="#DejaVuSans-52" transform="translate(1738.056641 0)"/>
     <use xlink:href="#DejaVuSans-65" transform="translate(1803.039062 0)"/>
     <use xlink:href="#DejaVuSans-73" transform="translate(1864.5625 0)"/>
     <use xlink:href="#DejaVuSans-69" transform="translate(1916.662109 0)"/>
     <use xlink:href="#DejaVuSans-64" transform="translate(1944.445312 0)"/>
     <use xlink:href="#DejaVuSans-75" transform="translate(2007.921875 0)"/>
     <use xlink:href="#DejaVuSans-61" transform="translate(2071.300781 0)"/>
     <use xlink:href="#DejaVuSans-6c" transform="translate(2132.580078 0)"/>
     <use xlink:href="#DejaVuSans-73" transform="translate(2160.363281 0)"/>
     <use xlink:href="#DejaVuSans-20" transform="translate(2212.462891 0)"/>
     <use xlink:href="#DejaVuSans-4f" transform="translate(2244.25 0)"/>
     <use xlink:href="#DejaVuSans-76" transform="translate(2322.960938 0)"/>
     <use xlink:href="#DejaVuSans-65" transform="translate(2382.140625 0)"/>
     <use xlink:href="#DejaVuSans-72" transform="translate(2443.664062 0)"/>
     <use xlink:href="#DejaVuSans-20" transform="translate(2484.777344 0)"/>
     <use xlink:href="#DejaVuSans-54" transform="translate(2516.564453 0)"/>
     <use xlink:href="#DejaVuSans-69" transform="translate(2574.523438 0)"/>
     <use xlink:href="#DejaVuSans-6d" transform="translate(2602.306641 0)"/>
     <use xlink:href="#DejaVuSans-65" transform="translate(2699.71875 0)"/>
    </g>
   </g>
   <g id="legend_1">
    <g id="patch_7">
     <path d="M 748.395313 62.79625 
L 846.2 62.79625 
Q 848.2 62.79625 848.2 60.79625 
L 848.2 32.44 
Q 848.2 30.44 846.2 30.44 
L 748.395313 30.44 
Q 746.395313 30.44 746.395313 32.44 
L 746.395313 60.79625 
Q 746.395313 62.79625 748.395313 62.79625 
z
" style="fill: #ffffff; opacity: 0.8; stroke: #cccccc; stroke-linejoin: miter"/>
    </g>
    <g id="line2d_29">
     <path d="M 750.395313 38.538437 
L 760.395313 38.538437 
L 770.395313 38.538437 
" style="fill: none; stroke-dasharray: 5.55,2.4; stroke-dashoffset: 0; stroke: #808080; stroke-width: 1.5"/>
    </g>
    <g id="text_17">
     <!-- Zero residual -->
     <g transform="translate(778.395313 42.038437) scale(0.1 -0.1)">
      <defs>
       <path id="DejaVuSans-5a" d="M 359 4666 
L 4025 4666 
L 4025 4184 
L 1075 531 
L 4097 531 
L 4097 0 
L 288 0 
L 288 481 
L 3238 4134 
L 359 4134 
L 359 4666 
z
" transform="scale(0.015625)"/>
       <path id="DejaVuSans-6f" d="M 1959 3097 
Q 1497 3097 1228 2736 
Q 959 2375 959 1747 
Q 959 1119 1226 758 
Q 1494 397 1959 397 
Q 2419 397 2687 759 
Q 2956 1122 2956 1747 
Q 2956 2369 2687 2733 
Q 2419 3097 1959 3097 
z
M 1959 3584 
Q 2709 3584 3137 3096 
Q 3566 2609 3566 1747 
Q 3566 888 3137 398 
Q 2709 -91 1959 -91 
Q 1206 -91 779 398 
Q 353 888 353 1747 
Q 353 2609 779 3096 
Q 1206 3584 1959 3584 
z
" transform="scale(0.015625)"/>
      </defs>
      <use xlink:href="#DejaVuSans-5a"/>
      <use xlink:href="#DejaVuSans-65" transform="translate(68.505859 0)"/>
      <use xlink:href="#DejaVuSans-72" transform="translate(130.029297 0)"/>
      <use xlink:href="#DejaVuSans-6f" transform="translate(168.892578 0)"/>
      <use xlink:href="#DejaVuSans-20" transform="translate(230.074219 0)"/>
      <use xlink:href="#DejaVuSans-72" transform="translate(261.861328 0)"/>
      <use xlink:href="#DejaVuSans-65" transform="translate(300.724609 0)"/>
      <use xlink:href="#DejaVuSans-73" transform="translate(362.248047 0)"/>
      <use xlink:href="#DejaVuSans-69" transform="translate(414.347656 0)"/>
      <use xlink:href="#DejaVuSans-64" transform="translate(442.130859 0)"/>
      <use xlink:href="#DejaVuSans-75" transform="translate(505.607422 0)"/>
      <use xlink:href="#DejaVuSans-61" transform="translate(568.986328 0)"/>
      <use xlink:href="#DejaVuSans-6c" transform="translate(630.265625 0)"/>
     </g>
    </g>
    <g id="line2d_30">
     <path d="M 750.395313 53.216563 
L 760.395313 53.216563 
L 770.395313 53.216563 
" style="fill: none; stroke: #1f77b4; stroke-width: 1.5; stroke-linecap: square"/>
    </g>
    <g id="text_18">
     <!-- Residuals -->
     <g transform="translate(778.395313 56.716563) scale(0.1 -0.1)">
      <use xlink:href="#DejaVuSans-52"/>
      <use xlink:href="#DejaVuSans-65" transform="translate(64.982422 0)"/>
      <use xlink:href="#DejaVuSans-73" transform="translate(126.505859 0)"/>
      <use xlink:href="#DejaVuSans-69" transform="translate(178.605469 0)"/>
      <use xlink:href="#DejaVuSans-64" transform="translate(206.388672 0)"/>
      <use xlink:href="#DejaVuSans-75" transform="translate(269.865234 0)"/>
      <use xlink:href="#DejaVuSans-61" transform="translate(333.244141 0)"/>
      <use xlink:href="#DejaVuSans-6c" transform="translate(394.523438 0)"/>
      <use xlink:href="#DejaVuSans-73" transform="translate(422.306641 0)"/>
     </g>
    </g>
   </g>
  </g>
 </g>
 <defs>
  <clipPath id="p12d23fbfef">
   <rect x="44.66" y="25.44" width="808.54" height="292.6"/>
  </clipPath>
 </defs>
</svg>
