<?xml version="1.0" encoding="utf-8" standalone="no"?>
<!DOCTYPE svg PUBLIC "-//W3C//DTD SVG 1.1//EN"
  "http://www.w3.org/Graphics/SVG/1.1/DTD/svg11.dtd">
<svg xmlns:xlink="http://www.w3.org/1999/xlink" width="864pt" height="360pt" viewBox="0 0 864 360" xmlns="http://www.w3.org/2000/svg" version="1.1">
 <metadata>
  <rdf:RDF xmlns:dc="http://purl.org/dc/elements/1.1/" xmlns:cc="http://creativecommons.org/ns#" xmlns:rdf="http://www.w3.org/1999/02/22-rdf-syntax-ns#">
   <cc:Work>
    <dc:type rdf:resource="http://purl.org/dc/dcmitype/StillImage"/>
    <dc:date>2026-07-08T14:23:54.868994</dc:date>
    <dc:format>image/svg+xml</dc:format>
    <dc:creator>
     <cc:Agent>
      <dc:title>Matplotlib v3.10.0, https://matplotlib.org/</dc:title>
     </cc:Agent>
    </dc:creator>
   </cc:Work>
  </rdf:RDF>
 </metadata>
 <defs>
  <style type="text/css">*{stroke-linejoin: round; stroke-linecap: butt}</style>
 </defs>
 <g id="figure_1">
  <g id="patch_1">
   <path d="M 0 360 
L 864 360 
L 864 0 
L 0 0 
z
" style="fill: #ffffff"/>
  </g>
  <g id="axes_1">
   <g id="patch_2">
    <path d="M 44.66 318.04 
L 853.2 318.04 
L 853.2 25.44 
L 44.66 25.44 
z
" style="fill: #ffffff"/>
   </g>
   <g id="matplotlib.axis_1">
    <g id="xtick_1">
     <g id="line2d_1">
      <path d="M 90.78777 318.04 
L 90.78777 25.44 
" clip-path="url(#p66e8bcc77d)" style="fill: none; stroke: #b0b0b0; stroke-width: 0.8; stroke-linecap: square"/>
     </g>
     <g id="line2d_2">
      <defs>
       <path id="m74b63a005e" d="M 0 0 
L 0 3.5 
" style="stroke: #000000; stroke-width: 0.8"/>
      </defs>
      <g>
       <use xlink:href="#m74b63a005e" x="90.78777" y="318.04" style="stroke: #000000; stroke-width: 0.8"/>
      </g>
     </g>
     <g id="text_1">
      <!-- 1960 -->
      <g transform="translate(78.06277 332.638438) scale(0.1 -0.1)">
       <defs>
        <path id="DejaVuSans-31" d="M 794 531 
L 1825 531 
L 1825 4091 
L 703 3866 
L 703 4441 
L 1819 4666 
L 2450 4666 
L 2450 531 
L 3481 531 
L 3481 0 
L 794 0 
L 794 531 
z
" transform="scale(0.015625)"/>
        <path id="DejaVuSans-39" d="M 703 97 
L 703 672 
Q 941 559 1184 500 
Q 1428 441 1663 441 
Q 2288 441 2617 861 
Q 2947 1281 2994 2138 
Q 2813 1869 2534 1725 
Q 2256 1581 1919 1581 
Q 1219 1581 811 2004 
Q 403 2428 403 3163 
Q 403 3881 828 4315 
Q 1253 4750 1959 4750 
Q 2769 4750 3195 4129 
Q 3622 3509 3622 2328 
Q 3622 1225 3098 567 
Q 2575 -91 1691 -91 
Q 1453 -91 1209 -44 
Q 966 3 703 97 
z
M 1959 2075 
Q 2384 2075 2632 2365 
Q 2881 2656 2881 3163 
Q 2881 3666 2632 3958 
Q 2384 4250 1959 4250 
Q 1534 4250 1286 3958 
Q 1038 3666 1038 3163 
Q 1038 2656 1286 2365 
Q 1534 2075 1959 2075 
z
" transform="scale(0.015625)"/>
        <path id="DejaVuSans-36" d="M 2113 2584 
Q 1688 2584 1439 2293 
Q 1191 2003 1191 1497 
Q 1191 994 1439 701 
Q 1688 409 2113 409 
Q 2538 409 2786 701 
Q 3034 994 3034 1497 
Q 3034 2003 2786 2293 
Q 2538 2584 2113 2584 
z
M 3366 4563 
L 3366 3988 
Q 3128 4100 2886 4159 
Q 2644 4219 2406 4219 
Q 1781 4219 1451 3797 
Q 1122 3375 1075 2522 
Q 1259 2794 1537 2939 
Q 1816 3084 2150 3084 
Q 2853 3084 3261 2657 
Q 3669 2231 3669 1497 
Q 3669 778 3244 343 
Q 2819 -91 2113 -91 
Q 1303 -91 875 529 
Q 447 1150 447 2328 
Q 447 3434 972 4092 
Q 1497 4750 2381 4750 
Q 2619 4750 2861 4703 
Q 3103 4656 3366 4563 
z
" transform="scale(0.015625)"/>
        <path id="DejaVuSans-30" d="M 2034 4250 
Q 1547 4250 1301 3770 
Q 1056 3291 1056 2328 
Q 1056 1369 1301 889 
Q 1547 409 2034 409 
Q 2525 409 2770 889 
Q 3016 1369 3016 2328 
Q 3016 3291 2770 3770 
Q 2525 4250 2034 4250 
z
M 2034 4750 
Q 2819 4750 3233 4129 
Q 3647 3509 3647 2328 
Q 3647 1150 3233 529 
Q 2819 -91 2034 -91 
Q 1250 -91 836 529 
Q 422 1150 422 2328 
Q 422 3509 836 4129 
Q 1250 4750 2034 4750 
z
" transform="scale(0.015625)"/>
       </defs>
       <use xlink:href="#DejaVuSans-31"/>
       <use xlink:href="#DejaVuSans-39" transform="translate(63.623047 0)"/>
       <use xlink:href="#DejaVuSans-36" transform="translate(127.246094 0)"/>
       <use xlink:href="#DejaVuSans-30" transform="translate(190.869141 0)"/>
      </g>
     </g>
    </g>
    <g id="xtick_2">
     <g id="line2d_3">
      <path d="M 230.585127 318.04 
L 230.585127 25.44 
" clip-path="url(#p66e8bcc77d)" style="fill: none; stroke: #b0b0b0; stroke-width: 0.8; stroke-linecap: square"/>
     </g>
     <g id="line2d_4">
      <g>
       <use xlink:href="#m74b63a005e" x="230.585127" y="318.04" style="stroke: #000000; stroke-width: 0.8"/>
      </g>
     </g>
     <g id="text_2">
      <!-- 1970 -->
      <g transform="translate(217.860127 332.638438) scale(0.1 -0.1)">
       <defs>
        <path id="DejaVuSans-37" d="M 525 4666 
L 3525 4666 
L 3525 4397 
L 1831 0 
L 1172 0 
L 2766 4134 
L 525 4134 
L 525 4666 
z
" transform="scale(0.015625)"/>
       </defs>
       <use xlink:href="#DejaVuSans-31"/>
       <use xlink:href="#DejaVuSans-39" transform="translate(63.623047 0)"/>
       <use xlink:href="#DejaVuSans-37" transform="translate(127.246094 0)"/>
       <use xlink:href="#DejaVuSans-30" transform="translate(190.869141 0)"/>
      </g>
     </g>
    </g>
    <g id="xtick_3">
     <g id="line2d_5">
      <path d="M 370.344215 318.04 
L 370.344215 25.44 
" clip-path="url(#p66e8bcc77d)" style="fill: none; stroke: #b0b0b0; stroke-width: 0.8; stroke-linecap: square"/>
     </g>
     <g id="line2d_6">
      <g>
       <use xlink:href="#m74b63a005e" x="370.344215" y="318.04" style="stroke: #000000; stroke-width: 0.8"/>
      </g>
     </g>
     <g id="text_3">
      <!-- 1980 -->
      <g transform="translate(357.619215 332.638438) scale(0.1 -0.1)">
       <defs>
        <path id="DejaVuSans-38" d="M 2034 2216 
Q 1584 2216 1326 1975 
Q 1069 1734 1069 1313 
Q 1069 891 1326 650 
Q 1584 409 2034 409 
Q 2484 409 2743 651 
Q 3003 894 3003 1313 
Q 3003 1734 2745 1975 
Q 2488 2216 2034 2216 
z
M 1403 2484 
Q 997 2584 770 2862 
Q 544 3141 544 3541 
Q 544 4100 942 4425 
Q 1341 4750 2034 4750 
Q 2731 4750 3128 4425 
Q 3525 4100 3525 3541 
Q 3525 3141 3298 2862 
Q 3072 2584 2669 2484 
Q 3125 2378 3379 2068 
Q 3634 1759 3634 1313 
Q 3634 634 3220 271 
Q 2806 -91 2034 -91 
Q 1263 -91 848 271 
Q 434 634 434 1313 
Q 434 1759 690 2068 
Q 947 2378 1403 2484 
z
M 1172 3481 
Q 1172 3119 1398 2916 
Q 1625 2713 2034 2713 
Q 2441 2713 2670 2916 
Q 2900 3119 2900 3481 
Q 2900 3844 2670 4047 
Q 2441 4250 2034 4250 
Q 1625 4250 1398 4047 
Q 1172 3844 1172 3481 
z
" transform="scale(0.015625)"/>
       </defs>
       <use xlink:href="#DejaVuSans-31"/>
       <use xlink:href="#DejaVuSans-39" transform="translate(63.623047 0)"/>
       <use xlink:href="#DejaVuSans-38" transform="translate(127.246094 0)"/>
       <use xlink:href="#DejaVuSans-30" transform="translate(190.869141 0)"/>
      </g>
     </g>
    </g>
    <g id="xtick_4">
     <g id="line2d_7">
      <path d="M 510.141572 318.04 
L 510.141572 25.44 
" clip-path="url(#p66e8bcc77d)" style="fill: none; stroke: #b0b0b0; stroke-width: 0.8; stroke-linecap: square"/>
     </g>
     <g id="line2d_8">
      <g>
       <use xlink:href="#m74b63a005e" x="510.141572" y="318.04" style="stroke: #000000; stroke-width: 0.8"/>
      </g>
     </g>
     <g id="text_4">
      <!-- 1990 -->
      <g transform="translate(497.416572 332.638438) scale(0.1 -0.1)">
       <use xlink:href="#DejaVuSans-31"/>
       <use xlink:href="#DejaVuSans-39" transform="translate(63.623047 0)"/>
       <use xlink:href="#DejaVuSans-39" transform="translate(127.246094 0)"/>
       <use xlink:href="#DejaVuSans-30" transform="translate(190.869141 0)"/>
      </g>
     </g>
    </g>
    <g id="xtick_5">
     <g id="line2d_9">
      <path d="M 649.90066 318.04 
L 649.90066 25.44 
" clip-path="url(#p66e8bcc77d)" style="fill: none; stroke: #b0b0b0; stroke-width: 0.8; stroke-linecap: square"/>
     </g>
     <g id="line2d_10">
      <g>
       <use xlink:href="#m74b63a005e" x="649.90066" y="318.04" style="stroke: #000000; stroke-width: 0.8"/>
      </g>
     </g>
     <g id="text_5">
      <!-- 2000 -->
      <g transform="translate(637.17566 332.638438) scale(0.1 -0.1)">
       <defs>
        <path id="DejaVuSans-32" d="M 1228 531 
L 3431 531 
L 3431 0 
L 469 0 
L 469 531 
Q 828 903 1448 1529 
Q 2069 2156 2228 2338 
Q 2531 2678 2651 2914 
Q 2772 3150 2772 3378 
Q 2772 3750 2511 3984 
Q 2250 4219 1831 4219 
Q 1534 4219 1204 4116 
Q 875 4013 500 3803 
L 500 4441 
Q 881 4594 1212 4672 
Q 1544 4750 1819 4750 
Q 2544 4750 2975 4387 
Q 3406 4025 3406 3419 
Q 3406 3131 3298 2873 
Q 3191 2616 2906 2266 
Q 2828 2175 2409 1742 
Q 1991 1309 1228 531 
z
" transform="scale(0.015625)"/>
       </defs>
       <use xlink:href="#DejaVuSans-32"/>
       <use xlink:href="#DejaVuSans-30" transform="translate(63.623047 0)"/>
       <use xlink:href="#DejaVuSans-30" transform="translate(127.246094 0)"/>
       <use xlink:href="#DejaVuSans-30" transform="translate(190.869141 0)"/>
      </g>
     </g>
    </g>
    <g id="xtick_6">
     <g id="line2d_11">
      <path d="M 789.698017 318.04 
L 789.698017 25.44 
" clip-path="url(#p66e8bcc77d)" style="fill: none; stroke: #b0b0b0; stroke-width: 0.8; stroke-linecap: square"/>
     </g>
     <g id="line2d_12">
      <g>
       <use xlink:href="#m74b63a005e" x="789.698017" y="318.04" style="stroke: #000000; stroke-width: 0.8"/>
      </g>
     </g>
     <g id="text_6">
      <!-- 2010 -->
      <g transform="translate(776.973017 332.638438) scale(0.1 -0.1)">
       <use xlink:href="#DejaVuSans-32"/>
       <use xlink:href="#DejaVuSans-30" transform="translate(63.623047 0)"/>
       <use xlink:href="#DejaVuSans-31" transform="translate(127.246094 0)"/>
       <use xlink:href="#DejaVuSans-30" transform="translate(190.869141 0)"/>
      </g>
     </g>
    </g>
    <g id="text_7">
     <!-- Date -->
     <g transform="translate(436.979219 346.316563) scale(0.1 -0.1)">
      <defs>
       <path id="DejaVuSans-44" d="M 1259 4147 
L 1259 519 
L 2022 519 
Q 2988 519 3436 956 
Q 3884 1394 3884 2338 
Q 3884 3275 3436 3711 
Q 2988 4147 2022 4147 
L 1259 4147 
z
M 628 4666 
L 1925 4666 
Q 3281 4666 3915 4102 
Q 4550 3538 4550 2338 
Q 4550 1131 3912 565 
Q 3275 0 1925 0 
L 628 0 
L 628 4666 
z
" transform="scale(0.015625)"/>
       <path id="DejaVuSans-61" d="M 2194 1759 
Q 1497 1759 1228 1600 
Q 959 1441 959 1056 
Q 959 750 1161 570 
Q 1363 391 1709 391 
Q 2188 391 2477 730 
Q 2766 1069 2766 1631 
L 2766 1759 
L 2194 1759 
z
M 3341 1997 
L 3341 0 
L 2766 0 
L 2766 531 
Q 2569 213 2275 61 
Q 1981 -91 1556 -91 
Q 1019 -91 701 211 
Q 384 513 384 1019 
Q 384 1609 779 1909 
Q 1175 2209 1959 2209 
L 2766 2209 
L 2766 2266 
Q 2766 2663 2505 2880 
Q 2244 3097 1772 3097 
Q 1472 3097 1187 3025 
Q 903 2953 641 2809 
L 641 3341 
Q 956 3463 1253 3523 
Q 1550 3584 1831 3584 
Q 2591 3584 2966 3190 
Q 3341 2797 3341 1997 
z
" transform="scale(0.015625)"/>
       <path id="DejaVuSans-74" d="M 1172 4494 
L 1172 3500 
L 2356 3500 
L 2356 3053 
L 1172 3053 
L 1172 1153 
Q 1172 725 1289 603 
Q 1406 481 1766 481 
L 2356 481 
L 2356 0 
L 1766 0 
Q 1100 0 847 248 
Q 594 497 594 1153 
L 594 3053 
L 172 3053 
L 172 3500 
L 594 3500 
L 594 4494 
L 1172 4494 
z
" transform="scale(0.015625)"/>
       <path id="DejaVuSans-65" d="M 3597 1894 
L 3597 1613 
L 953 1613 
Q 991 1019 1311 708 
Q 1631 397 2203 397 
Q 2534 397 2845 478 
Q 3156 559 3463 722 
L 3463 178 
Q 3153 47 2828 -22 
Q 2503 -91 2169 -91 
Q 1331 -91 842 396 
Q 353 884 353 1716 
Q 353 2575 817 3079 
Q 1281 3584 2069 3584 
Q 2775 3584 3186 3129 
Q 3597 2675 3597 1894 
z
M 3022 2063 
Q 3016 2534 2758 2815 
Q 2500 3097 2075 3097 
Q 1594 3097 1305 2825 
Q 1016 2553 972 2059 
L 3022 2063 
z
" transform="scale(0.015625)"/>
      </defs>
      <use xlink:href="#DejaVuSans-44"/>
      <use xlink:href="#DejaVuSans-61" transform="translate(77.001953 0)"/>
      <use xlink:href="#DejaVuSans-74" transform="translate(138.28125 0)"/>
      <use xlink:href="#DejaVuSans-65" transform="translate(177.490234 0)"/>
     </g>
    </g>
   </g>
   <g id="matplotlib.axis_2">
    <g id="ytick_1">
     <g id="line2d_13">
      <path d="M 44.66 300.498254 
L 853.2 300.498254 
" clip-path="url(#p66e8bcc77d)" style="fill: none; stroke: #b0b0b0; stroke-width: 0.8; stroke-linecap: square"/>
     </g>
     <g id="line2d_14">
      <defs>
       <path id="mb0975f6df6" d="M 0 0 
L -3.5 0 
" style="stroke: #000000; stroke-width: 0.8"/>
      </defs>
      <g>
       <use xlink:href="#mb0975f6df6" x="44.66" y="300.498254" style="stroke: #000000; stroke-width: 0.8"/>
      </g>
     </g>
     <g id="text_8">
      <!-- 0 -->
      <g transform="translate(31.2975 304.297473) scale(0.1 -0.1)">
       <use xlink:href="#DejaVuSans-30"/>
      </g>
     </g>
    </g>
    <g id="ytick_2">
     <g id="line2d_15">
      <path d="M 44.66 260.640296 
L 853.2 260.640296 
" clip-path="url(#p66e8bcc77d)" style="fill: none; stroke: #b0b0b0; stroke-width: 0.8; stroke-linecap: square"/>
     </g>
     <g id="line2d_16">
      <g>
       <use xlink:href="#mb0975f6df6" x="44.66" y="260.640296" style="stroke: #000000; stroke-width: 0.8"/>
      </g>
     </g>
     <g id="text_9">
      <!-- 10 -->
      <g transform="translate(24.935 264.439514) scale(0.1 -0.1)">
       <use xlink:href="#DejaVuSans-31"/>
       <use xlink:href="#DejaVuSans-30" transform="translate(63.623047 0)"/>
      </g>
     </g>
    </g>
    <g id="ytick_3">
     <g id="line2d_17">
      <path d="M 44.66 220.782337 
L 853.2 220.782337 
" clip-path="url(#p66e8bcc77d)" style="fill: none; stroke: #b0b0b0; stroke-width: 0.8; stroke-linecap: square"/>
     </g>
     <g id="line2d_18">
      <g>
       <use xlink:href="#mb0975f6df6" x="44.66" y="220.782337" style="stroke: #000000; stroke-width: 0.8"/>
      </g>
     </g>
     <g id="text_10">
      <!-- 20 -->
      <g transform="translate(24.935 224.581556) scale(0.1 -0.1)">
       <use xlink:href="#DejaVuSans-32"/>
       <use xlink:href="#DejaVuSans-30" transform="translate(63.623047 0)"/>
      </g>
     </g>
    </g>
    <g id="ytick_4">
     <g id="line2d_19">
      <path d="M 44.66 180.924379 
L 853.2 180.924379 
" clip-path="url(#p66e8bcc77d)" style="fill: none; stroke: #b0b0b0; stroke-width: 0.8; stroke-linecap: square"/>
     </g>
     <g id="line2d_20">
      <g>
       <use xlink:href="#mb0975f6df6" x="44.66" y="180.924379" style="stroke: #000000; stroke-width: 0.8"/>
      </g>
     </g>
     <g id="text_11">
      <!-- 30 -->
      <g transform="translate(24.935 184.723598) scale(0.1 -0.1)">
       <defs>
        <path id="DejaVuSans-33" d="M 2597 2516 
Q 3050 2419 3304 2112 
Q 3559 1806 3559 1356 
Q 3559 666 3084 287 
Q 2609 -91 1734 -91 
Q 1441 -91 1130 -33 
Q 819 25 488 141 
L 488 750 
Q 750 597 1062 519 
Q 1375 441 1716 441 
Q 2309 441 2620 675 
Q 2931 909 2931 1356 
Q 2931 1769 2642 2001 
Q 2353 2234 1838 2234 
L 1294 2234 
L 1294 2753 
L 1863 2753 
Q 2328 2753 2575 2939 
Q 2822 3125 2822 3475 
Q 2822 3834 2567 4026 
Q 2313 4219 1838 4219 
Q 1578 4219 1281 4162 
Q 984 4106 628 3988 
L 628 4550 
Q 988 4650 1302 4700 
Q 1616 4750 1894 4750 
Q 2613 4750 3031 4423 
Q 3450 4097 3450 3541 
Q 3450 3153 3228 2886 
Q 3006 2619 2597 2516 
z
" transform="scale(0.015625)"/>
       </defs>
       <use xlink:href="#DejaVuSans-33"/>
       <use xlink:href="#DejaVuSans-30" transform="translate(63.623047 0)"/>
      </g>
     </g>
    </g>
    <g id="ytick_5">
     <g id="line2d_21">
      <path d="M 44.66 141.06642 
L 853.2 141.06642 
" clip-path="url(#p66e8bcc77d)" style="fill: none; stroke: #b0b0b0; stroke-width: 0.8; stroke-linecap: square"/>
     </g>
     <g id="line2d_22">
      <g>
       <use xlink:href="#mb0975f6df6" x="44.66" y="141.06642" style="stroke: #000000; stroke-width: 0.8"/>
      </g>
     </g>
     <g id="text_12">
      <!-- 40 -->
      <g transform="translate(24.935 144.865639) scale(0.1 -0.1)">
       <defs>
        <path id="DejaVuSans-34" d="M 2419 4116 
L 825 1625 
L 2419 1625 
L 2419 4116 
z
M 2253 4666 
L 3047 4666 
L 3047 1625 
L 3713 1625 
L 3713 1100 
L 3047 1100 
L 3047 0 
L 2419 0 
L 2419 1100 
L 313 1100 
L 313 1709 
L 2253 4666 
z
" transform="scale(0.015625)"/>
       </defs>
       <use xlink:href="#DejaVuSans-34"/>
       <use xlink:href="#DejaVuSans-30" transform="translate(63.623047 0)"/>
      </g>
     </g>
    </g>
    <g id="ytick_6">
     <g id="line2d_23">
      <path d="M 44.66 101.208462 
L 853.2 101.208462 
" clip-path="url(#p66e8bcc77d)" style="fill: none; stroke: #b0b0b0; stroke-width: 0.8; stroke-linecap: square"/>
     </g>
     <g id="line2d_24">
      <g>
       <use xlink:href="#mb0975f6df6" x="44.66" y="101.208462" style="stroke: #000000; stroke-width: 0.8"/>
      </g>
     </g>
     <g id="text_13">
      <!-- 50 -->
      <g transform="translate(24.935 105.007681) scale(0.1 -0.1)">
       <defs>
        <path id="DejaVuSans-35" d="M 691 4666 
L 3169 4666 
L 3169 4134 
L 1269 4134 
L 1269 2991 
Q 1406 3038 1543 3061 
Q 1681 3084 1819 3084 
Q 2600 3084 3056 2656 
Q 3513 2228 3513 1497 
Q 3513 744 3044 326 
Q 2575 -91 1722 -91 
Q 1428 -91 1123 -41 
Q 819 9 494 109 
L 494 744 
Q 775 591 1075 516 
Q 1375 441 1709 441 
Q 2250 441 2565 725 
Q 2881 1009 2881 1497 
Q 2881 1984 2565 2268 
Q 2250 2553 1709 2553 
Q 1456 2553 1204 2497 
Q 953 2441 691 2322 
L 691 4666 
z
" transform="scale(0.015625)"/>
       </defs>
       <use xlink:href="#DejaVuSans-35"/>
       <use xlink:href="#DejaVuSans-30" transform="translate(63.623047 0)"/>
      </g>
     </g>
    </g>
    <g id="ytick_7">
     <g id="line2d_25">
      <path d="M 44.66 61.350504 
L 853.2 61.350504 
" clip-path="url(#p66e8bcc77d)" style="fill: none; stroke: #b0b0b0; stroke-width: 0.8; stroke-linecap: square"/>
     </g>
     <g id="line2d_26">
      <g>
       <use xlink:href="#mb0975f6df6" x="44.66" y="61.350504" style="stroke: #000000; stroke-width: 0.8"/>
      </g>
     </g>
     <g id="text_14">
      <!-- 60 -->
      <g transform="translate(24.935 65.149722) scale(0.1 -0.1)">
       <use xlink:href="#DejaVuSans-36"/>
       <use xlink:href="#DejaVuSans-30" transform="translate(63.623047 0)"/>
      </g>
     </g>
    </g>
    <g id="text_15">
     <!-- Residual / ppm -->
     <g transform="translate(18.855313 208.936875) rotate(-90) scale(0.1 -0.1)">
      <defs>
       <path id="DejaVuSans-52" d="M 2841 2188 
Q 3044 2119 3236 1894 
Q 3428 1669 3622 1275 
L 4263 0 
L 3584 0 
L 2988 1197 
Q 2756 1666 2539 1819 
Q 2322 1972 1947 1972 
L 1259 1972 
L 1259 0 
L 628 0 
L 628 4666 
L 2053 4666 
Q 2853 4666 3247 4331 
Q 3641 3997 3641 3322 
Q 3641 2881 3436 2590 
Q 3231 2300 2841 2188 
z
M 1259 4147 
L 1259 2491 
L 2053 2491 
Q 2509 2491 2742 2702 
Q 2975 2913 2975 3322 
Q 2975 3731 2742 3939 
Q 2509 4147 2053 4147 
L 1259 4147 
z
" transform="scale(0.015625)"/>
       <path id="DejaVuSans-73" d="M 2834 3397 
L 2834 2853 
Q 2591 2978 2328 3040 
Q 2066 3103 1784 3103 
Q 1356 3103 1142 2972 
Q 928 2841 928 2578 
Q 928 2378 1081 2264 
Q 1234 2150 1697 2047 
L 1894 2003 
Q 2506 1872 2764 1633 
Q 3022 1394 3022 966 
Q 3022 478 2636 193 
Q 2250 -91 1575 -91 
Q 1294 -91 989 -36 
Q 684 19 347 128 
L 347 722 
Q 666 556 975 473 
Q 1284 391 1588 391 
Q 1994 391 2212 530 
Q 2431 669 2431 922 
Q 2431 1156 2273 1281 
Q 2116 1406 1581 1522 
L 1381 1569 
Q 847 1681 609 1914 
Q 372 2147 372 2553 
Q 372 3047 722 3315 
Q 1072 3584 1716 3584 
Q 2034 3584 2315 3537 
Q 2597 3491 2834 3397 
z
" transform="scale(0.015625)"/>
       <path id="DejaVuSans-69" d="M 603 3500 
L 1178 3500 
L 1178 0 
L 603 0 
L 603 3500 
z
M 603 4863 
L 1178 4863 
L 1178 4134 
L 603 4134 
L 603 4863 
z
" transform="scale(0.015625)"/>
       <path id="DejaVuSans-64" d="M 2906 2969 
L 2906 4863 
L 3481 4863 
L 3481 0 
L 2906 0 
L 2906 525 
Q 2725 213 2448 61 
Q 2172 -91 1784 -91 
Q 1150 -91 751 415 
Q 353 922 353 1747 
Q 353 2572 751 3078 
Q 1150 3584 1784 3584 
Q 2172 3584 2448 3432 
Q 2725 3281 2906 2969 
z
M 947 1747 
Q 947 1113 1208 752 
Q 1469 391 1925 391 
Q 2381 391 2643 752 
Q 2906 1113 2906 1747 
Q 2906 2381 2643 2742 
Q 2381 3103 1925 3103 
Q 1469 3103 1208 2742 
Q 947 2381 947 1747 
z
" transform="scale(0.015625)"/>
       <path id="DejaVuSans-75" d="M 544 1381 
L 544 3500 
L 1119 3500 
L 1119 1403 
Q 1119 906 1312 657 
Q 1506 409 1894 409 
Q 2359 409 2629 706 
Q 2900 1003 2900 1516 
L 2900 3500 
L 3475 3500 
L 3475 0 
L 2900 0 
L 2900 538 
Q 2691 219 2414 64 
Q 2138 -91 1772 -91 
Q 1169 -91 856 284 
Q 544 659 544 1381 
z
M 1991 3584 
L 1991 3584 
z
" transform="scale(0.015625)"/>
       <path id="DejaVuSans-6c" d="M 603 4863 
L 1178 4863 
L 1178 0 
L 603 0 
L 603 4863 
z
" transform="scale(0.015625)"/>
       <path id="DejaVuSans-20" transform="scale(0.015625)"/>
       <path id="DejaVuSans-2f" d="M 1625 4666 
L 2156 4666 
L 531 -594 
L 0 -594 
L 1625 4666 
z
" transform="scale(0.015625)"/>
       <path id="DejaVuSans-70" d="M 1159 525 
L 1159 -1331 
L 581 -1331 
L 581 3500 
L 1159 3500 
L 1159 2969 
Q 1341 3281 1617 3432 
Q 1894 3584 2278 3584 
Q 2916 3584 3314 3078 
Q 3713 2572 3713 1747 
Q 3713 922 3314 415 
Q 2916 -91 2278 -91 
Q 1894 -91 1617 61 
Q 1341 213 1159 525 
z
M 3116 1747 
Q 3116 2381 2855 2742 
Q 2594 3103 2138 3103 
Q 1681 3103 1420 2742 
Q 1159 2381 1159 1747 
Q 1159 1113 1420 752 
Q 1681 391 2138 391 
Q 2594 391 2855 752 
Q 3116 1113 3116 1747 
z
" transform="scale(0.015625)"/>
       <path id="DejaVuSans-6d" d="M 3328 2828 
Q 3544 3216 3844 3400 
Q 4144 3584 4550 3584 
Q 5097 3584 5394 3201 
Q 5691 2819 5691 2113 
L 5691 0 
L 5113 0 
L 5113 2094 
Q 5113 2597 4934 2840 
Q 4756 3084 4391 3084 
Q 3944 3084 3684 2787 
Q 3425 2491 3425 1978 
L 3425 0 
L 2847 0 
L 2847 2094 
Q 2847 2600 2669 2842 
Q 2491 3084 2119 3084 
Q 1678 3084 1418 2786 
Q 1159 2488 1159 1978 
L 1159 0 
L 581 0 
L 581 3500 
L 1159 3500 
L 1159 2956 
Q 1356 3278 1631 3431 
Q 1906 3584 2284 3584 
Q 2666 3584 2933 3390 
Q 3200 3197 3328 2828 
z
" transform="scale(0.015625)"/>
      </defs>
      <use xlink:href="#DejaVuSans-52"/>
      <use xlink:href="#DejaVuSans-65" transform="translate(64.982422 0)"/>
      <use xlink:href="#DejaVuSans-73" transform="translate(126.505859 0)"/>
      <use xlink:href="#DejaVuSans-69" transform="translate(178.605469 0)"/>
      <use xlink:href="#DejaVuSans-64" transform="translate(206.388672 0)"/>
      <use xlink:href="#DejaVuSans-75" transform="translate(269.865234 0)"/>
      <use xlink:href="#DejaVuSans-61" transform="translate(333.244141 0)"/>
      <use xlink:href="#DejaVuSans-6c" transform="translate(394.523438 0)"/>
      <use xlink:href="#DejaVuSans-20" transform="translate(422.306641 0)"/>
      <use xlink:href="#DejaVuSans-2f" transform="translate(454.09375 0)"/>
      <use xlink:href="#DejaVuSans-20" transform="translate(487.785156 0)"/>
      <use xlink:href="#DejaVuSans-70" transform="translate(519.572266 0)"/>
      <use xlink:href="#DejaVuSans-70" transform="translate(583.048828 0)"/>
      <use xlink:href="#DejaVuSans-6d" transform="translate(646.525391 0)"/>
     </g>
    </g>
   </g>
   <g id="line2d_27">
    <path d="M 44.66 300.498254 
L 853.2 300.498254 
" clip-path="url(#p66e8bcc77d)" style="fill: none; stroke-dasharray: 5.55,2.4; stroke-dashoffset: 0; stroke: #808080; stroke-width: 1.5"/>
   </g>
   <g id="line2d_28">
    <path d="M 81.411818 38.74 
L 82.598163 303.464673 
L 83.746239 301.241975 
L 84.932584 303.607681 
L 86.118929 294.735293 
L 87.267005 300.952227 
L 88.453349 299.395989 
L 89.601425 304.666352 
L 90.78777 299.730971 
L 91.974115 300.786935 
L 94.270267 298.284815 
L 95.418342 299.759059 
L 96.604687 303.076849 
L 97.752763 301.645395 
L 98.939108 303.563434 
L 100.125453 304.74 
L 101.273529 300.508353 
L 102.459874 300.506036 
L 103.607949 298.967715 
L 104.794294 300.080539 
L 107.052177 298.937287 
L 108.238522 301.27468 
L 109.386597 299.29715 
L 110.572942 301.78259 
L 111.721018 300.11178 
L 112.907363 299.09319 
L 114.093708 302.122122 
L 115.241784 298.170945 
L 116.428129 301.032377 
L 117.576204 301.764132 
L 118.762549 299.928945 
L 119.948894 300.331869 
L 121.020432 298.730928 
L 122.206776 300.905349 
L 123.354852 302.646177 
L 124.541197 300.960494 
L 125.689273 298.487504 
L 126.875618 300.674407 
L 128.061963 299.708505 
L 129.210039 302.006674 
L 130.396383 301.099705 
L 131.544459 299.964619 
L 132.730804 299.346472 
L 133.917149 301.280697 
L 134.988686 301.055338 
L 136.175031 298.700851 
L 137.323107 299.329186 
L 138.509452 301.496186 
L 139.657528 302.63785 
L 140.843873 301.188708 
L 143.178293 300.150642 
L 144.364638 300.372783 
L 145.512714 299.161993 
L 146.699059 298.267934 
L 147.885404 300.215957 
L 148.995211 301.210058 
L 150.181556 300.851467 
L 151.329631 301.886781 
L 152.515976 300.487575 
L 153.664052 300.39989 
L 154.850397 299.552474 
L 156.036742 302.005082 
L 157.184818 299.371988 
L 158.371163 300.651746 
L 159.519238 300.947434 
L 160.705583 301.04921 
L 161.891928 298.897835 
L 162.963466 300.881051 
L 164.14981 300.757941 
L 165.297886 302.96439 
L 166.484231 300.795583 
L 167.632307 296.748157 
L 168.818652 300.288071 
L 170.004997 299.264426 
L 171.153073 300.384179 
L 172.339417 299.022038 
L 173.487493 301.444295 
L 174.673838 300.36412 
L 175.860183 298.297488 
L 176.93172 299.561712 
L 178.118065 299.891018 
L 179.266141 301.261359 
L 180.452486 300.430452 
L 181.600562 300.299291 
L 182.786907 300.704831 
L 185.121327 302.008324 
L 186.307672 298.743174 
L 187.455748 298.339929 
L 188.642093 298.54284 
L 189.828438 301.796178 
L 190.899975 302.357203 
L 192.08632 300.149707 
L 193.234396 299.953226 
L 194.420741 302.284694 
L 195.568817 302.512368 
L 196.755162 299.392333 
L 197.941507 300.358552 
L 199.089582 299.047522 
L 200.275927 299.041472 
L 201.424003 299.190376 
L 202.610348 301.540164 
L 203.796693 301.647031 
L 204.9065 300.59647 
L 206.092845 300.804947 
L 207.24092 300.593009 
L 208.427265 299.426698 
L 209.575341 299.636697 
L 210.761686 300.513589 
L 211.948031 301.62125 
L 213.096107 300.140344 
L 214.282452 300.853954 
L 215.430527 298.697797 
L 216.616872 298.97648 
L 217.803217 301.115643 
L 218.874755 298.878372 
L 220.061099 300.326131 
L 221.209175 300.286687 
L 222.39552 300.909265 
L 223.543596 298.949465 
L 224.729941 300.677082 
L 225.916286 300.056657 
L 227.064362 301.503542 
L 228.250706 302.127821 
L 229.398782 300.239872 
L 230.585127 300.263409 
L 231.771472 299.247033 
L 232.843009 299.100115 
L 234.029354 300.24519 
L 235.17743 303.05232 
L 236.363775 301.556364 
L 237.511851 300.61097 
L 238.698196 299.401724 
L 239.884541 299.991912 
L 241.032616 299.820697 
L 242.218961 301.312912 
L 243.367037 301.262556 
L 244.553382 300.393635 
L 245.739727 300.733069 
L 246.811264 301.977795 
L 247.997609 303.536737 
L 249.145685 299.25285 
L 250.33203 298.726781 
L 251.480106 300.173055 
L 252.666451 300.289127 
L 253.852796 302.582248 
L 255.000871 299.752423 
L 256.187216 299.399008 
L 257.335292 300.248085 
L 258.521637 301.329477 
L 259.707982 300.05686 
L 260.817789 302.786958 
L 262.004133 298.658947 
L 263.152209 299.490875 
L 264.338554 302.883595 
L 265.48663 300.779379 
L 266.672975 299.2307 
L 267.85932 299.715186 
L 269.007396 298.069182 
L 270.19374 298.887399 
L 271.341816 300.758042 
L 272.528161 300.716657 
L 273.714506 298.97564 
L 274.786043 299.795835 
L 275.972388 300.373134 
L 277.120464 298.868002 
L 278.306809 299.48075 
L 279.454885 300.37801 
L 280.64123 299.135906 
L 281.827575 300.593327 
L 282.97565 301.805097 
L 284.161995 301.887604 
L 285.310071 303.762195 
L 286.496416 302.956922 
L 287.682761 298.387423 
L 288.754298 298.735197 
L 289.940643 300.679826 
L 291.088719 300.894682 
L 292.275064 302.457262 
L 293.42314 301.203132 
L 294.609485 300.57474 
L 295.79583 301.472947 
L 296.943905 300.836963 
L 298.13025 301.117314 
L 300.464671 299.405014 
L 301.651016 300.252288 
L 302.722553 301.400338 
L 303.908898 301.19874 
L 305.056974 299.782349 
L 306.243319 300.013846 
L 307.391395 301.517773 
L 308.57774 301.75757 
L 309.764085 300.155593 
L 310.91216 300.235086 
L 312.098505 301.127617 
L 313.246581 299.483973 
L 314.432926 300.385761 
L 315.619271 299.395744 
L 316.729078 300.054644 
L 317.915422 300.040525 
L 319.063498 302.794921 
L 320.249843 302.458077 
L 321.397919 299.578032 
L 322.584264 302.02573 
L 323.770609 301.881166 
L 324.918685 301.179693 
L 326.105029 299.561935 
L 327.253105 298.412374 
L 328.43945 299.3306 
L 329.625795 301.681575 
L 330.697332 296.694402 
L 333.031753 299.953215 
L 334.218098 300.85632 
L 335.366174 301.172036 
L 336.552519 302.377573 
L 337.738864 299.961325 
L 338.886939 299.397766 
L 340.073284 300.199432 
L 341.22136 300.515352 
L 342.407705 298.989347 
L 343.59405 301.896386 
L 344.665587 298.934473 
L 345.851932 300.019154 
L 347.000008 301.896454 
L 348.186353 298.578316 
L 349.334429 300.650229 
L 351.707119 302.510661 
L 352.855194 300.617364 
L 354.041539 299.604433 
L 355.189615 300.429838 
L 356.37596 299.630762 
L 357.562305 300.992326 
L 358.633842 298.250109 
L 359.820187 301.831518 
L 360.968263 302.539317 
L 362.154608 298.375974 
L 363.302684 301.33935 
L 364.489029 300.773414 
L 365.675374 300.709598 
L 366.823449 299.405757 
L 368.009794 300.25379 
L 369.15787 299.5496 
L 370.344215 299.721555 
L 371.53056 301.587942 
L 372.640366 298.154693 
L 373.826711 300.268398 
L 374.974787 301.270062 
L 376.161132 298.986266 
L 377.309208 302.313133 
L 378.495553 300.925913 
L 379.681898 299.112254 
L 380.829973 300.325214 
L 383.164394 301.478701 
L 384.350739 301.247635 
L 385.537084 298.417171 
L 386.608621 299.460476 
L 387.794966 301.055012 
L 388.943042 301.139199 
L 390.129387 301.094319 
L 391.277463 302.210397 
L 392.463808 302.733741 
L 393.650153 300.774634 
L 395.984573 298.939097 
L 397.132649 299.411895 
L 398.318994 300.518841 
L 399.505339 300.115507 
L 400.576876 300.87382 
L 401.763221 300.351955 
L 402.911297 299.143852 
L 404.097642 302.014372 
L 406.432063 301.408077 
L 407.618408 301.958198 
L 408.766483 300.82367 
L 409.952828 301.113386 
L 411.100904 300.338265 
L 412.287249 301.315805 
L 413.473594 299.315844 
L 414.545131 301.865792 
L 415.731476 297.775095 
L 416.879552 297.697605 
L 418.065897 299.968477 
L 419.213973 300.369425 
L 420.400318 299.632967 
L 421.586663 301.824574 
L 422.734738 301.162488 
L 423.921083 300.307785 
L 425.069159 299.768149 
L 426.255504 300.302079 
L 427.441849 300.989894 
L 428.551655 302.126137 
L 429.738 298.998925 
L 430.886076 300.093439 
L 432.072421 301.4784 
L 433.220497 300.469092 
L 434.406842 300.434263 
L 435.593187 302.493334 
L 436.741262 300.490176 
L 437.927607 299.069916 
L 439.075683 298.316813 
L 440.262028 301.781213 
L 441.448373 301.305844 
L 442.51991 298.501137 
L 443.706255 301.631511 
L 444.854331 301.463323 
L 446.040676 301.13564 
L 447.188752 302.064191 
L 448.375097 299.686485 
L 449.561442 299.988055 
L 450.709517 301.260936 
L 451.895862 300.274342 
L 453.043938 299.867166 
L 454.230283 301.639046 
L 456.488165 301.836482 
L 457.67451 299.746038 
L 458.822586 299.491816 
L 461.157007 301.716573 
L 462.343352 301.447197 
L 463.529697 296.331675 
L 464.677772 301.139965 
L 465.864117 301.478798 
L 467.012193 300.61595 
L 468.198538 299.355567 
L 469.384883 302.436507 
L 470.45642 302.574165 
L 471.642765 299.498011 
L 472.790841 299.138373 
L 473.977186 300.438144 
L 475.125262 300.119537 
L 476.311607 300.485072 
L 477.497952 299.914738 
L 478.646027 299.901152 
L 479.832372 300.129172 
L 480.980448 300.992956 
L 482.166793 299.535256 
L 483.353138 298.274685 
L 484.462944 300.632215 
L 485.649289 301.552807 
L 486.797365 300.50957 
L 487.98371 300.216628 
L 489.131786 298.698698 
L 490.318131 301.011463 
L 491.504476 300.954751 
L 492.652551 298.509946 
L 493.838896 300.619446 
L 494.986972 301.616333 
L 496.173317 298.878883 
L 497.359662 301.098444 
L 498.431199 302.74049 
L 499.617544 300.035244 
L 500.76562 301.49077 
L 501.951965 301.335039 
L 503.100041 300.181745 
L 504.286386 301.237337 
L 505.472731 301.656906 
L 506.620806 299.802782 
L 507.807151 300.310052 
L 510.141572 300.725088 
L 511.327917 298.836507 
L 512.399454 300.824369 
L 513.585799 303.974956 
L 514.733875 300.413814 
L 515.92022 301.653087 
L 517.068296 301.807425 
L 518.254641 299.842477 
L 519.440986 300.481727 
L 520.589061 299.628107 
L 521.775406 299.245945 
L 522.923482 300.29373 
L 524.109827 302.783316 
L 525.296172 301.113466 
L 526.367709 297.845163 
L 527.554054 298.854731 
L 529.888475 302.660936 
L 531.036551 303.496585 
L 532.222896 302.689985 
L 533.409241 301.187283 
L 535.743661 299.742259 
L 536.891737 300.087528 
L 539.264427 300.099475 
L 540.374233 301.023871 
L 541.560578 300.854274 
L 542.708654 301.086493 
L 543.894999 299.438183 
L 545.043075 303.119808 
L 547.415765 302.206702 
L 548.56384 300.099934 
L 549.750185 301.050718 
L 550.898261 301.262072 
L 552.084606 298.805163 
L 553.270951 301.62211 
L 554.342488 300.756514 
L 555.528833 301.993885 
L 556.676909 300.245577 
L 557.863254 299.958145 
L 559.01133 303.048405 
L 560.197675 300.235068 
L 561.38402 299.625855 
L 562.532095 300.568676 
L 563.71844 300.580419 
L 566.052861 298.845188 
L 567.239206 300.364573 
L 569.497088 300.266411 
L 570.645164 301.247071 
L 571.831509 301.86007 
L 572.979585 300.001951 
L 574.16593 299.415529 
L 575.352275 300.426293 
L 576.50035 299.810927 
L 577.686695 299.434169 
L 578.834771 299.617274 
L 580.021116 300.788832 
L 581.207461 299.941994 
L 582.278998 300.114427 
L 583.465343 299.488711 
L 584.613419 300.945426 
L 585.799764 300.550009 
L 586.94784 299.588662 
L 588.134185 301.910489 
L 589.320529 298.775433 
L 590.468605 300.496054 
L 591.65495 300.478213 
L 592.803026 300.670569 
L 593.989371 299.680838 
L 595.175716 298.320544 
L 596.285522 300.008547 
L 597.471867 303.918662 
L 598.619943 302.317567 
L 599.806288 298.815951 
L 600.954364 298.377924 
L 602.140709 300.349712 
L 603.327054 301.638735 
L 604.475129 301.484894 
L 605.661474 300.768024 
L 606.80955 300.500128 
L 607.995895 301.510233 
L 609.18224 300.344157 
L 610.253777 302.372537 
L 611.440122 299.100297 
L 612.588198 300.365728 
L 613.774543 302.892717 
L 614.922619 299.925156 
L 616.108964 299.661912 
L 617.295309 301.988184 
L 618.443384 299.625576 
L 619.629729 298.281166 
L 620.777805 297.70749 
L 621.96415 300.396199 
L 623.150495 301.572939 
L 624.222032 299.593531 
L 625.408377 298.777173 
L 627.742798 299.527525 
L 628.890874 298.483703 
L 630.077219 298.821681 
L 631.263564 301.35526 
L 632.411639 300.171603 
L 633.597984 300.921306 
L 634.74606 299.947175 
L 637.11875 300.307264 
L 638.190287 301.810257 
L 639.376632 301.006479 
L 640.524708 302.66211 
L 641.711053 301.870597 
L 642.859129 297.913018 
L 644.045474 301.063469 
L 645.231818 303.212016 
L 646.379894 299.880122 
L 647.566239 299.82742 
L 648.714315 300.801564 
L 649.90066 300.102861 
L 651.087005 302.584133 
L 652.196811 301.306289 
L 653.383156 300.468151 
L 654.531232 303.641571 
L 655.717577 299.221039 
L 656.865653 300.658608 
L 658.051998 300.053838 
L 659.238343 297.393403 
L 660.386418 300.073345 
L 661.572763 300.948698 
L 663.907184 301.371061 
L 665.093529 300.364692 
L 666.165066 300.140706 
L 667.351411 301.848497 
L 668.499487 301.026903 
L 669.685832 300.678785 
L 670.833908 301.930683 
L 673.206598 298.874295 
L 674.354673 299.861235 
L 675.541018 300.593632 
L 676.689094 300.409796 
L 677.875439 299.600737 
L 679.061784 300.472982 
L 680.133321 300.672673 
L 681.319666 301.930698 
L 682.467742 299.719293 
L 683.654087 298.746579 
L 684.802163 300.261849 
L 685.988508 300.949137 
L 687.174852 298.50525 
L 688.322928 301.11241 
L 689.509273 300.014324 
L 690.657349 299.328686 
L 691.843694 300.187292 
L 694.101576 301.001792 
L 695.287921 300.391387 
L 696.435997 298.485366 
L 697.622342 298.90539 
L 698.770418 300.513072 
L 699.956762 301.776751 
L 701.143107 299.61823 
L 702.291183 300.767884 
L 703.477528 300.406859 
L 704.625604 300.655114 
L 705.811949 301.136818 
L 706.998294 300.274623 
L 708.1081 299.939293 
L 709.294445 299.089879 
L 710.442521 300.686193 
L 711.628866 302.862363 
L 712.776942 304.359911 
L 713.963287 299.653099 
L 716.297707 300.806944 
L 717.484052 299.31515 
L 719.818473 301.283344 
L 721.004818 298.787105 
L 722.076355 298.986937 
L 723.2627 298.944474 
L 724.410776 301.187313 
L 725.597121 300.340857 
L 726.745197 299.746722 
L 727.931542 300.130512 
L 729.117887 302.573627 
L 730.265962 301.003047 
L 731.452307 300.593847 
L 732.600383 299.379679 
L 733.786728 299.049054 
L 734.973073 300.109147 
L 736.04461 302.411457 
L 737.230955 298.745955 
L 738.379031 299.240696 
L 739.565376 302.512077 
L 740.713452 301.379842 
L 741.899797 300.708506 
L 743.086141 300.674427 
L 744.234217 300.009672 
L 745.420562 302.062531 
L 746.568638 300.546088 
L 747.754983 300.022829 
L 748.941328 299.907923 
L 750.012865 301.136302 
L 751.19921 298.611475 
L 752.347286 300.766877 
L 753.533631 301.096281 
L 754.681707 300.420222 
L 755.868051 302.508718 
L 757.054396 299.273717 
L 758.202472 299.408676 
L 759.388817 300.969732 
L 760.536893 300.756257 
L 761.723238 298.562443 
L 762.909583 301.883217 
L 764.019389 304.277595 
L 765.205734 303.324025 
L 766.35381 297.091037 
L 767.540155 299.330549 
L 768.688231 300.100924 
L 769.874576 301.147167 
L 771.060921 298.451574 
L 772.208996 300.708229 
L 773.395341 302.081505 
L 774.543417 301.453834 
L 775.729762 299.770652 
L 776.916107 301.30118 
L 777.987644 299.047259 
L 779.173989 302.382262 
L 780.322065 301.318438 
L 781.50841 300.587596 
L 782.656486 300.240987 
L 783.842831 299.690624 
L 785.029175 299.701828 
L 786.177251 302.17034 
L 787.363596 300.613082 
L 789.698017 300.380201 
L 790.884362 297.444055 
L 791.955899 298.268834 
L 793.142244 300.431648 
L 794.29032 300.711837 
L 795.476665 301.532289 
L 796.624741 302.694441 
L 797.811085 300.429246 
L 798.99743 300.476719 
L 800.145506 299.568748 
L 801.331851 299.598542 
L 802.479927 301.820764 
L 803.666272 300.112385 
L 804.852617 300.878101 
L 805.924154 301.387154 
L 807.110499 303.332303 
L 808.258575 300.202663 
L 809.44492 299.089909 
L 810.592995 298.886766 
L 811.77934 301.090486 
L 812.965685 299.779258 
L 815.300106 301.264443 
L 816.448182 300.236604 
L 816.448182 300.236604 
" clip-path="url(#p66e8bcc77d)" style="fill: none; stroke: #1f77b4; stroke-width: 1.5; stroke-linecap: square"/>
   </g>
   <g id="patch_3">
    <path d="M 44.66 318.04 
L 44.66 25.44 
" style="fill: none; stroke: #000000; stroke-width: 0.8; stroke-linejoin: miter; stroke-linecap: square"/>
   </g>
   <g id="patch_4">
    <path d="M 853.2 318.04 
L 853.2 25.44 
" style="fill: none; stroke: #000000; stroke-width: 0.8; stroke-linejoin: miter; stroke-linecap: square"/>
   </g>
   <g id="patch_5">
    <path d="M 44.66 318.04 
L 853.2 318.04 
" style="fill: none; stroke: #000000; stroke-width: 0.8; stroke-linejoin: miter; stroke-linecap: square"/>
   </g>
   <g id="patch_6">
    <path d="M 44.66 25.44 
L 853.2 25.44 
" style="fill: none; stroke: #000000; stroke-width: 0.8; stroke-linejoin: miter; stroke-linecap: square"/>
   </g>
   <g id="text_16">
    <!-- SARIMA(1,2,1)(1,1,1,12): training_data Residuals Over Time -->
    <g transform="translate(269.260938 19.44) scale(0.12 -0.12)">
     <defs>
      <path id="DejaVuSans-53" d="M 3425 4513 
L 3425 3897 
Q 3066 4069 2747 4153 
Q 2428 4238 2131 4238 
Q 1616 4238 1336 4038 
Q 1056 3838 1056 3469 
Q 1056 3159 1242 3001 
Q 1428 2844 1947 2747 
L 2328 2669 
Q 3034 2534 3370 2195 
Q 3706 1856 3706 1288 
Q 3706 609 3251 259 
Q 2797 -91 1919 -91 
Q 1588 -91 1214 -16 
Q 841 59 441 206 
L 441 856 
Q 825 641 1194 531 
Q 1563 422 1919 422 
Q 2459 422 2753 634 
Q 3047 847 3047 1241 
Q 3047 1584 2836 1778 
Q 2625 1972 2144 2069 
L 1759 2144 
Q 1053 2284 737 2584 
Q 422 2884 422 3419 
Q 422 4038 858 4394 
Q 1294 4750 2059 4750 
Q 2388 4750 2728 4690 
Q 3069 4631 3425 4513 
z
" transform="scale(0.015625)"/>
      <path id="DejaVuSans-41" d="M 2188 4044 
L 1331 1722 
L 3047 1722 
L 2188 4044 
z
M 1831 4666 
L 2547 4666 
L 4325 0 
L 3669 0 
L 3244 1197 
L 1141 1197 
L 716 0 
L 50 0 
L 1831 4666 
z
" transform="scale(0.015625)"/>
      <path id="DejaVuSans-49" d="M 628 4666 
L 1259 4666 
L 1259 0 
L 628 0 
L 628 4666 
z
" transform="scale(0.015625)"/>
      <path id="DejaVuSans-4d" d="M 628 4666 
L 1569 4666 
L 2759 1491 
L 3956 4666 
L 4897 4666 
L 4897 0 
L 4281 0 
L 4281 4097 
L 3078 897 
L 2444 897 
L 1241 4097 
L 1241 0 
L 628 0 
L 628 4666 
z
" transform="scale(0.015625)"/>
      <path id="DejaVuSans-28" d="M 1984 4856 
Q 1566 4138 1362 3434 
Q 1159 2731 1159 2009 
Q 1159 1288 1364 580 
Q 1569 -128 1984 -844 
L 1484 -844 
Q 1016 -109 783 600 
Q 550 1309 550 2009 
Q 550 2706 781 3412 
Q 1013 4119 1484 4856 
L 1984 4856 
z
" transform="scale(0.015625)"/>
      <path id="DejaVuSans-2c" d="M 750 794 
L 1409 794 
L 1409 256 
L 897 -744 
L 494 -744 
L 750 256 
L 750 794 
z
" transform="scale(0.015625)"/>
      <path id="DejaVuSans-29" d="M 513 4856 
L 1013 4856 
Q 1481 4119 1714 3412 
Q 1947 2706 1947 2009 
Q 1947 1309 1714 600 
Q 1481 -109 1013 -844 
L 513 -844 
Q 928 -128 1133 580 
Q 1338 1288 1338 2009 
Q 1338 2731 1133 3434 
Q 928 4138 513 4856 
z
" transform="scale(0.015625)"/>
      <path id="DejaVuSans-3a" d="M 750 794 
L 1409 794 
L 1409 0 
L 750 0 
L 750 794 
z
M 750 3309 
L 1409 3309 
L 1409 2516 
L 750 2516 
L 750 3309 
z
" transform="scale(0.015625)"/>
      <path id="DejaVuSans-72" d="M 2631 2963 
Q 2534 3019 2420 3045 
Q 2306 3072 2169 3072 
Q 1681 3072 1420 2755 
Q 1159 2438 1159 1844 
L 1159 0 
L 581 0 
L 581 3500 
L 1159 3500 
L 1159 2956 
Q 1341 3275 1631 3429 
Q 1922 3584 2338 3584 
Q 2397 3584 2469 3576 
Q 2541 3569 2628 3553 
L 2631 2963 
z
" transform="scale(0.015625)"/>
      <path id="DejaVuSans-6e" d="M 3513 2113 
L 3513 0 
L 2938 0 
L 2938 2094 
Q 2938 2591 2744 2837 
Q 2550 3084 2163 3084 
Q 1697 3084 1428 2787 
Q 1159 2491 1159 1978 
L 1159 0 
L 581 0 
L 581 3500 
L 1159 3500 
L 1159 2956 
Q 1366 3272 1645 3428 
Q 1925 3584 2291 3584 
Q 2894 3584 3203 3211 
Q 3513 2838 3513 2113 
z
" transform="scale(0.015625)"/>
      <path id="DejaVuSans-67" d="M 2906 1791 
Q 2906 2416 2648 2759 
Q 2391 3103 1925 3103 
Q 1463 3103 1205 2759 
Q 947 2416 947 1791 
Q 947 1169 1205 825 
Q 1463 481 1925 481 
Q 2391 481 2648 825 
Q 2906 1169 2906 1791 
z
M 3481 434 
Q 3481 -459 3084 -895 
Q 2688 -1331 1869 -1331 
Q 1566 -1331 1297 -1286 
Q 1028 -1241 775 -1147 
L 775 -588 
Q 1028 -725 1275 -790 
Q 1522 -856 1778 -856 
Q 2344 -856 2625 -561 
Q 2906 -266 2906 331 
L 2906 616 
Q 2728 306 2450 153 
Q 2172 0 1784 0 
Q 1141 0 747 490 
Q 353 981 353 1791 
Q 353 2603 747 3093 
Q 1141 3584 1784 3584 
Q 2172 3584 2450 3431 
Q 2728 3278 2906 2969 
L 2906 3500 
L 3481 3500 
L 3481 434 
z
" transform="scale(0.015625)"/>
      <path id="DejaVuSans-5f" d="M 3263 -1063 
L 3263 -1509 
L -63 -1509 
L -63 -1063 
L 3263 -1063 
z
" transform="scale(0.015625)"/>
      <path id="DejaVuSans-4f" d="M 2522 4238 
Q 1834 4238 1429 3725 
Q 1025 3213 1025 2328 
Q 1025 1447 1429 934 
Q 1834 422 2522 422 
Q 3209 422 3611 934 
Q 4013 1447 4013 2328 
Q 4013 3213 3611 3725 
Q 3209 4238 2522 4238 
z
M 2522 4750 
Q 3503 4750 4090 4092 
Q 4678 3434 4678 2328 
Q 4678 1225 4090 567 
Q 3503 -91 2522 -91 
Q 1538 -91 948 565 
Q 359 1222 359 2328 
Q 359 3434 948 4092 
Q 1538 4750 2522 4750 
z
" transform="scale(0.015625)"/>
      <path id="DejaVuSans-76" d="M 191 3500 
L 800 3500 
L 1894 563 
L 2988 3500 
L 3597 3500 
L 2284 0 
L 1503 0 
L 191 3500 
z
" transform="scale(0.015625)"/>
      <path id="DejaVuSans-54" d="M -19 4666 
L 3928 4666 
L 3928 4134 
L 2272 4134 
L 2272 0 
L 1638 0 
L 1638 4134 
L -19 4134 
L -19 4666 
z
" transform="scale(0.015625)"/>
     </defs>
     <use xlink:href="#DejaVuSans-53"/>
     <use xlink:href="#DejaVuSans-41" transform="translate(65.351562 0)"/>
     <use xlink:href="#DejaVuSans-52" transform="translate(133.759766 0)"/>
     <use xlink:href="#DejaVuSans-49" transform="translate(203.242188 0)"/>
     <use xlink:href="#DejaVuSans-4d" transform="translate(232.734375 0)"/>
     <use xlink:href="#DejaVuSans-41" transform="translate(319.013672 0)"/>
     <use xlink:href="#DejaVuSans-28" transform="translate(387.421875 0)"/>
     <use xlink:href="#DejaVuSans-31" transform="translate(426.435547 0)"/>
     <use xlink:href="#DejaVuSans-2c" transform="translate(490.058594 0)"/>
     <use xlink:href="#DejaVuSans-32" transform="translate(521.845703 0)"/>
     <use xlink:href="#DejaVuSans-2c" transform="translate(585.46875 0)"/>
     <use xlink:href="#DejaVuSans-31" transform="translate(617.255859 0)"/>
     <use xlink:href="#DejaVuSans-29" transform="translate(680.878906 0)"/>
     <use xlink:href="#DejaVuSans-28" transform="translate(719.892578 0)"/>
     <use xlink:href="#DejaVuSans-31" transform="translate(758.90625 0)"/>
     <use xlink:href="#DejaVuSans-2c" transform="translate(822.529297 0)"/>
     <use xlink:href="#DejaVuSans-31" transform="translate(854.316406 0)"/>
     <use xlink:href="#DejaVuSans-2c" transform="translate(917.939453 0)"/>
     <use xlink:href="#DejaVuSans-31" transform="translate(949.726562 0)"/>
     <use xlink:href="#DejaVuSans-2c" transform="translate(1013.349609 0)"/>
     <use xlink:href="#DejaVuSans-31" transform="translate(1045.136719 0)"/>
     <use xlink:href="#DejaVuSans-32" transform="translate(1108.759766 0)"/>
     <use xlink:href="#DejaVuSans-29" transform="translate(1172.382812 0)"/>
     <use xlink:href="#DejaVuSans-3a" transform="translate(1211.396484 0)"/>
     <use xlink:href="#DejaVuSans-20" transform="translate(1245.087891 0)"/>
     <use xlink:href="#DejaVuSans-74" transform="translate(1276.875 0)"/>
     <use xlink:href="#DejaVuSans-72" transform="translate(1316.083984 0)"/>
     <use xlink:href="#DejaVuSans-61" transform="translate(1357.197266 0)"/>
     <use xlink:href="#DejaVuSans-69" transform="translate(1418.476562 0)"/>
     <use xlink:href="#DejaVuSans-6e" transform="translate(1446.259766 0)"/>
     <use xlink:href="#DejaVuSans-69" transform="translate(1509.638672 0)"/>
     <use xlink:href="#DejaVuSans-6e" transform="translate(1537.421875 0)"/>
     <use xlink:href="#DejaVuSans-67" transform="translate(1600.800781 0)"/>
     <use xlink:href="#DejaVuSans-5f" transform="translate(1664.277344 0)"/>
     <use xlink:href="#DejaVuSans-64" transform="translate(1714.277344 0)"/>
     <use xlink:href="#DejaVuSans-61" transform="translate(1777.753906 0)"/>
     <use xlink:href="#DejaVuSans-74" transform="translate(1839.033203 0)"/>
     <use xlink:href="#DejaVuSans-61" transform="translate(1878.242188 0)"/>
     <use xlink:href="#DejaVuSans-20" transform="translate(1939.521484 0)"/>
     <use xlink:href="#DejaVuSans-52" transform="translate(1971.308594 0)"/>
     <use xlink:href="#DejaVuSans-65" transform="translate(2036.291016 0)"/>
     <use xlink:href="#DejaVuSans-73" transform="translate(2097.814453 0)"/>
     <use xlink:href="#DejaVuSans-69" transform="translate(2149.914062 0)"/>
     <use xlink:href="#DejaVuSans-64" transform="translate(2177.697266 0)"/>
     <use xlink:href="#DejaVuSans-75" transform="translate(2241.173828 0)"/>
     <use xlink:href="#DejaVuSans-61" transform="translate(2304.552734 0)"/>
     <use xlink:href="#DejaVuSans-6c" transform="translate(2365.832031 0)"/>
     <use xlink:href="#DejaVuSans-73" transform="translate(2393.615234 0)"/>
     <use xlink:href="#DejaVuSans-20" transform="translate(2445.714844 0)"/>
     <use xlink:href="#DejaVuSans-4f" transform="translate(2477.501953 0)"/>
     <use xlink:href="#DejaVuSans-76" transform="translate(2556.212891 0)"/>
     <use xlink:href="#DejaVuSans-65" transform="translate(2615.392578 0)"/>
     <use xlink:href="#DejaVuSans-72" transform="translate(2676.916016 0)"/>
     <use xlink:href="#DejaVuSans-20" transform="translate(2718.029297 0)"/>
     <use xlink:href="#DejaVuSans-54" transform="translate(2749.816406 0)"/>
     <use xlink:href="#DejaVuSans-69" transform="translate(2807.775391 0)"/>
     <use xlink:href="#DejaVuSans-6d" transform="translate(2835.558594 0)"/>
     <use xlink:href="#DejaVuSans-65" transform="translate(2932.970703 0)"/>
    </g>
   </g>
   <g id="legend_1">
    <g id="patch_7">
     <path d="M 748.395313 62.79625 
L 846.2 62.79625 
Q 848.2 62.79625 848.2 60.79625 
L 848.2 32.44 
Q 848.2 30.44 846.2 30.44 
L 748.395313 30.44 
Q 746.395313 30.44 746.395313 32.44 
L 746.395313 60.79625 
Q 746.395313 62.79625 748.395313 62.79625 
z
" style="fill: #ffffff; opacity: 0.8; stroke: #cccccc; stroke-linejoin: miter"/>
    </g>
    <g id="line2d_29">
     <path d="M 750.395313 38.538437 
L 760.395313 38.538437 
L 770.395313 38.538437 
" style="fill: none; stroke-dasharray: 5.55,2.4; stroke-dashoffset: 0; stroke: #808080; stroke-width: 1.5"/>
    </g>
    <g id="text_17">
     <!-- Zero residual -->
     <g transform="translate(778.395313 42.038437) scale(0.1 -0.1)">
      <defs>
       <path id="DejaVuSans-5a" d="M 359 4666 
L 4025 4666 
L 4025 4184 
L 1075 531 
L 4097 531 
L 4097 0 
L 288 0 
L 288 481 
L 3238 4134 
L 359 4134 
L 359 4666 
z
" transform="scale(0.015625)"/>
       <path id="DejaVuSans-6f" d="M 1959 3097 
Q 1497 3097 1228 2736 
Q 959 2375 959 1747 
Q 959 1119 1226 758 
Q 1494 397 1959 397 
Q 2419 397 2687 759 
Q 2956 1122 2956 1747 
Q 2956 2369 2687 2733 
Q 2419 3097 1959 3097 
z
M 1959 3584 
Q 2709 3584 3137 3096 
Q 3566 2609 3566 1747 
Q 3566 888 3137 398 
Q 2709 -91 1959 -91 
Q 1206 -91 779 398 
Q 353 888 353 1747 
Q 353 2609 779 3096 
Q 1206 3584 1959 3584 
z
" transform="scale(0.015625)"/>
      </defs>
      <use xlink:href="#DejaVuSans-5a"/>
      <use xlink:href="#DejaVuSans-65" transform="translate(68.505859 0)"/>
      <use xlink:href="#DejaVuSans-72" transform="translate(130.029297 0)"/>
      <use xlink:href="#DejaVuSans-6f" transform="translate(168.892578 0)"/>
      <use xlink:href="#DejaVuSans-20" transform="translate(230.074219 0)"/>
      <use xlink:href="#DejaVuSans-72" transform="translate(261.861328 0)"/>
      <use xlink:href="#DejaVuSans-65" transform="translate(300.724609 0)"/>
      <use xlink:href="#DejaVuSans-73" transform="translate(362.248047 0)"/>
      <use xlink:href="#DejaVuSans-69" transform="translate(414.347656 0)"/>
      <use xlink:href="#DejaVuSans-64" transform="translate(442.130859 0)"/>
      <use xlink:href="#DejaVuSans-75" transform="translate(505.607422 0)"/>
      <use xlink:href="#DejaVuSans-61" transform="translate(568.986328 0)"/>
      <use xlink:href="#DejaVuSans-6c" transform="translate(630.265625 0)"/>
     </g>
    </g>
    <g id="line2d_30">
     <path d="M 750.395313 53.216563 
L 760.395313 53.216563 
L 770.395313 53.216563 
" style="fill: none; stroke: #1f77b4; stroke-width: 1.5; stroke-linecap: square"/>
    </g>
    <g id="text_18">
     <!-- Residuals -->
     <g transform="translate(778.395313 56.716563) scale(0.1 -0.1)">
      <use xlink:href="#DejaVuSans-52"/>
      <use xlink:href="#DejaVuSans-65" transform="translate(64.982422 0)"/>
      <use xlink:href="#DejaVuSans-73" transform="translate(126.505859 0)"/>
      <use xlink:href="#DejaVuSans-69" transform="translate(178.605469 0)"/>
      <use xlink:href="#DejaVuSans-64" transform="translate(206.388672 0)"/>
      <use xlink:href="#DejaVuSans-75" transform="translate(269.865234 0)"/>
      <use xlink:href="#DejaVuSans-61" transform="translate(333.244141 0)"/>
      <use xlink:href="#DejaVuSans-6c" transform="translate(394.523438 0)"/>
      <use xlink:href="#DejaVuSans-73" transform="translate(422.306641 0)"/>
     </g>
    </g>
   </g>
  </g>
 </g>
 <defs>
  <clipPath id="p66e8bcc77d">
   <rect x="44.66" y="25.44" width="808.54" height="292.6"/>
  </clipPath>
 </defs>
</svg>
