<?xml version="1.0" encoding="utf-8" standalone="no"?>
<!DOCTYPE svg PUBLIC "-//W3C//DTD SVG 1.1//EN"
  "http://www.w3.org/Graphics/SVG/1.1/DTD/svg11.dtd">
<svg xmlns:xlink="http://www.w3.org/1999/xlink" width="720pt" height="360pt" viewBox="0 0 720 360" xmlns="http://www.w3.org/2000/svg" version="1.1">
 <metadata>
  <rdf:RDF xmlns:dc="http://purl.org/dc/elements/1.1/" xmlns:cc="http://creativecommons.org/ns#" xmlns:rdf="http://www.w3.org/1999/02/22-rdf-syntax-ns#">
   <cc:Work>
    <dc:type rdf:resource="http://purl.org/dc/dcmitype/StillImage"/>
    <dc:date>2026-07-08T14:23:10.614048</dc:date>
    <dc:format>image/svg+xml</dc:format>
    <dc:creator>
     <cc:Agent>
      <dc:title>Matplotlib v3.10.0, https://matplotlib.org/</dc:title>
     </cc:Agent>
    </dc:creator>
   </cc:Work>
  </rdf:RDF>
 </metadata>
 <defs>
  <style type="text/css">*{stroke-linejoin: round; stroke-linecap: butt}</style>
 </defs>
 <g id="figure_1">
  <g id="patch_1">
   <path d="M 0 360 
L 720 360 
L 720 0 
L 0 0 
z
" style="fill: #ffffff"/>
  </g>
  <g id="axes_1">
   <g id="patch_2">
    <path d="M 46.64 318.04 
L 709.2 318.04 
L 709.2 25.44 
L 46.64 25.44 
z
" style="fill: #ffffff"/>
   </g>
   <g id="matplotlib.axis_1">
    <g id="xtick_1">
     <g id="line2d_1">
      <path d="M 86.47132 318.04 
L 86.47132 25.44 
" clip-path="url(#p5b4bd7f4a6)" style="fill: none; stroke: #b0b0b0; stroke-width: 0.8; stroke-linecap: square"/>
     </g>
     <g id="line2d_2">
      <defs>
       <path id="m45a6086801" d="M 0 0 
L 0 3.5 
" style="stroke: #000000; stroke-width: 0.8"/>
      </defs>
      <g>
       <use xlink:href="#m45a6086801" x="86.47132" y="318.04" style="stroke: #000000; stroke-width: 0.8"/>
      </g>
     </g>
     <g id="text_1">
      <!-- 1960 -->
      <g transform="translate(73.74632 332.638438) scale(0.1 -0.1)">
       <defs>
        <path id="DejaVuSans-31" d="M 794 531 
L 1825 531 
L 1825 4091 
L 703 3866 
L 703 4441 
L 1819 4666 
L 2450 4666 
L 2450 531 
L 3481 531 
L 3481 0 
L 794 0 
L 794 531 
z
" transform="scale(0.015625)"/>
        <path id="DejaVuSans-39" d="M 703 97 
L 703 672 
Q 941 559 1184 500 
Q 1428 441 1663 441 
Q 2288 441 2617 861 
Q 2947 1281 2994 2138 
Q 2813 1869 2534 1725 
Q 2256 1581 1919 1581 
Q 1219 1581 811 2004 
Q 403 2428 403 3163 
Q 403 3881 828 4315 
Q 1253 4750 1959 4750 
Q 2769 4750 3195 4129 
Q 3622 3509 3622 2328 
Q 3622 1225 3098 567 
Q 2575 -91 1691 -91 
Q 1453 -91 1209 -44 
Q 966 3 703 97 
z
M 1959 2075 
Q 2384 2075 2632 2365 
Q 2881 2656 2881 3163 
Q 2881 3666 2632 3958 
Q 2384 4250 1959 4250 
Q 1534 4250 1286 3958 
Q 1038 3666 1038 3163 
Q 1038 2656 1286 2365 
Q 1534 2075 1959 2075 
z
" transform="scale(0.015625)"/>
        <path id="DejaVuSans-36" d="M 2113 2584 
Q 1688 2584 1439 2293 
Q 1191 2003 1191 1497 
Q 1191 994 1439 701 
Q 1688 409 2113 409 
Q 2538 409 2786 701 
Q 3034 994 3034 1497 
Q 3034 2003 2786 2293 
Q 2538 2584 2113 2584 
z
M 3366 4563 
L 3366 3988 
Q 3128 4100 2886 4159 
Q 2644 4219 2406 4219 
Q 1781 4219 1451 3797 
Q 1122 3375 1075 2522 
Q 1259 2794 1537 2939 
Q 1816 3084 2150 3084 
Q 2853 3084 3261 2657 
Q 3669 2231 3669 1497 
Q 3669 778 3244 343 
Q 2819 -91 2113 -91 
Q 1303 -91 875 529 
Q 447 1150 447 2328 
Q 447 3434 972 4092 
Q 1497 4750 2381 4750 
Q 2619 4750 2861 4703 
Q 3103 4656 3366 4563 
z
" transform="scale(0.015625)"/>
        <path id="DejaVuSans-30" d="M 2034 4250 
Q 1547 4250 1301 3770 
Q 1056 3291 1056 2328 
Q 1056 1369 1301 889 
Q 1547 409 2034 409 
Q 2525 409 2770 889 
Q 3016 1369 3016 2328 
Q 3016 3291 2770 3770 
Q 2525 4250 2034 4250 
z
M 2034 4750 
Q 2819 4750 3233 4129 
Q 3647 3509 3647 2328 
Q 3647 1150 3233 529 
Q 2819 -91 2034 -91 
Q 1250 -91 836 529 
Q 422 1150 422 2328 
Q 422 3509 836 4129 
Q 1250 4750 2034 4750 
z
" transform="scale(0.015625)"/>
       </defs>
       <use xlink:href="#DejaVuSans-31"/>
       <use xlink:href="#DejaVuSans-39" transform="translate(63.623047 0)"/>
       <use xlink:href="#DejaVuSans-36" transform="translate(127.246094 0)"/>
       <use xlink:href="#DejaVuSans-30" transform="translate(190.869141 0)"/>
      </g>
     </g>
    </g>
    <g id="xtick_2">
     <g id="line2d_3">
      <path d="M 183.62088 318.04 
L 183.62088 25.44 
" clip-path="url(#p5b4bd7f4a6)" style="fill: none; stroke: #b0b0b0; stroke-width: 0.8; stroke-linecap: square"/>
     </g>
     <g id="line2d_4">
      <g>
       <use xlink:href="#m45a6086801" x="183.62088" y="318.04" style="stroke: #000000; stroke-width: 0.8"/>
      </g>
     </g>
     <g id="text_2">
      <!-- 1970 -->
      <g transform="translate(170.89588 332.638438) scale(0.1 -0.1)">
       <defs>
        <path id="DejaVuSans-37" d="M 525 4666 
L 3525 4666 
L 3525 4397 
L 1831 0 
L 1172 0 
L 2766 4134 
L 525 4134 
L 525 4666 
z
" transform="scale(0.015625)"/>
       </defs>
       <use xlink:href="#DejaVuSans-31"/>
       <use xlink:href="#DejaVuSans-39" transform="translate(63.623047 0)"/>
       <use xlink:href="#DejaVuSans-37" transform="translate(127.246094 0)"/>
       <use xlink:href="#DejaVuSans-30" transform="translate(190.869141 0)"/>
      </g>
     </g>
    </g>
    <g id="xtick_3">
     <g id="line2d_5">
      <path d="M 280.77044 318.04 
L 280.77044 25.44 
" clip-path="url(#p5b4bd7f4a6)" style="fill: none; stroke: #b0b0b0; stroke-width: 0.8; stroke-linecap: square"/>
     </g>
     <g id="line2d_6">
      <g>
       <use xlink:href="#m45a6086801" x="280.77044" y="318.04" style="stroke: #000000; stroke-width: 0.8"/>
      </g>
     </g>
     <g id="text_3">
      <!-- 1980 -->
      <g transform="translate(268.04544 332.638438) scale(0.1 -0.1)">
       <defs>
        <path id="DejaVuSans-38" d="M 2034 2216 
Q 1584 2216 1326 1975 
Q 1069 1734 1069 1313 
Q 1069 891 1326 650 
Q 1584 409 2034 409 
Q 2484 409 2743 651 
Q 3003 894 3003 1313 
Q 3003 1734 2745 1975 
Q 2488 2216 2034 2216 
z
M 1403 2484 
Q 997 2584 770 2862 
Q 544 3141 544 3541 
Q 544 4100 942 4425 
Q 1341 4750 2034 4750 
Q 2731 4750 3128 4425 
Q 3525 4100 3525 3541 
Q 3525 3141 3298 2862 
Q 3072 2584 2669 2484 
Q 3125 2378 3379 2068 
Q 3634 1759 3634 1313 
Q 3634 634 3220 271 
Q 2806 -91 2034 -91 
Q 1263 -91 848 271 
Q 434 634 434 1313 
Q 434 1759 690 2068 
Q 947 2378 1403 2484 
z
M 1172 3481 
Q 1172 3119 1398 2916 
Q 1625 2713 2034 2713 
Q 2441 2713 2670 2916 
Q 2900 3119 2900 3481 
Q 2900 3844 2670 4047 
Q 2441 4250 2034 4250 
Q 1625 4250 1398 4047 
Q 1172 3844 1172 3481 
z
" transform="scale(0.015625)"/>
       </defs>
       <use xlink:href="#DejaVuSans-31"/>
       <use xlink:href="#DejaVuSans-39" transform="translate(63.623047 0)"/>
       <use xlink:href="#DejaVuSans-38" transform="translate(127.246094 0)"/>
       <use xlink:href="#DejaVuSans-30" transform="translate(190.869141 0)"/>
      </g>
     </g>
    </g>
    <g id="xtick_4">
     <g id="line2d_7">
      <path d="M 377.92 318.04 
L 377.92 25.44 
" clip-path="url(#p5b4bd7f4a6)" style="fill: none; stroke: #b0b0b0; stroke-width: 0.8; stroke-linecap: square"/>
     </g>
     <g id="line2d_8">
      <g>
       <use xlink:href="#m45a6086801" x="377.92" y="318.04" style="stroke: #000000; stroke-width: 0.8"/>
      </g>
     </g>
     <g id="text_4">
      <!-- 1990 -->
      <g transform="translate(365.195 332.638438) scale(0.1 -0.1)">
       <use xlink:href="#DejaVuSans-31"/>
       <use xlink:href="#DejaVuSans-39" transform="translate(63.623047 0)"/>
       <use xlink:href="#DejaVuSans-39" transform="translate(127.246094 0)"/>
       <use xlink:href="#DejaVuSans-30" transform="translate(190.869141 0)"/>
      </g>
     </g>
    </g>
    <g id="xtick_5">
     <g id="line2d_9">
      <path d="M 475.06956 318.04 
L 475.06956 25.44 
" clip-path="url(#p5b4bd7f4a6)" style="fill: none; stroke: #b0b0b0; stroke-width: 0.8; stroke-linecap: square"/>
     </g>
     <g id="line2d_10">
      <g>
       <use xlink:href="#m45a6086801" x="475.06956" y="318.04" style="stroke: #000000; stroke-width: 0.8"/>
      </g>
     </g>
     <g id="text_5">
      <!-- 2000 -->
      <g transform="translate(462.34456 332.638438) scale(0.1 -0.1)">
       <defs>
        <path id="DejaVuSans-32" d="M 1228 531 
L 3431 531 
L 3431 0 
L 469 0 
L 469 531 
Q 828 903 1448 1529 
Q 2069 2156 2228 2338 
Q 2531 2678 2651 2914 
Q 2772 3150 2772 3378 
Q 2772 3750 2511 3984 
Q 2250 4219 1831 4219 
Q 1534 4219 1204 4116 
Q 875 4013 500 3803 
L 500 4441 
Q 881 4594 1212 4672 
Q 1544 4750 1819 4750 
Q 2544 4750 2975 4387 
Q 3406 4025 3406 3419 
Q 3406 3131 3298 2873 
Q 3191 2616 2906 2266 
Q 2828 2175 2409 1742 
Q 1991 1309 1228 531 
z
" transform="scale(0.015625)"/>
       </defs>
       <use xlink:href="#DejaVuSans-32"/>
       <use xlink:href="#DejaVuSans-30" transform="translate(63.623047 0)"/>
       <use xlink:href="#DejaVuSans-30" transform="translate(127.246094 0)"/>
       <use xlink:href="#DejaVuSans-30" transform="translate(190.869141 0)"/>
      </g>
     </g>
    </g>
    <g id="xtick_6">
     <g id="line2d_11">
      <path d="M 572.21912 318.04 
L 572.21912 25.44 
" clip-path="url(#p5b4bd7f4a6)" style="fill: none; stroke: #b0b0b0; stroke-width: 0.8; stroke-linecap: square"/>
     </g>
     <g id="line2d_12">
      <g>
       <use xlink:href="#m45a6086801" x="572.21912" y="318.04" style="stroke: #000000; stroke-width: 0.8"/>
      </g>
     </g>
     <g id="text_6">
      <!-- 2010 -->
      <g transform="translate(559.49412 332.638438) scale(0.1 -0.1)">
       <use xlink:href="#DejaVuSans-32"/>
       <use xlink:href="#DejaVuSans-30" transform="translate(63.623047 0)"/>
       <use xlink:href="#DejaVuSans-31" transform="translate(127.246094 0)"/>
       <use xlink:href="#DejaVuSans-30" transform="translate(190.869141 0)"/>
      </g>
     </g>
    </g>
    <g id="xtick_7">
     <g id="line2d_13">
      <path d="M 669.36868 318.04 
L 669.36868 25.44 
" clip-path="url(#p5b4bd7f4a6)" style="fill: none; stroke: #b0b0b0; stroke-width: 0.8; stroke-linecap: square"/>
     </g>
     <g id="line2d_14">
      <g>
       <use xlink:href="#m45a6086801" x="669.36868" y="318.04" style="stroke: #000000; stroke-width: 0.8"/>
      </g>
     </g>
     <g id="text_7">
      <!-- 2020 -->
      <g transform="translate(656.64368 332.638438) scale(0.1 -0.1)">
       <use xlink:href="#DejaVuSans-32"/>
       <use xlink:href="#DejaVuSans-30" transform="translate(63.623047 0)"/>
       <use xlink:href="#DejaVuSans-32" transform="translate(127.246094 0)"/>
       <use xlink:href="#DejaVuSans-30" transform="translate(190.869141 0)"/>
      </g>
     </g>
    </g>
    <g id="text_8">
     <!-- Year -->
     <g transform="translate(367.3325 346.316563) scale(0.1 -0.1)">
      <defs>
       <path id="DejaVuSans-59" d="M -13 4666 
L 666 4666 
L 1959 2747 
L 3244 4666 
L 3922 4666 
L 2272 2222 
L 2272 0 
L 1638 0 
L 1638 2222 
L -13 4666 
z
" transform="scale(0.015625)"/>
       <path id="DejaVuSans-65" d="M 3597 1894 
L 3597 1613 
L 953 1613 
Q 991 1019 1311 708 
Q 1631 397 2203 397 
Q 2534 397 2845 478 
Q 3156 559 3463 722 
L 3463 178 
Q 3153 47 2828 -22 
Q 2503 -91 2169 -91 
Q 1331 -91 842 396 
Q 353 884 353 1716 
Q 353 2575 817 3079 
Q 1281 3584 2069 3584 
Q 2775 3584 3186 3129 
Q 3597 2675 3597 1894 
z
M 3022 2063 
Q 3016 2534 2758 2815 
Q 2500 3097 2075 3097 
Q 1594 3097 1305 2825 
Q 1016 2553 972 2059 
L 3022 2063 
z
" transform="scale(0.015625)"/>
       <path id="DejaVuSans-61" d="M 2194 1759 
Q 1497 1759 1228 1600 
Q 959 1441 959 1056 
Q 959 750 1161 570 
Q 1363 391 1709 391 
Q 2188 391 2477 730 
Q 2766 1069 2766 1631 
L 2766 1759 
L 2194 1759 
z
M 3341 1997 
L 3341 0 
L 2766 0 
L 2766 531 
Q 2569 213 2275 61 
Q 1981 -91 1556 -91 
Q 1019 -91 701 211 
Q 384 513 384 1019 
Q 384 1609 779 1909 
Q 1175 2209 1959 2209 
L 2766 2209 
L 2766 2266 
Q 2766 2663 2505 2880 
Q 2244 3097 1772 3097 
Q 1472 3097 1187 3025 
Q 903 2953 641 2809 
L 641 3341 
Q 956 3463 1253 3523 
Q 1550 3584 1831 3584 
Q 2591 3584 2966 3190 
Q 3341 2797 3341 1997 
z
" transform="scale(0.015625)"/>
       <path id="DejaVuSans-72" d="M 2631 2963 
Q 2534 3019 2420 3045 
Q 2306 3072 2169 3072 
Q 1681 3072 1420 2755 
Q 1159 2438 1159 1844 
L 1159 0 
L 581 0 
L 581 3500 
L 1159 3500 
L 1159 2956 
Q 1341 3275 1631 3429 
Q 1922 3584 2338 3584 
Q 2397 3584 2469 3576 
Q 2541 3569 2628 3553 
L 2631 2963 
z
" transform="scale(0.015625)"/>
      </defs>
      <use xlink:href="#DejaVuSans-59"/>
      <use xlink:href="#DejaVuSans-65" transform="translate(47.833984 0)"/>
      <use xlink:href="#DejaVuSans-61" transform="translate(109.357422 0)"/>
      <use xlink:href="#DejaVuSans-72" transform="translate(170.636719 0)"/>
     </g>
    </g>
   </g>
   <g id="matplotlib.axis_2">
    <g id="ytick_1">
     <g id="line2d_15">
      <path d="M 46.64 310.835241 
L 709.2 310.835241 
" clip-path="url(#p5b4bd7f4a6)" style="fill: none; stroke: #b0b0b0; stroke-width: 0.8; stroke-linecap: square"/>
     </g>
     <g id="line2d_16">
      <defs>
       <path id="m7e26bfa22a" d="M 0 0 
L -3.5 0 
" style="stroke: #000000; stroke-width: 0.8"/>
      </defs>
      <g>
       <use xlink:href="#m7e26bfa22a" x="46.64" y="310.835241" style="stroke: #000000; stroke-width: 0.8"/>
      </g>
     </g>
     <g id="text_9">
      <!-- −4 -->
      <g transform="translate(24.897813 314.634459) scale(0.1 -0.1)">
       <defs>
        <path id="DejaVuSans-2212" d="M 678 2272 
L 4684 2272 
L 4684 1741 
L 678 1741 
L 678 2272 
z
" transform="scale(0.015625)"/>
        <path id="DejaVuSans-34" d="M 2419 4116 
L 825 1625 
L 2419 1625 
L 2419 4116 
z
M 2253 4666 
L 3047 4666 
L 3047 1625 
L 3713 1625 
L 3713 1100 
L 3047 1100 
L 3047 0 
L 2419 0 
L 2419 1100 
L 313 1100 
L 313 1709 
L 2253 4666 
z
" transform="scale(0.015625)"/>
       </defs>
       <use xlink:href="#DejaVuSans-2212"/>
       <use xlink:href="#DejaVuSans-34" transform="translate(83.789062 0)"/>
      </g>
     </g>
    </g>
    <g id="ytick_2">
     <g id="line2d_17">
      <path d="M 46.64 261.867763 
L 709.2 261.867763 
" clip-path="url(#p5b4bd7f4a6)" style="fill: none; stroke: #b0b0b0; stroke-width: 0.8; stroke-linecap: square"/>
     </g>
     <g id="line2d_18">
      <g>
       <use xlink:href="#m7e26bfa22a" x="46.64" y="261.867763" style="stroke: #000000; stroke-width: 0.8"/>
      </g>
     </g>
     <g id="text_10">
      <!-- −2 -->
      <g transform="translate(24.897813 265.666982) scale(0.1 -0.1)">
       <use xlink:href="#DejaVuSans-2212"/>
       <use xlink:href="#DejaVuSans-32" transform="translate(83.789062 0)"/>
      </g>
     </g>
    </g>
    <g id="ytick_3">
     <g id="line2d_19">
      <path d="M 46.64 212.900286 
L 709.2 212.900286 
" clip-path="url(#p5b4bd7f4a6)" style="fill: none; stroke: #b0b0b0; stroke-width: 0.8; stroke-linecap: square"/>
     </g>
     <g id="line2d_20">
      <g>
       <use xlink:href="#m7e26bfa22a" x="46.64" y="212.900286" style="stroke: #000000; stroke-width: 0.8"/>
      </g>
     </g>
     <g id="text_11">
      <!-- 0 -->
      <g transform="translate(33.2775 216.699505) scale(0.1 -0.1)">
       <use xlink:href="#DejaVuSans-30"/>
      </g>
     </g>
    </g>
    <g id="ytick_4">
     <g id="line2d_21">
      <path d="M 46.64 163.932809 
L 709.2 163.932809 
" clip-path="url(#p5b4bd7f4a6)" style="fill: none; stroke: #b0b0b0; stroke-width: 0.8; stroke-linecap: square"/>
     </g>
     <g id="line2d_22">
      <g>
       <use xlink:href="#m7e26bfa22a" x="46.64" y="163.932809" style="stroke: #000000; stroke-width: 0.8"/>
      </g>
     </g>
     <g id="text_12">
      <!-- 2 -->
      <g transform="translate(33.2775 167.732028) scale(0.1 -0.1)">
       <use xlink:href="#DejaVuSans-32"/>
      </g>
     </g>
    </g>
    <g id="ytick_5">
     <g id="line2d_23">
      <path d="M 46.64 114.965332 
L 709.2 114.965332 
" clip-path="url(#p5b4bd7f4a6)" style="fill: none; stroke: #b0b0b0; stroke-width: 0.8; stroke-linecap: square"/>
     </g>
     <g id="line2d_24">
      <g>
       <use xlink:href="#m7e26bfa22a" x="46.64" y="114.965332" style="stroke: #000000; stroke-width: 0.8"/>
      </g>
     </g>
     <g id="text_13">
      <!-- 4 -->
      <g transform="translate(33.2775 118.76455) scale(0.1 -0.1)">
       <use xlink:href="#DejaVuSans-34"/>
      </g>
     </g>
    </g>
    <g id="ytick_6">
     <g id="line2d_25">
      <path d="M 46.64 65.997854 
L 709.2 65.997854 
" clip-path="url(#p5b4bd7f4a6)" style="fill: none; stroke: #b0b0b0; stroke-width: 0.8; stroke-linecap: square"/>
     </g>
     <g id="line2d_26">
      <g>
       <use xlink:href="#m7e26bfa22a" x="46.64" y="65.997854" style="stroke: #000000; stroke-width: 0.8"/>
      </g>
     </g>
     <g id="text_14">
      <!-- 6 -->
      <g transform="translate(33.2775 69.797073) scale(0.1 -0.1)">
       <use xlink:href="#DejaVuSans-36"/>
      </g>
     </g>
    </g>
    <g id="text_15">
     <!-- Residual / ppm -->
     <g transform="translate(18.818125 208.936875) rotate(-90) scale(0.1 -0.1)">
      <defs>
       <path id="DejaVuSans-52" d="M 2841 2188 
Q 3044 2119 3236 1894 
Q 3428 1669 3622 1275 
L 4263 0 
L 3584 0 
L 2988 1197 
Q 2756 1666 2539 1819 
Q 2322 1972 1947 1972 
L 1259 1972 
L 1259 0 
L 628 0 
L 628 4666 
L 2053 4666 
Q 2853 4666 3247 4331 
Q 3641 3997 3641 3322 
Q 3641 2881 3436 2590 
Q 3231 2300 2841 2188 
z
M 1259 4147 
L 1259 2491 
L 2053 2491 
Q 2509 2491 2742 2702 
Q 2975 2913 2975 3322 
Q 2975 3731 2742 3939 
Q 2509 4147 2053 4147 
L 1259 4147 
z
" transform="scale(0.015625)"/>
       <path id="DejaVuSans-73" d="M 2834 3397 
L 2834 2853 
Q 2591 2978 2328 3040 
Q 2066 3103 1784 3103 
Q 1356 3103 1142 2972 
Q 928 2841 928 2578 
Q 928 2378 1081 2264 
Q 1234 2150 1697 2047 
L 1894 2003 
Q 2506 1872 2764 1633 
Q 3022 1394 3022 966 
Q 3022 478 2636 193 
Q 2250 -91 1575 -91 
Q 1294 -91 989 -36 
Q 684 19 347 128 
L 347 722 
Q 666 556 975 473 
Q 1284 391 1588 391 
Q 1994 391 2212 530 
Q 2431 669 2431 922 
Q 2431 1156 2273 1281 
Q 2116 1406 1581 1522 
L 1381 1569 
Q 847 1681 609 1914 
Q 372 2147 372 2553 
Q 372 3047 722 3315 
Q 1072 3584 1716 3584 
Q 2034 3584 2315 3537 
Q 2597 3491 2834 3397 
z
" transform="scale(0.015625)"/>
       <path id="DejaVuSans-69" d="M 603 3500 
L 1178 3500 
L 1178 0 
L 603 0 
L 603 3500 
z
M 603 4863 
L 1178 4863 
L 1178 4134 
L 603 4134 
L 603 4863 
z
" transform="scale(0.015625)"/>
       <path id="DejaVuSans-64" d="M 2906 2969 
L 2906 4863 
L 3481 4863 
L 3481 0 
L 2906 0 
L 2906 525 
Q 2725 213 2448 61 
Q 2172 -91 1784 -91 
Q 1150 -91 751 415 
Q 353 922 353 1747 
Q 353 2572 751 3078 
Q 1150 3584 1784 3584 
Q 2172 3584 2448 3432 
Q 2725 3281 2906 2969 
z
M 947 1747 
Q 947 1113 1208 752 
Q 1469 391 1925 391 
Q 2381 391 2643 752 
Q 2906 1113 2906 1747 
Q 2906 2381 2643 2742 
Q 2381 3103 1925 3103 
Q 1469 3103 1208 2742 
Q 947 2381 947 1747 
z
" transform="scale(0.015625)"/>
       <path id="DejaVuSans-75" d="M 544 1381 
L 544 3500 
L 1119 3500 
L 1119 1403 
Q 1119 906 1312 657 
Q 1506 409 1894 409 
Q 2359 409 2629 706 
Q 2900 1003 2900 1516 
L 2900 3500 
L 3475 3500 
L 3475 0 
L 2900 0 
L 2900 538 
Q 2691 219 2414 64 
Q 2138 -91 1772 -91 
Q 1169 -91 856 284 
Q 544 659 544 1381 
z
M 1991 3584 
L 1991 3584 
z
" transform="scale(0.015625)"/>
       <path id="DejaVuSans-6c" d="M 603 4863 
L 1178 4863 
L 1178 0 
L 603 0 
L 603 4863 
z
" transform="scale(0.015625)"/>
       <path id="DejaVuSans-20" transform="scale(0.015625)"/>
       <path id="DejaVuSans-2f" d="M 1625 4666 
L 2156 4666 
L 531 -594 
L 0 -594 
L 1625 4666 
z
" transform="scale(0.015625)"/>
       <path id="DejaVuSans-70" d="M 1159 525 
L 1159 -1331 
L 581 -1331 
L 581 3500 
L 1159 3500 
L 1159 2969 
Q 1341 3281 1617 3432 
Q 1894 3584 2278 3584 
Q 2916 3584 3314 3078 
Q 3713 2572 3713 1747 
Q 3713 922 3314 415 
Q 2916 -91 2278 -91 
Q 1894 -91 1617 61 
Q 1341 213 1159 525 
z
M 3116 1747 
Q 3116 2381 2855 2742 
Q 2594 3103 2138 3103 
Q 1681 3103 1420 2742 
Q 1159 2381 1159 1747 
Q 1159 1113 1420 752 
Q 1681 391 2138 391 
Q 2594 391 2855 752 
Q 3116 1113 3116 1747 
z
" transform="scale(0.015625)"/>
       <path id="DejaVuSans-6d" d="M 3328 2828 
Q 3544 3216 3844 3400 
Q 4144 3584 4550 3584 
Q 5097 3584 5394 3201 
Q 5691 2819 5691 2113 
L 5691 0 
L 5113 0 
L 5113 2094 
Q 5113 2597 4934 2840 
Q 4756 3084 4391 3084 
Q 3944 3084 3684 2787 
Q 3425 2491 3425 1978 
L 3425 0 
L 2847 0 
L 2847 2094 
Q 2847 2600 2669 2842 
Q 2491 3084 2119 3084 
Q 1678 3084 1418 2786 
Q 1159 2488 1159 1978 
L 1159 0 
L 581 0 
L 581 3500 
L 1159 3500 
L 1159 2956 
Q 1356 3278 1631 3431 
Q 1906 3584 2284 3584 
Q 2666 3584 2933 3390 
Q 3200 3197 3328 2828 
z
" transform="scale(0.015625)"/>
      </defs>
      <use xlink:href="#DejaVuSans-52"/>
      <use xlink:href="#DejaVuSans-65" transform="translate(64.982422 0)"/>
      <use xlink:href="#DejaVuSans-73" transform="translate(126.505859 0)"/>
      <use xlink:href="#DejaVuSans-69" transform="translate(178.605469 0)"/>
      <use xlink:href="#DejaVuSans-64" transform="translate(206.388672 0)"/>
      <use xlink:href="#DejaVuSans-75" transform="translate(269.865234 0)"/>
      <use xlink:href="#DejaVuSans-61" transform="translate(333.244141 0)"/>
      <use xlink:href="#DejaVuSans-6c" transform="translate(394.523438 0)"/>
      <use xlink:href="#DejaVuSans-20" transform="translate(422.306641 0)"/>
      <use xlink:href="#DejaVuSans-2f" transform="translate(454.09375 0)"/>
      <use xlink:href="#DejaVuSans-20" transform="translate(487.785156 0)"/>
      <use xlink:href="#DejaVuSans-70" transform="translate(519.572266 0)"/>
      <use xlink:href="#DejaVuSans-70" transform="translate(583.048828 0)"/>
      <use xlink:href="#DejaVuSans-6d" transform="translate(646.525391 0)"/>
     </g>
    </g>
   </g>
   <g id="line2d_27">
    <path d="M 46.64 212.900286 
L 709.2 212.900286 
" clip-path="url(#p5b4bd7f4a6)" style="fill: none; stroke-dasharray: 5.55,2.4; stroke-dashoffset: 0; stroke: #808080; stroke-width: 1.5"/>
   </g>
   <g id="line2d_28">
    <path d="M 76.756364 62.537983 
L 86.47132 73.918927 
L 96.186276 90.35036 
L 105.901232 104.977527 
L 115.616188 126.370431 
L 125.331144 145.715625 
L 135.0461 170.358932 
L 144.761056 172.87927 
L 154.476012 188.289092 
L 164.190968 202.388541 
L 173.905924 199.508739 
L 183.62088 209.275726 
L 193.335836 229.486688 
L 203.050792 237.617308 
L 212.765748 219.467745 
L 222.480704 243.34836 
L 232.19566 256.864687 
L 241.910616 271.524819 
L 251.625572 264.069946 
L 261.340528 262.65711 
L 271.055484 264.838684 
L 280.77044 255.190664 
L 290.485396 259.421729 
L 300.200352 263.821743 
L 309.915308 260.801506 
L 319.630264 256.727555 
L 329.34522 258.700943 
L 339.060176 266.232764 
L 348.775132 263.164525 
L 358.490088 243.620908 
L 368.205044 245.552489 
L 377.92 254.024971 
L 387.634956 262.673372 
L 397.349912 281.536815 
L 407.064868 304.74 
L 416.779824 301.679052 
L 426.49478 292.431439 
L 436.209736 289.239837 
L 445.924692 301.653714 
L 455.639648 269.688724 
L 465.354604 268.7556 
L 475.06956 280.982032 
L 484.784516 282.619619 
L 494.499472 271.710491 
L 504.214428 251.193528 
L 513.929384 250.694889 
L 523.64434 236.672692 
L 533.359296 227.00091 
L 543.074252 221.925228 
L 552.789208 219.977471 
L 562.504164 218.220447 
L 572.21912 200.740583 
L 581.934076 200.836627 
L 591.649032 189.863471 
L 601.363988 167.577147 
L 611.078944 160.420968 
L 620.7939 150.277846 
L 630.508856 110.951061 
L 640.223812 97.529913 
L 649.938768 93.856023 
L 659.653724 66.387563 
L 669.36868 47.933643 
L 679.083636 38.74 
" clip-path="url(#p5b4bd7f4a6)" style="fill: none; stroke: #1f77b4; stroke-width: 1.5; stroke-linecap: square"/>
    <defs>
     <path id="maa80bec0d6" d="M 0 2 
C 0.530406 2 1.03916 1.789267 1.414214 1.414214 
C 1.789267 1.03916 2 0.530406 2 0 
C 2 -0.530406 1.789267 -1.03916 1.414214 -1.414214 
C 1.03916 -1.789267 0.530406 -2 0 -2 
C -0.530406 -2 -1.03916 -1.789267 -1.414214 -1.414214 
C -1.789267 -1.03916 -2 -0.530406 -2 0 
C -2 0.530406 -1.789267 1.03916 -1.414214 1.414214 
C -1.03916 1.789267 -0.530406 2 0 2 
z
" style="stroke: #1f77b4"/>
    </defs>
    <g clip-path="url(#p5b4bd7f4a6)">
     <use xlink:href="#maa80bec0d6" x="76.756364" y="62.537983" style="fill: #1f77b4; stroke: #1f77b4"/>
     <use xlink:href="#maa80bec0d6" x="86.47132" y="73.918927" style="fill: #1f77b4; stroke: #1f77b4"/>
     <use xlink:href="#maa80bec0d6" x="96.186276" y="90.35036" style="fill: #1f77b4; stroke: #1f77b4"/>
     <use xlink:href="#maa80bec0d6" x="105.901232" y="104.977527" style="fill: #1f77b4; stroke: #1f77b4"/>
     <use xlink:href="#maa80bec0d6" x="115.616188" y="126.370431" style="fill: #1f77b4; stroke: #1f77b4"/>
     <use xlink:href="#maa80bec0d6" x="125.331144" y="145.715625" style="fill: #1f77b4; stroke: #1f77b4"/>
     <use xlink:href="#maa80bec0d6" x="135.0461" y="170.358932" style="fill: #1f77b4; stroke: #1f77b4"/>
     <use xlink:href="#maa80bec0d6" x="144.761056" y="172.87927" style="fill: #1f77b4; stroke: #1f77b4"/>
     <use xlink:href="#maa80bec0d6" x="154.476012" y="188.289092" style="fill: #1f77b4; stroke: #1f77b4"/>
     <use xlink:href="#maa80bec0d6" x="164.190968" y="202.388541" style="fill: #1f77b4; stroke: #1f77b4"/>
     <use xlink:href="#maa80bec0d6" x="173.905924" y="199.508739" style="fill: #1f77b4; stroke: #1f77b4"/>
     <use xlink:href="#maa80bec0d6" x="183.62088" y="209.275726" style="fill: #1f77b4; stroke: #1f77b4"/>
     <use xlink:href="#maa80bec0d6" x="193.335836" y="229.486688" style="fill: #1f77b4; stroke: #1f77b4"/>
     <use xlink:href="#maa80bec0d6" x="203.050792" y="237.617308" style="fill: #1f77b4; stroke: #1f77b4"/>
     <use xlink:href="#maa80bec0d6" x="212.765748" y="219.467745" style="fill: #1f77b4; stroke: #1f77b4"/>
     <use xlink:href="#maa80bec0d6" x="222.480704" y="243.34836" style="fill: #1f77b4; stroke: #1f77b4"/>
     <use xlink:href="#maa80bec0d6" x="232.19566" y="256.864687" style="fill: #1f77b4; stroke: #1f77b4"/>
     <use xlink:href="#maa80bec0d6" x="241.910616" y="271.524819" style="fill: #1f77b4; stroke: #1f77b4"/>
     <use xlink:href="#maa80bec0d6" x="251.625572" y="264.069946" style="fill: #1f77b4; stroke: #1f77b4"/>
     <use xlink:href="#maa80bec0d6" x="261.340528" y="262.65711" style="fill: #1f77b4; stroke: #1f77b4"/>
     <use xlink:href="#maa80bec0d6" x="271.055484" y="264.838684" style="fill: #1f77b4; stroke: #1f77b4"/>
     <use xlink:href="#maa80bec0d6" x="280.77044" y="255.190664" style="fill: #1f77b4; stroke: #1f77b4"/>
     <use xlink:href="#maa80bec0d6" x="290.485396" y="259.421729" style="fill: #1f77b4; stroke: #1f77b4"/>
     <use xlink:href="#maa80bec0d6" x="300.200352" y="263.821743" style="fill: #1f77b4; stroke: #1f77b4"/>
     <use xlink:href="#maa80bec0d6" x="309.915308" y="260.801506" style="fill: #1f77b4; stroke: #1f77b4"/>
     <use xlink:href="#maa80bec0d6" x="319.630264" y="256.727555" style="fill: #1f77b4; stroke: #1f77b4"/>
     <use xlink:href="#maa80bec0d6" x="329.34522" y="258.700943" style="fill: #1f77b4; stroke: #1f77b4"/>
     <use xlink:href="#maa80bec0d6" x="339.060176" y="266.232764" style="fill: #1f77b4; stroke: #1f77b4"/>
     <use xlink:href="#maa80bec0d6" x="348.775132" y="263.164525" style="fill: #1f77b4; stroke: #1f77b4"/>
     <use xlink:href="#maa80bec0d6" x="358.490088" y="243.620908" style="fill: #1f77b4; stroke: #1f77b4"/>
     <use xlink:href="#maa80bec0d6" x="368.205044" y="245.552489" style="fill: #1f77b4; stroke: #1f77b4"/>
     <use xlink:href="#maa80bec0d6" x="377.92" y="254.024971" style="fill: #1f77b4; stroke: #1f77b4"/>
     <use xlink:href="#maa80bec0d6" x="387.634956" y="262.673372" style="fill: #1f77b4; stroke: #1f77b4"/>
     <use xlink:href="#maa80bec0d6" x="397.349912" y="281.536815" style="fill: #1f77b4; stroke: #1f77b4"/>
     <use xlink:href="#maa80bec0d6" x="407.064868" y="304.74" style="fill: #1f77b4; stroke: #1f77b4"/>
     <use xlink:href="#maa80bec0d6" x="416.779824" y="301.679052" style="fill: #1f77b4; stroke: #1f77b4"/>
     <use xlink:href="#maa80bec0d6" x="426.49478" y="292.431439" style="fill: #1f77b4; stroke: #1f77b4"/>
     <use xlink:href="#maa80bec0d6" x="436.209736" y="289.239837" style="fill: #1f77b4; stroke: #1f77b4"/>
     <use xlink:href="#maa80bec0d6" x="445.924692" y="301.653714" style="fill: #1f77b4; stroke: #1f77b4"/>
     <use xlink:href="#maa80bec0d6" x="455.639648" y="269.688724" style="fill: #1f77b4; stroke: #1f77b4"/>
     <use xlink:href="#maa80bec0d6" x="465.354604" y="268.7556" style="fill: #1f77b4; stroke: #1f77b4"/>
     <use xlink:href="#maa80bec0d6" x="475.06956" y="280.982032" style="fill: #1f77b4; stroke: #1f77b4"/>
     <use xlink:href="#maa80bec0d6" x="484.784516" y="282.619619" style="fill: #1f77b4; stroke: #1f77b4"/>
     <use xlink:href="#maa80bec0d6" x="494.499472" y="271.710491" style="fill: #1f77b4; stroke: #1f77b4"/>
     <use xlink:href="#maa80bec0d6" x="504.214428" y="251.193528" style="fill: #1f77b4; stroke: #1f77b4"/>
     <use xlink:href="#maa80bec0d6" x="513.929384" y="250.694889" style="fill: #1f77b4; stroke: #1f77b4"/>
     <use xlink:href="#maa80bec0d6" x="523.64434" y="236.672692" style="fill: #1f77b4; stroke: #1f77b4"/>
     <use xlink:href="#maa80bec0d6" x="533.359296" y="227.00091" style="fill: #1f77b4; stroke: #1f77b4"/>
     <use xlink:href="#maa80bec0d6" x="543.074252" y="221.925228" style="fill: #1f77b4; stroke: #1f77b4"/>
     <use xlink:href="#maa80bec0d6" x="552.789208" y="219.977471" style="fill: #1f77b4; stroke: #1f77b4"/>
     <use xlink:href="#maa80bec0d6" x="562.504164" y="218.220447" style="fill: #1f77b4; stroke: #1f77b4"/>
     <use xlink:href="#maa80bec0d6" x="572.21912" y="200.740583" style="fill: #1f77b4; stroke: #1f77b4"/>
     <use xlink:href="#maa80bec0d6" x="581.934076" y="200.836627" style="fill: #1f77b4; stroke: #1f77b4"/>
     <use xlink:href="#maa80bec0d6" x="591.649032" y="189.863471" style="fill: #1f77b4; stroke: #1f77b4"/>
     <use xlink:href="#maa80bec0d6" x="601.363988" y="167.577147" style="fill: #1f77b4; stroke: #1f77b4"/>
     <use xlink:href="#maa80bec0d6" x="611.078944" y="160.420968" style="fill: #1f77b4; stroke: #1f77b4"/>
     <use xlink:href="#maa80bec0d6" x="620.7939" y="150.277846" style="fill: #1f77b4; stroke: #1f77b4"/>
     <use xlink:href="#maa80bec0d6" x="630.508856" y="110.951061" style="fill: #1f77b4; stroke: #1f77b4"/>
     <use xlink:href="#maa80bec0d6" x="640.223812" y="97.529913" style="fill: #1f77b4; stroke: #1f77b4"/>
     <use xlink:href="#maa80bec0d6" x="649.938768" y="93.856023" style="fill: #1f77b4; stroke: #1f77b4"/>
     <use xlink:href="#maa80bec0d6" x="659.653724" y="66.387563" style="fill: #1f77b4; stroke: #1f77b4"/>
     <use xlink:href="#maa80bec0d6" x="669.36868" y="47.933643" style="fill: #1f77b4; stroke: #1f77b4"/>
     <use xlink:href="#maa80bec0d6" x="679.083636" y="38.74" style="fill: #1f77b4; stroke: #1f77b4"/>
    </g>
   </g>
   <g id="patch_3">
    <path d="M 46.64 318.04 
L 46.64 25.44 
" style="fill: none; stroke: #000000; stroke-width: 0.8; stroke-linejoin: miter; stroke-linecap: square"/>
   </g>
   <g id="patch_4">
    <path d="M 709.2 318.04 
L 709.2 25.44 
" style="fill: none; stroke: #000000; stroke-width: 0.8; stroke-linejoin: miter; stroke-linecap: square"/>
   </g>
   <g id="patch_5">
    <path d="M 46.64 318.04 
L 709.2 318.04 
" style="fill: none; stroke: #000000; stroke-width: 0.8; stroke-linejoin: miter; stroke-linecap: square"/>
   </g>
   <g id="patch_6">
    <path d="M 46.64 25.44 
L 709.2 25.44 
" style="fill: none; stroke: #000000; stroke-width: 0.8; stroke-linejoin: miter; stroke-linecap: square"/>
   </g>
   <g id="text_16">
    <!-- Exponential Model: full_data Residuals Over Time -->
    <g transform="translate(229.525 19.44) scale(0.12 -0.12)">
     <defs>
      <path id="DejaVuSans-45" d="M 628 4666 
L 3578 4666 
L 3578 4134 
L 1259 4134 
L 1259 2753 
L 3481 2753 
L 3481 2222 
L 1259 2222 
L 1259 531 
L 3634 531 
L 3634 0 
L 628 0 
L 628 4666 
z
" transform="scale(0.015625)"/>
      <path id="DejaVuSans-78" d="M 3513 3500 
L 2247 1797 
L 3578 0 
L 2900 0 
L 1881 1375 
L 863 0 
L 184 0 
L 1544 1831 
L 300 3500 
L 978 3500 
L 1906 2253 
L 2834 3500 
L 3513 3500 
z
" transform="scale(0.015625)"/>
      <path id="DejaVuSans-6f" d="M 1959 3097 
Q 1497 3097 1228 2736 
Q 959 2375 959 1747 
Q 959 1119 1226 758 
Q 1494 397 1959 397 
Q 2419 397 2687 759 
Q 2956 1122 2956 1747 
Q 2956 2369 2687 2733 
Q 2419 3097 1959 3097 
z
M 1959 3584 
Q 2709 3584 3137 3096 
Q 3566 2609 3566 1747 
Q 3566 888 3137 398 
Q 2709 -91 1959 -91 
Q 1206 -91 779 398 
Q 353 888 353 1747 
Q 353 2609 779 3096 
Q 1206 3584 1959 3584 
z
" transform="scale(0.015625)"/>
      <path id="DejaVuSans-6e" d="M 3513 2113 
L 3513 0 
L 2938 0 
L 2938 2094 
Q 2938 2591 2744 2837 
Q 2550 3084 2163 3084 
Q 1697 3084 1428 2787 
Q 1159 2491 1159 1978 
L 1159 0 
L 581 0 
L 581 3500 
L 1159 3500 
L 1159 2956 
Q 1366 3272 1645 3428 
Q 1925 3584 2291 3584 
Q 2894 3584 3203 3211 
Q 3513 2838 3513 2113 
z
" transform="scale(0.015625)"/>
      <path id="DejaVuSans-74" d="M 1172 4494 
L 1172 3500 
L 2356 3500 
L 2356 3053 
L 1172 3053 
L 1172 1153 
Q 1172 725 1289 603 
Q 1406 481 1766 481 
L 2356 481 
L 2356 0 
L 1766 0 
Q 1100 0 847 248 
Q 594 497 594 1153 
L 594 3053 
L 172 3053 
L 172 3500 
L 594 3500 
L 594 4494 
L 1172 4494 
z
" transform="scale(0.015625)"/>
      <path id="DejaVuSans-4d" d="M 628 4666 
L 1569 4666 
L 2759 1491 
L 3956 4666 
L 4897 4666 
L 4897 0 
L 4281 0 
L 4281 4097 
L 3078 897 
L 2444 897 
L 1241 4097 
L 1241 0 
L 628 0 
L 628 4666 
z
" transform="scale(0.015625)"/>
      <path id="DejaVuSans-3a" d="M 750 794 
L 1409 794 
L 1409 0 
L 750 0 
L 750 794 
z
M 750 3309 
L 1409 3309 
L 1409 2516 
L 750 2516 
L 750 3309 
z
" transform="scale(0.015625)"/>
      <path id="DejaVuSans-66" d="M 2375 4863 
L 2375 4384 
L 1825 4384 
Q 1516 4384 1395 4259 
Q 1275 4134 1275 3809 
L 1275 3500 
L 2222 3500 
L 2222 3053 
L 1275 3053 
L 1275 0 
L 697 0 
L 697 3053 
L 147 3053 
L 147 3500 
L 697 3500 
L 697 3744 
Q 697 4328 969 4595 
Q 1241 4863 1831 4863 
L 2375 4863 
z
" transform="scale(0.015625)"/>
      <path id="DejaVuSans-5f" d="M 3263 -1063 
L 3263 -1509 
L -63 -1509 
L -63 -1063 
L 3263 -1063 
z
" transform="scale(0.015625)"/>
      <path id="DejaVuSans-4f" d="M 2522 4238 
Q 1834 4238 1429 3725 
Q 1025 3213 1025 2328 
Q 1025 1447 1429 934 
Q 1834 422 2522 422 
Q 3209 422 3611 934 
Q 4013 1447 4013 2328 
Q 4013 3213 3611 3725 
Q 3209 4238 2522 4238 
z
M 2522 4750 
Q 3503 4750 4090 4092 
Q 4678 3434 4678 2328 
Q 4678 1225 4090 567 
Q 3503 -91 2522 -91 
Q 1538 -91 948 565 
Q 359 1222 359 2328 
Q 359 3434 948 4092 
Q 1538 4750 2522 4750 
z
" transform="scale(0.015625)"/>
      <path id="DejaVuSans-76" d="M 191 3500 
L 800 3500 
L 1894 563 
L 2988 3500 
L 3597 3500 
L 2284 0 
L 1503 0 
L 191 3500 
z
" transform="scale(0.015625)"/>
      <path id="DejaVuSans-54" d="M -19 4666 
L 3928 4666 
L 3928 4134 
L 2272 4134 
L 2272 0 
L 1638 0 
L 1638 4134 
L -19 4134 
L -19 4666 
z
" transform="scale(0.015625)"/>
     </defs>
     <use xlink:href="#DejaVuSans-45"/>
     <use xlink:href="#DejaVuSans-78" transform="translate(63.183594 0)"/>
     <use xlink:href="#DejaVuSans-70" transform="translate(122.363281 0)"/>
     <use xlink:href="#DejaVuSans-6f" transform="translate(185.839844 0)"/>
     <use xlink:href="#DejaVuSans-6e" transform="translate(247.021484 0)"/>
     <use xlink:href="#DejaVuSans-65" transform="translate(310.400391 0)"/>
     <use xlink:href="#DejaVuSans-6e" transform="translate(371.923828 0)"/>
     <use xlink:href="#DejaVuSans-74" transform="translate(435.302734 0)"/>
     <use xlink:href="#DejaVuSans-69" transform="translate(474.511719 0)"/>
     <use xlink:href="#DejaVuSans-61" transform="translate(502.294922 0)"/>
     <use xlink:href="#DejaVuSans-6c" transform="translate(563.574219 0)"/>
     <use xlink:href="#DejaVuSans-20" transform="translate(591.357422 0)"/>
     <use xlink:href="#DejaVuSans-4d" transform="translate(623.144531 0)"/>
     <use xlink:href="#DejaVuSans-6f" transform="translate(709.423828 0)"/>
     <use xlink:href="#DejaVuSans-64" transform="translate(770.605469 0)"/>
     <use xlink:href="#DejaVuSans-65" transform="translate(834.082031 0)"/>
     <use xlink:href="#DejaVuSans-6c" transform="translate(895.605469 0)"/>
     <use xlink:href="#DejaVuSans-3a" transform="translate(923.388672 0)"/>
     <use xlink:href="#DejaVuSans-20" transform="translate(957.080078 0)"/>
     <use xlink:href="#DejaVuSans-66" transform="translate(988.867188 0)"/>
     <use xlink:href="#DejaVuSans-75" transform="translate(1024.072266 0)"/>
     <use xlink:href="#DejaVuSans-6c" transform="translate(1087.451172 0)"/>
     <use xlink:href="#DejaVuSans-6c" transform="translate(1115.234375 0)"/>
     <use xlink:href="#DejaVuSans-5f" transform="translate(1143.017578 0)"/>
     <use xlink:href="#DejaVuSans-64" transform="translate(1193.017578 0)"/>
     <use xlink:href="#DejaVuSans-61" transform="translate(1256.494141 0)"/>
     <use xlink:href="#DejaVuSans-74" transform="translate(1317.773438 0)"/>
     <use xlink:href="#DejaVuSans-61" transform="translate(1356.982422 0)"/>
     <use xlink:href="#DejaVuSans-20" transform="translate(1418.261719 0)"/>
     <use xlink:href="#DejaVuSans-52" transform="translate(1450.048828 0)"/>
     <use xlink:href="#DejaVuSans-65" transform="translate(1515.03125 0)"/>
     <use xlink:href="#DejaVuSans-73" transform="translate(1576.554688 0)"/>
     <use xlink:href="#DejaVuSans-69" transform="translate(1628.654297 0)"/>
     <use xlink:href="#DejaVuSans-64" transform="translate(1656.4375 0)"/>
     <use xlink:href="#DejaVuSans-75" transform="translate(1719.914062 0)"/>
     <use xlink:href="#DejaVuSans-61" transform="translate(1783.292969 0)"/>
     <use xlink:href="#DejaVuSans-6c" transform="translate(1844.572266 0)"/>
     <use xlink:href="#DejaVuSans-73" transform="translate(1872.355469 0)"/>
     <use xlink:href="#DejaVuSans-20" transform="translate(1924.455078 0)"/>
     <use xlink:href="#DejaVuSans-4f" transform="translate(1956.242188 0)"/>
     <use xlink:href="#DejaVuSans-76" transform="translate(2034.953125 0)"/>
     <use xlink:href="#DejaVuSans-65" transform="translate(2094.132812 0)"/>
     <use xlink:href="#DejaVuSans-72" transform="translate(2155.65625 0)"/>
     <use xlink:href="#DejaVuSans-20" transform="translate(2196.769531 0)"/>
     <use xlink:href="#DejaVuSans-54" transform="translate(2228.556641 0)"/>
     <use xlink:href="#DejaVuSans-69" transform="translate(2286.515625 0)"/>
     <use xlink:href="#DejaVuSans-6d" transform="translate(2314.298828 0)"/>
     <use xlink:href="#DejaVuSans-65" transform="translate(2411.710938 0)"/>
    </g>
   </g>
   <g id="legend_1">
    <g id="patch_7">
     <path d="M 53.64 313.04 
L 151.444687 313.04 
Q 153.444687 313.04 153.444687 311.04 
L 153.444687 282.68375 
Q 153.444687 280.68375 151.444687 280.68375 
L 53.64 280.68375 
Q 51.64 280.68375 51.64 282.68375 
L 51.64 311.04 
Q 51.64 313.04 53.64 313.04 
z
" style="fill: #ffffff; opacity: 0.8; stroke: #cccccc; stroke-linejoin: miter"/>
    </g>
    <g id="line2d_29">
     <path d="M 55.64 288.782188 
L 65.64 288.782188 
L 75.64 288.782188 
" style="fill: none; stroke-dasharray: 5.55,2.4; stroke-dashoffset: 0; stroke: #808080; stroke-width: 1.5"/>
    </g>
    <g id="text_17">
     <!-- Zero residual -->
     <g transform="translate(83.64 292.282188) scale(0.1 -0.1)">
      <defs>
       <path id="DejaVuSans-5a" d="M 359 4666 
L 4025 4666 
L 4025 4184 
L 1075 531 
L 4097 531 
L 4097 0 
L 288 0 
L 288 481 
L 3238 4134 
L 359 4134 
L 359 4666 
z
" transform="scale(0.015625)"/>
      </defs>
      <use xlink:href="#DejaVuSans-5a"/>
      <use xlink:href="#DejaVuSans-65" transform="translate(68.505859 0)"/>
      <use xlink:href="#DejaVuSans-72" transform="translate(130.029297 0)"/>
      <use xlink:href="#DejaVuSans-6f" transform="translate(168.892578 0)"/>
      <use xlink:href="#DejaVuSans-20" transform="translate(230.074219 0)"/>
      <use xlink:href="#DejaVuSans-72" transform="translate(261.861328 0)"/>
      <use xlink:href="#DejaVuSans-65" transform="translate(300.724609 0)"/>
      <use xlink:href="#DejaVuSans-73" transform="translate(362.248047 0)"/>
      <use xlink:href="#DejaVuSans-69" transform="translate(414.347656 0)"/>
      <use xlink:href="#DejaVuSans-64" transform="translate(442.130859 0)"/>
      <use xlink:href="#DejaVuSans-75" transform="translate(505.607422 0)"/>
      <use xlink:href="#DejaVuSans-61" transform="translate(568.986328 0)"/>
      <use xlink:href="#DejaVuSans-6c" transform="translate(630.265625 0)"/>
     </g>
    </g>
    <g id="line2d_30">
     <path d="M 55.64 303.460313 
L 65.64 303.460313 
L 75.64 303.460313 
" style="fill: none; stroke: #1f77b4; stroke-width: 1.5; stroke-linecap: square"/>
     <g>
      <use xlink:href="#maa80bec0d6" x="65.64" y="303.460313" style="fill: #1f77b4; stroke: #1f77b4"/>
     </g>
    </g>
    <g id="text_18">
     <!-- Residuals -->
     <g transform="translate(83.64 306.960313) scale(0.1 -0.1)">
      <use xlink:href="#DejaVuSans-52"/>
      <use xlink:href="#DejaVuSans-65" transform="translate(64.982422 0)"/>
      <use xlink:href="#DejaVuSans-73" transform="translate(126.505859 0)"/>
      <use xlink:href="#DejaVuSans-69" transform="translate(178.605469 0)"/>
      <use xlink:href="#DejaVuSans-64" transform="translate(206.388672 0)"/>
      <use xlink:href="#DejaVuSans-75" transform="translate(269.865234 0)"/>
      <use xlink:href="#DejaVuSans-61" transform="translate(333.244141 0)"/>
      <use xlink:href="#DejaVuSans-6c" transform="translate(394.523438 0)"/>
      <use xlink:href="#DejaVuSans-73" transform="translate(422.306641 0)"/>
     </g>
    </g>
   </g>
  </g>
 </g>
 <defs>
  <clipPath id="p5b4bd7f4a6">
   <rect x="46.64" y="25.44" width="662.56" height="292.6"/>
  </clipPath>
 </defs>
</svg>
