<?xml version="1.0" encoding="utf-8" standalone="no"?>
<!DOCTYPE svg PUBLIC "-//W3C//DTD SVG 1.1//EN"
  "http://www.w3.org/Graphics/SVG/1.1/DTD/svg11.dtd">
<svg xmlns:xlink="http://www.w3.org/1999/xlink" width="864pt" height="504pt" viewBox="0 0 864 504" xmlns="http://www.w3.org/2000/svg" version="1.1">
 <metadata>
  <rdf:RDF xmlns:dc="http://purl.org/dc/elements/1.1/" xmlns:cc="http://creativecommons.org/ns#" xmlns:rdf="http://www.w3.org/1999/02/22-rdf-syntax-ns#">
   <cc:Work>
    <dc:type rdf:resource="http://purl.org/dc/dcmitype/StillImage"/>
    <dc:date>2026-07-08T21:34:48.502018</dc:date>
    <dc:format>image/svg+xml</dc:format>
    <dc:creator>
     <cc:Agent>
      <dc:title>Matplotlib v3.10.0, https://matplotlib.org/</dc:title>
     </cc:Agent>
    </dc:creator>
   </cc:Work>
  </rdf:RDF>
 </metadata>
 <defs>
  <style type="text/css">*{stroke-linejoin: round; stroke-linecap: butt}</style>
 </defs>
 <g id="figure_1">
  <g id="patch_1">
   <path d="M 0 504 
L 864 504 
L 864 0 
L 0 0 
z
" style="fill: #ffffff"/>
  </g>
  <g id="axes_1">
   <g id="patch_2">
    <path d="M 38.27 462.04 
L 825.976364 462.04 
L 825.976364 25.44 
L 38.27 25.44 
z
" style="fill: #ffffff"/>
   </g>
   <g id="matplotlib.axis_1">
    <g id="xtick_1">
     <g id="line2d_1">
      <path d="M 79.153535 462.04 
L 79.153535 25.44 
" clip-path="url(#p6166bc9ccd)" style="fill: none; stroke: #b0b0b0; stroke-opacity: 0.35; stroke-width: 0.8; stroke-linecap: square"/>
     </g>
     <g id="line2d_2">
      <defs>
       <path id="m0ef7ca16ea" d="M 0 0 
L 0 3.5 
" style="stroke: #000000; stroke-width: 0.8"/>
      </defs>
      <g>
       <use xlink:href="#m0ef7ca16ea" x="79.153535" y="462.04" style="stroke: #000000; stroke-width: 0.8"/>
      </g>
     </g>
     <g id="text_1">
      <!-- 1960 -->
      <g transform="translate(66.428535 476.638438) scale(0.1 -0.1)">
       <defs>
        <path id="DejaVuSans-31" d="M 794 531 
L 1825 531 
L 1825 4091 
L 703 3866 
L 703 4441 
L 1819 4666 
L 2450 4666 
L 2450 531 
L 3481 531 
L 3481 0 
L 794 0 
L 794 531 
z
" transform="scale(0.015625)"/>
        <path id="DejaVuSans-39" d="M 703 97 
L 703 672 
Q 941 559 1184 500 
Q 1428 441 1663 441 
Q 2288 441 2617 861 
Q 2947 1281 2994 2138 
Q 2813 1869 2534 1725 
Q 2256 1581 1919 1581 
Q 1219 1581 811 2004 
Q 403 2428 403 3163 
Q 403 3881 828 4315 
Q 1253 4750 1959 4750 
Q 2769 4750 3195 4129 
Q 3622 3509 3622 2328 
Q 3622 1225 3098 567 
Q 2575 -91 1691 -91 
Q 1453 -91 1209 -44 
Q 966 3 703 97 
z
M 1959 2075 
Q 2384 2075 2632 2365 
Q 2881 2656 2881 3163 
Q 2881 3666 2632 3958 
Q 2384 4250 1959 4250 
Q 1534 4250 1286 3958 
Q 1038 3666 1038 3163 
Q 1038 2656 1286 2365 
Q 1534 2075 1959 2075 
z
" transform="scale(0.015625)"/>
        <path id="DejaVuSans-36" d="M 2113 2584 
Q 1688 2584 1439 2293 
Q 1191 2003 1191 1497 
Q 1191 994 1439 701 
Q 1688 409 2113 409 
Q 2538 409 2786 701 
Q 3034 994 3034 1497 
Q 3034 2003 2786 2293 
Q 2538 2584 2113 2584 
z
M 3366 4563 
L 3366 3988 
Q 3128 4100 2886 4159 
Q 2644 4219 2406 4219 
Q 1781 4219 1451 3797 
Q 1122 3375 1075 2522 
Q 1259 2794 1537 2939 
Q 1816 3084 2150 3084 
Q 2853 3084 3261 2657 
Q 3669 2231 3669 1497 
Q 3669 778 3244 343 
Q 2819 -91 2113 -91 
Q 1303 -91 875 529 
Q 447 1150 447 2328 
Q 447 3434 972 4092 
Q 1497 4750 2381 4750 
Q 2619 4750 2861 4703 
Q 3103 4656 3366 4563 
z
" transform="scale(0.015625)"/>
        <path id="DejaVuSans-30" d="M 2034 4250 
Q 1547 4250 1301 3770 
Q 1056 3291 1056 2328 
Q 1056 1369 1301 889 
Q 1547 409 2034 409 
Q 2525 409 2770 889 
Q 3016 1369 3016 2328 
Q 3016 3291 2770 3770 
Q 2525 4250 2034 4250 
z
M 2034 4750 
Q 2819 4750 3233 4129 
Q 3647 3509 3647 2328 
Q 3647 1150 3233 529 
Q 2819 -91 2034 -91 
Q 1250 -91 836 529 
Q 422 1150 422 2328 
Q 422 3509 836 4129 
Q 1250 4750 2034 4750 
z
" transform="scale(0.015625)"/>
       </defs>
       <use xlink:href="#DejaVuSans-31"/>
       <use xlink:href="#DejaVuSans-39" transform="translate(63.623047 0)"/>
       <use xlink:href="#DejaVuSans-36" transform="translate(127.246094 0)"/>
       <use xlink:href="#DejaVuSans-30" transform="translate(190.869141 0)"/>
      </g>
     </g>
    </g>
    <g id="xtick_2">
     <g id="line2d_3">
      <path d="M 180.727534 462.04 
L 180.727534 25.44 
" clip-path="url(#p6166bc9ccd)" style="fill: none; stroke: #b0b0b0; stroke-opacity: 0.35; stroke-width: 0.8; stroke-linecap: square"/>
     </g>
     <g id="line2d_4">
      <g>
       <use xlink:href="#m0ef7ca16ea" x="180.727534" y="462.04" style="stroke: #000000; stroke-width: 0.8"/>
      </g>
     </g>
     <g id="text_2">
      <!-- 1980 -->
      <g transform="translate(168.002534 476.638438) scale(0.1 -0.1)">
       <defs>
        <path id="DejaVuSans-38" d="M 2034 2216 
Q 1584 2216 1326 1975 
Q 1069 1734 1069 1313 
Q 1069 891 1326 650 
Q 1584 409 2034 409 
Q 2484 409 2743 651 
Q 3003 894 3003 1313 
Q 3003 1734 2745 1975 
Q 2488 2216 2034 2216 
z
M 1403 2484 
Q 997 2584 770 2862 
Q 544 3141 544 3541 
Q 544 4100 942 4425 
Q 1341 4750 2034 4750 
Q 2731 4750 3128 4425 
Q 3525 4100 3525 3541 
Q 3525 3141 3298 2862 
Q 3072 2584 2669 2484 
Q 3125 2378 3379 2068 
Q 3634 1759 3634 1313 
Q 3634 634 3220 271 
Q 2806 -91 2034 -91 
Q 1263 -91 848 271 
Q 434 634 434 1313 
Q 434 1759 690 2068 
Q 947 2378 1403 2484 
z
M 1172 3481 
Q 1172 3119 1398 2916 
Q 1625 2713 2034 2713 
Q 2441 2713 2670 2916 
Q 2900 3119 2900 3481 
Q 2900 3844 2670 4047 
Q 2441 4250 2034 4250 
Q 1625 4250 1398 4047 
Q 1172 3844 1172 3481 
z
" transform="scale(0.015625)"/>
       </defs>
       <use xlink:href="#DejaVuSans-31"/>
       <use xlink:href="#DejaVuSans-39" transform="translate(63.623047 0)"/>
       <use xlink:href="#DejaVuSans-38" transform="translate(127.246094 0)"/>
       <use xlink:href="#DejaVuSans-30" transform="translate(190.869141 0)"/>
      </g>
     </g>
    </g>
    <g id="xtick_3">
     <g id="line2d_5">
      <path d="M 282.301533 462.04 
L 282.301533 25.44 
" clip-path="url(#p6166bc9ccd)" style="fill: none; stroke: #b0b0b0; stroke-opacity: 0.35; stroke-width: 0.8; stroke-linecap: square"/>
     </g>
     <g id="line2d_6">
      <g>
       <use xlink:href="#m0ef7ca16ea" x="282.301533" y="462.04" style="stroke: #000000; stroke-width: 0.8"/>
      </g>
     </g>
     <g id="text_3">
      <!-- 2000 -->
      <g transform="translate(269.576533 476.638438) scale(0.1 -0.1)">
       <defs>
        <path id="DejaVuSans-32" d="M 1228 531 
L 3431 531 
L 3431 0 
L 469 0 
L 469 531 
Q 828 903 1448 1529 
Q 2069 2156 2228 2338 
Q 2531 2678 2651 2914 
Q 2772 3150 2772 3378 
Q 2772 3750 2511 3984 
Q 2250 4219 1831 4219 
Q 1534 4219 1204 4116 
Q 875 4013 500 3803 
L 500 4441 
Q 881 4594 1212 4672 
Q 1544 4750 1819 4750 
Q 2544 4750 2975 4387 
Q 3406 4025 3406 3419 
Q 3406 3131 3298 2873 
Q 3191 2616 2906 2266 
Q 2828 2175 2409 1742 
Q 1991 1309 1228 531 
z
" transform="scale(0.015625)"/>
       </defs>
       <use xlink:href="#DejaVuSans-32"/>
       <use xlink:href="#DejaVuSans-30" transform="translate(63.623047 0)"/>
       <use xlink:href="#DejaVuSans-30" transform="translate(127.246094 0)"/>
       <use xlink:href="#DejaVuSans-30" transform="translate(190.869141 0)"/>
      </g>
     </g>
    </g>
    <g id="xtick_4">
     <g id="line2d_7">
      <path d="M 383.875532 462.04 
L 383.875532 25.44 
" clip-path="url(#p6166bc9ccd)" style="fill: none; stroke: #b0b0b0; stroke-opacity: 0.35; stroke-width: 0.8; stroke-linecap: square"/>
     </g>
     <g id="line2d_8">
      <g>
       <use xlink:href="#m0ef7ca16ea" x="383.875532" y="462.04" style="stroke: #000000; stroke-width: 0.8"/>
      </g>
     </g>
     <g id="text_4">
      <!-- 2020 -->
      <g transform="translate(371.150532 476.638438) scale(0.1 -0.1)">
       <use xlink:href="#DejaVuSans-32"/>
       <use xlink:href="#DejaVuSans-30" transform="translate(63.623047 0)"/>
       <use xlink:href="#DejaVuSans-32" transform="translate(127.246094 0)"/>
       <use xlink:href="#DejaVuSans-30" transform="translate(190.869141 0)"/>
      </g>
     </g>
    </g>
    <g id="xtick_5">
     <g id="line2d_9">
      <path d="M 485.449531 462.04 
L 485.449531 25.44 
" clip-path="url(#p6166bc9ccd)" style="fill: none; stroke: #b0b0b0; stroke-opacity: 0.35; stroke-width: 0.8; stroke-linecap: square"/>
     </g>
     <g id="line2d_10">
      <g>
       <use xlink:href="#m0ef7ca16ea" x="485.449531" y="462.04" style="stroke: #000000; stroke-width: 0.8"/>
      </g>
     </g>
     <g id="text_5">
      <!-- 2040 -->
      <g transform="translate(472.724531 476.638438) scale(0.1 -0.1)">
       <defs>
        <path id="DejaVuSans-34" d="M 2419 4116 
L 825 1625 
L 2419 1625 
L 2419 4116 
z
M 2253 4666 
L 3047 4666 
L 3047 1625 
L 3713 1625 
L 3713 1100 
L 3047 1100 
L 3047 0 
L 2419 0 
L 2419 1100 
L 313 1100 
L 313 1709 
L 2253 4666 
z
" transform="scale(0.015625)"/>
       </defs>
       <use xlink:href="#DejaVuSans-32"/>
       <use xlink:href="#DejaVuSans-30" transform="translate(63.623047 0)"/>
       <use xlink:href="#DejaVuSans-34" transform="translate(127.246094 0)"/>
       <use xlink:href="#DejaVuSans-30" transform="translate(190.869141 0)"/>
      </g>
     </g>
    </g>
    <g id="xtick_6">
     <g id="line2d_11">
      <path d="M 587.023531 462.04 
L 587.023531 25.44 
" clip-path="url(#p6166bc9ccd)" style="fill: none; stroke: #b0b0b0; stroke-opacity: 0.35; stroke-width: 0.8; stroke-linecap: square"/>
     </g>
     <g id="line2d_12">
      <g>
       <use xlink:href="#m0ef7ca16ea" x="587.023531" y="462.04" style="stroke: #000000; stroke-width: 0.8"/>
      </g>
     </g>
     <g id="text_6">
      <!-- 2060 -->
      <g transform="translate(574.298531 476.638438) scale(0.1 -0.1)">
       <use xlink:href="#DejaVuSans-32"/>
       <use xlink:href="#DejaVuSans-30" transform="translate(63.623047 0)"/>
       <use xlink:href="#DejaVuSans-36" transform="translate(127.246094 0)"/>
       <use xlink:href="#DejaVuSans-30" transform="translate(190.869141 0)"/>
      </g>
     </g>
    </g>
    <g id="xtick_7">
     <g id="line2d_13">
      <path d="M 688.59753 462.04 
L 688.59753 25.44 
" clip-path="url(#p6166bc9ccd)" style="fill: none; stroke: #b0b0b0; stroke-opacity: 0.35; stroke-width: 0.8; stroke-linecap: square"/>
     </g>
     <g id="line2d_14">
      <g>
       <use xlink:href="#m0ef7ca16ea" x="688.59753" y="462.04" style="stroke: #000000; stroke-width: 0.8"/>
      </g>
     </g>
     <g id="text_7">
      <!-- 2080 -->
      <g transform="translate(675.87253 476.638438) scale(0.1 -0.1)">
       <use xlink:href="#DejaVuSans-32"/>
       <use xlink:href="#DejaVuSans-30" transform="translate(63.623047 0)"/>
       <use xlink:href="#DejaVuSans-38" transform="translate(127.246094 0)"/>
       <use xlink:href="#DejaVuSans-30" transform="translate(190.869141 0)"/>
      </g>
     </g>
    </g>
    <g id="xtick_8">
     <g id="line2d_15">
      <path d="M 790.171529 462.04 
L 790.171529 25.44 
" clip-path="url(#p6166bc9ccd)" style="fill: none; stroke: #b0b0b0; stroke-opacity: 0.35; stroke-width: 0.8; stroke-linecap: square"/>
     </g>
     <g id="line2d_16">
      <g>
       <use xlink:href="#m0ef7ca16ea" x="790.171529" y="462.04" style="stroke: #000000; stroke-width: 0.8"/>
      </g>
     </g>
     <g id="text_8">
      <!-- 2100 -->
      <g transform="translate(777.446529 476.638438) scale(0.1 -0.1)">
       <use xlink:href="#DejaVuSans-32"/>
       <use xlink:href="#DejaVuSans-31" transform="translate(63.623047 0)"/>
       <use xlink:href="#DejaVuSans-30" transform="translate(127.246094 0)"/>
       <use xlink:href="#DejaVuSans-30" transform="translate(190.869141 0)"/>
      </g>
     </g>
    </g>
    <g id="text_9">
     <!-- Year -->
     <g transform="translate(421.535682 490.316563) scale(0.1 -0.1)">
      <defs>
       <path id="DejaVuSans-59" d="M -13 4666 
L 666 4666 
L 1959 2747 
L 3244 4666 
L 3922 4666 
L 2272 2222 
L 2272 0 
L 1638 0 
L 1638 2222 
L -13 4666 
z
" transform="scale(0.015625)"/>
       <path id="DejaVuSans-65" d="M 3597 1894 
L 3597 1613 
L 953 1613 
Q 991 1019 1311 708 
Q 1631 397 2203 397 
Q 2534 397 2845 478 
Q 3156 559 3463 722 
L 3463 178 
Q 3153 47 2828 -22 
Q 2503 -91 2169 -91 
Q 1331 -91 842 396 
Q 353 884 353 1716 
Q 353 2575 817 3079 
Q 1281 3584 2069 3584 
Q 2775 3584 3186 3129 
Q 3597 2675 3597 1894 
z
M 3022 2063 
Q 3016 2534 2758 2815 
Q 2500 3097 2075 3097 
Q 1594 3097 1305 2825 
Q 1016 2553 972 2059 
L 3022 2063 
z
" transform="scale(0.015625)"/>
       <path id="DejaVuSans-61" d="M 2194 1759 
Q 1497 1759 1228 1600 
Q 959 1441 959 1056 
Q 959 750 1161 570 
Q 1363 391 1709 391 
Q 2188 391 2477 730 
Q 2766 1069 2766 1631 
L 2766 1759 
L 2194 1759 
z
M 3341 1997 
L 3341 0 
L 2766 0 
L 2766 531 
Q 2569 213 2275 61 
Q 1981 -91 1556 -91 
Q 1019 -91 701 211 
Q 384 513 384 1019 
Q 384 1609 779 1909 
Q 1175 2209 1959 2209 
L 2766 2209 
L 2766 2266 
Q 2766 2663 2505 2880 
Q 2244 3097 1772 3097 
Q 1472 3097 1187 3025 
Q 903 2953 641 2809 
L 641 3341 
Q 956 3463 1253 3523 
Q 1550 3584 1831 3584 
Q 2591 3584 2966 3190 
Q 3341 2797 3341 1997 
z
" transform="scale(0.015625)"/>
       <path id="DejaVuSans-72" d="M 2631 2963 
Q 2534 3019 2420 3045 
Q 2306 3072 2169 3072 
Q 1681 3072 1420 2755 
Q 1159 2438 1159 1844 
L 1159 0 
L 581 0 
L 581 3500 
L 1159 3500 
L 1159 2956 
Q 1341 3275 1631 3429 
Q 1922 3584 2338 3584 
Q 2397 3584 2469 3576 
Q 2541 3569 2628 3553 
L 2631 2963 
z
" transform="scale(0.015625)"/>
      </defs>
      <use xlink:href="#DejaVuSans-59"/>
      <use xlink:href="#DejaVuSans-65" transform="translate(47.833984 0)"/>
      <use xlink:href="#DejaVuSans-61" transform="translate(109.357422 0)"/>
      <use xlink:href="#DejaVuSans-72" transform="translate(170.636719 0)"/>
     </g>
    </g>
   </g>
   <g id="matplotlib.axis_2">
    <g id="ytick_1">
     <g id="line2d_17">
      <path d="M 38.27 424.672627 
L 825.976364 424.672627 
" clip-path="url(#p6166bc9ccd)" style="fill: none; stroke: #b0b0b0; stroke-opacity: 0.35; stroke-width: 0.8; stroke-linecap: square"/>
     </g>
     <g id="line2d_18">
      <defs>
       <path id="me83a8d6dbb" d="M 0 0 
L -3.5 0 
" style="stroke: #000000; stroke-width: 0.8"/>
      </defs>
      <g>
       <use xlink:href="#me83a8d6dbb" x="38.27" y="424.672627" style="stroke: #000000; stroke-width: 0.8"/>
      </g>
     </g>
     <g id="text_10">
      <!-- 0 -->
      <g transform="translate(24.9075 428.471846) scale(0.1 -0.1)">
       <use xlink:href="#DejaVuSans-30"/>
      </g>
     </g>
    </g>
    <g id="ytick_2">
     <g id="line2d_19">
      <path d="M 38.27 337.063034 
L 825.976364 337.063034 
" clip-path="url(#p6166bc9ccd)" style="fill: none; stroke: #b0b0b0; stroke-opacity: 0.35; stroke-width: 0.8; stroke-linecap: square"/>
     </g>
     <g id="line2d_20">
      <g>
       <use xlink:href="#me83a8d6dbb" x="38.27" y="337.063034" style="stroke: #000000; stroke-width: 0.8"/>
      </g>
     </g>
     <g id="text_11">
      <!-- 1 -->
      <g transform="translate(24.9075 340.862252) scale(0.1 -0.1)">
       <use xlink:href="#DejaVuSans-31"/>
      </g>
     </g>
    </g>
    <g id="ytick_3">
     <g id="line2d_21">
      <path d="M 38.27 249.45344 
L 825.976364 249.45344 
" clip-path="url(#p6166bc9ccd)" style="fill: none; stroke: #b0b0b0; stroke-opacity: 0.35; stroke-width: 0.8; stroke-linecap: square"/>
     </g>
     <g id="line2d_22">
      <g>
       <use xlink:href="#me83a8d6dbb" x="38.27" y="249.45344" style="stroke: #000000; stroke-width: 0.8"/>
      </g>
     </g>
     <g id="text_12">
      <!-- 2 -->
      <g transform="translate(24.9075 253.252659) scale(0.1 -0.1)">
       <use xlink:href="#DejaVuSans-32"/>
      </g>
     </g>
    </g>
    <g id="ytick_4">
     <g id="line2d_23">
      <path d="M 38.27 161.843847 
L 825.976364 161.843847 
" clip-path="url(#p6166bc9ccd)" style="fill: none; stroke: #b0b0b0; stroke-opacity: 0.35; stroke-width: 0.8; stroke-linecap: square"/>
     </g>
     <g id="line2d_24">
      <g>
       <use xlink:href="#me83a8d6dbb" x="38.27" y="161.843847" style="stroke: #000000; stroke-width: 0.8"/>
      </g>
     </g>
     <g id="text_13">
      <!-- 3 -->
      <g transform="translate(24.9075 165.643066) scale(0.1 -0.1)">
       <defs>
        <path id="DejaVuSans-33" d="M 2597 2516 
Q 3050 2419 3304 2112 
Q 3559 1806 3559 1356 
Q 3559 666 3084 287 
Q 2609 -91 1734 -91 
Q 1441 -91 1130 -33 
Q 819 25 488 141 
L 488 750 
Q 750 597 1062 519 
Q 1375 441 1716 441 
Q 2309 441 2620 675 
Q 2931 909 2931 1356 
Q 2931 1769 2642 2001 
Q 2353 2234 1838 2234 
L 1294 2234 
L 1294 2753 
L 1863 2753 
Q 2328 2753 2575 2939 
Q 2822 3125 2822 3475 
Q 2822 3834 2567 4026 
Q 2313 4219 1838 4219 
Q 1578 4219 1281 4162 
Q 984 4106 628 3988 
L 628 4550 
Q 988 4650 1302 4700 
Q 1616 4750 1894 4750 
Q 2613 4750 3031 4423 
Q 3450 4097 3450 3541 
Q 3450 3153 3228 2886 
Q 3006 2619 2597 2516 
z
" transform="scale(0.015625)"/>
       </defs>
       <use xlink:href="#DejaVuSans-33"/>
      </g>
     </g>
    </g>
    <g id="ytick_5">
     <g id="line2d_25">
      <path d="M 38.27 74.234254 
L 825.976364 74.234254 
" clip-path="url(#p6166bc9ccd)" style="fill: none; stroke: #b0b0b0; stroke-opacity: 0.35; stroke-width: 0.8; stroke-linecap: square"/>
     </g>
     <g id="line2d_26">
      <g>
       <use xlink:href="#me83a8d6dbb" x="38.27" y="74.234254" style="stroke: #000000; stroke-width: 0.8"/>
      </g>
     </g>
     <g id="text_14">
      <!-- 4 -->
      <g transform="translate(24.9075 78.033472) scale(0.1 -0.1)">
       <use xlink:href="#DejaVuSans-34"/>
      </g>
     </g>
    </g>
    <g id="text_15">
     <!-- Temperature change from 1951-1980 / C -->
     <g transform="translate(18.827813 345.818906) rotate(-90) scale(0.1 -0.1)">
      <defs>
       <path id="DejaVuSans-54" d="M -19 4666 
L 3928 4666 
L 3928 4134 
L 2272 4134 
L 2272 0 
L 1638 0 
L 1638 4134 
L -19 4134 
L -19 4666 
z
" transform="scale(0.015625)"/>
       <path id="DejaVuSans-6d" d="M 3328 2828 
Q 3544 3216 3844 3400 
Q 4144 3584 4550 3584 
Q 5097 3584 5394 3201 
Q 5691 2819 5691 2113 
L 5691 0 
L 5113 0 
L 5113 2094 
Q 5113 2597 4934 2840 
Q 4756 3084 4391 3084 
Q 3944 3084 3684 2787 
Q 3425 2491 3425 1978 
L 3425 0 
L 2847 0 
L 2847 2094 
Q 2847 2600 2669 2842 
Q 2491 3084 2119 3084 
Q 1678 3084 1418 2786 
Q 1159 2488 1159 1978 
L 1159 0 
L 581 0 
L 581 3500 
L 1159 3500 
L 1159 2956 
Q 1356 3278 1631 3431 
Q 1906 3584 2284 3584 
Q 2666 3584 2933 3390 
Q 3200 3197 3328 2828 
z
" transform="scale(0.015625)"/>
       <path id="DejaVuSans-70" d="M 1159 525 
L 1159 -1331 
L 581 -1331 
L 581 3500 
L 1159 3500 
L 1159 2969 
Q 1341 3281 1617 3432 
Q 1894 3584 2278 3584 
Q 2916 3584 3314 3078 
Q 3713 2572 3713 1747 
Q 3713 922 3314 415 
Q 2916 -91 2278 -91 
Q 1894 -91 1617 61 
Q 1341 213 1159 525 
z
M 3116 1747 
Q 3116 2381 2855 2742 
Q 2594 3103 2138 3103 
Q 1681 3103 1420 2742 
Q 1159 2381 1159 1747 
Q 1159 1113 1420 752 
Q 1681 391 2138 391 
Q 2594 391 2855 752 
Q 3116 1113 3116 1747 
z
" transform="scale(0.015625)"/>
       <path id="DejaVuSans-74" d="M 1172 4494 
L 1172 3500 
L 2356 3500 
L 2356 3053 
L 1172 3053 
L 1172 1153 
Q 1172 725 1289 603 
Q 1406 481 1766 481 
L 2356 481 
L 2356 0 
L 1766 0 
Q 1100 0 847 248 
Q 594 497 594 1153 
L 594 3053 
L 172 3053 
L 172 3500 
L 594 3500 
L 594 4494 
L 1172 4494 
z
" transform="scale(0.015625)"/>
       <path id="DejaVuSans-75" d="M 544 1381 
L 544 3500 
L 1119 3500 
L 1119 1403 
Q 1119 906 1312 657 
Q 1506 409 1894 409 
Q 2359 409 2629 706 
Q 2900 1003 2900 1516 
L 2900 3500 
L 3475 3500 
L 3475 0 
L 2900 0 
L 2900 538 
Q 2691 219 2414 64 
Q 2138 -91 1772 -91 
Q 1169 -91 856 284 
Q 544 659 544 1381 
z
M 1991 3584 
L 1991 3584 
z
" transform="scale(0.015625)"/>
       <path id="DejaVuSans-20" transform="scale(0.015625)"/>
       <path id="DejaVuSans-63" d="M 3122 3366 
L 3122 2828 
Q 2878 2963 2633 3030 
Q 2388 3097 2138 3097 
Q 1578 3097 1268 2742 
Q 959 2388 959 1747 
Q 959 1106 1268 751 
Q 1578 397 2138 397 
Q 2388 397 2633 464 
Q 2878 531 3122 666 
L 3122 134 
Q 2881 22 2623 -34 
Q 2366 -91 2075 -91 
Q 1284 -91 818 406 
Q 353 903 353 1747 
Q 353 2603 823 3093 
Q 1294 3584 2113 3584 
Q 2378 3584 2631 3529 
Q 2884 3475 3122 3366 
z
" transform="scale(0.015625)"/>
       <path id="DejaVuSans-68" d="M 3513 2113 
L 3513 0 
L 2938 0 
L 2938 2094 
Q 2938 2591 2744 2837 
Q 2550 3084 2163 3084 
Q 1697 3084 1428 2787 
Q 1159 2491 1159 1978 
L 1159 0 
L 581 0 
L 581 4863 
L 1159 4863 
L 1159 2956 
Q 1366 3272 1645 3428 
Q 1925 3584 2291 3584 
Q 2894 3584 3203 3211 
Q 3513 2838 3513 2113 
z
" transform="scale(0.015625)"/>
       <path id="DejaVuSans-6e" d="M 3513 2113 
L 3513 0 
L 2938 0 
L 2938 2094 
Q 2938 2591 2744 2837 
Q 2550 3084 2163 3084 
Q 1697 3084 1428 2787 
Q 1159 2491 1159 1978 
L 1159 0 
L 581 0 
L 581 3500 
L 1159 3500 
L 1159 2956 
Q 1366 3272 1645 3428 
Q 1925 3584 2291 3584 
Q 2894 3584 3203 3211 
Q 3513 2838 3513 2113 
z
" transform="scale(0.015625)"/>
       <path id="DejaVuSans-67" d="M 2906 1791 
Q 2906 2416 2648 2759 
Q 2391 3103 1925 3103 
Q 1463 3103 1205 2759 
Q 947 2416 947 1791 
Q 947 1169 1205 825 
Q 1463 481 1925 481 
Q 2391 481 2648 825 
Q 2906 1169 2906 1791 
z
M 3481 434 
Q 3481 -459 3084 -895 
Q 2688 -1331 1869 -1331 
Q 1566 -1331 1297 -1286 
Q 1028 -1241 775 -1147 
L 775 -588 
Q 1028 -725 1275 -790 
Q 1522 -856 1778 -856 
Q 2344 -856 2625 -561 
Q 2906 -266 2906 331 
L 2906 616 
Q 2728 306 2450 153 
Q 2172 0 1784 0 
Q 1141 0 747 490 
Q 353 981 353 1791 
Q 353 2603 747 3093 
Q 1141 3584 1784 3584 
Q 2172 3584 2450 3431 
Q 2728 3278 2906 2969 
L 2906 3500 
L 3481 3500 
L 3481 434 
z
" transform="scale(0.015625)"/>
       <path id="DejaVuSans-66" d="M 2375 4863 
L 2375 4384 
L 1825 4384 
Q 1516 4384 1395 4259 
Q 1275 4134 1275 3809 
L 1275 3500 
L 2222 3500 
L 2222 3053 
L 1275 3053 
L 1275 0 
L 697 0 
L 697 3053 
L 147 3053 
L 147 3500 
L 697 3500 
L 697 3744 
Q 697 4328 969 4595 
Q 1241 4863 1831 4863 
L 2375 4863 
z
" transform="scale(0.015625)"/>
       <path id="DejaVuSans-6f" d="M 1959 3097 
Q 1497 3097 1228 2736 
Q 959 2375 959 1747 
Q 959 1119 1226 758 
Q 1494 397 1959 397 
Q 2419 397 2687 759 
Q 2956 1122 2956 1747 
Q 2956 2369 2687 2733 
Q 2419 3097 1959 3097 
z
M 1959 3584 
Q 2709 3584 3137 3096 
Q 3566 2609 3566 1747 
Q 3566 888 3137 398 
Q 2709 -91 1959 -91 
Q 1206 -91 779 398 
Q 353 888 353 1747 
Q 353 2609 779 3096 
Q 1206 3584 1959 3584 
z
" transform="scale(0.015625)"/>
       <path id="DejaVuSans-35" d="M 691 4666 
L 3169 4666 
L 3169 4134 
L 1269 4134 
L 1269 2991 
Q 1406 3038 1543 3061 
Q 1681 3084 1819 3084 
Q 2600 3084 3056 2656 
Q 3513 2228 3513 1497 
Q 3513 744 3044 326 
Q 2575 -91 1722 -91 
Q 1428 -91 1123 -41 
Q 819 9 494 109 
L 494 744 
Q 775 591 1075 516 
Q 1375 441 1709 441 
Q 2250 441 2565 725 
Q 2881 1009 2881 1497 
Q 2881 1984 2565 2268 
Q 2250 2553 1709 2553 
Q 1456 2553 1204 2497 
Q 953 2441 691 2322 
L 691 4666 
z
" transform="scale(0.015625)"/>
       <path id="DejaVuSans-2d" d="M 313 2009 
L 1997 2009 
L 1997 1497 
L 313 1497 
L 313 2009 
z
" transform="scale(0.015625)"/>
       <path id="DejaVuSans-2f" d="M 1625 4666 
L 2156 4666 
L 531 -594 
L 0 -594 
L 1625 4666 
z
" transform="scale(0.015625)"/>
       <path id="DejaVuSans-43" d="M 4122 4306 
L 4122 3641 
Q 3803 3938 3442 4084 
Q 3081 4231 2675 4231 
Q 1875 4231 1450 3742 
Q 1025 3253 1025 2328 
Q 1025 1406 1450 917 
Q 1875 428 2675 428 
Q 3081 428 3442 575 
Q 3803 722 4122 1019 
L 4122 359 
Q 3791 134 3420 21 
Q 3050 -91 2638 -91 
Q 1578 -91 968 557 
Q 359 1206 359 2328 
Q 359 3453 968 4101 
Q 1578 4750 2638 4750 
Q 3056 4750 3426 4639 
Q 3797 4528 4122 4306 
z
" transform="scale(0.015625)"/>
      </defs>
      <use xlink:href="#DejaVuSans-54"/>
      <use xlink:href="#DejaVuSans-65" transform="translate(44.083984 0)"/>
      <use xlink:href="#DejaVuSans-6d" transform="translate(105.607422 0)"/>
      <use xlink:href="#DejaVuSans-70" transform="translate(203.019531 0)"/>
      <use xlink:href="#DejaVuSans-65" transform="translate(266.496094 0)"/>
      <use xlink:href="#DejaVuSans-72" transform="translate(328.019531 0)"/>
      <use xlink:href="#DejaVuSans-61" transform="translate(369.132812 0)"/>
      <use xlink:href="#DejaVuSans-74" transform="translate(430.412109 0)"/>
      <use xlink:href="#DejaVuSans-75" transform="translate(469.621094 0)"/>
      <use xlink:href="#DejaVuSans-72" transform="translate(533 0)"/>
      <use xlink:href="#DejaVuSans-65" transform="translate(571.863281 0)"/>
      <use xlink:href="#DejaVuSans-20" transform="translate(633.386719 0)"/>
      <use xlink:href="#DejaVuSans-63" transform="translate(665.173828 0)"/>
      <use xlink:href="#DejaVuSans-68" transform="translate(720.154297 0)"/>
      <use xlink:href="#DejaVuSans-61" transform="translate(783.533203 0)"/>
      <use xlink:href="#DejaVuSans-6e" transform="translate(844.8125 0)"/>
      <use xlink:href="#DejaVuSans-67" transform="translate(908.191406 0)"/>
      <use xlink:href="#DejaVuSans-65" transform="translate(971.667969 0)"/>
      <use xlink:href="#DejaVuSans-20" transform="translate(1033.191406 0)"/>
      <use xlink:href="#DejaVuSans-66" transform="translate(1064.978516 0)"/>
      <use xlink:href="#DejaVuSans-72" transform="translate(1100.183594 0)"/>
      <use xlink:href="#DejaVuSans-6f" transform="translate(1139.046875 0)"/>
      <use xlink:href="#DejaVuSans-6d" transform="translate(1200.228516 0)"/>
      <use xlink:href="#DejaVuSans-20" transform="translate(1297.640625 0)"/>
      <use xlink:href="#DejaVuSans-31" transform="translate(1329.427734 0)"/>
      <use xlink:href="#DejaVuSans-39" transform="translate(1393.050781 0)"/>
      <use xlink:href="#DejaVuSans-35" transform="translate(1456.673828 0)"/>
      <use xlink:href="#DejaVuSans-31" transform="translate(1520.296875 0)"/>
      <use xlink:href="#DejaVuSans-2d" transform="translate(1583.919922 0)"/>
      <use xlink:href="#DejaVuSans-31" transform="translate(1620.003906 0)"/>
      <use xlink:href="#DejaVuSans-39" transform="translate(1683.626953 0)"/>
      <use xlink:href="#DejaVuSans-38" transform="translate(1747.25 0)"/>
      <use xlink:href="#DejaVuSans-30" transform="translate(1810.873047 0)"/>
      <use xlink:href="#DejaVuSans-20" transform="translate(1874.496094 0)"/>
      <use xlink:href="#DejaVuSans-2f" transform="translate(1906.283203 0)"/>
      <use xlink:href="#DejaVuSans-20" transform="translate(1939.974609 0)"/>
      <use xlink:href="#DejaVuSans-43" transform="translate(1971.761719 0)"/>
     </g>
    </g>
   </g>
   <g id="line2d_27">
    <path d="M 74.074835 422.044339 
L 79.153535 427.300915 
L 84.232235 419.416051 
L 89.310935 422.044339 
L 94.389635 420.292147 
L 99.468335 442.194545 
L 104.547034 434.309682 
L 109.625734 429.929202 
L 114.704434 426.424819 
L 119.783134 431.681394 
L 124.861834 420.292147 
L 129.940534 422.044339 
L 135.019234 431.681394 
L 140.097934 423.796531 
L 145.176634 410.655092 
L 150.255334 430.805298 
L 155.334034 425.548723 
L 160.412734 433.433586 
L 165.491434 408.9029 
L 170.570134 418.539955 
L 175.648834 410.655092 
L 180.727534 401.894133 
L 185.806234 396.637557 
L 190.884934 412.407284 
L 195.963634 397.513653 
L 201.042334 410.655092 
L 206.121034 414.159476 
L 211.199734 408.9029 
L 216.278434 396.637557 
L 221.357134 390.504885 
L 226.435833 401.018037 
L 231.514533 385.24831 
L 236.593233 389.628789 
L 241.671933 405.398516 
L 246.750633 404.52242 
L 251.829333 396.637557 
L 256.908033 385.24831 
L 261.986733 395.761461 
L 267.065433 384.372214 
L 272.144133 371.230775 
L 277.222833 391.380981 
L 282.301533 390.504885 
L 287.380233 378.239542 
L 292.458933 369.478583 
L 297.537633 370.354679 
L 302.616333 378.239542 
L 307.695033 365.974199 
L 312.773733 369.478583 
L 317.852433 366.850295 
L 322.931133 377.363446 
L 328.009833 367.726391 
L 333.088533 361.59372 
L 338.167233 371.230775 
L 343.245933 367.726391 
L 348.324632 365.974199 
L 353.403332 359.841528 
L 358.482032 346.700089 
L 363.560732 336.186938 
L 368.639432 344.071801 
L 373.718132 351.080568 
L 378.796832 339.691321 
L 383.875532 335.310842 
L 388.954232 351.080568 
" clip-path="url(#p6166bc9ccd)" style="fill: none; stroke: #000000; stroke-width: 1.6; stroke-linecap: square"/>
    <defs>
     <path id="mb1084e79a8" d="M 0 2 
C 0.530406 2 1.03916 1.789267 1.414214 1.414214 
C 1.789267 1.03916 2 0.530406 2 0 
C 2 -0.530406 1.789267 -1.03916 1.414214 -1.414214 
C 1.03916 -1.789267 0.530406 -2 0 -2 
C -0.530406 -2 -1.03916 -1.789267 -1.414214 -1.414214 
C -1.789267 -1.03916 -2 -0.530406 -2 0 
C -2 0.530406 -1.789267 1.03916 -1.414214 1.414214 
C -1.03916 1.789267 -0.530406 2 0 2 
z
" style="stroke: #000000"/>
    </defs>
    <g clip-path="url(#p6166bc9ccd)">
     <use xlink:href="#mb1084e79a8" x="74.074835" y="422.044339" style="stroke: #000000"/>
     <use xlink:href="#mb1084e79a8" x="79.153535" y="427.300915" style="stroke: #000000"/>
     <use xlink:href="#mb1084e79a8" x="84.232235" y="419.416051" style="stroke: #000000"/>
     <use xlink:href="#mb1084e79a8" x="89.310935" y="422.044339" style="stroke: #000000"/>
     <use xlink:href="#mb1084e79a8" x="94.389635" y="420.292147" style="stroke: #000000"/>
     <use xlink:href="#mb1084e79a8" x="99.468335" y="442.194545" style="stroke: #000000"/>
     <use xlink:href="#mb1084e79a8" x="104.547034" y="434.309682" style="stroke: #000000"/>
     <use xlink:href="#mb1084e79a8" x="109.625734" y="429.929202" style="stroke: #000000"/>
     <use xlink:href="#mb1084e79a8" x="114.704434" y="426.424819" style="stroke: #000000"/>
     <use xlink:href="#mb1084e79a8" x="119.783134" y="431.681394" style="stroke: #000000"/>
     <use xlink:href="#mb1084e79a8" x="124.861834" y="420.292147" style="stroke: #000000"/>
     <use xlink:href="#mb1084e79a8" x="129.940534" y="422.044339" style="stroke: #000000"/>
     <use xlink:href="#mb1084e79a8" x="135.019234" y="431.681394" style="stroke: #000000"/>
     <use xlink:href="#mb1084e79a8" x="140.097934" y="423.796531" style="stroke: #000000"/>
     <use xlink:href="#mb1084e79a8" x="145.176634" y="410.655092" style="stroke: #000000"/>
     <use xlink:href="#mb1084e79a8" x="150.255334" y="430.805298" style="stroke: #000000"/>
     <use xlink:href="#mb1084e79a8" x="155.334034" y="425.548723" style="stroke: #000000"/>
     <use xlink:href="#mb1084e79a8" x="160.412734" y="433.433586" style="stroke: #000000"/>
     <use xlink:href="#mb1084e79a8" x="165.491434" y="408.9029" style="stroke: #000000"/>
     <use xlink:href="#mb1084e79a8" x="170.570134" y="418.539955" style="stroke: #000000"/>
     <use xlink:href="#mb1084e79a8" x="175.648834" y="410.655092" style="stroke: #000000"/>
     <use xlink:href="#mb1084e79a8" x="180.727534" y="401.894133" style="stroke: #000000"/>
     <use xlink:href="#mb1084e79a8" x="185.806234" y="396.637557" style="stroke: #000000"/>
     <use xlink:href="#mb1084e79a8" x="190.884934" y="412.407284" style="stroke: #000000"/>
     <use xlink:href="#mb1084e79a8" x="195.963634" y="397.513653" style="stroke: #000000"/>
     <use xlink:href="#mb1084e79a8" x="201.042334" y="410.655092" style="stroke: #000000"/>
     <use xlink:href="#mb1084e79a8" x="206.121034" y="414.159476" style="stroke: #000000"/>
     <use xlink:href="#mb1084e79a8" x="211.199734" y="408.9029" style="stroke: #000000"/>
     <use xlink:href="#mb1084e79a8" x="216.278434" y="396.637557" style="stroke: #000000"/>
     <use xlink:href="#mb1084e79a8" x="221.357134" y="390.504885" style="stroke: #000000"/>
     <use xlink:href="#mb1084e79a8" x="226.435833" y="401.018037" style="stroke: #000000"/>
     <use xlink:href="#mb1084e79a8" x="231.514533" y="385.24831" style="stroke: #000000"/>
     <use xlink:href="#mb1084e79a8" x="236.593233" y="389.628789" style="stroke: #000000"/>
     <use xlink:href="#mb1084e79a8" x="241.671933" y="405.398516" style="stroke: #000000"/>
     <use xlink:href="#mb1084e79a8" x="246.750633" y="404.52242" style="stroke: #000000"/>
     <use xlink:href="#mb1084e79a8" x="251.829333" y="396.637557" style="stroke: #000000"/>
     <use xlink:href="#mb1084e79a8" x="256.908033" y="385.24831" style="stroke: #000000"/>
     <use xlink:href="#mb1084e79a8" x="261.986733" y="395.761461" style="stroke: #000000"/>
     <use xlink:href="#mb1084e79a8" x="267.065433" y="384.372214" style="stroke: #000000"/>
     <use xlink:href="#mb1084e79a8" x="272.144133" y="371.230775" style="stroke: #000000"/>
     <use xlink:href="#mb1084e79a8" x="277.222833" y="391.380981" style="stroke: #000000"/>
     <use xlink:href="#mb1084e79a8" x="282.301533" y="390.504885" style="stroke: #000000"/>
     <use xlink:href="#mb1084e79a8" x="287.380233" y="378.239542" style="stroke: #000000"/>
     <use xlink:href="#mb1084e79a8" x="292.458933" y="369.478583" style="stroke: #000000"/>
     <use xlink:href="#mb1084e79a8" x="297.537633" y="370.354679" style="stroke: #000000"/>
     <use xlink:href="#mb1084e79a8" x="302.616333" y="378.239542" style="stroke: #000000"/>
     <use xlink:href="#mb1084e79a8" x="307.695033" y="365.974199" style="stroke: #000000"/>
     <use xlink:href="#mb1084e79a8" x="312.773733" y="369.478583" style="stroke: #000000"/>
     <use xlink:href="#mb1084e79a8" x="317.852433" y="366.850295" style="stroke: #000000"/>
     <use xlink:href="#mb1084e79a8" x="322.931133" y="377.363446" style="stroke: #000000"/>
     <use xlink:href="#mb1084e79a8" x="328.009833" y="367.726391" style="stroke: #000000"/>
     <use xlink:href="#mb1084e79a8" x="333.088533" y="361.59372" style="stroke: #000000"/>
     <use xlink:href="#mb1084e79a8" x="338.167233" y="371.230775" style="stroke: #000000"/>
     <use xlink:href="#mb1084e79a8" x="343.245933" y="367.726391" style="stroke: #000000"/>
     <use xlink:href="#mb1084e79a8" x="348.324632" y="365.974199" style="stroke: #000000"/>
     <use xlink:href="#mb1084e79a8" x="353.403332" y="359.841528" style="stroke: #000000"/>
     <use xlink:href="#mb1084e79a8" x="358.482032" y="346.700089" style="stroke: #000000"/>
     <use xlink:href="#mb1084e79a8" x="363.560732" y="336.186938" style="stroke: #000000"/>
     <use xlink:href="#mb1084e79a8" x="368.639432" y="344.071801" style="stroke: #000000"/>
     <use xlink:href="#mb1084e79a8" x="373.718132" y="351.080568" style="stroke: #000000"/>
     <use xlink:href="#mb1084e79a8" x="378.796832" y="339.691321" style="stroke: #000000"/>
     <use xlink:href="#mb1084e79a8" x="383.875532" y="335.310842" style="stroke: #000000"/>
     <use xlink:href="#mb1084e79a8" x="388.954232" y="351.080568" style="stroke: #000000"/>
    </g>
   </g>
   <g id="line2d_28">
    <path d="M 394.032932 337.646196 
L 399.111632 335.314742 
L 404.190332 332.95541 
L 409.269032 330.568098 
L 414.347732 328.152704 
L 419.426432 325.709127 
L 424.505132 323.237262 
L 429.583832 320.737004 
L 434.662532 318.208248 
L 439.741232 315.650886 
L 444.819932 313.064811 
L 449.898632 310.449914 
L 454.977332 307.806085 
L 460.056032 305.133212 
L 465.134732 302.431184 
L 470.213432 299.699886 
L 475.292131 296.939206 
L 480.370831 294.149028 
L 485.449531 291.329234 
L 490.528231 288.479708 
L 495.606931 285.600332 
L 500.685631 282.690985 
L 505.764331 279.751548 
L 510.843031 276.781898 
L 515.921731 273.781913 
L 521.000431 270.751468 
L 526.079131 267.69044 
L 531.157831 264.598702 
L 536.236531 261.476128 
L 541.315231 258.322589 
L 546.393931 255.137956 
L 551.472631 251.9221 
L 556.551331 248.674889 
L 561.630031 245.396191 
L 566.708731 242.085872 
L 571.787431 238.743799 
L 576.866131 235.369836 
L 581.944831 231.963847 
L 587.023531 228.525694 
L 592.102231 225.055238 
L 597.18093 221.552341 
L 602.25963 218.01686 
L 607.33833 214.448656 
L 612.41703 210.847585 
L 617.49573 207.213503 
L 622.57443 203.546265 
L 627.65313 199.845726 
L 632.73183 196.111738 
L 637.81053 192.344154 
L 642.88923 188.542824 
L 647.96793 184.707598 
L 653.04663 180.838326 
L 658.12533 176.934855 
L 663.20403 172.997031 
L 668.28273 169.024701 
L 673.36143 165.017708 
L 678.44013 160.975897 
L 683.51883 156.89911 
L 688.59753 152.787188 
L 693.67623 148.639973 
L 698.75493 144.457302 
L 703.83363 140.239015 
L 708.91233 135.984948 
L 713.99103 131.694939 
L 719.06973 127.368821 
L 724.148429 123.00643 
L 729.227129 118.607597 
L 734.305829 114.172156 
L 739.384529 109.699936 
L 744.463229 105.190769 
L 749.541929 100.644482 
L 754.620629 96.060903 
L 759.699329 91.439859 
L 764.778029 86.781176 
L 769.856729 82.084678 
L 774.935429 77.350189 
L 780.014129 72.577531 
L 785.092829 67.766526 
L 790.171529 62.916994 
" clip-path="url(#p6166bc9ccd)" style="fill: none; stroke: #1f77b4; stroke-width: 2; stroke-linecap: square"/>
   </g>
   <g id="line2d_29">
    <path d="M 394.032932 336.903465 
L 399.111632 334.473519 
L 404.190332 332.019308 
L 409.269032 329.536227 
L 414.347732 327.02134 
L 419.426432 324.475705 
L 424.505132 321.898875 
L 429.583832 319.290808 
L 434.662532 316.651365 
L 439.741232 313.980427 
L 444.819932 311.27787 
L 449.898632 308.543567 
L 454.977332 305.777392 
L 460.056032 302.979217 
L 465.134732 300.148913 
L 470.213432 297.28635 
L 475.292131 294.391395 
L 480.370831 291.463915 
L 485.449531 288.503777 
L 490.528231 285.510844 
L 495.606931 282.48498 
L 500.685631 279.426045 
L 505.764331 276.333902 
L 510.843031 273.208409 
L 515.921731 270.049424 
L 521.000431 266.856804 
L 526.079131 263.630403 
L 531.157831 260.370077 
L 536.236531 257.075678 
L 541.315231 253.747058 
L 546.393931 250.384066 
L 551.472631 246.986553 
L 556.551331 243.554364 
L 561.630031 240.087348 
L 566.708731 236.585349 
L 571.787431 233.048211 
L 576.866131 229.475777 
L 581.944831 225.867887 
L 587.023531 222.224383 
L 592.102231 218.545102 
L 597.18093 214.829883 
L 602.25963 211.07856 
L 607.33833 207.290971 
L 612.41703 203.466947 
L 617.49573 199.606321 
L 622.57443 195.708924 
L 627.65313 191.774587 
L 632.73183 187.803138 
L 637.81053 183.794403 
L 642.88923 179.748209 
L 647.96793 175.66438 
L 653.04663 171.542741 
L 658.12533 167.383112 
L 663.20403 163.185315 
L 668.28273 158.94917 
L 673.36143 154.674494 
L 678.44013 150.361105 
L 683.51883 146.008818 
L 688.59753 141.617448 
L 693.67623 137.186808 
L 698.75493 132.71671 
L 703.83363 128.206964 
L 708.91233 123.65738 
L 713.99103 119.067765 
L 719.06973 114.437927 
L 724.148429 109.767671 
L 729.227129 105.056801 
L 734.305829 100.30512 
L 739.384529 95.51243 
L 744.463229 90.67853 
L 749.541929 85.803221 
L 754.620629 80.886299 
L 759.699329 75.927562 
L 764.778029 70.926805 
L 769.856729 65.883821 
L 774.935429 60.798403 
L 780.014129 55.670343 
L 785.092829 50.49943 
L 790.171529 45.285455 
" clip-path="url(#p6166bc9ccd)" style="fill: none; stroke: #ff7f0e; stroke-width: 2; stroke-linecap: square"/>
   </g>
   <g id="line2d_30">
    <path d="M 38.27 315.160635 
L 825.976364 315.160635 
" clip-path="url(#p6166bc9ccd)" style="fill: none; stroke-dasharray: 4.44,1.92; stroke-dashoffset: 0; stroke: #1f77b4; stroke-width: 1.2"/>
   </g>
   <g id="line2d_31">
    <path d="M 38.27 293.258237 
L 825.976364 293.258237 
" clip-path="url(#p6166bc9ccd)" style="fill: none; stroke-dasharray: 4.44,1.92; stroke-dashoffset: 0; stroke: #1f77b4; stroke-width: 1.2"/>
   </g>
   <g id="line2d_32">
    <path d="M 38.27 249.45344 
L 825.976364 249.45344 
" clip-path="url(#p6166bc9ccd)" style="fill: none; stroke-dasharray: 4.44,1.92; stroke-dashoffset: 0; stroke: #1f77b4; stroke-width: 1.2"/>
   </g>
   <g id="line2d_33">
    <path d="M 388.954232 462.04 
L 388.954232 25.44 
" clip-path="url(#p6166bc9ccd)" style="fill: none; stroke-dasharray: 1.2,1.98; stroke-dashoffset: 0; stroke: #808080; stroke-width: 1.2"/>
   </g>
   <g id="patch_3">
    <path d="M 38.27 462.04 
L 38.27 25.44 
" style="fill: none; stroke: #000000; stroke-width: 0.8; stroke-linejoin: miter; stroke-linecap: square"/>
   </g>
   <g id="patch_4">
    <path d="M 825.976364 462.04 
L 825.976364 25.44 
" style="fill: none; stroke: #000000; stroke-width: 0.8; stroke-linejoin: miter; stroke-linecap: square"/>
   </g>
   <g id="patch_5">
    <path d="M 38.27 462.04 
L 825.976364 462.04 
" style="fill: none; stroke: #000000; stroke-width: 0.8; stroke-linejoin: miter; stroke-linecap: square"/>
   </g>
   <g id="patch_6">
    <path d="M 38.27 25.44 
L 825.976364 25.44 
" style="fill: none; stroke: #000000; stroke-width: 0.8; stroke-linejoin: miter; stroke-linecap: square"/>
   </g>
   <g id="text_16">
    <!-- 2050: 1.86 C -->
    <g transform="translate(542.236531 255.476128) scale(0.08 -0.08)">
     <defs>
      <path id="DejaVuSans-3a" d="M 750 794 
L 1409 794 
L 1409 0 
L 750 0 
L 750 794 
z
M 750 3309 
L 1409 3309 
L 1409 2516 
L 750 2516 
L 750 3309 
z
" transform="scale(0.015625)"/>
      <path id="DejaVuSans-2e" d="M 684 794 
L 1344 794 
L 1344 0 
L 684 0 
L 684 794 
z
" transform="scale(0.015625)"/>
     </defs>
     <use xlink:href="#DejaVuSans-32"/>
     <use xlink:href="#DejaVuSans-30" transform="translate(63.623047 0)"/>
     <use xlink:href="#DejaVuSans-35" transform="translate(127.246094 0)"/>
     <use xlink:href="#DejaVuSans-30" transform="translate(190.869141 0)"/>
     <use xlink:href="#DejaVuSans-3a" transform="translate(254.492188 0)"/>
     <use xlink:href="#DejaVuSans-20" transform="translate(288.183594 0)"/>
     <use xlink:href="#DejaVuSans-31" transform="translate(319.970703 0)"/>
     <use xlink:href="#DejaVuSans-2e" transform="translate(383.59375 0)"/>
     <use xlink:href="#DejaVuSans-38" transform="translate(415.380859 0)"/>
     <use xlink:href="#DejaVuSans-36" transform="translate(479.003906 0)"/>
     <use xlink:href="#DejaVuSans-20" transform="translate(542.626953 0)"/>
     <use xlink:href="#DejaVuSans-43" transform="translate(574.414062 0)"/>
    </g>
   </g>
   <g id="text_17">
    <!-- 2100: 4.13 C -->
    <g transform="translate(796.171529 56.916994) scale(0.08 -0.08)">
     <use xlink:href="#DejaVuSans-32"/>
     <use xlink:href="#DejaVuSans-31" transform="translate(63.623047 0)"/>
     <use xlink:href="#DejaVuSans-30" transform="translate(127.246094 0)"/>
     <use xlink:href="#DejaVuSans-30" transform="translate(190.869141 0)"/>
     <use xlink:href="#DejaVuSans-3a" transform="translate(254.492188 0)"/>
     <use xlink:href="#DejaVuSans-20" transform="translate(288.183594 0)"/>
     <use xlink:href="#DejaVuSans-34" transform="translate(319.970703 0)"/>
     <use xlink:href="#DejaVuSans-2e" transform="translate(383.59375 0)"/>
     <use xlink:href="#DejaVuSans-31" transform="translate(415.380859 0)"/>
     <use xlink:href="#DejaVuSans-33" transform="translate(479.003906 0)"/>
     <use xlink:href="#DejaVuSans-20" transform="translate(542.626953 0)"/>
     <use xlink:href="#DejaVuSans-43" transform="translate(574.414062 0)"/>
    </g>
   </g>
   <g id="text_18">
    <!-- 2050: 1.91 C -->
    <g transform="translate(542.236531 251.075678) scale(0.08 -0.08)">
     <use xlink:href="#DejaVuSans-32"/>
     <use xlink:href="#DejaVuSans-30" transform="translate(63.623047 0)"/>
     <use xlink:href="#DejaVuSans-35" transform="translate(127.246094 0)"/>
     <use xlink:href="#DejaVuSans-30" transform="translate(190.869141 0)"/>
     <use xlink:href="#DejaVuSans-3a" transform="translate(254.492188 0)"/>
     <use xlink:href="#DejaVuSans-20" transform="translate(288.183594 0)"/>
     <use xlink:href="#DejaVuSans-31" transform="translate(319.970703 0)"/>
     <use xlink:href="#DejaVuSans-2e" transform="translate(383.59375 0)"/>
     <use xlink:href="#DejaVuSans-39" transform="translate(415.380859 0)"/>
     <use xlink:href="#DejaVuSans-31" transform="translate(479.003906 0)"/>
     <use xlink:href="#DejaVuSans-20" transform="translate(542.626953 0)"/>
     <use xlink:href="#DejaVuSans-43" transform="translate(574.414062 0)"/>
    </g>
   </g>
   <g id="text_19">
    <!-- 2100: 4.33 C -->
    <g transform="translate(796.171529 39.285455) scale(0.08 -0.08)">
     <use xlink:href="#DejaVuSans-32"/>
     <use xlink:href="#DejaVuSans-31" transform="translate(63.623047 0)"/>
     <use xlink:href="#DejaVuSans-30" transform="translate(127.246094 0)"/>
     <use xlink:href="#DejaVuSans-30" transform="translate(190.869141 0)"/>
     <use xlink:href="#DejaVuSans-3a" transform="translate(254.492188 0)"/>
     <use xlink:href="#DejaVuSans-20" transform="translate(288.183594 0)"/>
     <use xlink:href="#DejaVuSans-34" transform="translate(319.970703 0)"/>
     <use xlink:href="#DejaVuSans-2e" transform="translate(383.59375 0)"/>
     <use xlink:href="#DejaVuSans-33" transform="translate(415.380859 0)"/>
     <use xlink:href="#DejaVuSans-33" transform="translate(479.003906 0)"/>
     <use xlink:href="#DejaVuSans-20" transform="translate(542.626953 0)"/>
     <use xlink:href="#DejaVuSans-43" transform="translate(574.414062 0)"/>
    </g>
   </g>
   <g id="text_20">
    <!-- Future Temperature Prediction Using Quadratic CO2-Temperature Model -->
    <g transform="translate(217.137557 19.44) scale(0.12 -0.12)">
     <defs>
      <path id="DejaVuSans-46" d="M 628 4666 
L 3309 4666 
L 3309 4134 
L 1259 4134 
L 1259 2759 
L 3109 2759 
L 3109 2228 
L 1259 2228 
L 1259 0 
L 628 0 
L 628 4666 
z
" transform="scale(0.015625)"/>
      <path id="DejaVuSans-50" d="M 1259 4147 
L 1259 2394 
L 2053 2394 
Q 2494 2394 2734 2622 
Q 2975 2850 2975 3272 
Q 2975 3691 2734 3919 
Q 2494 4147 2053 4147 
L 1259 4147 
z
M 628 4666 
L 2053 4666 
Q 2838 4666 3239 4311 
Q 3641 3956 3641 3272 
Q 3641 2581 3239 2228 
Q 2838 1875 2053 1875 
L 1259 1875 
L 1259 0 
L 628 0 
L 628 4666 
z
" transform="scale(0.015625)"/>
      <path id="DejaVuSans-64" d="M 2906 2969 
L 2906 4863 
L 3481 4863 
L 3481 0 
L 2906 0 
L 2906 525 
Q 2725 213 2448 61 
Q 2172 -91 1784 -91 
Q 1150 -91 751 415 
Q 353 922 353 1747 
Q 353 2572 751 3078 
Q 1150 3584 1784 3584 
Q 2172 3584 2448 3432 
Q 2725 3281 2906 2969 
z
M 947 1747 
Q 947 1113 1208 752 
Q 1469 391 1925 391 
Q 2381 391 2643 752 
Q 2906 1113 2906 1747 
Q 2906 2381 2643 2742 
Q 2381 3103 1925 3103 
Q 1469 3103 1208 2742 
Q 947 2381 947 1747 
z
" transform="scale(0.015625)"/>
      <path id="DejaVuSans-69" d="M 603 3500 
L 1178 3500 
L 1178 0 
L 603 0 
L 603 3500 
z
M 603 4863 
L 1178 4863 
L 1178 4134 
L 603 4134 
L 603 4863 
z
" transform="scale(0.015625)"/>
      <path id="DejaVuSans-55" d="M 556 4666 
L 1191 4666 
L 1191 1831 
Q 1191 1081 1462 751 
Q 1734 422 2344 422 
Q 2950 422 3222 751 
Q 3494 1081 3494 1831 
L 3494 4666 
L 4128 4666 
L 4128 1753 
Q 4128 841 3676 375 
Q 3225 -91 2344 -91 
Q 1459 -91 1007 375 
Q 556 841 556 1753 
L 556 4666 
z
" transform="scale(0.015625)"/>
      <path id="DejaVuSans-73" d="M 2834 3397 
L 2834 2853 
Q 2591 2978 2328 3040 
Q 2066 3103 1784 3103 
Q 1356 3103 1142 2972 
Q 928 2841 928 2578 
Q 928 2378 1081 2264 
Q 1234 2150 1697 2047 
L 1894 2003 
Q 2506 1872 2764 1633 
Q 3022 1394 3022 966 
Q 3022 478 2636 193 
Q 2250 -91 1575 -91 
Q 1294 -91 989 -36 
Q 684 19 347 128 
L 347 722 
Q 666 556 975 473 
Q 1284 391 1588 391 
Q 1994 391 2212 530 
Q 2431 669 2431 922 
Q 2431 1156 2273 1281 
Q 2116 1406 1581 1522 
L 1381 1569 
Q 847 1681 609 1914 
Q 372 2147 372 2553 
Q 372 3047 722 3315 
Q 1072 3584 1716 3584 
Q 2034 3584 2315 3537 
Q 2597 3491 2834 3397 
z
" transform="scale(0.015625)"/>
      <path id="DejaVuSans-51" d="M 2522 4238 
Q 1834 4238 1429 3725 
Q 1025 3213 1025 2328 
Q 1025 1447 1429 934 
Q 1834 422 2522 422 
Q 3209 422 3611 934 
Q 4013 1447 4013 2328 
Q 4013 3213 3611 3725 
Q 3209 4238 2522 4238 
z
M 3406 84 
L 4238 -825 
L 3475 -825 
L 2784 -78 
Q 2681 -84 2626 -87 
Q 2572 -91 2522 -91 
Q 1538 -91 948 567 
Q 359 1225 359 2328 
Q 359 3434 948 4092 
Q 1538 4750 2522 4750 
Q 3503 4750 4090 4092 
Q 4678 3434 4678 2328 
Q 4678 1516 4351 937 
Q 4025 359 3406 84 
z
" transform="scale(0.015625)"/>
      <path id="DejaVuSans-4f" d="M 2522 4238 
Q 1834 4238 1429 3725 
Q 1025 3213 1025 2328 
Q 1025 1447 1429 934 
Q 1834 422 2522 422 
Q 3209 422 3611 934 
Q 4013 1447 4013 2328 
Q 4013 3213 3611 3725 
Q 3209 4238 2522 4238 
z
M 2522 4750 
Q 3503 4750 4090 4092 
Q 4678 3434 4678 2328 
Q 4678 1225 4090 567 
Q 3503 -91 2522 -91 
Q 1538 -91 948 565 
Q 359 1222 359 2328 
Q 359 3434 948 4092 
Q 1538 4750 2522 4750 
z
" transform="scale(0.015625)"/>
      <path id="DejaVuSans-4d" d="M 628 4666 
L 1569 4666 
L 2759 1491 
L 3956 4666 
L 4897 4666 
L 4897 0 
L 4281 0 
L 4281 4097 
L 3078 897 
L 2444 897 
L 1241 4097 
L 1241 0 
L 628 0 
L 628 4666 
z
" transform="scale(0.015625)"/>
      <path id="DejaVuSans-6c" d="M 603 4863 
L 1178 4863 
L 1178 0 
L 603 0 
L 603 4863 
z
" transform="scale(0.015625)"/>
     </defs>
     <use xlink:href="#DejaVuSans-46"/>
     <use xlink:href="#DejaVuSans-75" transform="translate(52.019531 0)"/>
     <use xlink:href="#DejaVuSans-74" transform="translate(115.398438 0)"/>
     <use xlink:href="#DejaVuSans-75" transform="translate(154.607422 0)"/>
     <use xlink:href="#DejaVuSans-72" transform="translate(217.986328 0)"/>
     <use xlink:href="#DejaVuSans-65" transform="translate(256.849609 0)"/>
     <use xlink:href="#DejaVuSans-20" transform="translate(318.373047 0)"/>
     <use xlink:href="#DejaVuSans-54" transform="translate(350.160156 0)"/>
     <use xlink:href="#DejaVuSans-65" transform="translate(394.244141 0)"/>
     <use xlink:href="#DejaVuSans-6d" transform="translate(455.767578 0)"/>
     <use xlink:href="#DejaVuSans-70" transform="translate(553.179688 0)"/>
     <use xlink:href="#DejaVuSans-65" transform="translate(616.65625 0)"/>
     <use xlink:href="#DejaVuSans-72" transform="translate(678.179688 0)"/>
     <use xlink:href="#DejaVuSans-61" transform="translate(719.292969 0)"/>
     <use xlink:href="#DejaVuSans-74" transform="translate(780.572266 0)"/>
     <use xlink:href="#DejaVuSans-75" transform="translate(819.78125 0)"/>
     <use xlink:href="#DejaVuSans-72" transform="translate(883.160156 0)"/>
     <use xlink:href="#DejaVuSans-65" transform="translate(922.023438 0)"/>
     <use xlink:href="#DejaVuSans-20" transform="translate(983.546875 0)"/>
     <use xlink:href="#DejaVuSans-50" transform="translate(1015.333984 0)"/>
     <use xlink:href="#DejaVuSans-72" transform="translate(1073.886719 0)"/>
     <use xlink:href="#DejaVuSans-65" transform="translate(1112.75 0)"/>
     <use xlink:href="#DejaVuSans-64" transform="translate(1174.273438 0)"/>
     <use xlink:href="#DejaVuSans-69" transform="translate(1237.75 0)"/>
     <use xlink:href="#DejaVuSans-63" transform="translate(1265.533203 0)"/>
     <use xlink:href="#DejaVuSans-74" transform="translate(1320.513672 0)"/>
     <use xlink:href="#DejaVuSans-69" transform="translate(1359.722656 0)"/>
     <use xlink:href="#DejaVuSans-6f" transform="translate(1387.505859 0)"/>
     <use xlink:href="#DejaVuSans-6e" transform="translate(1448.6875 0)"/>
     <use xlink:href="#DejaVuSans-20" transform="translate(1512.066406 0)"/>
     <use xlink:href="#DejaVuSans-55" transform="translate(1543.853516 0)"/>
     <use xlink:href="#DejaVuSans-73" transform="translate(1617.046875 0)"/>
     <use xlink:href="#DejaVuSans-69" transform="translate(1669.146484 0)"/>
     <use xlink:href="#DejaVuSans-6e" transform="translate(1696.929688 0)"/>
     <use xlink:href="#DejaVuSans-67" transform="translate(1760.308594 0)"/>
     <use xlink:href="#DejaVuSans-20" transform="translate(1823.785156 0)"/>
     <use xlink:href="#DejaVuSans-51" transform="translate(1855.572266 0)"/>
     <use xlink:href="#DejaVuSans-75" transform="translate(1934.283203 0)"/>
     <use xlink:href="#DejaVuSans-61" transform="translate(1997.662109 0)"/>
     <use xlink:href="#DejaVuSans-64" transform="translate(2058.941406 0)"/>
     <use xlink:href="#DejaVuSans-72" transform="translate(2122.417969 0)"/>
     <use xlink:href="#DejaVuSans-61" transform="translate(2163.53125 0)"/>
     <use xlink:href="#DejaVuSans-74" transform="translate(2224.810547 0)"/>
     <use xlink:href="#DejaVuSans-69" transform="translate(2264.019531 0)"/>
     <use xlink:href="#DejaVuSans-63" transform="translate(2291.802734 0)"/>
     <use xlink:href="#DejaVuSans-20" transform="translate(2346.783203 0)"/>
     <use xlink:href="#DejaVuSans-43" transform="translate(2378.570312 0)"/>
     <use xlink:href="#DejaVuSans-4f" transform="translate(2448.394531 0)"/>
     <use xlink:href="#DejaVuSans-32" transform="translate(2527.105469 0)"/>
     <use xlink:href="#DejaVuSans-2d" transform="translate(2590.728516 0)"/>
     <use xlink:href="#DejaVuSans-54" transform="translate(2617.6875 0)"/>
     <use xlink:href="#DejaVuSans-65" transform="translate(2661.771484 0)"/>
     <use xlink:href="#DejaVuSans-6d" transform="translate(2723.294922 0)"/>
     <use xlink:href="#DejaVuSans-70" transform="translate(2820.707031 0)"/>
     <use xlink:href="#DejaVuSans-65" transform="translate(2884.183594 0)"/>
     <use xlink:href="#DejaVuSans-72" transform="translate(2945.707031 0)"/>
     <use xlink:href="#DejaVuSans-61" transform="translate(2986.820312 0)"/>
     <use xlink:href="#DejaVuSans-74" transform="translate(3048.099609 0)"/>
     <use xlink:href="#DejaVuSans-75" transform="translate(3087.308594 0)"/>
     <use xlink:href="#DejaVuSans-72" transform="translate(3150.6875 0)"/>
     <use xlink:href="#DejaVuSans-65" transform="translate(3189.550781 0)"/>
     <use xlink:href="#DejaVuSans-20" transform="translate(3251.074219 0)"/>
     <use xlink:href="#DejaVuSans-4d" transform="translate(3282.861328 0)"/>
     <use xlink:href="#DejaVuSans-6f" transform="translate(3369.140625 0)"/>
     <use xlink:href="#DejaVuSans-64" transform="translate(3430.322266 0)"/>
     <use xlink:href="#DejaVuSans-65" transform="translate(3493.798828 0)"/>
     <use xlink:href="#DejaVuSans-6c" transform="translate(3555.322266 0)"/>
    </g>
   </g>
   <g id="PathCollection_1">
    <defs>
     <path id="mdb9fb91bbc" d="M 0 3.354102 
C 0.889518 3.354102 1.742724 3.000693 2.371708 2.371708 
C 3.000693 1.742724 3.354102 0.889518 3.354102 0 
C 3.354102 -0.889518 3.000693 -1.742724 2.371708 -2.371708 
C 1.742724 -3.000693 0.889518 -3.354102 0 -3.354102 
C -0.889518 -3.354102 -1.742724 -3.000693 -2.371708 -2.371708 
C -3.000693 -1.742724 -3.354102 -0.889518 -3.354102 0 
C -3.354102 0.889518 -3.000693 1.742724 -2.371708 2.371708 
C -1.742724 3.000693 -0.889518 3.354102 0 3.354102 
z
" style="stroke: #1f77b4"/>
    </defs>
    <g clip-path="url(#p6166bc9ccd)">
     <use xlink:href="#mdb9fb91bbc" x="536.236531" y="261.476128" style="fill: #1f77b4; stroke: #1f77b4"/>
     <use xlink:href="#mdb9fb91bbc" x="790.171529" y="62.916994" style="fill: #1f77b4; stroke: #1f77b4"/>
    </g>
   </g>
   <g id="PathCollection_2">
    <defs>
     <path id="m76fbf51f92" d="M 0 3.354102 
C 0.889518 3.354102 1.742724 3.000693 2.371708 2.371708 
C 3.000693 1.742724 3.354102 0.889518 3.354102 0 
C 3.354102 -0.889518 3.000693 -1.742724 2.371708 -2.371708 
C 1.742724 -3.000693 0.889518 -3.354102 0 -3.354102 
C -0.889518 -3.354102 -1.742724 -3.000693 -2.371708 -2.371708 
C -3.000693 -1.742724 -3.354102 -0.889518 -3.354102 0 
C -3.354102 0.889518 -3.000693 1.742724 -2.371708 2.371708 
C -1.742724 3.000693 -0.889518 3.354102 0 3.354102 
z
" style="stroke: #ff7f0e"/>
    </defs>
    <g clip-path="url(#p6166bc9ccd)">
     <use xlink:href="#m76fbf51f92" x="536.236531" y="257.075678" style="fill: #ff7f0e; stroke: #ff7f0e"/>
     <use xlink:href="#m76fbf51f92" x="790.171529" y="45.285455" style="fill: #ff7f0e; stroke: #ff7f0e"/>
    </g>
   </g>
   <g id="legend_1">
    <g id="patch_7">
     <path d="M 43.87 114.5525 
L 297.715 114.5525 
Q 299.315 114.5525 299.315 112.9525 
L 299.315 31.04 
Q 299.315 29.44 297.715 29.44 
L 43.87 29.44 
Q 42.27 29.44 42.27 31.04 
L 42.27 112.9525 
Q 42.27 114.5525 43.87 114.5525 
z
" style="fill: #ffffff; opacity: 0.8; stroke: #cccccc; stroke-linejoin: miter"/>
    </g>
    <g id="line2d_34">
     <path d="M 45.47 35.91875 
L 53.47 35.91875 
L 61.47 35.91875 
" style="fill: none; stroke: #000000; stroke-width: 1.6; stroke-linecap: square"/>
     <g>
      <use xlink:href="#mb1084e79a8" x="53.47" y="35.91875" style="stroke: #000000"/>
     </g>
    </g>
    <g id="text_21">
     <!-- Observed temperature change -->
     <g transform="translate(67.87 38.71875) scale(0.08 -0.08)">
      <defs>
       <path id="DejaVuSans-62" d="M 3116 1747 
Q 3116 2381 2855 2742 
Q 2594 3103 2138 3103 
Q 1681 3103 1420 2742 
Q 1159 2381 1159 1747 
Q 1159 1113 1420 752 
Q 1681 391 2138 391 
Q 2594 391 2855 752 
Q 3116 1113 3116 1747 
z
M 1159 2969 
Q 1341 3281 1617 3432 
Q 1894 3584 2278 3584 
Q 2916 3584 3314 3078 
Q 3713 2572 3713 1747 
Q 3713 922 3314 415 
Q 2916 -91 2278 -91 
Q 1894 -91 1617 61 
Q 1341 213 1159 525 
L 1159 0 
L 581 0 
L 581 4863 
L 1159 4863 
L 1159 2969 
z
" transform="scale(0.015625)"/>
       <path id="DejaVuSans-76" d="M 191 3500 
L 800 3500 
L 1894 563 
L 2988 3500 
L 3597 3500 
L 2284 0 
L 1503 0 
L 191 3500 
z
" transform="scale(0.015625)"/>
      </defs>
      <use xlink:href="#DejaVuSans-4f"/>
      <use xlink:href="#DejaVuSans-62" transform="translate(78.710938 0)"/>
      <use xlink:href="#DejaVuSans-73" transform="translate(142.1875 0)"/>
      <use xlink:href="#DejaVuSans-65" transform="translate(194.287109 0)"/>
      <use xlink:href="#DejaVuSans-72" transform="translate(255.810547 0)"/>
      <use xlink:href="#DejaVuSans-76" transform="translate(296.923828 0)"/>
      <use xlink:href="#DejaVuSans-65" transform="translate(356.103516 0)"/>
      <use xlink:href="#DejaVuSans-64" transform="translate(417.626953 0)"/>
      <use xlink:href="#DejaVuSans-20" transform="translate(481.103516 0)"/>
      <use xlink:href="#DejaVuSans-74" transform="translate(512.890625 0)"/>
      <use xlink:href="#DejaVuSans-65" transform="translate(552.099609 0)"/>
      <use xlink:href="#DejaVuSans-6d" transform="translate(613.623047 0)"/>
      <use xlink:href="#DejaVuSans-70" transform="translate(711.035156 0)"/>
      <use xlink:href="#DejaVuSans-65" transform="translate(774.511719 0)"/>
      <use xlink:href="#DejaVuSans-72" transform="translate(836.035156 0)"/>
      <use xlink:href="#DejaVuSans-61" transform="translate(877.148438 0)"/>
      <use xlink:href="#DejaVuSans-74" transform="translate(938.427734 0)"/>
      <use xlink:href="#DejaVuSans-75" transform="translate(977.636719 0)"/>
      <use xlink:href="#DejaVuSans-72" transform="translate(1041.015625 0)"/>
      <use xlink:href="#DejaVuSans-65" transform="translate(1079.878906 0)"/>
      <use xlink:href="#DejaVuSans-20" transform="translate(1141.402344 0)"/>
      <use xlink:href="#DejaVuSans-63" transform="translate(1173.189453 0)"/>
      <use xlink:href="#DejaVuSans-68" transform="translate(1228.169922 0)"/>
      <use xlink:href="#DejaVuSans-61" transform="translate(1291.548828 0)"/>
      <use xlink:href="#DejaVuSans-6e" transform="translate(1352.828125 0)"/>
      <use xlink:href="#DejaVuSans-67" transform="translate(1416.207031 0)"/>
      <use xlink:href="#DejaVuSans-65" transform="translate(1479.683594 0)"/>
     </g>
    </g>
    <g id="line2d_35">
     <path d="M 45.47 47.69625 
L 53.47 47.69625 
L 61.47 47.69625 
" style="fill: none; stroke: #1f77b4; stroke-width: 2; stroke-linecap: square"/>
    </g>
    <g id="text_22">
     <!-- Quadratic | annual_full_data -->
     <g transform="translate(67.87 50.49625) scale(0.08 -0.08)">
      <defs>
       <path id="DejaVuSans-7c" d="M 1344 4891 
L 1344 -1509 
L 813 -1509 
L 813 4891 
L 1344 4891 
z
" transform="scale(0.015625)"/>
       <path id="DejaVuSans-5f" d="M 3263 -1063 
L 3263 -1509 
L -63 -1509 
L -63 -1063 
L 3263 -1063 
z
" transform="scale(0.015625)"/>
      </defs>
      <use xlink:href="#DejaVuSans-51"/>
      <use xlink:href="#DejaVuSans-75" transform="translate(78.710938 0)"/>
      <use xlink:href="#DejaVuSans-61" transform="translate(142.089844 0)"/>
      <use xlink:href="#DejaVuSans-64" transform="translate(203.369141 0)"/>
      <use xlink:href="#DejaVuSans-72" transform="translate(266.845703 0)"/>
      <use xlink:href="#DejaVuSans-61" transform="translate(307.958984 0)"/>
      <use xlink:href="#DejaVuSans-74" transform="translate(369.238281 0)"/>
      <use xlink:href="#DejaVuSans-69" transform="translate(408.447266 0)"/>
      <use xlink:href="#DejaVuSans-63" transform="translate(436.230469 0)"/>
      <use xlink:href="#DejaVuSans-20" transform="translate(491.210938 0)"/>
      <use xlink:href="#DejaVuSans-7c" transform="translate(522.998047 0)"/>
      <use xlink:href="#DejaVuSans-20" transform="translate(556.689453 0)"/>
      <use xlink:href="#DejaVuSans-61" transform="translate(588.476562 0)"/>
      <use xlink:href="#DejaVuSans-6e" transform="translate(649.755859 0)"/>
      <use xlink:href="#DejaVuSans-6e" transform="translate(713.134766 0)"/>
      <use xlink:href="#DejaVuSans-75" transform="translate(776.513672 0)"/>
      <use xlink:href="#DejaVuSans-61" transform="translate(839.892578 0)"/>
      <use xlink:href="#DejaVuSans-6c" transform="translate(901.171875 0)"/>
      <use xlink:href="#DejaVuSans-5f" transform="translate(928.955078 0)"/>
      <use xlink:href="#DejaVuSans-66" transform="translate(978.955078 0)"/>
      <use xlink:href="#DejaVuSans-75" transform="translate(1014.160156 0)"/>
      <use xlink:href="#DejaVuSans-6c" transform="translate(1077.539062 0)"/>
      <use xlink:href="#DejaVuSans-6c" transform="translate(1105.322266 0)"/>
      <use xlink:href="#DejaVuSans-5f" transform="translate(1133.105469 0)"/>
      <use xlink:href="#DejaVuSans-64" transform="translate(1183.105469 0)"/>
      <use xlink:href="#DejaVuSans-61" transform="translate(1246.582031 0)"/>
      <use xlink:href="#DejaVuSans-74" transform="translate(1307.861328 0)"/>
      <use xlink:href="#DejaVuSans-61" transform="translate(1347.070312 0)"/>
     </g>
    </g>
    <g id="line2d_36">
     <path d="M 45.47 59.69625 
L 53.47 59.69625 
L 61.47 59.69625 
" style="fill: none; stroke: #ff7f0e; stroke-width: 2; stroke-linecap: square"/>
    </g>
    <g id="text_23">
     <!-- SARIMA(1,1,1)(2,1,2,12) | sarima_full_data_annual_mean -->
     <g transform="translate(67.87 62.49625) scale(0.08 -0.08)">
      <defs>
       <path id="DejaVuSans-53" d="M 3425 4513 
L 3425 3897 
Q 3066 4069 2747 4153 
Q 2428 4238 2131 4238 
Q 1616 4238 1336 4038 
Q 1056 3838 1056 3469 
Q 1056 3159 1242 3001 
Q 1428 2844 1947 2747 
L 2328 2669 
Q 3034 2534 3370 2195 
Q 3706 1856 3706 1288 
Q 3706 609 3251 259 
Q 2797 -91 1919 -91 
Q 1588 -91 1214 -16 
Q 841 59 441 206 
L 441 856 
Q 825 641 1194 531 
Q 1563 422 1919 422 
Q 2459 422 2753 634 
Q 3047 847 3047 1241 
Q 3047 1584 2836 1778 
Q 2625 1972 2144 2069 
L 1759 2144 
Q 1053 2284 737 2584 
Q 422 2884 422 3419 
Q 422 4038 858 4394 
Q 1294 4750 2059 4750 
Q 2388 4750 2728 4690 
Q 3069 4631 3425 4513 
z
" transform="scale(0.015625)"/>
       <path id="DejaVuSans-41" d="M 2188 4044 
L 1331 1722 
L 3047 1722 
L 2188 4044 
z
M 1831 4666 
L 2547 4666 
L 4325 0 
L 3669 0 
L 3244 1197 
L 1141 1197 
L 716 0 
L 50 0 
L 1831 4666 
z
" transform="scale(0.015625)"/>
       <path id="DejaVuSans-52" d="M 2841 2188 
Q 3044 2119 3236 1894 
Q 3428 1669 3622 1275 
L 4263 0 
L 3584 0 
L 2988 1197 
Q 2756 1666 2539 1819 
Q 2322 1972 1947 1972 
L 1259 1972 
L 1259 0 
L 628 0 
L 628 4666 
L 2053 4666 
Q 2853 4666 3247 4331 
Q 3641 3997 3641 3322 
Q 3641 2881 3436 2590 
Q 3231 2300 2841 2188 
z
M 1259 4147 
L 1259 2491 
L 2053 2491 
Q 2509 2491 2742 2702 
Q 2975 2913 2975 3322 
Q 2975 3731 2742 3939 
Q 2509 4147 2053 4147 
L 1259 4147 
z
" transform="scale(0.015625)"/>
       <path id="DejaVuSans-49" d="M 628 4666 
L 1259 4666 
L 1259 0 
L 628 0 
L 628 4666 
z
" transform="scale(0.015625)"/>
       <path id="DejaVuSans-28" d="M 1984 4856 
Q 1566 4138 1362 3434 
Q 1159 2731 1159 2009 
Q 1159 1288 1364 580 
Q 1569 -128 1984 -844 
L 1484 -844 
Q 1016 -109 783 600 
Q 550 1309 550 2009 
Q 550 2706 781 3412 
Q 1013 4119 1484 4856 
L 1984 4856 
z
" transform="scale(0.015625)"/>
       <path id="DejaVuSans-2c" d="M 750 794 
L 1409 794 
L 1409 256 
L 897 -744 
L 494 -744 
L 750 256 
L 750 794 
z
" transform="scale(0.015625)"/>
       <path id="DejaVuSans-29" d="M 513 4856 
L 1013 4856 
Q 1481 4119 1714 3412 
Q 1947 2706 1947 2009 
Q 1947 1309 1714 600 
Q 1481 -109 1013 -844 
L 513 -844 
Q 928 -128 1133 580 
Q 1338 1288 1338 2009 
Q 1338 2731 1133 3434 
Q 928 4138 513 4856 
z
" transform="scale(0.015625)"/>
      </defs>
      <use xlink:href="#DejaVuSans-53"/>
      <use xlink:href="#DejaVuSans-41" transform="translate(65.351562 0)"/>
      <use xlink:href="#DejaVuSans-52" transform="translate(133.759766 0)"/>
      <use xlink:href="#DejaVuSans-49" transform="translate(203.242188 0)"/>
      <use xlink:href="#DejaVuSans-4d" transform="translate(232.734375 0)"/>
      <use xlink:href="#DejaVuSans-41" transform="translate(319.013672 0)"/>
      <use xlink:href="#DejaVuSans-28" transform="translate(387.421875 0)"/>
      <use xlink:href="#DejaVuSans-31" transform="translate(426.435547 0)"/>
      <use xlink:href="#DejaVuSans-2c" transform="translate(490.058594 0)"/>
      <use xlink:href="#DejaVuSans-31" transform="translate(521.845703 0)"/>
      <use xlink:href="#DejaVuSans-2c" transform="translate(585.46875 0)"/>
      <use xlink:href="#DejaVuSans-31" transform="translate(617.255859 0)"/>
      <use xlink:href="#DejaVuSans-29" transform="translate(680.878906 0)"/>
      <use xlink:href="#DejaVuSans-28" transform="translate(719.892578 0)"/>
      <use xlink:href="#DejaVuSans-32" transform="translate(758.90625 0)"/>
      <use xlink:href="#DejaVuSans-2c" transform="translate(822.529297 0)"/>
      <use xlink:href="#DejaVuSans-31" transform="translate(854.316406 0)"/>
      <use xlink:href="#DejaVuSans-2c" transform="translate(917.939453 0)"/>
      <use xlink:href="#DejaVuSans-32" transform="translate(949.726562 0)"/>
      <use xlink:href="#DejaVuSans-2c" transform="translate(1013.349609 0)"/>
      <use xlink:href="#DejaVuSans-31" transform="translate(1045.136719 0)"/>
      <use xlink:href="#DejaVuSans-32" transform="translate(1108.759766 0)"/>
      <use xlink:href="#DejaVuSans-29" transform="translate(1172.382812 0)"/>
      <use xlink:href="#DejaVuSans-20" transform="translate(1211.396484 0)"/>
      <use xlink:href="#DejaVuSans-7c" transform="translate(1243.183594 0)"/>
      <use xlink:href="#DejaVuSans-20" transform="translate(1276.875 0)"/>
      <use xlink:href="#DejaVuSans-73" transform="translate(1308.662109 0)"/>
      <use xlink:href="#DejaVuSans-61" transform="translate(1360.761719 0)"/>
      <use xlink:href="#DejaVuSans-72" transform="translate(1422.041016 0)"/>
      <use xlink:href="#DejaVuSans-69" transform="translate(1463.154297 0)"/>
      <use xlink:href="#DejaVuSans-6d" transform="translate(1490.9375 0)"/>
      <use xlink:href="#DejaVuSans-61" transform="translate(1588.349609 0)"/>
      <use xlink:href="#DejaVuSans-5f" transform="translate(1649.628906 0)"/>
      <use xlink:href="#DejaVuSans-66" transform="translate(1699.628906 0)"/>
      <use xlink:href="#DejaVuSans-75" transform="translate(1734.833984 0)"/>
      <use xlink:href="#DejaVuSans-6c" transform="translate(1798.212891 0)"/>
      <use xlink:href="#DejaVuSans-6c" transform="translate(1825.996094 0)"/>
      <use xlink:href="#DejaVuSans-5f" transform="translate(1853.779297 0)"/>
      <use xlink:href="#DejaVuSans-64" transform="translate(1903.779297 0)"/>
      <use xlink:href="#DejaVuSans-61" transform="translate(1967.255859 0)"/>
      <use xlink:href="#DejaVuSans-74" transform="translate(2028.535156 0)"/>
      <use xlink:href="#DejaVuSans-61" transform="translate(2067.744141 0)"/>
      <use xlink:href="#DejaVuSans-5f" transform="translate(2129.023438 0)"/>
      <use xlink:href="#DejaVuSans-61" transform="translate(2179.023438 0)"/>
      <use xlink:href="#DejaVuSans-6e" transform="translate(2240.302734 0)"/>
      <use xlink:href="#DejaVuSans-6e" transform="translate(2303.681641 0)"/>
      <use xlink:href="#DejaVuSans-75" transform="translate(2367.060547 0)"/>
      <use xlink:href="#DejaVuSans-61" transform="translate(2430.439453 0)"/>
      <use xlink:href="#DejaVuSans-6c" transform="translate(2491.71875 0)"/>
      <use xlink:href="#DejaVuSans-5f" transform="translate(2519.501953 0)"/>
      <use xlink:href="#DejaVuSans-6d" transform="translate(2569.501953 0)"/>
      <use xlink:href="#DejaVuSans-65" transform="translate(2666.914062 0)"/>
      <use xlink:href="#DejaVuSans-61" transform="translate(2728.4375 0)"/>
      <use xlink:href="#DejaVuSans-6e" transform="translate(2789.716797 0)"/>
     </g>
    </g>
    <g id="line2d_37">
     <path d="M 45.47 71.66125 
L 53.47 71.66125 
L 61.47 71.66125 
" style="fill: none; stroke-dasharray: 4.44,1.92; stroke-dashoffset: 0; stroke: #1f77b4; stroke-width: 1.2"/>
    </g>
    <g id="text_24">
     <!-- 1.25 C above 1951-1980 -->
     <g transform="translate(67.87 74.46125) scale(0.08 -0.08)">
      <use xlink:href="#DejaVuSans-31"/>
      <use xlink:href="#DejaVuSans-2e" transform="translate(63.623047 0)"/>
      <use xlink:href="#DejaVuSans-32" transform="translate(95.410156 0)"/>
      <use xlink:href="#DejaVuSans-35" transform="translate(159.033203 0)"/>
      <use xlink:href="#DejaVuSans-20" transform="translate(222.65625 0)"/>
      <use xlink:href="#DejaVuSans-43" transform="translate(254.443359 0)"/>
      <use xlink:href="#DejaVuSans-20" transform="translate(324.267578 0)"/>
      <use xlink:href="#DejaVuSans-61" transform="translate(356.054688 0)"/>
      <use xlink:href="#DejaVuSans-62" transform="translate(417.333984 0)"/>
      <use xlink:href="#DejaVuSans-6f" transform="translate(480.810547 0)"/>
      <use xlink:href="#DejaVuSans-76" transform="translate(541.992188 0)"/>
      <use xlink:href="#DejaVuSans-65" transform="translate(601.171875 0)"/>
      <use xlink:href="#DejaVuSans-20" transform="translate(662.695312 0)"/>
      <use xlink:href="#DejaVuSans-31" transform="translate(694.482422 0)"/>
      <use xlink:href="#DejaVuSans-39" transform="translate(758.105469 0)"/>
      <use xlink:href="#DejaVuSans-35" transform="translate(821.728516 0)"/>
      <use xlink:href="#DejaVuSans-31" transform="translate(885.351562 0)"/>
      <use xlink:href="#DejaVuSans-2d" transform="translate(948.974609 0)"/>
      <use xlink:href="#DejaVuSans-31" transform="translate(985.058594 0)"/>
      <use xlink:href="#DejaVuSans-39" transform="translate(1048.681641 0)"/>
      <use xlink:href="#DejaVuSans-38" transform="translate(1112.304688 0)"/>
      <use xlink:href="#DejaVuSans-30" transform="translate(1175.927734 0)"/>
     </g>
    </g>
    <g id="line2d_38">
     <path d="M 45.47 83.40375 
L 53.47 83.40375 
L 61.47 83.40375 
" style="fill: none; stroke-dasharray: 4.44,1.92; stroke-dashoffset: 0; stroke: #1f77b4; stroke-width: 1.2"/>
    </g>
    <g id="text_25">
     <!-- 1.50 C above 1951-1980 -->
     <g transform="translate(67.87 86.20375) scale(0.08 -0.08)">
      <use xlink:href="#DejaVuSans-31"/>
      <use xlink:href="#DejaVuSans-2e" transform="translate(63.623047 0)"/>
      <use xlink:href="#DejaVuSans-35" transform="translate(95.410156 0)"/>
      <use xlink:href="#DejaVuSans-30" transform="translate(159.033203 0)"/>
      <use xlink:href="#DejaVuSans-20" transform="translate(222.65625 0)"/>
      <use xlink:href="#DejaVuSans-43" transform="translate(254.443359 0)"/>
      <use xlink:href="#DejaVuSans-20" transform="translate(324.267578 0)"/>
      <use xlink:href="#DejaVuSans-61" transform="translate(356.054688 0)"/>
      <use xlink:href="#DejaVuSans-62" transform="translate(417.333984 0)"/>
      <use xlink:href="#DejaVuSans-6f" transform="translate(480.810547 0)"/>
      <use xlink:href="#DejaVuSans-76" transform="translate(541.992188 0)"/>
      <use xlink:href="#DejaVuSans-65" transform="translate(601.171875 0)"/>
      <use xlink:href="#DejaVuSans-20" transform="translate(662.695312 0)"/>
      <use xlink:href="#DejaVuSans-31" transform="translate(694.482422 0)"/>
      <use xlink:href="#DejaVuSans-39" transform="translate(758.105469 0)"/>
      <use xlink:href="#DejaVuSans-35" transform="translate(821.728516 0)"/>
      <use xlink:href="#DejaVuSans-31" transform="translate(885.351562 0)"/>
      <use xlink:href="#DejaVuSans-2d" transform="translate(948.974609 0)"/>
      <use xlink:href="#DejaVuSans-31" transform="translate(985.058594 0)"/>
      <use xlink:href="#DejaVuSans-39" transform="translate(1048.681641 0)"/>
      <use xlink:href="#DejaVuSans-38" transform="translate(1112.304688 0)"/>
      <use xlink:href="#DejaVuSans-30" transform="translate(1175.927734 0)"/>
     </g>
    </g>
    <g id="line2d_39">
     <path d="M 45.47 95.14625 
L 53.47 95.14625 
L 61.47 95.14625 
" style="fill: none; stroke-dasharray: 4.44,1.92; stroke-dashoffset: 0; stroke: #1f77b4; stroke-width: 1.2"/>
    </g>
    <g id="text_26">
     <!-- 2.00 C above 1951-1980 -->
     <g transform="translate(67.87 97.94625) scale(0.08 -0.08)">
      <use xlink:href="#DejaVuSans-32"/>
      <use xlink:href="#DejaVuSans-2e" transform="translate(63.623047 0)"/>
      <use xlink:href="#DejaVuSans-30" transform="translate(95.410156 0)"/>
      <use xlink:href="#DejaVuSans-30" transform="translate(159.033203 0)"/>
      <use xlink:href="#DejaVuSans-20" transform="translate(222.65625 0)"/>
      <use xlink:href="#DejaVuSans-43" transform="translate(254.443359 0)"/>
      <use xlink:href="#DejaVuSans-20" transform="translate(324.267578 0)"/>
      <use xlink:href="#DejaVuSans-61" transform="translate(356.054688 0)"/>
      <use xlink:href="#DejaVuSans-62" transform="translate(417.333984 0)"/>
      <use xlink:href="#DejaVuSans-6f" transform="translate(480.810547 0)"/>
      <use xlink:href="#DejaVuSans-76" transform="translate(541.992188 0)"/>
      <use xlink:href="#DejaVuSans-65" transform="translate(601.171875 0)"/>
      <use xlink:href="#DejaVuSans-20" transform="translate(662.695312 0)"/>
      <use xlink:href="#DejaVuSans-31" transform="translate(694.482422 0)"/>
      <use xlink:href="#DejaVuSans-39" transform="translate(758.105469 0)"/>
      <use xlink:href="#DejaVuSans-35" transform="translate(821.728516 0)"/>
      <use xlink:href="#DejaVuSans-31" transform="translate(885.351562 0)"/>
      <use xlink:href="#DejaVuSans-2d" transform="translate(948.974609 0)"/>
      <use xlink:href="#DejaVuSans-31" transform="translate(985.058594 0)"/>
      <use xlink:href="#DejaVuSans-39" transform="translate(1048.681641 0)"/>
      <use xlink:href="#DejaVuSans-38" transform="translate(1112.304688 0)"/>
      <use xlink:href="#DejaVuSans-30" transform="translate(1175.927734 0)"/>
     </g>
    </g>
    <g id="line2d_40">
     <path d="M 45.47 106.88875 
L 53.47 106.88875 
L 61.47 106.88875 
" style="fill: none; stroke-dasharray: 1.2,1.98; stroke-dashoffset: 0; stroke: #808080; stroke-width: 1.2"/>
    </g>
    <g id="text_27">
     <!-- Forecast starts -->
     <g transform="translate(67.87 109.68875) scale(0.08 -0.08)">
      <use xlink:href="#DejaVuSans-46"/>
      <use xlink:href="#DejaVuSans-6f" transform="translate(53.894531 0)"/>
      <use xlink:href="#DejaVuSans-72" transform="translate(115.076172 0)"/>
      <use xlink:href="#DejaVuSans-65" transform="translate(153.939453 0)"/>
      <use xlink:href="#DejaVuSans-63" transform="translate(215.462891 0)"/>
      <use xlink:href="#DejaVuSans-61" transform="translate(270.443359 0)"/>
      <use xlink:href="#DejaVuSans-73" transform="translate(331.722656 0)"/>
      <use xlink:href="#DejaVuSans-74" transform="translate(383.822266 0)"/>
      <use xlink:href="#DejaVuSans-20" transform="translate(423.03125 0)"/>
      <use xlink:href="#DejaVuSans-73" transform="translate(454.818359 0)"/>
      <use xlink:href="#DejaVuSans-74" transform="translate(506.917969 0)"/>
      <use xlink:href="#DejaVuSans-61" transform="translate(546.126953 0)"/>
      <use xlink:href="#DejaVuSans-72" transform="translate(607.40625 0)"/>
      <use xlink:href="#DejaVuSans-74" transform="translate(648.519531 0)"/>
      <use xlink:href="#DejaVuSans-73" transform="translate(687.728516 0)"/>
     </g>
    </g>
   </g>
  </g>
 </g>
 <defs>
  <clipPath id="p6166bc9ccd">
   <rect x="38.27" y="25.44" width="787.706364" height="436.6"/>
  </clipPath>
 </defs>
</svg>
