<?xml version="1.0" encoding="utf-8" standalone="no"?>
<!DOCTYPE svg PUBLIC "-//W3C//DTD SVG 1.1//EN"
  "http://www.w3.org/Graphics/SVG/1.1/DTD/svg11.dtd">
<svg xmlns:xlink="http://www.w3.org/1999/xlink" width="864pt" height="360pt" viewBox="0 0 864 360" xmlns="http://www.w3.org/2000/svg" version="1.1">
 <metadata>
  <rdf:RDF xmlns:dc="http://purl.org/dc/elements/1.1/" xmlns:cc="http://creativecommons.org/ns#" xmlns:rdf="http://www.w3.org/1999/02/22-rdf-syntax-ns#">
   <cc:Work>
    <dc:type rdf:resource="http://purl.org/dc/dcmitype/StillImage"/>
    <dc:date>2026-07-08T14:24:09.638402</dc:date>
    <dc:format>image/svg+xml</dc:format>
    <dc:creator>
     <cc:Agent>
      <dc:title>Matplotlib v3.10.0, https://matplotlib.org/</dc:title>
     </cc:Agent>
    </dc:creator>
   </cc:Work>
  </rdf:RDF>
 </metadata>
 <defs>
  <style type="text/css">*{stroke-linejoin: round; stroke-linecap: butt}</style>
 </defs>
 <g id="figure_1">
  <g id="patch_1">
   <path d="M 0 360 
L 864 360 
L 864 0 
L 0 0 
z
" style="fill: #ffffff"/>
  </g>
  <g id="axes_1">
   <g id="patch_2">
    <path d="M 44.66 318.04 
L 853.2 318.04 
L 853.2 25.44 
L 44.66 25.44 
z
" style="fill: #ffffff"/>
   </g>
   <g id="matplotlib.axis_1">
    <g id="xtick_1">
     <g id="line2d_1">
      <path d="M 91.919434 318.04 
L 91.919434 25.44 
" clip-path="url(#pc2b12abe0c)" style="fill: none; stroke: #b0b0b0; stroke-width: 0.8; stroke-linecap: square"/>
     </g>
     <g id="line2d_2">
      <defs>
       <path id="me19641264a" d="M 0 0 
L 0 3.5 
" style="stroke: #000000; stroke-width: 0.8"/>
      </defs>
      <g>
       <use xlink:href="#me19641264a" x="91.919434" y="318.04" style="stroke: #000000; stroke-width: 0.8"/>
      </g>
     </g>
     <g id="text_1">
      <!-- 1960 -->
      <g transform="translate(79.194434 332.638438) scale(0.1 -0.1)">
       <defs>
        <path id="DejaVuSans-31" d="M 794 531 
L 1825 531 
L 1825 4091 
L 703 3866 
L 703 4441 
L 1819 4666 
L 2450 4666 
L 2450 531 
L 3481 531 
L 3481 0 
L 794 0 
L 794 531 
z
" transform="scale(0.015625)"/>
        <path id="DejaVuSans-39" d="M 703 97 
L 703 672 
Q 941 559 1184 500 
Q 1428 441 1663 441 
Q 2288 441 2617 861 
Q 2947 1281 2994 2138 
Q 2813 1869 2534 1725 
Q 2256 1581 1919 1581 
Q 1219 1581 811 2004 
Q 403 2428 403 3163 
Q 403 3881 828 4315 
Q 1253 4750 1959 4750 
Q 2769 4750 3195 4129 
Q 3622 3509 3622 2328 
Q 3622 1225 3098 567 
Q 2575 -91 1691 -91 
Q 1453 -91 1209 -44 
Q 966 3 703 97 
z
M 1959 2075 
Q 2384 2075 2632 2365 
Q 2881 2656 2881 3163 
Q 2881 3666 2632 3958 
Q 2384 4250 1959 4250 
Q 1534 4250 1286 3958 
Q 1038 3666 1038 3163 
Q 1038 2656 1286 2365 
Q 1534 2075 1959 2075 
z
" transform="scale(0.015625)"/>
        <path id="DejaVuSans-36" d="M 2113 2584 
Q 1688 2584 1439 2293 
Q 1191 2003 1191 1497 
Q 1191 994 1439 701 
Q 1688 409 2113 409 
Q 2538 409 2786 701 
Q 3034 994 3034 1497 
Q 3034 2003 2786 2293 
Q 2538 2584 2113 2584 
z
M 3366 4563 
L 3366 3988 
Q 3128 4100 2886 4159 
Q 2644 4219 2406 4219 
Q 1781 4219 1451 3797 
Q 1122 3375 1075 2522 
Q 1259 2794 1537 2939 
Q 1816 3084 2150 3084 
Q 2853 3084 3261 2657 
Q 3669 2231 3669 1497 
Q 3669 778 3244 343 
Q 2819 -91 2113 -91 
Q 1303 -91 875 529 
Q 447 1150 447 2328 
Q 447 3434 972 4092 
Q 1497 4750 2381 4750 
Q 2619 4750 2861 4703 
Q 3103 4656 3366 4563 
z
" transform="scale(0.015625)"/>
        <path id="DejaVuSans-30" d="M 2034 4250 
Q 1547 4250 1301 3770 
Q 1056 3291 1056 2328 
Q 1056 1369 1301 889 
Q 1547 409 2034 409 
Q 2525 409 2770 889 
Q 3016 1369 3016 2328 
Q 3016 3291 2770 3770 
Q 2525 4250 2034 4250 
z
M 2034 4750 
Q 2819 4750 3233 4129 
Q 3647 3509 3647 2328 
Q 3647 1150 3233 529 
Q 2819 -91 2034 -91 
Q 1250 -91 836 529 
Q 422 1150 422 2328 
Q 422 3509 836 4129 
Q 1250 4750 2034 4750 
z
" transform="scale(0.015625)"/>
       </defs>
       <use xlink:href="#DejaVuSans-31"/>
       <use xlink:href="#DejaVuSans-39" transform="translate(63.623047 0)"/>
       <use xlink:href="#DejaVuSans-36" transform="translate(127.246094 0)"/>
       <use xlink:href="#DejaVuSans-30" transform="translate(190.869141 0)"/>
      </g>
     </g>
    </g>
    <g id="xtick_2">
     <g id="line2d_3">
      <path d="M 231.498777 318.04 
L 231.498777 25.44 
" clip-path="url(#pc2b12abe0c)" style="fill: none; stroke: #b0b0b0; stroke-width: 0.8; stroke-linecap: square"/>
     </g>
     <g id="line2d_4">
      <g>
       <use xlink:href="#me19641264a" x="231.498777" y="318.04" style="stroke: #000000; stroke-width: 0.8"/>
      </g>
     </g>
     <g id="text_2">
      <!-- 1970 -->
      <g transform="translate(218.773777 332.638438) scale(0.1 -0.1)">
       <defs>
        <path id="DejaVuSans-37" d="M 525 4666 
L 3525 4666 
L 3525 4397 
L 1831 0 
L 1172 0 
L 2766 4134 
L 525 4134 
L 525 4666 
z
" transform="scale(0.015625)"/>
       </defs>
       <use xlink:href="#DejaVuSans-31"/>
       <use xlink:href="#DejaVuSans-39" transform="translate(63.623047 0)"/>
       <use xlink:href="#DejaVuSans-37" transform="translate(127.246094 0)"/>
       <use xlink:href="#DejaVuSans-30" transform="translate(190.869141 0)"/>
      </g>
     </g>
    </g>
    <g id="xtick_3">
     <g id="line2d_5">
      <path d="M 371.039912 318.04 
L 371.039912 25.44 
" clip-path="url(#pc2b12abe0c)" style="fill: none; stroke: #b0b0b0; stroke-width: 0.8; stroke-linecap: square"/>
     </g>
     <g id="line2d_6">
      <g>
       <use xlink:href="#me19641264a" x="371.039912" y="318.04" style="stroke: #000000; stroke-width: 0.8"/>
      </g>
     </g>
     <g id="text_3">
      <!-- 1980 -->
      <g transform="translate(358.314912 332.638438) scale(0.1 -0.1)">
       <defs>
        <path id="DejaVuSans-38" d="M 2034 2216 
Q 1584 2216 1326 1975 
Q 1069 1734 1069 1313 
Q 1069 891 1326 650 
Q 1584 409 2034 409 
Q 2484 409 2743 651 
Q 3003 894 3003 1313 
Q 3003 1734 2745 1975 
Q 2488 2216 2034 2216 
z
M 1403 2484 
Q 997 2584 770 2862 
Q 544 3141 544 3541 
Q 544 4100 942 4425 
Q 1341 4750 2034 4750 
Q 2731 4750 3128 4425 
Q 3525 4100 3525 3541 
Q 3525 3141 3298 2862 
Q 3072 2584 2669 2484 
Q 3125 2378 3379 2068 
Q 3634 1759 3634 1313 
Q 3634 634 3220 271 
Q 2806 -91 2034 -91 
Q 1263 -91 848 271 
Q 434 634 434 1313 
Q 434 1759 690 2068 
Q 947 2378 1403 2484 
z
M 1172 3481 
Q 1172 3119 1398 2916 
Q 1625 2713 2034 2713 
Q 2441 2713 2670 2916 
Q 2900 3119 2900 3481 
Q 2900 3844 2670 4047 
Q 2441 4250 2034 4250 
Q 1625 4250 1398 4047 
Q 1172 3844 1172 3481 
z
" transform="scale(0.015625)"/>
       </defs>
       <use xlink:href="#DejaVuSans-31"/>
       <use xlink:href="#DejaVuSans-39" transform="translate(63.623047 0)"/>
       <use xlink:href="#DejaVuSans-38" transform="translate(127.246094 0)"/>
       <use xlink:href="#DejaVuSans-30" transform="translate(190.869141 0)"/>
      </g>
     </g>
    </g>
    <g id="xtick_4">
     <g id="line2d_7">
      <path d="M 510.619256 318.04 
L 510.619256 25.44 
" clip-path="url(#pc2b12abe0c)" style="fill: none; stroke: #b0b0b0; stroke-width: 0.8; stroke-linecap: square"/>
     </g>
     <g id="line2d_8">
      <g>
       <use xlink:href="#me19641264a" x="510.619256" y="318.04" style="stroke: #000000; stroke-width: 0.8"/>
      </g>
     </g>
     <g id="text_4">
      <!-- 1990 -->
      <g transform="translate(497.894256 332.638438) scale(0.1 -0.1)">
       <use xlink:href="#DejaVuSans-31"/>
       <use xlink:href="#DejaVuSans-39" transform="translate(63.623047 0)"/>
       <use xlink:href="#DejaVuSans-39" transform="translate(127.246094 0)"/>
       <use xlink:href="#DejaVuSans-30" transform="translate(190.869141 0)"/>
      </g>
     </g>
    </g>
    <g id="xtick_5">
     <g id="line2d_9">
      <path d="M 650.16039 318.04 
L 650.16039 25.44 
" clip-path="url(#pc2b12abe0c)" style="fill: none; stroke: #b0b0b0; stroke-width: 0.8; stroke-linecap: square"/>
     </g>
     <g id="line2d_10">
      <g>
       <use xlink:href="#me19641264a" x="650.16039" y="318.04" style="stroke: #000000; stroke-width: 0.8"/>
      </g>
     </g>
     <g id="text_5">
      <!-- 2000 -->
      <g transform="translate(637.43539 332.638438) scale(0.1 -0.1)">
       <defs>
        <path id="DejaVuSans-32" d="M 1228 531 
L 3431 531 
L 3431 0 
L 469 0 
L 469 531 
Q 828 903 1448 1529 
Q 2069 2156 2228 2338 
Q 2531 2678 2651 2914 
Q 2772 3150 2772 3378 
Q 2772 3750 2511 3984 
Q 2250 4219 1831 4219 
Q 1534 4219 1204 4116 
Q 875 4013 500 3803 
L 500 4441 
Q 881 4594 1212 4672 
Q 1544 4750 1819 4750 
Q 2544 4750 2975 4387 
Q 3406 4025 3406 3419 
Q 3406 3131 3298 2873 
Q 3191 2616 2906 2266 
Q 2828 2175 2409 1742 
Q 1991 1309 1228 531 
z
" transform="scale(0.015625)"/>
       </defs>
       <use xlink:href="#DejaVuSans-32"/>
       <use xlink:href="#DejaVuSans-30" transform="translate(63.623047 0)"/>
       <use xlink:href="#DejaVuSans-30" transform="translate(127.246094 0)"/>
       <use xlink:href="#DejaVuSans-30" transform="translate(190.869141 0)"/>
      </g>
     </g>
    </g>
    <g id="xtick_6">
     <g id="line2d_11">
      <path d="M 789.739734 318.04 
L 789.739734 25.44 
" clip-path="url(#pc2b12abe0c)" style="fill: none; stroke: #b0b0b0; stroke-width: 0.8; stroke-linecap: square"/>
     </g>
     <g id="line2d_12">
      <g>
       <use xlink:href="#me19641264a" x="789.739734" y="318.04" style="stroke: #000000; stroke-width: 0.8"/>
      </g>
     </g>
     <g id="text_6">
      <!-- 2010 -->
      <g transform="translate(777.014734 332.638438) scale(0.1 -0.1)">
       <use xlink:href="#DejaVuSans-32"/>
       <use xlink:href="#DejaVuSans-30" transform="translate(63.623047 0)"/>
       <use xlink:href="#DejaVuSans-31" transform="translate(127.246094 0)"/>
       <use xlink:href="#DejaVuSans-30" transform="translate(190.869141 0)"/>
      </g>
     </g>
    </g>
    <g id="text_7">
     <!-- Date -->
     <g transform="translate(436.979219 346.316563) scale(0.1 -0.1)">
      <defs>
       <path id="DejaVuSans-44" d="M 1259 4147 
L 1259 519 
L 2022 519 
Q 2988 519 3436 956 
Q 3884 1394 3884 2338 
Q 3884 3275 3436 3711 
Q 2988 4147 2022 4147 
L 1259 4147 
z
M 628 4666 
L 1925 4666 
Q 3281 4666 3915 4102 
Q 4550 3538 4550 2338 
Q 4550 1131 3912 565 
Q 3275 0 1925 0 
L 628 0 
L 628 4666 
z
" transform="scale(0.015625)"/>
       <path id="DejaVuSans-61" d="M 2194 1759 
Q 1497 1759 1228 1600 
Q 959 1441 959 1056 
Q 959 750 1161 570 
Q 1363 391 1709 391 
Q 2188 391 2477 730 
Q 2766 1069 2766 1631 
L 2766 1759 
L 2194 1759 
z
M 3341 1997 
L 3341 0 
L 2766 0 
L 2766 531 
Q 2569 213 2275 61 
Q 1981 -91 1556 -91 
Q 1019 -91 701 211 
Q 384 513 384 1019 
Q 384 1609 779 1909 
Q 1175 2209 1959 2209 
L 2766 2209 
L 2766 2266 
Q 2766 2663 2505 2880 
Q 2244 3097 1772 3097 
Q 1472 3097 1187 3025 
Q 903 2953 641 2809 
L 641 3341 
Q 956 3463 1253 3523 
Q 1550 3584 1831 3584 
Q 2591 3584 2966 3190 
Q 3341 2797 3341 1997 
z
" transform="scale(0.015625)"/>
       <path id="DejaVuSans-74" d="M 1172 4494 
L 1172 3500 
L 2356 3500 
L 2356 3053 
L 1172 3053 
L 1172 1153 
Q 1172 725 1289 603 
Q 1406 481 1766 481 
L 2356 481 
L 2356 0 
L 1766 0 
Q 1100 0 847 248 
Q 594 497 594 1153 
L 594 3053 
L 172 3053 
L 172 3500 
L 594 3500 
L 594 4494 
L 1172 4494 
z
" transform="scale(0.015625)"/>
       <path id="DejaVuSans-65" d="M 3597 1894 
L 3597 1613 
L 953 1613 
Q 991 1019 1311 708 
Q 1631 397 2203 397 
Q 2534 397 2845 478 
Q 3156 559 3463 722 
L 3463 178 
Q 3153 47 2828 -22 
Q 2503 -91 2169 -91 
Q 1331 -91 842 396 
Q 353 884 353 1716 
Q 353 2575 817 3079 
Q 1281 3584 2069 3584 
Q 2775 3584 3186 3129 
Q 3597 2675 3597 1894 
z
M 3022 2063 
Q 3016 2534 2758 2815 
Q 2500 3097 2075 3097 
Q 1594 3097 1305 2825 
Q 1016 2553 972 2059 
L 3022 2063 
z
" transform="scale(0.015625)"/>
      </defs>
      <use xlink:href="#DejaVuSans-44"/>
      <use xlink:href="#DejaVuSans-61" transform="translate(77.001953 0)"/>
      <use xlink:href="#DejaVuSans-74" transform="translate(138.28125 0)"/>
      <use xlink:href="#DejaVuSans-65" transform="translate(177.490234 0)"/>
     </g>
    </g>
   </g>
   <g id="matplotlib.axis_2">
    <g id="ytick_1">
     <g id="line2d_13">
      <path d="M 44.66 300.985065 
L 853.2 300.985065 
" clip-path="url(#pc2b12abe0c)" style="fill: none; stroke: #b0b0b0; stroke-width: 0.8; stroke-linecap: square"/>
     </g>
     <g id="line2d_14">
      <defs>
       <path id="mc7bf772c86" d="M 0 0 
L -3.5 0 
" style="stroke: #000000; stroke-width: 0.8"/>
      </defs>
      <g>
       <use xlink:href="#mc7bf772c86" x="44.66" y="300.985065" style="stroke: #000000; stroke-width: 0.8"/>
      </g>
     </g>
     <g id="text_8">
      <!-- 0 -->
      <g transform="translate(31.2975 304.784284) scale(0.1 -0.1)">
       <use xlink:href="#DejaVuSans-30"/>
      </g>
     </g>
    </g>
    <g id="ytick_2">
     <g id="line2d_15">
      <path d="M 44.66 259.118217 
L 853.2 259.118217 
" clip-path="url(#pc2b12abe0c)" style="fill: none; stroke: #b0b0b0; stroke-width: 0.8; stroke-linecap: square"/>
     </g>
     <g id="line2d_16">
      <g>
       <use xlink:href="#mc7bf772c86" x="44.66" y="259.118217" style="stroke: #000000; stroke-width: 0.8"/>
      </g>
     </g>
     <g id="text_9">
      <!-- 10 -->
      <g transform="translate(24.935 262.917436) scale(0.1 -0.1)">
       <use xlink:href="#DejaVuSans-31"/>
       <use xlink:href="#DejaVuSans-30" transform="translate(63.623047 0)"/>
      </g>
     </g>
    </g>
    <g id="ytick_3">
     <g id="line2d_17">
      <path d="M 44.66 217.25137 
L 853.2 217.25137 
" clip-path="url(#pc2b12abe0c)" style="fill: none; stroke: #b0b0b0; stroke-width: 0.8; stroke-linecap: square"/>
     </g>
     <g id="line2d_18">
      <g>
       <use xlink:href="#mc7bf772c86" x="44.66" y="217.25137" style="stroke: #000000; stroke-width: 0.8"/>
      </g>
     </g>
     <g id="text_10">
      <!-- 20 -->
      <g transform="translate(24.935 221.050589) scale(0.1 -0.1)">
       <use xlink:href="#DejaVuSans-32"/>
       <use xlink:href="#DejaVuSans-30" transform="translate(63.623047 0)"/>
      </g>
     </g>
    </g>
    <g id="ytick_4">
     <g id="line2d_19">
      <path d="M 44.66 175.384522 
L 853.2 175.384522 
" clip-path="url(#pc2b12abe0c)" style="fill: none; stroke: #b0b0b0; stroke-width: 0.8; stroke-linecap: square"/>
     </g>
     <g id="line2d_20">
      <g>
       <use xlink:href="#mc7bf772c86" x="44.66" y="175.384522" style="stroke: #000000; stroke-width: 0.8"/>
      </g>
     </g>
     <g id="text_11">
      <!-- 30 -->
      <g transform="translate(24.935 179.183741) scale(0.1 -0.1)">
       <defs>
        <path id="DejaVuSans-33" d="M 2597 2516 
Q 3050 2419 3304 2112 
Q 3559 1806 3559 1356 
Q 3559 666 3084 287 
Q 2609 -91 1734 -91 
Q 1441 -91 1130 -33 
Q 819 25 488 141 
L 488 750 
Q 750 597 1062 519 
Q 1375 441 1716 441 
Q 2309 441 2620 675 
Q 2931 909 2931 1356 
Q 2931 1769 2642 2001 
Q 2353 2234 1838 2234 
L 1294 2234 
L 1294 2753 
L 1863 2753 
Q 2328 2753 2575 2939 
Q 2822 3125 2822 3475 
Q 2822 3834 2567 4026 
Q 2313 4219 1838 4219 
Q 1578 4219 1281 4162 
Q 984 4106 628 3988 
L 628 4550 
Q 988 4650 1302 4700 
Q 1616 4750 1894 4750 
Q 2613 4750 3031 4423 
Q 3450 4097 3450 3541 
Q 3450 3153 3228 2886 
Q 3006 2619 2597 2516 
z
" transform="scale(0.015625)"/>
       </defs>
       <use xlink:href="#DejaVuSans-33"/>
       <use xlink:href="#DejaVuSans-30" transform="translate(63.623047 0)"/>
      </g>
     </g>
    </g>
    <g id="ytick_5">
     <g id="line2d_21">
      <path d="M 44.66 133.517675 
L 853.2 133.517675 
" clip-path="url(#pc2b12abe0c)" style="fill: none; stroke: #b0b0b0; stroke-width: 0.8; stroke-linecap: square"/>
     </g>
     <g id="line2d_22">
      <g>
       <use xlink:href="#mc7bf772c86" x="44.66" y="133.517675" style="stroke: #000000; stroke-width: 0.8"/>
      </g>
     </g>
     <g id="text_12">
      <!-- 40 -->
      <g transform="translate(24.935 137.316893) scale(0.1 -0.1)">
       <defs>
        <path id="DejaVuSans-34" d="M 2419 4116 
L 825 1625 
L 2419 1625 
L 2419 4116 
z
M 2253 4666 
L 3047 4666 
L 3047 1625 
L 3713 1625 
L 3713 1100 
L 3047 1100 
L 3047 0 
L 2419 0 
L 2419 1100 
L 313 1100 
L 313 1709 
L 2253 4666 
z
" transform="scale(0.015625)"/>
       </defs>
       <use xlink:href="#DejaVuSans-34"/>
       <use xlink:href="#DejaVuSans-30" transform="translate(63.623047 0)"/>
      </g>
     </g>
    </g>
    <g id="ytick_6">
     <g id="line2d_23">
      <path d="M 44.66 91.650827 
L 853.2 91.650827 
" clip-path="url(#pc2b12abe0c)" style="fill: none; stroke: #b0b0b0; stroke-width: 0.8; stroke-linecap: square"/>
     </g>
     <g id="line2d_24">
      <g>
       <use xlink:href="#mc7bf772c86" x="44.66" y="91.650827" style="stroke: #000000; stroke-width: 0.8"/>
      </g>
     </g>
     <g id="text_13">
      <!-- 50 -->
      <g transform="translate(24.935 95.450046) scale(0.1 -0.1)">
       <defs>
        <path id="DejaVuSans-35" d="M 691 4666 
L 3169 4666 
L 3169 4134 
L 1269 4134 
L 1269 2991 
Q 1406 3038 1543 3061 
Q 1681 3084 1819 3084 
Q 2600 3084 3056 2656 
Q 3513 2228 3513 1497 
Q 3513 744 3044 326 
Q 2575 -91 1722 -91 
Q 1428 -91 1123 -41 
Q 819 9 494 109 
L 494 744 
Q 775 591 1075 516 
Q 1375 441 1709 441 
Q 2250 441 2565 725 
Q 2881 1009 2881 1497 
Q 2881 1984 2565 2268 
Q 2250 2553 1709 2553 
Q 1456 2553 1204 2497 
Q 953 2441 691 2322 
L 691 4666 
z
" transform="scale(0.015625)"/>
       </defs>
       <use xlink:href="#DejaVuSans-35"/>
       <use xlink:href="#DejaVuSans-30" transform="translate(63.623047 0)"/>
      </g>
     </g>
    </g>
    <g id="ytick_7">
     <g id="line2d_25">
      <path d="M 44.66 49.78398 
L 853.2 49.78398 
" clip-path="url(#pc2b12abe0c)" style="fill: none; stroke: #b0b0b0; stroke-width: 0.8; stroke-linecap: square"/>
     </g>
     <g id="line2d_26">
      <g>
       <use xlink:href="#mc7bf772c86" x="44.66" y="49.78398" style="stroke: #000000; stroke-width: 0.8"/>
      </g>
     </g>
     <g id="text_14">
      <!-- 60 -->
      <g transform="translate(24.935 53.583198) scale(0.1 -0.1)">
       <use xlink:href="#DejaVuSans-36"/>
       <use xlink:href="#DejaVuSans-30" transform="translate(63.623047 0)"/>
      </g>
     </g>
    </g>
    <g id="text_15">
     <!-- Residual / ppm -->
     <g transform="translate(18.855313 208.936875) rotate(-90) scale(0.1 -0.1)">
      <defs>
       <path id="DejaVuSans-52" d="M 2841 2188 
Q 3044 2119 3236 1894 
Q 3428 1669 3622 1275 
L 4263 0 
L 3584 0 
L 2988 1197 
Q 2756 1666 2539 1819 
Q 2322 1972 1947 1972 
L 1259 1972 
L 1259 0 
L 628 0 
L 628 4666 
L 2053 4666 
Q 2853 4666 3247 4331 
Q 3641 3997 3641 3322 
Q 3641 2881 3436 2590 
Q 3231 2300 2841 2188 
z
M 1259 4147 
L 1259 2491 
L 2053 2491 
Q 2509 2491 2742 2702 
Q 2975 2913 2975 3322 
Q 2975 3731 2742 3939 
Q 2509 4147 2053 4147 
L 1259 4147 
z
" transform="scale(0.015625)"/>
       <path id="DejaVuSans-73" d="M 2834 3397 
L 2834 2853 
Q 2591 2978 2328 3040 
Q 2066 3103 1784 3103 
Q 1356 3103 1142 2972 
Q 928 2841 928 2578 
Q 928 2378 1081 2264 
Q 1234 2150 1697 2047 
L 1894 2003 
Q 2506 1872 2764 1633 
Q 3022 1394 3022 966 
Q 3022 478 2636 193 
Q 2250 -91 1575 -91 
Q 1294 -91 989 -36 
Q 684 19 347 128 
L 347 722 
Q 666 556 975 473 
Q 1284 391 1588 391 
Q 1994 391 2212 530 
Q 2431 669 2431 922 
Q 2431 1156 2273 1281 
Q 2116 1406 1581 1522 
L 1381 1569 
Q 847 1681 609 1914 
Q 372 2147 372 2553 
Q 372 3047 722 3315 
Q 1072 3584 1716 3584 
Q 2034 3584 2315 3537 
Q 2597 3491 2834 3397 
z
" transform="scale(0.015625)"/>
       <path id="DejaVuSans-69" d="M 603 3500 
L 1178 3500 
L 1178 0 
L 603 0 
L 603 3500 
z
M 603 4863 
L 1178 4863 
L 1178 4134 
L 603 4134 
L 603 4863 
z
" transform="scale(0.015625)"/>
       <path id="DejaVuSans-64" d="M 2906 2969 
L 2906 4863 
L 3481 4863 
L 3481 0 
L 2906 0 
L 2906 525 
Q 2725 213 2448 61 
Q 2172 -91 1784 -91 
Q 1150 -91 751 415 
Q 353 922 353 1747 
Q 353 2572 751 3078 
Q 1150 3584 1784 3584 
Q 2172 3584 2448 3432 
Q 2725 3281 2906 2969 
z
M 947 1747 
Q 947 1113 1208 752 
Q 1469 391 1925 391 
Q 2381 391 2643 752 
Q 2906 1113 2906 1747 
Q 2906 2381 2643 2742 
Q 2381 3103 1925 3103 
Q 1469 3103 1208 2742 
Q 947 2381 947 1747 
z
" transform="scale(0.015625)"/>
       <path id="DejaVuSans-75" d="M 544 1381 
L 544 3500 
L 1119 3500 
L 1119 1403 
Q 1119 906 1312 657 
Q 1506 409 1894 409 
Q 2359 409 2629 706 
Q 2900 1003 2900 1516 
L 2900 3500 
L 3475 3500 
L 3475 0 
L 2900 0 
L 2900 538 
Q 2691 219 2414 64 
Q 2138 -91 1772 -91 
Q 1169 -91 856 284 
Q 544 659 544 1381 
z
M 1991 3584 
L 1991 3584 
z
" transform="scale(0.015625)"/>
       <path id="DejaVuSans-6c" d="M 603 4863 
L 1178 4863 
L 1178 0 
L 603 0 
L 603 4863 
z
" transform="scale(0.015625)"/>
       <path id="DejaVuSans-20" transform="scale(0.015625)"/>
       <path id="DejaVuSans-2f" d="M 1625 4666 
L 2156 4666 
L 531 -594 
L 0 -594 
L 1625 4666 
z
" transform="scale(0.015625)"/>
       <path id="DejaVuSans-70" d="M 1159 525 
L 1159 -1331 
L 581 -1331 
L 581 3500 
L 1159 3500 
L 1159 2969 
Q 1341 3281 1617 3432 
Q 1894 3584 2278 3584 
Q 2916 3584 3314 3078 
Q 3713 2572 3713 1747 
Q 3713 922 3314 415 
Q 2916 -91 2278 -91 
Q 1894 -91 1617 61 
Q 1341 213 1159 525 
z
M 3116 1747 
Q 3116 2381 2855 2742 
Q 2594 3103 2138 3103 
Q 1681 3103 1420 2742 
Q 1159 2381 1159 1747 
Q 1159 1113 1420 752 
Q 1681 391 2138 391 
Q 2594 391 2855 752 
Q 3116 1113 3116 1747 
z
" transform="scale(0.015625)"/>
       <path id="DejaVuSans-6d" d="M 3328 2828 
Q 3544 3216 3844 3400 
Q 4144 3584 4550 3584 
Q 5097 3584 5394 3201 
Q 5691 2819 5691 2113 
L 5691 0 
L 5113 0 
L 5113 2094 
Q 5113 2597 4934 2840 
Q 4756 3084 4391 3084 
Q 3944 3084 3684 2787 
Q 3425 2491 3425 1978 
L 3425 0 
L 2847 0 
L 2847 2094 
Q 2847 2600 2669 2842 
Q 2491 3084 2119 3084 
Q 1678 3084 1418 2786 
Q 1159 2488 1159 1978 
L 1159 0 
L 581 0 
L 581 3500 
L 1159 3500 
L 1159 2956 
Q 1356 3278 1631 3431 
Q 1906 3584 2284 3584 
Q 2666 3584 2933 3390 
Q 3200 3197 3328 2828 
z
" transform="scale(0.015625)"/>
      </defs>
      <use xlink:href="#DejaVuSans-52"/>
      <use xlink:href="#DejaVuSans-65" transform="translate(64.982422 0)"/>
      <use xlink:href="#DejaVuSans-73" transform="translate(126.505859 0)"/>
      <use xlink:href="#DejaVuSans-69" transform="translate(178.605469 0)"/>
      <use xlink:href="#DejaVuSans-64" transform="translate(206.388672 0)"/>
      <use xlink:href="#DejaVuSans-75" transform="translate(269.865234 0)"/>
      <use xlink:href="#DejaVuSans-61" transform="translate(333.244141 0)"/>
      <use xlink:href="#DejaVuSans-6c" transform="translate(394.523438 0)"/>
      <use xlink:href="#DejaVuSans-20" transform="translate(422.306641 0)"/>
      <use xlink:href="#DejaVuSans-2f" transform="translate(454.09375 0)"/>
      <use xlink:href="#DejaVuSans-20" transform="translate(487.785156 0)"/>
      <use xlink:href="#DejaVuSans-70" transform="translate(519.572266 0)"/>
      <use xlink:href="#DejaVuSans-70" transform="translate(583.048828 0)"/>
      <use xlink:href="#DejaVuSans-6d" transform="translate(646.525391 0)"/>
     </g>
    </g>
   </g>
   <g id="line2d_27">
    <path d="M 44.66 300.985065 
L 853.2 300.985065 
" clip-path="url(#pc2b12abe0c)" style="fill: none; stroke-dasharray: 5.55,2.4; stroke-dashoffset: 0; stroke: #808080; stroke-width: 1.5"/>
   </g>
   <g id="line2d_28">
    <path d="M 81.411818 38.74 
L 82.558104 227.393838 
L 83.742598 301.003341 
L 84.888884 302.321228 
L 86.073379 304.306835 
L 87.257873 297.162506 
L 88.404159 300.254588 
L 89.588654 299.030684 
L 90.734939 303.888565 
L 91.919434 300.90831 
L 93.103929 302.255085 
L 94.212004 298.949313 
L 95.396499 299.178331 
L 96.542785 298.520635 
L 97.727279 301.42802 
L 98.873565 300.144424 
L 100.05806 302.850092 
L 101.242554 304.74 
L 102.38884 301.510307 
L 103.573335 302.568581 
L 104.71962 300.082894 
L 105.904115 301.51664 
L 107.08861 300.404841 
L 108.158476 299.700032 
L 109.342971 301.981832 
L 110.489256 299.922683 
L 111.673751 302.741291 
L 112.820036 300.366427 
L 114.004531 299.792715 
L 115.189026 302.557646 
L 116.335311 298.393991 
L 117.519806 302.297903 
L 118.666091 301.778585 
L 119.850586 300.543597 
L 121.035081 301.24282 
L 122.104947 299.230119 
L 123.289442 301.517349 
L 124.435728 302.95217 
L 125.620222 301.324618 
L 126.766508 299.465261 
L 127.951003 301.744309 
L 129.135497 299.890823 
L 130.281783 303.25668 
L 131.466278 301.299687 
L 132.612563 300.896502 
L 133.797058 300.189227 
L 134.981553 302.206305 
L 136.051419 301.570784 
L 137.235914 299.368345 
L 138.382199 300.143431 
L 139.566694 301.973149 
L 140.712979 303.129205 
L 141.897474 301.598451 
L 143.081969 301.873614 
L 144.228254 300.978112 
L 145.412749 301.512822 
L 146.559034 300.021467 
L 147.743529 299.323198 
L 148.928024 300.953979 
L 150.0361 301.407791 
L 151.220595 301.387512 
L 152.36688 302.68435 
L 153.551375 300.957906 
L 154.69766 301.277609 
L 155.882155 300.194181 
L 157.06665 303.033608 
L 158.212935 299.775607 
L 159.39743 302.056249 
L 160.543716 301.504647 
L 161.72821 302.125184 
L 162.912705 299.636298 
L 163.982572 302.071008 
L 165.167066 301.084772 
L 166.313352 303.949075 
L 167.497847 301.327862 
L 168.644132 298.094119 
L 169.828627 301.822255 
L 171.013122 299.335649 
L 172.159407 301.560281 
L 173.343902 299.217133 
L 174.490187 302.340841 
L 175.674682 300.257241 
L 176.859177 299.200685 
L 177.929043 300.167499 
L 179.113538 300.069314 
L 180.259823 301.529589 
L 181.444318 300.532673 
L 182.590603 301.099655 
L 183.775098 301.012965 
L 184.959593 302.01997 
L 186.105878 302.475811 
L 187.290373 299.38526 
L 188.436659 299.367587 
L 189.621153 299.044865 
L 190.805648 302.437745 
L 191.875515 302.282375 
L 193.060009 300.549316 
L 194.206295 300.814424 
L 195.39079 302.97159 
L 196.537075 302.772937 
L 197.72157 300.045106 
L 198.906065 301.557699 
L 200.05235 299.47324 
L 201.236845 300.119171 
L 202.38313 299.776795 
L 203.567625 302.196812 
L 205.860196 301.019663 
L 207.04469 301.42006 
L 208.190976 301.300594 
L 209.375471 299.951778 
L 210.521756 300.233845 
L 211.706251 301.060118 
L 212.890746 302.076904 
L 214.037031 300.611878 
L 215.221526 301.674323 
L 216.367811 299.038974 
L 217.552306 299.725084 
L 218.736801 301.42202 
L 219.806667 298.948826 
L 220.991162 300.952962 
L 222.137447 300.309656 
L 223.321942 301.476822 
L 224.468227 299.050999 
L 225.652722 301.317566 
L 226.837217 299.926709 
L 227.983502 302.065566 
L 229.167997 302.036685 
L 230.314283 300.631841 
L 231.498777 301.035184 
L 232.683272 299.651727 
L 233.753139 299.875572 
L 234.937633 300.57375 
L 236.083919 303.462542 
L 237.268414 301.471596 
L 238.414699 301.44766 
L 239.599194 299.892024 
L 240.783689 300.943445 
L 241.929974 300.099025 
L 243.114469 301.809885 
L 245.445249 300.827311 
L 246.629744 301.432431 
L 247.69961 302.504805 
L 248.884105 304.040742 
L 250.03039 299.53667 
L 252.361171 300.721944 
L 253.545665 300.837213 
L 254.73016 303.242682 
L 255.876446 299.936678 
L 257.06094 300.464651 
L 258.207226 300.587917 
L 259.391721 301.808052 
L 260.576215 300.278474 
L 261.684291 303.478872 
L 262.868786 298.39722 
L 264.015071 301.101448 
L 265.199566 303.305221 
L 266.345852 300.892305 
L 267.530346 300.046819 
L 268.714841 300.370015 
L 269.861127 298.508292 
L 272.191907 300.824899 
L 273.376402 300.613997 
L 274.560896 299.147706 
L 275.630763 300.127449 
L 276.815258 300.629725 
L 277.961543 298.983964 
L 279.146038 299.721569 
L 280.292323 300.282668 
L 281.476818 299.028146 
L 282.661313 301.023965 
L 283.807598 301.670559 
L 284.992093 301.995101 
L 286.138378 303.989005 
L 287.322873 303.127904 
L 288.507368 299.086604 
L 289.577234 300.228923 
L 290.761729 301.187851 
L 291.908014 301.381569 
L 293.092509 303.169988 
L 294.238795 301.406402 
L 295.423289 301.386541 
L 296.607784 302.250182 
L 297.75407 301.177839 
L 298.938564 301.851416 
L 300.08485 300.597957 
L 301.269345 300.11166 
L 302.453839 300.934377 
L 303.523706 301.978146 
L 304.708201 301.540849 
L 305.854486 300.252672 
L 307.038981 300.723042 
L 308.185266 301.953688 
L 309.369761 301.923838 
L 310.554256 300.690755 
L 311.700541 300.956457 
L 312.885036 301.703164 
L 314.031321 300.038932 
L 315.215816 301.390986 
L 316.400311 299.462509 
L 317.508387 300.744305 
L 318.692882 300.21625 
L 319.839167 303.381611 
L 321.023662 302.612479 
L 322.169947 300.11306 
L 323.354442 302.949225 
L 324.538937 302.312283 
L 325.685222 302.001012 
L 326.869717 300.349078 
L 328.016002 299.508181 
L 329.200497 300.16859 
L 330.384992 302.081738 
L 331.454858 296.699932 
L 332.639353 299.664947 
L 333.785639 299.579672 
L 334.970133 301.034729 
L 336.116419 301.13284 
L 337.300914 302.47733 
L 338.485408 299.99096 
L 339.631694 300.066065 
L 340.816189 300.713934 
L 341.962474 300.898621 
L 343.146969 299.312599 
L 344.331464 302.299901 
L 345.40133 298.843755 
L 346.585825 300.986173 
L 347.73211 302.05964 
L 348.916605 298.828651 
L 350.06289 301.484681 
L 351.247385 301.56239 
L 352.43188 303.116024 
L 353.578165 300.833786 
L 354.76266 300.488223 
L 355.908945 300.981478 
L 357.09344 300.088884 
L 358.277935 301.488898 
L 359.347801 298.175332 
L 360.532296 302.747692 
L 361.678582 302.205336 
L 362.863076 298.986997 
L 364.009362 302.390276 
L 365.193857 300.796129 
L 366.378351 301.43862 
L 367.524637 299.650807 
L 368.709132 301.054414 
L 369.855417 299.648955 
L 371.039912 300.21566 
L 372.224407 301.843885 
L 373.332482 297.887262 
L 374.516977 301.039331 
L 375.663263 301.094958 
L 376.847757 299.243967 
L 377.994043 302.936206 
L 379.178538 300.771327 
L 380.363032 299.92827 
L 381.509318 300.857929 
L 382.693813 301.066676 
L 383.840098 301.811174 
L 385.024593 301.420332 
L 386.209088 298.76788 
L 388.463449 301.272564 
L 389.609734 301.44359 
L 390.794229 301.364016 
L 391.940514 302.680548 
L 393.125009 303.215411 
L 394.309504 301.491492 
L 396.640284 299.661073 
L 397.786569 300.026281 
L 398.971064 300.780851 
L 400.155559 300.519824 
L 401.225425 300.85481 
L 402.40992 300.570557 
L 403.556206 299.672502 
L 404.7407 302.41585 
L 405.886986 301.755131 
L 407.071481 302.00451 
L 408.255976 302.529557 
L 409.402261 301.258603 
L 410.586756 302.028148 
L 411.733041 300.895639 
L 412.917536 302.122451 
L 414.102031 299.641931 
L 415.171897 302.502585 
L 416.356392 297.770914 
L 417.502677 299.157814 
L 418.687172 300.003262 
L 419.833457 300.675084 
L 421.017952 299.87875 
L 422.202447 302.231594 
L 423.348732 300.872386 
L 424.533227 300.642898 
L 425.679513 300.028394 
L 428.048502 301.227093 
L 429.156578 302.008921 
L 430.341073 299.246219 
L 431.487358 301.170124 
L 432.671853 301.674705 
L 433.818138 301.057341 
L 435.002633 301.268576 
L 436.187128 303.153252 
L 437.333413 300.566708 
L 438.517908 299.938859 
L 439.664194 298.843774 
L 440.848688 302.508662 
L 442.033183 300.943969 
L 443.10305 298.68451 
L 444.287544 302.324692 
L 445.43383 301.233258 
L 446.618325 301.620902 
L 447.76461 302.73989 
L 448.949105 300.169618 
L 450.1336 301.111707 
L 451.279885 301.694594 
L 452.46438 300.687266 
L 453.610665 300.473372 
L 454.79516 302.155373 
L 455.979655 301.902604 
L 457.049521 302.390404 
L 458.234016 299.92847 
L 459.380301 300.396539 
L 460.564796 301.108419 
L 461.711081 302.330271 
L 462.895576 301.981082 
L 464.080071 297.054639 
L 465.226356 302.479471 
L 466.410851 300.9535 
L 467.557137 300.995673 
L 468.741631 299.691777 
L 469.926126 303.112496 
L 470.995993 302.211977 
L 472.180487 299.96683 
L 473.326773 300.072052 
L 474.511268 301.074228 
L 475.657553 300.665358 
L 476.842048 301.046495 
L 479.172828 300.349693 
L 480.357323 300.395417 
L 481.503608 301.147948 
L 483.872598 298.703891 
L 484.980674 300.957322 
L 486.165168 301.346631 
L 487.311454 300.63819 
L 488.495949 300.652487 
L 489.642234 299.285584 
L 490.826729 301.772578 
L 492.011224 300.837243 
L 493.157509 298.931533 
L 494.342004 301.229961 
L 495.488289 301.377639 
L 496.672784 299.084701 
L 497.857279 302.059948 
L 498.927145 302.689782 
L 500.11164 299.99361 
L 501.257925 302.297288 
L 502.44242 301.581618 
L 503.588706 301.133392 
L 504.7732 302.033023 
L 505.957695 302.097493 
L 507.103981 300.429033 
L 508.288475 301.115321 
L 509.434761 300.82172 
L 510.619256 301.35636 
L 511.80375 299.132039 
L 514.058112 304.085547 
L 515.204397 300.27491 
L 516.388892 302.871721 
L 517.535177 302.228826 
L 518.719672 300.72801 
L 519.904167 301.394712 
L 521.050452 300.085632 
L 522.234947 299.977847 
L 523.381232 300.784501 
L 524.565727 303.073003 
L 525.750222 301.288298 
L 526.820088 298.6272 
L 528.004583 299.503623 
L 530.335363 302.860703 
L 531.481649 303.716219 
L 532.666143 303.310844 
L 533.850638 302.011401 
L 534.996924 301.438363 
L 536.181418 300.663318 
L 537.327704 300.967485 
L 538.512199 300.556376 
L 539.696693 300.683728 
L 540.804769 301.822324 
L 541.989264 301.378461 
L 543.135549 301.656984 
L 544.320044 299.966299 
L 545.46633 304.18351 
L 546.650824 302.7301 
L 547.835319 303.194078 
L 548.981605 300.625127 
L 550.166099 302.282569 
L 551.312385 301.841962 
L 552.49688 299.691881 
L 553.681374 302.81802 
L 554.751241 300.88873 
L 555.935736 302.988054 
L 557.082021 300.540574 
L 558.266516 301.358874 
L 559.412801 304.013545 
L 560.597296 300.664697 
L 562.928076 301.203354 
L 564.112571 301.084137 
L 565.258856 300.242998 
L 566.443351 299.591106 
L 567.627846 300.936446 
L 568.697712 300.556019 
L 569.882207 300.671991 
L 571.028492 301.7085 
L 572.212987 302.344299 
L 573.359273 300.702891 
L 574.543768 300.560559 
L 575.728262 301.275013 
L 576.874548 300.067516 
L 578.059043 300.002611 
L 579.205328 300.080266 
L 580.389823 301.179788 
L 581.574318 300.14883 
L 582.644184 300.656053 
L 583.828679 299.845011 
L 584.974964 301.44827 
L 586.159459 300.701001 
L 587.305744 300.607811 
L 588.490239 302.728233 
L 589.674734 298.877156 
L 590.821019 301.511597 
L 592.005514 300.488553 
L 593.151799 301.245079 
L 594.336294 299.766675 
L 595.520789 298.948231 
L 596.628865 300.552622 
L 597.81336 304.24622 
L 600.14414 299.709737 
L 601.290425 299.775426 
L 602.47492 301.0983 
L 603.659415 302.136747 
L 605.990195 301.2123 
L 607.13648 301.025747 
L 608.320975 302.111263 
L 609.50547 300.82561 
L 610.575336 303.292095 
L 611.759831 299.126564 
L 612.906117 301.722185 
L 614.090611 303.468665 
L 615.236897 300.635046 
L 616.421392 301.025676 
L 617.605886 302.652203 
L 618.752172 299.827307 
L 619.936667 299.17077 
L 621.082952 298.22979 
L 622.267447 300.827131 
L 623.451942 301.349567 
L 624.521808 299.570944 
L 626.852588 299.531261 
L 628.037083 299.687682 
L 629.183368 298.750799 
L 630.367863 299.300349 
L 631.552358 301.428185 
L 632.698643 299.850521 
L 633.883138 301.308035 
L 635.029423 299.91106 
L 636.213918 300.51179 
L 637.398413 300.330779 
L 638.468279 302.331643 
L 639.652774 301.155314 
L 640.79906 303.541879 
L 641.983554 302.292887 
L 643.12984 298.82954 
L 644.314335 302.591503 
L 645.498829 303.52032 
L 646.645115 300.196019 
L 647.82961 300.782679 
L 648.975895 301.223525 
L 650.16039 300.590333 
L 651.344885 303.340634 
L 652.45296 301.412163 
L 653.637455 301.355085 
L 654.783741 304.454559 
L 655.968236 299.412615 
L 657.114521 302.36734 
L 659.483511 298.365645 
L 660.629796 300.9285 
L 661.814291 300.924258 
L 664.145071 301.650534 
L 665.329566 300.609959 
L 666.399432 300.86363 
L 667.583927 302.426899 
L 668.730212 301.382945 
L 669.914707 301.654862 
L 671.060992 302.422312 
L 672.245487 300.957736 
L 673.429982 300.171247 
L 675.760762 300.953473 
L 676.907048 300.653951 
L 678.091542 299.953215 
L 679.276037 301.156745 
L 680.345904 301.06348 
L 681.530398 302.402251 
L 682.676684 300.251128 
L 683.861179 299.604288 
L 685.007464 300.755318 
L 686.191959 301.299197 
L 687.376454 298.841752 
L 688.522739 301.835035 
L 689.707234 299.752286 
L 690.853519 299.850007 
L 692.038014 300.520591 
L 693.222509 300.881798 
L 694.292375 301.348911 
L 695.47687 300.699306 
L 696.623155 299.23586 
L 697.80765 299.649436 
L 700.13843 301.943282 
L 701.322925 299.727332 
L 702.46921 301.308927 
L 703.653705 300.44979 
L 704.799991 301.125902 
L 705.984485 301.380069 
L 707.16898 300.697908 
L 708.277056 300.561447 
L 709.461551 299.705744 
L 710.607836 301.602508 
L 712.938616 304.692886 
L 714.123111 299.908418 
L 715.307606 301.635847 
L 716.453891 301.258593 
L 717.638386 299.93207 
L 718.784672 301.03433 
L 719.969166 301.625976 
L 721.153661 299.195481 
L 722.223528 299.968929 
L 723.408022 299.407943 
L 724.554308 301.760947 
L 725.738803 300.030541 
L 726.885088 300.134624 
L 728.069583 300.604397 
L 729.254078 302.794565 
L 730.400363 300.912104 
L 731.584858 301.261006 
L 732.731143 299.657452 
L 733.915638 299.710316 
L 735.100133 300.653872 
L 736.169999 302.856483 
L 737.354494 298.734854 
L 738.500779 300.360289 
L 739.685274 302.864934 
L 740.831559 301.66289 
L 743.200549 301.055351 
L 744.346835 300.57989 
L 745.531329 302.62509 
L 746.677615 300.682427 
L 747.86211 300.964633 
L 749.046604 300.374248 
L 750.116471 301.735949 
L 751.300966 298.828586 
L 752.447251 301.953177 
L 753.631746 301.0187 
L 754.778031 301.08455 
L 755.962526 303.08466 
L 757.147021 299.398807 
L 758.293306 300.535979 
L 759.477801 301.188081 
L 760.624086 300.96534 
L 761.808581 298.884283 
L 762.993076 302.705324 
L 764.101152 304.346479 
L 765.285647 303.551861 
L 766.431932 297.7163 
L 767.616427 301.211477 
L 768.762712 300.463414 
L 769.947207 301.841925 
L 771.131702 298.658266 
L 772.277987 301.735704 
L 773.462482 302.065554 
L 774.608767 301.695028 
L 775.793262 300.255426 
L 776.977757 301.996106 
L 778.047623 299.242687 
L 779.232118 303.133648 
L 780.378403 301.439573 
L 781.562898 301.612545 
L 782.709184 300.977605 
L 783.893678 300.560062 
L 785.078173 300.354683 
L 786.224459 302.748632 
L 787.408953 300.680993 
L 788.555239 301.202307 
L 789.739734 300.697688 
L 790.924228 297.931202 
L 791.994095 299.552635 
L 793.17859 300.481999 
L 794.324875 300.609369 
L 796.655655 302.989413 
L 797.84015 300.809729 
L 799.024645 301.18276 
L 800.17093 299.932919 
L 801.355425 300.441455 
L 802.50171 302.277672 
L 803.686205 300.043987 
L 804.8707 301.899823 
L 805.940566 301.905271 
L 807.125061 304.089146 
L 808.271346 300.358949 
L 809.455841 300.399813 
L 810.602127 299.579156 
L 811.786621 302.03065 
L 812.971116 299.66698 
L 814.117402 301.418021 
L 815.301896 301.6044 
L 816.448182 300.555234 
L 816.448182 300.555234 
" clip-path="url(#pc2b12abe0c)" style="fill: none; stroke: #1f77b4; stroke-width: 1.5; stroke-linecap: square"/>
   </g>
   <g id="patch_3">
    <path d="M 44.66 318.04 
L 44.66 25.44 
" style="fill: none; stroke: #000000; stroke-width: 0.8; stroke-linejoin: miter; stroke-linecap: square"/>
   </g>
   <g id="patch_4">
    <path d="M 853.2 318.04 
L 853.2 25.44 
" style="fill: none; stroke: #000000; stroke-width: 0.8; stroke-linejoin: miter; stroke-linecap: square"/>
   </g>
   <g id="patch_5">
    <path d="M 44.66 318.04 
L 853.2 318.04 
" style="fill: none; stroke: #000000; stroke-width: 0.8; stroke-linejoin: miter; stroke-linecap: square"/>
   </g>
   <g id="patch_6">
    <path d="M 44.66 25.44 
L 853.2 25.44 
" style="fill: none; stroke: #000000; stroke-width: 0.8; stroke-linejoin: miter; stroke-linecap: square"/>
   </g>
   <g id="text_16">
    <!-- SARIMA(2,1,1)(1,1,1,12): training_data Residuals Over Time -->
    <g transform="translate(269.260938 19.44) scale(0.12 -0.12)">
     <defs>
      <path id="DejaVuSans-53" d="M 3425 4513 
L 3425 3897 
Q 3066 4069 2747 4153 
Q 2428 4238 2131 4238 
Q 1616 4238 1336 4038 
Q 1056 3838 1056 3469 
Q 1056 3159 1242 3001 
Q 1428 2844 1947 2747 
L 2328 2669 
Q 3034 2534 3370 2195 
Q 3706 1856 3706 1288 
Q 3706 609 3251 259 
Q 2797 -91 1919 -91 
Q 1588 -91 1214 -16 
Q 841 59 441 206 
L 441 856 
Q 825 641 1194 531 
Q 1563 422 1919 422 
Q 2459 422 2753 634 
Q 3047 847 3047 1241 
Q 3047 1584 2836 1778 
Q 2625 1972 2144 2069 
L 1759 2144 
Q 1053 2284 737 2584 
Q 422 2884 422 3419 
Q 422 4038 858 4394 
Q 1294 4750 2059 4750 
Q 2388 4750 2728 4690 
Q 3069 4631 3425 4513 
z
" transform="scale(0.015625)"/>
      <path id="DejaVuSans-41" d="M 2188 4044 
L 1331 1722 
L 3047 1722 
L 2188 4044 
z
M 1831 4666 
L 2547 4666 
L 4325 0 
L 3669 0 
L 3244 1197 
L 1141 1197 
L 716 0 
L 50 0 
L 1831 4666 
z
" transform="scale(0.015625)"/>
      <path id="DejaVuSans-49" d="M 628 4666 
L 1259 4666 
L 1259 0 
L 628 0 
L 628 4666 
z
" transform="scale(0.015625)"/>
      <path id="DejaVuSans-4d" d="M 628 4666 
L 1569 4666 
L 2759 1491 
L 3956 4666 
L 4897 4666 
L 4897 0 
L 4281 0 
L 4281 4097 
L 3078 897 
L 2444 897 
L 1241 4097 
L 1241 0 
L 628 0 
L 628 4666 
z
" transform="scale(0.015625)"/>
      <path id="DejaVuSans-28" d="M 1984 4856 
Q 1566 4138 1362 3434 
Q 1159 2731 1159 2009 
Q 1159 1288 1364 580 
Q 1569 -128 1984 -844 
L 1484 -844 
Q 1016 -109 783 600 
Q 550 1309 550 2009 
Q 550 2706 781 3412 
Q 1013 4119 1484 4856 
L 1984 4856 
z
" transform="scale(0.015625)"/>
      <path id="DejaVuSans-2c" d="M 750 794 
L 1409 794 
L 1409 256 
L 897 -744 
L 494 -744 
L 750 256 
L 750 794 
z
" transform="scale(0.015625)"/>
      <path id="DejaVuSans-29" d="M 513 4856 
L 1013 4856 
Q 1481 4119 1714 3412 
Q 1947 2706 1947 2009 
Q 1947 1309 1714 600 
Q 1481 -109 1013 -844 
L 513 -844 
Q 928 -128 1133 580 
Q 1338 1288 1338 2009 
Q 1338 2731 1133 3434 
Q 928 4138 513 4856 
z
" transform="scale(0.015625)"/>
      <path id="DejaVuSans-3a" d="M 750 794 
L 1409 794 
L 1409 0 
L 750 0 
L 750 794 
z
M 750 3309 
L 1409 3309 
L 1409 2516 
L 750 2516 
L 750 3309 
z
" transform="scale(0.015625)"/>
      <path id="DejaVuSans-72" d="M 2631 2963 
Q 2534 3019 2420 3045 
Q 2306 3072 2169 3072 
Q 1681 3072 1420 2755 
Q 1159 2438 1159 1844 
L 1159 0 
L 581 0 
L 581 3500 
L 1159 3500 
L 1159 2956 
Q 1341 3275 1631 3429 
Q 1922 3584 2338 3584 
Q 2397 3584 2469 3576 
Q 2541 3569 2628 3553 
L 2631 2963 
z
" transform="scale(0.015625)"/>
      <path id="DejaVuSans-6e" d="M 3513 2113 
L 3513 0 
L 2938 0 
L 2938 2094 
Q 2938 2591 2744 2837 
Q 2550 3084 2163 3084 
Q 1697 3084 1428 2787 
Q 1159 2491 1159 1978 
L 1159 0 
L 581 0 
L 581 3500 
L 1159 3500 
L 1159 2956 
Q 1366 3272 1645 3428 
Q 1925 3584 2291 3584 
Q 2894 3584 3203 3211 
Q 3513 2838 3513 2113 
z
" transform="scale(0.015625)"/>
      <path id="DejaVuSans-67" d="M 2906 1791 
Q 2906 2416 2648 2759 
Q 2391 3103 1925 3103 
Q 1463 3103 1205 2759 
Q 947 2416 947 1791 
Q 947 1169 1205 825 
Q 1463 481 1925 481 
Q 2391 481 2648 825 
Q 2906 1169 2906 1791 
z
M 3481 434 
Q 3481 -459 3084 -895 
Q 2688 -1331 1869 -1331 
Q 1566 -1331 1297 -1286 
Q 1028 -1241 775 -1147 
L 775 -588 
Q 1028 -725 1275 -790 
Q 1522 -856 1778 -856 
Q 2344 -856 2625 -561 
Q 2906 -266 2906 331 
L 2906 616 
Q 2728 306 2450 153 
Q 2172 0 1784 0 
Q 1141 0 747 490 
Q 353 981 353 1791 
Q 353 2603 747 3093 
Q 1141 3584 1784 3584 
Q 2172 3584 2450 3431 
Q 2728 3278 2906 2969 
L 2906 3500 
L 3481 3500 
L 3481 434 
z
" transform="scale(0.015625)"/>
      <path id="DejaVuSans-5f" d="M 3263 -1063 
L 3263 -1509 
L -63 -1509 
L -63 -1063 
L 3263 -1063 
z
" transform="scale(0.015625)"/>
      <path id="DejaVuSans-4f" d="M 2522 4238 
Q 1834 4238 1429 3725 
Q 1025 3213 1025 2328 
Q 1025 1447 1429 934 
Q 1834 422 2522 422 
Q 3209 422 3611 934 
Q 4013 1447 4013 2328 
Q 4013 3213 3611 3725 
Q 3209 4238 2522 4238 
z
M 2522 4750 
Q 3503 4750 4090 4092 
Q 4678 3434 4678 2328 
Q 4678 1225 4090 567 
Q 3503 -91 2522 -91 
Q 1538 -91 948 565 
Q 359 1222 359 2328 
Q 359 3434 948 4092 
Q 1538 4750 2522 4750 
z
" transform="scale(0.015625)"/>
      <path id="DejaVuSans-76" d="M 191 3500 
L 800 3500 
L 1894 563 
L 2988 3500 
L 3597 3500 
L 2284 0 
L 1503 0 
L 191 3500 
z
" transform="scale(0.015625)"/>
      <path id="DejaVuSans-54" d="M -19 4666 
L 3928 4666 
L 3928 4134 
L 2272 4134 
L 2272 0 
L 1638 0 
L 1638 4134 
L -19 4134 
L -19 4666 
z
" transform="scale(0.015625)"/>
     </defs>
     <use xlink:href="#DejaVuSans-53"/>
     <use xlink:href="#DejaVuSans-41" transform="translate(65.351562 0)"/>
     <use xlink:href="#DejaVuSans-52" transform="translate(133.759766 0)"/>
     <use xlink:href="#DejaVuSans-49" transform="translate(203.242188 0)"/>
     <use xlink:href="#DejaVuSans-4d" transform="translate(232.734375 0)"/>
     <use xlink:href="#DejaVuSans-41" transform="translate(319.013672 0)"/>
     <use xlink:href="#DejaVuSans-28" transform="translate(387.421875 0)"/>
     <use xlink:href="#DejaVuSans-32" transform="translate(426.435547 0)"/>
     <use xlink:href="#DejaVuSans-2c" transform="translate(490.058594 0)"/>
     <use xlink:href="#DejaVuSans-31" transform="translate(521.845703 0)"/>
     <use xlink:href="#DejaVuSans-2c" transform="translate(585.46875 0)"/>
     <use xlink:href="#DejaVuSans-31" transform="translate(617.255859 0)"/>
     <use xlink:href="#DejaVuSans-29" transform="translate(680.878906 0)"/>
     <use xlink:href="#DejaVuSans-28" transform="translate(719.892578 0)"/>
     <use xlink:href="#DejaVuSans-31" transform="translate(758.90625 0)"/>
     <use xlink:href="#DejaVuSans-2c" transform="translate(822.529297 0)"/>
     <use xlink:href="#DejaVuSans-31" transform="translate(854.316406 0)"/>
     <use xlink:href="#DejaVuSans-2c" transform="translate(917.939453 0)"/>
     <use xlink:href="#DejaVuSans-31" transform="translate(949.726562 0)"/>
     <use xlink:href="#DejaVuSans-2c" transform="translate(1013.349609 0)"/>
     <use xlink:href="#DejaVuSans-31" transform="translate(1045.136719 0)"/>
     <use xlink:href="#DejaVuSans-32" transform="translate(1108.759766 0)"/>
     <use xlink:href="#DejaVuSans-29" transform="translate(1172.382812 0)"/>
     <use xlink:href="#DejaVuSans-3a" transform="translate(1211.396484 0)"/>
     <use xlink:href="#DejaVuSans-20" transform="translate(1245.087891 0)"/>
     <use xlink:href="#DejaVuSans-74" transform="translate(1276.875 0)"/>
     <use xlink:href="#DejaVuSans-72" transform="translate(1316.083984 0)"/>
     <use xlink:href="#DejaVuSans-61" transform="translate(1357.197266 0)"/>
     <use xlink:href="#DejaVuSans-69" transform="translate(1418.476562 0)"/>
     <use xlink:href="#DejaVuSans-6e" transform="translate(1446.259766 0)"/>
     <use xlink:href="#DejaVuSans-69" transform="translate(1509.638672 0)"/>
     <use xlink:href="#DejaVuSans-6e" transform="translate(1537.421875 0)"/>
     <use xlink:href="#DejaVuSans-67" transform="translate(1600.800781 0)"/>
     <use xlink:href="#DejaVuSans-5f" transform="translate(1664.277344 0)"/>
     <use xlink:href="#DejaVuSans-64" transform="translate(1714.277344 0)"/>
     <use xlink:href="#DejaVuSans-61" transform="translate(1777.753906 0)"/>
     <use xlink:href="#DejaVuSans-74" transform="translate(1839.033203 0)"/>
     <use xlink:href="#DejaVuSans-61" transform="translate(1878.242188 0)"/>
     <use xlink:href="#DejaVuSans-20" transform="translate(1939.521484 0)"/>
     <use xlink:href="#DejaVuSans-52" transform="translate(1971.308594 0)"/>
     <use xlink:href="#DejaVuSans-65" transform="translate(2036.291016 0)"/>
     <use xlink:href="#DejaVuSans-73" transform="translate(2097.814453 0)"/>
     <use xlink:href="#DejaVuSans-69" transform="translate(2149.914062 0)"/>
     <use xlink:href="#DejaVuSans-64" transform="translate(2177.697266 0)"/>
     <use xlink:href="#DejaVuSans-75" transform="translate(2241.173828 0)"/>
     <use xlink:href="#DejaVuSans-61" transform="translate(2304.552734 0)"/>
     <use xlink:href="#DejaVuSans-6c" transform="translate(2365.832031 0)"/>
     <use xlink:href="#DejaVuSans-73" transform="translate(2393.615234 0)"/>
     <use xlink:href="#DejaVuSans-20" transform="translate(2445.714844 0)"/>
     <use xlink:href="#DejaVuSans-4f" transform="translate(2477.501953 0)"/>
     <use xlink:href="#DejaVuSans-76" transform="translate(2556.212891 0)"/>
     <use xlink:href="#DejaVuSans-65" transform="translate(2615.392578 0)"/>
     <use xlink:href="#DejaVuSans-72" transform="translate(2676.916016 0)"/>
     <use xlink:href="#DejaVuSans-20" transform="translate(2718.029297 0)"/>
     <use xlink:href="#DejaVuSans-54" transform="translate(2749.816406 0)"/>
     <use xlink:href="#DejaVuSans-69" transform="translate(2807.775391 0)"/>
     <use xlink:href="#DejaVuSans-6d" transform="translate(2835.558594 0)"/>
     <use xlink:href="#DejaVuSans-65" transform="translate(2932.970703 0)"/>
    </g>
   </g>
   <g id="legend_1">
    <g id="patch_7">
     <path d="M 748.395313 62.79625 
L 846.2 62.79625 
Q 848.2 62.79625 848.2 60.79625 
L 848.2 32.44 
Q 848.2 30.44 846.2 30.44 
L 748.395313 30.44 
Q 746.395313 30.44 746.395313 32.44 
L 746.395313 60.79625 
Q 746.395313 62.79625 748.395313 62.79625 
z
" style="fill: #ffffff; opacity: 0.8; stroke: #cccccc; stroke-linejoin: miter"/>
    </g>
    <g id="line2d_29">
     <path d="M 750.395313 38.538437 
L 760.395313 38.538437 
L 770.395313 38.538437 
" style="fill: none; stroke-dasharray: 5.55,2.4; stroke-dashoffset: 0; stroke: #808080; stroke-width: 1.5"/>
    </g>
    <g id="text_17">
     <!-- Zero residual -->
     <g transform="translate(778.395313 42.038437) scale(0.1 -0.1)">
      <defs>
       <path id="DejaVuSans-5a" d="M 359 4666 
L 4025 4666 
L 4025 4184 
L 1075 531 
L 4097 531 
L 4097 0 
L 288 0 
L 288 481 
L 3238 4134 
L 359 4134 
L 359 4666 
z
" transform="scale(0.015625)"/>
       <path id="DejaVuSans-6f" d="M 1959 3097 
Q 1497 3097 1228 2736 
Q 959 2375 959 1747 
Q 959 1119 1226 758 
Q 1494 397 1959 397 
Q 2419 397 2687 759 
Q 2956 1122 2956 1747 
Q 2956 2369 2687 2733 
Q 2419 3097 1959 3097 
z
M 1959 3584 
Q 2709 3584 3137 3096 
Q 3566 2609 3566 1747 
Q 3566 888 3137 398 
Q 2709 -91 1959 -91 
Q 1206 -91 779 398 
Q 353 888 353 1747 
Q 353 2609 779 3096 
Q 1206 3584 1959 3584 
z
" transform="scale(0.015625)"/>
      </defs>
      <use xlink:href="#DejaVuSans-5a"/>
      <use xlink:href="#DejaVuSans-65" transform="translate(68.505859 0)"/>
      <use xlink:href="#DejaVuSans-72" transform="translate(130.029297 0)"/>
      <use xlink:href="#DejaVuSans-6f" transform="translate(168.892578 0)"/>
      <use xlink:href="#DejaVuSans-20" transform="translate(230.074219 0)"/>
      <use xlink:href="#DejaVuSans-72" transform="translate(261.861328 0)"/>
      <use xlink:href="#DejaVuSans-65" transform="translate(300.724609 0)"/>
      <use xlink:href="#DejaVuSans-73" transform="translate(362.248047 0)"/>
      <use xlink:href="#DejaVuSans-69" transform="translate(414.347656 0)"/>
      <use xlink:href="#DejaVuSans-64" transform="translate(442.130859 0)"/>
      <use xlink:href="#DejaVuSans-75" transform="translate(505.607422 0)"/>
      <use xlink:href="#DejaVuSans-61" transform="translate(568.986328 0)"/>
      <use xlink:href="#DejaVuSans-6c" transform="translate(630.265625 0)"/>
     </g>
    </g>
    <g id="line2d_30">
     <path d="M 750.395313 53.216563 
L 760.395313 53.216563 
L 770.395313 53.216563 
" style="fill: none; stroke: #1f77b4; stroke-width: 1.5; stroke-linecap: square"/>
    </g>
    <g id="text_18">
     <!-- Residuals -->
     <g transform="translate(778.395313 56.716563) scale(0.1 -0.1)">
      <use xlink:href="#DejaVuSans-52"/>
      <use xlink:href="#DejaVuSans-65" transform="translate(64.982422 0)"/>
      <use xlink:href="#DejaVuSans-73" transform="translate(126.505859 0)"/>
      <use xlink:href="#DejaVuSans-69" transform="translate(178.605469 0)"/>
      <use xlink:href="#DejaVuSans-64" transform="translate(206.388672 0)"/>
      <use xlink:href="#DejaVuSans-75" transform="translate(269.865234 0)"/>
      <use xlink:href="#DejaVuSans-61" transform="translate(333.244141 0)"/>
      <use xlink:href="#DejaVuSans-6c" transform="translate(394.523438 0)"/>
      <use xlink:href="#DejaVuSans-73" transform="translate(422.306641 0)"/>
     </g>
    </g>
   </g>
  </g>
 </g>
 <defs>
  <clipPath id="pc2b12abe0c">
   <rect x="44.66" y="25.44" width="808.54" height="292.6"/>
  </clipPath>
 </defs>
</svg>
