<?xml version="1.0" encoding="utf-8" standalone="no"?>
<!DOCTYPE svg PUBLIC "-//W3C//DTD SVG 1.1//EN"
  "http://www.w3.org/Graphics/SVG/1.1/DTD/svg11.dtd">
<svg xmlns:xlink="http://www.w3.org/1999/xlink" width="864pt" height="360pt" viewBox="0 0 864 360" xmlns="http://www.w3.org/2000/svg" version="1.1">
 <metadata>
  <rdf:RDF xmlns:dc="http://purl.org/dc/elements/1.1/" xmlns:cc="http://creativecommons.org/ns#" xmlns:rdf="http://www.w3.org/1999/02/22-rdf-syntax-ns#">
   <cc:Work>
    <dc:type rdf:resource="http://purl.org/dc/dcmitype/StillImage"/>
    <dc:date>2026-07-08T14:24:09.392298</dc:date>
    <dc:format>image/svg+xml</dc:format>
    <dc:creator>
     <cc:Agent>
      <dc:title>Matplotlib v3.10.0, https://matplotlib.org/</dc:title>
     </cc:Agent>
    </dc:creator>
   </cc:Work>
  </rdf:RDF>
 </metadata>
 <defs>
  <style type="text/css">*{stroke-linejoin: round; stroke-linecap: butt}</style>
 </defs>
 <g id="figure_1">
  <g id="patch_1">
   <path d="M 0 360 
L 864 360 
L 864 0 
L 0 0 
z
" style="fill: #ffffff"/>
  </g>
  <g id="axes_1">
   <g id="patch_2">
    <path d="M 51.05 318.04 
L 853.2 318.04 
L 853.2 25.44 
L 51.05 25.44 
z
" style="fill: #ffffff"/>
   </g>
   <g id="matplotlib.axis_1">
    <g id="xtick_1">
     <g id="line2d_1">
      <path d="M 96.272285 318.04 
L 96.272285 25.44 
" clip-path="url(#p92d52736c6)" style="fill: none; stroke: #b0b0b0; stroke-width: 0.8; stroke-linecap: square"/>
     </g>
     <g id="line2d_2">
      <defs>
       <path id="mfb619d8fd7" d="M 0 0 
L 0 3.5 
" style="stroke: #000000; stroke-width: 0.8"/>
      </defs>
      <g>
       <use xlink:href="#mfb619d8fd7" x="96.272285" y="318.04" style="stroke: #000000; stroke-width: 0.8"/>
      </g>
     </g>
     <g id="text_1">
      <!-- 1960 -->
      <g transform="translate(83.547285 332.638438) scale(0.1 -0.1)">
       <defs>
        <path id="DejaVuSans-31" d="M 794 531 
L 1825 531 
L 1825 4091 
L 703 3866 
L 703 4441 
L 1819 4666 
L 2450 4666 
L 2450 531 
L 3481 531 
L 3481 0 
L 794 0 
L 794 531 
z
" transform="scale(0.015625)"/>
        <path id="DejaVuSans-39" d="M 703 97 
L 703 672 
Q 941 559 1184 500 
Q 1428 441 1663 441 
Q 2288 441 2617 861 
Q 2947 1281 2994 2138 
Q 2813 1869 2534 1725 
Q 2256 1581 1919 1581 
Q 1219 1581 811 2004 
Q 403 2428 403 3163 
Q 403 3881 828 4315 
Q 1253 4750 1959 4750 
Q 2769 4750 3195 4129 
Q 3622 3509 3622 2328 
Q 3622 1225 3098 567 
Q 2575 -91 1691 -91 
Q 1453 -91 1209 -44 
Q 966 3 703 97 
z
M 1959 2075 
Q 2384 2075 2632 2365 
Q 2881 2656 2881 3163 
Q 2881 3666 2632 3958 
Q 2384 4250 1959 4250 
Q 1534 4250 1286 3958 
Q 1038 3666 1038 3163 
Q 1038 2656 1286 2365 
Q 1534 2075 1959 2075 
z
" transform="scale(0.015625)"/>
        <path id="DejaVuSans-36" d="M 2113 2584 
Q 1688 2584 1439 2293 
Q 1191 2003 1191 1497 
Q 1191 994 1439 701 
Q 1688 409 2113 409 
Q 2538 409 2786 701 
Q 3034 994 3034 1497 
Q 3034 2003 2786 2293 
Q 2538 2584 2113 2584 
z
M 3366 4563 
L 3366 3988 
Q 3128 4100 2886 4159 
Q 2644 4219 2406 4219 
Q 1781 4219 1451 3797 
Q 1122 3375 1075 2522 
Q 1259 2794 1537 2939 
Q 1816 3084 2150 3084 
Q 2853 3084 3261 2657 
Q 3669 2231 3669 1497 
Q 3669 778 3244 343 
Q 2819 -91 2113 -91 
Q 1303 -91 875 529 
Q 447 1150 447 2328 
Q 447 3434 972 4092 
Q 1497 4750 2381 4750 
Q 2619 4750 2861 4703 
Q 3103 4656 3366 4563 
z
" transform="scale(0.015625)"/>
        <path id="DejaVuSans-30" d="M 2034 4250 
Q 1547 4250 1301 3770 
Q 1056 3291 1056 2328 
Q 1056 1369 1301 889 
Q 1547 409 2034 409 
Q 2525 409 2770 889 
Q 3016 1369 3016 2328 
Q 3016 3291 2770 3770 
Q 2525 4250 2034 4250 
z
M 2034 4750 
Q 2819 4750 3233 4129 
Q 3647 3509 3647 2328 
Q 3647 1150 3233 529 
Q 2819 -91 2034 -91 
Q 1250 -91 836 529 
Q 422 1150 422 2328 
Q 422 3509 836 4129 
Q 1250 4750 2034 4750 
z
" transform="scale(0.015625)"/>
       </defs>
       <use xlink:href="#DejaVuSans-31"/>
       <use xlink:href="#DejaVuSans-39" transform="translate(63.623047 0)"/>
       <use xlink:href="#DejaVuSans-36" transform="translate(127.246094 0)"/>
       <use xlink:href="#DejaVuSans-30" transform="translate(190.869141 0)"/>
      </g>
     </g>
    </g>
    <g id="xtick_2">
     <g id="line2d_3">
      <path d="M 212.649185 318.04 
L 212.649185 25.44 
" clip-path="url(#p92d52736c6)" style="fill: none; stroke: #b0b0b0; stroke-width: 0.8; stroke-linecap: square"/>
     </g>
     <g id="line2d_4">
      <g>
       <use xlink:href="#mfb619d8fd7" x="212.649185" y="318.04" style="stroke: #000000; stroke-width: 0.8"/>
      </g>
     </g>
     <g id="text_2">
      <!-- 1970 -->
      <g transform="translate(199.924185 332.638438) scale(0.1 -0.1)">
       <defs>
        <path id="DejaVuSans-37" d="M 525 4666 
L 3525 4666 
L 3525 4397 
L 1831 0 
L 1172 0 
L 2766 4134 
L 525 4134 
L 525 4666 
z
" transform="scale(0.015625)"/>
       </defs>
       <use xlink:href="#DejaVuSans-31"/>
       <use xlink:href="#DejaVuSans-39" transform="translate(63.623047 0)"/>
       <use xlink:href="#DejaVuSans-37" transform="translate(127.246094 0)"/>
       <use xlink:href="#DejaVuSans-30" transform="translate(190.869141 0)"/>
      </g>
     </g>
    </g>
    <g id="xtick_3">
     <g id="line2d_5">
      <path d="M 328.994226 318.04 
L 328.994226 25.44 
" clip-path="url(#p92d52736c6)" style="fill: none; stroke: #b0b0b0; stroke-width: 0.8; stroke-linecap: square"/>
     </g>
     <g id="line2d_6">
      <g>
       <use xlink:href="#mfb619d8fd7" x="328.994226" y="318.04" style="stroke: #000000; stroke-width: 0.8"/>
      </g>
     </g>
     <g id="text_3">
      <!-- 1980 -->
      <g transform="translate(316.269226 332.638438) scale(0.1 -0.1)">
       <defs>
        <path id="DejaVuSans-38" d="M 2034 2216 
Q 1584 2216 1326 1975 
Q 1069 1734 1069 1313 
Q 1069 891 1326 650 
Q 1584 409 2034 409 
Q 2484 409 2743 651 
Q 3003 894 3003 1313 
Q 3003 1734 2745 1975 
Q 2488 2216 2034 2216 
z
M 1403 2484 
Q 997 2584 770 2862 
Q 544 3141 544 3541 
Q 544 4100 942 4425 
Q 1341 4750 2034 4750 
Q 2731 4750 3128 4425 
Q 3525 4100 3525 3541 
Q 3525 3141 3298 2862 
Q 3072 2584 2669 2484 
Q 3125 2378 3379 2068 
Q 3634 1759 3634 1313 
Q 3634 634 3220 271 
Q 2806 -91 2034 -91 
Q 1263 -91 848 271 
Q 434 634 434 1313 
Q 434 1759 690 2068 
Q 947 2378 1403 2484 
z
M 1172 3481 
Q 1172 3119 1398 2916 
Q 1625 2713 2034 2713 
Q 2441 2713 2670 2916 
Q 2900 3119 2900 3481 
Q 2900 3844 2670 4047 
Q 2441 4250 2034 4250 
Q 1625 4250 1398 4047 
Q 1172 3844 1172 3481 
z
" transform="scale(0.015625)"/>
       </defs>
       <use xlink:href="#DejaVuSans-31"/>
       <use xlink:href="#DejaVuSans-39" transform="translate(63.623047 0)"/>
       <use xlink:href="#DejaVuSans-38" transform="translate(127.246094 0)"/>
       <use xlink:href="#DejaVuSans-30" transform="translate(190.869141 0)"/>
      </g>
     </g>
    </g>
    <g id="xtick_4">
     <g id="line2d_7">
      <path d="M 445.371126 318.04 
L 445.371126 25.44 
" clip-path="url(#p92d52736c6)" style="fill: none; stroke: #b0b0b0; stroke-width: 0.8; stroke-linecap: square"/>
     </g>
     <g id="line2d_8">
      <g>
       <use xlink:href="#mfb619d8fd7" x="445.371126" y="318.04" style="stroke: #000000; stroke-width: 0.8"/>
      </g>
     </g>
     <g id="text_4">
      <!-- 1990 -->
      <g transform="translate(432.646126 332.638438) scale(0.1 -0.1)">
       <use xlink:href="#DejaVuSans-31"/>
       <use xlink:href="#DejaVuSans-39" transform="translate(63.623047 0)"/>
       <use xlink:href="#DejaVuSans-39" transform="translate(127.246094 0)"/>
       <use xlink:href="#DejaVuSans-30" transform="translate(190.869141 0)"/>
      </g>
     </g>
    </g>
    <g id="xtick_5">
     <g id="line2d_9">
      <path d="M 561.716167 318.04 
L 561.716167 25.44 
" clip-path="url(#p92d52736c6)" style="fill: none; stroke: #b0b0b0; stroke-width: 0.8; stroke-linecap: square"/>
     </g>
     <g id="line2d_10">
      <g>
       <use xlink:href="#mfb619d8fd7" x="561.716167" y="318.04" style="stroke: #000000; stroke-width: 0.8"/>
      </g>
     </g>
     <g id="text_5">
      <!-- 2000 -->
      <g transform="translate(548.991167 332.638438) scale(0.1 -0.1)">
       <defs>
        <path id="DejaVuSans-32" d="M 1228 531 
L 3431 531 
L 3431 0 
L 469 0 
L 469 531 
Q 828 903 1448 1529 
Q 2069 2156 2228 2338 
Q 2531 2678 2651 2914 
Q 2772 3150 2772 3378 
Q 2772 3750 2511 3984 
Q 2250 4219 1831 4219 
Q 1534 4219 1204 4116 
Q 875 4013 500 3803 
L 500 4441 
Q 881 4594 1212 4672 
Q 1544 4750 1819 4750 
Q 2544 4750 2975 4387 
Q 3406 4025 3406 3419 
Q 3406 3131 3298 2873 
Q 3191 2616 2906 2266 
Q 2828 2175 2409 1742 
Q 1991 1309 1228 531 
z
" transform="scale(0.015625)"/>
       </defs>
       <use xlink:href="#DejaVuSans-32"/>
       <use xlink:href="#DejaVuSans-30" transform="translate(63.623047 0)"/>
       <use xlink:href="#DejaVuSans-30" transform="translate(127.246094 0)"/>
       <use xlink:href="#DejaVuSans-30" transform="translate(190.869141 0)"/>
      </g>
     </g>
    </g>
    <g id="xtick_6">
     <g id="line2d_11">
      <path d="M 678.093067 318.04 
L 678.093067 25.44 
" clip-path="url(#p92d52736c6)" style="fill: none; stroke: #b0b0b0; stroke-width: 0.8; stroke-linecap: square"/>
     </g>
     <g id="line2d_12">
      <g>
       <use xlink:href="#mfb619d8fd7" x="678.093067" y="318.04" style="stroke: #000000; stroke-width: 0.8"/>
      </g>
     </g>
     <g id="text_6">
      <!-- 2010 -->
      <g transform="translate(665.368067 332.638438) scale(0.1 -0.1)">
       <use xlink:href="#DejaVuSans-32"/>
       <use xlink:href="#DejaVuSans-30" transform="translate(63.623047 0)"/>
       <use xlink:href="#DejaVuSans-31" transform="translate(127.246094 0)"/>
       <use xlink:href="#DejaVuSans-30" transform="translate(190.869141 0)"/>
      </g>
     </g>
    </g>
    <g id="xtick_7">
     <g id="line2d_13">
      <path d="M 794.438108 318.04 
L 794.438108 25.44 
" clip-path="url(#p92d52736c6)" style="fill: none; stroke: #b0b0b0; stroke-width: 0.8; stroke-linecap: square"/>
     </g>
     <g id="line2d_14">
      <g>
       <use xlink:href="#mfb619d8fd7" x="794.438108" y="318.04" style="stroke: #000000; stroke-width: 0.8"/>
      </g>
     </g>
     <g id="text_7">
      <!-- 2020 -->
      <g transform="translate(781.713108 332.638438) scale(0.1 -0.1)">
       <use xlink:href="#DejaVuSans-32"/>
       <use xlink:href="#DejaVuSans-30" transform="translate(63.623047 0)"/>
       <use xlink:href="#DejaVuSans-32" transform="translate(127.246094 0)"/>
       <use xlink:href="#DejaVuSans-30" transform="translate(190.869141 0)"/>
      </g>
     </g>
    </g>
    <g id="text_8">
     <!-- Date -->
     <g transform="translate(440.174219 346.316563) scale(0.1 -0.1)">
      <defs>
       <path id="DejaVuSans-44" d="M 1259 4147 
L 1259 519 
L 2022 519 
Q 2988 519 3436 956 
Q 3884 1394 3884 2338 
Q 3884 3275 3436 3711 
Q 2988 4147 2022 4147 
L 1259 4147 
z
M 628 4666 
L 1925 4666 
Q 3281 4666 3915 4102 
Q 4550 3538 4550 2338 
Q 4550 1131 3912 565 
Q 3275 0 1925 0 
L 628 0 
L 628 4666 
z
" transform="scale(0.015625)"/>
       <path id="DejaVuSans-61" d="M 2194 1759 
Q 1497 1759 1228 1600 
Q 959 1441 959 1056 
Q 959 750 1161 570 
Q 1363 391 1709 391 
Q 2188 391 2477 730 
Q 2766 1069 2766 1631 
L 2766 1759 
L 2194 1759 
z
M 3341 1997 
L 3341 0 
L 2766 0 
L 2766 531 
Q 2569 213 2275 61 
Q 1981 -91 1556 -91 
Q 1019 -91 701 211 
Q 384 513 384 1019 
Q 384 1609 779 1909 
Q 1175 2209 1959 2209 
L 2766 2209 
L 2766 2266 
Q 2766 2663 2505 2880 
Q 2244 3097 1772 3097 
Q 1472 3097 1187 3025 
Q 903 2953 641 2809 
L 641 3341 
Q 956 3463 1253 3523 
Q 1550 3584 1831 3584 
Q 2591 3584 2966 3190 
Q 3341 2797 3341 1997 
z
" transform="scale(0.015625)"/>
       <path id="DejaVuSans-74" d="M 1172 4494 
L 1172 3500 
L 2356 3500 
L 2356 3053 
L 1172 3053 
L 1172 1153 
Q 1172 725 1289 603 
Q 1406 481 1766 481 
L 2356 481 
L 2356 0 
L 1766 0 
Q 1100 0 847 248 
Q 594 497 594 1153 
L 594 3053 
L 172 3053 
L 172 3500 
L 594 3500 
L 594 4494 
L 1172 4494 
z
" transform="scale(0.015625)"/>
       <path id="DejaVuSans-65" d="M 3597 1894 
L 3597 1613 
L 953 1613 
Q 991 1019 1311 708 
Q 1631 397 2203 397 
Q 2534 397 2845 478 
Q 3156 559 3463 722 
L 3463 178 
Q 3153 47 2828 -22 
Q 2503 -91 2169 -91 
Q 1331 -91 842 396 
Q 353 884 353 1716 
Q 353 2575 817 3079 
Q 1281 3584 2069 3584 
Q 2775 3584 3186 3129 
Q 3597 2675 3597 1894 
z
M 3022 2063 
Q 3016 2534 2758 2815 
Q 2500 3097 2075 3097 
Q 1594 3097 1305 2825 
Q 1016 2553 972 2059 
L 3022 2063 
z
" transform="scale(0.015625)"/>
      </defs>
      <use xlink:href="#DejaVuSans-44"/>
      <use xlink:href="#DejaVuSans-61" transform="translate(77.001953 0)"/>
      <use xlink:href="#DejaVuSans-74" transform="translate(138.28125 0)"/>
      <use xlink:href="#DejaVuSans-65" transform="translate(177.490234 0)"/>
     </g>
    </g>
   </g>
   <g id="matplotlib.axis_2">
    <g id="ytick_1">
     <g id="line2d_15">
      <path d="M 51.05 293.966494 
L 853.2 293.966494 
" clip-path="url(#p92d52736c6)" style="fill: none; stroke: #b0b0b0; stroke-width: 0.8; stroke-linecap: square"/>
     </g>
     <g id="line2d_16">
      <defs>
       <path id="me13daf289c" d="M 0 0 
L -3.5 0 
" style="stroke: #000000; stroke-width: 0.8"/>
      </defs>
      <g>
       <use xlink:href="#me13daf289c" x="51.05" y="293.966494" style="stroke: #000000; stroke-width: 0.8"/>
      </g>
     </g>
     <g id="text_9">
      <!-- 0 -->
      <g transform="translate(37.6875 297.765713) scale(0.1 -0.1)">
       <use xlink:href="#DejaVuSans-30"/>
      </g>
     </g>
    </g>
    <g id="ytick_2">
     <g id="line2d_17">
      <path d="M 51.05 242.352662 
L 853.2 242.352662 
" clip-path="url(#p92d52736c6)" style="fill: none; stroke: #b0b0b0; stroke-width: 0.8; stroke-linecap: square"/>
     </g>
     <g id="line2d_18">
      <g>
       <use xlink:href="#me13daf289c" x="51.05" y="242.352662" style="stroke: #000000; stroke-width: 0.8"/>
      </g>
     </g>
     <g id="text_10">
      <!-- 20 -->
      <g transform="translate(31.325 246.151881) scale(0.1 -0.1)">
       <use xlink:href="#DejaVuSans-32"/>
       <use xlink:href="#DejaVuSans-30" transform="translate(63.623047 0)"/>
      </g>
     </g>
    </g>
    <g id="ytick_3">
     <g id="line2d_19">
      <path d="M 51.05 190.73883 
L 853.2 190.73883 
" clip-path="url(#p92d52736c6)" style="fill: none; stroke: #b0b0b0; stroke-width: 0.8; stroke-linecap: square"/>
     </g>
     <g id="line2d_20">
      <g>
       <use xlink:href="#me13daf289c" x="51.05" y="190.73883" style="stroke: #000000; stroke-width: 0.8"/>
      </g>
     </g>
     <g id="text_11">
      <!-- 40 -->
      <g transform="translate(31.325 194.538049) scale(0.1 -0.1)">
       <defs>
        <path id="DejaVuSans-34" d="M 2419 4116 
L 825 1625 
L 2419 1625 
L 2419 4116 
z
M 2253 4666 
L 3047 4666 
L 3047 1625 
L 3713 1625 
L 3713 1100 
L 3047 1100 
L 3047 0 
L 2419 0 
L 2419 1100 
L 313 1100 
L 313 1709 
L 2253 4666 
z
" transform="scale(0.015625)"/>
       </defs>
       <use xlink:href="#DejaVuSans-34"/>
       <use xlink:href="#DejaVuSans-30" transform="translate(63.623047 0)"/>
      </g>
     </g>
    </g>
    <g id="ytick_4">
     <g id="line2d_21">
      <path d="M 51.05 139.124998 
L 853.2 139.124998 
" clip-path="url(#p92d52736c6)" style="fill: none; stroke: #b0b0b0; stroke-width: 0.8; stroke-linecap: square"/>
     </g>
     <g id="line2d_22">
      <g>
       <use xlink:href="#me13daf289c" x="51.05" y="139.124998" style="stroke: #000000; stroke-width: 0.8"/>
      </g>
     </g>
     <g id="text_12">
      <!-- 60 -->
      <g transform="translate(31.325 142.924217) scale(0.1 -0.1)">
       <use xlink:href="#DejaVuSans-36"/>
       <use xlink:href="#DejaVuSans-30" transform="translate(63.623047 0)"/>
      </g>
     </g>
    </g>
    <g id="ytick_5">
     <g id="line2d_23">
      <path d="M 51.05 87.511166 
L 853.2 87.511166 
" clip-path="url(#p92d52736c6)" style="fill: none; stroke: #b0b0b0; stroke-width: 0.8; stroke-linecap: square"/>
     </g>
     <g id="line2d_24">
      <g>
       <use xlink:href="#me13daf289c" x="51.05" y="87.511166" style="stroke: #000000; stroke-width: 0.8"/>
      </g>
     </g>
     <g id="text_13">
      <!-- 80 -->
      <g transform="translate(31.325 91.310385) scale(0.1 -0.1)">
       <use xlink:href="#DejaVuSans-38"/>
       <use xlink:href="#DejaVuSans-30" transform="translate(63.623047 0)"/>
      </g>
     </g>
    </g>
    <g id="ytick_6">
     <g id="line2d_25">
      <path d="M 51.05 35.897334 
L 853.2 35.897334 
" clip-path="url(#p92d52736c6)" style="fill: none; stroke: #b0b0b0; stroke-width: 0.8; stroke-linecap: square"/>
     </g>
     <g id="line2d_26">
      <g>
       <use xlink:href="#me13daf289c" x="51.05" y="35.897334" style="stroke: #000000; stroke-width: 0.8"/>
      </g>
     </g>
     <g id="text_14">
      <!-- 100 -->
      <g transform="translate(24.9625 39.696553) scale(0.1 -0.1)">
       <use xlink:href="#DejaVuSans-31"/>
       <use xlink:href="#DejaVuSans-30" transform="translate(63.623047 0)"/>
       <use xlink:href="#DejaVuSans-30" transform="translate(127.246094 0)"/>
      </g>
     </g>
    </g>
    <g id="text_15">
     <!-- Residual / ppm -->
     <g transform="translate(18.882813 208.936875) rotate(-90) scale(0.1 -0.1)">
      <defs>
       <path id="DejaVuSans-52" d="M 2841 2188 
Q 3044 2119 3236 1894 
Q 3428 1669 3622 1275 
L 4263 0 
L 3584 0 
L 2988 1197 
Q 2756 1666 2539 1819 
Q 2322 1972 1947 1972 
L 1259 1972 
L 1259 0 
L 628 0 
L 628 4666 
L 2053 4666 
Q 2853 4666 3247 4331 
Q 3641 3997 3641 3322 
Q 3641 2881 3436 2590 
Q 3231 2300 2841 2188 
z
M 1259 4147 
L 1259 2491 
L 2053 2491 
Q 2509 2491 2742 2702 
Q 2975 2913 2975 3322 
Q 2975 3731 2742 3939 
Q 2509 4147 2053 4147 
L 1259 4147 
z
" transform="scale(0.015625)"/>
       <path id="DejaVuSans-73" d="M 2834 3397 
L 2834 2853 
Q 2591 2978 2328 3040 
Q 2066 3103 1784 3103 
Q 1356 3103 1142 2972 
Q 928 2841 928 2578 
Q 928 2378 1081 2264 
Q 1234 2150 1697 2047 
L 1894 2003 
Q 2506 1872 2764 1633 
Q 3022 1394 3022 966 
Q 3022 478 2636 193 
Q 2250 -91 1575 -91 
Q 1294 -91 989 -36 
Q 684 19 347 128 
L 347 722 
Q 666 556 975 473 
Q 1284 391 1588 391 
Q 1994 391 2212 530 
Q 2431 669 2431 922 
Q 2431 1156 2273 1281 
Q 2116 1406 1581 1522 
L 1381 1569 
Q 847 1681 609 1914 
Q 372 2147 372 2553 
Q 372 3047 722 3315 
Q 1072 3584 1716 3584 
Q 2034 3584 2315 3537 
Q 2597 3491 2834 3397 
z
" transform="scale(0.015625)"/>
       <path id="DejaVuSans-69" d="M 603 3500 
L 1178 3500 
L 1178 0 
L 603 0 
L 603 3500 
z
M 603 4863 
L 1178 4863 
L 1178 4134 
L 603 4134 
L 603 4863 
z
" transform="scale(0.015625)"/>
       <path id="DejaVuSans-64" d="M 2906 2969 
L 2906 4863 
L 3481 4863 
L 3481 0 
L 2906 0 
L 2906 525 
Q 2725 213 2448 61 
Q 2172 -91 1784 -91 
Q 1150 -91 751 415 
Q 353 922 353 1747 
Q 353 2572 751 3078 
Q 1150 3584 1784 3584 
Q 2172 3584 2448 3432 
Q 2725 3281 2906 2969 
z
M 947 1747 
Q 947 1113 1208 752 
Q 1469 391 1925 391 
Q 2381 391 2643 752 
Q 2906 1113 2906 1747 
Q 2906 2381 2643 2742 
Q 2381 3103 1925 3103 
Q 1469 3103 1208 2742 
Q 947 2381 947 1747 
z
" transform="scale(0.015625)"/>
       <path id="DejaVuSans-75" d="M 544 1381 
L 544 3500 
L 1119 3500 
L 1119 1403 
Q 1119 906 1312 657 
Q 1506 409 1894 409 
Q 2359 409 2629 706 
Q 2900 1003 2900 1516 
L 2900 3500 
L 3475 3500 
L 3475 0 
L 2900 0 
L 2900 538 
Q 2691 219 2414 64 
Q 2138 -91 1772 -91 
Q 1169 -91 856 284 
Q 544 659 544 1381 
z
M 1991 3584 
L 1991 3584 
z
" transform="scale(0.015625)"/>
       <path id="DejaVuSans-6c" d="M 603 4863 
L 1178 4863 
L 1178 0 
L 603 0 
L 603 4863 
z
" transform="scale(0.015625)"/>
       <path id="DejaVuSans-20" transform="scale(0.015625)"/>
       <path id="DejaVuSans-2f" d="M 1625 4666 
L 2156 4666 
L 531 -594 
L 0 -594 
L 1625 4666 
z
" transform="scale(0.015625)"/>
       <path id="DejaVuSans-70" d="M 1159 525 
L 1159 -1331 
L 581 -1331 
L 581 3500 
L 1159 3500 
L 1159 2969 
Q 1341 3281 1617 3432 
Q 1894 3584 2278 3584 
Q 2916 3584 3314 3078 
Q 3713 2572 3713 1747 
Q 3713 922 3314 415 
Q 2916 -91 2278 -91 
Q 1894 -91 1617 61 
Q 1341 213 1159 525 
z
M 3116 1747 
Q 3116 2381 2855 2742 
Q 2594 3103 2138 3103 
Q 1681 3103 1420 2742 
Q 1159 2381 1159 1747 
Q 1159 1113 1420 752 
Q 1681 391 2138 391 
Q 2594 391 2855 752 
Q 3116 1113 3116 1747 
z
" transform="scale(0.015625)"/>
       <path id="DejaVuSans-6d" d="M 3328 2828 
Q 3544 3216 3844 3400 
Q 4144 3584 4550 3584 
Q 5097 3584 5394 3201 
Q 5691 2819 5691 2113 
L 5691 0 
L 5113 0 
L 5113 2094 
Q 5113 2597 4934 2840 
Q 4756 3084 4391 3084 
Q 3944 3084 3684 2787 
Q 3425 2491 3425 1978 
L 3425 0 
L 2847 0 
L 2847 2094 
Q 2847 2600 2669 2842 
Q 2491 3084 2119 3084 
Q 1678 3084 1418 2786 
Q 1159 2488 1159 1978 
L 1159 0 
L 581 0 
L 581 3500 
L 1159 3500 
L 1159 2956 
Q 1356 3278 1631 3431 
Q 1906 3584 2284 3584 
Q 2666 3584 2933 3390 
Q 3200 3197 3328 2828 
z
" transform="scale(0.015625)"/>
      </defs>
      <use xlink:href="#DejaVuSans-52"/>
      <use xlink:href="#DejaVuSans-65" transform="translate(64.982422 0)"/>
      <use xlink:href="#DejaVuSans-73" transform="translate(126.505859 0)"/>
      <use xlink:href="#DejaVuSans-69" transform="translate(178.605469 0)"/>
      <use xlink:href="#DejaVuSans-64" transform="translate(206.388672 0)"/>
      <use xlink:href="#DejaVuSans-75" transform="translate(269.865234 0)"/>
      <use xlink:href="#DejaVuSans-61" transform="translate(333.244141 0)"/>
      <use xlink:href="#DejaVuSans-6c" transform="translate(394.523438 0)"/>
      <use xlink:href="#DejaVuSans-20" transform="translate(422.306641 0)"/>
      <use xlink:href="#DejaVuSans-2f" transform="translate(454.09375 0)"/>
      <use xlink:href="#DejaVuSans-20" transform="translate(487.785156 0)"/>
      <use xlink:href="#DejaVuSans-70" transform="translate(519.572266 0)"/>
      <use xlink:href="#DejaVuSans-70" transform="translate(583.048828 0)"/>
      <use xlink:href="#DejaVuSans-6d" transform="translate(646.525391 0)"/>
     </g>
    </g>
   </g>
   <g id="line2d_27">
    <path d="M 51.05 293.966494 
L 853.2 293.966494 
" clip-path="url(#p92d52736c6)" style="fill: none; stroke-dasharray: 5.55,2.4; stroke-dashoffset: 0; stroke: #808080; stroke-width: 1.5"/>
   </g>
   <g id="line2d_28">
    <path d="M 87.511364 38.74 
L 88.467101 234.770328 
L 89.454695 288.866073 
L 90.410432 290.625553 
L 91.398027 292.698131 
L 92.385622 288.720264 
L 93.341359 291.331363 
L 94.328954 290.896627 
L 95.284691 294.509956 
L 96.272285 293.754355 
L 97.25988 295.62926 
L 98.183759 304.74 
L 99.171354 291.438057 
L 101.114686 295.51275 
L 102.070423 294.200889 
L 103.058018 295.966466 
L 104.045612 296.234602 
L 105.001349 293.798406 
L 105.988944 294.439928 
L 106.944681 293.190408 
L 107.932276 294.169659 
L 108.919871 293.484526 
L 109.811892 293.146272 
L 110.799487 294.646914 
L 111.755224 293.096143 
L 112.742818 295.082059 
L 113.698555 293.436984 
L 114.68615 293.339205 
L 115.673745 295.032844 
L 116.629482 292.209777 
L 117.617077 294.817492 
L 118.572814 294.434123 
L 119.560408 293.635818 
L 120.548003 294.049773 
L 121.440024 292.845165 
L 122.427619 294.420648 
L 123.383356 295.205364 
L 125.326688 292.906132 
L 126.314283 294.436852 
L 127.301878 293.128329 
L 128.257614 295.329129 
L 129.245209 293.967734 
L 130.200946 293.833138 
L 131.188541 293.399131 
L 132.176136 294.708758 
L 133.068157 294.340933 
L 134.055752 292.849086 
L 135.011489 293.469895 
L 135.999084 294.516894 
L 136.95482 295.362647 
L 137.942415 294.266088 
L 138.93001 294.278001 
L 139.885747 293.884377 
L 140.873342 294.096149 
L 141.829079 293.298635 
L 142.816674 292.997301 
L 143.804268 293.987434 
L 144.728147 294.403946 
L 145.715742 294.261849 
L 146.671479 294.931183 
L 147.659074 293.735782 
L 148.614811 294.123892 
L 149.602406 293.399237 
L 150.590001 295.198295 
L 151.545738 293.060534 
L 152.533332 294.525001 
L 153.489069 294.326739 
L 154.476664 294.802694 
L 155.464259 292.99771 
L 156.35628 294.677734 
L 157.343875 294.133279 
L 158.299612 295.70044 
L 159.287207 293.973606 
L 160.242944 292.019846 
L 161.230538 294.598461 
L 162.218133 292.829713 
L 163.17387 294.479963 
L 164.161465 292.804213 
L 165.117202 294.980674 
L 166.104797 293.684683 
L 167.092391 292.953027 
L 167.984413 293.456663 
L 168.972007 293.509264 
L 169.927744 293.972271 
L 170.915339 293.606723 
L 171.871076 294.172775 
L 172.858671 293.924612 
L 174.802003 294.833887 
L 175.789597 292.81849 
L 177.732929 292.826083 
L 178.720524 295.138631 
L 179.612545 294.632804 
L 180.60014 293.647149 
L 181.555877 293.28145 
L 182.543472 295.073222 
L 183.499209 295.187704 
L 184.486803 293.137679 
L 185.474398 294.160777 
L 186.430135 292.816459 
L 187.41773 293.657408 
L 188.373467 293.215234 
L 189.361062 294.972627 
L 191.272536 293.800867 
L 192.26013 294.315565 
L 193.215867 293.797189 
L 194.203462 293.092957 
L 195.159199 293.468297 
L 196.146794 294.066875 
L 197.134389 294.464791 
L 198.090126 293.637621 
L 199.077721 294.660702 
L 200.033457 292.899576 
L 201.021052 293.31512 
L 202.008647 294.165548 
L 202.900668 292.52998 
L 203.888263 294.017033 
L 204.844 293.324321 
L 205.831595 294.081314 
L 206.787332 292.622697 
L 207.774927 294.181284 
L 208.762521 292.963685 
L 209.718258 294.627392 
L 210.705853 294.611337 
L 211.66159 293.908295 
L 212.649185 293.908382 
L 213.63678 292.820519 
L 215.516396 293.599952 
L 216.472133 295.286027 
L 217.459727 293.982625 
L 218.415464 294.237769 
L 219.403059 293.087826 
L 220.390654 293.681164 
L 221.346391 293.263271 
L 222.333986 294.307428 
L 223.289723 294.411148 
L 224.277317 293.852151 
L 225.264912 294.11834 
L 226.156933 295.061839 
L 227.144528 295.719891 
L 228.100265 292.602176 
L 230.043597 293.985848 
L 231.031192 293.953709 
L 232.018786 295.353698 
L 232.974523 293.259525 
L 233.962118 293.439151 
L 235.90545 294.597779 
L 236.893045 293.583481 
L 237.816924 295.609008 
L 238.804519 292.061283 
L 239.760256 293.92557 
L 240.74785 295.441395 
L 241.703587 294.006267 
L 242.691182 293.523886 
L 243.678777 293.391955 
L 244.634514 292.681134 
L 245.622109 293.147942 
L 246.577846 294.11514 
L 247.56544 293.758446 
L 248.553035 292.913229 
L 249.445056 293.127423 
L 250.432651 293.6556 
L 251.388388 292.665684 
L 252.375983 292.912965 
L 253.33172 293.53855 
L 254.319315 292.805375 
L 255.30691 293.592456 
L 256.262646 294.596767 
L 257.250241 294.383441 
L 258.205978 295.580549 
L 259.193573 294.835914 
L 260.181168 292.668158 
L 261.073189 292.936894 
L 262.060784 294.030521 
L 263.016521 294.187726 
L 264.004116 294.934297 
L 264.959852 294.099775 
L 265.947447 294.364068 
L 266.935042 294.441078 
L 267.890779 294.241029 
L 268.878374 294.387931 
L 269.834111 293.360012 
L 270.821706 293.142966 
L 271.8093 294.43547 
L 272.701322 294.551244 
L 273.688916 294.36428 
L 274.644653 293.686732 
L 275.632248 293.563464 
L 276.587985 294.673449 
L 277.57558 294.867368 
L 278.563175 293.571339 
L 279.518912 294.110813 
L 280.506506 294.31854 
L 281.462243 293.13114 
L 282.449838 294.131265 
L 283.437433 293.54516 
L 284.361312 293.846675 
L 285.348907 293.561262 
L 286.304644 295.703621 
L 287.292239 294.715519 
L 288.247975 293.323262 
L 289.23557 295.27593 
L 290.223165 294.644304 
L 291.178902 294.694125 
L 292.166497 293.412436 
L 293.122234 293.139548 
L 294.109829 293.562657 
L 295.097423 295.268415 
L 295.989445 291.386556 
L 296.977039 293.414184 
L 297.932776 293.203554 
L 298.920371 293.854007 
L 299.876108 294.148874 
L 300.863703 294.676041 
L 301.851298 293.102869 
L 302.807035 293.316545 
L 304.750366 294.083909 
L 305.737961 292.874267 
L 306.725556 294.943551 
L 307.617577 292.974716 
L 308.605172 294.076541 
L 309.560909 294.431087 
L 310.548504 292.172955 
L 311.504241 294.200555 
L 312.491835 293.743192 
L 313.47943 295.009846 
L 314.435167 293.657842 
L 315.422762 293.475676 
L 316.378499 294.029171 
L 317.366094 293.499646 
L 318.353689 294.038054 
L 319.24571 292.874912 
L 320.233305 295.147643 
L 321.189041 294.475227 
L 322.176636 292.600893 
L 323.132373 294.657017 
L 324.119968 293.279102 
L 325.107563 293.88255 
L 326.0633 293.102235 
L 327.050895 293.991164 
L 328.006632 293.16653 
L 328.994226 293.740917 
L 329.981821 294.172902 
L 330.9057 292.821061 
L 331.893295 293.786538 
L 332.849032 293.625949 
L 333.836627 293.123989 
L 334.792364 294.771144 
L 335.779958 293.333234 
L 336.767553 292.747884 
L 337.72329 293.897978 
L 338.710885 293.867272 
L 339.666622 294.457198 
L 340.654217 294.307266 
L 341.641812 292.055331 
L 342.533833 294.238855 
L 343.521428 293.739052 
L 344.477165 293.751696 
L 345.464759 294.516119 
L 346.420496 294.283417 
L 347.408091 294.935046 
L 348.395686 293.878449 
L 349.351423 293.73659 
L 350.339018 292.980473 
L 351.294755 293.371111 
L 352.282349 293.941087 
L 353.269944 293.603505 
L 354.161965 294.709508 
L 355.14956 293.412141 
L 356.105297 292.808587 
L 357.092892 295.152357 
L 358.048629 293.692013 
L 359.036224 294.120776 
L 360.023818 294.714766 
L 360.979555 294.140175 
L 361.96715 294.617312 
L 362.922887 293.900195 
L 363.910482 294.682147 
L 364.898077 293.281893 
L 365.790098 295.507797 
L 366.777693 291.882947 
L 367.73343 292.88617 
L 368.721024 293.507357 
L 369.676761 293.29834 
L 370.664356 292.87788 
L 371.651951 294.522417 
L 372.607688 293.941173 
L 374.55102 293.415037 
L 375.538615 293.598498 
L 376.526209 294.305262 
L 377.450088 294.639381 
L 378.437683 293.056035 
L 379.39342 294.211553 
L 380.381015 294.267502 
L 381.336752 293.491254 
L 382.324347 293.778971 
L 383.311941 294.771638 
L 384.267678 293.587311 
L 386.21101 292.746945 
L 387.198605 294.769291 
L 388.1862 294.066781 
L 389.078221 292.301847 
L 390.065816 295.326645 
L 391.021553 294.235578 
L 392.009148 294.188517 
L 392.964884 294.692669 
L 393.952479 293.212706 
L 394.940074 293.368484 
L 395.895811 294.4144 
L 396.883406 293.838864 
L 397.839143 293.993639 
L 398.826738 294.418664 
L 399.814332 294.577576 
L 400.706354 294.876619 
L 401.693948 293.550528 
L 402.649685 293.682533 
L 403.63728 293.936147 
L 404.593017 294.50078 
L 405.580612 294.618158 
L 406.568207 291.058701 
L 407.523944 295.004138 
L 408.511538 294.207387 
L 409.467275 294.445971 
L 410.45487 292.821374 
L 411.442465 295.293641 
L 412.334486 294.789199 
L 413.322081 293.523282 
L 414.277818 293.532258 
L 415.265413 293.944617 
L 416.22115 293.360199 
L 417.208744 294.024217 
L 418.196339 293.958015 
L 419.152076 293.384216 
L 420.139671 293.77548 
L 421.095408 294.391006 
L 422.083003 293.13117 
L 423.070598 292.242262 
L 423.994477 293.796242 
L 424.982071 294.503665 
L 425.937808 293.883901 
L 426.925403 293.557377 
L 427.88114 292.48041 
L 428.868735 294.262992 
L 429.85633 294.135301 
L 430.812067 292.360406 
L 431.799661 294.117732 
L 432.755398 294.180183 
L 433.742993 292.70057 
L 434.730588 294.353508 
L 435.622609 294.584223 
L 436.610204 293.284485 
L 437.565941 294.744342 
L 438.553536 294.037714 
L 439.509273 293.818168 
L 441.484462 294.699357 
L 442.440199 293.586699 
L 443.427794 293.968822 
L 444.383531 293.757578 
L 445.371126 294.449158 
L 446.358721 292.697721 
L 447.250742 293.981884 
L 448.238337 296.031962 
L 449.194073 293.394342 
L 450.181668 294.974126 
L 451.137405 294.76072 
L 452.125 293.466705 
L 453.112595 294.251463 
L 454.068332 293.746336 
L 455.055927 293.425376 
L 456.011663 293.945303 
L 456.999258 295.646332 
L 457.986853 294.315576 
L 458.878874 292.184813 
L 459.866469 293.025584 
L 460.822206 294.234239 
L 462.765538 295.610411 
L 463.753133 295.195475 
L 464.740727 294.487116 
L 465.696464 294.601676 
L 466.684059 293.971577 
L 467.639796 294.139498 
L 468.627391 293.801005 
L 469.614986 294.17446 
L 470.538865 294.735584 
L 471.52646 294.298903 
L 472.482196 294.640654 
L 473.469791 293.062417 
L 474.425528 295.779413 
L 475.413123 294.922324 
L 476.400718 295.353916 
L 477.356455 294.177764 
L 478.34405 295.231519 
L 479.299787 294.844426 
L 480.287381 293.364426 
L 481.274976 295.629397 
L 482.166997 294.388583 
L 483.154592 295.60956 
L 484.110329 294.049505 
L 485.097924 294.367238 
L 486.053661 295.541556 
L 487.041256 293.703087 
L 488.02885 294.034203 
L 488.984587 294.818532 
L 489.972182 294.577303 
L 490.927919 294.001032 
L 491.915514 293.784182 
L 492.903109 294.408351 
L 494.782725 294.052647 
L 495.738462 294.912888 
L 496.726056 295.145865 
L 497.681793 293.209808 
L 499.656983 294.257521 
L 501.600315 293.708542 
L 502.556052 293.841683 
L 503.543646 294.813784 
L 504.531241 293.625389 
L 505.423262 294.172578 
L 506.410857 293.341129 
L 507.366594 294.510145 
L 509.309926 293.220884 
L 510.297521 295.14172 
L 511.285116 292.610805 
L 512.240852 294.649426 
L 513.228447 293.885394 
L 514.184184 294.42654 
L 516.159374 292.830465 
L 517.083253 293.95631 
L 518.070848 296.104978 
L 520.014179 292.970246 
L 520.969916 292.908377 
L 522.945106 294.855728 
L 523.900843 294.505838 
L 525.844175 294.140621 
L 526.83177 294.979773 
L 527.819364 294.187752 
L 528.711385 295.577646 
L 529.69898 292.574858 
L 530.654717 294.316392 
L 531.642312 295.704802 
L 532.598049 293.803736 
L 533.585644 293.862768 
L 534.573239 295.25481 
L 535.528976 293.378832 
L 536.51657 293.178687 
L 537.472307 292.601156 
L 538.459902 294.299758 
L 539.447497 294.777362 
L 540.339518 293.125943 
L 542.28285 292.967164 
L 543.270445 293.176933 
L 544.226182 292.820131 
L 545.213776 292.857661 
L 546.201371 294.063682 
L 547.157108 293.289516 
L 548.144703 294.327764 
L 549.10044 293.489404 
L 551.075629 293.518104 
L 551.967651 294.488156 
L 552.955245 293.989961 
L 553.910982 295.197574 
L 554.898577 294.333806 
L 555.854314 292.664651 
L 556.841909 294.827525 
L 557.829504 295.008545 
L 558.785241 293.484377 
L 559.772835 293.899294 
L 560.728572 294.493076 
L 561.716167 293.670508 
L 562.703762 295.47414 
L 563.627641 294.014294 
L 564.615236 294.307888 
L 565.570973 295.844265 
L 566.558568 292.817797 
L 567.514305 295.459779 
L 569.489494 291.962606 
L 570.445231 294.453568 
L 571.432826 294.254592 
L 572.388563 294.662999 
L 573.376158 294.615995 
L 574.363753 293.69811 
L 575.255774 293.819628 
L 576.243368 295.061586 
L 577.199105 293.624522 
L 579.142437 295.329851 
L 580.130032 294.015092 
L 581.117627 293.451438 
L 582.073364 294.131677 
L 583.060959 294.264649 
L 584.016695 294.11919 
L 585.00429 293.562006 
L 585.991885 294.102453 
L 586.883906 294.101903 
L 587.871501 294.88685 
L 588.827238 292.991334 
L 589.814833 293.35946 
L 590.77057 293.984041 
L 591.758165 294.370002 
L 592.745759 292.970528 
L 593.701496 294.846928 
L 594.689091 293.382601 
L 595.644828 293.471861 
L 596.632423 293.87163 
L 597.620018 293.872566 
L 598.512039 294.164836 
L 599.499634 293.461385 
L 600.455371 292.56314 
L 601.442965 293.325325 
L 602.398702 293.78995 
L 603.386297 294.503991 
L 604.373892 293.498634 
L 605.329629 294.105686 
L 606.317224 293.689797 
L 607.272961 294.128477 
L 608.260555 294.231737 
L 609.24815 293.559226 
L 610.172029 293.464337 
L 611.159624 292.781031 
L 612.115361 294.29179 
L 613.102956 295.456937 
L 614.058693 296.012409 
L 615.046288 292.900638 
L 616.033882 294.733051 
L 616.989619 293.947557 
L 617.977214 293.485298 
L 618.932951 294.156074 
L 619.920546 294.4383 
L 620.908141 292.853457 
L 621.800162 293.350398 
L 622.787757 293.066245 
L 623.743494 294.582022 
L 624.731088 293.423674 
L 625.686825 293.002497 
L 626.67442 293.708146 
L 627.662015 295.370842 
L 628.617752 293.717646 
L 629.605347 294.326755 
L 630.561084 293.129454 
L 631.548678 293.053037 
L 632.536273 293.939242 
L 633.428294 295.174438 
L 634.415889 292.716221 
L 635.371626 293.396686 
L 636.359221 295.03746 
L 637.314958 293.842532 
L 638.302553 294.190889 
L 640.245884 293.540066 
L 641.233479 295.107115 
L 642.189216 293.863226 
L 643.176811 293.925418 
L 644.164406 293.808821 
L 645.056427 294.306221 
L 646.044022 293.11091 
L 646.999759 294.517802 
L 647.987354 293.803226 
L 648.94309 293.744471 
L 649.930685 295.283631 
L 650.91828 292.76517 
L 651.874017 293.700217 
L 652.861612 294.030298 
L 653.817349 294.198478 
L 654.804944 292.787508 
L 655.792538 295.304566 
L 657.704012 296.153078 
L 658.659749 291.744194 
L 659.647344 293.916713 
L 660.603081 293.529965 
L 661.590676 294.353975 
L 662.578271 292.708142 
L 663.534008 294.64502 
L 664.521602 294.544164 
L 665.477339 294.620379 
L 666.464934 293.872825 
L 667.452529 294.644734 
L 668.34455 292.363658 
L 669.332145 295.677871 
L 670.287882 294.575805 
L 672.231214 293.972176 
L 673.218808 293.429888 
L 674.206403 294.150006 
L 675.16214 295.20051 
L 676.149735 293.648858 
L 677.105472 294.256938 
L 678.093067 294.356805 
L 679.080661 292.00247 
L 679.972683 292.938885 
L 681.916014 294.240719 
L 682.903609 294.421237 
L 683.859346 295.25202 
L 684.846941 293.618174 
L 685.834536 294.576049 
L 686.790273 293.074249 
L 687.777867 293.502641 
L 688.733604 294.771804 
L 689.721199 293.738445 
L 690.708794 294.705809 
L 691.600815 294.612593 
L 692.58841 295.639504 
L 693.544147 293.758814 
L 695.487479 292.979155 
L 696.475073 294.68616 
L 697.462668 293.586041 
L 698.418405 294.219783 
L 699.406 294.450691 
L 700.361737 293.603687 
L 701.349332 294.236144 
L 702.336927 294.488736 
L 703.260806 294.996299 
L 704.2484 292.490666 
L 705.204137 294.052954 
L 706.191732 295.084309 
L 707.147469 293.814344 
L 708.135064 293.608515 
L 710.078396 294.3173 
L 711.065991 292.726784 
L 712.021727 293.680703 
L 713.009322 294.31139 
L 713.996917 292.849542 
L 714.888938 293.919975 
L 715.876533 294.520975 
L 716.83227 292.326332 
L 717.819865 294.6214 
L 718.775602 293.732276 
L 719.763197 293.776493 
L 720.750791 294.953034 
L 721.706528 293.752925 
L 722.694123 293.99696 
L 723.64986 293.30943 
L 724.637455 294.483782 
L 725.62505 295.863409 
L 726.517071 292.095821 
L 727.504666 292.408001 
L 728.460403 294.660063 
L 729.447997 293.161722 
L 730.403734 295.553402 
L 731.391329 294.410373 
L 732.378924 294.733824 
L 733.334661 292.778926 
L 734.322256 294.459709 
L 735.277993 293.681551 
L 736.265587 294.1485 
L 737.253182 295.085936 
L 738.145203 293.726118 
L 739.132798 293.124228 
L 740.088535 293.861022 
L 741.07613 294.867261 
L 742.031867 294.035955 
L 743.019462 294.665098 
L 744.962793 292.830221 
L 745.950388 292.875925 
L 746.906125 293.07832 
L 747.89372 294.894315 
L 748.881315 291.761223 
L 749.805194 293.914373 
L 750.792789 291.003843 
L 751.748526 294.001535 
L 752.73612 293.818935 
L 753.691857 295.488168 
L 754.679452 294.103359 
L 755.667047 293.166635 
L 756.622784 293.172628 
L 757.610379 292.509656 
L 758.566116 295.169889 
L 759.55371 292.303376 
L 760.541305 294.4974 
L 761.433326 294.375747 
L 764.364253 293.434744 
L 765.31999 293.440805 
L 766.307585 293.216903 
L 767.29518 294.564054 
L 768.250916 294.582024 
L 769.238511 294.438936 
L 770.194248 293.414194 
L 771.181843 293.759401 
L 772.169438 294.88117 
L 773.061459 293.910127 
L 774.049054 296.423416 
L 775.004791 293.776488 
L 775.992386 292.782659 
L 776.948122 294.284544 
L 777.935717 293.165429 
L 778.923312 293.733598 
L 779.879049 293.807725 
L 780.866644 292.956391 
L 781.822381 294.636387 
L 782.809976 292.789237 
L 783.79757 292.635379 
L 784.689592 295.464959 
L 785.677186 294.796971 
L 786.632923 292.528964 
L 787.620518 293.346543 
L 788.576255 294.431491 
L 789.56385 293.446873 
L 790.551445 293.475631 
L 791.507182 294.863601 
L 793.450513 293.596234 
L 794.438108 293.168195 
L 795.425703 293.486514 
L 796.349582 294.729461 
L 797.337177 293.339582 
L 798.292914 293.823236 
L 800.236245 293.779088 
L 801.22384 293.616059 
L 802.211435 293.21855 
L 803.167172 294.445295 
L 804.154767 294.426553 
L 806.098099 294.697855 
L 807.085693 292.841546 
L 807.977715 292.873641 
L 808.965309 293.857311 
L 809.921046 296.138623 
L 810.908641 293.16355 
L 811.864378 293.633593 
L 812.851973 295.504563 
L 813.839568 293.840294 
L 814.795305 292.7324 
L 815.782899 295.349318 
L 816.738636 293.478883 
L 816.738636 293.478883 
" clip-path="url(#p92d52736c6)" style="fill: none; stroke: #1f77b4; stroke-width: 1.5; stroke-linecap: square"/>
   </g>
   <g id="patch_3">
    <path d="M 51.05 318.04 
L 51.05 25.44 
" style="fill: none; stroke: #000000; stroke-width: 0.8; stroke-linejoin: miter; stroke-linecap: square"/>
   </g>
   <g id="patch_4">
    <path d="M 853.2 318.04 
L 853.2 25.44 
" style="fill: none; stroke: #000000; stroke-width: 0.8; stroke-linejoin: miter; stroke-linecap: square"/>
   </g>
   <g id="patch_5">
    <path d="M 51.05 318.04 
L 853.2 318.04 
" style="fill: none; stroke: #000000; stroke-width: 0.8; stroke-linejoin: miter; stroke-linecap: square"/>
   </g>
   <g id="patch_6">
    <path d="M 51.05 25.44 
L 853.2 25.44 
" style="fill: none; stroke: #000000; stroke-width: 0.8; stroke-linejoin: miter; stroke-linecap: square"/>
   </g>
   <g id="text_16">
    <!-- SARIMA(2,1,1)(1,1,1,12): full_data Residuals Over Time -->
    <g transform="translate(286.450938 19.44) scale(0.12 -0.12)">
     <defs>
      <path id="DejaVuSans-53" d="M 3425 4513 
L 3425 3897 
Q 3066 4069 2747 4153 
Q 2428 4238 2131 4238 
Q 1616 4238 1336 4038 
Q 1056 3838 1056 3469 
Q 1056 3159 1242 3001 
Q 1428 2844 1947 2747 
L 2328 2669 
Q 3034 2534 3370 2195 
Q 3706 1856 3706 1288 
Q 3706 609 3251 259 
Q 2797 -91 1919 -91 
Q 1588 -91 1214 -16 
Q 841 59 441 206 
L 441 856 
Q 825 641 1194 531 
Q 1563 422 1919 422 
Q 2459 422 2753 634 
Q 3047 847 3047 1241 
Q 3047 1584 2836 1778 
Q 2625 1972 2144 2069 
L 1759 2144 
Q 1053 2284 737 2584 
Q 422 2884 422 3419 
Q 422 4038 858 4394 
Q 1294 4750 2059 4750 
Q 2388 4750 2728 4690 
Q 3069 4631 3425 4513 
z
" transform="scale(0.015625)"/>
      <path id="DejaVuSans-41" d="M 2188 4044 
L 1331 1722 
L 3047 1722 
L 2188 4044 
z
M 1831 4666 
L 2547 4666 
L 4325 0 
L 3669 0 
L 3244 1197 
L 1141 1197 
L 716 0 
L 50 0 
L 1831 4666 
z
" transform="scale(0.015625)"/>
      <path id="DejaVuSans-49" d="M 628 4666 
L 1259 4666 
L 1259 0 
L 628 0 
L 628 4666 
z
" transform="scale(0.015625)"/>
      <path id="DejaVuSans-4d" d="M 628 4666 
L 1569 4666 
L 2759 1491 
L 3956 4666 
L 4897 4666 
L 4897 0 
L 4281 0 
L 4281 4097 
L 3078 897 
L 2444 897 
L 1241 4097 
L 1241 0 
L 628 0 
L 628 4666 
z
" transform="scale(0.015625)"/>
      <path id="DejaVuSans-28" d="M 1984 4856 
Q 1566 4138 1362 3434 
Q 1159 2731 1159 2009 
Q 1159 1288 1364 580 
Q 1569 -128 1984 -844 
L 1484 -844 
Q 1016 -109 783 600 
Q 550 1309 550 2009 
Q 550 2706 781 3412 
Q 1013 4119 1484 4856 
L 1984 4856 
z
" transform="scale(0.015625)"/>
      <path id="DejaVuSans-2c" d="M 750 794 
L 1409 794 
L 1409 256 
L 897 -744 
L 494 -744 
L 750 256 
L 750 794 
z
" transform="scale(0.015625)"/>
      <path id="DejaVuSans-29" d="M 513 4856 
L 1013 4856 
Q 1481 4119 1714 3412 
Q 1947 2706 1947 2009 
Q 1947 1309 1714 600 
Q 1481 -109 1013 -844 
L 513 -844 
Q 928 -128 1133 580 
Q 1338 1288 1338 2009 
Q 1338 2731 1133 3434 
Q 928 4138 513 4856 
z
" transform="scale(0.015625)"/>
      <path id="DejaVuSans-3a" d="M 750 794 
L 1409 794 
L 1409 0 
L 750 0 
L 750 794 
z
M 750 3309 
L 1409 3309 
L 1409 2516 
L 750 2516 
L 750 3309 
z
" transform="scale(0.015625)"/>
      <path id="DejaVuSans-66" d="M 2375 4863 
L 2375 4384 
L 1825 4384 
Q 1516 4384 1395 4259 
Q 1275 4134 1275 3809 
L 1275 3500 
L 2222 3500 
L 2222 3053 
L 1275 3053 
L 1275 0 
L 697 0 
L 697 3053 
L 147 3053 
L 147 3500 
L 697 3500 
L 697 3744 
Q 697 4328 969 4595 
Q 1241 4863 1831 4863 
L 2375 4863 
z
" transform="scale(0.015625)"/>
      <path id="DejaVuSans-5f" d="M 3263 -1063 
L 3263 -1509 
L -63 -1509 
L -63 -1063 
L 3263 -1063 
z
" transform="scale(0.015625)"/>
      <path id="DejaVuSans-4f" d="M 2522 4238 
Q 1834 4238 1429 3725 
Q 1025 3213 1025 2328 
Q 1025 1447 1429 934 
Q 1834 422 2522 422 
Q 3209 422 3611 934 
Q 4013 1447 4013 2328 
Q 4013 3213 3611 3725 
Q 3209 4238 2522 4238 
z
M 2522 4750 
Q 3503 4750 4090 4092 
Q 4678 3434 4678 2328 
Q 4678 1225 4090 567 
Q 3503 -91 2522 -91 
Q 1538 -91 948 565 
Q 359 1222 359 2328 
Q 359 3434 948 4092 
Q 1538 4750 2522 4750 
z
" transform="scale(0.015625)"/>
      <path id="DejaVuSans-76" d="M 191 3500 
L 800 3500 
L 1894 563 
L 2988 3500 
L 3597 3500 
L 2284 0 
L 1503 0 
L 191 3500 
z
" transform="scale(0.015625)"/>
      <path id="DejaVuSans-72" d="M 2631 2963 
Q 2534 3019 2420 3045 
Q 2306 3072 2169 3072 
Q 1681 3072 1420 2755 
Q 1159 2438 1159 1844 
L 1159 0 
L 581 0 
L 581 3500 
L 1159 3500 
L 1159 2956 
Q 1341 3275 1631 3429 
Q 1922 3584 2338 3584 
Q 2397 3584 2469 3576 
Q 2541 3569 2628 3553 
L 2631 2963 
z
" transform="scale(0.015625)"/>
      <path id="DejaVuSans-54" d="M -19 4666 
L 3928 4666 
L 3928 4134 
L 2272 4134 
L 2272 0 
L 1638 0 
L 1638 4134 
L -19 4134 
L -19 4666 
z
" transform="scale(0.015625)"/>
     </defs>
     <use xlink:href="#DejaVuSans-53"/>
     <use xlink:href="#DejaVuSans-41" transform="translate(65.351562 0)"/>
     <use xlink:href="#DejaVuSans-52" transform="translate(133.759766 0)"/>
     <use xlink:href="#DejaVuSans-49" transform="translate(203.242188 0)"/>
     <use xlink:href="#DejaVuSans-4d" transform="translate(232.734375 0)"/>
     <use xlink:href="#DejaVuSans-41" transform="translate(319.013672 0)"/>
     <use xlink:href="#DejaVuSans-28" transform="translate(387.421875 0)"/>
     <use xlink:href="#DejaVuSans-32" transform="translate(426.435547 0)"/>
     <use xlink:href="#DejaVuSans-2c" transform="translate(490.058594 0)"/>
     <use xlink:href="#DejaVuSans-31" transform="translate(521.845703 0)"/>
     <use xlink:href="#DejaVuSans-2c" transform="translate(585.46875 0)"/>
     <use xlink:href="#DejaVuSans-31" transform="translate(617.255859 0)"/>
     <use xlink:href="#DejaVuSans-29" transform="translate(680.878906 0)"/>
     <use xlink:href="#DejaVuSans-28" transform="translate(719.892578 0)"/>
     <use xlink:href="#DejaVuSans-31" transform="translate(758.90625 0)"/>
     <use xlink:href="#DejaVuSans-2c" transform="translate(822.529297 0)"/>
     <use xlink:href="#DejaVuSans-31" transform="translate(854.316406 0)"/>
     <use xlink:href="#DejaVuSans-2c" transform="translate(917.939453 0)"/>
     <use xlink:href="#DejaVuSans-31" transform="translate(949.726562 0)"/>
     <use xlink:href="#DejaVuSans-2c" transform="translate(1013.349609 0)"/>
     <use xlink:href="#DejaVuSans-31" transform="translate(1045.136719 0)"/>
     <use xlink:href="#DejaVuSans-32" transform="translate(1108.759766 0)"/>
     <use xlink:href="#DejaVuSans-29" transform="translate(1172.382812 0)"/>
     <use xlink:href="#DejaVuSans-3a" transform="translate(1211.396484 0)"/>
     <use xlink:href="#DejaVuSans-20" transform="translate(1245.087891 0)"/>
     <use xlink:href="#DejaVuSans-66" transform="translate(1276.875 0)"/>
     <use xlink:href="#DejaVuSans-75" transform="translate(1312.080078 0)"/>
     <use xlink:href="#DejaVuSans-6c" transform="translate(1375.458984 0)"/>
     <use xlink:href="#DejaVuSans-6c" transform="translate(1403.242188 0)"/>
     <use xlink:href="#DejaVuSans-5f" transform="translate(1431.025391 0)"/>
     <use xlink:href="#DejaVuSans-64" transform="translate(1481.025391 0)"/>
     <use xlink:href="#DejaVuSans-61" transform="translate(1544.501953 0)"/>
     <use xlink:href="#DejaVuSans-74" transform="translate(1605.78125 0)"/>
     <use xlink:href="#DejaVuSans-61" transform="translate(1644.990234 0)"/>
     <use xlink:href="#DejaVuSans-20" transform="translate(1706.269531 0)"/>
     <use xlink:href="#DejaVuSans-52" transform="translate(1738.056641 0)"/>
     <use xlink:href="#DejaVuSans-65" transform="translate(1803.039062 0)"/>
     <use xlink:href="#DejaVuSans-73" transform="translate(1864.5625 0)"/>
     <use xlink:href="#DejaVuSans-69" transform="translate(1916.662109 0)"/>
     <use xlink:href="#DejaVuSans-64" transform="translate(1944.445312 0)"/>
     <use xlink:href="#DejaVuSans-75" transform="translate(2007.921875 0)"/>
     <use xlink:href="#DejaVuSans-61" transform="translate(2071.300781 0)"/>
     <use xlink:href="#DejaVuSans-6c" transform="translate(2132.580078 0)"/>
     <use xlink:href="#DejaVuSans-73" transform="translate(2160.363281 0)"/>
     <use xlink:href="#DejaVuSans-20" transform="translate(2212.462891 0)"/>
     <use xlink:href="#DejaVuSans-4f" transform="translate(2244.25 0)"/>
     <use xlink:href="#DejaVuSans-76" transform="translate(2322.960938 0)"/>
     <use xlink:href="#DejaVuSans-65" transform="translate(2382.140625 0)"/>
     <use xlink:href="#DejaVuSans-72" transform="translate(2443.664062 0)"/>
     <use xlink:href="#DejaVuSans-20" transform="translate(2484.777344 0)"/>
     <use xlink:href="#DejaVuSans-54" transform="translate(2516.564453 0)"/>
     <use xlink:href="#DejaVuSans-69" transform="translate(2574.523438 0)"/>
     <use xlink:href="#DejaVuSans-6d" transform="translate(2602.306641 0)"/>
     <use xlink:href="#DejaVuSans-65" transform="translate(2699.71875 0)"/>
    </g>
   </g>
   <g id="legend_1">
    <g id="patch_7">
     <path d="M 748.395313 62.79625 
L 846.2 62.79625 
Q 848.2 62.79625 848.2 60.79625 
L 848.2 32.44 
Q 848.2 30.44 846.2 30.44 
L 748.395313 30.44 
Q 746.395313 30.44 746.395313 32.44 
L 746.395313 60.79625 
Q 746.395313 62.79625 748.395313 62.79625 
z
" style="fill: #ffffff; opacity: 0.8; stroke: #cccccc; stroke-linejoin: miter"/>
    </g>
    <g id="line2d_29">
     <path d="M 750.395313 38.538437 
L 760.395313 38.538437 
L 770.395313 38.538437 
" style="fill: none; stroke-dasharray: 5.55,2.4; stroke-dashoffset: 0; stroke: #808080; stroke-width: 1.5"/>
    </g>
    <g id="text_17">
     <!-- Zero residual -->
     <g transform="translate(778.395313 42.038437) scale(0.1 -0.1)">
      <defs>
       <path id="DejaVuSans-5a" d="M 359 4666 
L 4025 4666 
L 4025 4184 
L 1075 531 
L 4097 531 
L 4097 0 
L 288 0 
L 288 481 
L 3238 4134 
L 359 4134 
L 359 4666 
z
" transform="scale(0.015625)"/>
       <path id="DejaVuSans-6f" d="M 1959 3097 
Q 1497 3097 1228 2736 
Q 959 2375 959 1747 
Q 959 1119 1226 758 
Q 1494 397 1959 397 
Q 2419 397 2687 759 
Q 2956 1122 2956 1747 
Q 2956 2369 2687 2733 
Q 2419 3097 1959 3097 
z
M 1959 3584 
Q 2709 3584 3137 3096 
Q 3566 2609 3566 1747 
Q 3566 888 3137 398 
Q 2709 -91 1959 -91 
Q 1206 -91 779 398 
Q 353 888 353 1747 
Q 353 2609 779 3096 
Q 1206 3584 1959 3584 
z
" transform="scale(0.015625)"/>
      </defs>
      <use xlink:href="#DejaVuSans-5a"/>
      <use xlink:href="#DejaVuSans-65" transform="translate(68.505859 0)"/>
      <use xlink:href="#DejaVuSans-72" transform="translate(130.029297 0)"/>
      <use xlink:href="#DejaVuSans-6f" transform="translate(168.892578 0)"/>
      <use xlink:href="#DejaVuSans-20" transform="translate(230.074219 0)"/>
      <use xlink:href="#DejaVuSans-72" transform="translate(261.861328 0)"/>
      <use xlink:href="#DejaVuSans-65" transform="translate(300.724609 0)"/>
      <use xlink:href="#DejaVuSans-73" transform="translate(362.248047 0)"/>
      <use xlink:href="#DejaVuSans-69" transform="translate(414.347656 0)"/>
      <use xlink:href="#DejaVuSans-64" transform="translate(442.130859 0)"/>
      <use xlink:href="#DejaVuSans-75" transform="translate(505.607422 0)"/>
      <use xlink:href="#DejaVuSans-61" transform="translate(568.986328 0)"/>
      <use xlink:href="#DejaVuSans-6c" transform="translate(630.265625 0)"/>
     </g>
    </g>
    <g id="line2d_30">
     <path d="M 750.395313 53.216563 
L 760.395313 53.216563 
L 770.395313 53.216563 
" style="fill: none; stroke: #1f77b4; stroke-width: 1.5; stroke-linecap: square"/>
    </g>
    <g id="text_18">
     <!-- Residuals -->
     <g transform="translate(778.395313 56.716563) scale(0.1 -0.1)">
      <use xlink:href="#DejaVuSans-52"/>
      <use xlink:href="#DejaVuSans-65" transform="translate(64.982422 0)"/>
      <use xlink:href="#DejaVuSans-73" transform="translate(126.505859 0)"/>
      <use xlink:href="#DejaVuSans-69" transform="translate(178.605469 0)"/>
      <use xlink:href="#DejaVuSans-64" transform="translate(206.388672 0)"/>
      <use xlink:href="#DejaVuSans-75" transform="translate(269.865234 0)"/>
      <use xlink:href="#DejaVuSans-61" transform="translate(333.244141 0)"/>
      <use xlink:href="#DejaVuSans-6c" transform="translate(394.523438 0)"/>
      <use xlink:href="#DejaVuSans-73" transform="translate(422.306641 0)"/>
     </g>
    </g>
   </g>
  </g>
 </g>
 <defs>
  <clipPath id="p92d52736c6">
   <rect x="51.05" y="25.44" width="802.15" height="292.6"/>
  </clipPath>
 </defs>
</svg>
