<?xml version="1.0" encoding="utf-8" standalone="no"?>
<!DOCTYPE svg PUBLIC "-//W3C//DTD SVG 1.1//EN"
  "http://www.w3.org/Graphics/SVG/1.1/DTD/svg11.dtd">
<svg xmlns:xlink="http://www.w3.org/1999/xlink" width="864pt" height="432pt" viewBox="0 0 864 432" xmlns="http://www.w3.org/2000/svg" version="1.1">
 <metadata>
  <rdf:RDF xmlns:dc="http://purl.org/dc/elements/1.1/" xmlns:cc="http://creativecommons.org/ns#" xmlns:rdf="http://www.w3.org/1999/02/22-rdf-syntax-ns#">
   <cc:Work>
    <dc:type rdf:resource="http://purl.org/dc/dcmitype/StillImage"/>
    <dc:date>2026-07-08T14:23:08.968434</dc:date>
    <dc:format>image/svg+xml</dc:format>
    <dc:creator>
     <cc:Agent>
      <dc:title>Matplotlib v3.10.0, https://matplotlib.org/</dc:title>
     </cc:Agent>
    </dc:creator>
   </cc:Work>
  </rdf:RDF>
 </metadata>
 <defs>
  <style type="text/css">*{stroke-linejoin: round; stroke-linecap: butt}</style>
 </defs>
 <g id="figure_1">
  <g id="patch_1">
   <path d="M 0 432 
L 864 432 
L 864 0 
L 0 0 
z
" style="fill: #ffffff"/>
  </g>
  <g id="axes_1">
   <g id="patch_2">
    <path d="M 51.05 390.04 
L 853.2 390.04 
L 853.2 25.44 
L 51.05 25.44 
z
" style="fill: #ffffff"/>
   </g>
   <g id="PathCollection_1">
    <defs>
     <path id="mbc5f92a903" d="M 0 2.645751 
C 0.701661 2.645751 1.374679 2.366978 1.870829 1.870829 
C 2.366978 1.374679 2.645751 0.701661 2.645751 0 
C 2.645751 -0.701661 2.366978 -1.374679 1.870829 -1.870829 
C 1.374679 -2.366978 0.701661 -2.645751 0 -2.645751 
C -0.701661 -2.645751 -1.374679 -2.366978 -1.870829 -1.870829 
C -2.366978 -1.374679 -2.645751 -0.701661 -2.645751 0 
C -2.645751 0.701661 -2.366978 1.374679 -1.870829 1.870829 
C -1.374679 2.366978 -0.701661 2.645751 0 2.645751 
z
" style="stroke: #0000ff"/>
    </defs>
    <g clip-path="url(#p9556d6e66a)">
     <use xlink:href="#mbc5f92a903" x="87.511364" y="370.438861" style="fill: #0000ff; stroke: #0000ff"/>
     <use xlink:href="#mbc5f92a903" x="99.273094" y="367.398786" style="fill: #0000ff; stroke: #0000ff"/>
     <use xlink:href="#mbc5f92a903" x="111.034824" y="365.012491" style="fill: #0000ff; stroke: #0000ff"/>
     <use xlink:href="#mbc5f92a903" x="122.796554" y="362.364684" style="fill: #0000ff; stroke: #0000ff"/>
     <use xlink:href="#mbc5f92a903" x="134.558284" y="360.599479" style="fill: #0000ff; stroke: #0000ff"/>
     <use xlink:href="#mbc5f92a903" x="146.320015" y="358.540074" style="fill: #0000ff; stroke: #0000ff"/>
     <use xlink:href="#mbc5f92a903" x="158.081745" y="357.167137" style="fill: #0000ff; stroke: #0000ff"/>
     <use xlink:href="#mbc5f92a903" x="169.843475" y="352.819503" style="fill: #0000ff; stroke: #0000ff"/>
     <use xlink:href="#mbc5f92a903" x="181.605205" y="350.171696" style="fill: #0000ff; stroke: #0000ff"/>
     <use xlink:href="#mbc5f92a903" x="193.366935" y="347.327755" style="fill: #0000ff; stroke: #0000ff"/>
     <use xlink:href="#mbc5f92a903" x="205.128666" y="342.195586" style="fill: #0000ff; stroke: #0000ff"/>
     <use xlink:href="#mbc5f92a903" x="216.890396" y="338.730555" style="fill: #0000ff; stroke: #0000ff"/>
     <use xlink:href="#mbc5f92a903" x="228.652126" y="336.63846" style="fill: #0000ff; stroke: #0000ff"/>
     <use xlink:href="#mbc5f92a903" x="240.413856" y="332.911917" style="fill: #0000ff; stroke: #0000ff"/>
     <use xlink:href="#mbc5f92a903" x="252.175587" y="325.654965" style="fill: #0000ff; stroke: #0000ff"/>
     <use xlink:href="#mbc5f92a903" x="263.937317" y="323.987827" style="fill: #0000ff; stroke: #0000ff"/>
     <use xlink:href="#mbc5f92a903" x="275.699047" y="320.915063" style="fill: #0000ff; stroke: #0000ff"/>
     <use xlink:href="#mbc5f92a903" x="287.460777" y="317.973056" style="fill: #0000ff; stroke: #0000ff"/>
     <use xlink:href="#mbc5f92a903" x="299.222507" y="312.056351" style="fill: #0000ff; stroke: #0000ff"/>
     <use xlink:href="#mbc5f92a903" x="310.984238" y="306.924182" style="fill: #0000ff; stroke: #0000ff"/>
     <use xlink:href="#mbc5f92a903" x="322.745968" y="302.249658" style="fill: #0000ff; stroke: #0000ff"/>
     <use xlink:href="#mbc5f92a903" x="334.507698" y="295.973375" style="fill: #0000ff; stroke: #0000ff"/>
     <use xlink:href="#mbc5f92a903" x="346.269428" y="291.527675" style="fill: #0000ff; stroke: #0000ff"/>
     <use xlink:href="#mbc5f92a903" x="358.031158" y="287.081974" style="fill: #0000ff; stroke: #0000ff"/>
     <use xlink:href="#mbc5f92a903" x="369.792889" y="281.622915" style="fill: #0000ff; stroke: #0000ff"/>
     <use xlink:href="#mbc5f92a903" x="381.554619" y="276.000411" style="fill: #0000ff; stroke: #0000ff"/>
     <use xlink:href="#mbc5f92a903" x="393.316349" y="271.162443" style="fill: #0000ff; stroke: #0000ff"/>
     <use xlink:href="#mbc5f92a903" x="405.078079" y="267.043632" style="fill: #0000ff; stroke: #0000ff"/>
     <use xlink:href="#mbc5f92a903" x="416.839809" y="261.486506" style="fill: #0000ff; stroke: #0000ff"/>
     <use xlink:href="#mbc5f92a903" x="428.60154" y="253.70653" style="fill: #0000ff; stroke: #0000ff"/>
     <use xlink:href="#mbc5f92a903" x="440.36327" y="248.770495" style="fill: #0000ff; stroke: #0000ff"/>
     <use xlink:href="#mbc5f92a903" x="452.125" y="244.684373" style="fill: #0000ff; stroke: #0000ff"/>
     <use xlink:href="#mbc5f92a903" x="463.88673" y="240.598251" style="fill: #0000ff; stroke: #0000ff"/>
     <use xlink:href="#mbc5f92a903" x="475.64846" y="237.852377" style="fill: #0000ff; stroke: #0000ff"/>
     <use xlink:href="#mbc5f92a903" x="487.410191" y="235.662216" style="fill: #0000ff; stroke: #0000ff"/>
     <use xlink:href="#mbc5f92a903" x="499.171921" y="229.941645" style="fill: #0000ff; stroke: #0000ff"/>
     <use xlink:href="#mbc5f92a903" x="510.933651" y="223.371161" style="fill: #0000ff; stroke: #0000ff"/>
     <use xlink:href="#mbc5f92a903" x="522.695381" y="217.585213" style="fill: #0000ff; stroke: #0000ff"/>
     <use xlink:href="#mbc5f92a903" x="534.457111" y="213.85867" style="fill: #0000ff; stroke: #0000ff"/>
     <use xlink:href="#mbc5f92a903" x="546.218842" y="204.182733" style="fill: #0000ff; stroke: #0000ff"/>
     <use xlink:href="#mbc5f92a903" x="557.980572" y="198.625607" style="fill: #0000ff; stroke: #0000ff"/>
     <use xlink:href="#mbc5f92a903" x="569.742302" y="194.800997" style="fill: #0000ff; stroke: #0000ff"/>
     <use xlink:href="#mbc5f92a903" x="581.504032" y="189.538072" style="fill: #0000ff; stroke: #0000ff"/>
     <use xlink:href="#mbc5f92a903" x="593.265762" y="182.57532" style="fill: #0000ff; stroke: #0000ff"/>
     <use xlink:href="#mbc5f92a903" x="605.027493" y="174.30501" style="fill: #0000ff; stroke: #0000ff"/>
     <use xlink:href="#mbc5f92a903" x="616.789223" y="168.682506" style="fill: #0000ff; stroke: #0000ff"/>
     <use xlink:href="#mbc5f92a903" x="628.550953" y="161.22942" style="fill: #0000ff; stroke: #0000ff"/>
     <use xlink:href="#mbc5f92a903" x="640.312683" y="154.332046" style="fill: #0000ff; stroke: #0000ff"/>
     <use xlink:href="#mbc5f92a903" x="652.074413" y="148.023074" style="fill: #0000ff; stroke: #0000ff"/>
     <use xlink:href="#mbc5f92a903" x="663.836144" y="142.106369" style="fill: #0000ff; stroke: #0000ff"/>
     <use xlink:href="#mbc5f92a903" x="675.597874" y="136.189665" style="fill: #0000ff; stroke: #0000ff"/>
     <use xlink:href="#mbc5f92a903" x="687.359604" y="128.148177" style="fill: #0000ff; stroke: #0000ff"/>
     <use xlink:href="#mbc5f92a903" x="699.121334" y="122.427606" style="fill: #0000ff; stroke: #0000ff"/>
     <use xlink:href="#mbc5f92a903" x="710.883065" y="115.203343" style="fill: #0000ff; stroke: #0000ff"/>
     <use xlink:href="#mbc5f92a903" x="722.644795" y="106.442697" style="fill: #0000ff; stroke: #0000ff"/>
     <use xlink:href="#mbc5f92a903" x="734.406525" y="99.676079" style="fill: #0000ff; stroke: #0000ff"/>
     <use xlink:href="#mbc5f92a903" x="746.168255" y="92.484505" style="fill: #0000ff; stroke: #0000ff"/>
     <use xlink:href="#mbc5f92a903" x="757.929985" y="81.370253" style="fill: #0000ff; stroke: #0000ff"/>
     <use xlink:href="#mbc5f92a903" x="769.691716" y="73.688344" style="fill: #0000ff; stroke: #0000ff"/>
     <use xlink:href="#mbc5f92a903" x="781.453446" y="67.281305" style="fill: #0000ff; stroke: #0000ff"/>
     <use xlink:href="#mbc5f92a903" x="793.215176" y="57.670746" style="fill: #0000ff; stroke: #0000ff"/>
     <use xlink:href="#mbc5f92a903" x="804.976906" y="49.236991" style="fill: #0000ff; stroke: #0000ff"/>
     <use xlink:href="#mbc5f92a903" x="816.738636" y="42.012727" style="fill: #0000ff; stroke: #0000ff"/>
    </g>
   </g>
   <g id="matplotlib.axis_1">
    <g id="xtick_1">
     <g id="line2d_1">
      <path d="M 99.273094 390.04 
L 99.273094 25.44 
" clip-path="url(#p9556d6e66a)" style="fill: none; stroke: #b0b0b0; stroke-width: 0.8; stroke-linecap: square"/>
     </g>
     <g id="line2d_2">
      <defs>
       <path id="m872be9c342" d="M 0 0 
L 0 3.5 
" style="stroke: #000000; stroke-width: 0.8"/>
      </defs>
      <g>
       <use xlink:href="#m872be9c342" x="99.273094" y="390.04" style="stroke: #000000; stroke-width: 0.8"/>
      </g>
     </g>
     <g id="text_1">
      <!-- 1960 -->
      <g transform="translate(86.548094 404.638438) scale(0.1 -0.1)">
       <defs>
        <path id="DejaVuSans-31" d="M 794 531 
L 1825 531 
L 1825 4091 
L 703 3866 
L 703 4441 
L 1819 4666 
L 2450 4666 
L 2450 531 
L 3481 531 
L 3481 0 
L 794 0 
L 794 531 
z
" transform="scale(0.015625)"/>
        <path id="DejaVuSans-39" d="M 703 97 
L 703 672 
Q 941 559 1184 500 
Q 1428 441 1663 441 
Q 2288 441 2617 861 
Q 2947 1281 2994 2138 
Q 2813 1869 2534 1725 
Q 2256 1581 1919 1581 
Q 1219 1581 811 2004 
Q 403 2428 403 3163 
Q 403 3881 828 4315 
Q 1253 4750 1959 4750 
Q 2769 4750 3195 4129 
Q 3622 3509 3622 2328 
Q 3622 1225 3098 567 
Q 2575 -91 1691 -91 
Q 1453 -91 1209 -44 
Q 966 3 703 97 
z
M 1959 2075 
Q 2384 2075 2632 2365 
Q 2881 2656 2881 3163 
Q 2881 3666 2632 3958 
Q 2384 4250 1959 4250 
Q 1534 4250 1286 3958 
Q 1038 3666 1038 3163 
Q 1038 2656 1286 2365 
Q 1534 2075 1959 2075 
z
" transform="scale(0.015625)"/>
        <path id="DejaVuSans-36" d="M 2113 2584 
Q 1688 2584 1439 2293 
Q 1191 2003 1191 1497 
Q 1191 994 1439 701 
Q 1688 409 2113 409 
Q 2538 409 2786 701 
Q 3034 994 3034 1497 
Q 3034 2003 2786 2293 
Q 2538 2584 2113 2584 
z
M 3366 4563 
L 3366 3988 
Q 3128 4100 2886 4159 
Q 2644 4219 2406 4219 
Q 1781 4219 1451 3797 
Q 1122 3375 1075 2522 
Q 1259 2794 1537 2939 
Q 1816 3084 2150 3084 
Q 2853 3084 3261 2657 
Q 3669 2231 3669 1497 
Q 3669 778 3244 343 
Q 2819 -91 2113 -91 
Q 1303 -91 875 529 
Q 447 1150 447 2328 
Q 447 3434 972 4092 
Q 1497 4750 2381 4750 
Q 2619 4750 2861 4703 
Q 3103 4656 3366 4563 
z
" transform="scale(0.015625)"/>
        <path id="DejaVuSans-30" d="M 2034 4250 
Q 1547 4250 1301 3770 
Q 1056 3291 1056 2328 
Q 1056 1369 1301 889 
Q 1547 409 2034 409 
Q 2525 409 2770 889 
Q 3016 1369 3016 2328 
Q 3016 3291 2770 3770 
Q 2525 4250 2034 4250 
z
M 2034 4750 
Q 2819 4750 3233 4129 
Q 3647 3509 3647 2328 
Q 3647 1150 3233 529 
Q 2819 -91 2034 -91 
Q 1250 -91 836 529 
Q 422 1150 422 2328 
Q 422 3509 836 4129 
Q 1250 4750 2034 4750 
z
" transform="scale(0.015625)"/>
       </defs>
       <use xlink:href="#DejaVuSans-31"/>
       <use xlink:href="#DejaVuSans-39" transform="translate(63.623047 0)"/>
       <use xlink:href="#DejaVuSans-36" transform="translate(127.246094 0)"/>
       <use xlink:href="#DejaVuSans-30" transform="translate(190.869141 0)"/>
      </g>
     </g>
    </g>
    <g id="xtick_2">
     <g id="line2d_3">
      <path d="M 216.890396 390.04 
L 216.890396 25.44 
" clip-path="url(#p9556d6e66a)" style="fill: none; stroke: #b0b0b0; stroke-width: 0.8; stroke-linecap: square"/>
     </g>
     <g id="line2d_4">
      <g>
       <use xlink:href="#m872be9c342" x="216.890396" y="390.04" style="stroke: #000000; stroke-width: 0.8"/>
      </g>
     </g>
     <g id="text_2">
      <!-- 1970 -->
      <g transform="translate(204.165396 404.638438) scale(0.1 -0.1)">
       <defs>
        <path id="DejaVuSans-37" d="M 525 4666 
L 3525 4666 
L 3525 4397 
L 1831 0 
L 1172 0 
L 2766 4134 
L 525 4134 
L 525 4666 
z
" transform="scale(0.015625)"/>
       </defs>
       <use xlink:href="#DejaVuSans-31"/>
       <use xlink:href="#DejaVuSans-39" transform="translate(63.623047 0)"/>
       <use xlink:href="#DejaVuSans-37" transform="translate(127.246094 0)"/>
       <use xlink:href="#DejaVuSans-30" transform="translate(190.869141 0)"/>
      </g>
     </g>
    </g>
    <g id="xtick_3">
     <g id="line2d_5">
      <path d="M 334.507698 390.04 
L 334.507698 25.44 
" clip-path="url(#p9556d6e66a)" style="fill: none; stroke: #b0b0b0; stroke-width: 0.8; stroke-linecap: square"/>
     </g>
     <g id="line2d_6">
      <g>
       <use xlink:href="#m872be9c342" x="334.507698" y="390.04" style="stroke: #000000; stroke-width: 0.8"/>
      </g>
     </g>
     <g id="text_3">
      <!-- 1980 -->
      <g transform="translate(321.782698 404.638438) scale(0.1 -0.1)">
       <defs>
        <path id="DejaVuSans-38" d="M 2034 2216 
Q 1584 2216 1326 1975 
Q 1069 1734 1069 1313 
Q 1069 891 1326 650 
Q 1584 409 2034 409 
Q 2484 409 2743 651 
Q 3003 894 3003 1313 
Q 3003 1734 2745 1975 
Q 2488 2216 2034 2216 
z
M 1403 2484 
Q 997 2584 770 2862 
Q 544 3141 544 3541 
Q 544 4100 942 4425 
Q 1341 4750 2034 4750 
Q 2731 4750 3128 4425 
Q 3525 4100 3525 3541 
Q 3525 3141 3298 2862 
Q 3072 2584 2669 2484 
Q 3125 2378 3379 2068 
Q 3634 1759 3634 1313 
Q 3634 634 3220 271 
Q 2806 -91 2034 -91 
Q 1263 -91 848 271 
Q 434 634 434 1313 
Q 434 1759 690 2068 
Q 947 2378 1403 2484 
z
M 1172 3481 
Q 1172 3119 1398 2916 
Q 1625 2713 2034 2713 
Q 2441 2713 2670 2916 
Q 2900 3119 2900 3481 
Q 2900 3844 2670 4047 
Q 2441 4250 2034 4250 
Q 1625 4250 1398 4047 
Q 1172 3844 1172 3481 
z
" transform="scale(0.015625)"/>
       </defs>
       <use xlink:href="#DejaVuSans-31"/>
       <use xlink:href="#DejaVuSans-39" transform="translate(63.623047 0)"/>
       <use xlink:href="#DejaVuSans-38" transform="translate(127.246094 0)"/>
       <use xlink:href="#DejaVuSans-30" transform="translate(190.869141 0)"/>
      </g>
     </g>
    </g>
    <g id="xtick_4">
     <g id="line2d_7">
      <path d="M 452.125 390.04 
L 452.125 25.44 
" clip-path="url(#p9556d6e66a)" style="fill: none; stroke: #b0b0b0; stroke-width: 0.8; stroke-linecap: square"/>
     </g>
     <g id="line2d_8">
      <g>
       <use xlink:href="#m872be9c342" x="452.125" y="390.04" style="stroke: #000000; stroke-width: 0.8"/>
      </g>
     </g>
     <g id="text_4">
      <!-- 1990 -->
      <g transform="translate(439.4 404.638438) scale(0.1 -0.1)">
       <use xlink:href="#DejaVuSans-31"/>
       <use xlink:href="#DejaVuSans-39" transform="translate(63.623047 0)"/>
       <use xlink:href="#DejaVuSans-39" transform="translate(127.246094 0)"/>
       <use xlink:href="#DejaVuSans-30" transform="translate(190.869141 0)"/>
      </g>
     </g>
    </g>
    <g id="xtick_5">
     <g id="line2d_9">
      <path d="M 569.742302 390.04 
L 569.742302 25.44 
" clip-path="url(#p9556d6e66a)" style="fill: none; stroke: #b0b0b0; stroke-width: 0.8; stroke-linecap: square"/>
     </g>
     <g id="line2d_10">
      <g>
       <use xlink:href="#m872be9c342" x="569.742302" y="390.04" style="stroke: #000000; stroke-width: 0.8"/>
      </g>
     </g>
     <g id="text_5">
      <!-- 2000 -->
      <g transform="translate(557.017302 404.638438) scale(0.1 -0.1)">
       <defs>
        <path id="DejaVuSans-32" d="M 1228 531 
L 3431 531 
L 3431 0 
L 469 0 
L 469 531 
Q 828 903 1448 1529 
Q 2069 2156 2228 2338 
Q 2531 2678 2651 2914 
Q 2772 3150 2772 3378 
Q 2772 3750 2511 3984 
Q 2250 4219 1831 4219 
Q 1534 4219 1204 4116 
Q 875 4013 500 3803 
L 500 4441 
Q 881 4594 1212 4672 
Q 1544 4750 1819 4750 
Q 2544 4750 2975 4387 
Q 3406 4025 3406 3419 
Q 3406 3131 3298 2873 
Q 3191 2616 2906 2266 
Q 2828 2175 2409 1742 
Q 1991 1309 1228 531 
z
" transform="scale(0.015625)"/>
       </defs>
       <use xlink:href="#DejaVuSans-32"/>
       <use xlink:href="#DejaVuSans-30" transform="translate(63.623047 0)"/>
       <use xlink:href="#DejaVuSans-30" transform="translate(127.246094 0)"/>
       <use xlink:href="#DejaVuSans-30" transform="translate(190.869141 0)"/>
      </g>
     </g>
    </g>
    <g id="xtick_6">
     <g id="line2d_11">
      <path d="M 687.359604 390.04 
L 687.359604 25.44 
" clip-path="url(#p9556d6e66a)" style="fill: none; stroke: #b0b0b0; stroke-width: 0.8; stroke-linecap: square"/>
     </g>
     <g id="line2d_12">
      <g>
       <use xlink:href="#m872be9c342" x="687.359604" y="390.04" style="stroke: #000000; stroke-width: 0.8"/>
      </g>
     </g>
     <g id="text_6">
      <!-- 2010 -->
      <g transform="translate(674.634604 404.638438) scale(0.1 -0.1)">
       <use xlink:href="#DejaVuSans-32"/>
       <use xlink:href="#DejaVuSans-30" transform="translate(63.623047 0)"/>
       <use xlink:href="#DejaVuSans-31" transform="translate(127.246094 0)"/>
       <use xlink:href="#DejaVuSans-30" transform="translate(190.869141 0)"/>
      </g>
     </g>
    </g>
    <g id="xtick_7">
     <g id="line2d_13">
      <path d="M 804.976906 390.04 
L 804.976906 25.44 
" clip-path="url(#p9556d6e66a)" style="fill: none; stroke: #b0b0b0; stroke-width: 0.8; stroke-linecap: square"/>
     </g>
     <g id="line2d_14">
      <g>
       <use xlink:href="#m872be9c342" x="804.976906" y="390.04" style="stroke: #000000; stroke-width: 0.8"/>
      </g>
     </g>
     <g id="text_7">
      <!-- 2020 -->
      <g transform="translate(792.251906 404.638438) scale(0.1 -0.1)">
       <use xlink:href="#DejaVuSans-32"/>
       <use xlink:href="#DejaVuSans-30" transform="translate(63.623047 0)"/>
       <use xlink:href="#DejaVuSans-32" transform="translate(127.246094 0)"/>
       <use xlink:href="#DejaVuSans-30" transform="translate(190.869141 0)"/>
      </g>
     </g>
    </g>
    <g id="text_8">
     <!-- Year -->
     <g transform="translate(441.5375 418.316562) scale(0.1 -0.1)">
      <defs>
       <path id="DejaVuSans-59" d="M -13 4666 
L 666 4666 
L 1959 2747 
L 3244 4666 
L 3922 4666 
L 2272 2222 
L 2272 0 
L 1638 0 
L 1638 2222 
L -13 4666 
z
" transform="scale(0.015625)"/>
       <path id="DejaVuSans-65" d="M 3597 1894 
L 3597 1613 
L 953 1613 
Q 991 1019 1311 708 
Q 1631 397 2203 397 
Q 2534 397 2845 478 
Q 3156 559 3463 722 
L 3463 178 
Q 3153 47 2828 -22 
Q 2503 -91 2169 -91 
Q 1331 -91 842 396 
Q 353 884 353 1716 
Q 353 2575 817 3079 
Q 1281 3584 2069 3584 
Q 2775 3584 3186 3129 
Q 3597 2675 3597 1894 
z
M 3022 2063 
Q 3016 2534 2758 2815 
Q 2500 3097 2075 3097 
Q 1594 3097 1305 2825 
Q 1016 2553 972 2059 
L 3022 2063 
z
" transform="scale(0.015625)"/>
       <path id="DejaVuSans-61" d="M 2194 1759 
Q 1497 1759 1228 1600 
Q 959 1441 959 1056 
Q 959 750 1161 570 
Q 1363 391 1709 391 
Q 2188 391 2477 730 
Q 2766 1069 2766 1631 
L 2766 1759 
L 2194 1759 
z
M 3341 1997 
L 3341 0 
L 2766 0 
L 2766 531 
Q 2569 213 2275 61 
Q 1981 -91 1556 -91 
Q 1019 -91 701 211 
Q 384 513 384 1019 
Q 384 1609 779 1909 
Q 1175 2209 1959 2209 
L 2766 2209 
L 2766 2266 
Q 2766 2663 2505 2880 
Q 2244 3097 1772 3097 
Q 1472 3097 1187 3025 
Q 903 2953 641 2809 
L 641 3341 
Q 956 3463 1253 3523 
Q 1550 3584 1831 3584 
Q 2591 3584 2966 3190 
Q 3341 2797 3341 1997 
z
" transform="scale(0.015625)"/>
       <path id="DejaVuSans-72" d="M 2631 2963 
Q 2534 3019 2420 3045 
Q 2306 3072 2169 3072 
Q 1681 3072 1420 2755 
Q 1159 2438 1159 1844 
L 1159 0 
L 581 0 
L 581 3500 
L 1159 3500 
L 1159 2956 
Q 1341 3275 1631 3429 
Q 1922 3584 2338 3584 
Q 2397 3584 2469 3576 
Q 2541 3569 2628 3553 
L 2631 2963 
z
" transform="scale(0.015625)"/>
      </defs>
      <use xlink:href="#DejaVuSans-59"/>
      <use xlink:href="#DejaVuSans-65" transform="translate(47.833984 0)"/>
      <use xlink:href="#DejaVuSans-61" transform="translate(109.357422 0)"/>
      <use xlink:href="#DejaVuSans-72" transform="translate(170.636719 0)"/>
     </g>
    </g>
   </g>
   <g id="matplotlib.axis_2">
    <g id="ytick_1">
     <g id="line2d_15">
      <path d="M 51.05 357.297893 
L 853.2 357.297893 
" clip-path="url(#p9556d6e66a)" style="fill: none; stroke: #b0b0b0; stroke-width: 0.8; stroke-linecap: square"/>
     </g>
     <g id="line2d_16">
      <defs>
       <path id="mcfa773c236" d="M 0 0 
L -3.5 0 
" style="stroke: #000000; stroke-width: 0.8"/>
      </defs>
      <g>
       <use xlink:href="#mcfa773c236" x="51.05" y="357.297893" style="stroke: #000000; stroke-width: 0.8"/>
      </g>
     </g>
     <g id="text_9">
      <!-- 320 -->
      <g transform="translate(24.9625 361.097111) scale(0.1 -0.1)">
       <defs>
        <path id="DejaVuSans-33" d="M 2597 2516 
Q 3050 2419 3304 2112 
Q 3559 1806 3559 1356 
Q 3559 666 3084 287 
Q 2609 -91 1734 -91 
Q 1441 -91 1130 -33 
Q 819 25 488 141 
L 488 750 
Q 750 597 1062 519 
Q 1375 441 1716 441 
Q 2309 441 2620 675 
Q 2931 909 2931 1356 
Q 2931 1769 2642 2001 
Q 2353 2234 1838 2234 
L 1294 2234 
L 1294 2753 
L 1863 2753 
Q 2328 2753 2575 2939 
Q 2822 3125 2822 3475 
Q 2822 3834 2567 4026 
Q 2313 4219 1838 4219 
Q 1578 4219 1281 4162 
Q 984 4106 628 3988 
L 628 4550 
Q 988 4650 1302 4700 
Q 1616 4750 1894 4750 
Q 2613 4750 3031 4423 
Q 3450 4097 3450 3541 
Q 3450 3153 3228 2886 
Q 3006 2619 2597 2516 
z
" transform="scale(0.015625)"/>
       </defs>
       <use xlink:href="#DejaVuSans-33"/>
       <use xlink:href="#DejaVuSans-32" transform="translate(63.623047 0)"/>
       <use xlink:href="#DejaVuSans-30" transform="translate(127.246094 0)"/>
      </g>
     </g>
    </g>
    <g id="ytick_2">
     <g id="line2d_17">
      <path d="M 51.05 291.919942 
L 853.2 291.919942 
" clip-path="url(#p9556d6e66a)" style="fill: none; stroke: #b0b0b0; stroke-width: 0.8; stroke-linecap: square"/>
     </g>
     <g id="line2d_18">
      <g>
       <use xlink:href="#mcfa773c236" x="51.05" y="291.919942" style="stroke: #000000; stroke-width: 0.8"/>
      </g>
     </g>
     <g id="text_10">
      <!-- 340 -->
      <g transform="translate(24.9625 295.719161) scale(0.1 -0.1)">
       <defs>
        <path id="DejaVuSans-34" d="M 2419 4116 
L 825 1625 
L 2419 1625 
L 2419 4116 
z
M 2253 4666 
L 3047 4666 
L 3047 1625 
L 3713 1625 
L 3713 1100 
L 3047 1100 
L 3047 0 
L 2419 0 
L 2419 1100 
L 313 1100 
L 313 1709 
L 2253 4666 
z
" transform="scale(0.015625)"/>
       </defs>
       <use xlink:href="#DejaVuSans-33"/>
       <use xlink:href="#DejaVuSans-34" transform="translate(63.623047 0)"/>
       <use xlink:href="#DejaVuSans-30" transform="translate(127.246094 0)"/>
      </g>
     </g>
    </g>
    <g id="ytick_3">
     <g id="line2d_19">
      <path d="M 51.05 226.541992 
L 853.2 226.541992 
" clip-path="url(#p9556d6e66a)" style="fill: none; stroke: #b0b0b0; stroke-width: 0.8; stroke-linecap: square"/>
     </g>
     <g id="line2d_20">
      <g>
       <use xlink:href="#mcfa773c236" x="51.05" y="226.541992" style="stroke: #000000; stroke-width: 0.8"/>
      </g>
     </g>
     <g id="text_11">
      <!-- 360 -->
      <g transform="translate(24.9625 230.341211) scale(0.1 -0.1)">
       <use xlink:href="#DejaVuSans-33"/>
       <use xlink:href="#DejaVuSans-36" transform="translate(63.623047 0)"/>
       <use xlink:href="#DejaVuSans-30" transform="translate(127.246094 0)"/>
      </g>
     </g>
    </g>
    <g id="ytick_4">
     <g id="line2d_21">
      <path d="M 51.05 161.164042 
L 853.2 161.164042 
" clip-path="url(#p9556d6e66a)" style="fill: none; stroke: #b0b0b0; stroke-width: 0.8; stroke-linecap: square"/>
     </g>
     <g id="line2d_22">
      <g>
       <use xlink:href="#mcfa773c236" x="51.05" y="161.164042" style="stroke: #000000; stroke-width: 0.8"/>
      </g>
     </g>
     <g id="text_12">
      <!-- 380 -->
      <g transform="translate(24.9625 164.96326) scale(0.1 -0.1)">
       <use xlink:href="#DejaVuSans-33"/>
       <use xlink:href="#DejaVuSans-38" transform="translate(63.623047 0)"/>
       <use xlink:href="#DejaVuSans-30" transform="translate(127.246094 0)"/>
      </g>
     </g>
    </g>
    <g id="ytick_5">
     <g id="line2d_23">
      <path d="M 51.05 95.786091 
L 853.2 95.786091 
" clip-path="url(#p9556d6e66a)" style="fill: none; stroke: #b0b0b0; stroke-width: 0.8; stroke-linecap: square"/>
     </g>
     <g id="line2d_24">
      <g>
       <use xlink:href="#mcfa773c236" x="51.05" y="95.786091" style="stroke: #000000; stroke-width: 0.8"/>
      </g>
     </g>
     <g id="text_13">
      <!-- 400 -->
      <g transform="translate(24.9625 99.58531) scale(0.1 -0.1)">
       <use xlink:href="#DejaVuSans-34"/>
       <use xlink:href="#DejaVuSans-30" transform="translate(63.623047 0)"/>
       <use xlink:href="#DejaVuSans-30" transform="translate(127.246094 0)"/>
      </g>
     </g>
    </g>
    <g id="ytick_6">
     <g id="line2d_25">
      <path d="M 51.05 30.408141 
L 853.2 30.408141 
" clip-path="url(#p9556d6e66a)" style="fill: none; stroke: #b0b0b0; stroke-width: 0.8; stroke-linecap: square"/>
     </g>
     <g id="line2d_26">
      <g>
       <use xlink:href="#mcfa773c236" x="51.05" y="30.408141" style="stroke: #000000; stroke-width: 0.8"/>
      </g>
     </g>
     <g id="text_14">
      <!-- 420 -->
      <g transform="translate(24.9625 34.20736) scale(0.1 -0.1)">
       <use xlink:href="#DejaVuSans-34"/>
       <use xlink:href="#DejaVuSans-32" transform="translate(63.623047 0)"/>
       <use xlink:href="#DejaVuSans-30" transform="translate(127.246094 0)"/>
      </g>
     </g>
    </g>
    <g id="text_15">
     <!-- CO2 concentration / ppm -->
     <g transform="translate(18.882813 270.647812) rotate(-90) scale(0.1 -0.1)">
      <defs>
       <path id="DejaVuSans-43" d="M 4122 4306 
L 4122 3641 
Q 3803 3938 3442 4084 
Q 3081 4231 2675 4231 
Q 1875 4231 1450 3742 
Q 1025 3253 1025 2328 
Q 1025 1406 1450 917 
Q 1875 428 2675 428 
Q 3081 428 3442 575 
Q 3803 722 4122 1019 
L 4122 359 
Q 3791 134 3420 21 
Q 3050 -91 2638 -91 
Q 1578 -91 968 557 
Q 359 1206 359 2328 
Q 359 3453 968 4101 
Q 1578 4750 2638 4750 
Q 3056 4750 3426 4639 
Q 3797 4528 4122 4306 
z
" transform="scale(0.015625)"/>
       <path id="DejaVuSans-4f" d="M 2522 4238 
Q 1834 4238 1429 3725 
Q 1025 3213 1025 2328 
Q 1025 1447 1429 934 
Q 1834 422 2522 422 
Q 3209 422 3611 934 
Q 4013 1447 4013 2328 
Q 4013 3213 3611 3725 
Q 3209 4238 2522 4238 
z
M 2522 4750 
Q 3503 4750 4090 4092 
Q 4678 3434 4678 2328 
Q 4678 1225 4090 567 
Q 3503 -91 2522 -91 
Q 1538 -91 948 565 
Q 359 1222 359 2328 
Q 359 3434 948 4092 
Q 1538 4750 2522 4750 
z
" transform="scale(0.015625)"/>
       <path id="DejaVuSans-20" transform="scale(0.015625)"/>
       <path id="DejaVuSans-63" d="M 3122 3366 
L 3122 2828 
Q 2878 2963 2633 3030 
Q 2388 3097 2138 3097 
Q 1578 3097 1268 2742 
Q 959 2388 959 1747 
Q 959 1106 1268 751 
Q 1578 397 2138 397 
Q 2388 397 2633 464 
Q 2878 531 3122 666 
L 3122 134 
Q 2881 22 2623 -34 
Q 2366 -91 2075 -91 
Q 1284 -91 818 406 
Q 353 903 353 1747 
Q 353 2603 823 3093 
Q 1294 3584 2113 3584 
Q 2378 3584 2631 3529 
Q 2884 3475 3122 3366 
z
" transform="scale(0.015625)"/>
       <path id="DejaVuSans-6f" d="M 1959 3097 
Q 1497 3097 1228 2736 
Q 959 2375 959 1747 
Q 959 1119 1226 758 
Q 1494 397 1959 397 
Q 2419 397 2687 759 
Q 2956 1122 2956 1747 
Q 2956 2369 2687 2733 
Q 2419 3097 1959 3097 
z
M 1959 3584 
Q 2709 3584 3137 3096 
Q 3566 2609 3566 1747 
Q 3566 888 3137 398 
Q 2709 -91 1959 -91 
Q 1206 -91 779 398 
Q 353 888 353 1747 
Q 353 2609 779 3096 
Q 1206 3584 1959 3584 
z
" transform="scale(0.015625)"/>
       <path id="DejaVuSans-6e" d="M 3513 2113 
L 3513 0 
L 2938 0 
L 2938 2094 
Q 2938 2591 2744 2837 
Q 2550 3084 2163 3084 
Q 1697 3084 1428 2787 
Q 1159 2491 1159 1978 
L 1159 0 
L 581 0 
L 581 3500 
L 1159 3500 
L 1159 2956 
Q 1366 3272 1645 3428 
Q 1925 3584 2291 3584 
Q 2894 3584 3203 3211 
Q 3513 2838 3513 2113 
z
" transform="scale(0.015625)"/>
       <path id="DejaVuSans-74" d="M 1172 4494 
L 1172 3500 
L 2356 3500 
L 2356 3053 
L 1172 3053 
L 1172 1153 
Q 1172 725 1289 603 
Q 1406 481 1766 481 
L 2356 481 
L 2356 0 
L 1766 0 
Q 1100 0 847 248 
Q 594 497 594 1153 
L 594 3053 
L 172 3053 
L 172 3500 
L 594 3500 
L 594 4494 
L 1172 4494 
z
" transform="scale(0.015625)"/>
       <path id="DejaVuSans-69" d="M 603 3500 
L 1178 3500 
L 1178 0 
L 603 0 
L 603 3500 
z
M 603 4863 
L 1178 4863 
L 1178 4134 
L 603 4134 
L 603 4863 
z
" transform="scale(0.015625)"/>
       <path id="DejaVuSans-2f" d="M 1625 4666 
L 2156 4666 
L 531 -594 
L 0 -594 
L 1625 4666 
z
" transform="scale(0.015625)"/>
       <path id="DejaVuSans-70" d="M 1159 525 
L 1159 -1331 
L 581 -1331 
L 581 3500 
L 1159 3500 
L 1159 2969 
Q 1341 3281 1617 3432 
Q 1894 3584 2278 3584 
Q 2916 3584 3314 3078 
Q 3713 2572 3713 1747 
Q 3713 922 3314 415 
Q 2916 -91 2278 -91 
Q 1894 -91 1617 61 
Q 1341 213 1159 525 
z
M 3116 1747 
Q 3116 2381 2855 2742 
Q 2594 3103 2138 3103 
Q 1681 3103 1420 2742 
Q 1159 2381 1159 1747 
Q 1159 1113 1420 752 
Q 1681 391 2138 391 
Q 2594 391 2855 752 
Q 3116 1113 3116 1747 
z
" transform="scale(0.015625)"/>
       <path id="DejaVuSans-6d" d="M 3328 2828 
Q 3544 3216 3844 3400 
Q 4144 3584 4550 3584 
Q 5097 3584 5394 3201 
Q 5691 2819 5691 2113 
L 5691 0 
L 5113 0 
L 5113 2094 
Q 5113 2597 4934 2840 
Q 4756 3084 4391 3084 
Q 3944 3084 3684 2787 
Q 3425 2491 3425 1978 
L 3425 0 
L 2847 0 
L 2847 2094 
Q 2847 2600 2669 2842 
Q 2491 3084 2119 3084 
Q 1678 3084 1418 2786 
Q 1159 2488 1159 1978 
L 1159 0 
L 581 0 
L 581 3500 
L 1159 3500 
L 1159 2956 
Q 1356 3278 1631 3431 
Q 1906 3584 2284 3584 
Q 2666 3584 2933 3390 
Q 3200 3197 3328 2828 
z
" transform="scale(0.015625)"/>
      </defs>
      <use xlink:href="#DejaVuSans-43"/>
      <use xlink:href="#DejaVuSans-4f" transform="translate(69.824219 0)"/>
      <use xlink:href="#DejaVuSans-32" transform="translate(148.535156 0)"/>
      <use xlink:href="#DejaVuSans-20" transform="translate(212.158203 0)"/>
      <use xlink:href="#DejaVuSans-63" transform="translate(243.945312 0)"/>
      <use xlink:href="#DejaVuSans-6f" transform="translate(298.925781 0)"/>
      <use xlink:href="#DejaVuSans-6e" transform="translate(360.107422 0)"/>
      <use xlink:href="#DejaVuSans-63" transform="translate(423.486328 0)"/>
      <use xlink:href="#DejaVuSans-65" transform="translate(478.466797 0)"/>
      <use xlink:href="#DejaVuSans-6e" transform="translate(539.990234 0)"/>
      <use xlink:href="#DejaVuSans-74" transform="translate(603.369141 0)"/>
      <use xlink:href="#DejaVuSans-72" transform="translate(642.578125 0)"/>
      <use xlink:href="#DejaVuSans-61" transform="translate(683.691406 0)"/>
      <use xlink:href="#DejaVuSans-74" transform="translate(744.970703 0)"/>
      <use xlink:href="#DejaVuSans-69" transform="translate(784.179688 0)"/>
      <use xlink:href="#DejaVuSans-6f" transform="translate(811.962891 0)"/>
      <use xlink:href="#DejaVuSans-6e" transform="translate(873.144531 0)"/>
      <use xlink:href="#DejaVuSans-20" transform="translate(936.523438 0)"/>
      <use xlink:href="#DejaVuSans-2f" transform="translate(968.310547 0)"/>
      <use xlink:href="#DejaVuSans-20" transform="translate(1002.001953 0)"/>
      <use xlink:href="#DejaVuSans-70" transform="translate(1033.789062 0)"/>
      <use xlink:href="#DejaVuSans-70" transform="translate(1097.265625 0)"/>
      <use xlink:href="#DejaVuSans-6d" transform="translate(1160.742188 0)"/>
     </g>
    </g>
   </g>
   <g id="line2d_27">
    <path d="M 87.511364 373.467273 
L 109.461348 367.870792 
L 131.411333 362.059526 
L 153.361318 356.028217 
L 175.311303 349.771607 
L 197.261288 343.284439 
L 219.211272 336.561454 
L 241.161257 329.597395 
L 263.111242 322.387005 
L 285.061227 314.925026 
L 307.011212 307.2062 
L 328.961196 299.22527 
L 348.472294 291.906822 
L 367.983392 284.373432 
L 387.494489 276.621408 
L 407.005587 268.647057 
L 426.516684 260.446686 
L 446.027782 252.016604 
L 465.53888 243.353118 
L 485.049977 234.452534 
L 504.561075 225.31116 
L 524.072172 215.925304 
L 543.58327 206.291273 
L 563.094368 196.405375 
L 582.605465 186.263917 
L 602.116563 175.863205 
L 621.62766 165.199549 
L 641.138758 154.269254 
L 660.649856 143.068629 
L 680.160953 131.593981 
L 699.672051 119.841617 
L 719.183148 107.807845 
L 738.694246 95.488972 
L 758.205344 82.881305 
L 777.716441 69.981152 
L 797.227539 56.784821 
L 816.738636 43.288618 
L 816.738636 43.288618 
" clip-path="url(#p9556d6e66a)" style="fill: none; stroke: #008000; stroke-width: 2; stroke-linecap: square"/>
   </g>
   <g id="line2d_28">
    <path d="M 87.511364 371.820731 
L 99.273094 369.286701 
L 111.034824 366.644062 
L 122.796554 363.894059 
L 134.558284 361.037939 
L 146.320015 358.076948 
L 158.081745 355.012332 
L 169.843475 351.845336 
L 181.605205 348.577207 
L 193.366935 345.20919 
L 205.128666 341.742532 
L 216.890396 338.178479 
L 228.652126 334.518276 
L 240.413856 330.763169 
L 252.175587 326.914404 
L 263.937317 322.973228 
L 275.699047 318.940886 
L 287.460777 314.818625 
L 299.222507 310.607689 
L 310.984238 306.309326 
L 322.745968 301.924781 
L 334.507698 297.455299 
L 346.269428 292.902128 
L 358.031158 288.266513 
L 369.792889 283.549699 
L 381.554619 278.752934 
L 393.316349 273.877462 
L 405.078079 268.92453 
L 416.839809 263.895384 
L 428.60154 258.791269 
L 440.36327 253.613432 
L 452.125 248.363118 
L 463.88673 243.041575 
L 475.64846 237.650046 
L 487.410191 232.189779 
L 499.171921 226.66202 
L 510.933651 221.068014 
L 522.695381 215.409007 
L 534.457111 209.686245 
L 546.218842 203.900975 
L 557.980572 198.054442 
L 569.742302 192.147892 
L 581.504032 186.182571 
L 593.265762 180.159725 
L 605.027493 174.0806 
L 616.789223 167.946442 
L 628.550953 161.758497 
L 640.312683 155.518011 
L 652.074413 149.22623 
L 663.836144 142.8844 
L 675.597874 136.493766 
L 687.359604 130.055575 
L 699.121334 123.571072 
" clip-path="url(#p9556d6e66a)" style="fill: none; stroke: #ffa500; stroke-width: 2; stroke-linecap: square"/>
   </g>
   <g id="line2d_29">
    <path d="M 710.883065 117.041505 
L 722.644795 110.468117 
L 734.406525 103.852157 
L 746.168255 97.194868 
L 757.929985 90.497499 
L 769.691716 83.761293 
L 781.453446 76.987498 
L 793.215176 70.177359 
L 804.976906 63.332123 
L 816.738636 56.453035 
" clip-path="url(#p9556d6e66a)" style="fill: none; stroke-dasharray: 7.4,3.2; stroke-dashoffset: 0; stroke: #ffa500; stroke-width: 2"/>
    <defs>
     <path id="m1d6401b1fd" d="M 0 2 
C 0.530406 2 1.03916 1.789267 1.414214 1.414214 
C 1.789267 1.03916 2 0.530406 2 0 
C 2 -0.530406 1.789267 -1.03916 1.414214 -1.414214 
C 1.03916 -1.789267 0.530406 -2 0 -2 
C -0.530406 -2 -1.03916 -1.789267 -1.414214 -1.414214 
C -1.789267 -1.03916 -2 -0.530406 -2 0 
C -2 0.530406 -1.789267 1.03916 -1.414214 1.414214 
C -1.03916 1.789267 -0.530406 2 0 2 
z
" style="stroke: #ffa500"/>
    </defs>
    <g clip-path="url(#p9556d6e66a)">
     <use xlink:href="#m1d6401b1fd" x="710.883065" y="117.041505" style="fill: #ffa500; stroke: #ffa500"/>
     <use xlink:href="#m1d6401b1fd" x="722.644795" y="110.468117" style="fill: #ffa500; stroke: #ffa500"/>
     <use xlink:href="#m1d6401b1fd" x="734.406525" y="103.852157" style="fill: #ffa500; stroke: #ffa500"/>
     <use xlink:href="#m1d6401b1fd" x="746.168255" y="97.194868" style="fill: #ffa500; stroke: #ffa500"/>
     <use xlink:href="#m1d6401b1fd" x="757.929985" y="90.497499" style="fill: #ffa500; stroke: #ffa500"/>
     <use xlink:href="#m1d6401b1fd" x="769.691716" y="83.761293" style="fill: #ffa500; stroke: #ffa500"/>
     <use xlink:href="#m1d6401b1fd" x="781.453446" y="76.987498" style="fill: #ffa500; stroke: #ffa500"/>
     <use xlink:href="#m1d6401b1fd" x="793.215176" y="70.177359" style="fill: #ffa500; stroke: #ffa500"/>
     <use xlink:href="#m1d6401b1fd" x="804.976906" y="63.332123" style="fill: #ffa500; stroke: #ffa500"/>
     <use xlink:href="#m1d6401b1fd" x="816.738636" y="56.453035" style="fill: #ffa500; stroke: #ffa500"/>
    </g>
   </g>
   <g id="line2d_30">
    <path d="M 710.883065 390.04 
L 710.883065 25.44 
" clip-path="url(#p9556d6e66a)" style="fill: none; stroke-dasharray: 5.55,2.4; stroke-dashoffset: 0; stroke: #808080; stroke-width: 1.5"/>
   </g>
   <g id="patch_3">
    <path d="M 51.05 390.04 
L 51.05 25.44 
" style="fill: none; stroke: #000000; stroke-width: 0.8; stroke-linejoin: miter; stroke-linecap: square"/>
   </g>
   <g id="patch_4">
    <path d="M 853.2 390.04 
L 853.2 25.44 
" style="fill: none; stroke: #000000; stroke-width: 0.8; stroke-linejoin: miter; stroke-linecap: square"/>
   </g>
   <g id="patch_5">
    <path d="M 51.05 390.04 
L 853.2 390.04 
" style="fill: none; stroke: #000000; stroke-width: 0.8; stroke-linejoin: miter; stroke-linecap: square"/>
   </g>
   <g id="patch_6">
    <path d="M 51.05 25.44 
L 853.2 25.44 
" style="fill: none; stroke: #000000; stroke-width: 0.8; stroke-linejoin: miter; stroke-linecap: square"/>
   </g>
   <g id="text_16">
    <!-- Cubic Model: Annual CO2 Fit and Test Forecast -->
    <g transform="translate(312.866875 19.44) scale(0.12 -0.12)">
     <defs>
      <path id="DejaVuSans-75" d="M 544 1381 
L 544 3500 
L 1119 3500 
L 1119 1403 
Q 1119 906 1312 657 
Q 1506 409 1894 409 
Q 2359 409 2629 706 
Q 2900 1003 2900 1516 
L 2900 3500 
L 3475 3500 
L 3475 0 
L 2900 0 
L 2900 538 
Q 2691 219 2414 64 
Q 2138 -91 1772 -91 
Q 1169 -91 856 284 
Q 544 659 544 1381 
z
M 1991 3584 
L 1991 3584 
z
" transform="scale(0.015625)"/>
      <path id="DejaVuSans-62" d="M 3116 1747 
Q 3116 2381 2855 2742 
Q 2594 3103 2138 3103 
Q 1681 3103 1420 2742 
Q 1159 2381 1159 1747 
Q 1159 1113 1420 752 
Q 1681 391 2138 391 
Q 2594 391 2855 752 
Q 3116 1113 3116 1747 
z
M 1159 2969 
Q 1341 3281 1617 3432 
Q 1894 3584 2278 3584 
Q 2916 3584 3314 3078 
Q 3713 2572 3713 1747 
Q 3713 922 3314 415 
Q 2916 -91 2278 -91 
Q 1894 -91 1617 61 
Q 1341 213 1159 525 
L 1159 0 
L 581 0 
L 581 4863 
L 1159 4863 
L 1159 2969 
z
" transform="scale(0.015625)"/>
      <path id="DejaVuSans-4d" d="M 628 4666 
L 1569 4666 
L 2759 1491 
L 3956 4666 
L 4897 4666 
L 4897 0 
L 4281 0 
L 4281 4097 
L 3078 897 
L 2444 897 
L 1241 4097 
L 1241 0 
L 628 0 
L 628 4666 
z
" transform="scale(0.015625)"/>
      <path id="DejaVuSans-64" d="M 2906 2969 
L 2906 4863 
L 3481 4863 
L 3481 0 
L 2906 0 
L 2906 525 
Q 2725 213 2448 61 
Q 2172 -91 1784 -91 
Q 1150 -91 751 415 
Q 353 922 353 1747 
Q 353 2572 751 3078 
Q 1150 3584 1784 3584 
Q 2172 3584 2448 3432 
Q 2725 3281 2906 2969 
z
M 947 1747 
Q 947 1113 1208 752 
Q 1469 391 1925 391 
Q 2381 391 2643 752 
Q 2906 1113 2906 1747 
Q 2906 2381 2643 2742 
Q 2381 3103 1925 3103 
Q 1469 3103 1208 2742 
Q 947 2381 947 1747 
z
" transform="scale(0.015625)"/>
      <path id="DejaVuSans-6c" d="M 603 4863 
L 1178 4863 
L 1178 0 
L 603 0 
L 603 4863 
z
" transform="scale(0.015625)"/>
      <path id="DejaVuSans-3a" d="M 750 794 
L 1409 794 
L 1409 0 
L 750 0 
L 750 794 
z
M 750 3309 
L 1409 3309 
L 1409 2516 
L 750 2516 
L 750 3309 
z
" transform="scale(0.015625)"/>
      <path id="DejaVuSans-41" d="M 2188 4044 
L 1331 1722 
L 3047 1722 
L 2188 4044 
z
M 1831 4666 
L 2547 4666 
L 4325 0 
L 3669 0 
L 3244 1197 
L 1141 1197 
L 716 0 
L 50 0 
L 1831 4666 
z
" transform="scale(0.015625)"/>
      <path id="DejaVuSans-46" d="M 628 4666 
L 3309 4666 
L 3309 4134 
L 1259 4134 
L 1259 2759 
L 3109 2759 
L 3109 2228 
L 1259 2228 
L 1259 0 
L 628 0 
L 628 4666 
z
" transform="scale(0.015625)"/>
      <path id="DejaVuSans-54" d="M -19 4666 
L 3928 4666 
L 3928 4134 
L 2272 4134 
L 2272 0 
L 1638 0 
L 1638 4134 
L -19 4134 
L -19 4666 
z
" transform="scale(0.015625)"/>
      <path id="DejaVuSans-73" d="M 2834 3397 
L 2834 2853 
Q 2591 2978 2328 3040 
Q 2066 3103 1784 3103 
Q 1356 3103 1142 2972 
Q 928 2841 928 2578 
Q 928 2378 1081 2264 
Q 1234 2150 1697 2047 
L 1894 2003 
Q 2506 1872 2764 1633 
Q 3022 1394 3022 966 
Q 3022 478 2636 193 
Q 2250 -91 1575 -91 
Q 1294 -91 989 -36 
Q 684 19 347 128 
L 347 722 
Q 666 556 975 473 
Q 1284 391 1588 391 
Q 1994 391 2212 530 
Q 2431 669 2431 922 
Q 2431 1156 2273 1281 
Q 2116 1406 1581 1522 
L 1381 1569 
Q 847 1681 609 1914 
Q 372 2147 372 2553 
Q 372 3047 722 3315 
Q 1072 3584 1716 3584 
Q 2034 3584 2315 3537 
Q 2597 3491 2834 3397 
z
" transform="scale(0.015625)"/>
     </defs>
     <use xlink:href="#DejaVuSans-43"/>
     <use xlink:href="#DejaVuSans-75" transform="translate(69.824219 0)"/>
     <use xlink:href="#DejaVuSans-62" transform="translate(133.203125 0)"/>
     <use xlink:href="#DejaVuSans-69" transform="translate(196.679688 0)"/>
     <use xlink:href="#DejaVuSans-63" transform="translate(224.462891 0)"/>
     <use xlink:href="#DejaVuSans-20" transform="translate(279.443359 0)"/>
     <use xlink:href="#DejaVuSans-4d" transform="translate(311.230469 0)"/>
     <use xlink:href="#DejaVuSans-6f" transform="translate(397.509766 0)"/>
     <use xlink:href="#DejaVuSans-64" transform="translate(458.691406 0)"/>
     <use xlink:href="#DejaVuSans-65" transform="translate(522.167969 0)"/>
     <use xlink:href="#DejaVuSans-6c" transform="translate(583.691406 0)"/>
     <use xlink:href="#DejaVuSans-3a" transform="translate(611.474609 0)"/>
     <use xlink:href="#DejaVuSans-20" transform="translate(645.166016 0)"/>
     <use xlink:href="#DejaVuSans-41" transform="translate(676.953125 0)"/>
     <use xlink:href="#DejaVuSans-6e" transform="translate(745.361328 0)"/>
     <use xlink:href="#DejaVuSans-6e" transform="translate(808.740234 0)"/>
     <use xlink:href="#DejaVuSans-75" transform="translate(872.119141 0)"/>
     <use xlink:href="#DejaVuSans-61" transform="translate(935.498047 0)"/>
     <use xlink:href="#DejaVuSans-6c" transform="translate(996.777344 0)"/>
     <use xlink:href="#DejaVuSans-20" transform="translate(1024.560547 0)"/>
     <use xlink:href="#DejaVuSans-43" transform="translate(1056.347656 0)"/>
     <use xlink:href="#DejaVuSans-4f" transform="translate(1126.171875 0)"/>
     <use xlink:href="#DejaVuSans-32" transform="translate(1204.882812 0)"/>
     <use xlink:href="#DejaVuSans-20" transform="translate(1268.505859 0)"/>
     <use xlink:href="#DejaVuSans-46" transform="translate(1300.292969 0)"/>
     <use xlink:href="#DejaVuSans-69" transform="translate(1350.5625 0)"/>
     <use xlink:href="#DejaVuSans-74" transform="translate(1378.345703 0)"/>
     <use xlink:href="#DejaVuSans-20" transform="translate(1417.554688 0)"/>
     <use xlink:href="#DejaVuSans-61" transform="translate(1449.341797 0)"/>
     <use xlink:href="#DejaVuSans-6e" transform="translate(1510.621094 0)"/>
     <use xlink:href="#DejaVuSans-64" transform="translate(1574 0)"/>
     <use xlink:href="#DejaVuSans-20" transform="translate(1637.476562 0)"/>
     <use xlink:href="#DejaVuSans-54" transform="translate(1669.263672 0)"/>
     <use xlink:href="#DejaVuSans-65" transform="translate(1713.347656 0)"/>
     <use xlink:href="#DejaVuSans-73" transform="translate(1774.871094 0)"/>
     <use xlink:href="#DejaVuSans-74" transform="translate(1826.970703 0)"/>
     <use xlink:href="#DejaVuSans-20" transform="translate(1866.179688 0)"/>
     <use xlink:href="#DejaVuSans-46" transform="translate(1897.966797 0)"/>
     <use xlink:href="#DejaVuSans-6f" transform="translate(1951.861328 0)"/>
     <use xlink:href="#DejaVuSans-72" transform="translate(2013.042969 0)"/>
     <use xlink:href="#DejaVuSans-65" transform="translate(2051.90625 0)"/>
     <use xlink:href="#DejaVuSans-63" transform="translate(2113.429688 0)"/>
     <use xlink:href="#DejaVuSans-61" transform="translate(2168.410156 0)"/>
     <use xlink:href="#DejaVuSans-73" transform="translate(2229.689453 0)"/>
     <use xlink:href="#DejaVuSans-74" transform="translate(2281.789062 0)"/>
    </g>
   </g>
   <g id="legend_1">
    <g id="patch_7">
     <path d="M 58.05 106.830625 
L 251.095313 106.830625 
Q 253.095313 106.830625 253.095313 104.830625 
L 253.095313 32.44 
Q 253.095313 30.44 251.095313 30.44 
L 58.05 30.44 
Q 56.05 30.44 56.05 32.44 
L 56.05 104.830625 
Q 56.05 106.830625 58.05 106.830625 
z
" style="fill: #ffffff; opacity: 0.8; stroke: #cccccc; stroke-linejoin: miter"/>
    </g>
    <g id="PathCollection_2">
     <g>
      <use xlink:href="#mbc5f92a903" x="70.05" y="39.413437" style="fill: #0000ff; stroke: #0000ff"/>
     </g>
    </g>
    <g id="text_17">
     <!-- Original annual data -->
     <g transform="translate(88.05 42.038437) scale(0.1 -0.1)">
      <defs>
       <path id="DejaVuSans-67" d="M 2906 1791 
Q 2906 2416 2648 2759 
Q 2391 3103 1925 3103 
Q 1463 3103 1205 2759 
Q 947 2416 947 1791 
Q 947 1169 1205 825 
Q 1463 481 1925 481 
Q 2391 481 2648 825 
Q 2906 1169 2906 1791 
z
M 3481 434 
Q 3481 -459 3084 -895 
Q 2688 -1331 1869 -1331 
Q 1566 -1331 1297 -1286 
Q 1028 -1241 775 -1147 
L 775 -588 
Q 1028 -725 1275 -790 
Q 1522 -856 1778 -856 
Q 2344 -856 2625 -561 
Q 2906 -266 2906 331 
L 2906 616 
Q 2728 306 2450 153 
Q 2172 0 1784 0 
Q 1141 0 747 490 
Q 353 981 353 1791 
Q 353 2603 747 3093 
Q 1141 3584 1784 3584 
Q 2172 3584 2450 3431 
Q 2728 3278 2906 2969 
L 2906 3500 
L 3481 3500 
L 3481 434 
z
" transform="scale(0.015625)"/>
      </defs>
      <use xlink:href="#DejaVuSans-4f"/>
      <use xlink:href="#DejaVuSans-72" transform="translate(78.710938 0)"/>
      <use xlink:href="#DejaVuSans-69" transform="translate(119.824219 0)"/>
      <use xlink:href="#DejaVuSans-67" transform="translate(147.607422 0)"/>
      <use xlink:href="#DejaVuSans-69" transform="translate(211.083984 0)"/>
      <use xlink:href="#DejaVuSans-6e" transform="translate(238.867188 0)"/>
      <use xlink:href="#DejaVuSans-61" transform="translate(302.246094 0)"/>
      <use xlink:href="#DejaVuSans-6c" transform="translate(363.525391 0)"/>
      <use xlink:href="#DejaVuSans-20" transform="translate(391.308594 0)"/>
      <use xlink:href="#DejaVuSans-61" transform="translate(423.095703 0)"/>
      <use xlink:href="#DejaVuSans-6e" transform="translate(484.375 0)"/>
      <use xlink:href="#DejaVuSans-6e" transform="translate(547.753906 0)"/>
      <use xlink:href="#DejaVuSans-75" transform="translate(611.132812 0)"/>
      <use xlink:href="#DejaVuSans-61" transform="translate(674.511719 0)"/>
      <use xlink:href="#DejaVuSans-6c" transform="translate(735.791016 0)"/>
      <use xlink:href="#DejaVuSans-20" transform="translate(763.574219 0)"/>
      <use xlink:href="#DejaVuSans-64" transform="translate(795.361328 0)"/>
      <use xlink:href="#DejaVuSans-61" transform="translate(858.837891 0)"/>
      <use xlink:href="#DejaVuSans-74" transform="translate(920.117188 0)"/>
      <use xlink:href="#DejaVuSans-61" transform="translate(959.326172 0)"/>
     </g>
    </g>
    <g id="line2d_31">
     <path d="M 60.05 53.216563 
L 70.05 53.216563 
L 80.05 53.216563 
" style="fill: none; stroke: #008000; stroke-width: 2; stroke-linecap: square"/>
    </g>
    <g id="text_18">
     <!-- Full-data Cubic fitted curve -->
     <g transform="translate(88.05 56.716563) scale(0.1 -0.1)">
      <defs>
       <path id="DejaVuSans-2d" d="M 313 2009 
L 1997 2009 
L 1997 1497 
L 313 1497 
L 313 2009 
z
" transform="scale(0.015625)"/>
       <path id="DejaVuSans-66" d="M 2375 4863 
L 2375 4384 
L 1825 4384 
Q 1516 4384 1395 4259 
Q 1275 4134 1275 3809 
L 1275 3500 
L 2222 3500 
L 2222 3053 
L 1275 3053 
L 1275 0 
L 697 0 
L 697 3053 
L 147 3053 
L 147 3500 
L 697 3500 
L 697 3744 
Q 697 4328 969 4595 
Q 1241 4863 1831 4863 
L 2375 4863 
z
" transform="scale(0.015625)"/>
       <path id="DejaVuSans-76" d="M 191 3500 
L 800 3500 
L 1894 563 
L 2988 3500 
L 3597 3500 
L 2284 0 
L 1503 0 
L 191 3500 
z
" transform="scale(0.015625)"/>
      </defs>
      <use xlink:href="#DejaVuSans-46"/>
      <use xlink:href="#DejaVuSans-75" transform="translate(52.019531 0)"/>
      <use xlink:href="#DejaVuSans-6c" transform="translate(115.398438 0)"/>
      <use xlink:href="#DejaVuSans-6c" transform="translate(143.181641 0)"/>
      <use xlink:href="#DejaVuSans-2d" transform="translate(170.964844 0)"/>
      <use xlink:href="#DejaVuSans-64" transform="translate(207.048828 0)"/>
      <use xlink:href="#DejaVuSans-61" transform="translate(270.525391 0)"/>
      <use xlink:href="#DejaVuSans-74" transform="translate(331.804688 0)"/>
      <use xlink:href="#DejaVuSans-61" transform="translate(371.013672 0)"/>
      <use xlink:href="#DejaVuSans-20" transform="translate(432.292969 0)"/>
      <use xlink:href="#DejaVuSans-43" transform="translate(464.080078 0)"/>
      <use xlink:href="#DejaVuSans-75" transform="translate(533.904297 0)"/>
      <use xlink:href="#DejaVuSans-62" transform="translate(597.283203 0)"/>
      <use xlink:href="#DejaVuSans-69" transform="translate(660.759766 0)"/>
      <use xlink:href="#DejaVuSans-63" transform="translate(688.542969 0)"/>
      <use xlink:href="#DejaVuSans-20" transform="translate(743.523438 0)"/>
      <use xlink:href="#DejaVuSans-66" transform="translate(775.310547 0)"/>
      <use xlink:href="#DejaVuSans-69" transform="translate(810.515625 0)"/>
      <use xlink:href="#DejaVuSans-74" transform="translate(838.298828 0)"/>
      <use xlink:href="#DejaVuSans-74" transform="translate(877.507812 0)"/>
      <use xlink:href="#DejaVuSans-65" transform="translate(916.716797 0)"/>
      <use xlink:href="#DejaVuSans-64" transform="translate(978.240234 0)"/>
      <use xlink:href="#DejaVuSans-20" transform="translate(1041.716797 0)"/>
      <use xlink:href="#DejaVuSans-63" transform="translate(1073.503906 0)"/>
      <use xlink:href="#DejaVuSans-75" transform="translate(1128.484375 0)"/>
      <use xlink:href="#DejaVuSans-72" transform="translate(1191.863281 0)"/>
      <use xlink:href="#DejaVuSans-76" transform="translate(1232.976562 0)"/>
      <use xlink:href="#DejaVuSans-65" transform="translate(1292.15625 0)"/>
     </g>
    </g>
    <g id="line2d_32">
     <path d="M 60.05 67.894687 
L 70.05 67.894687 
L 80.05 67.894687 
" style="fill: none; stroke: #ffa500; stroke-width: 2; stroke-linecap: square"/>
    </g>
    <g id="text_19">
     <!-- Training-only Cubic fitted values -->
     <g transform="translate(88.05 71.394687) scale(0.1 -0.1)">
      <defs>
       <path id="DejaVuSans-79" d="M 2059 -325 
Q 1816 -950 1584 -1140 
Q 1353 -1331 966 -1331 
L 506 -1331 
L 506 -850 
L 844 -850 
Q 1081 -850 1212 -737 
Q 1344 -625 1503 -206 
L 1606 56 
L 191 3500 
L 800 3500 
L 1894 763 
L 2988 3500 
L 3597 3500 
L 2059 -325 
z
" transform="scale(0.015625)"/>
      </defs>
      <use xlink:href="#DejaVuSans-54"/>
      <use xlink:href="#DejaVuSans-72" transform="translate(46.333984 0)"/>
      <use xlink:href="#DejaVuSans-61" transform="translate(87.447266 0)"/>
      <use xlink:href="#DejaVuSans-69" transform="translate(148.726562 0)"/>
      <use xlink:href="#DejaVuSans-6e" transform="translate(176.509766 0)"/>
      <use xlink:href="#DejaVuSans-69" transform="translate(239.888672 0)"/>
      <use xlink:href="#DejaVuSans-6e" transform="translate(267.671875 0)"/>
      <use xlink:href="#DejaVuSans-67" transform="translate(331.050781 0)"/>
      <use xlink:href="#DejaVuSans-2d" transform="translate(394.527344 0)"/>
      <use xlink:href="#DejaVuSans-6f" transform="translate(432.486328 0)"/>
      <use xlink:href="#DejaVuSans-6e" transform="translate(493.667969 0)"/>
      <use xlink:href="#DejaVuSans-6c" transform="translate(557.046875 0)"/>
      <use xlink:href="#DejaVuSans-79" transform="translate(584.830078 0)"/>
      <use xlink:href="#DejaVuSans-20" transform="translate(644.009766 0)"/>
      <use xlink:href="#DejaVuSans-43" transform="translate(675.796875 0)"/>
      <use xlink:href="#DejaVuSans-75" transform="translate(745.621094 0)"/>
      <use xlink:href="#DejaVuSans-62" transform="translate(809 0)"/>
      <use xlink:href="#DejaVuSans-69" transform="translate(872.476562 0)"/>
      <use xlink:href="#DejaVuSans-63" transform="translate(900.259766 0)"/>
      <use xlink:href="#DejaVuSans-20" transform="translate(955.240234 0)"/>
      <use xlink:href="#DejaVuSans-66" transform="translate(987.027344 0)"/>
      <use xlink:href="#DejaVuSans-69" transform="translate(1022.232422 0)"/>
      <use xlink:href="#DejaVuSans-74" transform="translate(1050.015625 0)"/>
      <use xlink:href="#DejaVuSans-74" transform="translate(1089.224609 0)"/>
      <use xlink:href="#DejaVuSans-65" transform="translate(1128.433594 0)"/>
      <use xlink:href="#DejaVuSans-64" transform="translate(1189.957031 0)"/>
      <use xlink:href="#DejaVuSans-20" transform="translate(1253.433594 0)"/>
      <use xlink:href="#DejaVuSans-76" transform="translate(1285.220703 0)"/>
      <use xlink:href="#DejaVuSans-61" transform="translate(1344.400391 0)"/>
      <use xlink:href="#DejaVuSans-6c" transform="translate(1405.679688 0)"/>
      <use xlink:href="#DejaVuSans-75" transform="translate(1433.462891 0)"/>
      <use xlink:href="#DejaVuSans-65" transform="translate(1496.841797 0)"/>
      <use xlink:href="#DejaVuSans-73" transform="translate(1558.365234 0)"/>
     </g>
    </g>
    <g id="line2d_33">
     <path d="M 60.05 82.572812 
L 70.05 82.572812 
L 80.05 82.572812 
" style="fill: none; stroke-dasharray: 7.4,3.2; stroke-dashoffset: 0; stroke: #ffa500; stroke-width: 2"/>
     <g>
      <use xlink:href="#m1d6401b1fd" x="70.05" y="82.572812" style="fill: #ffa500; stroke: #ffa500"/>
     </g>
    </g>
    <g id="text_20">
     <!-- Training-only Cubic forecast -->
     <g transform="translate(88.05 86.072812) scale(0.1 -0.1)">
      <use xlink:href="#DejaVuSans-54"/>
      <use xlink:href="#DejaVuSans-72" transform="translate(46.333984 0)"/>
      <use xlink:href="#DejaVuSans-61" transform="translate(87.447266 0)"/>
      <use xlink:href="#DejaVuSans-69" transform="translate(148.726562 0)"/>
      <use xlink:href="#DejaVuSans-6e" transform="translate(176.509766 0)"/>
      <use xlink:href="#DejaVuSans-69" transform="translate(239.888672 0)"/>
      <use xlink:href="#DejaVuSans-6e" transform="translate(267.671875 0)"/>
      <use xlink:href="#DejaVuSans-67" transform="translate(331.050781 0)"/>
      <use xlink:href="#DejaVuSans-2d" transform="translate(394.527344 0)"/>
      <use xlink:href="#DejaVuSans-6f" transform="translate(432.486328 0)"/>
      <use xlink:href="#DejaVuSans-6e" transform="translate(493.667969 0)"/>
      <use xlink:href="#DejaVuSans-6c" transform="translate(557.046875 0)"/>
      <use xlink:href="#DejaVuSans-79" transform="translate(584.830078 0)"/>
      <use xlink:href="#DejaVuSans-20" transform="translate(644.009766 0)"/>
      <use xlink:href="#DejaVuSans-43" transform="translate(675.796875 0)"/>
      <use xlink:href="#DejaVuSans-75" transform="translate(745.621094 0)"/>
      <use xlink:href="#DejaVuSans-62" transform="translate(809 0)"/>
      <use xlink:href="#DejaVuSans-69" transform="translate(872.476562 0)"/>
      <use xlink:href="#DejaVuSans-63" transform="translate(900.259766 0)"/>
      <use xlink:href="#DejaVuSans-20" transform="translate(955.240234 0)"/>
      <use xlink:href="#DejaVuSans-66" transform="translate(987.027344 0)"/>
      <use xlink:href="#DejaVuSans-6f" transform="translate(1022.232422 0)"/>
      <use xlink:href="#DejaVuSans-72" transform="translate(1083.414062 0)"/>
      <use xlink:href="#DejaVuSans-65" transform="translate(1122.277344 0)"/>
      <use xlink:href="#DejaVuSans-63" transform="translate(1183.800781 0)"/>
      <use xlink:href="#DejaVuSans-61" transform="translate(1238.78125 0)"/>
      <use xlink:href="#DejaVuSans-73" transform="translate(1300.060547 0)"/>
      <use xlink:href="#DejaVuSans-74" transform="translate(1352.160156 0)"/>
     </g>
    </g>
    <g id="line2d_34">
     <path d="M 60.05 97.250937 
L 70.05 97.250937 
L 80.05 97.250937 
" style="fill: none; stroke-dasharray: 5.55,2.4; stroke-dashoffset: 0; stroke: #808080; stroke-width: 1.5"/>
    </g>
    <g id="text_21">
     <!-- Start of test period -->
     <g transform="translate(88.05 100.750937) scale(0.1 -0.1)">
      <defs>
       <path id="DejaVuSans-53" d="M 3425 4513 
L 3425 3897 
Q 3066 4069 2747 4153 
Q 2428 4238 2131 4238 
Q 1616 4238 1336 4038 
Q 1056 3838 1056 3469 
Q 1056 3159 1242 3001 
Q 1428 2844 1947 2747 
L 2328 2669 
Q 3034 2534 3370 2195 
Q 3706 1856 3706 1288 
Q 3706 609 3251 259 
Q 2797 -91 1919 -91 
Q 1588 -91 1214 -16 
Q 841 59 441 206 
L 441 856 
Q 825 641 1194 531 
Q 1563 422 1919 422 
Q 2459 422 2753 634 
Q 3047 847 3047 1241 
Q 3047 1584 2836 1778 
Q 2625 1972 2144 2069 
L 1759 2144 
Q 1053 2284 737 2584 
Q 422 2884 422 3419 
Q 422 4038 858 4394 
Q 1294 4750 2059 4750 
Q 2388 4750 2728 4690 
Q 3069 4631 3425 4513 
z
" transform="scale(0.015625)"/>
      </defs>
      <use xlink:href="#DejaVuSans-53"/>
      <use xlink:href="#DejaVuSans-74" transform="translate(63.476562 0)"/>
      <use xlink:href="#DejaVuSans-61" transform="translate(102.685547 0)"/>
      <use xlink:href="#DejaVuSans-72" transform="translate(163.964844 0)"/>
      <use xlink:href="#DejaVuSans-74" transform="translate(205.078125 0)"/>
      <use xlink:href="#DejaVuSans-20" transform="translate(244.287109 0)"/>
      <use xlink:href="#DejaVuSans-6f" transform="translate(276.074219 0)"/>
      <use xlink:href="#DejaVuSans-66" transform="translate(337.255859 0)"/>
      <use xlink:href="#DejaVuSans-20" transform="translate(372.460938 0)"/>
      <use xlink:href="#DejaVuSans-74" transform="translate(404.248047 0)"/>
      <use xlink:href="#DejaVuSans-65" transform="translate(443.457031 0)"/>
      <use xlink:href="#DejaVuSans-73" transform="translate(504.980469 0)"/>
      <use xlink:href="#DejaVuSans-74" transform="translate(557.080078 0)"/>
      <use xlink:href="#DejaVuSans-20" transform="translate(596.289062 0)"/>
      <use xlink:href="#DejaVuSans-70" transform="translate(628.076172 0)"/>
      <use xlink:href="#DejaVuSans-65" transform="translate(691.552734 0)"/>
      <use xlink:href="#DejaVuSans-72" transform="translate(753.076172 0)"/>
      <use xlink:href="#DejaVuSans-69" transform="translate(794.189453 0)"/>
      <use xlink:href="#DejaVuSans-6f" transform="translate(821.972656 0)"/>
      <use xlink:href="#DejaVuSans-64" transform="translate(883.154297 0)"/>
     </g>
    </g>
   </g>
  </g>
 </g>
 <defs>
  <clipPath id="p9556d6e66a">
   <rect x="51.05" y="25.44" width="802.15" height="364.6"/>
  </clipPath>
 </defs>
</svg>
