<?xml version="1.0" encoding="utf-8" standalone="no"?>
<!DOCTYPE svg PUBLIC "-//W3C//DTD SVG 1.1//EN"
  "http://www.w3.org/Graphics/SVG/1.1/DTD/svg11.dtd">
<svg xmlns:xlink="http://www.w3.org/1999/xlink" width="864pt" height="360pt" viewBox="0 0 864 360" xmlns="http://www.w3.org/2000/svg" version="1.1">
 <metadata>
  <rdf:RDF xmlns:dc="http://purl.org/dc/elements/1.1/" xmlns:cc="http://creativecommons.org/ns#" xmlns:rdf="http://www.w3.org/1999/02/22-rdf-syntax-ns#">
   <cc:Work>
    <dc:type rdf:resource="http://purl.org/dc/dcmitype/StillImage"/>
    <dc:date>2026-07-08T14:24:32.538294</dc:date>
    <dc:format>image/svg+xml</dc:format>
    <dc:creator>
     <cc:Agent>
      <dc:title>Matplotlib v3.10.0, https://matplotlib.org/</dc:title>
     </cc:Agent>
    </dc:creator>
   </cc:Work>
  </rdf:RDF>
 </metadata>
 <defs>
  <style type="text/css">*{stroke-linejoin: round; stroke-linecap: butt}</style>
 </defs>
 <g id="figure_1">
  <g id="patch_1">
   <path d="M 0 360 
L 864 360 
L 864 0 
L 0 0 
z
" style="fill: #ffffff"/>
  </g>
  <g id="axes_1">
   <g id="patch_2">
    <path d="M 53.03 318.04 
L 853.2 318.04 
L 853.2 25.44 
L 53.03 25.44 
z
" style="fill: #ffffff"/>
   </g>
   <g id="matplotlib.axis_1">
    <g id="xtick_1">
     <g id="line2d_1">
      <path d="M 87.092315 318.04 
L 87.092315 25.44 
" clip-path="url(#pfe9660c29a)" style="fill: none; stroke: #b0b0b0; stroke-width: 0.8; stroke-linecap: square"/>
     </g>
     <g id="line2d_2">
      <defs>
       <path id="mb372cec057" d="M 0 0 
L 0 3.5 
" style="stroke: #000000; stroke-width: 0.8"/>
      </defs>
      <g>
       <use xlink:href="#mb372cec057" x="87.092315" y="318.04" style="stroke: #000000; stroke-width: 0.8"/>
      </g>
     </g>
     <g id="text_1">
      <!-- 1960 -->
      <g transform="translate(74.367315 332.638438) scale(0.1 -0.1)">
       <defs>
        <path id="DejaVuSans-31" d="M 794 531 
L 1825 531 
L 1825 4091 
L 703 3866 
L 703 4441 
L 1819 4666 
L 2450 4666 
L 2450 531 
L 3481 531 
L 3481 0 
L 794 0 
L 794 531 
z
" transform="scale(0.015625)"/>
        <path id="DejaVuSans-39" d="M 703 97 
L 703 672 
Q 941 559 1184 500 
Q 1428 441 1663 441 
Q 2288 441 2617 861 
Q 2947 1281 2994 2138 
Q 2813 1869 2534 1725 
Q 2256 1581 1919 1581 
Q 1219 1581 811 2004 
Q 403 2428 403 3163 
Q 403 3881 828 4315 
Q 1253 4750 1959 4750 
Q 2769 4750 3195 4129 
Q 3622 3509 3622 2328 
Q 3622 1225 3098 567 
Q 2575 -91 1691 -91 
Q 1453 -91 1209 -44 
Q 966 3 703 97 
z
M 1959 2075 
Q 2384 2075 2632 2365 
Q 2881 2656 2881 3163 
Q 2881 3666 2632 3958 
Q 2384 4250 1959 4250 
Q 1534 4250 1286 3958 
Q 1038 3666 1038 3163 
Q 1038 2656 1286 2365 
Q 1534 2075 1959 2075 
z
" transform="scale(0.015625)"/>
        <path id="DejaVuSans-36" d="M 2113 2584 
Q 1688 2584 1439 2293 
Q 1191 2003 1191 1497 
Q 1191 994 1439 701 
Q 1688 409 2113 409 
Q 2538 409 2786 701 
Q 3034 994 3034 1497 
Q 3034 2003 2786 2293 
Q 2538 2584 2113 2584 
z
M 3366 4563 
L 3366 3988 
Q 3128 4100 2886 4159 
Q 2644 4219 2406 4219 
Q 1781 4219 1451 3797 
Q 1122 3375 1075 2522 
Q 1259 2794 1537 2939 
Q 1816 3084 2150 3084 
Q 2853 3084 3261 2657 
Q 3669 2231 3669 1497 
Q 3669 778 3244 343 
Q 2819 -91 2113 -91 
Q 1303 -91 875 529 
Q 447 1150 447 2328 
Q 447 3434 972 4092 
Q 1497 4750 2381 4750 
Q 2619 4750 2861 4703 
Q 3103 4656 3366 4563 
z
" transform="scale(0.015625)"/>
        <path id="DejaVuSans-30" d="M 2034 4250 
Q 1547 4250 1301 3770 
Q 1056 3291 1056 2328 
Q 1056 1369 1301 889 
Q 1547 409 2034 409 
Q 2525 409 2770 889 
Q 3016 1369 3016 2328 
Q 3016 3291 2770 3770 
Q 2525 4250 2034 4250 
z
M 2034 4750 
Q 2819 4750 3233 4129 
Q 3647 3509 3647 2328 
Q 3647 1150 3233 529 
Q 2819 -91 2034 -91 
Q 1250 -91 836 529 
Q 422 1150 422 2328 
Q 422 3509 836 4129 
Q 1250 4750 2034 4750 
z
" transform="scale(0.015625)"/>
       </defs>
       <use xlink:href="#DejaVuSans-31"/>
       <use xlink:href="#DejaVuSans-39" transform="translate(63.623047 0)"/>
       <use xlink:href="#DejaVuSans-36" transform="translate(127.246094 0)"/>
       <use xlink:href="#DejaVuSans-30" transform="translate(190.869141 0)"/>
      </g>
     </g>
    </g>
    <g id="xtick_2">
     <g id="line2d_3">
      <path d="M 227.67489 318.04 
L 227.67489 25.44 
" clip-path="url(#pfe9660c29a)" style="fill: none; stroke: #b0b0b0; stroke-width: 0.8; stroke-linecap: square"/>
     </g>
     <g id="line2d_4">
      <g>
       <use xlink:href="#mb372cec057" x="227.67489" y="318.04" style="stroke: #000000; stroke-width: 0.8"/>
      </g>
     </g>
     <g id="text_2">
      <!-- 1970 -->
      <g transform="translate(214.94989 332.638438) scale(0.1 -0.1)">
       <defs>
        <path id="DejaVuSans-37" d="M 525 4666 
L 3525 4666 
L 3525 4397 
L 1831 0 
L 1172 0 
L 2766 4134 
L 525 4134 
L 525 4666 
z
" transform="scale(0.015625)"/>
       </defs>
       <use xlink:href="#DejaVuSans-31"/>
       <use xlink:href="#DejaVuSans-39" transform="translate(63.623047 0)"/>
       <use xlink:href="#DejaVuSans-37" transform="translate(127.246094 0)"/>
       <use xlink:href="#DejaVuSans-30" transform="translate(190.869141 0)"/>
      </g>
     </g>
    </g>
    <g id="xtick_3">
     <g id="line2d_5">
      <path d="M 368.21898 318.04 
L 368.21898 25.44 
" clip-path="url(#pfe9660c29a)" style="fill: none; stroke: #b0b0b0; stroke-width: 0.8; stroke-linecap: square"/>
     </g>
     <g id="line2d_6">
      <g>
       <use xlink:href="#mb372cec057" x="368.21898" y="318.04" style="stroke: #000000; stroke-width: 0.8"/>
      </g>
     </g>
     <g id="text_3">
      <!-- 1980 -->
      <g transform="translate(355.49398 332.638438) scale(0.1 -0.1)">
       <defs>
        <path id="DejaVuSans-38" d="M 2034 2216 
Q 1584 2216 1326 1975 
Q 1069 1734 1069 1313 
Q 1069 891 1326 650 
Q 1584 409 2034 409 
Q 2484 409 2743 651 
Q 3003 894 3003 1313 
Q 3003 1734 2745 1975 
Q 2488 2216 2034 2216 
z
M 1403 2484 
Q 997 2584 770 2862 
Q 544 3141 544 3541 
Q 544 4100 942 4425 
Q 1341 4750 2034 4750 
Q 2731 4750 3128 4425 
Q 3525 4100 3525 3541 
Q 3525 3141 3298 2862 
Q 3072 2584 2669 2484 
Q 3125 2378 3379 2068 
Q 3634 1759 3634 1313 
Q 3634 634 3220 271 
Q 2806 -91 2034 -91 
Q 1263 -91 848 271 
Q 434 634 434 1313 
Q 434 1759 690 2068 
Q 947 2378 1403 2484 
z
M 1172 3481 
Q 1172 3119 1398 2916 
Q 1625 2713 2034 2713 
Q 2441 2713 2670 2916 
Q 2900 3119 2900 3481 
Q 2900 3844 2670 4047 
Q 2441 4250 2034 4250 
Q 1625 4250 1398 4047 
Q 1172 3844 1172 3481 
z
" transform="scale(0.015625)"/>
       </defs>
       <use xlink:href="#DejaVuSans-31"/>
       <use xlink:href="#DejaVuSans-39" transform="translate(63.623047 0)"/>
       <use xlink:href="#DejaVuSans-38" transform="translate(127.246094 0)"/>
       <use xlink:href="#DejaVuSans-30" transform="translate(190.869141 0)"/>
      </g>
     </g>
    </g>
    <g id="xtick_4">
     <g id="line2d_7">
      <path d="M 508.801555 318.04 
L 508.801555 25.44 
" clip-path="url(#pfe9660c29a)" style="fill: none; stroke: #b0b0b0; stroke-width: 0.8; stroke-linecap: square"/>
     </g>
     <g id="line2d_8">
      <g>
       <use xlink:href="#mb372cec057" x="508.801555" y="318.04" style="stroke: #000000; stroke-width: 0.8"/>
      </g>
     </g>
     <g id="text_4">
      <!-- 1990 -->
      <g transform="translate(496.076555 332.638438) scale(0.1 -0.1)">
       <use xlink:href="#DejaVuSans-31"/>
       <use xlink:href="#DejaVuSans-39" transform="translate(63.623047 0)"/>
       <use xlink:href="#DejaVuSans-39" transform="translate(127.246094 0)"/>
       <use xlink:href="#DejaVuSans-30" transform="translate(190.869141 0)"/>
      </g>
     </g>
    </g>
    <g id="xtick_5">
     <g id="line2d_9">
      <path d="M 649.345646 318.04 
L 649.345646 25.44 
" clip-path="url(#pfe9660c29a)" style="fill: none; stroke: #b0b0b0; stroke-width: 0.8; stroke-linecap: square"/>
     </g>
     <g id="line2d_10">
      <g>
       <use xlink:href="#mb372cec057" x="649.345646" y="318.04" style="stroke: #000000; stroke-width: 0.8"/>
      </g>
     </g>
     <g id="text_5">
      <!-- 2000 -->
      <g transform="translate(636.620646 332.638438) scale(0.1 -0.1)">
       <defs>
        <path id="DejaVuSans-32" d="M 1228 531 
L 3431 531 
L 3431 0 
L 469 0 
L 469 531 
Q 828 903 1448 1529 
Q 2069 2156 2228 2338 
Q 2531 2678 2651 2914 
Q 2772 3150 2772 3378 
Q 2772 3750 2511 3984 
Q 2250 4219 1831 4219 
Q 1534 4219 1204 4116 
Q 875 4013 500 3803 
L 500 4441 
Q 881 4594 1212 4672 
Q 1544 4750 1819 4750 
Q 2544 4750 2975 4387 
Q 3406 4025 3406 3419 
Q 3406 3131 3298 2873 
Q 3191 2616 2906 2266 
Q 2828 2175 2409 1742 
Q 1991 1309 1228 531 
z
" transform="scale(0.015625)"/>
       </defs>
       <use xlink:href="#DejaVuSans-32"/>
       <use xlink:href="#DejaVuSans-30" transform="translate(63.623047 0)"/>
       <use xlink:href="#DejaVuSans-30" transform="translate(127.246094 0)"/>
       <use xlink:href="#DejaVuSans-30" transform="translate(190.869141 0)"/>
      </g>
     </g>
    </g>
    <g id="xtick_6">
     <g id="line2d_11">
      <path d="M 789.92822 318.04 
L 789.92822 25.44 
" clip-path="url(#pfe9660c29a)" style="fill: none; stroke: #b0b0b0; stroke-width: 0.8; stroke-linecap: square"/>
     </g>
     <g id="line2d_12">
      <g>
       <use xlink:href="#mb372cec057" x="789.92822" y="318.04" style="stroke: #000000; stroke-width: 0.8"/>
      </g>
     </g>
     <g id="text_6">
      <!-- 2010 -->
      <g transform="translate(777.20322 332.638438) scale(0.1 -0.1)">
       <use xlink:href="#DejaVuSans-32"/>
       <use xlink:href="#DejaVuSans-30" transform="translate(63.623047 0)"/>
       <use xlink:href="#DejaVuSans-31" transform="translate(127.246094 0)"/>
       <use xlink:href="#DejaVuSans-30" transform="translate(190.869141 0)"/>
      </g>
     </g>
    </g>
    <g id="text_7">
     <!-- Date -->
     <g transform="translate(441.164219 346.316563) scale(0.1 -0.1)">
      <defs>
       <path id="DejaVuSans-44" d="M 1259 4147 
L 1259 519 
L 2022 519 
Q 2988 519 3436 956 
Q 3884 1394 3884 2338 
Q 3884 3275 3436 3711 
Q 2988 4147 2022 4147 
L 1259 4147 
z
M 628 4666 
L 1925 4666 
Q 3281 4666 3915 4102 
Q 4550 3538 4550 2338 
Q 4550 1131 3912 565 
Q 3275 0 1925 0 
L 628 0 
L 628 4666 
z
" transform="scale(0.015625)"/>
       <path id="DejaVuSans-61" d="M 2194 1759 
Q 1497 1759 1228 1600 
Q 959 1441 959 1056 
Q 959 750 1161 570 
Q 1363 391 1709 391 
Q 2188 391 2477 730 
Q 2766 1069 2766 1631 
L 2766 1759 
L 2194 1759 
z
M 3341 1997 
L 3341 0 
L 2766 0 
L 2766 531 
Q 2569 213 2275 61 
Q 1981 -91 1556 -91 
Q 1019 -91 701 211 
Q 384 513 384 1019 
Q 384 1609 779 1909 
Q 1175 2209 1959 2209 
L 2766 2209 
L 2766 2266 
Q 2766 2663 2505 2880 
Q 2244 3097 1772 3097 
Q 1472 3097 1187 3025 
Q 903 2953 641 2809 
L 641 3341 
Q 956 3463 1253 3523 
Q 1550 3584 1831 3584 
Q 2591 3584 2966 3190 
Q 3341 2797 3341 1997 
z
" transform="scale(0.015625)"/>
       <path id="DejaVuSans-74" d="M 1172 4494 
L 1172 3500 
L 2356 3500 
L 2356 3053 
L 1172 3053 
L 1172 1153 
Q 1172 725 1289 603 
Q 1406 481 1766 481 
L 2356 481 
L 2356 0 
L 1766 0 
Q 1100 0 847 248 
Q 594 497 594 1153 
L 594 3053 
L 172 3053 
L 172 3500 
L 594 3500 
L 594 4494 
L 1172 4494 
z
" transform="scale(0.015625)"/>
       <path id="DejaVuSans-65" d="M 3597 1894 
L 3597 1613 
L 953 1613 
Q 991 1019 1311 708 
Q 1631 397 2203 397 
Q 2534 397 2845 478 
Q 3156 559 3463 722 
L 3463 178 
Q 3153 47 2828 -22 
Q 2503 -91 2169 -91 
Q 1331 -91 842 396 
Q 353 884 353 1716 
Q 353 2575 817 3079 
Q 1281 3584 2069 3584 
Q 2775 3584 3186 3129 
Q 3597 2675 3597 1894 
z
M 3022 2063 
Q 3016 2534 2758 2815 
Q 2500 3097 2075 3097 
Q 1594 3097 1305 2825 
Q 1016 2553 972 2059 
L 3022 2063 
z
" transform="scale(0.015625)"/>
      </defs>
      <use xlink:href="#DejaVuSans-44"/>
      <use xlink:href="#DejaVuSans-61" transform="translate(77.001953 0)"/>
      <use xlink:href="#DejaVuSans-74" transform="translate(138.28125 0)"/>
      <use xlink:href="#DejaVuSans-65" transform="translate(177.490234 0)"/>
     </g>
    </g>
   </g>
   <g id="matplotlib.axis_2">
    <g id="ytick_1">
     <g id="line2d_13">
      <path d="M 53.03 316.780136 
L 853.2 316.780136 
" clip-path="url(#pfe9660c29a)" style="fill: none; stroke: #b0b0b0; stroke-width: 0.8; stroke-linecap: square"/>
     </g>
     <g id="line2d_14">
      <defs>
       <path id="m4788c1e8ac" d="M 0 0 
L -3.5 0 
" style="stroke: #000000; stroke-width: 0.8"/>
      </defs>
      <g>
       <use xlink:href="#m4788c1e8ac" x="53.03" y="316.780136" style="stroke: #000000; stroke-width: 0.8"/>
      </g>
     </g>
     <g id="text_8">
      <!-- −50 -->
      <g transform="translate(24.925313 320.579355) scale(0.1 -0.1)">
       <defs>
        <path id="DejaVuSans-2212" d="M 678 2272 
L 4684 2272 
L 4684 1741 
L 678 1741 
L 678 2272 
z
" transform="scale(0.015625)"/>
        <path id="DejaVuSans-35" d="M 691 4666 
L 3169 4666 
L 3169 4134 
L 1269 4134 
L 1269 2991 
Q 1406 3038 1543 3061 
Q 1681 3084 1819 3084 
Q 2600 3084 3056 2656 
Q 3513 2228 3513 1497 
Q 3513 744 3044 326 
Q 2575 -91 1722 -91 
Q 1428 -91 1123 -41 
Q 819 9 494 109 
L 494 744 
Q 775 591 1075 516 
Q 1375 441 1709 441 
Q 2250 441 2565 725 
Q 2881 1009 2881 1497 
Q 2881 1984 2565 2268 
Q 2250 2553 1709 2553 
Q 1456 2553 1204 2497 
Q 953 2441 691 2322 
L 691 4666 
z
" transform="scale(0.015625)"/>
       </defs>
       <use xlink:href="#DejaVuSans-2212"/>
       <use xlink:href="#DejaVuSans-35" transform="translate(83.789062 0)"/>
       <use xlink:href="#DejaVuSans-30" transform="translate(147.412109 0)"/>
      </g>
     </g>
    </g>
    <g id="ytick_2">
     <g id="line2d_15">
      <path d="M 53.03 270.018911 
L 853.2 270.018911 
" clip-path="url(#pfe9660c29a)" style="fill: none; stroke: #b0b0b0; stroke-width: 0.8; stroke-linecap: square"/>
     </g>
     <g id="line2d_16">
      <g>
       <use xlink:href="#m4788c1e8ac" x="53.03" y="270.018911" style="stroke: #000000; stroke-width: 0.8"/>
      </g>
     </g>
     <g id="text_9">
      <!-- −40 -->
      <g transform="translate(24.925313 273.818129) scale(0.1 -0.1)">
       <defs>
        <path id="DejaVuSans-34" d="M 2419 4116 
L 825 1625 
L 2419 1625 
L 2419 4116 
z
M 2253 4666 
L 3047 4666 
L 3047 1625 
L 3713 1625 
L 3713 1100 
L 3047 1100 
L 3047 0 
L 2419 0 
L 2419 1100 
L 313 1100 
L 313 1709 
L 2253 4666 
z
" transform="scale(0.015625)"/>
       </defs>
       <use xlink:href="#DejaVuSans-2212"/>
       <use xlink:href="#DejaVuSans-34" transform="translate(83.789062 0)"/>
       <use xlink:href="#DejaVuSans-30" transform="translate(147.412109 0)"/>
      </g>
     </g>
    </g>
    <g id="ytick_3">
     <g id="line2d_17">
      <path d="M 53.03 223.257685 
L 853.2 223.257685 
" clip-path="url(#pfe9660c29a)" style="fill: none; stroke: #b0b0b0; stroke-width: 0.8; stroke-linecap: square"/>
     </g>
     <g id="line2d_18">
      <g>
       <use xlink:href="#m4788c1e8ac" x="53.03" y="223.257685" style="stroke: #000000; stroke-width: 0.8"/>
      </g>
     </g>
     <g id="text_10">
      <!-- −30 -->
      <g transform="translate(24.925313 227.056904) scale(0.1 -0.1)">
       <defs>
        <path id="DejaVuSans-33" d="M 2597 2516 
Q 3050 2419 3304 2112 
Q 3559 1806 3559 1356 
Q 3559 666 3084 287 
Q 2609 -91 1734 -91 
Q 1441 -91 1130 -33 
Q 819 25 488 141 
L 488 750 
Q 750 597 1062 519 
Q 1375 441 1716 441 
Q 2309 441 2620 675 
Q 2931 909 2931 1356 
Q 2931 1769 2642 2001 
Q 2353 2234 1838 2234 
L 1294 2234 
L 1294 2753 
L 1863 2753 
Q 2328 2753 2575 2939 
Q 2822 3125 2822 3475 
Q 2822 3834 2567 4026 
Q 2313 4219 1838 4219 
Q 1578 4219 1281 4162 
Q 984 4106 628 3988 
L 628 4550 
Q 988 4650 1302 4700 
Q 1616 4750 1894 4750 
Q 2613 4750 3031 4423 
Q 3450 4097 3450 3541 
Q 3450 3153 3228 2886 
Q 3006 2619 2597 2516 
z
" transform="scale(0.015625)"/>
       </defs>
       <use xlink:href="#DejaVuSans-2212"/>
       <use xlink:href="#DejaVuSans-33" transform="translate(83.789062 0)"/>
       <use xlink:href="#DejaVuSans-30" transform="translate(147.412109 0)"/>
      </g>
     </g>
    </g>
    <g id="ytick_4">
     <g id="line2d_19">
      <path d="M 53.03 176.49646 
L 853.2 176.49646 
" clip-path="url(#pfe9660c29a)" style="fill: none; stroke: #b0b0b0; stroke-width: 0.8; stroke-linecap: square"/>
     </g>
     <g id="line2d_20">
      <g>
       <use xlink:href="#m4788c1e8ac" x="53.03" y="176.49646" style="stroke: #000000; stroke-width: 0.8"/>
      </g>
     </g>
     <g id="text_11">
      <!-- −20 -->
      <g transform="translate(24.925313 180.295679) scale(0.1 -0.1)">
       <use xlink:href="#DejaVuSans-2212"/>
       <use xlink:href="#DejaVuSans-32" transform="translate(83.789062 0)"/>
       <use xlink:href="#DejaVuSans-30" transform="translate(147.412109 0)"/>
      </g>
     </g>
    </g>
    <g id="ytick_5">
     <g id="line2d_21">
      <path d="M 53.03 129.735235 
L 853.2 129.735235 
" clip-path="url(#pfe9660c29a)" style="fill: none; stroke: #b0b0b0; stroke-width: 0.8; stroke-linecap: square"/>
     </g>
     <g id="line2d_22">
      <g>
       <use xlink:href="#m4788c1e8ac" x="53.03" y="129.735235" style="stroke: #000000; stroke-width: 0.8"/>
      </g>
     </g>
     <g id="text_12">
      <!-- −10 -->
      <g transform="translate(24.925313 133.534454) scale(0.1 -0.1)">
       <use xlink:href="#DejaVuSans-2212"/>
       <use xlink:href="#DejaVuSans-31" transform="translate(83.789062 0)"/>
       <use xlink:href="#DejaVuSans-30" transform="translate(147.412109 0)"/>
      </g>
     </g>
    </g>
    <g id="ytick_6">
     <g id="line2d_23">
      <path d="M 53.03 82.97401 
L 853.2 82.97401 
" clip-path="url(#pfe9660c29a)" style="fill: none; stroke: #b0b0b0; stroke-width: 0.8; stroke-linecap: square"/>
     </g>
     <g id="line2d_24">
      <g>
       <use xlink:href="#m4788c1e8ac" x="53.03" y="82.97401" style="stroke: #000000; stroke-width: 0.8"/>
      </g>
     </g>
     <g id="text_13">
      <!-- 0 -->
      <g transform="translate(39.6675 86.773229) scale(0.1 -0.1)">
       <use xlink:href="#DejaVuSans-30"/>
      </g>
     </g>
    </g>
    <g id="ytick_7">
     <g id="line2d_25">
      <path d="M 53.03 36.212785 
L 853.2 36.212785 
" clip-path="url(#pfe9660c29a)" style="fill: none; stroke: #b0b0b0; stroke-width: 0.8; stroke-linecap: square"/>
     </g>
     <g id="line2d_26">
      <g>
       <use xlink:href="#m4788c1e8ac" x="53.03" y="36.212785" style="stroke: #000000; stroke-width: 0.8"/>
      </g>
     </g>
     <g id="text_14">
      <!-- 10 -->
      <g transform="translate(33.305 40.012003) scale(0.1 -0.1)">
       <use xlink:href="#DejaVuSans-31"/>
       <use xlink:href="#DejaVuSans-30" transform="translate(63.623047 0)"/>
      </g>
     </g>
    </g>
    <g id="text_15">
     <!-- Residual / ppm -->
     <g transform="translate(18.845625 208.936875) rotate(-90) scale(0.1 -0.1)">
      <defs>
       <path id="DejaVuSans-52" d="M 2841 2188 
Q 3044 2119 3236 1894 
Q 3428 1669 3622 1275 
L 4263 0 
L 3584 0 
L 2988 1197 
Q 2756 1666 2539 1819 
Q 2322 1972 1947 1972 
L 1259 1972 
L 1259 0 
L 628 0 
L 628 4666 
L 2053 4666 
Q 2853 4666 3247 4331 
Q 3641 3997 3641 3322 
Q 3641 2881 3436 2590 
Q 3231 2300 2841 2188 
z
M 1259 4147 
L 1259 2491 
L 2053 2491 
Q 2509 2491 2742 2702 
Q 2975 2913 2975 3322 
Q 2975 3731 2742 3939 
Q 2509 4147 2053 4147 
L 1259 4147 
z
" transform="scale(0.015625)"/>
       <path id="DejaVuSans-73" d="M 2834 3397 
L 2834 2853 
Q 2591 2978 2328 3040 
Q 2066 3103 1784 3103 
Q 1356 3103 1142 2972 
Q 928 2841 928 2578 
Q 928 2378 1081 2264 
Q 1234 2150 1697 2047 
L 1894 2003 
Q 2506 1872 2764 1633 
Q 3022 1394 3022 966 
Q 3022 478 2636 193 
Q 2250 -91 1575 -91 
Q 1294 -91 989 -36 
Q 684 19 347 128 
L 347 722 
Q 666 556 975 473 
Q 1284 391 1588 391 
Q 1994 391 2212 530 
Q 2431 669 2431 922 
Q 2431 1156 2273 1281 
Q 2116 1406 1581 1522 
L 1381 1569 
Q 847 1681 609 1914 
Q 372 2147 372 2553 
Q 372 3047 722 3315 
Q 1072 3584 1716 3584 
Q 2034 3584 2315 3537 
Q 2597 3491 2834 3397 
z
" transform="scale(0.015625)"/>
       <path id="DejaVuSans-69" d="M 603 3500 
L 1178 3500 
L 1178 0 
L 603 0 
L 603 3500 
z
M 603 4863 
L 1178 4863 
L 1178 4134 
L 603 4134 
L 603 4863 
z
" transform="scale(0.015625)"/>
       <path id="DejaVuSans-64" d="M 2906 2969 
L 2906 4863 
L 3481 4863 
L 3481 0 
L 2906 0 
L 2906 525 
Q 2725 213 2448 61 
Q 2172 -91 1784 -91 
Q 1150 -91 751 415 
Q 353 922 353 1747 
Q 353 2572 751 3078 
Q 1150 3584 1784 3584 
Q 2172 3584 2448 3432 
Q 2725 3281 2906 2969 
z
M 947 1747 
Q 947 1113 1208 752 
Q 1469 391 1925 391 
Q 2381 391 2643 752 
Q 2906 1113 2906 1747 
Q 2906 2381 2643 2742 
Q 2381 3103 1925 3103 
Q 1469 3103 1208 2742 
Q 947 2381 947 1747 
z
" transform="scale(0.015625)"/>
       <path id="DejaVuSans-75" d="M 544 1381 
L 544 3500 
L 1119 3500 
L 1119 1403 
Q 1119 906 1312 657 
Q 1506 409 1894 409 
Q 2359 409 2629 706 
Q 2900 1003 2900 1516 
L 2900 3500 
L 3475 3500 
L 3475 0 
L 2900 0 
L 2900 538 
Q 2691 219 2414 64 
Q 2138 -91 1772 -91 
Q 1169 -91 856 284 
Q 544 659 544 1381 
z
M 1991 3584 
L 1991 3584 
z
" transform="scale(0.015625)"/>
       <path id="DejaVuSans-6c" d="M 603 4863 
L 1178 4863 
L 1178 0 
L 603 0 
L 603 4863 
z
" transform="scale(0.015625)"/>
       <path id="DejaVuSans-20" transform="scale(0.015625)"/>
       <path id="DejaVuSans-2f" d="M 1625 4666 
L 2156 4666 
L 531 -594 
L 0 -594 
L 1625 4666 
z
" transform="scale(0.015625)"/>
       <path id="DejaVuSans-70" d="M 1159 525 
L 1159 -1331 
L 581 -1331 
L 581 3500 
L 1159 3500 
L 1159 2969 
Q 1341 3281 1617 3432 
Q 1894 3584 2278 3584 
Q 2916 3584 3314 3078 
Q 3713 2572 3713 1747 
Q 3713 922 3314 415 
Q 2916 -91 2278 -91 
Q 1894 -91 1617 61 
Q 1341 213 1159 525 
z
M 3116 1747 
Q 3116 2381 2855 2742 
Q 2594 3103 2138 3103 
Q 1681 3103 1420 2742 
Q 1159 2381 1159 1747 
Q 1159 1113 1420 752 
Q 1681 391 2138 391 
Q 2594 391 2855 752 
Q 3116 1113 3116 1747 
z
" transform="scale(0.015625)"/>
       <path id="DejaVuSans-6d" d="M 3328 2828 
Q 3544 3216 3844 3400 
Q 4144 3584 4550 3584 
Q 5097 3584 5394 3201 
Q 5691 2819 5691 2113 
L 5691 0 
L 5113 0 
L 5113 2094 
Q 5113 2597 4934 2840 
Q 4756 3084 4391 3084 
Q 3944 3084 3684 2787 
Q 3425 2491 3425 1978 
L 3425 0 
L 2847 0 
L 2847 2094 
Q 2847 2600 2669 2842 
Q 2491 3084 2119 3084 
Q 1678 3084 1418 2786 
Q 1159 2488 1159 1978 
L 1159 0 
L 581 0 
L 581 3500 
L 1159 3500 
L 1159 2956 
Q 1356 3278 1631 3431 
Q 1906 3584 2284 3584 
Q 2666 3584 2933 3390 
Q 3200 3197 3328 2828 
z
" transform="scale(0.015625)"/>
      </defs>
      <use xlink:href="#DejaVuSans-52"/>
      <use xlink:href="#DejaVuSans-65" transform="translate(64.982422 0)"/>
      <use xlink:href="#DejaVuSans-73" transform="translate(126.505859 0)"/>
      <use xlink:href="#DejaVuSans-69" transform="translate(178.605469 0)"/>
      <use xlink:href="#DejaVuSans-64" transform="translate(206.388672 0)"/>
      <use xlink:href="#DejaVuSans-75" transform="translate(269.865234 0)"/>
      <use xlink:href="#DejaVuSans-61" transform="translate(333.244141 0)"/>
      <use xlink:href="#DejaVuSans-6c" transform="translate(394.523438 0)"/>
      <use xlink:href="#DejaVuSans-20" transform="translate(422.306641 0)"/>
      <use xlink:href="#DejaVuSans-2f" transform="translate(454.09375 0)"/>
      <use xlink:href="#DejaVuSans-20" transform="translate(487.785156 0)"/>
      <use xlink:href="#DejaVuSans-70" transform="translate(519.572266 0)"/>
      <use xlink:href="#DejaVuSans-70" transform="translate(583.048828 0)"/>
      <use xlink:href="#DejaVuSans-6d" transform="translate(646.525391 0)"/>
     </g>
    </g>
   </g>
   <g id="line2d_27">
    <path d="M 53.03 82.97401 
L 853.2 82.97401 
" clip-path="url(#pfe9660c29a)" style="fill: none; stroke-dasharray: 5.55,2.4; stroke-dashoffset: 0; stroke: #808080; stroke-width: 1.5"/>
   </g>
   <g id="line2d_28">
    <path d="M 89.401364 304.74 
L 90.594372 38.74 
L 91.748896 80.36866 
L 92.941905 84.642412 
L 94.096429 82.374852 
L 95.289438 87.007796 
L 96.482446 85.108889 
L 97.63697 81.548063 
L 98.829979 83.525827 
L 99.984503 81.794293 
L 101.177511 84.042837 
L 102.37052 84.546888 
L 103.448076 110.151509 
L 104.641084 84.873566 
L 105.795609 82.237821 
L 106.988617 85.036929 
L 108.143141 82.476989 
L 109.33615 81.644016 
L 110.529158 83.980674 
L 111.683682 79.816657 
L 112.876691 84.109155 
L 114.031215 83.897102 
L 115.224224 82.535079 
L 116.417232 83.448158 
L 117.494788 81.141481 
L 118.687797 83.930592 
L 119.842321 85.644655 
L 121.035329 83.308952 
L 122.189854 81.684347 
L 123.382862 83.562307 
L 124.57587 80.799067 
L 125.730395 85.519727 
L 126.923403 82.78367 
L 128.077927 83.180048 
L 129.270936 81.984688 
L 130.463944 84.358943 
L 131.5415 83.739815 
L 132.734509 81.519876 
L 133.889033 82.279573 
L 136.236566 85.519543 
L 137.429574 83.505616 
L 138.622583 83.692308 
L 139.777107 82.680399 
L 140.970115 83.270872 
L 142.12464 81.921082 
L 143.317648 81.003375 
L 144.510657 82.814555 
L 145.626697 83.352638 
L 146.819705 83.673242 
L 147.974229 85.286673 
L 149.167238 82.915962 
L 150.321762 83.493464 
L 151.514771 81.923353 
L 152.707779 84.750099 
L 153.862303 81.535961 
L 155.055312 83.987013 
L 156.209836 83.513947 
L 157.402844 84.267541 
L 158.595853 81.499302 
L 159.673409 84.308167 
L 160.866417 83.00587 
L 162.020942 86.373064 
L 164.368474 80.062971 
L 165.561483 83.69182 
L 166.754491 80.528994 
L 167.909016 83.492422 
L 169.102024 80.66486 
L 170.256548 84.595959 
L 171.449557 82.023169 
L 172.642565 81.179866 
L 173.720121 82.102554 
L 174.91313 82.101675 
L 176.067654 83.829589 
L 177.260662 82.480848 
L 178.415187 83.399874 
L 179.608195 82.953885 
L 180.801203 84.064693 
L 181.955728 84.621236 
L 183.148736 81.203854 
L 184.303261 81.349349 
L 185.496269 80.76619 
L 186.689277 84.509446 
L 187.766833 84.444847 
L 188.959842 82.795256 
L 190.114366 83.11089 
L 191.307375 85.184679 
L 192.461899 84.953189 
L 193.654907 81.996517 
L 194.847916 83.31366 
L 196.00244 81.077122 
L 197.195448 81.730784 
L 198.349973 81.555722 
L 199.542981 84.224563 
L 200.73599 83.507113 
L 201.85203 83.110622 
L 203.045038 83.615493 
L 204.199562 83.401068 
L 205.392571 81.760339 
L 206.547095 82.251087 
L 207.740104 82.892861 
L 208.933112 84.036698 
L 210.087636 82.612082 
L 211.280645 83.735859 
L 212.435169 80.770379 
L 213.628178 81.558964 
L 214.821186 83.444873 
L 215.898742 80.751535 
L 217.09175 83.142512 
L 218.246275 82.241542 
L 219.439283 83.729487 
L 220.593807 81.039425 
L 221.786816 83.429093 
L 222.979824 81.598642 
L 224.134349 84.217379 
L 225.327357 84.096552 
L 226.481881 82.82877 
L 227.67489 83.284803 
L 228.867898 81.501907 
L 229.945454 81.767374 
L 231.138463 82.539351 
L 232.292987 85.781795 
L 233.485995 83.443348 
L 234.64052 83.748565 
L 235.833528 81.754181 
L 237.026537 82.834331 
L 238.181061 81.838887 
L 239.374069 83.828657 
L 240.528594 83.259658 
L 241.721602 82.806949 
L 242.91461 83.552318 
L 243.992166 84.613723 
L 245.185175 86.470597 
L 246.339699 81.382746 
L 247.532708 82.189891 
L 249.88024 82.609929 
L 251.073249 85.189438 
L 252.227773 81.770835 
L 253.420781 82.455778 
L 254.575306 82.482715 
L 255.768314 83.88068 
L 256.961323 82.089706 
L 258.077363 85.807761 
L 259.270371 80.030264 
L 260.424896 83.417761 
L 261.617904 85.33847 
L 262.772428 82.988868 
L 263.965437 81.983582 
L 265.158445 82.118867 
L 266.312969 80.031304 
L 268.660502 82.72929 
L 269.853511 82.572793 
L 271.046519 81.145556 
L 272.124075 82.224708 
L 273.317083 82.851963 
L 274.471608 80.795922 
L 275.664616 81.661685 
L 276.81914 82.283873 
L 278.012149 80.938069 
L 279.205157 83.206161 
L 280.359682 83.874275 
L 281.55269 84.30626 
L 282.707214 86.632217 
L 283.900223 85.649674 
L 285.093231 81.107837 
L 286.170787 82.297761 
L 288.51832 83.348559 
L 289.711328 85.431881 
L 290.865853 83.479077 
L 292.058861 83.476833 
L 293.25187 84.145622 
L 294.406394 82.991487 
L 295.599402 83.777202 
L 296.753927 82.398166 
L 297.946935 81.851764 
L 299.139943 82.75042 
L 300.217499 83.858612 
L 301.410508 83.621059 
L 302.565032 82.105622 
L 303.758041 82.524718 
L 304.912565 83.967296 
L 306.105573 83.903439 
L 307.298582 82.609945 
L 308.453106 83.048896 
L 309.646115 83.72275 
L 310.800639 82.026838 
L 311.993647 83.541257 
L 313.186656 81.162195 
L 314.302696 82.691888 
L 315.495704 82.023793 
L 316.650229 85.761342 
L 317.843237 84.886834 
L 318.997761 82.264156 
L 320.19077 85.30223 
L 321.383778 84.293779 
L 322.538302 84.132334 
L 323.731311 82.166092 
L 324.885835 81.172083 
L 326.078844 81.747507 
L 327.271852 84.049363 
L 328.349408 78.105694 
L 329.542417 81.634602 
L 330.696941 81.109427 
L 331.889949 82.966883 
L 333.044474 83.314246 
L 334.237482 84.877259 
L 335.43049 81.975711 
L 336.585015 82.221784 
L 337.778023 82.707614 
L 338.932547 82.938833 
L 340.125556 81.237446 
L 341.318564 84.497769 
L 342.39612 80.605148 
L 343.589129 83.175617 
L 344.743653 84.288035 
L 345.936661 80.72984 
L 347.091186 83.687708 
L 348.284194 83.59972 
L 349.477203 85.486324 
L 350.631727 82.968472 
L 351.824735 82.521697 
L 352.97926 82.903696 
L 354.172268 81.857087 
L 355.365277 83.583534 
L 356.442833 79.633493 
L 357.635841 84.983865 
L 358.790365 84.063234 
L 359.983374 80.88455 
L 361.137898 84.705711 
L 362.330906 82.65231 
L 363.523915 83.442964 
L 364.678439 81.427852 
L 365.871448 83.062625 
L 367.025972 81.443338 
L 368.21898 82.127309 
L 369.411989 83.942442 
L 370.528029 79.620591 
L 371.721037 83.22347 
L 372.875562 83.08365 
L 374.06857 81.111001 
L 375.223094 85.323358 
L 376.416103 82.739407 
L 377.609111 82.10341 
L 378.763636 82.948371 
L 379.956644 83.030317 
L 381.111168 83.997844 
L 382.304177 83.543482 
L 383.497185 80.606704 
L 384.574741 81.963545 
L 385.76775 83.251177 
L 386.922274 83.490212 
L 388.115282 83.47509 
L 389.269807 85.006046 
L 390.462815 85.497802 
L 391.655823 83.577443 
L 392.810348 82.642256 
L 394.003356 81.388784 
L 395.157881 81.694772 
L 396.350889 82.533503 
L 397.543897 82.395742 
L 398.621453 82.836761 
L 399.814462 82.501603 
L 400.968986 81.538308 
L 402.161995 84.574539 
L 403.316519 83.844757 
L 405.702536 84.695311 
L 406.85706 83.387506 
L 408.050068 84.184652 
L 409.204593 82.890125 
L 410.397601 84.243633 
L 411.59061 81.242047 
L 412.668166 84.709375 
L 413.861174 79.189314 
L 415.015698 80.972824 
L 416.208707 81.638093 
L 417.363231 82.54282 
L 418.55624 81.82446 
L 419.749248 84.471666 
L 420.903772 82.952518 
L 422.096781 82.769239 
L 423.251305 81.993883 
L 425.637322 83.333864 
L 426.753362 84.258393 
L 427.94637 81.170724 
L 429.100895 83.280498 
L 430.293903 83.742827 
L 431.448427 83.09232 
L 432.641436 83.350563 
L 433.834444 85.396294 
L 434.988969 82.562691 
L 436.181977 81.981926 
L 437.336501 80.548741 
L 438.52951 84.62013 
L 439.722518 82.728592 
L 440.800074 80.656323 
L 441.993083 84.422954 
L 443.147607 83.109003 
L 444.340615 83.767896 
L 445.49514 84.93434 
L 446.688148 82.029101 
L 447.881157 83.141894 
L 449.035681 83.660776 
L 450.228689 82.561541 
L 451.383214 82.413606 
L 452.576222 84.159197 
L 453.76923 83.996689 
L 454.846786 84.692142 
L 456.039795 81.816046 
L 458.387328 82.985058 
L 459.541852 84.308288 
L 460.73486 84.049655 
L 461.927869 78.618631 
L 463.082393 84.642234 
L 464.275401 82.608328 
L 465.429926 83.082843 
L 466.622934 81.602667 
L 467.815943 85.383356 
L 468.893499 84.225114 
L 470.086507 82.135204 
L 471.241031 82.036895 
L 472.43404 82.97148 
L 473.588564 82.527131 
L 474.781573 82.948332 
L 475.974581 82.529655 
L 477.129105 82.309507 
L 478.322114 82.330119 
L 479.476638 83.222567 
L 480.669646 81.772115 
L 481.862655 80.541816 
L 482.978695 83.084073 
L 484.171703 83.326146 
L 485.326228 82.746281 
L 486.519236 82.768943 
L 487.67376 81.165716 
L 488.866769 83.980603 
L 490.059777 82.614827 
L 491.214302 80.911998 
L 492.40731 83.351382 
L 493.561834 83.438914 
L 494.754843 80.941016 
L 495.947851 84.427106 
L 497.025407 84.904939 
L 498.218416 82.080267 
L 499.37294 84.619539 
L 500.565948 83.595138 
L 501.720473 83.166179 
L 502.913481 84.073206 
L 504.10649 84.185546 
L 505.261014 82.311065 
L 506.454022 83.070784 
L 507.608547 82.678934 
L 508.801555 83.306605 
L 509.994563 80.674007 
L 511.072119 83.622547 
L 512.265128 86.355493 
L 513.419652 82.230007 
L 514.612661 85.250928 
L 515.767185 84.155674 
L 516.960193 82.70802 
L 518.153202 83.308676 
L 519.307726 81.744263 
L 520.500735 81.751279 
L 521.655259 82.615197 
L 522.848267 85.120823 
L 524.041276 83.410646 
L 525.118832 80.540261 
L 526.31184 81.25945 
L 528.659373 84.985066 
L 529.813897 86.097593 
L 531.006906 85.751709 
L 532.199914 84.321365 
L 533.354438 83.565669 
L 534.547447 82.505361 
L 535.701971 82.764278 
L 536.89498 82.272186 
L 538.087988 82.334026 
L 539.204028 83.760154 
L 540.397037 83.481239 
L 541.551561 83.673436 
L 542.744569 81.828032 
L 543.899094 86.492243 
L 545.092102 84.688571 
L 546.28511 85.525124 
L 547.439635 82.519874 
L 548.632643 84.343016 
L 549.787167 83.681596 
L 550.980176 81.45085 
L 552.173184 84.915214 
L 553.25074 82.46803 
L 554.443749 85.050257 
L 555.598273 82.325424 
L 556.791281 83.390943 
L 557.945806 86.161323 
L 559.138814 82.524084 
L 560.331823 82.906382 
L 561.486347 83.074552 
L 562.679355 82.901097 
L 563.83388 82.017323 
L 565.026888 81.267452 
L 566.219897 82.735636 
L 567.297453 82.45099 
L 568.490461 82.682988 
L 569.644985 83.837295 
L 570.837994 84.432592 
L 571.992518 82.734625 
L 573.185526 82.581548 
L 574.378535 83.295487 
L 575.533059 81.891544 
L 577.880592 81.962135 
L 579.0736 83.15404 
L 580.266609 82.138003 
L 581.344165 82.689595 
L 582.537173 81.810409 
L 583.691698 83.540724 
L 584.884706 82.682369 
L 586.03923 82.683784 
L 587.232239 84.919234 
L 588.425247 80.592493 
L 589.579771 83.795047 
L 590.77278 82.313295 
L 591.927304 83.343905 
L 593.120313 81.605537 
L 594.313321 80.742245 
L 595.429361 82.477089 
L 596.62237 86.546585 
L 597.776894 84.384791 
L 598.969902 81.886096 
L 600.124427 81.589825 
L 602.510443 84.165341 
L 604.857976 83.301879 
L 606.012501 83.056117 
L 607.205509 84.286741 
L 608.398517 82.762282 
L 609.476073 85.579228 
L 610.669082 80.726294 
L 611.823606 83.838871 
L 613.016615 85.458651 
L 614.171139 82.477586 
L 615.364147 83.100266 
L 616.557156 84.54327 
L 617.71168 81.614155 
L 618.904688 80.931653 
L 620.059213 79.751138 
L 621.252221 82.571935 
L 622.44523 83.172454 
L 623.522786 81.462543 
L 624.715794 81.707166 
L 625.870318 81.436245 
L 627.063327 81.51608 
L 628.217851 80.474504 
L 629.41086 81.151925 
L 630.603868 83.621086 
L 631.758392 81.940928 
L 632.951401 83.740078 
L 634.105925 82.048731 
L 635.298933 82.827734 
L 636.491942 82.434095 
L 637.569498 84.768436 
L 638.762506 83.158857 
L 639.917031 86.074289 
L 641.110039 84.622566 
L 642.264563 80.739481 
L 643.457572 84.776385 
L 644.65058 85.544994 
L 645.805104 82.075436 
L 646.998113 82.723925 
L 648.152637 82.974366 
L 649.345646 82.36854 
L 650.538654 85.541639 
L 651.654694 83.215998 
L 652.847703 83.463133 
L 654.002227 86.641786 
L 655.195235 80.963405 
L 656.34976 84.495995 
L 657.542768 81.829241 
L 658.735777 79.885731 
L 659.890301 82.721855 
L 661.083309 82.721923 
L 662.237834 83.391713 
L 663.430842 83.781909 
L 664.62385 82.596363 
L 665.701406 83.012813 
L 666.894415 84.596389 
L 668.048939 83.483392 
L 669.241948 83.899785 
L 670.396472 84.493528 
L 671.58948 82.99591 
L 672.782489 82.13991 
L 673.937013 82.356496 
L 675.130021 82.773043 
L 676.284546 82.547263 
L 677.477554 81.773229 
L 678.670563 83.255254 
L 679.748119 82.979141 
L 680.941127 84.608618 
L 682.095651 82.227606 
L 683.28866 81.418317 
L 684.443184 82.727207 
L 685.636193 83.141234 
L 686.829201 80.424419 
L 687.983725 84.045906 
L 689.176734 81.551234 
L 690.331258 81.928175 
L 691.524266 82.549171 
L 692.717275 82.8531 
L 693.794831 83.482931 
L 694.987839 82.813129 
L 696.142364 81.091831 
L 697.335372 81.641316 
L 699.682905 84.083395 
L 700.875913 81.748228 
L 702.030438 83.543099 
L 703.223446 82.449015 
L 704.37797 83.296744 
L 705.570979 83.438751 
L 706.763987 82.772098 
L 707.880027 82.569915 
L 709.073036 81.586142 
L 710.22756 83.620045 
L 711.420568 85.228493 
L 712.575093 87.174039 
L 713.768101 81.899374 
L 714.96111 83.814519 
L 716.115634 83.128911 
L 717.308642 81.662185 
L 718.463167 82.886972 
L 719.656175 83.510573 
L 720.849183 80.881069 
L 721.926739 81.83604 
L 723.119748 81.036234 
L 724.274272 83.698518 
L 725.467281 81.834521 
L 726.621805 82.123788 
L 727.814813 82.636535 
L 729.007822 85.070214 
L 730.162346 83.017697 
L 731.355355 83.567062 
L 732.509879 81.61297 
L 733.702887 81.630405 
L 734.895896 82.557916 
L 735.973452 85.007757 
L 737.16646 80.481249 
L 738.320984 82.487699 
L 739.513993 85.09412 
L 740.668517 83.899814 
L 743.054534 83.152038 
L 744.209058 82.550299 
L 745.402067 84.754251 
L 746.556591 82.602047 
L 747.7496 83.052547 
L 748.942608 82.14628 
L 750.020164 83.684008 
L 751.213172 80.457828 
L 752.367697 84.060657 
L 753.560705 82.743668 
L 754.715229 83.025821 
L 755.908238 85.330357 
L 757.101246 81.286105 
L 758.255771 82.621915 
L 759.448779 83.11071 
L 760.603303 82.902992 
L 761.796312 80.598866 
L 762.98932 84.956736 
L 764.10536 86.691604 
L 765.298369 85.99609 
L 766.452893 79.464879 
L 767.645901 83.388382 
L 768.800426 82.032276 
L 769.993434 83.801675 
L 771.186443 80.247348 
L 772.340967 83.833146 
L 773.533975 84.084992 
L 774.6885 83.898975 
L 775.881508 82.332909 
L 777.074517 84.11997 
L 778.152073 80.875997 
L 779.345081 85.356006 
L 780.499605 83.400803 
L 781.692614 83.731938 
L 782.847138 82.898166 
L 785.233155 82.162578 
L 786.387679 84.834523 
L 787.580688 82.515453 
L 788.735212 83.321231 
L 789.92822 82.529472 
L 791.121229 79.614243 
L 792.198785 81.435916 
L 793.391793 82.355673 
L 794.546318 82.384658 
L 795.739326 84.032265 
L 796.89385 85.302981 
L 798.086859 82.961148 
L 799.279867 83.387729 
L 800.434391 81.834617 
L 801.6274 82.425786 
L 802.781924 84.388249 
L 803.974933 81.948503 
L 805.167941 84.15114 
L 806.245497 83.795397 
L 807.438505 86.555907 
L 808.59303 82.385911 
L 809.786038 82.432341 
L 810.940562 81.175357 
L 812.133571 83.910948 
L 813.326579 81.338316 
L 814.481104 83.542819 
L 815.674112 83.530101 
L 816.828636 82.535535 
L 816.828636 82.535535 
" clip-path="url(#pfe9660c29a)" style="fill: none; stroke: #1f77b4; stroke-width: 1.5; stroke-linecap: square"/>
   </g>
   <g id="patch_3">
    <path d="M 53.03 318.04 
L 53.03 25.44 
" style="fill: none; stroke: #000000; stroke-width: 0.8; stroke-linejoin: miter; stroke-linecap: square"/>
   </g>
   <g id="patch_4">
    <path d="M 853.2 318.04 
L 853.2 25.44 
" style="fill: none; stroke: #000000; stroke-width: 0.8; stroke-linejoin: miter; stroke-linecap: square"/>
   </g>
   <g id="patch_5">
    <path d="M 53.03 318.04 
L 853.2 318.04 
" style="fill: none; stroke: #000000; stroke-width: 0.8; stroke-linejoin: miter; stroke-linecap: square"/>
   </g>
   <g id="patch_6">
    <path d="M 53.03 25.44 
L 853.2 25.44 
" style="fill: none; stroke: #000000; stroke-width: 0.8; stroke-linejoin: miter; stroke-linecap: square"/>
   </g>
   <g id="text_16">
    <!-- SARIMA(1,1,1)(2,1,2,12): training_data Residuals Over Time -->
    <g transform="translate(273.445938 19.44) scale(0.12 -0.12)">
     <defs>
      <path id="DejaVuSans-53" d="M 3425 4513 
L 3425 3897 
Q 3066 4069 2747 4153 
Q 2428 4238 2131 4238 
Q 1616 4238 1336 4038 
Q 1056 3838 1056 3469 
Q 1056 3159 1242 3001 
Q 1428 2844 1947 2747 
L 2328 2669 
Q 3034 2534 3370 2195 
Q 3706 1856 3706 1288 
Q 3706 609 3251 259 
Q 2797 -91 1919 -91 
Q 1588 -91 1214 -16 
Q 841 59 441 206 
L 441 856 
Q 825 641 1194 531 
Q 1563 422 1919 422 
Q 2459 422 2753 634 
Q 3047 847 3047 1241 
Q 3047 1584 2836 1778 
Q 2625 1972 2144 2069 
L 1759 2144 
Q 1053 2284 737 2584 
Q 422 2884 422 3419 
Q 422 4038 858 4394 
Q 1294 4750 2059 4750 
Q 2388 4750 2728 4690 
Q 3069 4631 3425 4513 
z
" transform="scale(0.015625)"/>
      <path id="DejaVuSans-41" d="M 2188 4044 
L 1331 1722 
L 3047 1722 
L 2188 4044 
z
M 1831 4666 
L 2547 4666 
L 4325 0 
L 3669 0 
L 3244 1197 
L 1141 1197 
L 716 0 
L 50 0 
L 1831 4666 
z
" transform="scale(0.015625)"/>
      <path id="DejaVuSans-49" d="M 628 4666 
L 1259 4666 
L 1259 0 
L 628 0 
L 628 4666 
z
" transform="scale(0.015625)"/>
      <path id="DejaVuSans-4d" d="M 628 4666 
L 1569 4666 
L 2759 1491 
L 3956 4666 
L 4897 4666 
L 4897 0 
L 4281 0 
L 4281 4097 
L 3078 897 
L 2444 897 
L 1241 4097 
L 1241 0 
L 628 0 
L 628 4666 
z
" transform="scale(0.015625)"/>
      <path id="DejaVuSans-28" d="M 1984 4856 
Q 1566 4138 1362 3434 
Q 1159 2731 1159 2009 
Q 1159 1288 1364 580 
Q 1569 -128 1984 -844 
L 1484 -844 
Q 1016 -109 783 600 
Q 550 1309 550 2009 
Q 550 2706 781 3412 
Q 1013 4119 1484 4856 
L 1984 4856 
z
" transform="scale(0.015625)"/>
      <path id="DejaVuSans-2c" d="M 750 794 
L 1409 794 
L 1409 256 
L 897 -744 
L 494 -744 
L 750 256 
L 750 794 
z
" transform="scale(0.015625)"/>
      <path id="DejaVuSans-29" d="M 513 4856 
L 1013 4856 
Q 1481 4119 1714 3412 
Q 1947 2706 1947 2009 
Q 1947 1309 1714 600 
Q 1481 -109 1013 -844 
L 513 -844 
Q 928 -128 1133 580 
Q 1338 1288 1338 2009 
Q 1338 2731 1133 3434 
Q 928 4138 513 4856 
z
" transform="scale(0.015625)"/>
      <path id="DejaVuSans-3a" d="M 750 794 
L 1409 794 
L 1409 0 
L 750 0 
L 750 794 
z
M 750 3309 
L 1409 3309 
L 1409 2516 
L 750 2516 
L 750 3309 
z
" transform="scale(0.015625)"/>
      <path id="DejaVuSans-72" d="M 2631 2963 
Q 2534 3019 2420 3045 
Q 2306 3072 2169 3072 
Q 1681 3072 1420 2755 
Q 1159 2438 1159 1844 
L 1159 0 
L 581 0 
L 581 3500 
L 1159 3500 
L 1159 2956 
Q 1341 3275 1631 3429 
Q 1922 3584 2338 3584 
Q 2397 3584 2469 3576 
Q 2541 3569 2628 3553 
L 2631 2963 
z
" transform="scale(0.015625)"/>
      <path id="DejaVuSans-6e" d="M 3513 2113 
L 3513 0 
L 2938 0 
L 2938 2094 
Q 2938 2591 2744 2837 
Q 2550 3084 2163 3084 
Q 1697 3084 1428 2787 
Q 1159 2491 1159 1978 
L 1159 0 
L 581 0 
L 581 3500 
L 1159 3500 
L 1159 2956 
Q 1366 3272 1645 3428 
Q 1925 3584 2291 3584 
Q 2894 3584 3203 3211 
Q 3513 2838 3513 2113 
z
" transform="scale(0.015625)"/>
      <path id="DejaVuSans-67" d="M 2906 1791 
Q 2906 2416 2648 2759 
Q 2391 3103 1925 3103 
Q 1463 3103 1205 2759 
Q 947 2416 947 1791 
Q 947 1169 1205 825 
Q 1463 481 1925 481 
Q 2391 481 2648 825 
Q 2906 1169 2906 1791 
z
M 3481 434 
Q 3481 -459 3084 -895 
Q 2688 -1331 1869 -1331 
Q 1566 -1331 1297 -1286 
Q 1028 -1241 775 -1147 
L 775 -588 
Q 1028 -725 1275 -790 
Q 1522 -856 1778 -856 
Q 2344 -856 2625 -561 
Q 2906 -266 2906 331 
L 2906 616 
Q 2728 306 2450 153 
Q 2172 0 1784 0 
Q 1141 0 747 490 
Q 353 981 353 1791 
Q 353 2603 747 3093 
Q 1141 3584 1784 3584 
Q 2172 3584 2450 3431 
Q 2728 3278 2906 2969 
L 2906 3500 
L 3481 3500 
L 3481 434 
z
" transform="scale(0.015625)"/>
      <path id="DejaVuSans-5f" d="M 3263 -1063 
L 3263 -1509 
L -63 -1509 
L -63 -1063 
L 3263 -1063 
z
" transform="scale(0.015625)"/>
      <path id="DejaVuSans-4f" d="M 2522 4238 
Q 1834 4238 1429 3725 
Q 1025 3213 1025 2328 
Q 1025 1447 1429 934 
Q 1834 422 2522 422 
Q 3209 422 3611 934 
Q 4013 1447 4013 2328 
Q 4013 3213 3611 3725 
Q 3209 4238 2522 4238 
z
M 2522 4750 
Q 3503 4750 4090 4092 
Q 4678 3434 4678 2328 
Q 4678 1225 4090 567 
Q 3503 -91 2522 -91 
Q 1538 -91 948 565 
Q 359 1222 359 2328 
Q 359 3434 948 4092 
Q 1538 4750 2522 4750 
z
" transform="scale(0.015625)"/>
      <path id="DejaVuSans-76" d="M 191 3500 
L 800 3500 
L 1894 563 
L 2988 3500 
L 3597 3500 
L 2284 0 
L 1503 0 
L 191 3500 
z
" transform="scale(0.015625)"/>
      <path id="DejaVuSans-54" d="M -19 4666 
L 3928 4666 
L 3928 4134 
L 2272 4134 
L 2272 0 
L 1638 0 
L 1638 4134 
L -19 4134 
L -19 4666 
z
" transform="scale(0.015625)"/>
     </defs>
     <use xlink:href="#DejaVuSans-53"/>
     <use xlink:href="#DejaVuSans-41" transform="translate(65.351562 0)"/>
     <use xlink:href="#DejaVuSans-52" transform="translate(133.759766 0)"/>
     <use xlink:href="#DejaVuSans-49" transform="translate(203.242188 0)"/>
     <use xlink:href="#DejaVuSans-4d" transform="translate(232.734375 0)"/>
     <use xlink:href="#DejaVuSans-41" transform="translate(319.013672 0)"/>
     <use xlink:href="#DejaVuSans-28" transform="translate(387.421875 0)"/>
     <use xlink:href="#DejaVuSans-31" transform="translate(426.435547 0)"/>
     <use xlink:href="#DejaVuSans-2c" transform="translate(490.058594 0)"/>
     <use xlink:href="#DejaVuSans-31" transform="translate(521.845703 0)"/>
     <use xlink:href="#DejaVuSans-2c" transform="translate(585.46875 0)"/>
     <use xlink:href="#DejaVuSans-31" transform="translate(617.255859 0)"/>
     <use xlink:href="#DejaVuSans-29" transform="translate(680.878906 0)"/>
     <use xlink:href="#DejaVuSans-28" transform="translate(719.892578 0)"/>
     <use xlink:href="#DejaVuSans-32" transform="translate(758.90625 0)"/>
     <use xlink:href="#DejaVuSans-2c" transform="translate(822.529297 0)"/>
     <use xlink:href="#DejaVuSans-31" transform="translate(854.316406 0)"/>
     <use xlink:href="#DejaVuSans-2c" transform="translate(917.939453 0)"/>
     <use xlink:href="#DejaVuSans-32" transform="translate(949.726562 0)"/>
     <use xlink:href="#DejaVuSans-2c" transform="translate(1013.349609 0)"/>
     <use xlink:href="#DejaVuSans-31" transform="translate(1045.136719 0)"/>
     <use xlink:href="#DejaVuSans-32" transform="translate(1108.759766 0)"/>
     <use xlink:href="#DejaVuSans-29" transform="translate(1172.382812 0)"/>
     <use xlink:href="#DejaVuSans-3a" transform="translate(1211.396484 0)"/>
     <use xlink:href="#DejaVuSans-20" transform="translate(1245.087891 0)"/>
     <use xlink:href="#DejaVuSans-74" transform="translate(1276.875 0)"/>
     <use xlink:href="#DejaVuSans-72" transform="translate(1316.083984 0)"/>
     <use xlink:href="#DejaVuSans-61" transform="translate(1357.197266 0)"/>
     <use xlink:href="#DejaVuSans-69" transform="translate(1418.476562 0)"/>
     <use xlink:href="#DejaVuSans-6e" transform="translate(1446.259766 0)"/>
     <use xlink:href="#DejaVuSans-69" transform="translate(1509.638672 0)"/>
     <use xlink:href="#DejaVuSans-6e" transform="translate(1537.421875 0)"/>
     <use xlink:href="#DejaVuSans-67" transform="translate(1600.800781 0)"/>
     <use xlink:href="#DejaVuSans-5f" transform="translate(1664.277344 0)"/>
     <use xlink:href="#DejaVuSans-64" transform="translate(1714.277344 0)"/>
     <use xlink:href="#DejaVuSans-61" transform="translate(1777.753906 0)"/>
     <use xlink:href="#DejaVuSans-74" transform="translate(1839.033203 0)"/>
     <use xlink:href="#DejaVuSans-61" transform="translate(1878.242188 0)"/>
     <use xlink:href="#DejaVuSans-20" transform="translate(1939.521484 0)"/>
     <use xlink:href="#DejaVuSans-52" transform="translate(1971.308594 0)"/>
     <use xlink:href="#DejaVuSans-65" transform="translate(2036.291016 0)"/>
     <use xlink:href="#DejaVuSans-73" transform="translate(2097.814453 0)"/>
     <use xlink:href="#DejaVuSans-69" transform="translate(2149.914062 0)"/>
     <use xlink:href="#DejaVuSans-64" transform="translate(2177.697266 0)"/>
     <use xlink:href="#DejaVuSans-75" transform="translate(2241.173828 0)"/>
     <use xlink:href="#DejaVuSans-61" transform="translate(2304.552734 0)"/>
     <use xlink:href="#DejaVuSans-6c" transform="translate(2365.832031 0)"/>
     <use xlink:href="#DejaVuSans-73" transform="translate(2393.615234 0)"/>
     <use xlink:href="#DejaVuSans-20" transform="translate(2445.714844 0)"/>
     <use xlink:href="#DejaVuSans-4f" transform="translate(2477.501953 0)"/>
     <use xlink:href="#DejaVuSans-76" transform="translate(2556.212891 0)"/>
     <use xlink:href="#DejaVuSans-65" transform="translate(2615.392578 0)"/>
     <use xlink:href="#DejaVuSans-72" transform="translate(2676.916016 0)"/>
     <use xlink:href="#DejaVuSans-20" transform="translate(2718.029297 0)"/>
     <use xlink:href="#DejaVuSans-54" transform="translate(2749.816406 0)"/>
     <use xlink:href="#DejaVuSans-69" transform="translate(2807.775391 0)"/>
     <use xlink:href="#DejaVuSans-6d" transform="translate(2835.558594 0)"/>
     <use xlink:href="#DejaVuSans-65" transform="translate(2932.970703 0)"/>
    </g>
   </g>
   <g id="legend_1">
    <g id="patch_7">
     <path d="M 748.395313 62.79625 
L 846.2 62.79625 
Q 848.2 62.79625 848.2 60.79625 
L 848.2 32.44 
Q 848.2 30.44 846.2 30.44 
L 748.395313 30.44 
Q 746.395313 30.44 746.395313 32.44 
L 746.395313 60.79625 
Q 746.395313 62.79625 748.395313 62.79625 
z
" style="fill: #ffffff; opacity: 0.8; stroke: #cccccc; stroke-linejoin: miter"/>
    </g>
    <g id="line2d_29">
     <path d="M 750.395313 38.538437 
L 760.395313 38.538437 
L 770.395313 38.538437 
" style="fill: none; stroke-dasharray: 5.55,2.4; stroke-dashoffset: 0; stroke: #808080; stroke-width: 1.5"/>
    </g>
    <g id="text_17">
     <!-- Zero residual -->
     <g transform="translate(778.395313 42.038437) scale(0.1 -0.1)">
      <defs>
       <path id="DejaVuSans-5a" d="M 359 4666 
L 4025 4666 
L 4025 4184 
L 1075 531 
L 4097 531 
L 4097 0 
L 288 0 
L 288 481 
L 3238 4134 
L 359 4134 
L 359 4666 
z
" transform="scale(0.015625)"/>
       <path id="DejaVuSans-6f" d="M 1959 3097 
Q 1497 3097 1228 2736 
Q 959 2375 959 1747 
Q 959 1119 1226 758 
Q 1494 397 1959 397 
Q 2419 397 2687 759 
Q 2956 1122 2956 1747 
Q 2956 2369 2687 2733 
Q 2419 3097 1959 3097 
z
M 1959 3584 
Q 2709 3584 3137 3096 
Q 3566 2609 3566 1747 
Q 3566 888 3137 398 
Q 2709 -91 1959 -91 
Q 1206 -91 779 398 
Q 353 888 353 1747 
Q 353 2609 779 3096 
Q 1206 3584 1959 3584 
z
" transform="scale(0.015625)"/>
      </defs>
      <use xlink:href="#DejaVuSans-5a"/>
      <use xlink:href="#DejaVuSans-65" transform="translate(68.505859 0)"/>
      <use xlink:href="#DejaVuSans-72" transform="translate(130.029297 0)"/>
      <use xlink:href="#DejaVuSans-6f" transform="translate(168.892578 0)"/>
      <use xlink:href="#DejaVuSans-20" transform="translate(230.074219 0)"/>
      <use xlink:href="#DejaVuSans-72" transform="translate(261.861328 0)"/>
      <use xlink:href="#DejaVuSans-65" transform="translate(300.724609 0)"/>
      <use xlink:href="#DejaVuSans-73" transform="translate(362.248047 0)"/>
      <use xlink:href="#DejaVuSans-69" transform="translate(414.347656 0)"/>
      <use xlink:href="#DejaVuSans-64" transform="translate(442.130859 0)"/>
      <use xlink:href="#DejaVuSans-75" transform="translate(505.607422 0)"/>
      <use xlink:href="#DejaVuSans-61" transform="translate(568.986328 0)"/>
      <use xlink:href="#DejaVuSans-6c" transform="translate(630.265625 0)"/>
     </g>
    </g>
    <g id="line2d_30">
     <path d="M 750.395313 53.216563 
L 760.395313 53.216563 
L 770.395313 53.216563 
" style="fill: none; stroke: #1f77b4; stroke-width: 1.5; stroke-linecap: square"/>
    </g>
    <g id="text_18">
     <!-- Residuals -->
     <g transform="translate(778.395313 56.716563) scale(0.1 -0.1)">
      <use xlink:href="#DejaVuSans-52"/>
      <use xlink:href="#DejaVuSans-65" transform="translate(64.982422 0)"/>
      <use xlink:href="#DejaVuSans-73" transform="translate(126.505859 0)"/>
      <use xlink:href="#DejaVuSans-69" transform="translate(178.605469 0)"/>
      <use xlink:href="#DejaVuSans-64" transform="translate(206.388672 0)"/>
      <use xlink:href="#DejaVuSans-75" transform="translate(269.865234 0)"/>
      <use xlink:href="#DejaVuSans-61" transform="translate(333.244141 0)"/>
      <use xlink:href="#DejaVuSans-6c" transform="translate(394.523438 0)"/>
      <use xlink:href="#DejaVuSans-73" transform="translate(422.306641 0)"/>
     </g>
    </g>
   </g>
  </g>
 </g>
 <defs>
  <clipPath id="pfe9660c29a">
   <rect x="53.03" y="25.44" width="800.17" height="292.6"/>
  </clipPath>
 </defs>
</svg>
