<?xml version="1.0" encoding="utf-8" standalone="no"?>
<!DOCTYPE svg PUBLIC "-//W3C//DTD SVG 1.1//EN"
  "http://www.w3.org/Graphics/SVG/1.1/DTD/svg11.dtd">
<svg xmlns:xlink="http://www.w3.org/1999/xlink" width="864pt" height="360pt" viewBox="0 0 864 360" xmlns="http://www.w3.org/2000/svg" version="1.1">
 <metadata>
  <rdf:RDF xmlns:dc="http://purl.org/dc/elements/1.1/" xmlns:cc="http://creativecommons.org/ns#" xmlns:rdf="http://www.w3.org/1999/02/22-rdf-syntax-ns#">
   <cc:Work>
    <dc:type rdf:resource="http://purl.org/dc/dcmitype/StillImage"/>
    <dc:date>2026-07-08T14:24:32.330370</dc:date>
    <dc:format>image/svg+xml</dc:format>
    <dc:creator>
     <cc:Agent>
      <dc:title>Matplotlib v3.10.0, https://matplotlib.org/</dc:title>
     </cc:Agent>
    </dc:creator>
   </cc:Work>
  </rdf:RDF>
 </metadata>
 <defs>
  <style type="text/css">*{stroke-linejoin: round; stroke-linecap: butt}</style>
 </defs>
 <g id="figure_1">
  <g id="patch_1">
   <path d="M 0 360 
L 864 360 
L 864 0 
L 0 0 
z
" style="fill: #ffffff"/>
  </g>
  <g id="axes_1">
   <g id="patch_2">
    <path d="M 53.03 318.04 
L 853.2 318.04 
L 853.2 25.44 
L 53.03 25.44 
z
" style="fill: #ffffff"/>
   </g>
   <g id="matplotlib.axis_1">
    <g id="xtick_1">
     <g id="line2d_1">
      <path d="M 87.466288 318.04 
L 87.466288 25.44 
" clip-path="url(#p93ac3e18a1)" style="fill: none; stroke: #b0b0b0; stroke-width: 0.8; stroke-linecap: square"/>
     </g>
     <g id="line2d_2">
      <defs>
       <path id="m60089f0927" d="M 0 0 
L 0 3.5 
" style="stroke: #000000; stroke-width: 0.8"/>
      </defs>
      <g>
       <use xlink:href="#m60089f0927" x="87.466288" y="318.04" style="stroke: #000000; stroke-width: 0.8"/>
      </g>
     </g>
     <g id="text_1">
      <!-- 1960 -->
      <g transform="translate(74.741288 332.638438) scale(0.1 -0.1)">
       <defs>
        <path id="DejaVuSans-31" d="M 794 531 
L 1825 531 
L 1825 4091 
L 703 3866 
L 703 4441 
L 1819 4666 
L 2450 4666 
L 2450 531 
L 3481 531 
L 3481 0 
L 794 0 
L 794 531 
z
" transform="scale(0.015625)"/>
        <path id="DejaVuSans-39" d="M 703 97 
L 703 672 
Q 941 559 1184 500 
Q 1428 441 1663 441 
Q 2288 441 2617 861 
Q 2947 1281 2994 2138 
Q 2813 1869 2534 1725 
Q 2256 1581 1919 1581 
Q 1219 1581 811 2004 
Q 403 2428 403 3163 
Q 403 3881 828 4315 
Q 1253 4750 1959 4750 
Q 2769 4750 3195 4129 
Q 3622 3509 3622 2328 
Q 3622 1225 3098 567 
Q 2575 -91 1691 -91 
Q 1453 -91 1209 -44 
Q 966 3 703 97 
z
M 1959 2075 
Q 2384 2075 2632 2365 
Q 2881 2656 2881 3163 
Q 2881 3666 2632 3958 
Q 2384 4250 1959 4250 
Q 1534 4250 1286 3958 
Q 1038 3666 1038 3163 
Q 1038 2656 1286 2365 
Q 1534 2075 1959 2075 
z
" transform="scale(0.015625)"/>
        <path id="DejaVuSans-36" d="M 2113 2584 
Q 1688 2584 1439 2293 
Q 1191 2003 1191 1497 
Q 1191 994 1439 701 
Q 1688 409 2113 409 
Q 2538 409 2786 701 
Q 3034 994 3034 1497 
Q 3034 2003 2786 2293 
Q 2538 2584 2113 2584 
z
M 3366 4563 
L 3366 3988 
Q 3128 4100 2886 4159 
Q 2644 4219 2406 4219 
Q 1781 4219 1451 3797 
Q 1122 3375 1075 2522 
Q 1259 2794 1537 2939 
Q 1816 3084 2150 3084 
Q 2853 3084 3261 2657 
Q 3669 2231 3669 1497 
Q 3669 778 3244 343 
Q 2819 -91 2113 -91 
Q 1303 -91 875 529 
Q 447 1150 447 2328 
Q 447 3434 972 4092 
Q 1497 4750 2381 4750 
Q 2619 4750 2861 4703 
Q 3103 4656 3366 4563 
z
" transform="scale(0.015625)"/>
        <path id="DejaVuSans-30" d="M 2034 4250 
Q 1547 4250 1301 3770 
Q 1056 3291 1056 2328 
Q 1056 1369 1301 889 
Q 1547 409 2034 409 
Q 2525 409 2770 889 
Q 3016 1369 3016 2328 
Q 3016 3291 2770 3770 
Q 2525 4250 2034 4250 
z
M 2034 4750 
Q 2819 4750 3233 4129 
Q 3647 3509 3647 2328 
Q 3647 1150 3233 529 
Q 2819 -91 2034 -91 
Q 1250 -91 836 529 
Q 422 1150 422 2328 
Q 422 3509 836 4129 
Q 1250 4750 2034 4750 
z
" transform="scale(0.015625)"/>
       </defs>
       <use xlink:href="#DejaVuSans-31"/>
       <use xlink:href="#DejaVuSans-39" transform="translate(63.623047 0)"/>
       <use xlink:href="#DejaVuSans-36" transform="translate(127.246094 0)"/>
       <use xlink:href="#DejaVuSans-30" transform="translate(190.869141 0)"/>
      </g>
     </g>
    </g>
    <g id="xtick_2">
     <g id="line2d_3">
      <path d="M 205.280157 318.04 
L 205.280157 25.44 
" clip-path="url(#p93ac3e18a1)" style="fill: none; stroke: #b0b0b0; stroke-width: 0.8; stroke-linecap: square"/>
     </g>
     <g id="line2d_4">
      <g>
       <use xlink:href="#m60089f0927" x="205.280157" y="318.04" style="stroke: #000000; stroke-width: 0.8"/>
      </g>
     </g>
     <g id="text_2">
      <!-- 1970 -->
      <g transform="translate(192.555157 332.638438) scale(0.1 -0.1)">
       <defs>
        <path id="DejaVuSans-37" d="M 525 4666 
L 3525 4666 
L 3525 4397 
L 1831 0 
L 1172 0 
L 2766 4134 
L 525 4134 
L 525 4666 
z
" transform="scale(0.015625)"/>
       </defs>
       <use xlink:href="#DejaVuSans-31"/>
       <use xlink:href="#DejaVuSans-39" transform="translate(63.623047 0)"/>
       <use xlink:href="#DejaVuSans-37" transform="translate(127.246094 0)"/>
       <use xlink:href="#DejaVuSans-30" transform="translate(190.869141 0)"/>
      </g>
     </g>
    </g>
    <g id="xtick_3">
     <g id="line2d_5">
      <path d="M 323.061776 318.04 
L 323.061776 25.44 
" clip-path="url(#p93ac3e18a1)" style="fill: none; stroke: #b0b0b0; stroke-width: 0.8; stroke-linecap: square"/>
     </g>
     <g id="line2d_6">
      <g>
       <use xlink:href="#m60089f0927" x="323.061776" y="318.04" style="stroke: #000000; stroke-width: 0.8"/>
      </g>
     </g>
     <g id="text_3">
      <!-- 1980 -->
      <g transform="translate(310.336776 332.638438) scale(0.1 -0.1)">
       <defs>
        <path id="DejaVuSans-38" d="M 2034 2216 
Q 1584 2216 1326 1975 
Q 1069 1734 1069 1313 
Q 1069 891 1326 650 
Q 1584 409 2034 409 
Q 2484 409 2743 651 
Q 3003 894 3003 1313 
Q 3003 1734 2745 1975 
Q 2488 2216 2034 2216 
z
M 1403 2484 
Q 997 2584 770 2862 
Q 544 3141 544 3541 
Q 544 4100 942 4425 
Q 1341 4750 2034 4750 
Q 2731 4750 3128 4425 
Q 3525 4100 3525 3541 
Q 3525 3141 3298 2862 
Q 3072 2584 2669 2484 
Q 3125 2378 3379 2068 
Q 3634 1759 3634 1313 
Q 3634 634 3220 271 
Q 2806 -91 2034 -91 
Q 1263 -91 848 271 
Q 434 634 434 1313 
Q 434 1759 690 2068 
Q 947 2378 1403 2484 
z
M 1172 3481 
Q 1172 3119 1398 2916 
Q 1625 2713 2034 2713 
Q 2441 2713 2670 2916 
Q 2900 3119 2900 3481 
Q 2900 3844 2670 4047 
Q 2441 4250 2034 4250 
Q 1625 4250 1398 4047 
Q 1172 3844 1172 3481 
z
" transform="scale(0.015625)"/>
       </defs>
       <use xlink:href="#DejaVuSans-31"/>
       <use xlink:href="#DejaVuSans-39" transform="translate(63.623047 0)"/>
       <use xlink:href="#DejaVuSans-38" transform="translate(127.246094 0)"/>
       <use xlink:href="#DejaVuSans-30" transform="translate(190.869141 0)"/>
      </g>
     </g>
    </g>
    <g id="xtick_4">
     <g id="line2d_7">
      <path d="M 440.875645 318.04 
L 440.875645 25.44 
" clip-path="url(#p93ac3e18a1)" style="fill: none; stroke: #b0b0b0; stroke-width: 0.8; stroke-linecap: square"/>
     </g>
     <g id="line2d_8">
      <g>
       <use xlink:href="#m60089f0927" x="440.875645" y="318.04" style="stroke: #000000; stroke-width: 0.8"/>
      </g>
     </g>
     <g id="text_4">
      <!-- 1990 -->
      <g transform="translate(428.150645 332.638438) scale(0.1 -0.1)">
       <use xlink:href="#DejaVuSans-31"/>
       <use xlink:href="#DejaVuSans-39" transform="translate(63.623047 0)"/>
       <use xlink:href="#DejaVuSans-39" transform="translate(127.246094 0)"/>
       <use xlink:href="#DejaVuSans-30" transform="translate(190.869141 0)"/>
      </g>
     </g>
    </g>
    <g id="xtick_5">
     <g id="line2d_9">
      <path d="M 558.657263 318.04 
L 558.657263 25.44 
" clip-path="url(#p93ac3e18a1)" style="fill: none; stroke: #b0b0b0; stroke-width: 0.8; stroke-linecap: square"/>
     </g>
     <g id="line2d_10">
      <g>
       <use xlink:href="#m60089f0927" x="558.657263" y="318.04" style="stroke: #000000; stroke-width: 0.8"/>
      </g>
     </g>
     <g id="text_5">
      <!-- 2000 -->
      <g transform="translate(545.932263 332.638438) scale(0.1 -0.1)">
       <defs>
        <path id="DejaVuSans-32" d="M 1228 531 
L 3431 531 
L 3431 0 
L 469 0 
L 469 531 
Q 828 903 1448 1529 
Q 2069 2156 2228 2338 
Q 2531 2678 2651 2914 
Q 2772 3150 2772 3378 
Q 2772 3750 2511 3984 
Q 2250 4219 1831 4219 
Q 1534 4219 1204 4116 
Q 875 4013 500 3803 
L 500 4441 
Q 881 4594 1212 4672 
Q 1544 4750 1819 4750 
Q 2544 4750 2975 4387 
Q 3406 4025 3406 3419 
Q 3406 3131 3298 2873 
Q 3191 2616 2906 2266 
Q 2828 2175 2409 1742 
Q 1991 1309 1228 531 
z
" transform="scale(0.015625)"/>
       </defs>
       <use xlink:href="#DejaVuSans-32"/>
       <use xlink:href="#DejaVuSans-30" transform="translate(63.623047 0)"/>
       <use xlink:href="#DejaVuSans-30" transform="translate(127.246094 0)"/>
       <use xlink:href="#DejaVuSans-30" transform="translate(190.869141 0)"/>
      </g>
     </g>
    </g>
    <g id="xtick_6">
     <g id="line2d_11">
      <path d="M 676.471133 318.04 
L 676.471133 25.44 
" clip-path="url(#p93ac3e18a1)" style="fill: none; stroke: #b0b0b0; stroke-width: 0.8; stroke-linecap: square"/>
     </g>
     <g id="line2d_12">
      <g>
       <use xlink:href="#m60089f0927" x="676.471133" y="318.04" style="stroke: #000000; stroke-width: 0.8"/>
      </g>
     </g>
     <g id="text_6">
      <!-- 2010 -->
      <g transform="translate(663.746133 332.638438) scale(0.1 -0.1)">
       <use xlink:href="#DejaVuSans-32"/>
       <use xlink:href="#DejaVuSans-30" transform="translate(63.623047 0)"/>
       <use xlink:href="#DejaVuSans-31" transform="translate(127.246094 0)"/>
       <use xlink:href="#DejaVuSans-30" transform="translate(190.869141 0)"/>
      </g>
     </g>
    </g>
    <g id="xtick_7">
     <g id="line2d_13">
      <path d="M 794.252751 318.04 
L 794.252751 25.44 
" clip-path="url(#p93ac3e18a1)" style="fill: none; stroke: #b0b0b0; stroke-width: 0.8; stroke-linecap: square"/>
     </g>
     <g id="line2d_14">
      <g>
       <use xlink:href="#m60089f0927" x="794.252751" y="318.04" style="stroke: #000000; stroke-width: 0.8"/>
      </g>
     </g>
     <g id="text_7">
      <!-- 2020 -->
      <g transform="translate(781.527751 332.638438) scale(0.1 -0.1)">
       <use xlink:href="#DejaVuSans-32"/>
       <use xlink:href="#DejaVuSans-30" transform="translate(63.623047 0)"/>
       <use xlink:href="#DejaVuSans-32" transform="translate(127.246094 0)"/>
       <use xlink:href="#DejaVuSans-30" transform="translate(190.869141 0)"/>
      </g>
     </g>
    </g>
    <g id="text_8">
     <!-- Date -->
     <g transform="translate(441.164219 346.316563) scale(0.1 -0.1)">
      <defs>
       <path id="DejaVuSans-44" d="M 1259 4147 
L 1259 519 
L 2022 519 
Q 2988 519 3436 956 
Q 3884 1394 3884 2338 
Q 3884 3275 3436 3711 
Q 2988 4147 2022 4147 
L 1259 4147 
z
M 628 4666 
L 1925 4666 
Q 3281 4666 3915 4102 
Q 4550 3538 4550 2338 
Q 4550 1131 3912 565 
Q 3275 0 1925 0 
L 628 0 
L 628 4666 
z
" transform="scale(0.015625)"/>
       <path id="DejaVuSans-61" d="M 2194 1759 
Q 1497 1759 1228 1600 
Q 959 1441 959 1056 
Q 959 750 1161 570 
Q 1363 391 1709 391 
Q 2188 391 2477 730 
Q 2766 1069 2766 1631 
L 2766 1759 
L 2194 1759 
z
M 3341 1997 
L 3341 0 
L 2766 0 
L 2766 531 
Q 2569 213 2275 61 
Q 1981 -91 1556 -91 
Q 1019 -91 701 211 
Q 384 513 384 1019 
Q 384 1609 779 1909 
Q 1175 2209 1959 2209 
L 2766 2209 
L 2766 2266 
Q 2766 2663 2505 2880 
Q 2244 3097 1772 3097 
Q 1472 3097 1187 3025 
Q 903 2953 641 2809 
L 641 3341 
Q 956 3463 1253 3523 
Q 1550 3584 1831 3584 
Q 2591 3584 2966 3190 
Q 3341 2797 3341 1997 
z
" transform="scale(0.015625)"/>
       <path id="DejaVuSans-74" d="M 1172 4494 
L 1172 3500 
L 2356 3500 
L 2356 3053 
L 1172 3053 
L 1172 1153 
Q 1172 725 1289 603 
Q 1406 481 1766 481 
L 2356 481 
L 2356 0 
L 1766 0 
Q 1100 0 847 248 
Q 594 497 594 1153 
L 594 3053 
L 172 3053 
L 172 3500 
L 594 3500 
L 594 4494 
L 1172 4494 
z
" transform="scale(0.015625)"/>
       <path id="DejaVuSans-65" d="M 3597 1894 
L 3597 1613 
L 953 1613 
Q 991 1019 1311 708 
Q 1631 397 2203 397 
Q 2534 397 2845 478 
Q 3156 559 3463 722 
L 3463 178 
Q 3153 47 2828 -22 
Q 2503 -91 2169 -91 
Q 1331 -91 842 396 
Q 353 884 353 1716 
Q 353 2575 817 3079 
Q 1281 3584 2069 3584 
Q 2775 3584 3186 3129 
Q 3597 2675 3597 1894 
z
M 3022 2063 
Q 3016 2534 2758 2815 
Q 2500 3097 2075 3097 
Q 1594 3097 1305 2825 
Q 1016 2553 972 2059 
L 3022 2063 
z
" transform="scale(0.015625)"/>
      </defs>
      <use xlink:href="#DejaVuSans-44"/>
      <use xlink:href="#DejaVuSans-61" transform="translate(77.001953 0)"/>
      <use xlink:href="#DejaVuSans-74" transform="translate(138.28125 0)"/>
      <use xlink:href="#DejaVuSans-65" transform="translate(177.490234 0)"/>
     </g>
    </g>
   </g>
   <g id="matplotlib.axis_2">
    <g id="ytick_1">
     <g id="line2d_15">
      <path d="M 53.03 312.521611 
L 853.2 312.521611 
" clip-path="url(#p93ac3e18a1)" style="fill: none; stroke: #b0b0b0; stroke-width: 0.8; stroke-linecap: square"/>
     </g>
     <g id="line2d_16">
      <defs>
       <path id="m254a2eaed8" d="M 0 0 
L -3.5 0 
" style="stroke: #000000; stroke-width: 0.8"/>
      </defs>
      <g>
       <use xlink:href="#m254a2eaed8" x="53.03" y="312.521611" style="stroke: #000000; stroke-width: 0.8"/>
      </g>
     </g>
     <g id="text_9">
      <!-- −50 -->
      <g transform="translate(24.925313 316.32083) scale(0.1 -0.1)">
       <defs>
        <path id="DejaVuSans-2212" d="M 678 2272 
L 4684 2272 
L 4684 1741 
L 678 1741 
L 678 2272 
z
" transform="scale(0.015625)"/>
        <path id="DejaVuSans-35" d="M 691 4666 
L 3169 4666 
L 3169 4134 
L 1269 4134 
L 1269 2991 
Q 1406 3038 1543 3061 
Q 1681 3084 1819 3084 
Q 2600 3084 3056 2656 
Q 3513 2228 3513 1497 
Q 3513 744 3044 326 
Q 2575 -91 1722 -91 
Q 1428 -91 1123 -41 
Q 819 9 494 109 
L 494 744 
Q 775 591 1075 516 
Q 1375 441 1709 441 
Q 2250 441 2565 725 
Q 2881 1009 2881 1497 
Q 2881 1984 2565 2268 
Q 2250 2553 1709 2553 
Q 1456 2553 1204 2497 
Q 953 2441 691 2322 
L 691 4666 
z
" transform="scale(0.015625)"/>
       </defs>
       <use xlink:href="#DejaVuSans-2212"/>
       <use xlink:href="#DejaVuSans-35" transform="translate(83.789062 0)"/>
       <use xlink:href="#DejaVuSans-30" transform="translate(147.412109 0)"/>
      </g>
     </g>
    </g>
    <g id="ytick_2">
     <g id="line2d_17">
      <path d="M 53.03 267.327869 
L 853.2 267.327869 
" clip-path="url(#p93ac3e18a1)" style="fill: none; stroke: #b0b0b0; stroke-width: 0.8; stroke-linecap: square"/>
     </g>
     <g id="line2d_18">
      <g>
       <use xlink:href="#m254a2eaed8" x="53.03" y="267.327869" style="stroke: #000000; stroke-width: 0.8"/>
      </g>
     </g>
     <g id="text_10">
      <!-- −40 -->
      <g transform="translate(24.925313 271.127088) scale(0.1 -0.1)">
       <defs>
        <path id="DejaVuSans-34" d="M 2419 4116 
L 825 1625 
L 2419 1625 
L 2419 4116 
z
M 2253 4666 
L 3047 4666 
L 3047 1625 
L 3713 1625 
L 3713 1100 
L 3047 1100 
L 3047 0 
L 2419 0 
L 2419 1100 
L 313 1100 
L 313 1709 
L 2253 4666 
z
" transform="scale(0.015625)"/>
       </defs>
       <use xlink:href="#DejaVuSans-2212"/>
       <use xlink:href="#DejaVuSans-34" transform="translate(83.789062 0)"/>
       <use xlink:href="#DejaVuSans-30" transform="translate(147.412109 0)"/>
      </g>
     </g>
    </g>
    <g id="ytick_3">
     <g id="line2d_19">
      <path d="M 53.03 222.134127 
L 853.2 222.134127 
" clip-path="url(#p93ac3e18a1)" style="fill: none; stroke: #b0b0b0; stroke-width: 0.8; stroke-linecap: square"/>
     </g>
     <g id="line2d_20">
      <g>
       <use xlink:href="#m254a2eaed8" x="53.03" y="222.134127" style="stroke: #000000; stroke-width: 0.8"/>
      </g>
     </g>
     <g id="text_11">
      <!-- −30 -->
      <g transform="translate(24.925313 225.933346) scale(0.1 -0.1)">
       <defs>
        <path id="DejaVuSans-33" d="M 2597 2516 
Q 3050 2419 3304 2112 
Q 3559 1806 3559 1356 
Q 3559 666 3084 287 
Q 2609 -91 1734 -91 
Q 1441 -91 1130 -33 
Q 819 25 488 141 
L 488 750 
Q 750 597 1062 519 
Q 1375 441 1716 441 
Q 2309 441 2620 675 
Q 2931 909 2931 1356 
Q 2931 1769 2642 2001 
Q 2353 2234 1838 2234 
L 1294 2234 
L 1294 2753 
L 1863 2753 
Q 2328 2753 2575 2939 
Q 2822 3125 2822 3475 
Q 2822 3834 2567 4026 
Q 2313 4219 1838 4219 
Q 1578 4219 1281 4162 
Q 984 4106 628 3988 
L 628 4550 
Q 988 4650 1302 4700 
Q 1616 4750 1894 4750 
Q 2613 4750 3031 4423 
Q 3450 4097 3450 3541 
Q 3450 3153 3228 2886 
Q 3006 2619 2597 2516 
z
" transform="scale(0.015625)"/>
       </defs>
       <use xlink:href="#DejaVuSans-2212"/>
       <use xlink:href="#DejaVuSans-33" transform="translate(83.789062 0)"/>
       <use xlink:href="#DejaVuSans-30" transform="translate(147.412109 0)"/>
      </g>
     </g>
    </g>
    <g id="ytick_4">
     <g id="line2d_21">
      <path d="M 53.03 176.940385 
L 853.2 176.940385 
" clip-path="url(#p93ac3e18a1)" style="fill: none; stroke: #b0b0b0; stroke-width: 0.8; stroke-linecap: square"/>
     </g>
     <g id="line2d_22">
      <g>
       <use xlink:href="#m254a2eaed8" x="53.03" y="176.940385" style="stroke: #000000; stroke-width: 0.8"/>
      </g>
     </g>
     <g id="text_12">
      <!-- −20 -->
      <g transform="translate(24.925313 180.739604) scale(0.1 -0.1)">
       <use xlink:href="#DejaVuSans-2212"/>
       <use xlink:href="#DejaVuSans-32" transform="translate(83.789062 0)"/>
       <use xlink:href="#DejaVuSans-30" transform="translate(147.412109 0)"/>
      </g>
     </g>
    </g>
    <g id="ytick_5">
     <g id="line2d_23">
      <path d="M 53.03 131.746643 
L 853.2 131.746643 
" clip-path="url(#p93ac3e18a1)" style="fill: none; stroke: #b0b0b0; stroke-width: 0.8; stroke-linecap: square"/>
     </g>
     <g id="line2d_24">
      <g>
       <use xlink:href="#m254a2eaed8" x="53.03" y="131.746643" style="stroke: #000000; stroke-width: 0.8"/>
      </g>
     </g>
     <g id="text_13">
      <!-- −10 -->
      <g transform="translate(24.925313 135.545862) scale(0.1 -0.1)">
       <use xlink:href="#DejaVuSans-2212"/>
       <use xlink:href="#DejaVuSans-31" transform="translate(83.789062 0)"/>
       <use xlink:href="#DejaVuSans-30" transform="translate(147.412109 0)"/>
      </g>
     </g>
    </g>
    <g id="ytick_6">
     <g id="line2d_25">
      <path d="M 53.03 86.552902 
L 853.2 86.552902 
" clip-path="url(#p93ac3e18a1)" style="fill: none; stroke: #b0b0b0; stroke-width: 0.8; stroke-linecap: square"/>
     </g>
     <g id="line2d_26">
      <g>
       <use xlink:href="#m254a2eaed8" x="53.03" y="86.552902" style="stroke: #000000; stroke-width: 0.8"/>
      </g>
     </g>
     <g id="text_14">
      <!-- 0 -->
      <g transform="translate(39.6675 90.35212) scale(0.1 -0.1)">
       <use xlink:href="#DejaVuSans-30"/>
      </g>
     </g>
    </g>
    <g id="ytick_7">
     <g id="line2d_27">
      <path d="M 53.03 41.35916 
L 853.2 41.35916 
" clip-path="url(#p93ac3e18a1)" style="fill: none; stroke: #b0b0b0; stroke-width: 0.8; stroke-linecap: square"/>
     </g>
     <g id="line2d_28">
      <g>
       <use xlink:href="#m254a2eaed8" x="53.03" y="41.35916" style="stroke: #000000; stroke-width: 0.8"/>
      </g>
     </g>
     <g id="text_15">
      <!-- 10 -->
      <g transform="translate(33.305 45.158378) scale(0.1 -0.1)">
       <use xlink:href="#DejaVuSans-31"/>
       <use xlink:href="#DejaVuSans-30" transform="translate(63.623047 0)"/>
      </g>
     </g>
    </g>
    <g id="text_16">
     <!-- Residual / ppm -->
     <g transform="translate(18.845625 208.936875) rotate(-90) scale(0.1 -0.1)">
      <defs>
       <path id="DejaVuSans-52" d="M 2841 2188 
Q 3044 2119 3236 1894 
Q 3428 1669 3622 1275 
L 4263 0 
L 3584 0 
L 2988 1197 
Q 2756 1666 2539 1819 
Q 2322 1972 1947 1972 
L 1259 1972 
L 1259 0 
L 628 0 
L 628 4666 
L 2053 4666 
Q 2853 4666 3247 4331 
Q 3641 3997 3641 3322 
Q 3641 2881 3436 2590 
Q 3231 2300 2841 2188 
z
M 1259 4147 
L 1259 2491 
L 2053 2491 
Q 2509 2491 2742 2702 
Q 2975 2913 2975 3322 
Q 2975 3731 2742 3939 
Q 2509 4147 2053 4147 
L 1259 4147 
z
" transform="scale(0.015625)"/>
       <path id="DejaVuSans-73" d="M 2834 3397 
L 2834 2853 
Q 2591 2978 2328 3040 
Q 2066 3103 1784 3103 
Q 1356 3103 1142 2972 
Q 928 2841 928 2578 
Q 928 2378 1081 2264 
Q 1234 2150 1697 2047 
L 1894 2003 
Q 2506 1872 2764 1633 
Q 3022 1394 3022 966 
Q 3022 478 2636 193 
Q 2250 -91 1575 -91 
Q 1294 -91 989 -36 
Q 684 19 347 128 
L 347 722 
Q 666 556 975 473 
Q 1284 391 1588 391 
Q 1994 391 2212 530 
Q 2431 669 2431 922 
Q 2431 1156 2273 1281 
Q 2116 1406 1581 1522 
L 1381 1569 
Q 847 1681 609 1914 
Q 372 2147 372 2553 
Q 372 3047 722 3315 
Q 1072 3584 1716 3584 
Q 2034 3584 2315 3537 
Q 2597 3491 2834 3397 
z
" transform="scale(0.015625)"/>
       <path id="DejaVuSans-69" d="M 603 3500 
L 1178 3500 
L 1178 0 
L 603 0 
L 603 3500 
z
M 603 4863 
L 1178 4863 
L 1178 4134 
L 603 4134 
L 603 4863 
z
" transform="scale(0.015625)"/>
       <path id="DejaVuSans-64" d="M 2906 2969 
L 2906 4863 
L 3481 4863 
L 3481 0 
L 2906 0 
L 2906 525 
Q 2725 213 2448 61 
Q 2172 -91 1784 -91 
Q 1150 -91 751 415 
Q 353 922 353 1747 
Q 353 2572 751 3078 
Q 1150 3584 1784 3584 
Q 2172 3584 2448 3432 
Q 2725 3281 2906 2969 
z
M 947 1747 
Q 947 1113 1208 752 
Q 1469 391 1925 391 
Q 2381 391 2643 752 
Q 2906 1113 2906 1747 
Q 2906 2381 2643 2742 
Q 2381 3103 1925 3103 
Q 1469 3103 1208 2742 
Q 947 2381 947 1747 
z
" transform="scale(0.015625)"/>
       <path id="DejaVuSans-75" d="M 544 1381 
L 544 3500 
L 1119 3500 
L 1119 1403 
Q 1119 906 1312 657 
Q 1506 409 1894 409 
Q 2359 409 2629 706 
Q 2900 1003 2900 1516 
L 2900 3500 
L 3475 3500 
L 3475 0 
L 2900 0 
L 2900 538 
Q 2691 219 2414 64 
Q 2138 -91 1772 -91 
Q 1169 -91 856 284 
Q 544 659 544 1381 
z
M 1991 3584 
L 1991 3584 
z
" transform="scale(0.015625)"/>
       <path id="DejaVuSans-6c" d="M 603 4863 
L 1178 4863 
L 1178 0 
L 603 0 
L 603 4863 
z
" transform="scale(0.015625)"/>
       <path id="DejaVuSans-20" transform="scale(0.015625)"/>
       <path id="DejaVuSans-2f" d="M 1625 4666 
L 2156 4666 
L 531 -594 
L 0 -594 
L 1625 4666 
z
" transform="scale(0.015625)"/>
       <path id="DejaVuSans-70" d="M 1159 525 
L 1159 -1331 
L 581 -1331 
L 581 3500 
L 1159 3500 
L 1159 2969 
Q 1341 3281 1617 3432 
Q 1894 3584 2278 3584 
Q 2916 3584 3314 3078 
Q 3713 2572 3713 1747 
Q 3713 922 3314 415 
Q 2916 -91 2278 -91 
Q 1894 -91 1617 61 
Q 1341 213 1159 525 
z
M 3116 1747 
Q 3116 2381 2855 2742 
Q 2594 3103 2138 3103 
Q 1681 3103 1420 2742 
Q 1159 2381 1159 1747 
Q 1159 1113 1420 752 
Q 1681 391 2138 391 
Q 2594 391 2855 752 
Q 3116 1113 3116 1747 
z
" transform="scale(0.015625)"/>
       <path id="DejaVuSans-6d" d="M 3328 2828 
Q 3544 3216 3844 3400 
Q 4144 3584 4550 3584 
Q 5097 3584 5394 3201 
Q 5691 2819 5691 2113 
L 5691 0 
L 5113 0 
L 5113 2094 
Q 5113 2597 4934 2840 
Q 4756 3084 4391 3084 
Q 3944 3084 3684 2787 
Q 3425 2491 3425 1978 
L 3425 0 
L 2847 0 
L 2847 2094 
Q 2847 2600 2669 2842 
Q 2491 3084 2119 3084 
Q 1678 3084 1418 2786 
Q 1159 2488 1159 1978 
L 1159 0 
L 581 0 
L 581 3500 
L 1159 3500 
L 1159 2956 
Q 1356 3278 1631 3431 
Q 1906 3584 2284 3584 
Q 2666 3584 2933 3390 
Q 3200 3197 3328 2828 
z
" transform="scale(0.015625)"/>
      </defs>
      <use xlink:href="#DejaVuSans-52"/>
      <use xlink:href="#DejaVuSans-65" transform="translate(64.982422 0)"/>
      <use xlink:href="#DejaVuSans-73" transform="translate(126.505859 0)"/>
      <use xlink:href="#DejaVuSans-69" transform="translate(178.605469 0)"/>
      <use xlink:href="#DejaVuSans-64" transform="translate(206.388672 0)"/>
      <use xlink:href="#DejaVuSans-75" transform="translate(269.865234 0)"/>
      <use xlink:href="#DejaVuSans-61" transform="translate(333.244141 0)"/>
      <use xlink:href="#DejaVuSans-6c" transform="translate(394.523438 0)"/>
      <use xlink:href="#DejaVuSans-20" transform="translate(422.306641 0)"/>
      <use xlink:href="#DejaVuSans-2f" transform="translate(454.09375 0)"/>
      <use xlink:href="#DejaVuSans-20" transform="translate(487.785156 0)"/>
      <use xlink:href="#DejaVuSans-70" transform="translate(519.572266 0)"/>
      <use xlink:href="#DejaVuSans-70" transform="translate(583.048828 0)"/>
      <use xlink:href="#DejaVuSans-6d" transform="translate(646.525391 0)"/>
     </g>
    </g>
   </g>
   <g id="line2d_29">
    <path d="M 53.03 86.552902 
L 853.2 86.552902 
" clip-path="url(#p93ac3e18a1)" style="fill: none; stroke-dasharray: 5.55,2.4; stroke-dashoffset: 0; stroke: #808080; stroke-width: 1.5"/>
   </g>
   <g id="line2d_30">
    <path d="M 89.401364 304.74 
L 90.401153 38.74 
L 91.368691 84.033648 
L 92.36848 88.192768 
L 93.336018 85.933107 
L 94.335807 90.446349 
L 95.335596 88.526984 
L 96.303134 85.133585 
L 97.302923 87.11603 
L 98.270461 85.44865 
L 99.270251 87.602512 
L 100.27004 87.734671 
L 101.173075 106.162658 
L 102.172864 88.357129 
L 103.140402 85.866999 
L 104.140192 88.566925 
L 105.107729 86.098643 
L 106.107519 85.257457 
L 107.107308 87.546106 
L 108.074846 83.524761 
L 109.074635 87.643706 
L 110.042173 87.403985 
L 111.041962 86.127832 
L 112.041751 86.991447 
L 112.944787 84.803324 
L 113.944576 87.457438 
L 114.912114 89.161212 
L 115.911903 86.908691 
L 116.879441 85.3714 
L 117.87923 87.114461 
L 118.879019 84.420675 
L 119.846557 89.001421 
L 120.846347 86.363826 
L 121.813885 86.774912 
L 122.813674 85.608895 
L 123.813463 87.884792 
L 124.716498 87.328605 
L 125.716288 85.149744 
L 126.683825 85.873108 
L 128.651153 89.024304 
L 129.650942 87.111775 
L 130.650731 87.322908 
L 131.618269 86.334666 
L 132.618058 86.880413 
L 133.585596 85.550439 
L 134.585385 84.658838 
L 135.585175 86.339447 
L 136.520461 86.88494 
L 137.52025 87.215546 
L 138.487788 88.783706 
L 139.487578 86.53812 
L 140.455115 87.093603 
L 141.454905 85.551867 
L 142.454694 88.288 
L 143.422232 85.169474 
L 144.422021 87.541702 
L 145.389559 87.099292 
L 146.389348 87.848644 
L 147.389137 85.157718 
L 148.292173 87.842353 
L 149.291962 86.610212 
L 150.2595 89.857091 
L 152.226827 83.787232 
L 153.226616 87.249385 
L 154.226405 84.161336 
L 155.193943 87.03737 
L 156.193733 84.283375 
L 157.161271 88.07126 
L 158.16106 85.618538 
L 159.160849 84.814476 
L 160.063884 85.655783 
L 161.063674 85.647402 
L 162.031211 87.278202 
L 163.031001 86.053772 
L 163.998539 86.978922 
L 164.998328 86.528193 
L 165.998117 87.618684 
L 166.965655 88.174786 
L 167.965444 84.90799 
L 168.932982 84.978731 
L 169.932771 84.388397 
L 170.932561 87.999074 
L 171.835596 87.942721 
L 172.835385 86.407226 
L 173.802923 86.674092 
L 174.802712 88.709499 
L 175.77025 88.539986 
L 176.770039 85.675859 
L 177.769829 86.947894 
L 178.737367 84.73371 
L 179.737156 85.387081 
L 180.704694 85.150412 
L 181.704483 87.743814 
L 182.704272 87.046821 
L 183.639559 86.687074 
L 184.639348 87.195751 
L 185.606886 86.982588 
L 186.606675 85.392743 
L 187.574213 85.831041 
L 188.574002 86.466612 
L 189.573791 87.546151 
L 190.541329 86.219418 
L 191.541119 87.326779 
L 192.508657 84.475945 
L 193.508446 85.178018 
L 194.508235 86.942347 
L 195.41127 84.357412 
L 196.41106 86.659532 
L 197.378597 85.794564 
L 198.378387 87.238421 
L 199.345925 84.666594 
L 200.345714 86.968417 
L 201.345503 85.193636 
L 202.313041 87.749211 
L 203.31283 87.643298 
L 204.280368 86.472561 
L 205.280157 86.882429 
L 206.279946 85.149721 
L 207.182982 85.405551 
L 208.182771 86.09699 
L 209.150309 89.233547 
L 210.150098 87.04023 
L 211.117636 87.379047 
L 212.117425 85.417457 
L 213.117215 86.441226 
L 214.084753 85.449447 
L 215.084542 87.351935 
L 217.051869 86.42349 
L 218.051658 87.13305 
L 218.954693 88.189915 
L 219.954483 89.983577 
L 220.922021 85.090593 
L 221.92181 85.841819 
L 223.889137 86.210034 
L 224.888926 88.703235 
L 225.856464 85.42589 
L 226.856253 86.058983 
L 227.823791 86.081256 
L 228.82358 87.419873 
L 229.82337 85.715458 
L 230.758656 89.284352 
L 231.758446 83.71983 
L 232.725983 86.964544 
L 233.725773 88.836429 
L 234.693311 86.605291 
L 235.6931 85.656846 
L 236.692889 85.718077 
L 237.660427 83.731244 
L 239.627754 86.251176 
L 240.627543 86.102482 
L 241.627332 84.743619 
L 242.530368 85.728719 
L 243.530157 86.373224 
L 244.497695 84.419923 
L 246.465022 85.830951 
L 247.464811 84.539537 
L 248.464601 86.692858 
L 249.432139 87.418226 
L 250.431928 87.854605 
L 251.399466 90.131148 
L 252.399255 89.228927 
L 253.399044 84.912945 
L 254.302079 85.958007 
L 256.269407 86.93747 
L 257.269196 88.930389 
L 258.236734 87.107896 
L 259.236523 87.140087 
L 260.236312 87.751841 
L 261.20385 86.660409 
L 262.203639 87.3841 
L 263.171177 86.014881 
L 264.170966 85.477081 
L 265.170756 86.378634 
L 266.073791 87.415904 
L 267.07358 87.18441 
L 268.041118 85.760001 
L 269.040907 86.118416 
L 270.008445 87.519101 
L 271.008235 87.488695 
L 272.008024 86.216245 
L 272.975562 86.650232 
L 273.975351 87.275966 
L 274.942889 85.63907 
L 275.942678 87.095459 
L 276.942467 84.843653 
L 277.877754 86.256328 
L 278.877543 85.611452 
L 279.845081 89.221847 
L 280.84487 88.398584 
L 281.812408 85.924005 
L 282.812197 88.84482 
L 283.811987 87.889912 
L 284.779524 87.770712 
L 285.779314 85.847212 
L 286.746852 84.887246 
L 287.746641 85.378194 
L 288.74643 87.597853 
L 289.649465 81.834022 
L 290.649255 85.190714 
L 291.616793 84.638839 
L 292.616582 86.429433 
L 293.58412 86.814372 
L 294.583909 88.332405 
L 295.583698 85.592479 
L 296.551236 85.832799 
L 297.551025 86.291711 
L 298.518563 86.536136 
L 299.518352 84.872556 
L 300.518142 88.020834 
L 301.421177 84.324399 
L 302.420966 86.752548 
L 303.388504 87.794354 
L 304.388293 84.365947 
L 305.355831 87.234055 
L 306.355621 87.108721 
L 307.35541 88.985186 
L 308.322948 86.609851 
L 309.322737 86.185114 
L 310.290275 86.541517 
L 311.290064 85.530082 
L 312.289853 87.124064 
L 313.192889 83.411959 
L 314.192678 88.466678 
L 315.160216 87.605749 
L 316.160005 84.581008 
L 317.127543 88.211555 
L 318.127332 86.233601 
L 319.127121 87.005259 
L 320.094659 85.097858 
L 321.094448 86.641536 
L 322.061986 85.072746 
L 323.061776 85.741499 
L 324.061565 87.445732 
L 324.996851 83.373917 
L 325.996641 86.724369 
L 326.964179 86.583897 
L 327.963968 84.770759 
L 328.931506 88.760197 
L 329.931295 86.325437 
L 330.931084 85.690341 
L 331.898622 86.552471 
L 332.898411 86.613345 
L 333.865949 87.57471 
L 334.865738 87.156268 
L 335.865528 84.293041 
L 336.768563 85.667785 
L 337.768352 86.772218 
L 338.73589 87.022229 
L 339.735679 87.080093 
L 340.703217 88.488846 
L 341.703006 89.043059 
L 342.702796 87.231238 
L 343.670334 86.348316 
L 344.670123 85.083594 
L 345.637661 85.344495 
L 346.63745 86.121578 
L 347.637239 85.990211 
L 348.540275 86.47256 
L 349.540064 86.079342 
L 350.507602 85.141461 
L 351.507391 88.088951 
L 352.474929 87.343186 
L 354.474507 88.259072 
L 355.442045 87.036867 
L 356.441834 87.814273 
L 357.409372 86.555241 
L 358.409162 87.846832 
L 359.408951 84.976902 
L 360.311986 88.299686 
L 361.311775 82.932738 
L 362.279313 84.599578 
L 363.279102 85.179082 
L 364.24664 86.016775 
L 365.24643 85.330112 
L 366.246219 87.907356 
L 367.213757 86.528331 
L 368.213546 86.367834 
L 369.181084 85.639754 
L 371.180662 86.918243 
L 372.115949 87.815641 
L 373.115738 84.889051 
L 374.083276 86.888928 
L 375.083065 87.30796 
L 376.050603 86.666245 
L 377.050392 86.932971 
L 378.050182 88.877787 
L 379.01772 86.223745 
L 380.017509 85.639786 
L 380.985047 84.249671 
L 381.984836 88.112295 
L 382.984625 86.338471 
L 383.887661 84.320484 
L 384.88745 87.990351 
L 385.854988 86.696609 
L 386.854777 87.348178 
L 387.822315 88.461353 
L 388.822104 85.695201 
L 389.821893 86.700479 
L 390.789431 87.258144 
L 391.78922 86.209141 
L 392.756758 86.086552 
L 393.756548 87.700046 
L 394.756337 87.576867 
L 395.659372 88.301284 
L 396.659161 85.512434 
L 398.626488 86.563223 
L 399.594026 87.808302 
L 400.593816 87.616029 
L 401.593605 82.349065 
L 402.561143 88.140225 
L 403.560932 86.205453 
L 404.52847 86.702458 
L 405.528259 85.203204 
L 406.528048 88.872872 
L 407.431084 87.816824 
L 408.430873 85.813829 
L 409.398411 85.698864 
L 410.3982 86.557425 
L 411.365738 86.070873 
L 412.365527 86.51587 
L 414.332854 85.886639 
L 415.332644 85.934098 
L 416.300181 86.796718 
L 418.29976 84.15539 
L 419.235047 86.587273 
L 420.234836 86.890557 
L 421.202374 86.339425 
L 422.202163 86.351887 
L 423.169701 84.777663 
L 424.16949 87.477312 
L 425.169279 86.233486 
L 426.136817 84.554548 
L 427.136606 86.907281 
L 428.104144 86.997904 
L 429.103934 84.617316 
L 430.103723 87.943823 
L 431.006758 88.42619 
L 432.006547 85.752771 
L 432.974085 88.196349 
L 433.973874 87.206217 
L 434.941412 86.802232 
L 435.941202 87.647338 
L 436.940991 87.774502 
L 437.908529 86.013152 
L 438.908318 86.701994 
L 439.875856 86.308738 
L 440.875645 86.929042 
L 441.875434 84.366057 
L 442.77847 87.148515 
L 443.778259 89.832684 
L 444.745797 85.881717 
L 445.745586 88.801274 
L 446.713124 87.767584 
L 447.712913 86.346853 
L 448.712702 86.929657 
L 449.68024 85.442776 
L 450.68003 85.390357 
L 451.647567 86.206582 
L 452.647357 88.633203 
L 453.647146 87.010093 
L 454.550181 84.219632 
L 455.54997 84.877416 
L 457.517298 88.430261 
L 458.484836 89.558602 
L 459.484625 89.300611 
L 460.484414 87.960786 
L 461.451952 87.276024 
L 462.451741 86.226562 
L 463.419279 86.437528 
L 464.419068 85.89254 
L 465.418857 85.978583 
L 466.354144 87.337866 
L 467.353933 87.048935 
L 468.321471 87.270165 
L 469.32126 85.432564 
L 470.288798 89.908727 
L 471.288588 88.233148 
L 472.288377 89.093054 
L 473.255915 86.251121 
L 474.255704 87.993372 
L 475.223242 87.337077 
L 476.223031 85.152299 
L 477.22282 88.466466 
L 478.125856 86.128981 
L 479.125645 88.622679 
L 480.093183 85.98007 
L 481.092972 86.988224 
L 482.06051 89.582388 
L 483.060299 86.133974 
L 484.060088 86.50499 
L 485.027626 86.703836 
L 486.027416 86.511922 
L 486.994953 85.657731 
L 487.994743 84.940974 
L 488.994532 86.289859 
L 489.897567 86.016543 
L 490.897356 86.217838 
L 491.864894 87.373739 
L 492.864684 87.966501 
L 493.832222 86.265676 
L 494.832011 86.18158 
L 495.8318 86.848055 
L 496.799338 85.542378 
L 498.766665 85.570461 
L 499.766454 86.735912 
L 500.766243 85.713638 
L 501.669279 86.2786 
L 502.669068 85.398354 
L 503.636606 87.075135 
L 504.636395 86.225876 
L 505.603933 86.209171 
L 506.603722 88.419115 
L 507.603512 84.270395 
L 508.571049 87.36639 
L 509.570839 85.941148 
L 510.538377 86.944656 
L 511.538166 85.263523 
L 512.537955 84.40606 
L 513.473242 86.040061 
L 514.473031 89.978662 
L 515.440569 87.9316 
L 516.440358 85.551338 
L 517.407896 85.231692 
L 519.407474 87.70813 
L 521.374801 86.931665 
L 522.342339 86.68792 
L 523.342129 87.882271 
L 524.341918 86.435079 
L 525.244953 89.127891 
L 526.244742 84.422264 
L 527.21228 87.398831 
L 528.21207 88.986325 
L 529.179608 86.121524 
L 530.179397 86.691013 
L 531.179186 88.110558 
L 532.146724 85.285213 
L 533.146513 84.615924 
L 534.114051 83.424231 
L 535.11384 86.104268 
L 536.113629 86.705999 
L 537.016665 85.033356 
L 538.016454 85.269658 
L 538.983992 84.986805 
L 539.983781 85.052845 
L 540.951319 84.061451 
L 541.951108 84.687107 
L 542.950898 87.037845 
L 543.918435 85.514458 
L 544.918225 87.278354 
L 545.885763 85.694262 
L 546.885552 86.400457 
L 547.885341 86.029126 
L 548.788376 88.270329 
L 549.788166 86.798664 
L 550.755704 89.590321 
L 551.755493 88.2085 
L 552.723031 84.509886 
L 553.72282 88.343212 
L 554.722609 89.059285 
L 555.690147 85.80744 
L 556.689936 86.399362 
L 557.657474 86.649715 
L 558.657263 86.015335 
L 559.657053 89.063631 
L 560.592339 86.839845 
L 561.592128 87.087409 
L 562.559666 90.124575 
L 563.559456 84.703142 
L 564.526994 88.12423 
L 565.526783 85.48919 
L 566.526572 83.55095 
L 567.49411 86.302968 
L 568.493899 86.270044 
L 569.461437 86.950121 
L 570.461226 87.344099 
L 571.461015 86.192324 
L 572.364051 86.580106 
L 573.36384 88.129278 
L 574.331378 86.997367 
L 576.298705 88.074315 
L 577.298494 86.625264 
L 578.298283 85.80097 
L 579.265821 86.01022 
L 580.265611 86.386515 
L 581.233149 86.158914 
L 582.232938 85.397673 
L 583.232727 86.789504 
L 584.135762 86.547171 
L 585.135552 88.112106 
L 586.10309 85.809721 
L 587.102879 85.079737 
L 588.070417 86.2689 
L 589.070206 86.70558 
L 590.069995 84.1171 
L 591.037533 87.57384 
L 592.037322 85.175966 
L 593.00486 85.539319 
L 594.004649 86.122915 
L 595.004439 86.415066 
L 595.907474 87.021747 
L 596.907263 86.362158 
L 597.874801 84.725849 
L 598.87459 85.241316 
L 600.841917 87.577486 
L 601.841707 85.392632 
L 602.809245 87.104414 
L 603.809034 86.078997 
L 604.776572 86.902246 
L 605.776361 87.041675 
L 606.77615 86.377297 
L 607.711437 86.172314 
L 608.711226 85.202819 
L 609.678764 87.169016 
L 610.678553 88.762414 
L 611.646091 90.658754 
L 612.64588 85.61286 
L 613.645669 87.499458 
L 614.613207 86.768964 
L 615.612997 85.375481 
L 616.580535 86.512455 
L 617.580324 87.086371 
L 618.580113 84.553426 
L 619.483148 85.434302 
L 620.482938 84.65588 
L 621.450476 87.189255 
L 622.450265 85.404748 
L 623.417803 85.646309 
L 624.417592 86.186788 
L 625.417381 88.556919 
L 626.384919 86.618952 
L 627.384708 87.191633 
L 628.352246 85.28865 
L 629.352035 85.264646 
L 630.351825 86.161034 
L 631.25486 88.511723 
L 632.254649 84.195645 
L 633.222187 86.044267 
L 634.221976 88.569686 
L 635.189514 87.424651 
L 636.189303 87.181851 
L 637.189093 86.752025 
L 638.156631 86.193274 
L 639.15642 88.324438 
L 640.123958 86.276745 
L 641.123747 86.690387 
L 642.123536 85.81709 
L 643.026572 87.237412 
L 644.026361 84.188264 
L 644.993899 87.573266 
L 645.993688 86.31805 
L 646.961226 86.59855 
L 647.961015 88.828197 
L 648.960804 84.954296 
L 649.928342 86.245891 
L 650.928131 86.676658 
L 651.895669 86.525055 
L 652.895458 84.288743 
L 653.895248 88.460946 
L 654.830534 90.118522 
L 655.830324 89.617071 
L 656.797861 83.277604 
L 657.797651 86.98185 
L 658.765189 85.637078 
L 659.764978 87.318461 
L 660.764767 83.953444 
L 661.732305 87.37039 
L 662.732094 87.606088 
L 663.699632 87.484453 
L 664.699421 86.00817 
L 665.699211 87.685735 
L 666.602246 84.511758 
L 667.602035 88.859226 
L 668.569573 87.016793 
L 669.569362 87.330261 
L 670.5369 86.530457 
L 671.536689 86.10596 
L 672.536479 85.842674 
L 673.504017 88.352697 
L 674.503806 86.137387 
L 675.471344 86.92429 
L 676.471133 86.197872 
L 677.470922 83.296915 
L 678.373957 84.998548 
L 679.373747 85.838434 
L 680.341285 85.951041 
L 681.341074 87.507661 
L 682.308612 88.792102 
L 683.308401 86.574918 
L 684.30819 87.045969 
L 685.275728 85.470721 
L 686.275517 86.036768 
L 687.243055 87.919169 
L 688.242844 85.609049 
L 689.242634 87.739332 
L 690.145669 87.408123 
L 691.145458 90.056284 
L 692.112996 86.078886 
L 693.112785 86.084909 
L 694.080323 84.822419 
L 695.080113 87.450098 
L 696.079902 84.992301 
L 697.04744 87.085834 
L 698.047229 87.102243 
L 699.014767 86.135787 
L 700.014556 86.401799 
L 701.014345 86.830163 
L 701.949632 88.10023 
L 702.949421 84.600736 
L 703.916959 86.169872 
L 704.916748 88.342522 
L 705.884286 86.374601 
L 707.883865 85.874769 
L 708.851403 86.93785 
L 709.851192 84.215851 
L 710.81873 86.147625 
L 711.818519 86.342154 
L 712.818308 84.55803 
L 713.721343 86.704737 
L 714.721133 87.99768 
L 715.688671 83.469139 
L 716.68846 88.140063 
L 717.655998 85.880019 
L 718.655787 86.702798 
L 719.655576 87.85684 
L 720.623114 86.70771 
L 721.622903 86.725621 
L 722.590441 85.61097 
L 723.59023 87.301693 
L 724.59002 89.659796 
L 725.493055 84.034182 
L 726.492844 84.250071 
L 727.460382 86.683902 
L 728.460171 85.729107 
L 729.427709 89.267978 
L 730.427499 87.546464 
L 731.427288 88.190249 
L 732.394826 84.965018 
L 733.394615 87.047774 
L 734.362153 85.752219 
L 735.361942 86.815346 
L 736.361731 88.483828 
L 737.264767 86.023005 
L 738.264556 85.239571 
L 739.232094 85.337661 
L 740.231883 88.351394 
L 741.199421 86.83122 
L 742.19921 88.07359 
L 743.198999 86.568417 
L 744.166537 84.419327 
L 746.133864 84.214943 
L 747.133654 87.931253 
L 748.133443 83.470129 
L 749.068729 85.967543 
L 750.068519 80.623315 
L 751.036057 86.093015 
L 752.035846 86.651003 
L 753.003384 90.377087 
L 754.003173 88.121865 
L 755.9705 85.210189 
L 756.970289 84.096569 
L 757.937827 88.339735 
L 758.937616 84.398209 
L 759.937406 88.336541 
L 761.84023 86.076966 
L 762.807768 86.289492 
L 763.807557 86.799646 
L 764.775095 87.009467 
L 765.774885 86.364321 
L 766.774674 88.136463 
L 767.742212 87.199107 
L 768.742001 87.074813 
L 769.709539 85.794257 
L 770.709328 86.702746 
L 771.709117 88.306194 
L 772.612153 86.588305 
L 773.611942 89.514466 
L 774.57948 86.207479 
L 775.579269 85.285726 
L 776.546807 88.181751 
L 777.546596 85.471676 
L 778.546385 86.34869 
L 779.513923 85.461441 
L 780.513712 83.884968 
L 781.48125 87.556816 
L 782.48104 84.088907 
L 783.480829 84.921149 
L 784.383864 89.054238 
L 785.383653 87.715575 
L 786.351191 84.270217 
L 787.350981 85.821366 
L 788.318518 88.247119 
L 789.318308 85.924202 
L 790.318097 86.415722 
L 791.285635 87.950687 
L 792.285424 86.46898 
L 793.252962 86.324669 
L 794.252751 84.992672 
L 795.25254 86.115163 
L 796.187827 88.341685 
L 797.187616 86.037034 
L 798.155154 86.041024 
L 799.154943 86.243241 
L 800.122481 87.520333 
L 801.122271 86.008573 
L 802.12206 85.618026 
L 803.089598 87.39567 
L 804.089387 86.724309 
L 805.056925 88.229595 
L 806.056714 87.378649 
L 807.056503 84.836274 
L 807.959539 85.773604 
L 808.959328 86.438399 
L 809.926866 89.521983 
L 810.926655 85.156772 
L 811.894193 87.379514 
L 812.893982 89.006369 
L 813.893771 86.427726 
L 814.861309 84.951159 
L 815.861098 88.480478 
L 816.828636 85.833334 
L 816.828636 85.833334 
" clip-path="url(#p93ac3e18a1)" style="fill: none; stroke: #1f77b4; stroke-width: 1.5; stroke-linecap: square"/>
   </g>
   <g id="patch_3">
    <path d="M 53.03 318.04 
L 53.03 25.44 
" style="fill: none; stroke: #000000; stroke-width: 0.8; stroke-linejoin: miter; stroke-linecap: square"/>
   </g>
   <g id="patch_4">
    <path d="M 853.2 318.04 
L 853.2 25.44 
" style="fill: none; stroke: #000000; stroke-width: 0.8; stroke-linejoin: miter; stroke-linecap: square"/>
   </g>
   <g id="patch_5">
    <path d="M 53.03 318.04 
L 853.2 318.04 
" style="fill: none; stroke: #000000; stroke-width: 0.8; stroke-linejoin: miter; stroke-linecap: square"/>
   </g>
   <g id="patch_6">
    <path d="M 53.03 25.44 
L 853.2 25.44 
" style="fill: none; stroke: #000000; stroke-width: 0.8; stroke-linejoin: miter; stroke-linecap: square"/>
   </g>
   <g id="text_17">
    <!-- SARIMA(1,1,1)(2,1,2,12): full_data Residuals Over Time -->
    <g transform="translate(287.440938 19.44) scale(0.12 -0.12)">
     <defs>
      <path id="DejaVuSans-53" d="M 3425 4513 
L 3425 3897 
Q 3066 4069 2747 4153 
Q 2428 4238 2131 4238 
Q 1616 4238 1336 4038 
Q 1056 3838 1056 3469 
Q 1056 3159 1242 3001 
Q 1428 2844 1947 2747 
L 2328 2669 
Q 3034 2534 3370 2195 
Q 3706 1856 3706 1288 
Q 3706 609 3251 259 
Q 2797 -91 1919 -91 
Q 1588 -91 1214 -16 
Q 841 59 441 206 
L 441 856 
Q 825 641 1194 531 
Q 1563 422 1919 422 
Q 2459 422 2753 634 
Q 3047 847 3047 1241 
Q 3047 1584 2836 1778 
Q 2625 1972 2144 2069 
L 1759 2144 
Q 1053 2284 737 2584 
Q 422 2884 422 3419 
Q 422 4038 858 4394 
Q 1294 4750 2059 4750 
Q 2388 4750 2728 4690 
Q 3069 4631 3425 4513 
z
" transform="scale(0.015625)"/>
      <path id="DejaVuSans-41" d="M 2188 4044 
L 1331 1722 
L 3047 1722 
L 2188 4044 
z
M 1831 4666 
L 2547 4666 
L 4325 0 
L 3669 0 
L 3244 1197 
L 1141 1197 
L 716 0 
L 50 0 
L 1831 4666 
z
" transform="scale(0.015625)"/>
      <path id="DejaVuSans-49" d="M 628 4666 
L 1259 4666 
L 1259 0 
L 628 0 
L 628 4666 
z
" transform="scale(0.015625)"/>
      <path id="DejaVuSans-4d" d="M 628 4666 
L 1569 4666 
L 2759 1491 
L 3956 4666 
L 4897 4666 
L 4897 0 
L 4281 0 
L 4281 4097 
L 3078 897 
L 2444 897 
L 1241 4097 
L 1241 0 
L 628 0 
L 628 4666 
z
" transform="scale(0.015625)"/>
      <path id="DejaVuSans-28" d="M 1984 4856 
Q 1566 4138 1362 3434 
Q 1159 2731 1159 2009 
Q 1159 1288 1364 580 
Q 1569 -128 1984 -844 
L 1484 -844 
Q 1016 -109 783 600 
Q 550 1309 550 2009 
Q 550 2706 781 3412 
Q 1013 4119 1484 4856 
L 1984 4856 
z
" transform="scale(0.015625)"/>
      <path id="DejaVuSans-2c" d="M 750 794 
L 1409 794 
L 1409 256 
L 897 -744 
L 494 -744 
L 750 256 
L 750 794 
z
" transform="scale(0.015625)"/>
      <path id="DejaVuSans-29" d="M 513 4856 
L 1013 4856 
Q 1481 4119 1714 3412 
Q 1947 2706 1947 2009 
Q 1947 1309 1714 600 
Q 1481 -109 1013 -844 
L 513 -844 
Q 928 -128 1133 580 
Q 1338 1288 1338 2009 
Q 1338 2731 1133 3434 
Q 928 4138 513 4856 
z
" transform="scale(0.015625)"/>
      <path id="DejaVuSans-3a" d="M 750 794 
L 1409 794 
L 1409 0 
L 750 0 
L 750 794 
z
M 750 3309 
L 1409 3309 
L 1409 2516 
L 750 2516 
L 750 3309 
z
" transform="scale(0.015625)"/>
      <path id="DejaVuSans-66" d="M 2375 4863 
L 2375 4384 
L 1825 4384 
Q 1516 4384 1395 4259 
Q 1275 4134 1275 3809 
L 1275 3500 
L 2222 3500 
L 2222 3053 
L 1275 3053 
L 1275 0 
L 697 0 
L 697 3053 
L 147 3053 
L 147 3500 
L 697 3500 
L 697 3744 
Q 697 4328 969 4595 
Q 1241 4863 1831 4863 
L 2375 4863 
z
" transform="scale(0.015625)"/>
      <path id="DejaVuSans-5f" d="M 3263 -1063 
L 3263 -1509 
L -63 -1509 
L -63 -1063 
L 3263 -1063 
z
" transform="scale(0.015625)"/>
      <path id="DejaVuSans-4f" d="M 2522 4238 
Q 1834 4238 1429 3725 
Q 1025 3213 1025 2328 
Q 1025 1447 1429 934 
Q 1834 422 2522 422 
Q 3209 422 3611 934 
Q 4013 1447 4013 2328 
Q 4013 3213 3611 3725 
Q 3209 4238 2522 4238 
z
M 2522 4750 
Q 3503 4750 4090 4092 
Q 4678 3434 4678 2328 
Q 4678 1225 4090 567 
Q 3503 -91 2522 -91 
Q 1538 -91 948 565 
Q 359 1222 359 2328 
Q 359 3434 948 4092 
Q 1538 4750 2522 4750 
z
" transform="scale(0.015625)"/>
      <path id="DejaVuSans-76" d="M 191 3500 
L 800 3500 
L 1894 563 
L 2988 3500 
L 3597 3500 
L 2284 0 
L 1503 0 
L 191 3500 
z
" transform="scale(0.015625)"/>
      <path id="DejaVuSans-72" d="M 2631 2963 
Q 2534 3019 2420 3045 
Q 2306 3072 2169 3072 
Q 1681 3072 1420 2755 
Q 1159 2438 1159 1844 
L 1159 0 
L 581 0 
L 581 3500 
L 1159 3500 
L 1159 2956 
Q 1341 3275 1631 3429 
Q 1922 3584 2338 3584 
Q 2397 3584 2469 3576 
Q 2541 3569 2628 3553 
L 2631 2963 
z
" transform="scale(0.015625)"/>
      <path id="DejaVuSans-54" d="M -19 4666 
L 3928 4666 
L 3928 4134 
L 2272 4134 
L 2272 0 
L 1638 0 
L 1638 4134 
L -19 4134 
L -19 4666 
z
" transform="scale(0.015625)"/>
     </defs>
     <use xlink:href="#DejaVuSans-53"/>
     <use xlink:href="#DejaVuSans-41" transform="translate(65.351562 0)"/>
     <use xlink:href="#DejaVuSans-52" transform="translate(133.759766 0)"/>
     <use xlink:href="#DejaVuSans-49" transform="translate(203.242188 0)"/>
     <use xlink:href="#DejaVuSans-4d" transform="translate(232.734375 0)"/>
     <use xlink:href="#DejaVuSans-41" transform="translate(319.013672 0)"/>
     <use xlink:href="#DejaVuSans-28" transform="translate(387.421875 0)"/>
     <use xlink:href="#DejaVuSans-31" transform="translate(426.435547 0)"/>
     <use xlink:href="#DejaVuSans-2c" transform="translate(490.058594 0)"/>
     <use xlink:href="#DejaVuSans-31" transform="translate(521.845703 0)"/>
     <use xlink:href="#DejaVuSans-2c" transform="translate(585.46875 0)"/>
     <use xlink:href="#DejaVuSans-31" transform="translate(617.255859 0)"/>
     <use xlink:href="#DejaVuSans-29" transform="translate(680.878906 0)"/>
     <use xlink:href="#DejaVuSans-28" transform="translate(719.892578 0)"/>
     <use xlink:href="#DejaVuSans-32" transform="translate(758.90625 0)"/>
     <use xlink:href="#DejaVuSans-2c" transform="translate(822.529297 0)"/>
     <use xlink:href="#DejaVuSans-31" transform="translate(854.316406 0)"/>
     <use xlink:href="#DejaVuSans-2c" transform="translate(917.939453 0)"/>
     <use xlink:href="#DejaVuSans-32" transform="translate(949.726562 0)"/>
     <use xlink:href="#DejaVuSans-2c" transform="translate(1013.349609 0)"/>
     <use xlink:href="#DejaVuSans-31" transform="translate(1045.136719 0)"/>
     <use xlink:href="#DejaVuSans-32" transform="translate(1108.759766 0)"/>
     <use xlink:href="#DejaVuSans-29" transform="translate(1172.382812 0)"/>
     <use xlink:href="#DejaVuSans-3a" transform="translate(1211.396484 0)"/>
     <use xlink:href="#DejaVuSans-20" transform="translate(1245.087891 0)"/>
     <use xlink:href="#DejaVuSans-66" transform="translate(1276.875 0)"/>
     <use xlink:href="#DejaVuSans-75" transform="translate(1312.080078 0)"/>
     <use xlink:href="#DejaVuSans-6c" transform="translate(1375.458984 0)"/>
     <use xlink:href="#DejaVuSans-6c" transform="translate(1403.242188 0)"/>
     <use xlink:href="#DejaVuSans-5f" transform="translate(1431.025391 0)"/>
     <use xlink:href="#DejaVuSans-64" transform="translate(1481.025391 0)"/>
     <use xlink:href="#DejaVuSans-61" transform="translate(1544.501953 0)"/>
     <use xlink:href="#DejaVuSans-74" transform="translate(1605.78125 0)"/>
     <use xlink:href="#DejaVuSans-61" transform="translate(1644.990234 0)"/>
     <use xlink:href="#DejaVuSans-20" transform="translate(1706.269531 0)"/>
     <use xlink:href="#DejaVuSans-52" transform="translate(1738.056641 0)"/>
     <use xlink:href="#DejaVuSans-65" transform="translate(1803.039062 0)"/>
     <use xlink:href="#DejaVuSans-73" transform="translate(1864.5625 0)"/>
     <use xlink:href="#DejaVuSans-69" transform="translate(1916.662109 0)"/>
     <use xlink:href="#DejaVuSans-64" transform="translate(1944.445312 0)"/>
     <use xlink:href="#DejaVuSans-75" transform="translate(2007.921875 0)"/>
     <use xlink:href="#DejaVuSans-61" transform="translate(2071.300781 0)"/>
     <use xlink:href="#DejaVuSans-6c" transform="translate(2132.580078 0)"/>
     <use xlink:href="#DejaVuSans-73" transform="translate(2160.363281 0)"/>
     <use xlink:href="#DejaVuSans-20" transform="translate(2212.462891 0)"/>
     <use xlink:href="#DejaVuSans-4f" transform="translate(2244.25 0)"/>
     <use xlink:href="#DejaVuSans-76" transform="translate(2322.960938 0)"/>
     <use xlink:href="#DejaVuSans-65" transform="translate(2382.140625 0)"/>
     <use xlink:href="#DejaVuSans-72" transform="translate(2443.664062 0)"/>
     <use xlink:href="#DejaVuSans-20" transform="translate(2484.777344 0)"/>
     <use xlink:href="#DejaVuSans-54" transform="translate(2516.564453 0)"/>
     <use xlink:href="#DejaVuSans-69" transform="translate(2574.523438 0)"/>
     <use xlink:href="#DejaVuSans-6d" transform="translate(2602.306641 0)"/>
     <use xlink:href="#DejaVuSans-65" transform="translate(2699.71875 0)"/>
    </g>
   </g>
   <g id="legend_1">
    <g id="patch_7">
     <path d="M 748.395313 62.79625 
L 846.2 62.79625 
Q 848.2 62.79625 848.2 60.79625 
L 848.2 32.44 
Q 848.2 30.44 846.2 30.44 
L 748.395313 30.44 
Q 746.395313 30.44 746.395313 32.44 
L 746.395313 60.79625 
Q 746.395313 62.79625 748.395313 62.79625 
z
" style="fill: #ffffff; opacity: 0.8; stroke: #cccccc; stroke-linejoin: miter"/>
    </g>
    <g id="line2d_31">
     <path d="M 750.395313 38.538437 
L 760.395313 38.538437 
L 770.395313 38.538437 
" style="fill: none; stroke-dasharray: 5.55,2.4; stroke-dashoffset: 0; stroke: #808080; stroke-width: 1.5"/>
    </g>
    <g id="text_18">
     <!-- Zero residual -->
     <g transform="translate(778.395313 42.038437) scale(0.1 -0.1)">
      <defs>
       <path id="DejaVuSans-5a" d="M 359 4666 
L 4025 4666 
L 4025 4184 
L 1075 531 
L 4097 531 
L 4097 0 
L 288 0 
L 288 481 
L 3238 4134 
L 359 4134 
L 359 4666 
z
" transform="scale(0.015625)"/>
       <path id="DejaVuSans-6f" d="M 1959 3097 
Q 1497 3097 1228 2736 
Q 959 2375 959 1747 
Q 959 1119 1226 758 
Q 1494 397 1959 397 
Q 2419 397 2687 759 
Q 2956 1122 2956 1747 
Q 2956 2369 2687 2733 
Q 2419 3097 1959 3097 
z
M 1959 3584 
Q 2709 3584 3137 3096 
Q 3566 2609 3566 1747 
Q 3566 888 3137 398 
Q 2709 -91 1959 -91 
Q 1206 -91 779 398 
Q 353 888 353 1747 
Q 353 2609 779 3096 
Q 1206 3584 1959 3584 
z
" transform="scale(0.015625)"/>
      </defs>
      <use xlink:href="#DejaVuSans-5a"/>
      <use xlink:href="#DejaVuSans-65" transform="translate(68.505859 0)"/>
      <use xlink:href="#DejaVuSans-72" transform="translate(130.029297 0)"/>
      <use xlink:href="#DejaVuSans-6f" transform="translate(168.892578 0)"/>
      <use xlink:href="#DejaVuSans-20" transform="translate(230.074219 0)"/>
      <use xlink:href="#DejaVuSans-72" transform="translate(261.861328 0)"/>
      <use xlink:href="#DejaVuSans-65" transform="translate(300.724609 0)"/>
      <use xlink:href="#DejaVuSans-73" transform="translate(362.248047 0)"/>
      <use xlink:href="#DejaVuSans-69" transform="translate(414.347656 0)"/>
      <use xlink:href="#DejaVuSans-64" transform="translate(442.130859 0)"/>
      <use xlink:href="#DejaVuSans-75" transform="translate(505.607422 0)"/>
      <use xlink:href="#DejaVuSans-61" transform="translate(568.986328 0)"/>
      <use xlink:href="#DejaVuSans-6c" transform="translate(630.265625 0)"/>
     </g>
    </g>
    <g id="line2d_32">
     <path d="M 750.395313 53.216563 
L 760.395313 53.216563 
L 770.395313 53.216563 
" style="fill: none; stroke: #1f77b4; stroke-width: 1.5; stroke-linecap: square"/>
    </g>
    <g id="text_19">
     <!-- Residuals -->
     <g transform="translate(778.395313 56.716563) scale(0.1 -0.1)">
      <use xlink:href="#DejaVuSans-52"/>
      <use xlink:href="#DejaVuSans-65" transform="translate(64.982422 0)"/>
      <use xlink:href="#DejaVuSans-73" transform="translate(126.505859 0)"/>
      <use xlink:href="#DejaVuSans-69" transform="translate(178.605469 0)"/>
      <use xlink:href="#DejaVuSans-64" transform="translate(206.388672 0)"/>
      <use xlink:href="#DejaVuSans-75" transform="translate(269.865234 0)"/>
      <use xlink:href="#DejaVuSans-61" transform="translate(333.244141 0)"/>
      <use xlink:href="#DejaVuSans-6c" transform="translate(394.523438 0)"/>
      <use xlink:href="#DejaVuSans-73" transform="translate(422.306641 0)"/>
     </g>
    </g>
   </g>
  </g>
 </g>
 <defs>
  <clipPath id="p93ac3e18a1">
   <rect x="53.03" y="25.44" width="800.17" height="292.6"/>
  </clipPath>
 </defs>
</svg>
