<?xml version="1.0" encoding="utf-8" standalone="no"?>
<!DOCTYPE svg PUBLIC "-//W3C//DTD SVG 1.1//EN"
  "http://www.w3.org/Graphics/SVG/1.1/DTD/svg11.dtd">
<svg xmlns:xlink="http://www.w3.org/1999/xlink" width="864pt" height="432pt" viewBox="0 0 864 432" xmlns="http://www.w3.org/2000/svg" version="1.1">
 <metadata>
  <rdf:RDF xmlns:dc="http://purl.org/dc/elements/1.1/" xmlns:cc="http://creativecommons.org/ns#" xmlns:rdf="http://www.w3.org/1999/02/22-rdf-syntax-ns#">
   <cc:Work>
    <dc:type rdf:resource="http://purl.org/dc/dcmitype/StillImage"/>
    <dc:date>2026-07-08T15:55:39.934397</dc:date>
    <dc:format>image/svg+xml</dc:format>
    <dc:creator>
     <cc:Agent>
      <dc:title>Matplotlib v3.10.0, https://matplotlib.org/</dc:title>
     </cc:Agent>
    </dc:creator>
   </cc:Work>
  </rdf:RDF>
 </metadata>
 <defs>
  <style type="text/css">*{stroke-linejoin: round; stroke-linecap: butt}</style>
 </defs>
 <g id="figure_1">
  <g id="patch_1">
   <path d="M 0 432 
L 864 432 
L 864 0 
L 0 0 
z
" style="fill: #ffffff"/>
  </g>
  <g id="axes_1">
   <g id="patch_2">
    <path d="M 51.05 390.04 
L 807.82 390.04 
L 807.82 25.44 
L 51.05 25.44 
z
" style="fill: #ffffff"/>
   </g>
   <g id="matplotlib.axis_1">
    <g id="xtick_1">
     <g id="line2d_1">
      <defs>
       <path id="m0f2b47ef05" d="M 0 0 
L 0 3.5 
" style="stroke: #000000; stroke-width: 0.8"/>
      </defs>
      <g>
       <use xlink:href="#m0f2b47ef05" x="96.544971" y="390.04" style="stroke: #000000; stroke-width: 0.8"/>
      </g>
     </g>
     <g id="text_1">
      <!-- 1960 -->
      <g transform="translate(83.819971 404.638438) scale(0.1 -0.1)">
       <defs>
        <path id="DejaVuSans-31" d="M 794 531 
L 1825 531 
L 1825 4091 
L 703 3866 
L 703 4441 
L 1819 4666 
L 2450 4666 
L 2450 531 
L 3481 531 
L 3481 0 
L 794 0 
L 794 531 
z
" transform="scale(0.015625)"/>
        <path id="DejaVuSans-39" d="M 703 97 
L 703 672 
Q 941 559 1184 500 
Q 1428 441 1663 441 
Q 2288 441 2617 861 
Q 2947 1281 2994 2138 
Q 2813 1869 2534 1725 
Q 2256 1581 1919 1581 
Q 1219 1581 811 2004 
Q 403 2428 403 3163 
Q 403 3881 828 4315 
Q 1253 4750 1959 4750 
Q 2769 4750 3195 4129 
Q 3622 3509 3622 2328 
Q 3622 1225 3098 567 
Q 2575 -91 1691 -91 
Q 1453 -91 1209 -44 
Q 966 3 703 97 
z
M 1959 2075 
Q 2384 2075 2632 2365 
Q 2881 2656 2881 3163 
Q 2881 3666 2632 3958 
Q 2384 4250 1959 4250 
Q 1534 4250 1286 3958 
Q 1038 3666 1038 3163 
Q 1038 2656 1286 2365 
Q 1534 2075 1959 2075 
z
" transform="scale(0.015625)"/>
        <path id="DejaVuSans-36" d="M 2113 2584 
Q 1688 2584 1439 2293 
Q 1191 2003 1191 1497 
Q 1191 994 1439 701 
Q 1688 409 2113 409 
Q 2538 409 2786 701 
Q 3034 994 3034 1497 
Q 3034 2003 2786 2293 
Q 2538 2584 2113 2584 
z
M 3366 4563 
L 3366 3988 
Q 3128 4100 2886 4159 
Q 2644 4219 2406 4219 
Q 1781 4219 1451 3797 
Q 1122 3375 1075 2522 
Q 1259 2794 1537 2939 
Q 1816 3084 2150 3084 
Q 2853 3084 3261 2657 
Q 3669 2231 3669 1497 
Q 3669 778 3244 343 
Q 2819 -91 2113 -91 
Q 1303 -91 875 529 
Q 447 1150 447 2328 
Q 447 3434 972 4092 
Q 1497 4750 2381 4750 
Q 2619 4750 2861 4703 
Q 3103 4656 3366 4563 
z
" transform="scale(0.015625)"/>
        <path id="DejaVuSans-30" d="M 2034 4250 
Q 1547 4250 1301 3770 
Q 1056 3291 1056 2328 
Q 1056 1369 1301 889 
Q 1547 409 2034 409 
Q 2525 409 2770 889 
Q 3016 1369 3016 2328 
Q 3016 3291 2770 3770 
Q 2525 4250 2034 4250 
z
M 2034 4750 
Q 2819 4750 3233 4129 
Q 3647 3509 3647 2328 
Q 3647 1150 3233 529 
Q 2819 -91 2034 -91 
Q 1250 -91 836 529 
Q 422 1150 422 2328 
Q 422 3509 836 4129 
Q 1250 4750 2034 4750 
z
" transform="scale(0.015625)"/>
       </defs>
       <use xlink:href="#DejaVuSans-31"/>
       <use xlink:href="#DejaVuSans-39" transform="translate(63.623047 0)"/>
       <use xlink:href="#DejaVuSans-36" transform="translate(127.246094 0)"/>
       <use xlink:href="#DejaVuSans-30" transform="translate(190.869141 0)"/>
      </g>
     </g>
    </g>
    <g id="xtick_2">
     <g id="line2d_2">
      <g>
       <use xlink:href="#m0f2b47ef05" x="207.508314" y="390.04" style="stroke: #000000; stroke-width: 0.8"/>
      </g>
     </g>
     <g id="text_2">
      <!-- 1970 -->
      <g transform="translate(194.783314 404.638438) scale(0.1 -0.1)">
       <defs>
        <path id="DejaVuSans-37" d="M 525 4666 
L 3525 4666 
L 3525 4397 
L 1831 0 
L 1172 0 
L 2766 4134 
L 525 4134 
L 525 4666 
z
" transform="scale(0.015625)"/>
       </defs>
       <use xlink:href="#DejaVuSans-31"/>
       <use xlink:href="#DejaVuSans-39" transform="translate(63.623047 0)"/>
       <use xlink:href="#DejaVuSans-37" transform="translate(127.246094 0)"/>
       <use xlink:href="#DejaVuSans-30" transform="translate(190.869141 0)"/>
      </g>
     </g>
    </g>
    <g id="xtick_3">
     <g id="line2d_3">
      <g>
       <use xlink:href="#m0f2b47ef05" x="318.471657" y="390.04" style="stroke: #000000; stroke-width: 0.8"/>
      </g>
     </g>
     <g id="text_3">
      <!-- 1980 -->
      <g transform="translate(305.746657 404.638438) scale(0.1 -0.1)">
       <defs>
        <path id="DejaVuSans-38" d="M 2034 2216 
Q 1584 2216 1326 1975 
Q 1069 1734 1069 1313 
Q 1069 891 1326 650 
Q 1584 409 2034 409 
Q 2484 409 2743 651 
Q 3003 894 3003 1313 
Q 3003 1734 2745 1975 
Q 2488 2216 2034 2216 
z
M 1403 2484 
Q 997 2584 770 2862 
Q 544 3141 544 3541 
Q 544 4100 942 4425 
Q 1341 4750 2034 4750 
Q 2731 4750 3128 4425 
Q 3525 4100 3525 3541 
Q 3525 3141 3298 2862 
Q 3072 2584 2669 2484 
Q 3125 2378 3379 2068 
Q 3634 1759 3634 1313 
Q 3634 634 3220 271 
Q 2806 -91 2034 -91 
Q 1263 -91 848 271 
Q 434 634 434 1313 
Q 434 1759 690 2068 
Q 947 2378 1403 2484 
z
M 1172 3481 
Q 1172 3119 1398 2916 
Q 1625 2713 2034 2713 
Q 2441 2713 2670 2916 
Q 2900 3119 2900 3481 
Q 2900 3844 2670 4047 
Q 2441 4250 2034 4250 
Q 1625 4250 1398 4047 
Q 1172 3844 1172 3481 
z
" transform="scale(0.015625)"/>
       </defs>
       <use xlink:href="#DejaVuSans-31"/>
       <use xlink:href="#DejaVuSans-39" transform="translate(63.623047 0)"/>
       <use xlink:href="#DejaVuSans-38" transform="translate(127.246094 0)"/>
       <use xlink:href="#DejaVuSans-30" transform="translate(190.869141 0)"/>
      </g>
     </g>
    </g>
    <g id="xtick_4">
     <g id="line2d_4">
      <g>
       <use xlink:href="#m0f2b47ef05" x="429.435" y="390.04" style="stroke: #000000; stroke-width: 0.8"/>
      </g>
     </g>
     <g id="text_4">
      <!-- 1990 -->
      <g transform="translate(416.71 404.638438) scale(0.1 -0.1)">
       <use xlink:href="#DejaVuSans-31"/>
       <use xlink:href="#DejaVuSans-39" transform="translate(63.623047 0)"/>
       <use xlink:href="#DejaVuSans-39" transform="translate(127.246094 0)"/>
       <use xlink:href="#DejaVuSans-30" transform="translate(190.869141 0)"/>
      </g>
     </g>
    </g>
    <g id="xtick_5">
     <g id="line2d_5">
      <g>
       <use xlink:href="#m0f2b47ef05" x="540.398343" y="390.04" style="stroke: #000000; stroke-width: 0.8"/>
      </g>
     </g>
     <g id="text_5">
      <!-- 2000 -->
      <g transform="translate(527.673343 404.638438) scale(0.1 -0.1)">
       <defs>
        <path id="DejaVuSans-32" d="M 1228 531 
L 3431 531 
L 3431 0 
L 469 0 
L 469 531 
Q 828 903 1448 1529 
Q 2069 2156 2228 2338 
Q 2531 2678 2651 2914 
Q 2772 3150 2772 3378 
Q 2772 3750 2511 3984 
Q 2250 4219 1831 4219 
Q 1534 4219 1204 4116 
Q 875 4013 500 3803 
L 500 4441 
Q 881 4594 1212 4672 
Q 1544 4750 1819 4750 
Q 2544 4750 2975 4387 
Q 3406 4025 3406 3419 
Q 3406 3131 3298 2873 
Q 3191 2616 2906 2266 
Q 2828 2175 2409 1742 
Q 1991 1309 1228 531 
z
" transform="scale(0.015625)"/>
       </defs>
       <use xlink:href="#DejaVuSans-32"/>
       <use xlink:href="#DejaVuSans-30" transform="translate(63.623047 0)"/>
       <use xlink:href="#DejaVuSans-30" transform="translate(127.246094 0)"/>
       <use xlink:href="#DejaVuSans-30" transform="translate(190.869141 0)"/>
      </g>
     </g>
    </g>
    <g id="xtick_6">
     <g id="line2d_6">
      <g>
       <use xlink:href="#m0f2b47ef05" x="651.361686" y="390.04" style="stroke: #000000; stroke-width: 0.8"/>
      </g>
     </g>
     <g id="text_6">
      <!-- 2010 -->
      <g transform="translate(638.636686 404.638438) scale(0.1 -0.1)">
       <use xlink:href="#DejaVuSans-32"/>
       <use xlink:href="#DejaVuSans-30" transform="translate(63.623047 0)"/>
       <use xlink:href="#DejaVuSans-31" transform="translate(127.246094 0)"/>
       <use xlink:href="#DejaVuSans-30" transform="translate(190.869141 0)"/>
      </g>
     </g>
    </g>
    <g id="xtick_7">
     <g id="line2d_7">
      <g>
       <use xlink:href="#m0f2b47ef05" x="762.325029" y="390.04" style="stroke: #000000; stroke-width: 0.8"/>
      </g>
     </g>
     <g id="text_7">
      <!-- 2020 -->
      <g transform="translate(749.600029 404.638438) scale(0.1 -0.1)">
       <use xlink:href="#DejaVuSans-32"/>
       <use xlink:href="#DejaVuSans-30" transform="translate(63.623047 0)"/>
       <use xlink:href="#DejaVuSans-32" transform="translate(127.246094 0)"/>
       <use xlink:href="#DejaVuSans-30" transform="translate(190.869141 0)"/>
      </g>
     </g>
    </g>
    <g id="text_8">
     <!-- Year -->
     <g transform="translate(418.8475 418.316562) scale(0.1 -0.1)">
      <defs>
       <path id="DejaVuSans-59" d="M -13 4666 
L 666 4666 
L 1959 2747 
L 3244 4666 
L 3922 4666 
L 2272 2222 
L 2272 0 
L 1638 0 
L 1638 2222 
L -13 4666 
z
" transform="scale(0.015625)"/>
       <path id="DejaVuSans-65" d="M 3597 1894 
L 3597 1613 
L 953 1613 
Q 991 1019 1311 708 
Q 1631 397 2203 397 
Q 2534 397 2845 478 
Q 3156 559 3463 722 
L 3463 178 
Q 3153 47 2828 -22 
Q 2503 -91 2169 -91 
Q 1331 -91 842 396 
Q 353 884 353 1716 
Q 353 2575 817 3079 
Q 1281 3584 2069 3584 
Q 2775 3584 3186 3129 
Q 3597 2675 3597 1894 
z
M 3022 2063 
Q 3016 2534 2758 2815 
Q 2500 3097 2075 3097 
Q 1594 3097 1305 2825 
Q 1016 2553 972 2059 
L 3022 2063 
z
" transform="scale(0.015625)"/>
       <path id="DejaVuSans-61" d="M 2194 1759 
Q 1497 1759 1228 1600 
Q 959 1441 959 1056 
Q 959 750 1161 570 
Q 1363 391 1709 391 
Q 2188 391 2477 730 
Q 2766 1069 2766 1631 
L 2766 1759 
L 2194 1759 
z
M 3341 1997 
L 3341 0 
L 2766 0 
L 2766 531 
Q 2569 213 2275 61 
Q 1981 -91 1556 -91 
Q 1019 -91 701 211 
Q 384 513 384 1019 
Q 384 1609 779 1909 
Q 1175 2209 1959 2209 
L 2766 2209 
L 2766 2266 
Q 2766 2663 2505 2880 
Q 2244 3097 1772 3097 
Q 1472 3097 1187 3025 
Q 903 2953 641 2809 
L 641 3341 
Q 956 3463 1253 3523 
Q 1550 3584 1831 3584 
Q 2591 3584 2966 3190 
Q 3341 2797 3341 1997 
z
" transform="scale(0.015625)"/>
       <path id="DejaVuSans-72" d="M 2631 2963 
Q 2534 3019 2420 3045 
Q 2306 3072 2169 3072 
Q 1681 3072 1420 2755 
Q 1159 2438 1159 1844 
L 1159 0 
L 581 0 
L 581 3500 
L 1159 3500 
L 1159 2956 
Q 1341 3275 1631 3429 
Q 1922 3584 2338 3584 
Q 2397 3584 2469 3576 
Q 2541 3569 2628 3553 
L 2631 2963 
z
" transform="scale(0.015625)"/>
      </defs>
      <use xlink:href="#DejaVuSans-59"/>
      <use xlink:href="#DejaVuSans-65" transform="translate(47.833984 0)"/>
      <use xlink:href="#DejaVuSans-61" transform="translate(109.357422 0)"/>
      <use xlink:href="#DejaVuSans-72" transform="translate(170.636719 0)"/>
     </g>
    </g>
   </g>
   <g id="matplotlib.axis_2">
    <g id="ytick_1">
     <g id="line2d_8">
      <defs>
       <path id="mca5166d6be" d="M 0 0 
L -3.5 0 
" style="stroke: #000000; stroke-width: 0.8"/>
      </defs>
      <g>
       <use xlink:href="#mca5166d6be" x="51.05" y="360.205132" style="stroke: #000000; stroke-width: 0.8"/>
      </g>
     </g>
     <g id="text_9">
      <!-- 320 -->
      <g style="fill: #008000" transform="translate(24.9625 364.004351) scale(0.1 -0.1)">
       <defs>
        <path id="DejaVuSans-33" d="M 2597 2516 
Q 3050 2419 3304 2112 
Q 3559 1806 3559 1356 
Q 3559 666 3084 287 
Q 2609 -91 1734 -91 
Q 1441 -91 1130 -33 
Q 819 25 488 141 
L 488 750 
Q 750 597 1062 519 
Q 1375 441 1716 441 
Q 2309 441 2620 675 
Q 2931 909 2931 1356 
Q 2931 1769 2642 2001 
Q 2353 2234 1838 2234 
L 1294 2234 
L 1294 2753 
L 1863 2753 
Q 2328 2753 2575 2939 
Q 2822 3125 2822 3475 
Q 2822 3834 2567 4026 
Q 2313 4219 1838 4219 
Q 1578 4219 1281 4162 
Q 984 4106 628 3988 
L 628 4550 
Q 988 4650 1302 4700 
Q 1616 4750 1894 4750 
Q 2613 4750 3031 4423 
Q 3450 4097 3450 3541 
Q 3450 3153 3228 2886 
Q 3006 2619 2597 2516 
z
" transform="scale(0.015625)"/>
       </defs>
       <use xlink:href="#DejaVuSans-33"/>
       <use xlink:href="#DejaVuSans-32" transform="translate(63.623047 0)"/>
       <use xlink:href="#DejaVuSans-30" transform="translate(127.246094 0)"/>
      </g>
     </g>
    </g>
    <g id="ytick_2">
     <g id="line2d_9">
      <g>
       <use xlink:href="#mca5166d6be" x="51.05" y="294.224333" style="stroke: #000000; stroke-width: 0.8"/>
      </g>
     </g>
     <g id="text_10">
      <!-- 340 -->
      <g style="fill: #008000" transform="translate(24.9625 298.023551) scale(0.1 -0.1)">
       <defs>
        <path id="DejaVuSans-34" d="M 2419 4116 
L 825 1625 
L 2419 1625 
L 2419 4116 
z
M 2253 4666 
L 3047 4666 
L 3047 1625 
L 3713 1625 
L 3713 1100 
L 3047 1100 
L 3047 0 
L 2419 0 
L 2419 1100 
L 313 1100 
L 313 1709 
L 2253 4666 
z
" transform="scale(0.015625)"/>
       </defs>
       <use xlink:href="#DejaVuSans-33"/>
       <use xlink:href="#DejaVuSans-34" transform="translate(63.623047 0)"/>
       <use xlink:href="#DejaVuSans-30" transform="translate(127.246094 0)"/>
      </g>
     </g>
    </g>
    <g id="ytick_3">
     <g id="line2d_10">
      <g>
       <use xlink:href="#mca5166d6be" x="51.05" y="228.243533" style="stroke: #000000; stroke-width: 0.8"/>
      </g>
     </g>
     <g id="text_11">
      <!-- 360 -->
      <g style="fill: #008000" transform="translate(24.9625 232.042752) scale(0.1 -0.1)">
       <use xlink:href="#DejaVuSans-33"/>
       <use xlink:href="#DejaVuSans-36" transform="translate(63.623047 0)"/>
       <use xlink:href="#DejaVuSans-30" transform="translate(127.246094 0)"/>
      </g>
     </g>
    </g>
    <g id="ytick_4">
     <g id="line2d_11">
      <g>
       <use xlink:href="#mca5166d6be" x="51.05" y="162.262734" style="stroke: #000000; stroke-width: 0.8"/>
      </g>
     </g>
     <g id="text_12">
      <!-- 380 -->
      <g style="fill: #008000" transform="translate(24.9625 166.061953) scale(0.1 -0.1)">
       <use xlink:href="#DejaVuSans-33"/>
       <use xlink:href="#DejaVuSans-38" transform="translate(63.623047 0)"/>
       <use xlink:href="#DejaVuSans-30" transform="translate(127.246094 0)"/>
      </g>
     </g>
    </g>
    <g id="ytick_5">
     <g id="line2d_12">
      <g>
       <use xlink:href="#mca5166d6be" x="51.05" y="96.281935" style="stroke: #000000; stroke-width: 0.8"/>
      </g>
     </g>
     <g id="text_13">
      <!-- 400 -->
      <g style="fill: #008000" transform="translate(24.9625 100.081153) scale(0.1 -0.1)">
       <use xlink:href="#DejaVuSans-34"/>
       <use xlink:href="#DejaVuSans-30" transform="translate(63.623047 0)"/>
       <use xlink:href="#DejaVuSans-30" transform="translate(127.246094 0)"/>
      </g>
     </g>
    </g>
    <g id="ytick_6">
     <g id="line2d_13">
      <g>
       <use xlink:href="#mca5166d6be" x="51.05" y="30.301135" style="stroke: #000000; stroke-width: 0.8"/>
      </g>
     </g>
     <g id="text_14">
      <!-- 420 -->
      <g style="fill: #008000" transform="translate(24.9625 34.100354) scale(0.1 -0.1)">
       <use xlink:href="#DejaVuSans-34"/>
       <use xlink:href="#DejaVuSans-32" transform="translate(63.623047 0)"/>
       <use xlink:href="#DejaVuSans-30" transform="translate(127.246094 0)"/>
      </g>
     </g>
    </g>
    <g id="text_15">
     <!-- CO2 concentration / ppm -->
     <g style="fill: #008000" transform="translate(18.882813 270.647812) rotate(-90) scale(0.1 -0.1)">
      <defs>
       <path id="DejaVuSans-43" d="M 4122 4306 
L 4122 3641 
Q 3803 3938 3442 4084 
Q 3081 4231 2675 4231 
Q 1875 4231 1450 3742 
Q 1025 3253 1025 2328 
Q 1025 1406 1450 917 
Q 1875 428 2675 428 
Q 3081 428 3442 575 
Q 3803 722 4122 1019 
L 4122 359 
Q 3791 134 3420 21 
Q 3050 -91 2638 -91 
Q 1578 -91 968 557 
Q 359 1206 359 2328 
Q 359 3453 968 4101 
Q 1578 4750 2638 4750 
Q 3056 4750 3426 4639 
Q 3797 4528 4122 4306 
z
" transform="scale(0.015625)"/>
       <path id="DejaVuSans-4f" d="M 2522 4238 
Q 1834 4238 1429 3725 
Q 1025 3213 1025 2328 
Q 1025 1447 1429 934 
Q 1834 422 2522 422 
Q 3209 422 3611 934 
Q 4013 1447 4013 2328 
Q 4013 3213 3611 3725 
Q 3209 4238 2522 4238 
z
M 2522 4750 
Q 3503 4750 4090 4092 
Q 4678 3434 4678 2328 
Q 4678 1225 4090 567 
Q 3503 -91 2522 -91 
Q 1538 -91 948 565 
Q 359 1222 359 2328 
Q 359 3434 948 4092 
Q 1538 4750 2522 4750 
z
" transform="scale(0.015625)"/>
       <path id="DejaVuSans-20" transform="scale(0.015625)"/>
       <path id="DejaVuSans-63" d="M 3122 3366 
L 3122 2828 
Q 2878 2963 2633 3030 
Q 2388 3097 2138 3097 
Q 1578 3097 1268 2742 
Q 959 2388 959 1747 
Q 959 1106 1268 751 
Q 1578 397 2138 397 
Q 2388 397 2633 464 
Q 2878 531 3122 666 
L 3122 134 
Q 2881 22 2623 -34 
Q 2366 -91 2075 -91 
Q 1284 -91 818 406 
Q 353 903 353 1747 
Q 353 2603 823 3093 
Q 1294 3584 2113 3584 
Q 2378 3584 2631 3529 
Q 2884 3475 3122 3366 
z
" transform="scale(0.015625)"/>
       <path id="DejaVuSans-6f" d="M 1959 3097 
Q 1497 3097 1228 2736 
Q 959 2375 959 1747 
Q 959 1119 1226 758 
Q 1494 397 1959 397 
Q 2419 397 2687 759 
Q 2956 1122 2956 1747 
Q 2956 2369 2687 2733 
Q 2419 3097 1959 3097 
z
M 1959 3584 
Q 2709 3584 3137 3096 
Q 3566 2609 3566 1747 
Q 3566 888 3137 398 
Q 2709 -91 1959 -91 
Q 1206 -91 779 398 
Q 353 888 353 1747 
Q 353 2609 779 3096 
Q 1206 3584 1959 3584 
z
" transform="scale(0.015625)"/>
       <path id="DejaVuSans-6e" d="M 3513 2113 
L 3513 0 
L 2938 0 
L 2938 2094 
Q 2938 2591 2744 2837 
Q 2550 3084 2163 3084 
Q 1697 3084 1428 2787 
Q 1159 2491 1159 1978 
L 1159 0 
L 581 0 
L 581 3500 
L 1159 3500 
L 1159 2956 
Q 1366 3272 1645 3428 
Q 1925 3584 2291 3584 
Q 2894 3584 3203 3211 
Q 3513 2838 3513 2113 
z
" transform="scale(0.015625)"/>
       <path id="DejaVuSans-74" d="M 1172 4494 
L 1172 3500 
L 2356 3500 
L 2356 3053 
L 1172 3053 
L 1172 1153 
Q 1172 725 1289 603 
Q 1406 481 1766 481 
L 2356 481 
L 2356 0 
L 1766 0 
Q 1100 0 847 248 
Q 594 497 594 1153 
L 594 3053 
L 172 3053 
L 172 3500 
L 594 3500 
L 594 4494 
L 1172 4494 
z
" transform="scale(0.015625)"/>
       <path id="DejaVuSans-69" d="M 603 3500 
L 1178 3500 
L 1178 0 
L 603 0 
L 603 3500 
z
M 603 4863 
L 1178 4863 
L 1178 4134 
L 603 4134 
L 603 4863 
z
" transform="scale(0.015625)"/>
       <path id="DejaVuSans-2f" d="M 1625 4666 
L 2156 4666 
L 531 -594 
L 0 -594 
L 1625 4666 
z
" transform="scale(0.015625)"/>
       <path id="DejaVuSans-70" d="M 1159 525 
L 1159 -1331 
L 581 -1331 
L 581 3500 
L 1159 3500 
L 1159 2969 
Q 1341 3281 1617 3432 
Q 1894 3584 2278 3584 
Q 2916 3584 3314 3078 
Q 3713 2572 3713 1747 
Q 3713 922 3314 415 
Q 2916 -91 2278 -91 
Q 1894 -91 1617 61 
Q 1341 213 1159 525 
z
M 3116 1747 
Q 3116 2381 2855 2742 
Q 2594 3103 2138 3103 
Q 1681 3103 1420 2742 
Q 1159 2381 1159 1747 
Q 1159 1113 1420 752 
Q 1681 391 2138 391 
Q 2594 391 2855 752 
Q 3116 1113 3116 1747 
z
" transform="scale(0.015625)"/>
       <path id="DejaVuSans-6d" d="M 3328 2828 
Q 3544 3216 3844 3400 
Q 4144 3584 4550 3584 
Q 5097 3584 5394 3201 
Q 5691 2819 5691 2113 
L 5691 0 
L 5113 0 
L 5113 2094 
Q 5113 2597 4934 2840 
Q 4756 3084 4391 3084 
Q 3944 3084 3684 2787 
Q 3425 2491 3425 1978 
L 3425 0 
L 2847 0 
L 2847 2094 
Q 2847 2600 2669 2842 
Q 2491 3084 2119 3084 
Q 1678 3084 1418 2786 
Q 1159 2488 1159 1978 
L 1159 0 
L 581 0 
L 581 3500 
L 1159 3500 
L 1159 2956 
Q 1356 3278 1631 3431 
Q 1906 3584 2284 3584 
Q 2666 3584 2933 3390 
Q 3200 3197 3328 2828 
z
" transform="scale(0.015625)"/>
      </defs>
      <use xlink:href="#DejaVuSans-43"/>
      <use xlink:href="#DejaVuSans-4f" transform="translate(69.824219 0)"/>
      <use xlink:href="#DejaVuSans-32" transform="translate(148.535156 0)"/>
      <use xlink:href="#DejaVuSans-20" transform="translate(212.158203 0)"/>
      <use xlink:href="#DejaVuSans-63" transform="translate(243.945312 0)"/>
      <use xlink:href="#DejaVuSans-6f" transform="translate(298.925781 0)"/>
      <use xlink:href="#DejaVuSans-6e" transform="translate(360.107422 0)"/>
      <use xlink:href="#DejaVuSans-63" transform="translate(423.486328 0)"/>
      <use xlink:href="#DejaVuSans-65" transform="translate(478.466797 0)"/>
      <use xlink:href="#DejaVuSans-6e" transform="translate(539.990234 0)"/>
      <use xlink:href="#DejaVuSans-74" transform="translate(603.369141 0)"/>
      <use xlink:href="#DejaVuSans-72" transform="translate(642.578125 0)"/>
      <use xlink:href="#DejaVuSans-61" transform="translate(683.691406 0)"/>
      <use xlink:href="#DejaVuSans-74" transform="translate(744.970703 0)"/>
      <use xlink:href="#DejaVuSans-69" transform="translate(784.179688 0)"/>
      <use xlink:href="#DejaVuSans-6f" transform="translate(811.962891 0)"/>
      <use xlink:href="#DejaVuSans-6e" transform="translate(873.144531 0)"/>
      <use xlink:href="#DejaVuSans-20" transform="translate(936.523438 0)"/>
      <use xlink:href="#DejaVuSans-2f" transform="translate(968.310547 0)"/>
      <use xlink:href="#DejaVuSans-20" transform="translate(1002.001953 0)"/>
      <use xlink:href="#DejaVuSans-70" transform="translate(1033.789062 0)"/>
      <use xlink:href="#DejaVuSans-70" transform="translate(1097.265625 0)"/>
      <use xlink:href="#DejaVuSans-6d" transform="translate(1160.742188 0)"/>
     </g>
    </g>
   </g>
   <g id="line2d_14">
    <path d="M 85.448636 373.467273 
L 96.544971 370.399166 
L 107.641305 367.990866 
L 118.737639 365.318644 
L 129.833974 363.537162 
L 140.930308 361.458767 
L 152.026642 360.07317 
L 163.122977 355.685447 
L 174.219311 353.013225 
L 185.315645 350.14306 
L 196.411979 344.963567 
L 207.508314 341.466585 
L 218.604648 339.355199 
L 229.700982 335.594294 
L 240.797317 328.270425 
L 251.893651 326.587915 
L 262.989985 323.486817 
L 274.08632 320.517681 
L 285.182654 314.546419 
L 296.278988 309.366926 
L 307.375323 304.649299 
L 318.471657 298.315142 
L 329.567991 293.828448 
L 340.664326 289.341754 
L 351.76066 283.832357 
L 362.856994 278.158008 
L 373.953328 273.275429 
L 385.049663 269.118639 
L 396.145997 263.510271 
L 407.242331 255.658556 
L 418.338666 250.677005 
L 429.435 246.553205 
L 440.531334 242.429405 
L 451.627669 239.658212 
L 462.724003 237.447855 
L 473.820337 231.674535 
L 484.916672 225.043465 
L 496.013006 219.204164 
L 507.10934 215.443258 
L 518.205674 205.6781 
L 529.302009 200.069732 
L 540.398343 196.209855 
L 551.494677 190.898401 
L 562.591012 183.871446 
L 573.687346 175.524875 
L 584.78368 169.850526 
L 595.880015 162.328715 
L 606.976349 155.367741 
L 618.072683 149.000593 
L 629.169018 143.029331 
L 640.265352 137.058069 
L 651.361686 128.94243 
L 662.458021 123.16911 
L 673.554355 115.878232 
L 684.650689 107.036805 
L 695.747023 100.207792 
L 706.843358 92.949904 
L 717.939692 81.733168 
L 729.036026 73.980425 
L 740.132361 67.514306 
L 751.228695 57.815129 
L 762.325029 49.303606 
L 773.421364 42.012727 
" clip-path="url(#pbf46418bb5)" style="fill: none; stroke: #008000; stroke-width: 1.5; stroke-linecap: square"/>
    <defs>
     <path id="mcaf5b8bb78" d="M 0 1.5 
C 0.397805 1.5 0.77937 1.341951 1.06066 1.06066 
C 1.341951 0.77937 1.5 0.397805 1.5 0 
C 1.5 -0.397805 1.341951 -0.77937 1.06066 -1.06066 
C 0.77937 -1.341951 0.397805 -1.5 0 -1.5 
C -0.397805 -1.5 -0.77937 -1.341951 -1.06066 -1.06066 
C -1.341951 -0.77937 -1.5 -0.397805 -1.5 0 
C -1.5 0.397805 -1.341951 0.77937 -1.06066 1.06066 
C -0.77937 1.341951 -0.397805 1.5 0 1.5 
z
" style="stroke: #008000"/>
    </defs>
    <g clip-path="url(#pbf46418bb5)">
     <use xlink:href="#mcaf5b8bb78" x="85.448636" y="373.467273" style="fill: #008000; stroke: #008000"/>
     <use xlink:href="#mcaf5b8bb78" x="96.544971" y="370.399166" style="fill: #008000; stroke: #008000"/>
     <use xlink:href="#mcaf5b8bb78" x="107.641305" y="367.990866" style="fill: #008000; stroke: #008000"/>
     <use xlink:href="#mcaf5b8bb78" x="118.737639" y="365.318644" style="fill: #008000; stroke: #008000"/>
     <use xlink:href="#mcaf5b8bb78" x="129.833974" y="363.537162" style="fill: #008000; stroke: #008000"/>
     <use xlink:href="#mcaf5b8bb78" x="140.930308" y="361.458767" style="fill: #008000; stroke: #008000"/>
     <use xlink:href="#mcaf5b8bb78" x="152.026642" y="360.07317" style="fill: #008000; stroke: #008000"/>
     <use xlink:href="#mcaf5b8bb78" x="163.122977" y="355.685447" style="fill: #008000; stroke: #008000"/>
     <use xlink:href="#mcaf5b8bb78" x="174.219311" y="353.013225" style="fill: #008000; stroke: #008000"/>
     <use xlink:href="#mcaf5b8bb78" x="185.315645" y="350.14306" style="fill: #008000; stroke: #008000"/>
     <use xlink:href="#mcaf5b8bb78" x="196.411979" y="344.963567" style="fill: #008000; stroke: #008000"/>
     <use xlink:href="#mcaf5b8bb78" x="207.508314" y="341.466585" style="fill: #008000; stroke: #008000"/>
     <use xlink:href="#mcaf5b8bb78" x="218.604648" y="339.355199" style="fill: #008000; stroke: #008000"/>
     <use xlink:href="#mcaf5b8bb78" x="229.700982" y="335.594294" style="fill: #008000; stroke: #008000"/>
     <use xlink:href="#mcaf5b8bb78" x="240.797317" y="328.270425" style="fill: #008000; stroke: #008000"/>
     <use xlink:href="#mcaf5b8bb78" x="251.893651" y="326.587915" style="fill: #008000; stroke: #008000"/>
     <use xlink:href="#mcaf5b8bb78" x="262.989985" y="323.486817" style="fill: #008000; stroke: #008000"/>
     <use xlink:href="#mcaf5b8bb78" x="274.08632" y="320.517681" style="fill: #008000; stroke: #008000"/>
     <use xlink:href="#mcaf5b8bb78" x="285.182654" y="314.546419" style="fill: #008000; stroke: #008000"/>
     <use xlink:href="#mcaf5b8bb78" x="296.278988" y="309.366926" style="fill: #008000; stroke: #008000"/>
     <use xlink:href="#mcaf5b8bb78" x="307.375323" y="304.649299" style="fill: #008000; stroke: #008000"/>
     <use xlink:href="#mcaf5b8bb78" x="318.471657" y="298.315142" style="fill: #008000; stroke: #008000"/>
     <use xlink:href="#mcaf5b8bb78" x="329.567991" y="293.828448" style="fill: #008000; stroke: #008000"/>
     <use xlink:href="#mcaf5b8bb78" x="340.664326" y="289.341754" style="fill: #008000; stroke: #008000"/>
     <use xlink:href="#mcaf5b8bb78" x="351.76066" y="283.832357" style="fill: #008000; stroke: #008000"/>
     <use xlink:href="#mcaf5b8bb78" x="362.856994" y="278.158008" style="fill: #008000; stroke: #008000"/>
     <use xlink:href="#mcaf5b8bb78" x="373.953328" y="273.275429" style="fill: #008000; stroke: #008000"/>
     <use xlink:href="#mcaf5b8bb78" x="385.049663" y="269.118639" style="fill: #008000; stroke: #008000"/>
     <use xlink:href="#mcaf5b8bb78" x="396.145997" y="263.510271" style="fill: #008000; stroke: #008000"/>
     <use xlink:href="#mcaf5b8bb78" x="407.242331" y="255.658556" style="fill: #008000; stroke: #008000"/>
     <use xlink:href="#mcaf5b8bb78" x="418.338666" y="250.677005" style="fill: #008000; stroke: #008000"/>
     <use xlink:href="#mcaf5b8bb78" x="429.435" y="246.553205" style="fill: #008000; stroke: #008000"/>
     <use xlink:href="#mcaf5b8bb78" x="440.531334" y="242.429405" style="fill: #008000; stroke: #008000"/>
     <use xlink:href="#mcaf5b8bb78" x="451.627669" y="239.658212" style="fill: #008000; stroke: #008000"/>
     <use xlink:href="#mcaf5b8bb78" x="462.724003" y="237.447855" style="fill: #008000; stroke: #008000"/>
     <use xlink:href="#mcaf5b8bb78" x="473.820337" y="231.674535" style="fill: #008000; stroke: #008000"/>
     <use xlink:href="#mcaf5b8bb78" x="484.916672" y="225.043465" style="fill: #008000; stroke: #008000"/>
     <use xlink:href="#mcaf5b8bb78" x="496.013006" y="219.204164" style="fill: #008000; stroke: #008000"/>
     <use xlink:href="#mcaf5b8bb78" x="507.10934" y="215.443258" style="fill: #008000; stroke: #008000"/>
     <use xlink:href="#mcaf5b8bb78" x="518.205674" y="205.6781" style="fill: #008000; stroke: #008000"/>
     <use xlink:href="#mcaf5b8bb78" x="529.302009" y="200.069732" style="fill: #008000; stroke: #008000"/>
     <use xlink:href="#mcaf5b8bb78" x="540.398343" y="196.209855" style="fill: #008000; stroke: #008000"/>
     <use xlink:href="#mcaf5b8bb78" x="551.494677" y="190.898401" style="fill: #008000; stroke: #008000"/>
     <use xlink:href="#mcaf5b8bb78" x="562.591012" y="183.871446" style="fill: #008000; stroke: #008000"/>
     <use xlink:href="#mcaf5b8bb78" x="573.687346" y="175.524875" style="fill: #008000; stroke: #008000"/>
     <use xlink:href="#mcaf5b8bb78" x="584.78368" y="169.850526" style="fill: #008000; stroke: #008000"/>
     <use xlink:href="#mcaf5b8bb78" x="595.880015" y="162.328715" style="fill: #008000; stroke: #008000"/>
     <use xlink:href="#mcaf5b8bb78" x="606.976349" y="155.367741" style="fill: #008000; stroke: #008000"/>
     <use xlink:href="#mcaf5b8bb78" x="618.072683" y="149.000593" style="fill: #008000; stroke: #008000"/>
     <use xlink:href="#mcaf5b8bb78" x="629.169018" y="143.029331" style="fill: #008000; stroke: #008000"/>
     <use xlink:href="#mcaf5b8bb78" x="640.265352" y="137.058069" style="fill: #008000; stroke: #008000"/>
     <use xlink:href="#mcaf5b8bb78" x="651.361686" y="128.94243" style="fill: #008000; stroke: #008000"/>
     <use xlink:href="#mcaf5b8bb78" x="662.458021" y="123.16911" style="fill: #008000; stroke: #008000"/>
     <use xlink:href="#mcaf5b8bb78" x="673.554355" y="115.878232" style="fill: #008000; stroke: #008000"/>
     <use xlink:href="#mcaf5b8bb78" x="684.650689" y="107.036805" style="fill: #008000; stroke: #008000"/>
     <use xlink:href="#mcaf5b8bb78" x="695.747023" y="100.207792" style="fill: #008000; stroke: #008000"/>
     <use xlink:href="#mcaf5b8bb78" x="706.843358" y="92.949904" style="fill: #008000; stroke: #008000"/>
     <use xlink:href="#mcaf5b8bb78" x="717.939692" y="81.733168" style="fill: #008000; stroke: #008000"/>
     <use xlink:href="#mcaf5b8bb78" x="729.036026" y="73.980425" style="fill: #008000; stroke: #008000"/>
     <use xlink:href="#mcaf5b8bb78" x="740.132361" y="67.514306" style="fill: #008000; stroke: #008000"/>
     <use xlink:href="#mcaf5b8bb78" x="751.228695" y="57.815129" style="fill: #008000; stroke: #008000"/>
     <use xlink:href="#mcaf5b8bb78" x="762.325029" y="49.303606" style="fill: #008000; stroke: #008000"/>
     <use xlink:href="#mcaf5b8bb78" x="773.421364" y="42.012727" style="fill: #008000; stroke: #008000"/>
    </g>
   </g>
   <g id="patch_3">
    <path d="M 51.05 390.04 
L 51.05 25.44 
" style="fill: none; stroke: #000000; stroke-width: 0.8; stroke-linejoin: miter; stroke-linecap: square"/>
   </g>
   <g id="patch_4">
    <path d="M 807.82 390.04 
L 807.82 25.44 
" style="fill: none; stroke: #000000; stroke-width: 0.8; stroke-linejoin: miter; stroke-linecap: square"/>
   </g>
   <g id="patch_5">
    <path d="M 51.05 390.04 
L 807.82 390.04 
" style="fill: none; stroke: #000000; stroke-width: 0.8; stroke-linejoin: miter; stroke-linecap: square"/>
   </g>
   <g id="patch_6">
    <path d="M 51.05 25.44 
L 807.82 25.44 
" style="fill: none; stroke: #000000; stroke-width: 0.8; stroke-linejoin: miter; stroke-linecap: square"/>
   </g>
  </g>
  <g id="axes_2">
   <g id="matplotlib.axis_3">
    <g id="ytick_7">
     <g id="line2d_15">
      <defs>
       <path id="m80258b23e7" d="M 0 0 
L 3.5 0 
" style="stroke: #000000; stroke-width: 0.8"/>
      </defs>
      <g>
       <use xlink:href="#m80258b23e7" x="807.82" y="373.467273" style="stroke: #000000; stroke-width: 0.8"/>
      </g>
     </g>
     <g id="text_16">
      <!-- −0.2 -->
      <g style="fill: #ff0000" transform="translate(814.82 377.266491) scale(0.1 -0.1)">
       <defs>
        <path id="DejaVuSans-2212" d="M 678 2272 
L 4684 2272 
L 4684 1741 
L 678 1741 
L 678 2272 
z
" transform="scale(0.015625)"/>
        <path id="DejaVuSans-2e" d="M 684 794 
L 1344 794 
L 1344 0 
L 684 0 
L 684 794 
z
" transform="scale(0.015625)"/>
       </defs>
       <use xlink:href="#DejaVuSans-2212"/>
       <use xlink:href="#DejaVuSans-30" transform="translate(83.789062 0)"/>
       <use xlink:href="#DejaVuSans-2e" transform="translate(147.412109 0)"/>
       <use xlink:href="#DejaVuSans-32" transform="translate(179.199219 0)"/>
      </g>
     </g>
    </g>
    <g id="ytick_8">
     <g id="line2d_16">
      <g>
       <use xlink:href="#m80258b23e7" x="807.82" y="319.130462" style="stroke: #000000; stroke-width: 0.8"/>
      </g>
     </g>
     <g id="text_17">
      <!-- 0.0 -->
      <g style="fill: #ff0000" transform="translate(814.82 322.929681) scale(0.1 -0.1)">
       <use xlink:href="#DejaVuSans-30"/>
       <use xlink:href="#DejaVuSans-2e" transform="translate(63.623047 0)"/>
       <use xlink:href="#DejaVuSans-30" transform="translate(95.410156 0)"/>
      </g>
     </g>
    </g>
    <g id="ytick_9">
     <g id="line2d_17">
      <g>
       <use xlink:href="#m80258b23e7" x="807.82" y="264.793651" style="stroke: #000000; stroke-width: 0.8"/>
      </g>
     </g>
     <g id="text_18">
      <!-- 0.2 -->
      <g style="fill: #ff0000" transform="translate(814.82 268.59287) scale(0.1 -0.1)">
       <use xlink:href="#DejaVuSans-30"/>
       <use xlink:href="#DejaVuSans-2e" transform="translate(63.623047 0)"/>
       <use xlink:href="#DejaVuSans-32" transform="translate(95.410156 0)"/>
      </g>
     </g>
    </g>
    <g id="ytick_10">
     <g id="line2d_18">
      <g>
       <use xlink:href="#m80258b23e7" x="807.82" y="210.456841" style="stroke: #000000; stroke-width: 0.8"/>
      </g>
     </g>
     <g id="text_19">
      <!-- 0.4 -->
      <g style="fill: #ff0000" transform="translate(814.82 214.256059) scale(0.1 -0.1)">
       <use xlink:href="#DejaVuSans-30"/>
       <use xlink:href="#DejaVuSans-2e" transform="translate(63.623047 0)"/>
       <use xlink:href="#DejaVuSans-34" transform="translate(95.410156 0)"/>
      </g>
     </g>
    </g>
    <g id="ytick_11">
     <g id="line2d_19">
      <g>
       <use xlink:href="#m80258b23e7" x="807.82" y="156.12003" style="stroke: #000000; stroke-width: 0.8"/>
      </g>
     </g>
     <g id="text_20">
      <!-- 0.6 -->
      <g style="fill: #ff0000" transform="translate(814.82 159.919249) scale(0.1 -0.1)">
       <use xlink:href="#DejaVuSans-30"/>
       <use xlink:href="#DejaVuSans-2e" transform="translate(63.623047 0)"/>
       <use xlink:href="#DejaVuSans-36" transform="translate(95.410156 0)"/>
      </g>
     </g>
    </g>
    <g id="ytick_12">
     <g id="line2d_20">
      <g>
       <use xlink:href="#m80258b23e7" x="807.82" y="101.783219" style="stroke: #000000; stroke-width: 0.8"/>
      </g>
     </g>
     <g id="text_21">
      <!-- 0.8 -->
      <g style="fill: #ff0000" transform="translate(814.82 105.582438) scale(0.1 -0.1)">
       <use xlink:href="#DejaVuSans-30"/>
       <use xlink:href="#DejaVuSans-2e" transform="translate(63.623047 0)"/>
       <use xlink:href="#DejaVuSans-38" transform="translate(95.410156 0)"/>
      </g>
     </g>
    </g>
    <g id="ytick_13">
     <g id="line2d_21">
      <g>
       <use xlink:href="#m80258b23e7" x="807.82" y="47.446408" style="stroke: #000000; stroke-width: 0.8"/>
      </g>
     </g>
     <g id="text_22">
      <!-- 1.0 -->
      <g style="fill: #ff0000" transform="translate(814.82 51.245627) scale(0.1 -0.1)">
       <use xlink:href="#DejaVuSans-31"/>
       <use xlink:href="#DejaVuSans-2e" transform="translate(63.623047 0)"/>
       <use xlink:href="#DejaVuSans-30" transform="translate(95.410156 0)"/>
      </g>
     </g>
    </g>
    <g id="text_23">
     <!-- Temperature change from 1951-1980 / C -->
     <g style="fill: #ff0000" transform="translate(850.70125 309.818906) rotate(-90) scale(0.1 -0.1)">
      <defs>
       <path id="DejaVuSans-54" d="M -19 4666 
L 3928 4666 
L 3928 4134 
L 2272 4134 
L 2272 0 
L 1638 0 
L 1638 4134 
L -19 4134 
L -19 4666 
z
" transform="scale(0.015625)"/>
       <path id="DejaVuSans-75" d="M 544 1381 
L 544 3500 
L 1119 3500 
L 1119 1403 
Q 1119 906 1312 657 
Q 1506 409 1894 409 
Q 2359 409 2629 706 
Q 2900 1003 2900 1516 
L 2900 3500 
L 3475 3500 
L 3475 0 
L 2900 0 
L 2900 538 
Q 2691 219 2414 64 
Q 2138 -91 1772 -91 
Q 1169 -91 856 284 
Q 544 659 544 1381 
z
M 1991 3584 
L 1991 3584 
z
" transform="scale(0.015625)"/>
       <path id="DejaVuSans-68" d="M 3513 2113 
L 3513 0 
L 2938 0 
L 2938 2094 
Q 2938 2591 2744 2837 
Q 2550 3084 2163 3084 
Q 1697 3084 1428 2787 
Q 1159 2491 1159 1978 
L 1159 0 
L 581 0 
L 581 4863 
L 1159 4863 
L 1159 2956 
Q 1366 3272 1645 3428 
Q 1925 3584 2291 3584 
Q 2894 3584 3203 3211 
Q 3513 2838 3513 2113 
z
" transform="scale(0.015625)"/>
       <path id="DejaVuSans-67" d="M 2906 1791 
Q 2906 2416 2648 2759 
Q 2391 3103 1925 3103 
Q 1463 3103 1205 2759 
Q 947 2416 947 1791 
Q 947 1169 1205 825 
Q 1463 481 1925 481 
Q 2391 481 2648 825 
Q 2906 1169 2906 1791 
z
M 3481 434 
Q 3481 -459 3084 -895 
Q 2688 -1331 1869 -1331 
Q 1566 -1331 1297 -1286 
Q 1028 -1241 775 -1147 
L 775 -588 
Q 1028 -725 1275 -790 
Q 1522 -856 1778 -856 
Q 2344 -856 2625 -561 
Q 2906 -266 2906 331 
L 2906 616 
Q 2728 306 2450 153 
Q 2172 0 1784 0 
Q 1141 0 747 490 
Q 353 981 353 1791 
Q 353 2603 747 3093 
Q 1141 3584 1784 3584 
Q 2172 3584 2450 3431 
Q 2728 3278 2906 2969 
L 2906 3500 
L 3481 3500 
L 3481 434 
z
" transform="scale(0.015625)"/>
       <path id="DejaVuSans-66" d="M 2375 4863 
L 2375 4384 
L 1825 4384 
Q 1516 4384 1395 4259 
Q 1275 4134 1275 3809 
L 1275 3500 
L 2222 3500 
L 2222 3053 
L 1275 3053 
L 1275 0 
L 697 0 
L 697 3053 
L 147 3053 
L 147 3500 
L 697 3500 
L 697 3744 
Q 697 4328 969 4595 
Q 1241 4863 1831 4863 
L 2375 4863 
z
" transform="scale(0.015625)"/>
       <path id="DejaVuSans-35" d="M 691 4666 
L 3169 4666 
L 3169 4134 
L 1269 4134 
L 1269 2991 
Q 1406 3038 1543 3061 
Q 1681 3084 1819 3084 
Q 2600 3084 3056 2656 
Q 3513 2228 3513 1497 
Q 3513 744 3044 326 
Q 2575 -91 1722 -91 
Q 1428 -91 1123 -41 
Q 819 9 494 109 
L 494 744 
Q 775 591 1075 516 
Q 1375 441 1709 441 
Q 2250 441 2565 725 
Q 2881 1009 2881 1497 
Q 2881 1984 2565 2268 
Q 2250 2553 1709 2553 
Q 1456 2553 1204 2497 
Q 953 2441 691 2322 
L 691 4666 
z
" transform="scale(0.015625)"/>
       <path id="DejaVuSans-2d" d="M 313 2009 
L 1997 2009 
L 1997 1497 
L 313 1497 
L 313 2009 
z
" transform="scale(0.015625)"/>
      </defs>
      <use xlink:href="#DejaVuSans-54"/>
      <use xlink:href="#DejaVuSans-65" transform="translate(44.083984 0)"/>
      <use xlink:href="#DejaVuSans-6d" transform="translate(105.607422 0)"/>
      <use xlink:href="#DejaVuSans-70" transform="translate(203.019531 0)"/>
      <use xlink:href="#DejaVuSans-65" transform="translate(266.496094 0)"/>
      <use xlink:href="#DejaVuSans-72" transform="translate(328.019531 0)"/>
      <use xlink:href="#DejaVuSans-61" transform="translate(369.132812 0)"/>
      <use xlink:href="#DejaVuSans-74" transform="translate(430.412109 0)"/>
      <use xlink:href="#DejaVuSans-75" transform="translate(469.621094 0)"/>
      <use xlink:href="#DejaVuSans-72" transform="translate(533 0)"/>
      <use xlink:href="#DejaVuSans-65" transform="translate(571.863281 0)"/>
      <use xlink:href="#DejaVuSans-20" transform="translate(633.386719 0)"/>
      <use xlink:href="#DejaVuSans-63" transform="translate(665.173828 0)"/>
      <use xlink:href="#DejaVuSans-68" transform="translate(720.154297 0)"/>
      <use xlink:href="#DejaVuSans-61" transform="translate(783.533203 0)"/>
      <use xlink:href="#DejaVuSans-6e" transform="translate(844.8125 0)"/>
      <use xlink:href="#DejaVuSans-67" transform="translate(908.191406 0)"/>
      <use xlink:href="#DejaVuSans-65" transform="translate(971.667969 0)"/>
      <use xlink:href="#DejaVuSans-20" transform="translate(1033.191406 0)"/>
      <use xlink:href="#DejaVuSans-66" transform="translate(1064.978516 0)"/>
      <use xlink:href="#DejaVuSans-72" transform="translate(1100.183594 0)"/>
      <use xlink:href="#DejaVuSans-6f" transform="translate(1139.046875 0)"/>
      <use xlink:href="#DejaVuSans-6d" transform="translate(1200.228516 0)"/>
      <use xlink:href="#DejaVuSans-20" transform="translate(1297.640625 0)"/>
      <use xlink:href="#DejaVuSans-31" transform="translate(1329.427734 0)"/>
      <use xlink:href="#DejaVuSans-39" transform="translate(1393.050781 0)"/>
      <use xlink:href="#DejaVuSans-35" transform="translate(1456.673828 0)"/>
      <use xlink:href="#DejaVuSans-31" transform="translate(1520.296875 0)"/>
      <use xlink:href="#DejaVuSans-2d" transform="translate(1583.919922 0)"/>
      <use xlink:href="#DejaVuSans-31" transform="translate(1620.003906 0)"/>
      <use xlink:href="#DejaVuSans-39" transform="translate(1683.626953 0)"/>
      <use xlink:href="#DejaVuSans-38" transform="translate(1747.25 0)"/>
      <use xlink:href="#DejaVuSans-30" transform="translate(1810.873047 0)"/>
      <use xlink:href="#DejaVuSans-20" transform="translate(1874.496094 0)"/>
      <use xlink:href="#DejaVuSans-2f" transform="translate(1906.283203 0)"/>
      <use xlink:href="#DejaVuSans-20" transform="translate(1939.974609 0)"/>
      <use xlink:href="#DejaVuSans-43" transform="translate(1971.761719 0)"/>
     </g>
    </g>
   </g>
   <g id="line2d_22">
    <path d="M 85.448636 310.97994 
L 96.544971 327.280984 
L 107.641305 302.829419 
L 118.737639 310.97994 
L 129.833974 305.546259 
L 140.930308 373.467273 
L 152.026642 349.015708 
L 163.122977 335.431505 
L 174.219311 324.564143 
L 185.315645 340.865186 
L 196.411979 305.546259 
L 207.508314 310.97994 
L 218.604648 340.865186 
L 229.700982 316.413621 
L 240.797317 275.661013 
L 251.893651 338.148346 
L 262.989985 321.847303 
L 274.08632 346.298867 
L 285.182654 270.227332 
L 296.278988 300.112578 
L 307.375323 275.661013 
L 318.471657 248.492608 
L 329.567991 232.191565 
L 340.664326 281.094694 
L 351.76066 234.908405 
L 362.856994 275.661013 
L 373.953328 286.528376 
L 385.049663 270.227332 
L 396.145997 232.191565 
L 407.242331 213.173681 
L 418.338666 245.775768 
L 429.435 196.872638 
L 440.531334 210.456841 
L 451.627669 259.35997 
L 462.724003 256.64313 
L 473.820337 232.191565 
L 484.916672 196.872638 
L 496.013006 229.474724 
L 507.10934 194.155797 
L 518.205674 153.403189 
L 529.302009 215.890522 
L 540.398343 213.173681 
L 551.494677 175.137914 
L 562.591012 147.969508 
L 573.687346 150.686349 
L 584.78368 175.137914 
L 595.880015 137.102146 
L 606.976349 147.969508 
L 618.072683 139.818987 
L 629.169018 172.421073 
L 640.265352 142.535827 
L 651.361686 123.517943 
L 662.458021 153.403189 
L 673.554355 142.535827 
L 684.650689 137.102146 
L 695.747023 118.084262 
L 706.843358 77.331654 
L 717.939692 44.729568 
L 729.036026 69.181133 
L 740.132361 90.915857 
L 751.228695 55.59693 
L 762.325029 42.012727 
L 773.421364 90.915857 
" clip-path="url(#pbf46418bb5)" style="fill: none; stroke: #ff0000; stroke-width: 1.5; stroke-linecap: square"/>
    <defs>
     <path id="mb066d3219e" d="M 0 1.5 
C 0.397805 1.5 0.77937 1.341951 1.06066 1.06066 
C 1.341951 0.77937 1.5 0.397805 1.5 0 
C 1.5 -0.397805 1.341951 -0.77937 1.06066 -1.06066 
C 0.77937 -1.341951 0.397805 -1.5 0 -1.5 
C -0.397805 -1.5 -0.77937 -1.341951 -1.06066 -1.06066 
C -1.341951 -0.77937 -1.5 -0.397805 -1.5 0 
C -1.5 0.397805 -1.341951 0.77937 -1.06066 1.06066 
C -0.77937 1.341951 -0.397805 1.5 0 1.5 
z
" style="stroke: #ff0000"/>
    </defs>
    <g clip-path="url(#pbf46418bb5)">
     <use xlink:href="#mb066d3219e" x="85.448636" y="310.97994" style="fill: #ff0000; stroke: #ff0000"/>
     <use xlink:href="#mb066d3219e" x="96.544971" y="327.280984" style="fill: #ff0000; stroke: #ff0000"/>
     <use xlink:href="#mb066d3219e" x="107.641305" y="302.829419" style="fill: #ff0000; stroke: #ff0000"/>
     <use xlink:href="#mb066d3219e" x="118.737639" y="310.97994" style="fill: #ff0000; stroke: #ff0000"/>
     <use xlink:href="#mb066d3219e" x="129.833974" y="305.546259" style="fill: #ff0000; stroke: #ff0000"/>
     <use xlink:href="#mb066d3219e" x="140.930308" y="373.467273" style="fill: #ff0000; stroke: #ff0000"/>
     <use xlink:href="#mb066d3219e" x="152.026642" y="349.015708" style="fill: #ff0000; stroke: #ff0000"/>
     <use xlink:href="#mb066d3219e" x="163.122977" y="335.431505" style="fill: #ff0000; stroke: #ff0000"/>
     <use xlink:href="#mb066d3219e" x="174.219311" y="324.564143" style="fill: #ff0000; stroke: #ff0000"/>
     <use xlink:href="#mb066d3219e" x="185.315645" y="340.865186" style="fill: #ff0000; stroke: #ff0000"/>
     <use xlink:href="#mb066d3219e" x="196.411979" y="305.546259" style="fill: #ff0000; stroke: #ff0000"/>
     <use xlink:href="#mb066d3219e" x="207.508314" y="310.97994" style="fill: #ff0000; stroke: #ff0000"/>
     <use xlink:href="#mb066d3219e" x="218.604648" y="340.865186" style="fill: #ff0000; stroke: #ff0000"/>
     <use xlink:href="#mb066d3219e" x="229.700982" y="316.413621" style="fill: #ff0000; stroke: #ff0000"/>
     <use xlink:href="#mb066d3219e" x="240.797317" y="275.661013" style="fill: #ff0000; stroke: #ff0000"/>
     <use xlink:href="#mb066d3219e" x="251.893651" y="338.148346" style="fill: #ff0000; stroke: #ff0000"/>
     <use xlink:href="#mb066d3219e" x="262.989985" y="321.847303" style="fill: #ff0000; stroke: #ff0000"/>
     <use xlink:href="#mb066d3219e" x="274.08632" y="346.298867" style="fill: #ff0000; stroke: #ff0000"/>
     <use xlink:href="#mb066d3219e" x="285.182654" y="270.227332" style="fill: #ff0000; stroke: #ff0000"/>
     <use xlink:href="#mb066d3219e" x="296.278988" y="300.112578" style="fill: #ff0000; stroke: #ff0000"/>
     <use xlink:href="#mb066d3219e" x="307.375323" y="275.661013" style="fill: #ff0000; stroke: #ff0000"/>
     <use xlink:href="#mb066d3219e" x="318.471657" y="248.492608" style="fill: #ff0000; stroke: #ff0000"/>
     <use xlink:href="#mb066d3219e" x="329.567991" y="232.191565" style="fill: #ff0000; stroke: #ff0000"/>
     <use xlink:href="#mb066d3219e" x="340.664326" y="281.094694" style="fill: #ff0000; stroke: #ff0000"/>
     <use xlink:href="#mb066d3219e" x="351.76066" y="234.908405" style="fill: #ff0000; stroke: #ff0000"/>
     <use xlink:href="#mb066d3219e" x="362.856994" y="275.661013" style="fill: #ff0000; stroke: #ff0000"/>
     <use xlink:href="#mb066d3219e" x="373.953328" y="286.528376" style="fill: #ff0000; stroke: #ff0000"/>
     <use xlink:href="#mb066d3219e" x="385.049663" y="270.227332" style="fill: #ff0000; stroke: #ff0000"/>
     <use xlink:href="#mb066d3219e" x="396.145997" y="232.191565" style="fill: #ff0000; stroke: #ff0000"/>
     <use xlink:href="#mb066d3219e" x="407.242331" y="213.173681" style="fill: #ff0000; stroke: #ff0000"/>
     <use xlink:href="#mb066d3219e" x="418.338666" y="245.775768" style="fill: #ff0000; stroke: #ff0000"/>
     <use xlink:href="#mb066d3219e" x="429.435" y="196.872638" style="fill: #ff0000; stroke: #ff0000"/>
     <use xlink:href="#mb066d3219e" x="440.531334" y="210.456841" style="fill: #ff0000; stroke: #ff0000"/>
     <use xlink:href="#mb066d3219e" x="451.627669" y="259.35997" style="fill: #ff0000; stroke: #ff0000"/>
     <use xlink:href="#mb066d3219e" x="462.724003" y="256.64313" style="fill: #ff0000; stroke: #ff0000"/>
     <use xlink:href="#mb066d3219e" x="473.820337" y="232.191565" style="fill: #ff0000; stroke: #ff0000"/>
     <use xlink:href="#mb066d3219e" x="484.916672" y="196.872638" style="fill: #ff0000; stroke: #ff0000"/>
     <use xlink:href="#mb066d3219e" x="496.013006" y="229.474724" style="fill: #ff0000; stroke: #ff0000"/>
     <use xlink:href="#mb066d3219e" x="507.10934" y="194.155797" style="fill: #ff0000; stroke: #ff0000"/>
     <use xlink:href="#mb066d3219e" x="518.205674" y="153.403189" style="fill: #ff0000; stroke: #ff0000"/>
     <use xlink:href="#mb066d3219e" x="529.302009" y="215.890522" style="fill: #ff0000; stroke: #ff0000"/>
     <use xlink:href="#mb066d3219e" x="540.398343" y="213.173681" style="fill: #ff0000; stroke: #ff0000"/>
     <use xlink:href="#mb066d3219e" x="551.494677" y="175.137914" style="fill: #ff0000; stroke: #ff0000"/>
     <use xlink:href="#mb066d3219e" x="562.591012" y="147.969508" style="fill: #ff0000; stroke: #ff0000"/>
     <use xlink:href="#mb066d3219e" x="573.687346" y="150.686349" style="fill: #ff0000; stroke: #ff0000"/>
     <use xlink:href="#mb066d3219e" x="584.78368" y="175.137914" style="fill: #ff0000; stroke: #ff0000"/>
     <use xlink:href="#mb066d3219e" x="595.880015" y="137.102146" style="fill: #ff0000; stroke: #ff0000"/>
     <use xlink:href="#mb066d3219e" x="606.976349" y="147.969508" style="fill: #ff0000; stroke: #ff0000"/>
     <use xlink:href="#mb066d3219e" x="618.072683" y="139.818987" style="fill: #ff0000; stroke: #ff0000"/>
     <use xlink:href="#mb066d3219e" x="629.169018" y="172.421073" style="fill: #ff0000; stroke: #ff0000"/>
     <use xlink:href="#mb066d3219e" x="640.265352" y="142.535827" style="fill: #ff0000; stroke: #ff0000"/>
     <use xlink:href="#mb066d3219e" x="651.361686" y="123.517943" style="fill: #ff0000; stroke: #ff0000"/>
     <use xlink:href="#mb066d3219e" x="662.458021" y="153.403189" style="fill: #ff0000; stroke: #ff0000"/>
     <use xlink:href="#mb066d3219e" x="673.554355" y="142.535827" style="fill: #ff0000; stroke: #ff0000"/>
     <use xlink:href="#mb066d3219e" x="684.650689" y="137.102146" style="fill: #ff0000; stroke: #ff0000"/>
     <use xlink:href="#mb066d3219e" x="695.747023" y="118.084262" style="fill: #ff0000; stroke: #ff0000"/>
     <use xlink:href="#mb066d3219e" x="706.843358" y="77.331654" style="fill: #ff0000; stroke: #ff0000"/>
     <use xlink:href="#mb066d3219e" x="717.939692" y="44.729568" style="fill: #ff0000; stroke: #ff0000"/>
     <use xlink:href="#mb066d3219e" x="729.036026" y="69.181133" style="fill: #ff0000; stroke: #ff0000"/>
     <use xlink:href="#mb066d3219e" x="740.132361" y="90.915857" style="fill: #ff0000; stroke: #ff0000"/>
     <use xlink:href="#mb066d3219e" x="751.228695" y="55.59693" style="fill: #ff0000; stroke: #ff0000"/>
     <use xlink:href="#mb066d3219e" x="762.325029" y="42.012727" style="fill: #ff0000; stroke: #ff0000"/>
     <use xlink:href="#mb066d3219e" x="773.421364" y="90.915857" style="fill: #ff0000; stroke: #ff0000"/>
    </g>
   </g>
   <g id="patch_7">
    <path d="M 51.05 390.04 
L 51.05 25.44 
" style="fill: none; stroke: #000000; stroke-width: 0.8; stroke-linejoin: miter; stroke-linecap: square"/>
   </g>
   <g id="patch_8">
    <path d="M 807.82 390.04 
L 807.82 25.44 
" style="fill: none; stroke: #000000; stroke-width: 0.8; stroke-linejoin: miter; stroke-linecap: square"/>
   </g>
   <g id="patch_9">
    <path d="M 51.05 390.04 
L 807.82 390.04 
" style="fill: none; stroke: #000000; stroke-width: 0.8; stroke-linejoin: miter; stroke-linecap: square"/>
   </g>
   <g id="patch_10">
    <path d="M 51.05 25.44 
L 807.82 25.44 
" style="fill: none; stroke: #000000; stroke-width: 0.8; stroke-linejoin: miter; stroke-linecap: square"/>
   </g>
   <g id="text_24">
    <!-- Aligned CO2 and Temperature Change from 1951-1980 Over Time -->
    <g transform="translate(230.8575 19.44) scale(0.12 -0.12)">
     <defs>
      <path id="DejaVuSans-41" d="M 2188 4044 
L 1331 1722 
L 3047 1722 
L 2188 4044 
z
M 1831 4666 
L 2547 4666 
L 4325 0 
L 3669 0 
L 3244 1197 
L 1141 1197 
L 716 0 
L 50 0 
L 1831 4666 
z
" transform="scale(0.015625)"/>
      <path id="DejaVuSans-6c" d="M 603 4863 
L 1178 4863 
L 1178 0 
L 603 0 
L 603 4863 
z
" transform="scale(0.015625)"/>
      <path id="DejaVuSans-64" d="M 2906 2969 
L 2906 4863 
L 3481 4863 
L 3481 0 
L 2906 0 
L 2906 525 
Q 2725 213 2448 61 
Q 2172 -91 1784 -91 
Q 1150 -91 751 415 
Q 353 922 353 1747 
Q 353 2572 751 3078 
Q 1150 3584 1784 3584 
Q 2172 3584 2448 3432 
Q 2725 3281 2906 2969 
z
M 947 1747 
Q 947 1113 1208 752 
Q 1469 391 1925 391 
Q 2381 391 2643 752 
Q 2906 1113 2906 1747 
Q 2906 2381 2643 2742 
Q 2381 3103 1925 3103 
Q 1469 3103 1208 2742 
Q 947 2381 947 1747 
z
" transform="scale(0.015625)"/>
      <path id="DejaVuSans-76" d="M 191 3500 
L 800 3500 
L 1894 563 
L 2988 3500 
L 3597 3500 
L 2284 0 
L 1503 0 
L 191 3500 
z
" transform="scale(0.015625)"/>
     </defs>
     <use xlink:href="#DejaVuSans-41"/>
     <use xlink:href="#DejaVuSans-6c" transform="translate(68.408203 0)"/>
     <use xlink:href="#DejaVuSans-69" transform="translate(96.191406 0)"/>
     <use xlink:href="#DejaVuSans-67" transform="translate(123.974609 0)"/>
     <use xlink:href="#DejaVuSans-6e" transform="translate(187.451172 0)"/>
     <use xlink:href="#DejaVuSans-65" transform="translate(250.830078 0)"/>
     <use xlink:href="#DejaVuSans-64" transform="translate(312.353516 0)"/>
     <use xlink:href="#DejaVuSans-20" transform="translate(375.830078 0)"/>
     <use xlink:href="#DejaVuSans-43" transform="translate(407.617188 0)"/>
     <use xlink:href="#DejaVuSans-4f" transform="translate(477.441406 0)"/>
     <use xlink:href="#DejaVuSans-32" transform="translate(556.152344 0)"/>
     <use xlink:href="#DejaVuSans-20" transform="translate(619.775391 0)"/>
     <use xlink:href="#DejaVuSans-61" transform="translate(651.5625 0)"/>
     <use xlink:href="#DejaVuSans-6e" transform="translate(712.841797 0)"/>
     <use xlink:href="#DejaVuSans-64" transform="translate(776.220703 0)"/>
     <use xlink:href="#DejaVuSans-20" transform="translate(839.697266 0)"/>
     <use xlink:href="#DejaVuSans-54" transform="translate(871.484375 0)"/>
     <use xlink:href="#DejaVuSans-65" transform="translate(915.568359 0)"/>
     <use xlink:href="#DejaVuSans-6d" transform="translate(977.091797 0)"/>
     <use xlink:href="#DejaVuSans-70" transform="translate(1074.503906 0)"/>
     <use xlink:href="#DejaVuSans-65" transform="translate(1137.980469 0)"/>
     <use xlink:href="#DejaVuSans-72" transform="translate(1199.503906 0)"/>
     <use xlink:href="#DejaVuSans-61" transform="translate(1240.617188 0)"/>
     <use xlink:href="#DejaVuSans-74" transform="translate(1301.896484 0)"/>
     <use xlink:href="#DejaVuSans-75" transform="translate(1341.105469 0)"/>
     <use xlink:href="#DejaVuSans-72" transform="translate(1404.484375 0)"/>
     <use xlink:href="#DejaVuSans-65" transform="translate(1443.347656 0)"/>
     <use xlink:href="#DejaVuSans-20" transform="translate(1504.871094 0)"/>
     <use xlink:href="#DejaVuSans-43" transform="translate(1536.658203 0)"/>
     <use xlink:href="#DejaVuSans-68" transform="translate(1606.482422 0)"/>
     <use xlink:href="#DejaVuSans-61" transform="translate(1669.861328 0)"/>
     <use xlink:href="#DejaVuSans-6e" transform="translate(1731.140625 0)"/>
     <use xlink:href="#DejaVuSans-67" transform="translate(1794.519531 0)"/>
     <use xlink:href="#DejaVuSans-65" transform="translate(1857.996094 0)"/>
     <use xlink:href="#DejaVuSans-20" transform="translate(1919.519531 0)"/>
     <use xlink:href="#DejaVuSans-66" transform="translate(1951.306641 0)"/>
     <use xlink:href="#DejaVuSans-72" transform="translate(1986.511719 0)"/>
     <use xlink:href="#DejaVuSans-6f" transform="translate(2025.375 0)"/>
     <use xlink:href="#DejaVuSans-6d" transform="translate(2086.556641 0)"/>
     <use xlink:href="#DejaVuSans-20" transform="translate(2183.96875 0)"/>
     <use xlink:href="#DejaVuSans-31" transform="translate(2215.755859 0)"/>
     <use xlink:href="#DejaVuSans-39" transform="translate(2279.378906 0)"/>
     <use xlink:href="#DejaVuSans-35" transform="translate(2343.001953 0)"/>
     <use xlink:href="#DejaVuSans-31" transform="translate(2406.625 0)"/>
     <use xlink:href="#DejaVuSans-2d" transform="translate(2470.248047 0)"/>
     <use xlink:href="#DejaVuSans-31" transform="translate(2506.332031 0)"/>
     <use xlink:href="#DejaVuSans-39" transform="translate(2569.955078 0)"/>
     <use xlink:href="#DejaVuSans-38" transform="translate(2633.578125 0)"/>
     <use xlink:href="#DejaVuSans-30" transform="translate(2697.201172 0)"/>
     <use xlink:href="#DejaVuSans-20" transform="translate(2760.824219 0)"/>
     <use xlink:href="#DejaVuSans-4f" transform="translate(2792.611328 0)"/>
     <use xlink:href="#DejaVuSans-76" transform="translate(2871.322266 0)"/>
     <use xlink:href="#DejaVuSans-65" transform="translate(2930.501953 0)"/>
     <use xlink:href="#DejaVuSans-72" transform="translate(2992.025391 0)"/>
     <use xlink:href="#DejaVuSans-20" transform="translate(3033.138672 0)"/>
     <use xlink:href="#DejaVuSans-54" transform="translate(3064.925781 0)"/>
     <use xlink:href="#DejaVuSans-69" transform="translate(3122.884766 0)"/>
     <use xlink:href="#DejaVuSans-6d" transform="translate(3150.667969 0)"/>
     <use xlink:href="#DejaVuSans-65" transform="translate(3248.080078 0)"/>
    </g>
   </g>
  </g>
 </g>
 <defs>
  <clipPath id="pbf46418bb5">
   <rect x="51.05" y="25.44" width="756.77" height="364.6"/>
  </clipPath>
 </defs>
</svg>
