<?xml version="1.0" encoding="utf-8" standalone="no"?>
<!DOCTYPE svg PUBLIC "-//W3C//DTD SVG 1.1//EN"
  "http://www.w3.org/Graphics/SVG/1.1/DTD/svg11.dtd">
<svg xmlns:xlink="http://www.w3.org/1999/xlink" width="864pt" height="360pt" viewBox="0 0 864 360" xmlns="http://www.w3.org/2000/svg" version="1.1">
 <metadata>
  <rdf:RDF xmlns:dc="http://purl.org/dc/elements/1.1/" xmlns:cc="http://creativecommons.org/ns#" xmlns:rdf="http://www.w3.org/1999/02/22-rdf-syntax-ns#">
   <cc:Work>
    <dc:type rdf:resource="http://purl.org/dc/dcmitype/StillImage"/>
    <dc:date>2026-07-08T14:30:38.645044</dc:date>
    <dc:format>image/svg+xml</dc:format>
    <dc:creator>
     <cc:Agent>
      <dc:title>Matplotlib v3.10.0, https://matplotlib.org/</dc:title>
     </cc:Agent>
    </dc:creator>
   </cc:Work>
  </rdf:RDF>
 </metadata>
 <defs>
  <style type="text/css">*{stroke-linejoin: round; stroke-linecap: butt}</style>
 </defs>
 <g id="figure_1">
  <g id="patch_1">
   <path d="M 0 360 
L 864 360 
L 864 0 
L 0 0 
z
" style="fill: #ffffff"/>
  </g>
  <g id="axes_1">
   <g id="patch_2">
    <path d="M 46.64 318.04 
L 853.2 318.04 
L 853.2 25.44 
L 46.64 25.44 
z
" style="fill: #ffffff"/>
   </g>
   <g id="matplotlib.axis_1">
    <g id="xtick_1">
     <g id="line2d_1">
      <path d="M 186.161617 318.04 
L 186.161617 25.44 
" clip-path="url(#p8a300b89fb)" style="fill: none; stroke: #b0b0b0; stroke-width: 0.8; stroke-linecap: square"/>
     </g>
     <g id="line2d_2">
      <defs>
       <path id="m5d69102ab8" d="M 0 0 
L 0 3.5 
" style="stroke: #000000; stroke-width: 0.8"/>
      </defs>
      <g>
       <use xlink:href="#m5d69102ab8" x="186.161617" y="318.04" style="stroke: #000000; stroke-width: 0.8"/>
      </g>
     </g>
     <g id="text_1">
      <!-- 1970 -->
      <g transform="translate(173.436617 332.638438) scale(0.1 -0.1)">
       <defs>
        <path id="DejaVuSans-31" d="M 794 531 
L 1825 531 
L 1825 4091 
L 703 3866 
L 703 4441 
L 1819 4666 
L 2450 4666 
L 2450 531 
L 3481 531 
L 3481 0 
L 794 0 
L 794 531 
z
" transform="scale(0.015625)"/>
        <path id="DejaVuSans-39" d="M 703 97 
L 703 672 
Q 941 559 1184 500 
Q 1428 441 1663 441 
Q 2288 441 2617 861 
Q 2947 1281 2994 2138 
Q 2813 1869 2534 1725 
Q 2256 1581 1919 1581 
Q 1219 1581 811 2004 
Q 403 2428 403 3163 
Q 403 3881 828 4315 
Q 1253 4750 1959 4750 
Q 2769 4750 3195 4129 
Q 3622 3509 3622 2328 
Q 3622 1225 3098 567 
Q 2575 -91 1691 -91 
Q 1453 -91 1209 -44 
Q 966 3 703 97 
z
M 1959 2075 
Q 2384 2075 2632 2365 
Q 2881 2656 2881 3163 
Q 2881 3666 2632 3958 
Q 2384 4250 1959 4250 
Q 1534 4250 1286 3958 
Q 1038 3666 1038 3163 
Q 1038 2656 1286 2365 
Q 1534 2075 1959 2075 
z
" transform="scale(0.015625)"/>
        <path id="DejaVuSans-37" d="M 525 4666 
L 3525 4666 
L 3525 4397 
L 1831 0 
L 1172 0 
L 2766 4134 
L 525 4134 
L 525 4666 
z
" transform="scale(0.015625)"/>
        <path id="DejaVuSans-30" d="M 2034 4250 
Q 1547 4250 1301 3770 
Q 1056 3291 1056 2328 
Q 1056 1369 1301 889 
Q 1547 409 2034 409 
Q 2525 409 2770 889 
Q 3016 1369 3016 2328 
Q 3016 3291 2770 3770 
Q 2525 4250 2034 4250 
z
M 2034 4750 
Q 2819 4750 3233 4129 
Q 3647 3509 3647 2328 
Q 3647 1150 3233 529 
Q 2819 -91 2034 -91 
Q 1250 -91 836 529 
Q 422 1150 422 2328 
Q 422 3509 836 4129 
Q 1250 4750 2034 4750 
z
" transform="scale(0.015625)"/>
       </defs>
       <use xlink:href="#DejaVuSans-31"/>
       <use xlink:href="#DejaVuSans-39" transform="translate(63.623047 0)"/>
       <use xlink:href="#DejaVuSans-37" transform="translate(127.246094 0)"/>
       <use xlink:href="#DejaVuSans-30" transform="translate(190.869141 0)"/>
      </g>
     </g>
    </g>
    <g id="xtick_2">
     <g id="line2d_3">
      <path d="M 336.539513 318.04 
L 336.539513 25.44 
" clip-path="url(#p8a300b89fb)" style="fill: none; stroke: #b0b0b0; stroke-width: 0.8; stroke-linecap: square"/>
     </g>
     <g id="line2d_4">
      <g>
       <use xlink:href="#m5d69102ab8" x="336.539513" y="318.04" style="stroke: #000000; stroke-width: 0.8"/>
      </g>
     </g>
     <g id="text_2">
      <!-- 1980 -->
      <g transform="translate(323.814513 332.638438) scale(0.1 -0.1)">
       <defs>
        <path id="DejaVuSans-38" d="M 2034 2216 
Q 1584 2216 1326 1975 
Q 1069 1734 1069 1313 
Q 1069 891 1326 650 
Q 1584 409 2034 409 
Q 2484 409 2743 651 
Q 3003 894 3003 1313 
Q 3003 1734 2745 1975 
Q 2488 2216 2034 2216 
z
M 1403 2484 
Q 997 2584 770 2862 
Q 544 3141 544 3541 
Q 544 4100 942 4425 
Q 1341 4750 2034 4750 
Q 2731 4750 3128 4425 
Q 3525 4100 3525 3541 
Q 3525 3141 3298 2862 
Q 3072 2584 2669 2484 
Q 3125 2378 3379 2068 
Q 3634 1759 3634 1313 
Q 3634 634 3220 271 
Q 2806 -91 2034 -91 
Q 1263 -91 848 271 
Q 434 634 434 1313 
Q 434 1759 690 2068 
Q 947 2378 1403 2484 
z
M 1172 3481 
Q 1172 3119 1398 2916 
Q 1625 2713 2034 2713 
Q 2441 2713 2670 2916 
Q 2900 3119 2900 3481 
Q 2900 3844 2670 4047 
Q 2441 4250 2034 4250 
Q 1625 4250 1398 4047 
Q 1172 3844 1172 3481 
z
" transform="scale(0.015625)"/>
       </defs>
       <use xlink:href="#DejaVuSans-31"/>
       <use xlink:href="#DejaVuSans-39" transform="translate(63.623047 0)"/>
       <use xlink:href="#DejaVuSans-38" transform="translate(127.246094 0)"/>
       <use xlink:href="#DejaVuSans-30" transform="translate(190.869141 0)"/>
      </g>
     </g>
    </g>
    <g id="xtick_3">
     <g id="line2d_5">
      <path d="M 486.958586 318.04 
L 486.958586 25.44 
" clip-path="url(#p8a300b89fb)" style="fill: none; stroke: #b0b0b0; stroke-width: 0.8; stroke-linecap: square"/>
     </g>
     <g id="line2d_6">
      <g>
       <use xlink:href="#m5d69102ab8" x="486.958586" y="318.04" style="stroke: #000000; stroke-width: 0.8"/>
      </g>
     </g>
     <g id="text_3">
      <!-- 1990 -->
      <g transform="translate(474.233586 332.638438) scale(0.1 -0.1)">
       <use xlink:href="#DejaVuSans-31"/>
       <use xlink:href="#DejaVuSans-39" transform="translate(63.623047 0)"/>
       <use xlink:href="#DejaVuSans-39" transform="translate(127.246094 0)"/>
       <use xlink:href="#DejaVuSans-30" transform="translate(190.869141 0)"/>
      </g>
     </g>
    </g>
    <g id="xtick_4">
     <g id="line2d_7">
      <path d="M 637.336483 318.04 
L 637.336483 25.44 
" clip-path="url(#p8a300b89fb)" style="fill: none; stroke: #b0b0b0; stroke-width: 0.8; stroke-linecap: square"/>
     </g>
     <g id="line2d_8">
      <g>
       <use xlink:href="#m5d69102ab8" x="637.336483" y="318.04" style="stroke: #000000; stroke-width: 0.8"/>
      </g>
     </g>
     <g id="text_4">
      <!-- 2000 -->
      <g transform="translate(624.611483 332.638438) scale(0.1 -0.1)">
       <defs>
        <path id="DejaVuSans-32" d="M 1228 531 
L 3431 531 
L 3431 0 
L 469 0 
L 469 531 
Q 828 903 1448 1529 
Q 2069 2156 2228 2338 
Q 2531 2678 2651 2914 
Q 2772 3150 2772 3378 
Q 2772 3750 2511 3984 
Q 2250 4219 1831 4219 
Q 1534 4219 1204 4116 
Q 875 4013 500 3803 
L 500 4441 
Q 881 4594 1212 4672 
Q 1544 4750 1819 4750 
Q 2544 4750 2975 4387 
Q 3406 4025 3406 3419 
Q 3406 3131 3298 2873 
Q 3191 2616 2906 2266 
Q 2828 2175 2409 1742 
Q 1991 1309 1228 531 
z
" transform="scale(0.015625)"/>
       </defs>
       <use xlink:href="#DejaVuSans-32"/>
       <use xlink:href="#DejaVuSans-30" transform="translate(63.623047 0)"/>
       <use xlink:href="#DejaVuSans-30" transform="translate(127.246094 0)"/>
       <use xlink:href="#DejaVuSans-30" transform="translate(190.869141 0)"/>
      </g>
     </g>
    </g>
    <g id="xtick_5">
     <g id="line2d_9">
      <path d="M 787.755556 318.04 
L 787.755556 25.44 
" clip-path="url(#p8a300b89fb)" style="fill: none; stroke: #b0b0b0; stroke-width: 0.8; stroke-linecap: square"/>
     </g>
     <g id="line2d_10">
      <g>
       <use xlink:href="#m5d69102ab8" x="787.755556" y="318.04" style="stroke: #000000; stroke-width: 0.8"/>
      </g>
     </g>
     <g id="text_5">
      <!-- 2010 -->
      <g transform="translate(775.030556 332.638438) scale(0.1 -0.1)">
       <use xlink:href="#DejaVuSans-32"/>
       <use xlink:href="#DejaVuSans-30" transform="translate(63.623047 0)"/>
       <use xlink:href="#DejaVuSans-31" transform="translate(127.246094 0)"/>
       <use xlink:href="#DejaVuSans-30" transform="translate(190.869141 0)"/>
      </g>
     </g>
    </g>
    <g id="text_6">
     <!-- Date -->
     <g transform="translate(437.969219 346.316563) scale(0.1 -0.1)">
      <defs>
       <path id="DejaVuSans-44" d="M 1259 4147 
L 1259 519 
L 2022 519 
Q 2988 519 3436 956 
Q 3884 1394 3884 2338 
Q 3884 3275 3436 3711 
Q 2988 4147 2022 4147 
L 1259 4147 
z
M 628 4666 
L 1925 4666 
Q 3281 4666 3915 4102 
Q 4550 3538 4550 2338 
Q 4550 1131 3912 565 
Q 3275 0 1925 0 
L 628 0 
L 628 4666 
z
" transform="scale(0.015625)"/>
       <path id="DejaVuSans-61" d="M 2194 1759 
Q 1497 1759 1228 1600 
Q 959 1441 959 1056 
Q 959 750 1161 570 
Q 1363 391 1709 391 
Q 2188 391 2477 730 
Q 2766 1069 2766 1631 
L 2766 1759 
L 2194 1759 
z
M 3341 1997 
L 3341 0 
L 2766 0 
L 2766 531 
Q 2569 213 2275 61 
Q 1981 -91 1556 -91 
Q 1019 -91 701 211 
Q 384 513 384 1019 
Q 384 1609 779 1909 
Q 1175 2209 1959 2209 
L 2766 2209 
L 2766 2266 
Q 2766 2663 2505 2880 
Q 2244 3097 1772 3097 
Q 1472 3097 1187 3025 
Q 903 2953 641 2809 
L 641 3341 
Q 956 3463 1253 3523 
Q 1550 3584 1831 3584 
Q 2591 3584 2966 3190 
Q 3341 2797 3341 1997 
z
" transform="scale(0.015625)"/>
       <path id="DejaVuSans-74" d="M 1172 4494 
L 1172 3500 
L 2356 3500 
L 2356 3053 
L 1172 3053 
L 1172 1153 
Q 1172 725 1289 603 
Q 1406 481 1766 481 
L 2356 481 
L 2356 0 
L 1766 0 
Q 1100 0 847 248 
Q 594 497 594 1153 
L 594 3053 
L 172 3053 
L 172 3500 
L 594 3500 
L 594 4494 
L 1172 4494 
z
" transform="scale(0.015625)"/>
       <path id="DejaVuSans-65" d="M 3597 1894 
L 3597 1613 
L 953 1613 
Q 991 1019 1311 708 
Q 1631 397 2203 397 
Q 2534 397 2845 478 
Q 3156 559 3463 722 
L 3463 178 
Q 3153 47 2828 -22 
Q 2503 -91 2169 -91 
Q 1331 -91 842 396 
Q 353 884 353 1716 
Q 353 2575 817 3079 
Q 1281 3584 2069 3584 
Q 2775 3584 3186 3129 
Q 3597 2675 3597 1894 
z
M 3022 2063 
Q 3016 2534 2758 2815 
Q 2500 3097 2075 3097 
Q 1594 3097 1305 2825 
Q 1016 2553 972 2059 
L 3022 2063 
z
" transform="scale(0.015625)"/>
      </defs>
      <use xlink:href="#DejaVuSans-44"/>
      <use xlink:href="#DejaVuSans-61" transform="translate(77.001953 0)"/>
      <use xlink:href="#DejaVuSans-74" transform="translate(138.28125 0)"/>
      <use xlink:href="#DejaVuSans-65" transform="translate(177.490234 0)"/>
     </g>
    </g>
   </g>
   <g id="matplotlib.axis_2">
    <g id="ytick_1">
     <g id="line2d_11">
      <path d="M 46.64 306.180928 
L 853.2 306.180928 
" clip-path="url(#p8a300b89fb)" style="fill: none; stroke: #b0b0b0; stroke-width: 0.8; stroke-linecap: square"/>
     </g>
     <g id="line2d_12">
      <defs>
       <path id="m26073aac50" d="M 0 0 
L -3.5 0 
" style="stroke: #000000; stroke-width: 0.8"/>
      </defs>
      <g>
       <use xlink:href="#m26073aac50" x="46.64" y="306.180928" style="stroke: #000000; stroke-width: 0.8"/>
      </g>
     </g>
     <g id="text_7">
      <!-- −4 -->
      <g transform="translate(24.897813 309.980146) scale(0.1 -0.1)">
       <defs>
        <path id="DejaVuSans-2212" d="M 678 2272 
L 4684 2272 
L 4684 1741 
L 678 1741 
L 678 2272 
z
" transform="scale(0.015625)"/>
        <path id="DejaVuSans-34" d="M 2419 4116 
L 825 1625 
L 2419 1625 
L 2419 4116 
z
M 2253 4666 
L 3047 4666 
L 3047 1625 
L 3713 1625 
L 3713 1100 
L 3047 1100 
L 3047 0 
L 2419 0 
L 2419 1100 
L 313 1100 
L 313 1709 
L 2253 4666 
z
" transform="scale(0.015625)"/>
       </defs>
       <use xlink:href="#DejaVuSans-2212"/>
       <use xlink:href="#DejaVuSans-34" transform="translate(83.789062 0)"/>
      </g>
     </g>
    </g>
    <g id="ytick_2">
     <g id="line2d_13">
      <path d="M 46.64 258.721302 
L 853.2 258.721302 
" clip-path="url(#p8a300b89fb)" style="fill: none; stroke: #b0b0b0; stroke-width: 0.8; stroke-linecap: square"/>
     </g>
     <g id="line2d_14">
      <g>
       <use xlink:href="#m26073aac50" x="46.64" y="258.721302" style="stroke: #000000; stroke-width: 0.8"/>
      </g>
     </g>
     <g id="text_8">
      <!-- −3 -->
      <g transform="translate(24.897813 262.520521) scale(0.1 -0.1)">
       <defs>
        <path id="DejaVuSans-33" d="M 2597 2516 
Q 3050 2419 3304 2112 
Q 3559 1806 3559 1356 
Q 3559 666 3084 287 
Q 2609 -91 1734 -91 
Q 1441 -91 1130 -33 
Q 819 25 488 141 
L 488 750 
Q 750 597 1062 519 
Q 1375 441 1716 441 
Q 2309 441 2620 675 
Q 2931 909 2931 1356 
Q 2931 1769 2642 2001 
Q 2353 2234 1838 2234 
L 1294 2234 
L 1294 2753 
L 1863 2753 
Q 2328 2753 2575 2939 
Q 2822 3125 2822 3475 
Q 2822 3834 2567 4026 
Q 2313 4219 1838 4219 
Q 1578 4219 1281 4162 
Q 984 4106 628 3988 
L 628 4550 
Q 988 4650 1302 4700 
Q 1616 4750 1894 4750 
Q 2613 4750 3031 4423 
Q 3450 4097 3450 3541 
Q 3450 3153 3228 2886 
Q 3006 2619 2597 2516 
z
" transform="scale(0.015625)"/>
       </defs>
       <use xlink:href="#DejaVuSans-2212"/>
       <use xlink:href="#DejaVuSans-33" transform="translate(83.789062 0)"/>
      </g>
     </g>
    </g>
    <g id="ytick_3">
     <g id="line2d_15">
      <path d="M 46.64 211.261677 
L 853.2 211.261677 
" clip-path="url(#p8a300b89fb)" style="fill: none; stroke: #b0b0b0; stroke-width: 0.8; stroke-linecap: square"/>
     </g>
     <g id="line2d_16">
      <g>
       <use xlink:href="#m26073aac50" x="46.64" y="211.261677" style="stroke: #000000; stroke-width: 0.8"/>
      </g>
     </g>
     <g id="text_9">
      <!-- −2 -->
      <g transform="translate(24.897813 215.060896) scale(0.1 -0.1)">
       <use xlink:href="#DejaVuSans-2212"/>
       <use xlink:href="#DejaVuSans-32" transform="translate(83.789062 0)"/>
      </g>
     </g>
    </g>
    <g id="ytick_4">
     <g id="line2d_17">
      <path d="M 46.64 163.802052 
L 853.2 163.802052 
" clip-path="url(#p8a300b89fb)" style="fill: none; stroke: #b0b0b0; stroke-width: 0.8; stroke-linecap: square"/>
     </g>
     <g id="line2d_18">
      <g>
       <use xlink:href="#m26073aac50" x="46.64" y="163.802052" style="stroke: #000000; stroke-width: 0.8"/>
      </g>
     </g>
     <g id="text_10">
      <!-- −1 -->
      <g transform="translate(24.897813 167.601271) scale(0.1 -0.1)">
       <use xlink:href="#DejaVuSans-2212"/>
       <use xlink:href="#DejaVuSans-31" transform="translate(83.789062 0)"/>
      </g>
     </g>
    </g>
    <g id="ytick_5">
     <g id="line2d_19">
      <path d="M 46.64 116.342427 
L 853.2 116.342427 
" clip-path="url(#p8a300b89fb)" style="fill: none; stroke: #b0b0b0; stroke-width: 0.8; stroke-linecap: square"/>
     </g>
     <g id="line2d_20">
      <g>
       <use xlink:href="#m26073aac50" x="46.64" y="116.342427" style="stroke: #000000; stroke-width: 0.8"/>
      </g>
     </g>
     <g id="text_11">
      <!-- 0 -->
      <g transform="translate(33.2775 120.141646) scale(0.1 -0.1)">
       <use xlink:href="#DejaVuSans-30"/>
      </g>
     </g>
    </g>
    <g id="ytick_6">
     <g id="line2d_21">
      <path d="M 46.64 68.882802 
L 853.2 68.882802 
" clip-path="url(#p8a300b89fb)" style="fill: none; stroke: #b0b0b0; stroke-width: 0.8; stroke-linecap: square"/>
     </g>
     <g id="line2d_22">
      <g>
       <use xlink:href="#m26073aac50" x="46.64" y="68.882802" style="stroke: #000000; stroke-width: 0.8"/>
      </g>
     </g>
     <g id="text_12">
      <!-- 1 -->
      <g transform="translate(33.2775 72.682021) scale(0.1 -0.1)">
       <use xlink:href="#DejaVuSans-31"/>
      </g>
     </g>
    </g>
    <g id="text_13">
     <!-- Residual / ppm -->
     <g transform="translate(18.818125 208.936875) rotate(-90) scale(0.1 -0.1)">
      <defs>
       <path id="DejaVuSans-52" d="M 2841 2188 
Q 3044 2119 3236 1894 
Q 3428 1669 3622 1275 
L 4263 0 
L 3584 0 
L 2988 1197 
Q 2756 1666 2539 1819 
Q 2322 1972 1947 1972 
L 1259 1972 
L 1259 0 
L 628 0 
L 628 4666 
L 2053 4666 
Q 2853 4666 3247 4331 
Q 3641 3997 3641 3322 
Q 3641 2881 3436 2590 
Q 3231 2300 2841 2188 
z
M 1259 4147 
L 1259 2491 
L 2053 2491 
Q 2509 2491 2742 2702 
Q 2975 2913 2975 3322 
Q 2975 3731 2742 3939 
Q 2509 4147 2053 4147 
L 1259 4147 
z
" transform="scale(0.015625)"/>
       <path id="DejaVuSans-73" d="M 2834 3397 
L 2834 2853 
Q 2591 2978 2328 3040 
Q 2066 3103 1784 3103 
Q 1356 3103 1142 2972 
Q 928 2841 928 2578 
Q 928 2378 1081 2264 
Q 1234 2150 1697 2047 
L 1894 2003 
Q 2506 1872 2764 1633 
Q 3022 1394 3022 966 
Q 3022 478 2636 193 
Q 2250 -91 1575 -91 
Q 1294 -91 989 -36 
Q 684 19 347 128 
L 347 722 
Q 666 556 975 473 
Q 1284 391 1588 391 
Q 1994 391 2212 530 
Q 2431 669 2431 922 
Q 2431 1156 2273 1281 
Q 2116 1406 1581 1522 
L 1381 1569 
Q 847 1681 609 1914 
Q 372 2147 372 2553 
Q 372 3047 722 3315 
Q 1072 3584 1716 3584 
Q 2034 3584 2315 3537 
Q 2597 3491 2834 3397 
z
" transform="scale(0.015625)"/>
       <path id="DejaVuSans-69" d="M 603 3500 
L 1178 3500 
L 1178 0 
L 603 0 
L 603 3500 
z
M 603 4863 
L 1178 4863 
L 1178 4134 
L 603 4134 
L 603 4863 
z
" transform="scale(0.015625)"/>
       <path id="DejaVuSans-64" d="M 2906 2969 
L 2906 4863 
L 3481 4863 
L 3481 0 
L 2906 0 
L 2906 525 
Q 2725 213 2448 61 
Q 2172 -91 1784 -91 
Q 1150 -91 751 415 
Q 353 922 353 1747 
Q 353 2572 751 3078 
Q 1150 3584 1784 3584 
Q 2172 3584 2448 3432 
Q 2725 3281 2906 2969 
z
M 947 1747 
Q 947 1113 1208 752 
Q 1469 391 1925 391 
Q 2381 391 2643 752 
Q 2906 1113 2906 1747 
Q 2906 2381 2643 2742 
Q 2381 3103 1925 3103 
Q 1469 3103 1208 2742 
Q 947 2381 947 1747 
z
" transform="scale(0.015625)"/>
       <path id="DejaVuSans-75" d="M 544 1381 
L 544 3500 
L 1119 3500 
L 1119 1403 
Q 1119 906 1312 657 
Q 1506 409 1894 409 
Q 2359 409 2629 706 
Q 2900 1003 2900 1516 
L 2900 3500 
L 3475 3500 
L 3475 0 
L 2900 0 
L 2900 538 
Q 2691 219 2414 64 
Q 2138 -91 1772 -91 
Q 1169 -91 856 284 
Q 544 659 544 1381 
z
M 1991 3584 
L 1991 3584 
z
" transform="scale(0.015625)"/>
       <path id="DejaVuSans-6c" d="M 603 4863 
L 1178 4863 
L 1178 0 
L 603 0 
L 603 4863 
z
" transform="scale(0.015625)"/>
       <path id="DejaVuSans-20" transform="scale(0.015625)"/>
       <path id="DejaVuSans-2f" d="M 1625 4666 
L 2156 4666 
L 531 -594 
L 0 -594 
L 1625 4666 
z
" transform="scale(0.015625)"/>
       <path id="DejaVuSans-70" d="M 1159 525 
L 1159 -1331 
L 581 -1331 
L 581 3500 
L 1159 3500 
L 1159 2969 
Q 1341 3281 1617 3432 
Q 1894 3584 2278 3584 
Q 2916 3584 3314 3078 
Q 3713 2572 3713 1747 
Q 3713 922 3314 415 
Q 2916 -91 2278 -91 
Q 1894 -91 1617 61 
Q 1341 213 1159 525 
z
M 3116 1747 
Q 3116 2381 2855 2742 
Q 2594 3103 2138 3103 
Q 1681 3103 1420 2742 
Q 1159 2381 1159 1747 
Q 1159 1113 1420 752 
Q 1681 391 2138 391 
Q 2594 391 2855 752 
Q 3116 1113 3116 1747 
z
" transform="scale(0.015625)"/>
       <path id="DejaVuSans-6d" d="M 3328 2828 
Q 3544 3216 3844 3400 
Q 4144 3584 4550 3584 
Q 5097 3584 5394 3201 
Q 5691 2819 5691 2113 
L 5691 0 
L 5113 0 
L 5113 2094 
Q 5113 2597 4934 2840 
Q 4756 3084 4391 3084 
Q 3944 3084 3684 2787 
Q 3425 2491 3425 1978 
L 3425 0 
L 2847 0 
L 2847 2094 
Q 2847 2600 2669 2842 
Q 2491 3084 2119 3084 
Q 1678 3084 1418 2786 
Q 1159 2488 1159 1978 
L 1159 0 
L 581 0 
L 581 3500 
L 1159 3500 
L 1159 2956 
Q 1356 3278 1631 3431 
Q 1906 3584 2284 3584 
Q 2666 3584 2933 3390 
Q 3200 3197 3328 2828 
z
" transform="scale(0.015625)"/>
      </defs>
      <use xlink:href="#DejaVuSans-52"/>
      <use xlink:href="#DejaVuSans-65" transform="translate(64.982422 0)"/>
      <use xlink:href="#DejaVuSans-73" transform="translate(126.505859 0)"/>
      <use xlink:href="#DejaVuSans-69" transform="translate(178.605469 0)"/>
      <use xlink:href="#DejaVuSans-64" transform="translate(206.388672 0)"/>
      <use xlink:href="#DejaVuSans-75" transform="translate(269.865234 0)"/>
      <use xlink:href="#DejaVuSans-61" transform="translate(333.244141 0)"/>
      <use xlink:href="#DejaVuSans-6c" transform="translate(394.523438 0)"/>
      <use xlink:href="#DejaVuSans-20" transform="translate(422.306641 0)"/>
      <use xlink:href="#DejaVuSans-2f" transform="translate(454.09375 0)"/>
      <use xlink:href="#DejaVuSans-20" transform="translate(487.785156 0)"/>
      <use xlink:href="#DejaVuSans-70" transform="translate(519.572266 0)"/>
      <use xlink:href="#DejaVuSans-70" transform="translate(583.048828 0)"/>
      <use xlink:href="#DejaVuSans-6d" transform="translate(646.525391 0)"/>
     </g>
    </g>
   </g>
   <g id="line2d_23">
    <path d="M 46.64 116.342427 
L 853.2 116.342427 
" clip-path="url(#p8a300b89fb)" style="fill: none; stroke-dasharray: 5.55,2.4; stroke-dashoffset: 0; stroke: #808080; stroke-width: 1.5"/>
   </g>
   <g id="line2d_24">
    <path d="M 83.301818 38.74 
L 84.578301 112.625472 
L 85.813607 108.629628 
L 87.090089 141.100916 
L 88.325395 135.155986 
L 89.601878 102.306665 
L 90.878361 133.046845 
L 92.113666 90.319812 
L 93.390149 133.242531 
L 94.625455 104.032068 
L 95.901938 101.415932 
L 97.17842 137.281361 
L 98.372549 304.74 
L 99.649032 129.51587 
L 100.884338 152.28819 
L 102.160821 108.774759 
L 103.396126 112.165737 
L 104.672609 109.768115 
L 105.949092 121.533953 
L 107.184398 116.953173 
L 108.46088 121.414879 
L 109.696186 123.63914 
L 110.972669 131.323228 
L 112.249151 105.734626 
L 113.402104 134.173025 
L 114.678586 106.779375 
L 115.913892 146.615403 
L 117.190375 115.426577 
L 118.425681 95.577981 
L 119.702163 127.999319 
L 120.978646 96.071217 
L 122.213952 124.273085 
L 123.490435 92.038099 
L 124.72574 128.478438 
L 126.002223 105.563001 
L 127.278706 94.288023 
L 128.431658 113.976983 
L 129.708141 108.994356 
L 130.943446 118.825368 
L 132.219929 109.351991 
L 133.455235 121.112903 
L 134.731718 111.970855 
L 136.0082 135.143992 
L 137.243506 123.590093 
L 138.519989 99.907868 
L 139.755295 101.456759 
L 141.031777 101.999988 
L 142.30826 127.982128 
L 143.461212 127.435114 
L 144.737695 119.835797 
L 145.973001 122.652063 
L 147.249483 135.529583 
L 148.484789 122.933344 
L 149.761272 106.282473 
L 151.037755 110.65844 
L 152.27306 101.234027 
L 153.549543 101.024458 
L 154.784849 108.411634 
L 156.061332 135.342811 
L 157.337814 121.60731 
L 158.531943 112.252208 
L 159.808426 119.624619 
L 161.043732 121.775829 
L 162.320214 100.792349 
L 163.55552 108.082326 
L 164.832003 119.67924 
L 166.108486 122.653488 
L 167.343791 120.142994 
L 168.620274 121.394714 
L 169.85558 92.887683 
L 171.132063 100.276592 
L 172.408545 123.023758 
L 173.561497 96.03666 
L 174.83798 115.604534 
L 176.073286 104.962952 
L 177.349769 123.228078 
L 178.585075 102.22094 
L 179.861557 120.892989 
L 181.13804 107.821166 
L 182.373346 126.509389 
L 183.649828 129.386807 
L 184.885134 112.785439 
L 186.161617 121.820644 
L 187.4381 99.060759 
L 188.591052 106.810138 
L 189.867534 114.460181 
L 191.10284 144.580277 
L 192.379323 119.351193 
L 193.614629 120.080482 
L 194.891111 102.599641 
L 196.167594 114.614197 
L 197.4029 102.167096 
L 198.679383 125.350674 
L 199.914689 123.168519 
L 201.191171 119.126747 
L 202.467654 119.570507 
L 203.620606 130.102149 
L 204.897089 152.614391 
L 206.132395 100.250949 
L 207.408877 104.997069 
L 208.644183 105.540084 
L 209.920666 114.848431 
L 211.197148 135.255509 
L 212.432454 108.767319 
L 213.708937 109.002801 
L 214.944243 112.681064 
L 216.220725 125.345181 
L 217.497208 108.664697 
L 218.691337 143.331355 
L 219.96782 83.225106 
L 221.203126 119.491351 
L 222.479608 139.857707 
L 223.714914 117.484872 
L 224.991397 107.69538 
L 226.26788 107.111753 
L 227.503185 89.264662 
L 230.014974 112.822569 
L 231.291457 112.934524 
L 232.567939 98.106506 
L 233.720891 109.63241 
L 234.997374 114.376036 
L 236.23268 93.844646 
L 238.744468 111.241905 
L 240.020951 95.782247 
L 241.297434 121.020926 
L 242.53274 124.30764 
L 243.809222 131.956648 
L 245.044528 153.322804 
L 246.321011 144.025501 
L 247.597494 95.203233 
L 248.750446 108.218117 
L 250.026928 118.124894 
L 251.262234 120.183823 
L 252.538717 139.253984 
L 253.774023 117.220863 
L 256.326988 127.096385 
L 257.562294 117.560833 
L 258.838777 124.493941 
L 260.074082 111.84794 
L 261.350565 106.518265 
L 262.627048 114.052781 
L 263.78 125.032663 
L 265.056483 121.805594 
L 266.291788 109.10122 
L 267.568271 111.533098 
L 268.803577 125.441921 
L 270.08006 126.712706 
L 271.356542 110.097293 
L 272.591848 117.846884 
L 273.868331 121.531798 
L 275.103637 105.567749 
L 276.380119 121.48666 
L 277.656602 99.016151 
L 278.850731 114.551156 
L 280.127214 105.817036 
L 281.36252 142.664812 
L 282.639002 133.541716 
L 283.874308 109.152676 
L 285.150791 139.16507 
L 286.427273 129.907972 
L 287.662579 127.365622 
L 288.939062 107.327062 
L 290.174368 98.484118 
L 291.45085 106.037005 
L 292.727333 126.673696 
L 293.880285 66.927827 
L 295.156768 102.749176 
L 296.392074 97.311816 
L 297.668556 117.484103 
L 298.903862 119.475916 
L 300.180345 134.70615 
L 301.456828 106.281211 
L 302.692134 107.883636 
L 303.968616 114.84508 
L 305.203922 118.020477 
L 306.480405 99.930901 
L 307.756887 131.070908 
L 308.90984 91.750481 
L 310.186322 120.701098 
L 311.421628 129.042744 
L 312.698111 91.525441 
L 313.933417 122.759208 
L 315.209899 122.001738 
L 316.486382 140.382954 
L 317.721688 117.001084 
L 318.99817 112.557819 
L 320.233476 117.71782 
L 321.509959 106.946314 
L 322.786442 121.391867 
L 323.939394 84.532782 
L 325.215876 137.835702 
L 326.451182 129.099526 
L 327.727665 95.773503 
L 328.962971 133.886253 
L 330.239454 113.950349 
L 331.515936 121.304169 
L 332.751242 101.977781 
L 334.027725 116.758671 
L 335.263031 99.016799 
L 336.539513 108.335373 
L 337.815996 126.458246 
L 339.010125 82.990946 
L 340.286608 117.658706 
L 341.521913 115.974907 
L 342.798396 98.797544 
L 344.033702 140.632164 
L 345.310185 114.759941 
L 346.586667 106.414295 
L 347.821973 115.919641 
L 349.098456 116.861563 
L 350.333762 126.353111 
L 351.610244 122.461123 
L 352.886727 91.50743 
L 354.039679 106.01156 
L 355.316162 118.078421 
L 356.551468 121.4111 
L 357.82795 121.671183 
L 359.063256 134.968456 
L 360.339739 142.164823 
L 361.616222 122.425913 
L 362.851527 113.298064 
L 364.12801 100.191001 
L 365.363316 105.450757 
L 366.639799 112.592843 
L 367.916281 111.04572 
L 369.069233 113.587722 
L 370.345716 112.997665 
L 371.581022 102.098317 
L 372.857505 131.797911 
L 374.09281 123.985914 
L 376.645776 133.713848 
L 377.881082 120.03713 
L 379.157564 128.662301 
L 380.39287 114.96756 
L 381.669353 128.527918 
L 382.945836 100.175004 
L 384.098788 133.524161 
L 385.37527 78.420539 
L 386.610576 97.659184 
L 387.887059 101.419147 
L 389.122365 113.389067 
L 390.398847 104.082786 
L 391.67533 131.88076 
L 392.910636 116.136758 
L 394.187119 114.490123 
L 395.422424 106.171788 
L 396.698907 113.731717 
L 397.97539 119.631562 
L 399.169519 128.059892 
L 400.446002 98.254034 
L 401.681307 120.736949 
L 402.95779 123.762063 
L 404.193096 118.493611 
L 405.469579 120.942506 
L 406.746061 139.664612 
L 407.981367 111.023242 
L 409.25785 105.078258 
L 410.493156 91.62181 
L 411.769638 133.604373 
L 413.046121 113.456477 
L 414.199073 90.324855 
L 415.475556 132.893885 
L 416.710862 117.464101 
L 417.987344 125.452134 
L 419.22265 136.478305 
L 420.499133 108.135082 
L 421.775616 117.389584 
L 423.010921 123.92667 
L 424.287404 112.487412 
L 425.52271 112.48923 
L 426.799193 129.12584 
L 428.075675 125.273744 
L 429.228627 133.656619 
L 430.50511 103.569219 
L 433.016899 115.64094 
L 434.252204 129.563659 
L 435.528687 127.541887 
L 436.80517 72.347389 
L 438.040476 134.554391 
L 439.316958 113.115974 
L 440.552264 117.897203 
L 441.828747 101.530447 
L 443.10523 141.403133 
L 444.258182 130.353636 
L 445.534664 105.434918 
L 446.76997 106.609414 
L 448.046453 115.708495 
L 449.281759 111.187665 
L 450.558241 116.169769 
L 451.834724 114.234679 
L 453.07003 108.966643 
L 454.346513 110.27164 
L 455.581818 117.738457 
L 456.858301 104.946782 
L 458.134784 90.847181 
L 459.328913 116.090811 
L 460.605395 120.271173 
L 461.840701 114.570435 
L 463.117184 114.281116 
L 464.35249 98.594907 
L 465.628972 126.273358 
L 466.905455 114.931061 
L 468.140761 94.961187 
L 469.417244 120.23372 
L 470.65255 120.584038 
L 471.929032 97.506967 
L 473.205515 131.010274 
L 474.358467 134.363914 
L 475.63495 107.592706 
L 476.870256 133.608793 
L 478.146738 123.047415 
L 479.382044 119.719622 
L 480.658527 128.531382 
L 481.935009 127.076223 
L 483.170315 110.910656 
L 484.446798 116.998201 
L 485.682104 113.23259 
L 486.958586 120.813984 
L 488.235069 94.765873 
L 489.388021 123.495269 
L 490.664504 150.638701 
L 491.89981 107.134071 
L 493.176292 139.173162 
L 494.411598 129.08189 
L 495.688081 112.902671 
L 496.964564 118.493603 
L 498.19987 105.31199 
L 499.476352 104.035421 
L 500.711658 113.177036 
L 501.988141 138.412152 
L 503.264623 119.97335 
L 504.417576 91.946424 
L 505.694058 97.78194 
L 508.205847 135.641763 
L 509.441153 146.581565 
L 510.717635 143.74562 
L 511.994118 128.083317 
L 513.229424 121.093572 
L 514.505906 111.290461 
L 515.741212 114.193571 
L 517.017695 107.446065 
L 518.294178 110.911535 
L 519.488307 124.752188 
L 520.764789 119.780531 
L 522.000095 124.43353 
L 523.276578 103.538981 
L 524.511884 150.849816 
L 525.788366 133.567518 
L 527.064849 142.787375 
L 528.300155 110.008213 
L 529.576638 130.279338 
L 530.811943 123.007958 
L 532.088426 100.015479 
L 533.364909 134.672457 
L 534.517861 111.459342 
L 535.794344 140.058491 
L 537.029649 109.481452 
L 538.306132 121.235761 
L 539.541438 147.738839 
L 540.817921 110.400467 
L 542.094403 114.801321 
L 543.329709 116.844413 
L 544.606192 115.241079 
L 545.841498 106.541644 
L 547.11798 101.043857 
L 548.394463 115.039356 
L 549.547415 111.080756 
L 550.823898 112.768192 
L 552.059204 124.857499 
L 553.335686 132.819274 
L 554.570992 113.859795 
L 555.847475 112.843426 
L 557.123958 118.668957 
L 558.359263 106.249072 
L 559.635746 105.070939 
L 560.871052 106.02353 
L 562.147535 119.908464 
L 563.424017 106.782616 
L 564.576969 113.978607 
L 565.853452 103.501236 
L 567.088758 122.220622 
L 568.365241 113.023832 
L 569.600546 114.25568 
L 570.877029 137.735342 
L 572.153512 93.180792 
L 573.388818 124.674524 
L 574.6653 109.911288 
L 575.900606 120.96088 
L 577.177089 102.327381 
L 578.453572 94.798178 
L 579.647701 111.325454 
L 580.924183 153.559956 
L 583.435972 103.989103 
L 584.671278 104.682505 
L 587.224243 130.164256 
L 588.459549 123.492426 
L 589.736031 120.489156 
L 590.971337 117.230907 
L 592.24782 128.140462 
L 593.524303 114.853908 
L 594.677255 143.31518 
L 595.953737 94.156852 
L 597.189043 125.493852 
L 598.465526 142.34153 
L 599.700832 112.237235 
L 600.977315 116.493676 
L 602.253797 133.274004 
L 603.489103 101.320505 
L 604.765586 95.886502 
L 606.000892 83.456607 
L 607.277374 113.707195 
L 608.553857 119.971656 
L 609.706809 100.933431 
L 610.983292 102.637012 
L 612.218598 100.380124 
L 613.49508 103.415441 
L 614.730386 92.57022 
L 616.006869 99.188751 
L 617.283351 121.493727 
L 618.518657 106.352028 
L 619.79514 123.551103 
L 621.030446 106.947484 
L 622.306929 114.630592 
L 623.583411 109.493175 
L 624.736363 133.175945 
L 626.012846 119.159487 
L 627.248152 148.396785 
L 628.524635 131.221861 
L 629.75994 92.983557 
L 631.036423 136.473456 
L 632.312906 141.896374 
L 633.548212 107.438176 
L 634.824694 114.238335 
L 636.06 118.103686 
L 637.336483 110.477872 
L 638.612965 141.758282 
L 639.807094 119.620384 
L 641.083577 121.73841 
L 642.318883 154.589696 
L 643.595366 95.426973 
L 644.830671 133.674183 
L 646.107154 105.964879 
L 647.383637 85.805727 
L 648.618943 114.969388 
L 649.895425 113.77153 
L 651.130731 120.419281 
L 652.407214 124.234223 
L 653.683697 112.585648 
L 654.836649 116.353479 
L 656.113131 133.232491 
L 657.348437 118.955138 
L 659.860226 131.803159 
L 661.136708 114.206457 
L 662.413191 108.293671 
L 663.648497 109.809061 
L 664.92498 114.482237 
L 666.160285 110.477925 
L 667.436768 104.91908 
L 668.713251 118.778976 
L 669.866203 117.057178 
L 671.142686 130.912035 
L 672.377991 107.449695 
L 673.654474 102.95446 
L 674.88978 112.051215 
L 676.166263 119.310326 
L 677.442745 92.94366 
L 678.678051 126.962645 
L 679.954534 101.311007 
L 681.18984 105.039218 
L 682.466322 111.926476 
L 683.742805 115.957919 
L 684.895757 121.220675 
L 686.17224 113.955601 
L 687.407546 99.544834 
L 688.684028 101.797248 
L 689.919334 114.419848 
L 691.195817 128.775828 
L 692.4723 103.905354 
L 693.707605 122.493904 
L 694.984088 111.761833 
L 696.219394 121.149555 
L 697.495877 121.498849 
L 698.772359 114.159782 
L 699.966488 113.090107 
L 701.242971 103.825359 
L 702.478277 126.361651 
L 703.75476 140.242171 
L 704.990065 160.21091 
L 706.266548 104.615476 
L 707.543031 125.678141 
L 708.778337 116.921189 
L 710.054819 103.438414 
L 711.290125 116.083763 
L 712.566608 121.794767 
L 713.843091 95.939789 
L 714.996043 105.380254 
L 716.272525 98.38023 
L 717.507831 124.714998 
L 718.784314 105.083489 
L 721.296102 112.149043 
L 722.572585 136.608683 
L 723.807891 116.192261 
L 725.084374 121.556849 
L 726.319679 100.711487 
L 727.596162 102.613277 
L 728.872645 112.485672 
L 730.025597 137.50753 
L 731.30208 91.290096 
L 732.537385 109.639982 
L 733.813868 137.243674 
L 735.049174 122.965389 
L 736.325657 123.505087 
L 737.602139 116.736948 
L 738.837445 112.011865 
L 740.113928 134.303361 
L 741.349234 111.964662 
L 742.625716 116.611904 
L 743.902199 108.66369 
L 745.055151 124.021001 
L 746.331634 91.677574 
L 747.56694 128.541249 
L 748.843422 114.134162 
L 750.078728 118.315388 
L 751.355211 141.178652 
L 752.631694 98.031003 
L 753.866999 113.583894 
L 755.143482 116.796995 
L 756.378788 116.903759 
L 757.655271 93.261714 
L 758.931753 136.869912 
L 760.125882 152.919207 
L 761.402365 146.937448 
L 762.637671 81.32127 
L 763.914153 120.172613 
L 765.149459 108.263374 
L 766.425942 123.975533 
L 767.702425 89.897342 
L 768.937731 125.782065 
L 770.214213 126.905002 
L 771.449519 125.286022 
L 772.726002 109.894899 
L 774.002484 127.492746 
L 775.155437 94.350572 
L 776.431919 140.060467 
L 777.667225 120.530473 
L 778.943708 125.437073 
L 780.179014 116.605634 
L 781.455496 109.832484 
L 782.731979 110.037115 
L 783.967285 134.954669 
L 785.243767 111.589774 
L 786.479073 118.421457 
L 787.755556 112.338851 
L 789.032039 80.410838 
L 790.184991 101.010414 
L 791.461473 107.555587 
L 792.696779 112.235545 
L 793.973262 126.821288 
L 795.208568 139.080302 
L 796.485051 117.337646 
L 797.761533 120.928857 
L 798.996839 103.874242 
L 800.273322 111.204378 
L 801.508628 130.03524 
L 802.78511 104.653253 
L 804.061593 129.519274 
L 805.214545 128.144771 
L 806.491028 152.173356 
L 807.726334 108.558514 
L 809.002816 110.456183 
L 810.238122 98.114784 
L 811.514605 128.222326 
L 812.791087 98.045658 
L 814.026393 122.350584 
L 815.302876 122.875671 
L 816.538182 112.444207 
L 816.538182 112.444207 
" clip-path="url(#p8a300b89fb)" style="fill: none; stroke: #1f77b4; stroke-width: 1.5; stroke-linecap: square"/>
   </g>
   <g id="patch_3">
    <path d="M 46.64 318.04 
L 46.64 25.44 
" style="fill: none; stroke: #000000; stroke-width: 0.8; stroke-linejoin: miter; stroke-linecap: square"/>
   </g>
   <g id="patch_4">
    <path d="M 853.2 318.04 
L 853.2 25.44 
" style="fill: none; stroke: #000000; stroke-width: 0.8; stroke-linejoin: miter; stroke-linecap: square"/>
   </g>
   <g id="patch_5">
    <path d="M 46.64 318.04 
L 853.2 318.04 
" style="fill: none; stroke: #000000; stroke-width: 0.8; stroke-linejoin: miter; stroke-linecap: square"/>
   </g>
   <g id="patch_6">
    <path d="M 46.64 25.44 
L 853.2 25.44 
" style="fill: none; stroke: #000000; stroke-width: 0.8; stroke-linejoin: miter; stroke-linecap: square"/>
   </g>
   <g id="text_14">
    <!-- SARIMA(1,1,1)(5,1,5,12): training_data Residuals Over Time -->
    <g transform="translate(270.250938 19.44) scale(0.12 -0.12)">
     <defs>
      <path id="DejaVuSans-53" d="M 3425 4513 
L 3425 3897 
Q 3066 4069 2747 4153 
Q 2428 4238 2131 4238 
Q 1616 4238 1336 4038 
Q 1056 3838 1056 3469 
Q 1056 3159 1242 3001 
Q 1428 2844 1947 2747 
L 2328 2669 
Q 3034 2534 3370 2195 
Q 3706 1856 3706 1288 
Q 3706 609 3251 259 
Q 2797 -91 1919 -91 
Q 1588 -91 1214 -16 
Q 841 59 441 206 
L 441 856 
Q 825 641 1194 531 
Q 1563 422 1919 422 
Q 2459 422 2753 634 
Q 3047 847 3047 1241 
Q 3047 1584 2836 1778 
Q 2625 1972 2144 2069 
L 1759 2144 
Q 1053 2284 737 2584 
Q 422 2884 422 3419 
Q 422 4038 858 4394 
Q 1294 4750 2059 4750 
Q 2388 4750 2728 4690 
Q 3069 4631 3425 4513 
z
" transform="scale(0.015625)"/>
      <path id="DejaVuSans-41" d="M 2188 4044 
L 1331 1722 
L 3047 1722 
L 2188 4044 
z
M 1831 4666 
L 2547 4666 
L 4325 0 
L 3669 0 
L 3244 1197 
L 1141 1197 
L 716 0 
L 50 0 
L 1831 4666 
z
" transform="scale(0.015625)"/>
      <path id="DejaVuSans-49" d="M 628 4666 
L 1259 4666 
L 1259 0 
L 628 0 
L 628 4666 
z
" transform="scale(0.015625)"/>
      <path id="DejaVuSans-4d" d="M 628 4666 
L 1569 4666 
L 2759 1491 
L 3956 4666 
L 4897 4666 
L 4897 0 
L 4281 0 
L 4281 4097 
L 3078 897 
L 2444 897 
L 1241 4097 
L 1241 0 
L 628 0 
L 628 4666 
z
" transform="scale(0.015625)"/>
      <path id="DejaVuSans-28" d="M 1984 4856 
Q 1566 4138 1362 3434 
Q 1159 2731 1159 2009 
Q 1159 1288 1364 580 
Q 1569 -128 1984 -844 
L 1484 -844 
Q 1016 -109 783 600 
Q 550 1309 550 2009 
Q 550 2706 781 3412 
Q 1013 4119 1484 4856 
L 1984 4856 
z
" transform="scale(0.015625)"/>
      <path id="DejaVuSans-2c" d="M 750 794 
L 1409 794 
L 1409 256 
L 897 -744 
L 494 -744 
L 750 256 
L 750 794 
z
" transform="scale(0.015625)"/>
      <path id="DejaVuSans-29" d="M 513 4856 
L 1013 4856 
Q 1481 4119 1714 3412 
Q 1947 2706 1947 2009 
Q 1947 1309 1714 600 
Q 1481 -109 1013 -844 
L 513 -844 
Q 928 -128 1133 580 
Q 1338 1288 1338 2009 
Q 1338 2731 1133 3434 
Q 928 4138 513 4856 
z
" transform="scale(0.015625)"/>
      <path id="DejaVuSans-35" d="M 691 4666 
L 3169 4666 
L 3169 4134 
L 1269 4134 
L 1269 2991 
Q 1406 3038 1543 3061 
Q 1681 3084 1819 3084 
Q 2600 3084 3056 2656 
Q 3513 2228 3513 1497 
Q 3513 744 3044 326 
Q 2575 -91 1722 -91 
Q 1428 -91 1123 -41 
Q 819 9 494 109 
L 494 744 
Q 775 591 1075 516 
Q 1375 441 1709 441 
Q 2250 441 2565 725 
Q 2881 1009 2881 1497 
Q 2881 1984 2565 2268 
Q 2250 2553 1709 2553 
Q 1456 2553 1204 2497 
Q 953 2441 691 2322 
L 691 4666 
z
" transform="scale(0.015625)"/>
      <path id="DejaVuSans-3a" d="M 750 794 
L 1409 794 
L 1409 0 
L 750 0 
L 750 794 
z
M 750 3309 
L 1409 3309 
L 1409 2516 
L 750 2516 
L 750 3309 
z
" transform="scale(0.015625)"/>
      <path id="DejaVuSans-72" d="M 2631 2963 
Q 2534 3019 2420 3045 
Q 2306 3072 2169 3072 
Q 1681 3072 1420 2755 
Q 1159 2438 1159 1844 
L 1159 0 
L 581 0 
L 581 3500 
L 1159 3500 
L 1159 2956 
Q 1341 3275 1631 3429 
Q 1922 3584 2338 3584 
Q 2397 3584 2469 3576 
Q 2541 3569 2628 3553 
L 2631 2963 
z
" transform="scale(0.015625)"/>
      <path id="DejaVuSans-6e" d="M 3513 2113 
L 3513 0 
L 2938 0 
L 2938 2094 
Q 2938 2591 2744 2837 
Q 2550 3084 2163 3084 
Q 1697 3084 1428 2787 
Q 1159 2491 1159 1978 
L 1159 0 
L 581 0 
L 581 3500 
L 1159 3500 
L 1159 2956 
Q 1366 3272 1645 3428 
Q 1925 3584 2291 3584 
Q 2894 3584 3203 3211 
Q 3513 2838 3513 2113 
z
" transform="scale(0.015625)"/>
      <path id="DejaVuSans-67" d="M 2906 1791 
Q 2906 2416 2648 2759 
Q 2391 3103 1925 3103 
Q 1463 3103 1205 2759 
Q 947 2416 947 1791 
Q 947 1169 1205 825 
Q 1463 481 1925 481 
Q 2391 481 2648 825 
Q 2906 1169 2906 1791 
z
M 3481 434 
Q 3481 -459 3084 -895 
Q 2688 -1331 1869 -1331 
Q 1566 -1331 1297 -1286 
Q 1028 -1241 775 -1147 
L 775 -588 
Q 1028 -725 1275 -790 
Q 1522 -856 1778 -856 
Q 2344 -856 2625 -561 
Q 2906 -266 2906 331 
L 2906 616 
Q 2728 306 2450 153 
Q 2172 0 1784 0 
Q 1141 0 747 490 
Q 353 981 353 1791 
Q 353 2603 747 3093 
Q 1141 3584 1784 3584 
Q 2172 3584 2450 3431 
Q 2728 3278 2906 2969 
L 2906 3500 
L 3481 3500 
L 3481 434 
z
" transform="scale(0.015625)"/>
      <path id="DejaVuSans-5f" d="M 3263 -1063 
L 3263 -1509 
L -63 -1509 
L -63 -1063 
L 3263 -1063 
z
" transform="scale(0.015625)"/>
      <path id="DejaVuSans-4f" d="M 2522 4238 
Q 1834 4238 1429 3725 
Q 1025 3213 1025 2328 
Q 1025 1447 1429 934 
Q 1834 422 2522 422 
Q 3209 422 3611 934 
Q 4013 1447 4013 2328 
Q 4013 3213 3611 3725 
Q 3209 4238 2522 4238 
z
M 2522 4750 
Q 3503 4750 4090 4092 
Q 4678 3434 4678 2328 
Q 4678 1225 4090 567 
Q 3503 -91 2522 -91 
Q 1538 -91 948 565 
Q 359 1222 359 2328 
Q 359 3434 948 4092 
Q 1538 4750 2522 4750 
z
" transform="scale(0.015625)"/>
      <path id="DejaVuSans-76" d="M 191 3500 
L 800 3500 
L 1894 563 
L 2988 3500 
L 3597 3500 
L 2284 0 
L 1503 0 
L 191 3500 
z
" transform="scale(0.015625)"/>
      <path id="DejaVuSans-54" d="M -19 4666 
L 3928 4666 
L 3928 4134 
L 2272 4134 
L 2272 0 
L 1638 0 
L 1638 4134 
L -19 4134 
L -19 4666 
z
" transform="scale(0.015625)"/>
     </defs>
     <use xlink:href="#DejaVuSans-53"/>
     <use xlink:href="#DejaVuSans-41" transform="translate(65.351562 0)"/>
     <use xlink:href="#DejaVuSans-52" transform="translate(133.759766 0)"/>
     <use xlink:href="#DejaVuSans-49" transform="translate(203.242188 0)"/>
     <use xlink:href="#DejaVuSans-4d" transform="translate(232.734375 0)"/>
     <use xlink:href="#DejaVuSans-41" transform="translate(319.013672 0)"/>
     <use xlink:href="#DejaVuSans-28" transform="translate(387.421875 0)"/>
     <use xlink:href="#DejaVuSans-31" transform="translate(426.435547 0)"/>
     <use xlink:href="#DejaVuSans-2c" transform="translate(490.058594 0)"/>
     <use xlink:href="#DejaVuSans-31" transform="translate(521.845703 0)"/>
     <use xlink:href="#DejaVuSans-2c" transform="translate(585.46875 0)"/>
     <use xlink:href="#DejaVuSans-31" transform="translate(617.255859 0)"/>
     <use xlink:href="#DejaVuSans-29" transform="translate(680.878906 0)"/>
     <use xlink:href="#DejaVuSans-28" transform="translate(719.892578 0)"/>
     <use xlink:href="#DejaVuSans-35" transform="translate(758.90625 0)"/>
     <use xlink:href="#DejaVuSans-2c" transform="translate(822.529297 0)"/>
     <use xlink:href="#DejaVuSans-31" transform="translate(854.316406 0)"/>
     <use xlink:href="#DejaVuSans-2c" transform="translate(917.939453 0)"/>
     <use xlink:href="#DejaVuSans-35" transform="translate(949.726562 0)"/>
     <use xlink:href="#DejaVuSans-2c" transform="translate(1013.349609 0)"/>
     <use xlink:href="#DejaVuSans-31" transform="translate(1045.136719 0)"/>
     <use xlink:href="#DejaVuSans-32" transform="translate(1108.759766 0)"/>
     <use xlink:href="#DejaVuSans-29" transform="translate(1172.382812 0)"/>
     <use xlink:href="#DejaVuSans-3a" transform="translate(1211.396484 0)"/>
     <use xlink:href="#DejaVuSans-20" transform="translate(1245.087891 0)"/>
     <use xlink:href="#DejaVuSans-74" transform="translate(1276.875 0)"/>
     <use xlink:href="#DejaVuSans-72" transform="translate(1316.083984 0)"/>
     <use xlink:href="#DejaVuSans-61" transform="translate(1357.197266 0)"/>
     <use xlink:href="#DejaVuSans-69" transform="translate(1418.476562 0)"/>
     <use xlink:href="#DejaVuSans-6e" transform="translate(1446.259766 0)"/>
     <use xlink:href="#DejaVuSans-69" transform="translate(1509.638672 0)"/>
     <use xlink:href="#DejaVuSans-6e" transform="translate(1537.421875 0)"/>
     <use xlink:href="#DejaVuSans-67" transform="translate(1600.800781 0)"/>
     <use xlink:href="#DejaVuSans-5f" transform="translate(1664.277344 0)"/>
     <use xlink:href="#DejaVuSans-64" transform="translate(1714.277344 0)"/>
     <use xlink:href="#DejaVuSans-61" transform="translate(1777.753906 0)"/>
     <use xlink:href="#DejaVuSans-74" transform="translate(1839.033203 0)"/>
     <use xlink:href="#DejaVuSans-61" transform="translate(1878.242188 0)"/>
     <use xlink:href="#DejaVuSans-20" transform="translate(1939.521484 0)"/>
     <use xlink:href="#DejaVuSans-52" transform="translate(1971.308594 0)"/>
     <use xlink:href="#DejaVuSans-65" transform="translate(2036.291016 0)"/>
     <use xlink:href="#DejaVuSans-73" transform="translate(2097.814453 0)"/>
     <use xlink:href="#DejaVuSans-69" transform="translate(2149.914062 0)"/>
     <use xlink:href="#DejaVuSans-64" transform="translate(2177.697266 0)"/>
     <use xlink:href="#DejaVuSans-75" transform="translate(2241.173828 0)"/>
     <use xlink:href="#DejaVuSans-61" transform="translate(2304.552734 0)"/>
     <use xlink:href="#DejaVuSans-6c" transform="translate(2365.832031 0)"/>
     <use xlink:href="#DejaVuSans-73" transform="translate(2393.615234 0)"/>
     <use xlink:href="#DejaVuSans-20" transform="translate(2445.714844 0)"/>
     <use xlink:href="#DejaVuSans-4f" transform="translate(2477.501953 0)"/>
     <use xlink:href="#DejaVuSans-76" transform="translate(2556.212891 0)"/>
     <use xlink:href="#DejaVuSans-65" transform="translate(2615.392578 0)"/>
     <use xlink:href="#DejaVuSans-72" transform="translate(2676.916016 0)"/>
     <use xlink:href="#DejaVuSans-20" transform="translate(2718.029297 0)"/>
     <use xlink:href="#DejaVuSans-54" transform="translate(2749.816406 0)"/>
     <use xlink:href="#DejaVuSans-69" transform="translate(2807.775391 0)"/>
     <use xlink:href="#DejaVuSans-6d" transform="translate(2835.558594 0)"/>
     <use xlink:href="#DejaVuSans-65" transform="translate(2932.970703 0)"/>
    </g>
   </g>
   <g id="legend_1">
    <g id="patch_7">
     <path d="M 748.395313 62.79625 
L 846.2 62.79625 
Q 848.2 62.79625 848.2 60.79625 
L 848.2 32.44 
Q 848.2 30.44 846.2 30.44 
L 748.395313 30.44 
Q 746.395313 30.44 746.395313 32.44 
L 746.395313 60.79625 
Q 746.395313 62.79625 748.395313 62.79625 
z
" style="fill: #ffffff; opacity: 0.8; stroke: #cccccc; stroke-linejoin: miter"/>
    </g>
    <g id="line2d_25">
     <path d="M 750.395313 38.538437 
L 760.395313 38.538437 
L 770.395313 38.538437 
" style="fill: none; stroke-dasharray: 5.55,2.4; stroke-dashoffset: 0; stroke: #808080; stroke-width: 1.5"/>
    </g>
    <g id="text_15">
     <!-- Zero residual -->
     <g transform="translate(778.395313 42.038437) scale(0.1 -0.1)">
      <defs>
       <path id="DejaVuSans-5a" d="M 359 4666 
L 4025 4666 
L 4025 4184 
L 1075 531 
L 4097 531 
L 4097 0 
L 288 0 
L 288 481 
L 3238 4134 
L 359 4134 
L 359 4666 
z
" transform="scale(0.015625)"/>
       <path id="DejaVuSans-6f" d="M 1959 3097 
Q 1497 3097 1228 2736 
Q 959 2375 959 1747 
Q 959 1119 1226 758 
Q 1494 397 1959 397 
Q 2419 397 2687 759 
Q 2956 1122 2956 1747 
Q 2956 2369 2687 2733 
Q 2419 3097 1959 3097 
z
M 1959 3584 
Q 2709 3584 3137 3096 
Q 3566 2609 3566 1747 
Q 3566 888 3137 398 
Q 2709 -91 1959 -91 
Q 1206 -91 779 398 
Q 353 888 353 1747 
Q 353 2609 779 3096 
Q 1206 3584 1959 3584 
z
" transform="scale(0.015625)"/>
      </defs>
      <use xlink:href="#DejaVuSans-5a"/>
      <use xlink:href="#DejaVuSans-65" transform="translate(68.505859 0)"/>
      <use xlink:href="#DejaVuSans-72" transform="translate(130.029297 0)"/>
      <use xlink:href="#DejaVuSans-6f" transform="translate(168.892578 0)"/>
      <use xlink:href="#DejaVuSans-20" transform="translate(230.074219 0)"/>
      <use xlink:href="#DejaVuSans-72" transform="translate(261.861328 0)"/>
      <use xlink:href="#DejaVuSans-65" transform="translate(300.724609 0)"/>
      <use xlink:href="#DejaVuSans-73" transform="translate(362.248047 0)"/>
      <use xlink:href="#DejaVuSans-69" transform="translate(414.347656 0)"/>
      <use xlink:href="#DejaVuSans-64" transform="translate(442.130859 0)"/>
      <use xlink:href="#DejaVuSans-75" transform="translate(505.607422 0)"/>
      <use xlink:href="#DejaVuSans-61" transform="translate(568.986328 0)"/>
      <use xlink:href="#DejaVuSans-6c" transform="translate(630.265625 0)"/>
     </g>
    </g>
    <g id="line2d_26">
     <path d="M 750.395313 53.216563 
L 760.395313 53.216563 
L 770.395313 53.216563 
" style="fill: none; stroke: #1f77b4; stroke-width: 1.5; stroke-linecap: square"/>
    </g>
    <g id="text_16">
     <!-- Residuals -->
     <g transform="translate(778.395313 56.716563) scale(0.1 -0.1)">
      <use xlink:href="#DejaVuSans-52"/>
      <use xlink:href="#DejaVuSans-65" transform="translate(64.982422 0)"/>
      <use xlink:href="#DejaVuSans-73" transform="translate(126.505859 0)"/>
      <use xlink:href="#DejaVuSans-69" transform="translate(178.605469 0)"/>
      <use xlink:href="#DejaVuSans-64" transform="translate(206.388672 0)"/>
      <use xlink:href="#DejaVuSans-75" transform="translate(269.865234 0)"/>
      <use xlink:href="#DejaVuSans-61" transform="translate(333.244141 0)"/>
      <use xlink:href="#DejaVuSans-6c" transform="translate(394.523438 0)"/>
      <use xlink:href="#DejaVuSans-73" transform="translate(422.306641 0)"/>
     </g>
    </g>
   </g>
  </g>
 </g>
 <defs>
  <clipPath id="p8a300b89fb">
   <rect x="46.64" y="25.44" width="806.56" height="292.6"/>
  </clipPath>
 </defs>
</svg>
