<?xml version="1.0" encoding="utf-8" standalone="no"?>
<!DOCTYPE svg PUBLIC "-//W3C//DTD SVG 1.1//EN"
  "http://www.w3.org/Graphics/SVG/1.1/DTD/svg11.dtd">
<svg xmlns:xlink="http://www.w3.org/1999/xlink" width="864pt" height="360pt" viewBox="0 0 864 360" xmlns="http://www.w3.org/2000/svg" version="1.1">
 <metadata>
  <rdf:RDF xmlns:dc="http://purl.org/dc/elements/1.1/" xmlns:cc="http://creativecommons.org/ns#" xmlns:rdf="http://www.w3.org/1999/02/22-rdf-syntax-ns#">
   <cc:Work>
    <dc:type rdf:resource="http://purl.org/dc/dcmitype/StillImage"/>
    <dc:date>2026-07-08T14:30:38.543638</dc:date>
    <dc:format>image/svg+xml</dc:format>
    <dc:creator>
     <cc:Agent>
      <dc:title>Matplotlib v3.10.0, https://matplotlib.org/</dc:title>
     </cc:Agent>
    </dc:creator>
   </cc:Work>
  </rdf:RDF>
 </metadata>
 <defs>
  <style type="text/css">*{stroke-linejoin: round; stroke-linecap: butt}</style>
 </defs>
 <g id="figure_1">
  <g id="patch_1">
   <path d="M 0 360 
L 864 360 
L 864 0 
L 0 0 
z
" style="fill: #ffffff"/>
  </g>
  <g id="axes_1">
   <g id="patch_2">
    <path d="M 46.64 318.04 
L 853.2 318.04 
L 853.2 25.44 
L 46.64 25.44 
z
" style="fill: #ffffff"/>
   </g>
   <g id="matplotlib.axis_1">
    <g id="xtick_1">
     <g id="line2d_1">
      <path d="M 168.652444 318.04 
L 168.652444 25.44 
" clip-path="url(#p67efd3826b)" style="fill: none; stroke: #b0b0b0; stroke-width: 0.8; stroke-linecap: square"/>
     </g>
     <g id="line2d_2">
      <defs>
       <path id="mc16397c137" d="M 0 0 
L 0 3.5 
" style="stroke: #000000; stroke-width: 0.8"/>
      </defs>
      <g>
       <use xlink:href="#mc16397c137" x="168.652444" y="318.04" style="stroke: #000000; stroke-width: 0.8"/>
      </g>
     </g>
     <g id="text_1">
      <!-- 1970 -->
      <g transform="translate(155.927444 332.638438) scale(0.1 -0.1)">
       <defs>
        <path id="DejaVuSans-31" d="M 794 531 
L 1825 531 
L 1825 4091 
L 703 3866 
L 703 4441 
L 1819 4666 
L 2450 4666 
L 2450 531 
L 3481 531 
L 3481 0 
L 794 0 
L 794 531 
z
" transform="scale(0.015625)"/>
        <path id="DejaVuSans-39" d="M 703 97 
L 703 672 
Q 941 559 1184 500 
Q 1428 441 1663 441 
Q 2288 441 2617 861 
Q 2947 1281 2994 2138 
Q 2813 1869 2534 1725 
Q 2256 1581 1919 1581 
Q 1219 1581 811 2004 
Q 403 2428 403 3163 
Q 403 3881 828 4315 
Q 1253 4750 1959 4750 
Q 2769 4750 3195 4129 
Q 3622 3509 3622 2328 
Q 3622 1225 3098 567 
Q 2575 -91 1691 -91 
Q 1453 -91 1209 -44 
Q 966 3 703 97 
z
M 1959 2075 
Q 2384 2075 2632 2365 
Q 2881 2656 2881 3163 
Q 2881 3666 2632 3958 
Q 2384 4250 1959 4250 
Q 1534 4250 1286 3958 
Q 1038 3666 1038 3163 
Q 1038 2656 1286 2365 
Q 1534 2075 1959 2075 
z
" transform="scale(0.015625)"/>
        <path id="DejaVuSans-37" d="M 525 4666 
L 3525 4666 
L 3525 4397 
L 1831 0 
L 1172 0 
L 2766 4134 
L 525 4134 
L 525 4666 
z
" transform="scale(0.015625)"/>
        <path id="DejaVuSans-30" d="M 2034 4250 
Q 1547 4250 1301 3770 
Q 1056 3291 1056 2328 
Q 1056 1369 1301 889 
Q 1547 409 2034 409 
Q 2525 409 2770 889 
Q 3016 1369 3016 2328 
Q 3016 3291 2770 3770 
Q 2525 4250 2034 4250 
z
M 2034 4750 
Q 2819 4750 3233 4129 
Q 3647 3509 3647 2328 
Q 3647 1150 3233 529 
Q 2819 -91 2034 -91 
Q 1250 -91 836 529 
Q 422 1150 422 2328 
Q 422 3509 836 4129 
Q 1250 4750 2034 4750 
z
" transform="scale(0.015625)"/>
       </defs>
       <use xlink:href="#DejaVuSans-31"/>
       <use xlink:href="#DejaVuSans-39" transform="translate(63.623047 0)"/>
       <use xlink:href="#DejaVuSans-37" transform="translate(127.246094 0)"/>
       <use xlink:href="#DejaVuSans-30" transform="translate(190.869141 0)"/>
      </g>
     </g>
    </g>
    <g id="xtick_2">
     <g id="line2d_3">
      <path d="M 293.432463 318.04 
L 293.432463 25.44 
" clip-path="url(#p67efd3826b)" style="fill: none; stroke: #b0b0b0; stroke-width: 0.8; stroke-linecap: square"/>
     </g>
     <g id="line2d_4">
      <g>
       <use xlink:href="#mc16397c137" x="293.432463" y="318.04" style="stroke: #000000; stroke-width: 0.8"/>
      </g>
     </g>
     <g id="text_2">
      <!-- 1980 -->
      <g transform="translate(280.707463 332.638438) scale(0.1 -0.1)">
       <defs>
        <path id="DejaVuSans-38" d="M 2034 2216 
Q 1584 2216 1326 1975 
Q 1069 1734 1069 1313 
Q 1069 891 1326 650 
Q 1584 409 2034 409 
Q 2484 409 2743 651 
Q 3003 894 3003 1313 
Q 3003 1734 2745 1975 
Q 2488 2216 2034 2216 
z
M 1403 2484 
Q 997 2584 770 2862 
Q 544 3141 544 3541 
Q 544 4100 942 4425 
Q 1341 4750 2034 4750 
Q 2731 4750 3128 4425 
Q 3525 4100 3525 3541 
Q 3525 3141 3298 2862 
Q 3072 2584 2669 2484 
Q 3125 2378 3379 2068 
Q 3634 1759 3634 1313 
Q 3634 634 3220 271 
Q 2806 -91 2034 -91 
Q 1263 -91 848 271 
Q 434 634 434 1313 
Q 434 1759 690 2068 
Q 947 2378 1403 2484 
z
M 1172 3481 
Q 1172 3119 1398 2916 
Q 1625 2713 2034 2713 
Q 2441 2713 2670 2916 
Q 2900 3119 2900 3481 
Q 2900 3844 2670 4047 
Q 2441 4250 2034 4250 
Q 1625 4250 1398 4047 
Q 1172 3844 1172 3481 
z
" transform="scale(0.015625)"/>
       </defs>
       <use xlink:href="#DejaVuSans-31"/>
       <use xlink:href="#DejaVuSans-39" transform="translate(63.623047 0)"/>
       <use xlink:href="#DejaVuSans-38" transform="translate(127.246094 0)"/>
       <use xlink:href="#DejaVuSans-30" transform="translate(190.869141 0)"/>
      </g>
     </g>
    </g>
    <g id="xtick_3">
     <g id="line2d_5">
      <path d="M 418.246649 318.04 
L 418.246649 25.44 
" clip-path="url(#p67efd3826b)" style="fill: none; stroke: #b0b0b0; stroke-width: 0.8; stroke-linecap: square"/>
     </g>
     <g id="line2d_6">
      <g>
       <use xlink:href="#mc16397c137" x="418.246649" y="318.04" style="stroke: #000000; stroke-width: 0.8"/>
      </g>
     </g>
     <g id="text_3">
      <!-- 1990 -->
      <g transform="translate(405.521649 332.638438) scale(0.1 -0.1)">
       <use xlink:href="#DejaVuSans-31"/>
       <use xlink:href="#DejaVuSans-39" transform="translate(63.623047 0)"/>
       <use xlink:href="#DejaVuSans-39" transform="translate(127.246094 0)"/>
       <use xlink:href="#DejaVuSans-30" transform="translate(190.869141 0)"/>
      </g>
     </g>
    </g>
    <g id="xtick_4">
     <g id="line2d_7">
      <path d="M 543.026668 318.04 
L 543.026668 25.44 
" clip-path="url(#p67efd3826b)" style="fill: none; stroke: #b0b0b0; stroke-width: 0.8; stroke-linecap: square"/>
     </g>
     <g id="line2d_8">
      <g>
       <use xlink:href="#mc16397c137" x="543.026668" y="318.04" style="stroke: #000000; stroke-width: 0.8"/>
      </g>
     </g>
     <g id="text_4">
      <!-- 2000 -->
      <g transform="translate(530.301668 332.638438) scale(0.1 -0.1)">
       <defs>
        <path id="DejaVuSans-32" d="M 1228 531 
L 3431 531 
L 3431 0 
L 469 0 
L 469 531 
Q 828 903 1448 1529 
Q 2069 2156 2228 2338 
Q 2531 2678 2651 2914 
Q 2772 3150 2772 3378 
Q 2772 3750 2511 3984 
Q 2250 4219 1831 4219 
Q 1534 4219 1204 4116 
Q 875 4013 500 3803 
L 500 4441 
Q 881 4594 1212 4672 
Q 1544 4750 1819 4750 
Q 2544 4750 2975 4387 
Q 3406 4025 3406 3419 
Q 3406 3131 3298 2873 
Q 3191 2616 2906 2266 
Q 2828 2175 2409 1742 
Q 1991 1309 1228 531 
z
" transform="scale(0.015625)"/>
       </defs>
       <use xlink:href="#DejaVuSans-32"/>
       <use xlink:href="#DejaVuSans-30" transform="translate(63.623047 0)"/>
       <use xlink:href="#DejaVuSans-30" transform="translate(127.246094 0)"/>
       <use xlink:href="#DejaVuSans-30" transform="translate(190.869141 0)"/>
      </g>
     </g>
    </g>
    <g id="xtick_5">
     <g id="line2d_9">
      <path d="M 667.840854 318.04 
L 667.840854 25.44 
" clip-path="url(#p67efd3826b)" style="fill: none; stroke: #b0b0b0; stroke-width: 0.8; stroke-linecap: square"/>
     </g>
     <g id="line2d_10">
      <g>
       <use xlink:href="#mc16397c137" x="667.840854" y="318.04" style="stroke: #000000; stroke-width: 0.8"/>
      </g>
     </g>
     <g id="text_5">
      <!-- 2010 -->
      <g transform="translate(655.115854 332.638438) scale(0.1 -0.1)">
       <use xlink:href="#DejaVuSans-32"/>
       <use xlink:href="#DejaVuSans-30" transform="translate(63.623047 0)"/>
       <use xlink:href="#DejaVuSans-31" transform="translate(127.246094 0)"/>
       <use xlink:href="#DejaVuSans-30" transform="translate(190.869141 0)"/>
      </g>
     </g>
    </g>
    <g id="xtick_6">
     <g id="line2d_11">
      <path d="M 792.620873 318.04 
L 792.620873 25.44 
" clip-path="url(#p67efd3826b)" style="fill: none; stroke: #b0b0b0; stroke-width: 0.8; stroke-linecap: square"/>
     </g>
     <g id="line2d_12">
      <g>
       <use xlink:href="#mc16397c137" x="792.620873" y="318.04" style="stroke: #000000; stroke-width: 0.8"/>
      </g>
     </g>
     <g id="text_6">
      <!-- 2020 -->
      <g transform="translate(779.895873 332.638438) scale(0.1 -0.1)">
       <use xlink:href="#DejaVuSans-32"/>
       <use xlink:href="#DejaVuSans-30" transform="translate(63.623047 0)"/>
       <use xlink:href="#DejaVuSans-32" transform="translate(127.246094 0)"/>
       <use xlink:href="#DejaVuSans-30" transform="translate(190.869141 0)"/>
      </g>
     </g>
    </g>
    <g id="text_7">
     <!-- Date -->
     <g transform="translate(437.969219 346.316563) scale(0.1 -0.1)">
      <defs>
       <path id="DejaVuSans-44" d="M 1259 4147 
L 1259 519 
L 2022 519 
Q 2988 519 3436 956 
Q 3884 1394 3884 2338 
Q 3884 3275 3436 3711 
Q 2988 4147 2022 4147 
L 1259 4147 
z
M 628 4666 
L 1925 4666 
Q 3281 4666 3915 4102 
Q 4550 3538 4550 2338 
Q 4550 1131 3912 565 
Q 3275 0 1925 0 
L 628 0 
L 628 4666 
z
" transform="scale(0.015625)"/>
       <path id="DejaVuSans-61" d="M 2194 1759 
Q 1497 1759 1228 1600 
Q 959 1441 959 1056 
Q 959 750 1161 570 
Q 1363 391 1709 391 
Q 2188 391 2477 730 
Q 2766 1069 2766 1631 
L 2766 1759 
L 2194 1759 
z
M 3341 1997 
L 3341 0 
L 2766 0 
L 2766 531 
Q 2569 213 2275 61 
Q 1981 -91 1556 -91 
Q 1019 -91 701 211 
Q 384 513 384 1019 
Q 384 1609 779 1909 
Q 1175 2209 1959 2209 
L 2766 2209 
L 2766 2266 
Q 2766 2663 2505 2880 
Q 2244 3097 1772 3097 
Q 1472 3097 1187 3025 
Q 903 2953 641 2809 
L 641 3341 
Q 956 3463 1253 3523 
Q 1550 3584 1831 3584 
Q 2591 3584 2966 3190 
Q 3341 2797 3341 1997 
z
" transform="scale(0.015625)"/>
       <path id="DejaVuSans-74" d="M 1172 4494 
L 1172 3500 
L 2356 3500 
L 2356 3053 
L 1172 3053 
L 1172 1153 
Q 1172 725 1289 603 
Q 1406 481 1766 481 
L 2356 481 
L 2356 0 
L 1766 0 
Q 1100 0 847 248 
Q 594 497 594 1153 
L 594 3053 
L 172 3053 
L 172 3500 
L 594 3500 
L 594 4494 
L 1172 4494 
z
" transform="scale(0.015625)"/>
       <path id="DejaVuSans-65" d="M 3597 1894 
L 3597 1613 
L 953 1613 
Q 991 1019 1311 708 
Q 1631 397 2203 397 
Q 2534 397 2845 478 
Q 3156 559 3463 722 
L 3463 178 
Q 3153 47 2828 -22 
Q 2503 -91 2169 -91 
Q 1331 -91 842 396 
Q 353 884 353 1716 
Q 353 2575 817 3079 
Q 1281 3584 2069 3584 
Q 2775 3584 3186 3129 
Q 3597 2675 3597 1894 
z
M 3022 2063 
Q 3016 2534 2758 2815 
Q 2500 3097 2075 3097 
Q 1594 3097 1305 2825 
Q 1016 2553 972 2059 
L 3022 2063 
z
" transform="scale(0.015625)"/>
      </defs>
      <use xlink:href="#DejaVuSans-44"/>
      <use xlink:href="#DejaVuSans-61" transform="translate(77.001953 0)"/>
      <use xlink:href="#DejaVuSans-74" transform="translate(138.28125 0)"/>
      <use xlink:href="#DejaVuSans-65" transform="translate(177.490234 0)"/>
     </g>
    </g>
   </g>
   <g id="matplotlib.axis_2">
    <g id="ytick_1">
     <g id="line2d_13">
      <path d="M 46.64 308.841313 
L 853.2 308.841313 
" clip-path="url(#p67efd3826b)" style="fill: none; stroke: #b0b0b0; stroke-width: 0.8; stroke-linecap: square"/>
     </g>
     <g id="line2d_14">
      <defs>
       <path id="maee8ba4612" d="M 0 0 
L -3.5 0 
" style="stroke: #000000; stroke-width: 0.8"/>
      </defs>
      <g>
       <use xlink:href="#maee8ba4612" x="46.64" y="308.841313" style="stroke: #000000; stroke-width: 0.8"/>
      </g>
     </g>
     <g id="text_8">
      <!-- −6 -->
      <g transform="translate(24.897813 312.640532) scale(0.1 -0.1)">
       <defs>
        <path id="DejaVuSans-2212" d="M 678 2272 
L 4684 2272 
L 4684 1741 
L 678 1741 
L 678 2272 
z
" transform="scale(0.015625)"/>
        <path id="DejaVuSans-36" d="M 2113 2584 
Q 1688 2584 1439 2293 
Q 1191 2003 1191 1497 
Q 1191 994 1439 701 
Q 1688 409 2113 409 
Q 2538 409 2786 701 
Q 3034 994 3034 1497 
Q 3034 2003 2786 2293 
Q 2538 2584 2113 2584 
z
M 3366 4563 
L 3366 3988 
Q 3128 4100 2886 4159 
Q 2644 4219 2406 4219 
Q 1781 4219 1451 3797 
Q 1122 3375 1075 2522 
Q 1259 2794 1537 2939 
Q 1816 3084 2150 3084 
Q 2853 3084 3261 2657 
Q 3669 2231 3669 1497 
Q 3669 778 3244 343 
Q 2819 -91 2113 -91 
Q 1303 -91 875 529 
Q 447 1150 447 2328 
Q 447 3434 972 4092 
Q 1497 4750 2381 4750 
Q 2619 4750 2861 4703 
Q 3103 4656 3366 4563 
z
" transform="scale(0.015625)"/>
       </defs>
       <use xlink:href="#DejaVuSans-2212"/>
       <use xlink:href="#DejaVuSans-36" transform="translate(83.789062 0)"/>
      </g>
     </g>
    </g>
    <g id="ytick_2">
     <g id="line2d_15">
      <path d="M 46.64 276.214956 
L 853.2 276.214956 
" clip-path="url(#p67efd3826b)" style="fill: none; stroke: #b0b0b0; stroke-width: 0.8; stroke-linecap: square"/>
     </g>
     <g id="line2d_16">
      <g>
       <use xlink:href="#maee8ba4612" x="46.64" y="276.214956" style="stroke: #000000; stroke-width: 0.8"/>
      </g>
     </g>
     <g id="text_9">
      <!-- −5 -->
      <g transform="translate(24.897813 280.014175) scale(0.1 -0.1)">
       <defs>
        <path id="DejaVuSans-35" d="M 691 4666 
L 3169 4666 
L 3169 4134 
L 1269 4134 
L 1269 2991 
Q 1406 3038 1543 3061 
Q 1681 3084 1819 3084 
Q 2600 3084 3056 2656 
Q 3513 2228 3513 1497 
Q 3513 744 3044 326 
Q 2575 -91 1722 -91 
Q 1428 -91 1123 -41 
Q 819 9 494 109 
L 494 744 
Q 775 591 1075 516 
Q 1375 441 1709 441 
Q 2250 441 2565 725 
Q 2881 1009 2881 1497 
Q 2881 1984 2565 2268 
Q 2250 2553 1709 2553 
Q 1456 2553 1204 2497 
Q 953 2441 691 2322 
L 691 4666 
z
" transform="scale(0.015625)"/>
       </defs>
       <use xlink:href="#DejaVuSans-2212"/>
       <use xlink:href="#DejaVuSans-35" transform="translate(83.789062 0)"/>
      </g>
     </g>
    </g>
    <g id="ytick_3">
     <g id="line2d_17">
      <path d="M 46.64 243.588599 
L 853.2 243.588599 
" clip-path="url(#p67efd3826b)" style="fill: none; stroke: #b0b0b0; stroke-width: 0.8; stroke-linecap: square"/>
     </g>
     <g id="line2d_18">
      <g>
       <use xlink:href="#maee8ba4612" x="46.64" y="243.588599" style="stroke: #000000; stroke-width: 0.8"/>
      </g>
     </g>
     <g id="text_10">
      <!-- −4 -->
      <g transform="translate(24.897813 247.387818) scale(0.1 -0.1)">
       <defs>
        <path id="DejaVuSans-34" d="M 2419 4116 
L 825 1625 
L 2419 1625 
L 2419 4116 
z
M 2253 4666 
L 3047 4666 
L 3047 1625 
L 3713 1625 
L 3713 1100 
L 3047 1100 
L 3047 0 
L 2419 0 
L 2419 1100 
L 313 1100 
L 313 1709 
L 2253 4666 
z
" transform="scale(0.015625)"/>
       </defs>
       <use xlink:href="#DejaVuSans-2212"/>
       <use xlink:href="#DejaVuSans-34" transform="translate(83.789062 0)"/>
      </g>
     </g>
    </g>
    <g id="ytick_4">
     <g id="line2d_19">
      <path d="M 46.64 210.962242 
L 853.2 210.962242 
" clip-path="url(#p67efd3826b)" style="fill: none; stroke: #b0b0b0; stroke-width: 0.8; stroke-linecap: square"/>
     </g>
     <g id="line2d_20">
      <g>
       <use xlink:href="#maee8ba4612" x="46.64" y="210.962242" style="stroke: #000000; stroke-width: 0.8"/>
      </g>
     </g>
     <g id="text_11">
      <!-- −3 -->
      <g transform="translate(24.897813 214.761461) scale(0.1 -0.1)">
       <defs>
        <path id="DejaVuSans-33" d="M 2597 2516 
Q 3050 2419 3304 2112 
Q 3559 1806 3559 1356 
Q 3559 666 3084 287 
Q 2609 -91 1734 -91 
Q 1441 -91 1130 -33 
Q 819 25 488 141 
L 488 750 
Q 750 597 1062 519 
Q 1375 441 1716 441 
Q 2309 441 2620 675 
Q 2931 909 2931 1356 
Q 2931 1769 2642 2001 
Q 2353 2234 1838 2234 
L 1294 2234 
L 1294 2753 
L 1863 2753 
Q 2328 2753 2575 2939 
Q 2822 3125 2822 3475 
Q 2822 3834 2567 4026 
Q 2313 4219 1838 4219 
Q 1578 4219 1281 4162 
Q 984 4106 628 3988 
L 628 4550 
Q 988 4650 1302 4700 
Q 1616 4750 1894 4750 
Q 2613 4750 3031 4423 
Q 3450 4097 3450 3541 
Q 3450 3153 3228 2886 
Q 3006 2619 2597 2516 
z
" transform="scale(0.015625)"/>
       </defs>
       <use xlink:href="#DejaVuSans-2212"/>
       <use xlink:href="#DejaVuSans-33" transform="translate(83.789062 0)"/>
      </g>
     </g>
    </g>
    <g id="ytick_5">
     <g id="line2d_21">
      <path d="M 46.64 178.335886 
L 853.2 178.335886 
" clip-path="url(#p67efd3826b)" style="fill: none; stroke: #b0b0b0; stroke-width: 0.8; stroke-linecap: square"/>
     </g>
     <g id="line2d_22">
      <g>
       <use xlink:href="#maee8ba4612" x="46.64" y="178.335886" style="stroke: #000000; stroke-width: 0.8"/>
      </g>
     </g>
     <g id="text_12">
      <!-- −2 -->
      <g transform="translate(24.897813 182.135104) scale(0.1 -0.1)">
       <use xlink:href="#DejaVuSans-2212"/>
       <use xlink:href="#DejaVuSans-32" transform="translate(83.789062 0)"/>
      </g>
     </g>
    </g>
    <g id="ytick_6">
     <g id="line2d_23">
      <path d="M 46.64 145.709529 
L 853.2 145.709529 
" clip-path="url(#p67efd3826b)" style="fill: none; stroke: #b0b0b0; stroke-width: 0.8; stroke-linecap: square"/>
     </g>
     <g id="line2d_24">
      <g>
       <use xlink:href="#maee8ba4612" x="46.64" y="145.709529" style="stroke: #000000; stroke-width: 0.8"/>
      </g>
     </g>
     <g id="text_13">
      <!-- −1 -->
      <g transform="translate(24.897813 149.508748) scale(0.1 -0.1)">
       <use xlink:href="#DejaVuSans-2212"/>
       <use xlink:href="#DejaVuSans-31" transform="translate(83.789062 0)"/>
      </g>
     </g>
    </g>
    <g id="ytick_7">
     <g id="line2d_25">
      <path d="M 46.64 113.083172 
L 853.2 113.083172 
" clip-path="url(#p67efd3826b)" style="fill: none; stroke: #b0b0b0; stroke-width: 0.8; stroke-linecap: square"/>
     </g>
     <g id="line2d_26">
      <g>
       <use xlink:href="#maee8ba4612" x="46.64" y="113.083172" style="stroke: #000000; stroke-width: 0.8"/>
      </g>
     </g>
     <g id="text_14">
      <!-- 0 -->
      <g transform="translate(33.2775 116.882391) scale(0.1 -0.1)">
       <use xlink:href="#DejaVuSans-30"/>
      </g>
     </g>
    </g>
    <g id="ytick_8">
     <g id="line2d_27">
      <path d="M 46.64 80.456815 
L 853.2 80.456815 
" clip-path="url(#p67efd3826b)" style="fill: none; stroke: #b0b0b0; stroke-width: 0.8; stroke-linecap: square"/>
     </g>
     <g id="line2d_28">
      <g>
       <use xlink:href="#maee8ba4612" x="46.64" y="80.456815" style="stroke: #000000; stroke-width: 0.8"/>
      </g>
     </g>
     <g id="text_15">
      <!-- 1 -->
      <g transform="translate(33.2775 84.256034) scale(0.1 -0.1)">
       <use xlink:href="#DejaVuSans-31"/>
      </g>
     </g>
    </g>
    <g id="ytick_9">
     <g id="line2d_29">
      <path d="M 46.64 47.830458 
L 853.2 47.830458 
" clip-path="url(#p67efd3826b)" style="fill: none; stroke: #b0b0b0; stroke-width: 0.8; stroke-linecap: square"/>
     </g>
     <g id="line2d_30">
      <g>
       <use xlink:href="#maee8ba4612" x="46.64" y="47.830458" style="stroke: #000000; stroke-width: 0.8"/>
      </g>
     </g>
     <g id="text_16">
      <!-- 2 -->
      <g transform="translate(33.2775 51.629677) scale(0.1 -0.1)">
       <use xlink:href="#DejaVuSans-32"/>
      </g>
     </g>
    </g>
    <g id="text_17">
     <!-- Residual / ppm -->
     <g transform="translate(18.818125 208.936875) rotate(-90) scale(0.1 -0.1)">
      <defs>
       <path id="DejaVuSans-52" d="M 2841 2188 
Q 3044 2119 3236 1894 
Q 3428 1669 3622 1275 
L 4263 0 
L 3584 0 
L 2988 1197 
Q 2756 1666 2539 1819 
Q 2322 1972 1947 1972 
L 1259 1972 
L 1259 0 
L 628 0 
L 628 4666 
L 2053 4666 
Q 2853 4666 3247 4331 
Q 3641 3997 3641 3322 
Q 3641 2881 3436 2590 
Q 3231 2300 2841 2188 
z
M 1259 4147 
L 1259 2491 
L 2053 2491 
Q 2509 2491 2742 2702 
Q 2975 2913 2975 3322 
Q 2975 3731 2742 3939 
Q 2509 4147 2053 4147 
L 1259 4147 
z
" transform="scale(0.015625)"/>
       <path id="DejaVuSans-73" d="M 2834 3397 
L 2834 2853 
Q 2591 2978 2328 3040 
Q 2066 3103 1784 3103 
Q 1356 3103 1142 2972 
Q 928 2841 928 2578 
Q 928 2378 1081 2264 
Q 1234 2150 1697 2047 
L 1894 2003 
Q 2506 1872 2764 1633 
Q 3022 1394 3022 966 
Q 3022 478 2636 193 
Q 2250 -91 1575 -91 
Q 1294 -91 989 -36 
Q 684 19 347 128 
L 347 722 
Q 666 556 975 473 
Q 1284 391 1588 391 
Q 1994 391 2212 530 
Q 2431 669 2431 922 
Q 2431 1156 2273 1281 
Q 2116 1406 1581 1522 
L 1381 1569 
Q 847 1681 609 1914 
Q 372 2147 372 2553 
Q 372 3047 722 3315 
Q 1072 3584 1716 3584 
Q 2034 3584 2315 3537 
Q 2597 3491 2834 3397 
z
" transform="scale(0.015625)"/>
       <path id="DejaVuSans-69" d="M 603 3500 
L 1178 3500 
L 1178 0 
L 603 0 
L 603 3500 
z
M 603 4863 
L 1178 4863 
L 1178 4134 
L 603 4134 
L 603 4863 
z
" transform="scale(0.015625)"/>
       <path id="DejaVuSans-64" d="M 2906 2969 
L 2906 4863 
L 3481 4863 
L 3481 0 
L 2906 0 
L 2906 525 
Q 2725 213 2448 61 
Q 2172 -91 1784 -91 
Q 1150 -91 751 415 
Q 353 922 353 1747 
Q 353 2572 751 3078 
Q 1150 3584 1784 3584 
Q 2172 3584 2448 3432 
Q 2725 3281 2906 2969 
z
M 947 1747 
Q 947 1113 1208 752 
Q 1469 391 1925 391 
Q 2381 391 2643 752 
Q 2906 1113 2906 1747 
Q 2906 2381 2643 2742 
Q 2381 3103 1925 3103 
Q 1469 3103 1208 2742 
Q 947 2381 947 1747 
z
" transform="scale(0.015625)"/>
       <path id="DejaVuSans-75" d="M 544 1381 
L 544 3500 
L 1119 3500 
L 1119 1403 
Q 1119 906 1312 657 
Q 1506 409 1894 409 
Q 2359 409 2629 706 
Q 2900 1003 2900 1516 
L 2900 3500 
L 3475 3500 
L 3475 0 
L 2900 0 
L 2900 538 
Q 2691 219 2414 64 
Q 2138 -91 1772 -91 
Q 1169 -91 856 284 
Q 544 659 544 1381 
z
M 1991 3584 
L 1991 3584 
z
" transform="scale(0.015625)"/>
       <path id="DejaVuSans-6c" d="M 603 4863 
L 1178 4863 
L 1178 0 
L 603 0 
L 603 4863 
z
" transform="scale(0.015625)"/>
       <path id="DejaVuSans-20" transform="scale(0.015625)"/>
       <path id="DejaVuSans-2f" d="M 1625 4666 
L 2156 4666 
L 531 -594 
L 0 -594 
L 1625 4666 
z
" transform="scale(0.015625)"/>
       <path id="DejaVuSans-70" d="M 1159 525 
L 1159 -1331 
L 581 -1331 
L 581 3500 
L 1159 3500 
L 1159 2969 
Q 1341 3281 1617 3432 
Q 1894 3584 2278 3584 
Q 2916 3584 3314 3078 
Q 3713 2572 3713 1747 
Q 3713 922 3314 415 
Q 2916 -91 2278 -91 
Q 1894 -91 1617 61 
Q 1341 213 1159 525 
z
M 3116 1747 
Q 3116 2381 2855 2742 
Q 2594 3103 2138 3103 
Q 1681 3103 1420 2742 
Q 1159 2381 1159 1747 
Q 1159 1113 1420 752 
Q 1681 391 2138 391 
Q 2594 391 2855 752 
Q 3116 1113 3116 1747 
z
" transform="scale(0.015625)"/>
       <path id="DejaVuSans-6d" d="M 3328 2828 
Q 3544 3216 3844 3400 
Q 4144 3584 4550 3584 
Q 5097 3584 5394 3201 
Q 5691 2819 5691 2113 
L 5691 0 
L 5113 0 
L 5113 2094 
Q 5113 2597 4934 2840 
Q 4756 3084 4391 3084 
Q 3944 3084 3684 2787 
Q 3425 2491 3425 1978 
L 3425 0 
L 2847 0 
L 2847 2094 
Q 2847 2600 2669 2842 
Q 2491 3084 2119 3084 
Q 1678 3084 1418 2786 
Q 1159 2488 1159 1978 
L 1159 0 
L 581 0 
L 581 3500 
L 1159 3500 
L 1159 2956 
Q 1356 3278 1631 3431 
Q 1906 3584 2284 3584 
Q 2666 3584 2933 3390 
Q 3200 3197 3328 2828 
z
" transform="scale(0.015625)"/>
      </defs>
      <use xlink:href="#DejaVuSans-52"/>
      <use xlink:href="#DejaVuSans-65" transform="translate(64.982422 0)"/>
      <use xlink:href="#DejaVuSans-73" transform="translate(126.505859 0)"/>
      <use xlink:href="#DejaVuSans-69" transform="translate(178.605469 0)"/>
      <use xlink:href="#DejaVuSans-64" transform="translate(206.388672 0)"/>
      <use xlink:href="#DejaVuSans-75" transform="translate(269.865234 0)"/>
      <use xlink:href="#DejaVuSans-61" transform="translate(333.244141 0)"/>
      <use xlink:href="#DejaVuSans-6c" transform="translate(394.523438 0)"/>
      <use xlink:href="#DejaVuSans-20" transform="translate(422.306641 0)"/>
      <use xlink:href="#DejaVuSans-2f" transform="translate(454.09375 0)"/>
      <use xlink:href="#DejaVuSans-20" transform="translate(487.785156 0)"/>
      <use xlink:href="#DejaVuSans-70" transform="translate(519.572266 0)"/>
      <use xlink:href="#DejaVuSans-70" transform="translate(583.048828 0)"/>
      <use xlink:href="#DejaVuSans-6d" transform="translate(646.525391 0)"/>
     </g>
    </g>
   </g>
   <g id="line2d_31">
    <path d="M 46.64 113.083172 
L 853.2 113.083172 
" clip-path="url(#p67efd3826b)" style="fill: none; stroke-dasharray: 5.55,2.4; stroke-dashoffset: 0; stroke: #808080; stroke-width: 1.5"/>
   </g>
   <g id="line2d_32">
    <path d="M 83.301818 38.74 
L 84.361013 112.027713 
L 85.386041 107.149966 
L 86.445236 130.65759 
L 87.470263 125.77603 
L 88.529459 104.38199 
L 89.588654 125.456314 
L 90.613681 95.081285 
L 91.672876 124.932271 
L 92.697904 104.198792 
L 93.757099 102.565161 
L 94.816294 129.456492 
L 95.807154 304.74 
L 96.866349 122.890226 
L 97.891377 138.36401 
L 98.950572 109.191515 
L 99.975599 110.420079 
L 101.034795 108.691583 
L 102.09399 115.940704 
L 103.119017 113.301351 
L 104.178212 116.40997 
L 105.20324 118.503305 
L 106.262435 123.140347 
L 107.32163 106.843111 
L 108.278322 125.104463 
L 109.337518 106.383269 
L 110.362545 133.590878 
L 111.42174 113.342415 
L 112.446768 99.440983 
L 113.505963 121.408624 
L 114.565158 99.477751 
L 115.590186 118.814949 
L 116.649381 96.537796 
L 117.674408 120.463931 
L 118.733603 105.251627 
L 119.792798 97.880718 
L 120.749491 111.310184 
L 121.808686 107.707736 
L 122.833713 114.197908 
L 123.892909 108.453124 
L 124.917936 116.960347 
L 125.977131 109.768136 
L 127.036326 126.929641 
L 128.061354 117.659853 
L 129.120549 102.571883 
L 130.145577 102.439925 
L 131.204772 103.045592 
L 132.263967 120.293288 
L 133.220659 120.946805 
L 134.279854 116.407663 
L 135.304882 118.27508 
L 136.364077 126.528032 
L 137.389104 117.356814 
L 138.4483 106.41471 
L 139.507495 108.428812 
L 140.532522 102.5542 
L 141.591717 102.007976 
L 142.616745 107.757473 
L 143.67594 126.201977 
L 144.735135 117.057955 
L 145.725995 109.950857 
L 146.78519 115.315691 
L 147.810218 116.861055 
L 148.869413 102.539239 
L 149.89444 107.15161 
L 150.953636 115.667364 
L 152.012831 117.080729 
L 153.037858 116.656651 
L 154.097053 116.659913 
L 155.122081 97.030717 
L 156.181276 100.844062 
L 157.240471 117.813575 
L 158.197163 99.225811 
L 159.256359 111.905232 
L 160.281386 105.029866 
L 161.340581 117.828222 
L 162.365609 104.505558 
L 163.424804 115.951057 
L 164.483999 107.918813 
L 165.509027 119.679484 
L 166.568222 122.778541 
L 167.593249 110.883084 
L 168.652444 117.183623 
L 169.711639 101.273105 
L 170.668332 106.943755 
L 171.727527 111.568197 
L 172.752554 132.755673 
L 173.81175 115.797554 
L 174.836777 115.728021 
L 175.895972 103.763051 
L 176.955167 111.786081 
L 177.980195 102.752206 
L 179.03939 118.952822 
L 180.064418 118.477927 
L 181.123613 115.374285 
L 182.182808 114.840741 
L 183.1395 122.49581 
L 184.198695 138.638978 
L 185.223723 102.934242 
L 186.282918 105.033532 
L 187.307945 104.917039 
L 188.367141 111.988592 
L 189.426336 125.772389 
L 190.451363 108.997144 
L 191.510558 107.589569 
L 192.535586 110.743097 
L 193.594781 118.885659 
L 194.653976 108.372542 
L 195.644836 131.483959 
L 196.704031 90.587743 
L 197.729059 114.768488 
L 198.788254 129.759088 
L 199.813281 115.303513 
L 200.872476 107.486177 
L 201.931672 106.353446 
L 202.956699 94.470501 
L 204.015894 101.557153 
L 205.040922 110.011916 
L 206.100117 110.593262 
L 207.159312 101.189559 
L 208.116004 108.245616 
L 209.1752 111.604566 
L 210.200227 97.378402 
L 211.259422 102.72961 
L 212.28445 109.643735 
L 213.343645 99.043832 
L 214.40284 116.43921 
L 215.427867 118.640289 
L 216.487063 124.556604 
L 217.51209 138.574027 
L 218.571285 132.982648 
L 219.63048 99.523035 
L 220.587173 107.024353 
L 221.646368 114.055841 
L 222.671395 115.917372 
L 223.730591 129.088494 
L 224.755618 113.851075 
L 225.814813 117.622484 
L 226.874008 120.421709 
L 227.899036 114.638447 
L 228.958231 119.129847 
L 229.983258 110.443232 
L 231.042454 106.128553 
L 232.101649 111.050226 
L 233.058341 118.478926 
L 234.117536 117.280408 
L 235.142564 109.172694 
L 236.201759 109.5666 
L 237.226786 119.336133 
L 238.285982 120.491722 
L 239.345177 108.620131 
L 240.370204 114.54077 
L 241.429399 116.555786 
L 242.454427 106.18799 
L 243.513622 116.380955 
L 244.572817 102.232032 
L 245.563677 111.891989 
L 246.622872 106.433497 
L 247.6479 130.924733 
L 248.707095 125.350633 
L 249.732122 109.17304 
L 250.791317 129.060397 
L 251.850513 123.520216 
L 252.87554 121.145984 
L 253.934735 106.844584 
L 254.959763 100.056337 
L 256.018958 105.366122 
L 257.078153 120.766998 
L 258.034845 80.100333 
L 259.09404 101.950021 
L 260.119068 99.099387 
L 261.178263 113.364605 
L 262.203291 115.38764 
L 263.262486 125.607791 
L 264.321681 106.493995 
L 265.346708 106.556712 
L 266.405904 111.813607 
L 267.430931 114.125204 
L 268.490126 101.804398 
L 269.549321 122.468722 
L 270.506014 96.342308 
L 271.565209 115.710779 
L 272.590236 121.880211 
L 273.649432 95.900503 
L 274.674459 116.569189 
L 275.733654 116.286763 
L 276.792849 129.537712 
L 277.817877 114.750277 
L 278.877072 111.301452 
L 279.902099 115.457637 
L 280.961295 107.458759 
L 282.02049 116.160784 
L 282.977182 91.554606 
L 284.036377 127.991977 
L 285.061405 122.552426 
L 286.1206 99.739882 
L 287.145627 124.91417 
L 288.204823 111.633695 
L 289.264018 116.388255 
L 290.289045 103.741197 
L 291.34824 113.239845 
L 292.373268 101.208791 
L 293.432463 107.219453 
L 294.491658 120.38321 
L 295.482518 92.347468 
L 296.541713 113.457139 
L 297.566741 112.535908 
L 298.625936 101.34489 
L 299.650963 129.746302 
L 300.710158 112.620034 
L 301.769354 106.259563 
L 302.794381 112.563381 
L 303.853576 113.216899 
L 304.878604 119.361556 
L 305.937799 117.837986 
L 306.996994 95.974134 
L 307.953686 106.934878 
L 309.012881 113.163161 
L 310.037909 116.644464 
L 311.097104 117.781595 
L 312.122132 125.391637 
L 313.181327 131.379124 
L 314.240522 118.013817 
L 315.265549 111.581389 
L 316.324745 102.045122 
L 317.349772 105.431314 
L 318.408967 110.470363 
L 319.468162 109.350968 
L 320.424855 110.774751 
L 321.48405 110.366417 
L 322.509077 102.62863 
L 323.568272 123.745393 
L 324.5933 117.793642 
L 326.71169 124.935697 
L 327.736718 116.568954 
L 328.795913 122.356989 
L 329.82094 113.748519 
L 330.880136 121.72149 
L 331.939331 102.905011 
L 332.896023 125.56305 
L 333.955218 88.115802 
L 334.980246 99.881242 
L 336.039441 101.901647 
L 337.064468 110.315719 
L 338.123663 104.028918 
L 339.182859 123.696259 
L 340.207886 113.512196 
L 341.267081 111.953635 
L 342.292109 106.110392 
L 344.410499 116.013503 
L 345.401359 122.376253 
L 346.460554 101.824153 
L 347.485582 116.480103 
L 348.544777 118.367985 
L 349.569804 114.847264 
L 350.628999 116.046334 
L 351.688195 128.978203 
L 352.713222 109.815936 
L 353.772417 105.396433 
L 354.797445 95.342071 
L 355.85664 124.406634 
L 356.915835 111.675251 
L 357.872527 95.00916 
L 358.931722 123.894908 
L 359.95675 114.191868 
L 361.015945 119.721425 
L 362.040973 126.959166 
L 363.100168 107.826927 
L 364.159363 112.589205 
L 365.18439 118.574969 
L 366.243586 110.871633 
L 367.268613 111.580829 
L 368.327808 121.907588 
L 369.387003 119.345036 
L 370.343696 125.268527 
L 371.402891 105.28863 
L 372.427918 108.326426 
L 373.487113 112.789114 
L 374.512141 121.676262 
L 375.571336 121.64165 
L 376.630531 82.804212 
L 377.655559 124.965362 
L 378.714754 111.220917 
L 379.739781 115.087134 
L 380.798977 102.627302 
L 381.858172 130.361709 
L 382.814864 123.974608 
L 383.874059 106.958298 
L 384.899087 106.451618 
L 385.958282 112.485129 
L 386.983309 109.078752 
L 388.042504 112.671372 
L 389.1017 112.316928 
L 390.126727 107.92483 
L 391.185922 109.373058 
L 392.21095 114.046638 
L 393.270145 105.288495 
L 394.32934 95.273023 
L 395.3202 113.144213 
L 396.379395 115.347471 
L 397.404423 112.101944 
L 398.463618 111.196611 
L 399.488645 100.387112 
L 400.54784 118.81329 
L 401.607035 112.520034 
L 402.632063 98.165859 
L 403.691258 115.530295 
L 404.716286 115.952443 
L 405.775481 100.366702 
L 406.834676 122.861622 
L 407.791368 125.447888 
L 408.850563 107.686759 
L 409.875591 125.454509 
L 410.934786 118.567281 
L 411.959814 115.621602 
L 413.019009 121.653972 
L 414.078204 121.149961 
L 415.103231 109.878125 
L 416.162427 113.390382 
L 417.187454 111.216264 
L 418.246649 116.924547 
L 419.305844 98.154366 
L 421.321732 138.065225 
L 422.346759 107.813198 
L 423.405954 129.274626 
L 424.430982 122.812389 
L 425.490177 111.130856 
L 426.549372 114.540624 
L 427.5744 106.33234 
L 428.633595 104.710397 
L 429.658622 111.177537 
L 430.717818 128.598252 
L 431.777013 116.834898 
L 432.733705 97.339943 
L 433.7929 99.538781 
L 435.877123 125.715501 
L 436.90215 134.294519 
L 437.961345 132.535924 
L 439.020541 121.313788 
L 440.045568 117.649609 
L 441.104763 110.403384 
L 442.129791 111.812701 
L 443.188986 106.486022 
L 444.248181 109.783689 
L 445.239041 119.511596 
L 446.298236 115.115047 
L 447.323264 118.705955 
L 448.382459 103.805639 
L 449.407486 135.583111 
L 450.466681 124.919388 
L 451.525876 132.001227 
L 452.550904 109.334811 
L 453.610099 122.884471 
L 454.635127 118.142689 
L 455.694322 102.053669 
L 456.753517 124.922842 
L 457.710209 109.466102 
L 458.769404 129.743624 
L 459.794432 109.355949 
L 460.853627 116.436232 
L 461.878655 133.616956 
L 462.93785 109.467236 
L 463.997045 112.002991 
L 465.022072 113.359598 
L 466.081267 112.537355 
L 467.106295 106.697295 
L 468.16549 102.644617 
L 469.224685 112.036667 
L 470.181378 109.688992 
L 471.240573 110.836177 
L 472.2656 119.353024 
L 473.324795 124.72686 
L 474.349823 111.139078 
L 475.409018 110.486589 
L 476.468213 114.123865 
L 477.493241 106.892815 
L 478.552436 105.416621 
L 479.577463 106.054536 
L 480.636658 116.017754 
L 481.695854 106.689972 
L 482.652546 112.079352 
L 483.711741 104.416242 
L 484.736769 116.307717 
L 485.795964 110.820951 
L 486.820991 110.92606 
L 487.880186 127.088088 
L 488.939382 96.979737 
L 489.964409 118.813358 
L 491.023604 108.75872 
L 492.048632 116.351176 
L 493.107827 104.222906 
L 494.167022 98.129431 
L 495.157882 108.811464 
L 496.217077 137.598916 
L 497.242105 123.237353 
L 498.3013 104.885455 
L 499.326327 104.276013 
L 501.444717 123.068605 
L 502.469745 118.366312 
L 503.52894 116.469492 
L 504.553968 114.192695 
L 505.613163 121.324466 
L 506.672358 112.586086 
L 507.62905 131.899363 
L 508.688245 98.481076 
L 509.713273 119.358826 
L 510.772468 130.667981 
L 511.797496 110.929414 
L 512.856691 113.26585 
L 513.915886 125.310246 
L 514.940913 103.204711 
L 516.000108 99.546142 
L 517.025136 90.522803 
L 518.084331 110.331788 
L 519.143526 116.214811 
L 520.100219 102.749029 
L 521.159414 104.352235 
L 522.184441 101.331553 
L 523.243636 103.78998 
L 524.268664 96.54177 
L 525.327859 99.762521 
L 526.387054 115.390295 
L 527.412082 106.666312 
L 528.471277 118.173037 
L 529.496304 107.095181 
L 530.555499 112.244154 
L 531.614695 108.690765 
L 532.571387 124.625212 
L 533.630582 114.988352 
L 534.65561 135.064801 
L 535.714805 124.606101 
L 536.739832 97.381576 
L 537.799027 126.329315 
L 538.858222 130.437065 
L 539.88325 107.904232 
L 541.967473 114.656171 
L 543.026668 109.606182 
L 544.085863 130.34656 
L 545.076723 115.500727 
L 546.135918 116.542353 
L 547.160946 139.459566 
L 548.220141 98.910879 
L 549.245168 124.964102 
L 550.304363 106.949679 
L 551.363558 91.390819 
L 552.388586 111.990621 
L 553.447781 111.649084 
L 554.472809 116.863496 
L 555.532004 118.434413 
L 556.591199 110.43128 
L 557.547891 113.070709 
L 558.607086 126.094196 
L 559.632114 115.080155 
L 560.691309 119.275458 
L 561.716337 124.362387 
L 562.775532 111.989512 
L 563.834727 108.148551 
L 564.859754 109.058732 
L 565.918949 112.337697 
L 566.943977 109.536492 
L 568.003172 105.46113 
L 569.062367 115.001558 
L 570.01906 114.162941 
L 571.078255 122.786314 
L 572.103282 106.377986 
L 573.162477 104.602577 
L 574.187505 109.892159 
L 575.2467 114.266747 
L 576.305895 97.104002 
L 577.330923 119.951057 
L 578.390118 102.620445 
L 579.415145 104.467878 
L 580.47434 110.226339 
L 581.533536 112.701242 
L 582.490228 115.844209 
L 583.549423 110.300649 
L 584.574451 100.402486 
L 585.633646 102.732423 
L 586.658673 110.553353 
L 587.717868 121.349453 
L 588.777063 104.980363 
L 589.802091 117.188807 
L 590.861286 110.50474 
L 591.886314 116.866838 
L 592.945509 116.916501 
L 594.004704 111.367462 
L 594.995564 110.83989 
L 596.054759 104.531762 
L 597.079786 120.578892 
L 598.138982 129.700602 
L 599.164009 143.520717 
L 600.223204 106.986398 
L 601.282399 120.526237 
L 602.307427 114.097967 
L 603.366622 105.092233 
L 604.39165 113.774191 
L 605.450845 116.868445 
L 606.51004 99.787173 
L 607.466732 105.473604 
L 608.525927 101.145779 
L 609.550955 119.087375 
L 610.61015 105.224989 
L 611.635177 107.993991 
L 612.694373 109.555024 
L 613.753568 126.796974 
L 614.778595 113.589648 
L 615.83779 117.335782 
L 616.862818 102.807688 
L 617.922013 103.828747 
L 618.981208 110.502032 
L 619.937901 127.600769 
L 620.997096 96.527498 
L 622.022123 106.996238 
L 623.081318 127.946182 
L 624.106346 117.956989 
L 625.165541 117.736533 
L 626.224736 113.400669 
L 627.249764 110.026376 
L 628.308959 125.505735 
L 629.333986 110.30481 
L 630.393181 113.39116 
L 631.452377 107.979999 
L 632.409069 117.90855 
L 633.468264 96.56451 
L 634.493292 120.218479 
L 635.552487 111.216922 
L 636.577514 113.044742 
L 637.636709 130.660205 
L 638.695904 100.910359 
L 639.720932 111.319454 
L 640.780127 113.319647 
L 641.805155 113.998287 
L 642.86435 97.295933 
L 643.923545 127.122012 
L 644.914405 138.680326 
L 645.9736 136.041254 
L 646.998627 90.302314 
L 648.057823 114.580716 
L 649.08285 107.330704 
L 650.142045 118.445369 
L 651.20124 95.261171 
L 652.226268 119.438054 
L 653.285463 120.728925 
L 654.310491 120.648592 
L 655.369686 109.807337 
L 656.428881 121.02026 
L 657.385573 97.645308 
L 658.444768 129.391172 
L 659.469796 117.333659 
L 660.528991 120.14096 
L 661.554018 114.902281 
L 662.613214 107.636016 
L 663.672409 109.395524 
L 664.697436 125.674261 
L 665.756631 109.980157 
L 666.781659 114.579637 
L 667.840854 111.140598 
L 668.900049 87.944528 
L 669.856742 101.126501 
L 670.915937 106.115019 
L 671.940964 109.622329 
L 673.000159 119.94378 
L 674.025187 128.238829 
L 675.084382 113.732959 
L 676.143577 117.277431 
L 677.168605 104.45835 
L 678.2278 109.434768 
L 679.252827 121.808683 
L 680.312022 105.465322 
L 681.371217 122.169769 
L 682.32791 121.852105 
L 683.387105 137.532123 
L 684.412133 108.563226 
L 685.471328 108.780012 
L 686.496355 99.464493 
L 687.55555 121.373335 
L 688.614745 100.937207 
L 689.639773 116.923378 
L 690.698968 118.151121 
L 691.723996 110.845408 
L 692.783191 112.302904 
L 693.842386 116.811855 
L 694.833246 124.950743 
L 695.892441 99.712733 
L 696.917468 111.275686 
L 697.976664 126.05125 
L 699.001691 112.644618 
L 701.120081 107.364849 
L 702.145109 116.674855 
L 703.204304 96.022068 
L 704.229332 110.583291 
L 705.288527 112.027469 
L 706.347722 98.757606 
L 707.304414 113.771634 
L 708.363609 124.705725 
L 709.388637 90.390086 
L 710.447832 125.238667 
L 711.472859 109.66353 
L 712.532055 112.885654 
L 713.59125 123.460291 
L 714.616277 114.313241 
L 715.675472 114.322861 
L 716.7005 106.16968 
L 717.759695 118.402921 
L 718.81889 134.945918 
L 719.775582 92.886019 
L 720.834778 96.363983 
L 721.859805 114.891363 
L 722.919 107.031557 
L 723.944028 132.654123 
L 725.003223 120.711213 
L 726.062418 125.159577 
L 727.087446 101.30232 
L 728.146641 117.130864 
L 729.171668 107.281446 
L 730.230863 114.705138 
L 731.290058 126.362056 
L 732.246751 110.401869 
L 733.305946 102.120434 
L 734.330973 105.408377 
L 735.390169 126.00528 
L 736.415196 115.619743 
L 737.474391 125.10523 
L 738.533586 111.898573 
L 739.558614 96.999932 
L 740.617809 96.2592 
L 741.642837 97.59574 
L 742.702032 123.066732 
L 743.761227 91.695749 
L 744.752087 111.969618 
L 745.811282 73.697459 
L 746.836309 109.938751 
L 747.895505 115.236121 
L 748.920532 140.018569 
L 749.979727 124.46772 
L 751.038922 111.586085 
L 752.06395 104.430944 
L 753.123145 95.187456 
L 754.148172 126.315904 
L 755.207368 97.885654 
L 756.266563 126.307084 
L 758.28245 110.245332 
L 759.307478 110.87206 
L 760.366673 115.319638 
L 761.3917 116.312675 
L 762.450896 110.129569 
L 763.510091 125.405398 
L 764.535118 118.903034 
L 765.594313 117.090628 
L 766.619341 107.20273 
L 767.678536 114.028019 
L 768.737731 125.536046 
L 769.694423 111.654009 
L 770.753619 135.547694 
L 771.778646 109.778324 
L 772.837841 103.701121 
L 773.862869 124.000757 
L 774.922064 105.531376 
L 775.981259 112.601331 
L 777.006287 104.677951 
L 778.065482 95.081362 
L 779.090509 119.77695 
L 780.149704 96.83194 
L 781.208899 102.094553 
L 782.165592 131.192495 
L 783.224787 120.03569 
L 784.249814 97.465519 
L 785.30901 107.169551 
L 786.334037 126.689158 
L 787.393232 110.62697 
L 788.452427 111.137332 
L 789.477455 121.931747 
L 790.53665 112.373264 
L 791.561678 111.653944 
L 792.620873 101.774949 
L 793.680068 110.197363 
L 794.670928 127.484366 
L 795.730123 107.9803 
L 796.75515 109.372773 
L 797.814346 112.478374 
L 798.839373 119.366363 
L 799.898568 109.870412 
L 800.957763 105.62226 
L 801.982791 119.598019 
L 803.041986 113.846425 
L 804.067013 124.555051 
L 805.126209 120.020317 
L 806.185404 99.460813 
L 807.142096 106.066018 
L 808.201291 111.439165 
L 809.226319 134.983345 
L 810.285514 103.624777 
L 811.310541 119.233062 
L 812.369737 130.324912 
L 813.428932 113.039653 
L 814.453959 101.054862 
L 815.513154 126.279262 
L 816.538182 108.636122 
L 816.538182 108.636122 
" clip-path="url(#p67efd3826b)" style="fill: none; stroke: #1f77b4; stroke-width: 1.5; stroke-linecap: square"/>
   </g>
   <g id="patch_3">
    <path d="M 46.64 318.04 
L 46.64 25.44 
" style="fill: none; stroke: #000000; stroke-width: 0.8; stroke-linejoin: miter; stroke-linecap: square"/>
   </g>
   <g id="patch_4">
    <path d="M 853.2 318.04 
L 853.2 25.44 
" style="fill: none; stroke: #000000; stroke-width: 0.8; stroke-linejoin: miter; stroke-linecap: square"/>
   </g>
   <g id="patch_5">
    <path d="M 46.64 318.04 
L 853.2 318.04 
" style="fill: none; stroke: #000000; stroke-width: 0.8; stroke-linejoin: miter; stroke-linecap: square"/>
   </g>
   <g id="patch_6">
    <path d="M 46.64 25.44 
L 853.2 25.44 
" style="fill: none; stroke: #000000; stroke-width: 0.8; stroke-linejoin: miter; stroke-linecap: square"/>
   </g>
   <g id="text_18">
    <!-- SARIMA(1,1,1)(5,1,5,12): full_data Residuals Over Time -->
    <g transform="translate(284.245938 19.44) scale(0.12 -0.12)">
     <defs>
      <path id="DejaVuSans-53" d="M 3425 4513 
L 3425 3897 
Q 3066 4069 2747 4153 
Q 2428 4238 2131 4238 
Q 1616 4238 1336 4038 
Q 1056 3838 1056 3469 
Q 1056 3159 1242 3001 
Q 1428 2844 1947 2747 
L 2328 2669 
Q 3034 2534 3370 2195 
Q 3706 1856 3706 1288 
Q 3706 609 3251 259 
Q 2797 -91 1919 -91 
Q 1588 -91 1214 -16 
Q 841 59 441 206 
L 441 856 
Q 825 641 1194 531 
Q 1563 422 1919 422 
Q 2459 422 2753 634 
Q 3047 847 3047 1241 
Q 3047 1584 2836 1778 
Q 2625 1972 2144 2069 
L 1759 2144 
Q 1053 2284 737 2584 
Q 422 2884 422 3419 
Q 422 4038 858 4394 
Q 1294 4750 2059 4750 
Q 2388 4750 2728 4690 
Q 3069 4631 3425 4513 
z
" transform="scale(0.015625)"/>
      <path id="DejaVuSans-41" d="M 2188 4044 
L 1331 1722 
L 3047 1722 
L 2188 4044 
z
M 1831 4666 
L 2547 4666 
L 4325 0 
L 3669 0 
L 3244 1197 
L 1141 1197 
L 716 0 
L 50 0 
L 1831 4666 
z
" transform="scale(0.015625)"/>
      <path id="DejaVuSans-49" d="M 628 4666 
L 1259 4666 
L 1259 0 
L 628 0 
L 628 4666 
z
" transform="scale(0.015625)"/>
      <path id="DejaVuSans-4d" d="M 628 4666 
L 1569 4666 
L 2759 1491 
L 3956 4666 
L 4897 4666 
L 4897 0 
L 4281 0 
L 4281 4097 
L 3078 897 
L 2444 897 
L 1241 4097 
L 1241 0 
L 628 0 
L 628 4666 
z
" transform="scale(0.015625)"/>
      <path id="DejaVuSans-28" d="M 1984 4856 
Q 1566 4138 1362 3434 
Q 1159 2731 1159 2009 
Q 1159 1288 1364 580 
Q 1569 -128 1984 -844 
L 1484 -844 
Q 1016 -109 783 600 
Q 550 1309 550 2009 
Q 550 2706 781 3412 
Q 1013 4119 1484 4856 
L 1984 4856 
z
" transform="scale(0.015625)"/>
      <path id="DejaVuSans-2c" d="M 750 794 
L 1409 794 
L 1409 256 
L 897 -744 
L 494 -744 
L 750 256 
L 750 794 
z
" transform="scale(0.015625)"/>
      <path id="DejaVuSans-29" d="M 513 4856 
L 1013 4856 
Q 1481 4119 1714 3412 
Q 1947 2706 1947 2009 
Q 1947 1309 1714 600 
Q 1481 -109 1013 -844 
L 513 -844 
Q 928 -128 1133 580 
Q 1338 1288 1338 2009 
Q 1338 2731 1133 3434 
Q 928 4138 513 4856 
z
" transform="scale(0.015625)"/>
      <path id="DejaVuSans-3a" d="M 750 794 
L 1409 794 
L 1409 0 
L 750 0 
L 750 794 
z
M 750 3309 
L 1409 3309 
L 1409 2516 
L 750 2516 
L 750 3309 
z
" transform="scale(0.015625)"/>
      <path id="DejaVuSans-66" d="M 2375 4863 
L 2375 4384 
L 1825 4384 
Q 1516 4384 1395 4259 
Q 1275 4134 1275 3809 
L 1275 3500 
L 2222 3500 
L 2222 3053 
L 1275 3053 
L 1275 0 
L 697 0 
L 697 3053 
L 147 3053 
L 147 3500 
L 697 3500 
L 697 3744 
Q 697 4328 969 4595 
Q 1241 4863 1831 4863 
L 2375 4863 
z
" transform="scale(0.015625)"/>
      <path id="DejaVuSans-5f" d="M 3263 -1063 
L 3263 -1509 
L -63 -1509 
L -63 -1063 
L 3263 -1063 
z
" transform="scale(0.015625)"/>
      <path id="DejaVuSans-4f" d="M 2522 4238 
Q 1834 4238 1429 3725 
Q 1025 3213 1025 2328 
Q 1025 1447 1429 934 
Q 1834 422 2522 422 
Q 3209 422 3611 934 
Q 4013 1447 4013 2328 
Q 4013 3213 3611 3725 
Q 3209 4238 2522 4238 
z
M 2522 4750 
Q 3503 4750 4090 4092 
Q 4678 3434 4678 2328 
Q 4678 1225 4090 567 
Q 3503 -91 2522 -91 
Q 1538 -91 948 565 
Q 359 1222 359 2328 
Q 359 3434 948 4092 
Q 1538 4750 2522 4750 
z
" transform="scale(0.015625)"/>
      <path id="DejaVuSans-76" d="M 191 3500 
L 800 3500 
L 1894 563 
L 2988 3500 
L 3597 3500 
L 2284 0 
L 1503 0 
L 191 3500 
z
" transform="scale(0.015625)"/>
      <path id="DejaVuSans-72" d="M 2631 2963 
Q 2534 3019 2420 3045 
Q 2306 3072 2169 3072 
Q 1681 3072 1420 2755 
Q 1159 2438 1159 1844 
L 1159 0 
L 581 0 
L 581 3500 
L 1159 3500 
L 1159 2956 
Q 1341 3275 1631 3429 
Q 1922 3584 2338 3584 
Q 2397 3584 2469 3576 
Q 2541 3569 2628 3553 
L 2631 2963 
z
" transform="scale(0.015625)"/>
      <path id="DejaVuSans-54" d="M -19 4666 
L 3928 4666 
L 3928 4134 
L 2272 4134 
L 2272 0 
L 1638 0 
L 1638 4134 
L -19 4134 
L -19 4666 
z
" transform="scale(0.015625)"/>
     </defs>
     <use xlink:href="#DejaVuSans-53"/>
     <use xlink:href="#DejaVuSans-41" transform="translate(65.351562 0)"/>
     <use xlink:href="#DejaVuSans-52" transform="translate(133.759766 0)"/>
     <use xlink:href="#DejaVuSans-49" transform="translate(203.242188 0)"/>
     <use xlink:href="#DejaVuSans-4d" transform="translate(232.734375 0)"/>
     <use xlink:href="#DejaVuSans-41" transform="translate(319.013672 0)"/>
     <use xlink:href="#DejaVuSans-28" transform="translate(387.421875 0)"/>
     <use xlink:href="#DejaVuSans-31" transform="translate(426.435547 0)"/>
     <use xlink:href="#DejaVuSans-2c" transform="translate(490.058594 0)"/>
     <use xlink:href="#DejaVuSans-31" transform="translate(521.845703 0)"/>
     <use xlink:href="#DejaVuSans-2c" transform="translate(585.46875 0)"/>
     <use xlink:href="#DejaVuSans-31" transform="translate(617.255859 0)"/>
     <use xlink:href="#DejaVuSans-29" transform="translate(680.878906 0)"/>
     <use xlink:href="#DejaVuSans-28" transform="translate(719.892578 0)"/>
     <use xlink:href="#DejaVuSans-35" transform="translate(758.90625 0)"/>
     <use xlink:href="#DejaVuSans-2c" transform="translate(822.529297 0)"/>
     <use xlink:href="#DejaVuSans-31" transform="translate(854.316406 0)"/>
     <use xlink:href="#DejaVuSans-2c" transform="translate(917.939453 0)"/>
     <use xlink:href="#DejaVuSans-35" transform="translate(949.726562 0)"/>
     <use xlink:href="#DejaVuSans-2c" transform="translate(1013.349609 0)"/>
     <use xlink:href="#DejaVuSans-31" transform="translate(1045.136719 0)"/>
     <use xlink:href="#DejaVuSans-32" transform="translate(1108.759766 0)"/>
     <use xlink:href="#DejaVuSans-29" transform="translate(1172.382812 0)"/>
     <use xlink:href="#DejaVuSans-3a" transform="translate(1211.396484 0)"/>
     <use xlink:href="#DejaVuSans-20" transform="translate(1245.087891 0)"/>
     <use xlink:href="#DejaVuSans-66" transform="translate(1276.875 0)"/>
     <use xlink:href="#DejaVuSans-75" transform="translate(1312.080078 0)"/>
     <use xlink:href="#DejaVuSans-6c" transform="translate(1375.458984 0)"/>
     <use xlink:href="#DejaVuSans-6c" transform="translate(1403.242188 0)"/>
     <use xlink:href="#DejaVuSans-5f" transform="translate(1431.025391 0)"/>
     <use xlink:href="#DejaVuSans-64" transform="translate(1481.025391 0)"/>
     <use xlink:href="#DejaVuSans-61" transform="translate(1544.501953 0)"/>
     <use xlink:href="#DejaVuSans-74" transform="translate(1605.78125 0)"/>
     <use xlink:href="#DejaVuSans-61" transform="translate(1644.990234 0)"/>
     <use xlink:href="#DejaVuSans-20" transform="translate(1706.269531 0)"/>
     <use xlink:href="#DejaVuSans-52" transform="translate(1738.056641 0)"/>
     <use xlink:href="#DejaVuSans-65" transform="translate(1803.039062 0)"/>
     <use xlink:href="#DejaVuSans-73" transform="translate(1864.5625 0)"/>
     <use xlink:href="#DejaVuSans-69" transform="translate(1916.662109 0)"/>
     <use xlink:href="#DejaVuSans-64" transform="translate(1944.445312 0)"/>
     <use xlink:href="#DejaVuSans-75" transform="translate(2007.921875 0)"/>
     <use xlink:href="#DejaVuSans-61" transform="translate(2071.300781 0)"/>
     <use xlink:href="#DejaVuSans-6c" transform="translate(2132.580078 0)"/>
     <use xlink:href="#DejaVuSans-73" transform="translate(2160.363281 0)"/>
     <use xlink:href="#DejaVuSans-20" transform="translate(2212.462891 0)"/>
     <use xlink:href="#DejaVuSans-4f" transform="translate(2244.25 0)"/>
     <use xlink:href="#DejaVuSans-76" transform="translate(2322.960938 0)"/>
     <use xlink:href="#DejaVuSans-65" transform="translate(2382.140625 0)"/>
     <use xlink:href="#DejaVuSans-72" transform="translate(2443.664062 0)"/>
     <use xlink:href="#DejaVuSans-20" transform="translate(2484.777344 0)"/>
     <use xlink:href="#DejaVuSans-54" transform="translate(2516.564453 0)"/>
     <use xlink:href="#DejaVuSans-69" transform="translate(2574.523438 0)"/>
     <use xlink:href="#DejaVuSans-6d" transform="translate(2602.306641 0)"/>
     <use xlink:href="#DejaVuSans-65" transform="translate(2699.71875 0)"/>
    </g>
   </g>
   <g id="legend_1">
    <g id="patch_7">
     <path d="M 748.395313 62.79625 
L 846.2 62.79625 
Q 848.2 62.79625 848.2 60.79625 
L 848.2 32.44 
Q 848.2 30.44 846.2 30.44 
L 748.395313 30.44 
Q 746.395313 30.44 746.395313 32.44 
L 746.395313 60.79625 
Q 746.395313 62.79625 748.395313 62.79625 
z
" style="fill: #ffffff; opacity: 0.8; stroke: #cccccc; stroke-linejoin: miter"/>
    </g>
    <g id="line2d_33">
     <path d="M 750.395313 38.538437 
L 760.395313 38.538437 
L 770.395313 38.538437 
" style="fill: none; stroke-dasharray: 5.55,2.4; stroke-dashoffset: 0; stroke: #808080; stroke-width: 1.5"/>
    </g>
    <g id="text_19">
     <!-- Zero residual -->
     <g transform="translate(778.395313 42.038437) scale(0.1 -0.1)">
      <defs>
       <path id="DejaVuSans-5a" d="M 359 4666 
L 4025 4666 
L 4025 4184 
L 1075 531 
L 4097 531 
L 4097 0 
L 288 0 
L 288 481 
L 3238 4134 
L 359 4134 
L 359 4666 
z
" transform="scale(0.015625)"/>
       <path id="DejaVuSans-6f" d="M 1959 3097 
Q 1497 3097 1228 2736 
Q 959 2375 959 1747 
Q 959 1119 1226 758 
Q 1494 397 1959 397 
Q 2419 397 2687 759 
Q 2956 1122 2956 1747 
Q 2956 2369 2687 2733 
Q 2419 3097 1959 3097 
z
M 1959 3584 
Q 2709 3584 3137 3096 
Q 3566 2609 3566 1747 
Q 3566 888 3137 398 
Q 2709 -91 1959 -91 
Q 1206 -91 779 398 
Q 353 888 353 1747 
Q 353 2609 779 3096 
Q 1206 3584 1959 3584 
z
" transform="scale(0.015625)"/>
      </defs>
      <use xlink:href="#DejaVuSans-5a"/>
      <use xlink:href="#DejaVuSans-65" transform="translate(68.505859 0)"/>
      <use xlink:href="#DejaVuSans-72" transform="translate(130.029297 0)"/>
      <use xlink:href="#DejaVuSans-6f" transform="translate(168.892578 0)"/>
      <use xlink:href="#DejaVuSans-20" transform="translate(230.074219 0)"/>
      <use xlink:href="#DejaVuSans-72" transform="translate(261.861328 0)"/>
      <use xlink:href="#DejaVuSans-65" transform="translate(300.724609 0)"/>
      <use xlink:href="#DejaVuSans-73" transform="translate(362.248047 0)"/>
      <use xlink:href="#DejaVuSans-69" transform="translate(414.347656 0)"/>
      <use xlink:href="#DejaVuSans-64" transform="translate(442.130859 0)"/>
      <use xlink:href="#DejaVuSans-75" transform="translate(505.607422 0)"/>
      <use xlink:href="#DejaVuSans-61" transform="translate(568.986328 0)"/>
      <use xlink:href="#DejaVuSans-6c" transform="translate(630.265625 0)"/>
     </g>
    </g>
    <g id="line2d_34">
     <path d="M 750.395313 53.216563 
L 760.395313 53.216563 
L 770.395313 53.216563 
" style="fill: none; stroke: #1f77b4; stroke-width: 1.5; stroke-linecap: square"/>
    </g>
    <g id="text_20">
     <!-- Residuals -->
     <g transform="translate(778.395313 56.716563) scale(0.1 -0.1)">
      <use xlink:href="#DejaVuSans-52"/>
      <use xlink:href="#DejaVuSans-65" transform="translate(64.982422 0)"/>
      <use xlink:href="#DejaVuSans-73" transform="translate(126.505859 0)"/>
      <use xlink:href="#DejaVuSans-69" transform="translate(178.605469 0)"/>
      <use xlink:href="#DejaVuSans-64" transform="translate(206.388672 0)"/>
      <use xlink:href="#DejaVuSans-75" transform="translate(269.865234 0)"/>
      <use xlink:href="#DejaVuSans-61" transform="translate(333.244141 0)"/>
      <use xlink:href="#DejaVuSans-6c" transform="translate(394.523438 0)"/>
      <use xlink:href="#DejaVuSans-73" transform="translate(422.306641 0)"/>
     </g>
    </g>
   </g>
  </g>
 </g>
 <defs>
  <clipPath id="p67efd3826b">
   <rect x="46.64" y="25.44" width="806.56" height="292.6"/>
  </clipPath>
 </defs>
</svg>
